<svg width="18" height="18" viewBox="0 0 18 18" fill="none" xmlns="http://www.w3.org/2000/svg">
<path d="M13.5004 8.99993C13.4967 8.60535 13.3377 8.2281 13.0579 7.94993L9.84037 4.72493C9.69984 4.58524 9.50976 4.50684 9.31162 4.50684C9.11348 4.50684 8.92339 4.58524 8.78287 4.72493C8.71257 4.79465 8.65677 4.8776 8.6187 4.969C8.58062 5.06039 8.56102 5.15842 8.56102 5.25743C8.56102 5.35644 8.58062 5.45447 8.6187 5.54586C8.65677 5.63726 8.71257 5.72021 8.78287 5.78993L11.2504 8.24993H3.75037C3.55145 8.24993 3.36069 8.32895 3.22004 8.4696C3.07938 8.61025 3.00037 8.80102 3.00037 8.99993C3.00037 9.19884 3.07938 9.38961 3.22004 9.53026C3.36069 9.67091 3.55145 9.74993 3.75037 9.74993H11.2504L8.78287 12.2174C8.64164 12.3577 8.5619 12.5483 8.5612 12.7473C8.5605 12.9463 8.63888 13.1375 8.77912 13.2787C8.91935 13.4199 9.10994 13.4996 9.30897 13.5003C9.50799 13.5011 9.69914 13.4227 9.84037 13.2824L13.0579 10.0574C13.3396 9.77742 13.4987 9.39711 13.5004 8.99993Z" fill="white"/>
</svg>
