<svg width="25" height="25" viewBox="0 0 25 25" fill="none" xmlns="http://www.w3.org/2000/svg">
<path d="M17.9174 8.02194C17.5419 7.65337 17.0363 7.44758 16.5102 7.44918L10.4362 7.44211C10.172 7.4429 9.91885 7.54819 9.73204 7.735C9.54523 7.92181 9.43994 8.17495 9.43915 8.43913C9.43861 8.57114 9.46421 8.70195 9.51448 8.82402C9.56475 8.94609 9.63869 9.05699 9.73204 9.15034C9.82539 9.24368 9.93629 9.31762 10.0584 9.36789C10.1804 9.41816 10.3112 9.44376 10.4432 9.44322L15.0889 9.43615L8.01787 16.5072C7.83033 16.6948 7.72498 16.9491 7.72498 17.2143C7.72498 17.4795 7.83033 17.7339 8.01787 17.9214C8.2054 18.109 8.45976 18.2143 8.72498 18.2143C8.99019 18.2143 9.24455 18.109 9.43208 17.9214L16.5032 10.8504L16.5032 15.5031C16.5022 15.7685 16.6067 16.0234 16.7937 16.2117C16.9807 16.4 17.2348 16.5063 17.5002 16.5072C17.7655 16.5082 18.0204 16.4036 18.2087 16.2167C18.397 16.0297 18.5033 15.7756 18.5043 15.5102L18.4972 9.43615C18.4988 8.90657 18.2903 8.39798 17.9174 8.02194Z" fill="white"/>
</svg>
