<svg id="Layer_1" data-name="Layer 1" xmlns="http://www.w3.org/2000/svg" xmlns:xlink="http://www.w3.org/1999/xlink" viewBox="0 0 81.07 105.93"><defs><style>.cls-1{fill:none;}.cls-2{clip-path:url(#clip-path);}.cls-3{fill:#dee0e1;}.cls-4{fill:#81a1d1;}.cls-5{fill:#96afd5;}.cls-6{fill:#3c6551;}.cls-7{fill:#85a4c9;}.cls-8{fill:#9bb2d1;}.cls-9{fill:#648cb0;}.cls-10{fill:#7298be;}.cls-11{fill:#cbd2d2;}.cls-12{fill:#6187b6;}.cls-13{fill:#8ca8c8;}.cls-14{fill:#254851;}.cls-15{fill:#92adc5;}.cls-16{fill:#9bb3ce;}.cls-17{fill:#d5d7cd;}.cls-18{fill:#a9b5a1;}.cls-19{fill:#708e96;}.cls-20{fill:#49733f;}.cls-21{fill:#a7bdcd;}.cls-22{fill:#919f8c;}.cls-23{fill:#2f4e6e;}.cls-24{fill:#e7e5d7;}.cls-25{fill:#b7c2be;}.cls-26{fill:#c5cee1;}.cls-27{fill:#8ea9b6;}.cls-28{fill:#87a6cb;}.cls-29{fill:#2b4930;}.cls-30{fill:#658ac3;}.cls-31{fill:#bfc6b6;}.cls-32{fill:#7194c3;}.cls-33{fill:#a1b3da;}.cls-34{fill:#97b1ca;}.cls-35{fill:#5d787c;}.cls-36{fill:#a6bace;}.cls-37{fill:#3c643a;}.cls-38{fill:#aabec3;}.cls-39{fill:#365474;}.cls-40{fill:#b0baa6;}.cls-41{fill:#bdcad4;}.cls-42{fill:#1e3c4b;}.cls-43{fill:#617561;}.cls-44{fill:#3253a4;}.cls-45{fill:#365e35;}.cls-46{fill:#92a38c;}.cls-47{fill:#80a0c5;}.cls-48{fill:#48574a;}.cls-49{fill:#bec4b3;}.cls-50{fill:#173241;}.cls-51{fill:#b6c0ae;}.cls-52{fill:#8fa089;}.cls-53{fill:#5f745d;}.cls-54{fill:#60856f;}.cls-55{fill:#446ab5;}.cls-56{fill:#bac8cf;}.cls-57{fill:#536554;}.cls-58{fill:#537c47;}.cls-59{fill:#305333;}.cls-60{fill:#274038;}.cls-61{fill:#7fa1be;}.cls-62{fill:#577994;}.cls-63{fill:#85957f;}.cls-64{fill:#83a1cf;}.cls-65{fill:#75866f;}.cls-66{fill:#4e6751;}.cls-67{fill:#c5cbbc;}.cls-68{fill:#798871;}.cls-69{fill:#b8c4b3;}.cls-70{fill:#515f4f;}.cls-71{fill:#9fb09a;}.cls-72{fill:#a5b9d0;}.cls-73{fill:#8e9e86;}.cls-74{fill:#b5beae;}.cls-75{fill:#547fbd;}.cls-76{fill:#9ba691;}.cls-77{fill:#8a9c83;}.cls-78{fill:#7c9dbb;}.cls-79{fill:#96a08f;}.cls-80{fill:#3e635b;}.cls-81{fill:#6e91be;}.cls-82{fill:#72896e;}.cls-83{fill:#496c85;}.cls-84{fill:#5c7259;}.cls-85{fill:#65917a;}.cls-86{fill:#909f88;}.cls-87{fill:#717f6f;}.cls-88{fill:#a5b19e;}.cls-89{fill:#c1cece;}.cls-90{fill:#558646;}.cls-91{fill:#7194bd;}.cls-92{fill:#81a170;}.cls-93{fill:#afb9a8;}.cls-94{fill:#588156;}.cls-95{fill:#92a88b;}.cls-96{fill:#687a62;}.cls-97{fill:#456daf;}.cls-98{fill:#bac4b6;}.cls-99{fill:#4d7345;}.cls-100{fill:#8da28a;}.cls-101{fill:#8dae86;}.cls-102{fill:#abb5a3;}.cls-103{fill:#bac0af;}.cls-104{fill:#97a490;}.cls-105{fill:#7a8d76;}.cls-106{fill:#778771;}.cls-107{fill:#4169b8;}.cls-108{fill:#618354;}.cls-109{fill:#78996c;}.cls-110{fill:#71806e;}.cls-111{fill:#bdc5b4;}.cls-112{fill:#84a592;}.cls-113{fill:#4166a8;}.cls-114{fill:#b3bba6;}.cls-115{fill:#657960;}.cls-116{fill:#abb9b1;}.cls-117{fill:#abb7a5;}.cls-118{fill:#92a08a;}.cls-119{fill:#bac8d8;}.cls-120{fill:#b7c0ad;}.cls-121{fill:#647a64;}.cls-122{fill:#476156;}.cls-123{fill:#9ea794;}.cls-124{fill:#7e8879;}.cls-125{fill:#5e675b;}.cls-126{fill:#475949;}.cls-127{fill:#8cb39f;}.cls-128{fill:#bbcec0;}.cls-129{fill:#769a68;}.cls-130{fill:#a9baad;}.cls-131{fill:#99aca3;}.cls-132{fill:#bbc5b5;}.cls-133{fill:#68899d;}.cls-134{fill:#536151;}.cls-135{fill:#8ead7f;}.cls-136{fill:#7193a8;}.cls-137{fill:#778373;}.cls-138{fill:#738071;}.cls-139{fill:#aab59e;}.cls-140{fill:#96aa8d;}.cls-141{fill:#ced1c4;}.cls-142{fill:#acc2a2;}.cls-143{fill:#4d684b;}.cls-144{fill:#3c4d3c;}.cls-145{fill:#122e4a;}.cls-146{fill:#9cac96;}.cls-147{fill:#cfd4c6;}.cls-148{fill:#557250;}.cls-149{fill:#7f9479;}.cls-150{fill:#5c8a4f;}.cls-151{fill:#7898b7;}.cls-152{fill:#56718c;}.cls-153{fill:#4d77c0;}.cls-154{fill:#d0d6cb;}.cls-155{fill:#becace;}.cls-156{fill:#cbd1c1;}.cls-157{fill:#929f8a;}.cls-158{fill:#61725a;}.cls-159{fill:#afc9b9;}.cls-160{fill:#5b80b5;}.cls-161{fill:#748072;}.cls-162{fill:#688165;}.cls-163{fill:#6b9d80;}.cls-164{fill:#aebca5;}.cls-165{fill:#699279;}.cls-166{fill:#778572;}.cls-167{fill:#627d60;}.cls-168{fill:#a1c098;}.cls-169{fill:#86937f;}.cls-170{fill:#93a68e;}.cls-171{fill:#456884;}.cls-172{fill:#b5bda9;}.cls-173{fill:#88a185;}.cls-174{fill:#bbc9d3;}.cls-175{fill:#396a61;}.cls-176{fill:#b6c5d0;}.cls-177{fill:#72a795;}.cls-178{fill:#53897a;}.cls-179{fill:#b3c2db;}.cls-180{fill:#658cc4;}.cls-181{fill:#4770b3;}.cls-182{fill:#5a83be;}.cls-183{fill:#4a6ec1;}.cls-184{fill:#3b56a8;}.cls-185{fill:#d1d8e1;}.cls-186{fill:#7f9f88;}.cls-187{fill:#96afcf;}.cls-188{fill:#9eb4c9;}.cls-189{fill:#6489c4;}.cls-190{fill:#4877aa;}.cls-191{fill:#d9dce4;}.cls-192{fill:#bfcbdc;}.cls-193{fill:#476a83;}.cls-194{fill:#60859b;}.cls-195{fill:#84a5c5;}.cls-196{fill:#a0b7c9;}.cls-197{fill:#87a6c7;}.cls-198{fill:#4671a5;}.cls-199{fill:#3f6697;}.cls-200{fill:#638bb3;}.cls-201{fill:#5a83ae;}.cls-202{fill:#3e6698;}.cls-203{fill:#5883a3;}.cls-204{fill:#adbfc6;}.cls-205{fill:#5d914d;}.cls-206{fill:#b1c0bf;}.cls-207{fill:#87a39c;}.cls-208{fill:#abbebd;}.cls-209{fill:#8ca8ab;}.cls-210{fill:#84a4a9;}.cls-211{fill:#acbfcd;}.cls-212{fill:#6a90b7;}.cls-213{fill:#7295ba;}.cls-214{fill:#577fbe;}.cls-215{fill:#4f8789;}.cls-216{fill:#34605f;}.cls-217{fill:#467e70;}.cls-218{fill:#4a6c88;}.cls-219{fill:#75a1a5;}.cls-220{fill:#5880b0;}.cls-221{fill:#7398b8;}.cls-222{fill:#375c8d;}.cls-223{fill:#5780ab;}.cls-224{fill:#6b92b0;}.cls-225{fill:#779ab8;}.cls-226{fill:#608558;}.cls-227{fill:#eeebdf;}.cls-228{fill:#3d6143;}.cls-229{fill:#688573;}.cls-230{fill:#fcfaf1;}.cls-231{fill:#dbdedb;}.cls-232{fill:#5785a2;}.cls-233{fill:#486d8e;}.cls-234{fill:#698bad;}.cls-235{fill:#5e82a1;}.cls-236{fill:#46688d;}.cls-237{fill:#7a9cc4;}.cls-238{fill:#f5f2ec;}.cls-239{fill:#e6e6e2;}.cls-240{fill:#8ca5c8;}.cls-241{fill:#bac7cc;}.cls-242{fill:#6489c3;}.cls-243{fill:#9db4d1;}.cls-244{fill:#abbaa5;}.cls-245{fill:#8ca9c9;}.cls-246{fill:#c0cae0;}.cls-247{fill:#41657a;}.cls-248{fill:#426bad;}.cls-249{fill:#789bab;}.cls-250{fill:#8daacd;}.cls-251{fill:#a9ba9d;}.cls-252{fill:#3a5e32;}.cls-253{fill:#789ab2;}.cls-254{fill:#2e3f34;}.cls-255{fill:#fcf9f0;}.cls-256{fill:#214042;}.cls-257{fill:#1d3841;}.cls-258{fill:#3758a8;}.cls-259{fill:#e1e2e9;}.cls-260{fill:#23454a;}.cls-261{fill:#ebe9e8;}.cls-262{fill:#619d8e;}.cls-263{fill:#e7e7eb;}.cls-264{fill:#4d7e9c;}</style><clipPath id="clip-path"><rect class="cls-1" x="-10.42" y="10.03" width="107" height="94" transform="translate(-24.41 80.55) rotate(-72.14)"/></clipPath></defs><g class="cls-2"><path class="cls-3" d="M29.5,26.32c0-.47-.24-.23-.43-.14a11.34,11.34,0,0,1-5,.43l-.43-.13c-.14-.05-.14-.05-.24-.24.05-.14.09-.28.14-.43.38-.19.32-1,1-.76s.76.08.61-.44l.05-.14c.33,0,.33.42.62.52.18-.57.37-.67,1-.63.15.05.33-.05.43-.34s.75-.38,1-.15a.15.15,0,0,0,.09.19c-.1-.66-.1-.66.52-.62-.48-.94.37-1.14.93-1.43.38-.19.33-.52.27-.85-.23-.24,0-.34.05-.62.28-.38.13-.9.36-1.14a.44.44,0,0,1,.33,0,3.08,3.08,0,0,0,1.61.36A4.35,4.35,0,0,1,34,21c.72.7,1.53,1.12,2.24,1.82.62.51.48.94-.27,1.33a.69.69,0,0,1-.29-.57,5.56,5.56,0,0,0-2.54.6,9.91,9.91,0,0,0-2.78,1.31c-.19.09-.28.38-.33.52A.4.4,0,0,1,29.5,26.32Z"/><path class="cls-4" d="M25.84,4.54A7.41,7.41,0,0,1,26.9,2.21c.33,0,.43.14.34.43-.33.52-.13.9.15,1.46a.74.74,0,0,0-.1-.66c-.14-.52-.14-.52.47-.48.24.24.15.52.24.71.29.56.25,1.18.59,1.6.09.19.05.33.14.52a.33.33,0,0,0,.2.38c.52.32.52.8.3,1.51a.71.71,0,0,1,.94.46A5.33,5.33,0,0,0,31.28,9.6c.18-.57-.25-.71-.44-1.09s.33-.52.28-.85c0,0,.23-.24.37-.2a1.49,1.49,0,0,1,.39,1.23c.38-.19.28-.38.28-.85s-.24-.24-.38-.28-.33.05-.43-.14l0-.14c0-.15.23-.24.42-.34a2.6,2.6,0,0,1,1.37.6c.15,0,.24.24,0,.47a2.22,2.22,0,0,1,.61-.43c.33,0,.38.28.48.47s.28.09.57.18.23.24.33.43a.55.55,0,0,0,0,.47c0,.14-.09.28-.09.28-.33.06-.57-.18-.9-.13A.32.32,0,0,1,34,8.91,1.54,1.54,0,0,0,32.89,10a.59.59,0,0,1,.47.47c.1.18-.23.24-.28.38-.23.24-.46.48-.27.85.1.19.33.42.24.71s-.47.48-.61,0a.28.28,0,0,0-.43-.14c-.14,0-.33.05-.43-.14s.24-.24.28-.38c-.18.1-.33.05-.51.15s-.29-.09-.38.19-.57.29-.85.2a2.75,2.75,0,0,0-1.61.11l-.18.1c-.44-.61-1.09,0-1.52-.65h0l0,.15a.33.33,0,0,1-.38.19,1.51,1.51,0,0,0-1.09-.51c-.28-.09-.24-.23-.19-.38s-.1-.66.23-.71.38.28.43.61c.33-.52.37-.66-.2-.85-.14,0-.61,0-.52-.32a.82.82,0,0,1,.66-.58c.33,0,.47,0,.8,0s.61,0,.66.37.77.56.44,1.08l.14.05c.38-.2.48,0,.53.32-.1-.66-.11-1.13-.82-1.36-.29-.09-.52-.33-.15-.52s.09-.76.47-.95c-.53-.33-.11-.66-.3-1a.5.5,0,0,0,0-.33c-.14-.05-.42-.14-.33-.42s.13-.43.56-.29c-.1-.19-.43-.14-.33-.42s-.1-.19-.24-.24-.57-.18-.43-.61C26.36,4.4,26.22,4.82,25.84,4.54Z"/><path class="cls-5" d="M26.57,11.54c-.1-.19-.24-.24-.05-.33s.14,0,.24.23a.67.67,0,0,0,.71.23c.19-.1.37-.19.47,0,.19.37.38.28.57.18.61-.43,1.37.13,2.08-.12,0-.14-.29-.09-.19-.37s.18-.1.33,0,.61,0,.7-.25.33-.05.29.09c.24.24.09.19,0,.15s-.33,0-.23.24.14,0,.28.09c.47,0,.76.08.62.51.19-.1.33-.05.52-.15.61,0,.86.75,1.19,1.17.14.05,0,.15-.09.29s-.19.1-.28-.09-.24-.24-.34-.43a.51.51,0,0,0-.85.2c-.18.57-.32.53-.85.2-.14,0-.24-.23-.33-.42a1.13,1.13,0,0,1,.05.8c-.09.29-.13.43.1.66a.59.59,0,0,1,.39.28c.09.19.19.38-.28.39-.81-.42-1.53-1.12-2.34-1.54.05.33-.18.57-.61.43l-1-.32c-.29-.09-.48-.47-.8.06-.1.28-.67.1-1.09,0s-.19-.38-.25-.71c.1-.28,0-.47-.19-.85-.19.1-.14.43-.38.2a7.88,7.88,0,0,1-.56-4.11c.57-.29.28-.86.46-1.43.05-.14-.05-.33.18-.57l.71.23a.33.33,0,0,1,.2.38A7.44,7.44,0,0,1,26,8.85a.31.31,0,0,1-.37.19c-.57-.18-.81.06-1.09.44.24.23.76.08.91.6S25,10.56,25,11c-.24-.23-.19-.37-.1-.66.05-.14-.09-.18-.24-.23s-.18.1-.09.28.1.19.05.34-.28.38.05.33c.15,0,.48.46.57-.29.19.37-.09.75.34.89.09.19.38.28.47.47C26.57,12,26.48,11.82,26.57,11.54Z"/><path class="cls-6" d="M69.21,21.5a42.45,42.45,0,0,0-2.67,8.26.58.58,0,0,0,0,.48c0-.15.43.13.42-.34.09-.29.33-.52.42-.81s.09-.28.23-.24.1.19,0,.33,0,.14-.09.29c-.74,1.8-1.19,3.7-2.45,5.18-.24.24-.52.62-.85.67s-.28-.09-.43-.14a28.39,28.39,0,0,1-.34-6.24,34,34,0,0,0,0-4.4c.42.14.33.42.24.71.59,2.07,0,4.26.25,6.53.42-.34.28-.86.51-1.1.33-.05.34.42.62.52,0,.33,0,.61,0,.94a4.48,4.48,0,0,0,.08-1.23,3.3,3.3,0,0,1,.23-1.18c.42-.34.27-.86.55-1.24.51-1.57,1-3.13,1.61-4.51a15.22,15.22,0,0,1,1.21-2.29C69.11,21.31,69.25,21.36,69.21,21.5Z"/><path class="cls-7" d="M15.45,20.22a6.55,6.55,0,0,1,1.44-2.52c.24-.24.33-.05.29.09s-.14.43.14.52.38-.19.42-.34.24-.24.28-.38c.19-.57.85-.67,1.32-1.15l.14,0-.14,0c-.43-.14-.34-.42-.1-.66.14.05.42-.34.75-.39s.28.1.34.9c0-.14.18-.57.28-.38.57.18.52-.15.61-.43.52-.15.52.32.62.51s0,.47.47.47c.19-.1.34.42.77.56.14,0,.09.19.28.09.57-.29.66-.1.52.32,0,.15-.09.29-.13.43s-.1.29-.24.24l-.19.1c-.56.29-1.13-.37-1.23-.08a1.44,1.44,0,0,1-1.08.43c-.37.2-1-.32-1.08.44-.76-.09-.75.39-.46,1,.09.19,0,.14-.24.24a.82.82,0,0,1-.52.15,1.74,1.74,0,0,0-2,.78,2.93,2.93,0,0,1-.8.53c-.19.09,0,.14-.1.28.06.33-.28.38-.46.48-.38.19-.28.38,0,.61-.57.29-.85.2-.81-.41a3.94,3.94,0,0,1,.27-1.33c.37-.19.37-.67.84-.67l.57.18a4.38,4.38,0,0,1,.7-1.19c.56-.29.89-.34,1.13-.11s.33-.05.52-.14-.1-.19-.1-.19.1-.29.19-.57c-.1-.19-.1-.19-.29-.09a.55.55,0,0,0,0,.47c.09.19.33.42,0,.47l-.28-.09c-1-.32-1.47.16-1.88,1-.05.14-.05.14-.24.24C15.83,20.5,15.45,20.69,15.45,20.22Z"/><path class="cls-8" d="M48.07,11.55c.11.66-.08,1.23,0,1.89-.42.34-1,.15-1.51.3a1.12,1.12,0,0,1-.53-1.27c.05-.14.09-.29.38-.19-.1-.19-.9-.14-.25-.71.19-.1-.09-.19-.09-.19s0-.14-.14-.05c-.38.2-.48,0-.39-.28A1.14,1.14,0,0,0,45.13,10,.82.82,0,0,1,45,9.45c0,.14-.09.29-.18.57-.28.38-.33.53.15.52.14.05.28.09.23.24s0,.14-.23.23a1.13,1.13,0,0,1-.8.06c-.53-.33-.62,0-.61.43a.68.68,0,0,1-.23.71c-.05.15-.14,0-.14,0a.15.15,0,0,1-.1-.19A5.22,5.22,0,0,1,43,10.85c0-.15,0-.15.09-.29.14-.43.09-.76.37-1.14,0-.14.24-.24.28-.38-.14,0-.19.1-.28-.09s-.57-.19-.29-.57c0-.14,0,0-.14,0-.43-.14-.62-.52-1-.94a1.51,1.51,0,0,1,.89-.81l.38-.2c.19-.09.37-.19.52-.14a.81.81,0,0,1,.57.65c-.14.43-.28.86-.41,1.29h0c0-.15.37-.2.33-.06.24.24.47,0,.66-.1.14.05.33,0,.47,0s.28-.38.38-.2a.82.82,0,0,1,.1.67.33.33,0,0,1-.38.19c-.14,0-.14,0-.19.1s.24.23.24.23c.52-.62.62,0,.86.27l.14.05c.09-.28.23-.24.52-.15a2.49,2.49,0,0,1,1,.47,2.53,2.53,0,0,1,0,1.56c-.14-.05-.28-.09-.18.09s-.14.43-.14.43C47.79,11.46,47.79,11.46,48.07,11.55Z"/><path class="cls-9" d="M29.5,26.32c.33-.05.52-.15.51-.62a1.19,1.19,0,0,1,.47-.48c.61-.43,1.46-.63,2.07-1.06a3.13,3.13,0,0,1,.85-.2c.14.05.38-.19.43.14a.29.29,0,0,1-.28.38c-.19.1-.33.05-.38.19-.23.24-.71.25-.51.62a.16.16,0,0,1-.19.1c-.19.1-.18.57-.52.15l-.05.14a2.83,2.83,0,0,0,0,1.09c.09.19,0,.47-.14.42-.52.15-.66.58-1.08.92-.19.09-.19.09-.33.05l-.14-.05c-.05.14.14.05.1.19a1.87,1.87,0,0,0,0,.94c-.34.06-.66.58-1.18.25A1.39,1.39,0,0,1,28.93,31c-.32.52,0,1.09-.36,1.61-.05.14.28.09.43.14a.31.31,0,0,1,.14.52c-.23.24-.52.15-.8,0-.05.15-.15-.51-.33.06-.05.14-.33,0-.57-.19s0-.47-.29-.56a7.92,7.92,0,0,1,.72-3.7c.18-.57.7-1.19.88-1.76.48,0,.42-.34.47-.48C29.17,26.37,29.31,26.42,29.5,26.32Z"/><path class="cls-10" d="M20.18,25.05c-1.1-.51-2.05-1-3.14-1.49-.14,0-.28-.09-.24-.23-.52-.33-.19-.85-.2-1.32.19-.1.29.09.57.18,0,.14.1.19.24.23a.65.65,0,0,1,.48.95c.24-.24.09-.76.37-.67.48,0,.62.51.82.89a.31.31,0,0,1,.37-.19c.57.18.42-.34.61-.44s-.14,0-.14,0c-.24-.24-.38-.28,0-.47s.71-.25,1-.16c-.15,0-.33.05-.48,0-.24-.24.24-.24,0-.48s.32-.52.37-.66l.56-.29a2.25,2.25,0,0,0,1.47-.16c.19-.1.56-.29.57.18a.56.56,0,0,1,.61.05c.1.18.1.18,0,.33a1.06,1.06,0,0,1-.7.71c-.19.1-.57-.18-.56.29,0,0-.05.15.09.19.24.24.57.18.9.13.14.05.33-.05.47,0s.62,0,.53.32-.28.39-.61.44a1,1,0,0,0-.9-.14,1,1,0,0,1,.9.14,1.07,1.07,0,0,1-1.7.87h0c.29.09.1.18.05.33s-.23.24-.51.14-.38-.28-.9-.13c.33,0,.61,0,.52.33s-.23.24-.52.15L21,25c-.29-.09-.47,0-.71-.23C20.51,25,20.32,25.09,20.18,25.05Z"/><path class="cls-11" d="M71.93,88.1c-.05.14.1.19,0,.33,0,.47.2.85.2,1.32-.09.29.34.42.58.66a12.49,12.49,0,0,0,.82,1.83c.24.24.29.57-.19.57l-.18.1c-.19.1-.24-.23-.38-.28.09.19.19.38.14.52-.23.24-.66.1-.65.57a.15.15,0,0,1-.19.1c-.14,0-.38-.28-.38.19.1.19-.37.2-.52.15a2.67,2.67,0,0,1-.91-1.55c.05-.14-.24-.23-.33-.42a.77.77,0,0,1-.11-.66c.19-.1.38-.2.14-.43s-.24-.71-.34-.9c-.14-.52-.34-.89-1-.93-.24-.24-.53-.33-.39-.76.24-.23.33-.52.66-.57s.57.18.9.13l.85.28c.33,0,.43.13.52.32s.06.33.2.38.23-.24.28-.38,0-.14.09-.29C71.83,87.91,72,88,71.93,88.1Z"/><path class="cls-12" d="M45,7.89c-.18.1-.37.67-.66.1a.14.14,0,0,0-.18.1c-.15-.05.19.38-.1.28A.32.32,0,0,1,43.88,8a3.34,3.34,0,0,1,.51-1.1,6,6,0,0,1,1.12-2A1.83,1.83,0,0,1,47.06,4l.18-.1c.14-.9.85-.67,1.41-1,.29.09.57-.29.66-.1s.1.66-.13.9a5.4,5.4,0,0,0-1,3.61c0,.33,0,.61,0,.94S48,9,47.48,9c-.28-.09-.57-.18-.33-.42s0-.62,0-1c-.33,0-.42.34-.61.43s-.24.24-.19.1c-.14-.05-.1-.19-.05-.33.23-.71-.29-.57-.57-.66s-.52.15-.71-.23h0l0,.15C45.15,7.46,45.15,7.46,45,7.89Z"/><path class="cls-13" d="M39.67,27.4c-.23.23-.18.56-.13.9a10.29,10.29,0,0,1-.36,2.08c-.19.1-.28-.09-.33.05-.28-.09-.66.1-.66-.37,0-.14-.15,0-.29-.09s-.14,0-.19.1c.25.7-.51,1.09-.69,1.66a.32.32,0,0,1-.38.19.81.81,0,0,0-.65.58.63.63,0,0,1-.71.24c-.24-.23-.33-.42,0-.61,0,0,0-.15-.09-.19a1.11,1.11,0,0,1,.08-.76c.33-.52.23-.71-.24-1.18-.1-.19-.2-.38-.15-.52l0-.14a1.63,1.63,0,0,0,.36-1.14,1.91,1.91,0,0,1,.42-.81c.19-.1.23-.24.38-.19s.19.37.14.51a1.31,1.31,0,0,1,1-.15c.24.24-.09.29-.18.57a.46.46,0,0,1-.56.29c-.48,0-.52.15-.33.53,0,.14,0,.14-.19.09.14.05,0-.14.09-.28s.24-.24.52-.15.09-.28.42-.34c.15.05.34.43.48,0-.14-.05-.57.29-.57-.18.18-.57.7-.72,1-1.1.09-.29-.24-.24-.19-.38a.45.45,0,0,1,.18-.57c.19-.1.29.09.38.28.09-.28-.14-.52,0-.61s.29.09.38.28.34.42.44.61c0,0,.09.18,0,.14-.38.19-.33.52-.56.76-.42.34-.37.67,0,.95.09-.29,0-.48,0-.62C39.06,27.83,39.06,27.35,39.67,27.4Z"/><path class="cls-14" d="M35.89,27.43c-.09.29-.32.53-.42.81a4.42,4.42,0,0,0-.41,1.29c0,.14,0,.14-.19.09-.24-.23-.23.24-.33.05-.28-.09-.24-.23-.33-.42a6.55,6.55,0,0,1,1.34-3.18l.84-1.15,0-.14c.19-.1.24-.24.52-.15a.16.16,0,0,1,.1.19c.42-.34,1-.29,1.08-.91-.05-.33.13-.43.52-.15s.48.94,1,1.27a.29.29,0,0,0,.43.14c.19-.1.37-.2.42.13,0,.15.1.19.15.05a1.94,1.94,0,0,1,.9.13.55.55,0,0,0,.47,0,.27.27,0,0,1,.42.14c.06.33.58.65.58,1.12.29.57.44,1.09.73,1.65s.53,1.28.82,1.84a.28.28,0,0,1-.14.43c-.19.09-.28-.09-.24-.24,0-.33-.43-.61-.34-.89a6.75,6.75,0,0,1-1-1.74,2.25,2.25,0,0,0-1.71-1c-.33.06-.61,0-.94,0l-.71-.22c-.24-.24-.67-.38-1-.66-.1-.18-.29-.56-.57-.18C36.87,25.86,36.45,26.67,35.89,27.43Z"/><path class="cls-15" d="M49,16.56a4.31,4.31,0,0,1,1.29.88,6.93,6.93,0,0,0,1,1.27c.24.23,0,.47.1.66a16.67,16.67,0,0,1,1.4,2,4.14,4.14,0,0,1-2.16,1.82.16.16,0,0,1-.1-.19c.33-.52.09-.76-.34-.89-.09-.19,0-.48-.29-.57s-.19-.37,0-.47.23-.24.14-.43-.29-.09-.43-.14l-.14,0a.55.55,0,0,1-.38-.28L49,20c-.33,0,.38-.19,0-.14l-.15-.05c0-.33.52-.62,0-.8.32-.53-.25-1.18.17-1.52-.28.38-.61,0-1.08,0-.1-.19-.24-.24-.29-.1-.28-.09-.19-.37,0-.47.37-.19.46-.48.74-.86C48.55,16.42,48.79,16.65,49,16.56Z"/><path class="cls-16" d="M30.37,38.23a.14.14,0,0,1-.19.1c-.67-.84-1.34-1.69-1.86-2.49,0-.47-.11-1.13.46-1.42.18-.1,0-.14,0-.14a.28.28,0,0,1,.14-.43c.19-.1.28.09.38.28,0-.47-.34-.9-.34-1.37,0-.14.23-.24,0-.47-.14,0-.1-.19.09-.29a1.86,1.86,0,0,0,.61-.43c.19-.1.48,0,.47-.48.05-.14.19-.1.33-.05.24.23.19-.1.24-.24s.42-.33.66-.1.14.52-.09.76a.91.91,0,0,0-.18,1A1.31,1.31,0,0,1,30.8,34c-.37.19.05.33,0,.47.14.52-.13.9-.27,1.33s-.19.57-.28.86,0,.47,0,.61-.09.29,0,.62C30.46,38,30.28,38.05,30.37,38.23Z"/><path class="cls-17" d="M11.26,41c.23-.24.09-.29,0-.47a28.15,28.15,0,0,1-2.57-2.25c.52-.15.52-.15.42-.81,0-.14-.15,0,0,0,0,.14-.1.29-.24.24s-.1-.19,0-.33a.39.39,0,0,0-.29-.56l-.09-.19c.13-.9.32-1,1.45-.63.15,0,.24.23.39.28.52.8,1.19,1.64,1.72,2.44A22.48,22.48,0,0,1,13.62,41l.19.38c-.09.28,0,.62-.13.9-.52.15-.81-.42-1.24-.55a1.77,1.77,0,0,0-.8-.42C11.49,41.27,11.21,41.18,11.26,41Z"/><path class="cls-18" d="M58.75,78.82c-.9-.13-1.75-.41-2.65-.54a15.2,15.2,0,0,0-5.82,0,36.06,36.06,0,0,1-3.92.47.91.91,0,0,0-1,.15c-.23.24-.52.15-.66-.37,1-.29,2.17-.4,3.2-.69A28.17,28.17,0,0,1,52,77.42a53.09,53.09,0,0,1,5.34.47,13.59,13.59,0,0,1,5.51,2.4c-.14.43-.48,0-.71.25a7.5,7.5,0,0,0-2.28-1.21l-.43-.14c-.33,0-.38-.28-.66-.37C58.65,78.63,58.89,78.87,58.75,78.82Z"/><path class="cls-19" d="M5.86,31a4.11,4.11,0,0,1,1.72,1c.66.37,1.14.84,1.8,1.21.24.24.2.38,0,.62,0,.14-.14,0-.28-.09-.29-.09-.67-.37-.71.24-.14.43-.28.38-.61,0,.09.19.24.23.33.42s0,.48-.28.38c-.14,0-.24-.23-.47,0-.05.14-.43-.14-.09.28a.38.38,0,0,1-.33.53c-.28-.09-.47,0-.71-.23A17.36,17.36,0,0,1,4,31.79c.19-.09.56-.29.71-.24.23.23.62.51.85.75s-.23.24-.32.52c.23-.24.23-.24,1.13-.11C5.5,32.11,5.35,31.59,5.86,31Z"/><path class="cls-20" d="M60.83,88.45a.13.13,0,0,0,.18-.1,9.21,9.21,0,0,0,3.21-1.16c.19-.1.52-.15.89-.35a1.12,1.12,0,0,0,.47-.47c0-.33.18-.57.09-.76l0-.14A3.4,3.4,0,0,1,67,84.79c.14,0,.29.56,0,.95l-.19.09c.38.28.24.71.44,1.09.23-.24.32-.53.65-.58l.15,0c.19.37-.33.52-.28.85a2.46,2.46,0,0,0-.09.29c0,.14-.28.38-.33.52a4,4,0,0,1-.27,1.33c-.14.43-.13.9-.22,1.18s-.09.76-.61.91c-.14.43-.32,1-.46,1.42-.19.1-.47,0-.38-.28,0-.14,0-.33-.14-.51l0-.15c.19-.09.09-.28,0-.61,0-.48.14-.9.13-1.38a3.73,3.73,0,0,1,.84-1.61c0-.15.23-.24.28-.39a.31.31,0,0,0-.2-.37c-.42-.14,0,.14,0,.14s-.05.14-.33,0a1.25,1.25,0,0,0-1.28.06,14.68,14.68,0,0,1-4.72,1C60.21,88.41,60.5,88.5,60.83,88.45Z"/><path class="cls-21" d="M34.27,35.4c-.66.1-1,.63-1.41,1l-.19.1-.14-.05c-.1-.18-.05-.33.18-.57a3.78,3.78,0,0,1-1.59,1.06c-.33.05-.48,0-.53-.32s0-.62.28-.86a5.44,5.44,0,0,1,.69-2.14c.09-.28.37-.19.61.05.34.42.48.46.66-.11l.05-.14c-.81-.42-.1-.66,0-1.09a1.8,1.8,0,0,0,.14-.9c0-.14,0-.14.23-.24a.16.16,0,0,0-.19.1c-.47,0-.19-.38-.29-.56,0-.34.14-.43.23-.72,0-.14.24-.24.19-.57,0-.14-.2-.37.13-.42s.29.09.39.28.23.23.19.37c0,.33,0,.62,0,.95a15.23,15.23,0,0,0,.32,3.88C34.31,34.79,34.5,35.16,34.27,35.4Z"/><path class="cls-22" d="M14.15,100.77c.08-1.23.36-2.56.48-3.93A76.62,76.62,0,0,1,17.33,87a16.45,16.45,0,0,1,2.18-4.33c.28.09.24.23.19.37s-.23.24-.14.43C18.91,85,18,86.44,17.48,88c-.92,2.85-1.69,5.74-2.33,8.68a2.46,2.46,0,0,1-.09.29,4.35,4.35,0,0,0-.17,1.51c0,.33.19.85-.47,1-.14,0,0,.15-.09.29s0,.47-.09.76C14.53,100.58,14.44,100.86,14.15,100.77Z"/><path class="cls-23" d="M76.57,98.55c.15,1,.35,1.85.5,2.84a15.77,15.77,0,0,1,.12,3c0,.48-.28.39-.51.15-.43-.14-.72-.7-1-.93a3.12,3.12,0,0,1-.67-.85A7.22,7.22,0,0,1,73.9,101c-.1-.19-.19-.38-.34-.43a.14.14,0,0,1-.09-.19,7.25,7.25,0,0,0-.53-1.27.72.72,0,0,1-.16-1c.38-.19.9.13,1.1.51.09.19.09.19.24.23s.33,0,.42.14c.29.57,1.1,1,1.39,1.55.09.19.24.23.33.42-.09.29.29.09.2.38s-.52.62-.51,1.09c-.19.1-.24-.23-.34-.42.1.19.19.37.34.42a.15.15,0,0,1,.09.19l-.09-.19c.23-.71.23-.71.66-.1.09.19.19.38.52.32.14,0,.28.1.24.24s-.19.1-.24.24l.05-.14c0-.15.19-.1.23-.24s0-.15-.09-.19c-.71-.23-.48-.94-.63-1.46a1.07,1.07,0,0,1-.1-.66c-.1-.19,0-.33-.15-.52,0-.14,0-.33.14-.43s.24.23.38.28c0-.33-.06-.8-.11-1.13C76.34,98.79,76.29,98.46,76.57,98.55Z"/><path class="cls-24" d="M10.38,34c.53.32.77,1,1.48,1.26.09-.29,0-.47,0-.62.33,0,.38.28.48.47.34.9.87,1.7,1.21,2.59.05.33.14.52.19.85l0,.14a2,2,0,0,0,.43.61c.14.05.1.19.24.24s.33.42.43.61a.15.15,0,0,1,.1.19c.09.19.19.37,0,.47a.28.28,0,0,1-.43-.14c-.28-.09-.47-.47-.76-.56a8.67,8.67,0,0,1-1.67-1.64c-.53-.79-1.14-1.31-1.81-2.15a3.12,3.12,0,0,1-.67-.85c0-.14.09-.28.23-.24s.28.09.47,0,.28-.38,0-.62C10.25,34.42,10.15,34.24,10.38,34Z"/><path class="cls-25" d="M10.38,34c.1.19-.37.66.29.56l.1.19c-.23.24,0,.62-.13.9-.34-.42-.53-.33-.52.15-.14,0-.29-.57-.57-.19l-.14,0a.14.14,0,0,1,.09.19c.15,0,.43.13.34.42-.14,0-.33,0-.29-.09-.23-.24-.56.29-.8,0,0,.15-.14.43-.18.57-.42.34-.57.29-.86-.27-.09-.19.48,0,.1-.29-.1-.18-.34-.42-.44-.61a.2.2,0,0,0-.28-.09c-.19.1,0,.14.1.19,0,.47-.19.57-.52.62a1.69,1.69,0,0,1-.76-1c.14,0,.37-.2.61,0s.14,0,.19-.1,0-.14-.1-.19-.05-.33,0-.61c.15,0,0,.33.2.37s.18-.57.52-.14a.21.21,0,0,0,.28.09c0-.14.09-.29-.05-.33-.43-.14-.19-.38-.1-.66a.81.81,0,0,0,.43.61c.33-.05.14-.43.09-.76.28.09.66-.1.9.13.14,0,.23.24.42.14s.14-.43,0-.62C9.86,33.2,10.15,33.76,10.38,34Z"/><path class="cls-26" d="M25.21,12.36c.33,0,.18-.57.32-.53s.34.43.39.76l-.05.14c-.18.57-.09.76.57.66l.43.13c.05-.14-.19-.37.18-.57.19-.09.29.1.43.14a1.77,1.77,0,0,0,1.42.46c.15,0,.24-.24.1-.29a.27.27,0,0,1,.13-.42,6.92,6.92,0,0,0,2.34,2c-.61.43-.8.53-1.23-.08-.24-.24-.57-.19-.85-.28.05.33.52.8-.18,1a1.57,1.57,0,0,0-1.61.11c-.14,0-.33.06-.47,0l-.72-.7-.14,0A8.09,8.09,0,0,1,25.21,12.36Z"/><path class="cls-27" d="M66.38,91.18c.38-.19.23-.71.47-1,.56-.29.56-.29.71.23.09.19.09.19.19.38l.1.19a15,15,0,0,0,.87,2.16A10.53,10.53,0,0,0,70,95.5a5.61,5.61,0,0,0,1.33,1.22c.24.23.43.13.62,0a2.66,2.66,0,0,1,.72,1.65c-.42.33-.8,0-1-.47-.56.29-.8.06-.86-.75.06.33-.18.57-.65.58-.29-.09-.34-.42-.43-.61s-.1-.66-.53-.8c-.14,0-.14,0-.1-.19.23-.71-.39-1.23-.49-1.89l-.58-1.13h0c.2.38,0,.48-.23.72-.38-.76-.72-1.65-1.11-2.41C66.58,91.56,66.67,91.28,66.38,91.18Z"/><path class="cls-28" d="M48.51,2.89c-.33,0-.52.14-.85.19s-.52.15-.47.48-.28.38-.46.48-.19.1-.33,0c-.67.1-.66,1-1.36,1.29.1.66-.51,1.1-.65,1.52,0-.33-.15-.52-.43-.61,0-.14.23-.24.23-.24a2.25,2.25,0,0,0-.75.39c0,.14,0,.14-.23.24s-.19.1-.29-.09.24-.24.14-.43.19-.1.33,0c-.19.1-.47,0-.76-.09s-.33-.42-.47,0a.4.4,0,0,1-.56.29l-.29-.09c-.1-.19,0-.15.09-.29a1.64,1.64,0,0,1,1-1.1c.18-.09.32-.52.55-.76a2.55,2.55,0,0,1,1.7-.4,5.22,5.22,0,0,0,2.83-.5C47.8,3.13,48.18,2.94,48.51,2.89Z"/><path class="cls-29" d="M12.08,38.47a8.67,8.67,0,0,0,1.67,1.64c.86.75,1.58,1.45,2.29,2.16-.19-.38-.9-.61-.67-1.32,0-.14-.34-.42-.58-.66l-.09-.19a1.46,1.46,0,0,1-.34-.89.32.32,0,0,1,.37-.2c.43.14.48.47.72.71.43.61,1.1,1,1.53,1.59.1.66.86.75,1.19,1.17s1,.94.73,1.65c-.1.28-.38.19-.48,0s-.19-.37-.33-.42c.1.19.28.09.19.38-.19.09,0,.61-.42.33-.29-.09-.62-.51-.39-.75.14-.43,0-.47-.29-.56h0a.53.53,0,0,1,.39.28.34.34,0,0,1-.38.19,12.39,12.39,0,0,1-2.48-2.06,2.36,2.36,0,0,1-.81-.89c-.43-.61-1.1-1-1.48-1.73-.1-.19-.2-.38-.29-.57C11.89,38.57,11.94,38.43,12.08,38.47Z"/><path class="cls-30" d="M42.8,4c.05.33-.37.67-.46,1s0,0-.19.1-.38.19-.37.67c0,0-.05.14-.09.28.05.33-.57-.18-.24.24.24.24.33,0,.52-.15s.09-.28.19-.57c.14,0,.38.28.52.33,0,.14-.09.29-.14.43a.14.14,0,0,1-.19.09c-.19.1-.23.24-.32.53-.19.57-.37.66-.85.2-.24.24-.33.52-.7.71a1.87,1.87,0,0,0-.94,1c-.23.24-.23.71-.7.72-.14,0-.29-.09-.24-.24a16.79,16.79,0,0,1,1-2.52A3,3,0,0,1,40.73,5.1c.43-.34.48,0,.53.32a.73.73,0,0,1-.1-.66c0-.14.18-.1.23-.24.23-.24.66-.1.89-.34S42.61,4.13,42.8,4Z"/><path class="cls-31" d="M34.16,63c.47-.48,1-1.1,1.45-1.58l2.1-2.15c.8-1,1.59-2,2.57-3.1.71-.72,1-1.58,1.68-2.29.47-.48.56-1.24,1.26-1.48a.21.21,0,0,1,.29.09,33.59,33.59,0,0,1-2.57,3.57c0,.15-.42.34,0,.48-.09.28-.33.05-.52.15s0,.14-.09.28a38,38,0,0,1-2.67,2.91,14.43,14.43,0,0,1-2,2.2c-.14,0-.19-.37-.33.05a1.1,1.1,0,0,1-.52.62C34.49,63,34.4,63.27,34.16,63Z"/><path class="cls-32" d="M50.16,22.13l.29.09c.47,0,.52.32.24.71,0,.14-.09.28-.09.28a12.81,12.81,0,0,1-3.48,2,3.7,3.7,0,0,0-.94.49l-.14,0c0-.14,0-.14.09-.28.23-.24.42-.34.66-.58-.34-.42-.2-.85.36-1.14a1.21,1.21,0,0,1,.81-.05c-.1-.19-1,.15-.48-.47.19-.1.47,0,.56-.29a2.46,2.46,0,0,0,.09-.29l.1-.28c0-.14,0-.33.13-.43s.24.24.24.24c.2.37.34.42.62,0a.59.59,0,0,1,.47-.48c.28.09.19.38.28.56s.05-.14.19-.09Z"/><path class="cls-33" d="M47.91,13.54c-.19.57-.18,1-.37,1.61-.09.29-.18.57.06.8-.19.1-.29-.09-.47,0-.1-.19,0-.47-.11-.66.1.19-.18.57.25.71a.28.28,0,0,1-.14.42c-.19.1-.23.24-.33.53A5.62,5.62,0,0,1,46,19.05c-.47,0-.42.33-.56.76s-.18.57-.65.58c-.19.09.09-.29-.24-.24a.55.55,0,0,1-.47,0,.21.21,0,0,1,.09-.29c.19-.1.09-.28.18-.57a1.62,1.62,0,0,0,.79-1.47c.09-.29,0-.48.37-.67a1.2,1.2,0,0,0,.18-1.52c-.1-.18-.29-.56,0-.61s.28-.38.18-.57l0-.14A2.32,2.32,0,0,1,47.91,13.54Z"/><path class="cls-34" d="M20.18,25.05c.37-.2.28-.39.23-.72.14.52.62.52,1,.65.14.05.29.1.19-.09,0,0,.09-.29-.24-.24s-.28-.09-.57-.18a1.55,1.55,0,0,1,1.09,0c.28.09.28.09.47,0,.09-.28-.28-.09-.33-.42.75.09,1.75.41,2-.78a2.3,2.3,0,0,0,.61-.43,4.16,4.16,0,0,0-2-.17c-.14-.05-.14-.05-.05-.33.37-.19.94,0,1.32-.2a5.3,5.3,0,0,0,.76.08c.28.09.66.37,1,.18.19-.1.24.24.19.38,0,.61-.65,1.05-.93,1.43l0,.14c0,.14-.18.1-.33.05a1.88,1.88,0,0,0-1.74.54c-.05.14-.19.1-.33.05s-.1-.19-.28-.09a.15.15,0,0,0,.09.19c.14,0,.1.19,0,.14s-1.18.25-1.42,0C20.94,25.6,20.6,25.18,20.18,25.05Z"/><path class="cls-35" d="M5.86,31a.28.28,0,0,1-.13.43c-.33.52.19.85.24,1.18,0,0,.34,0,.1.18,0,.15-.14.43-.33.06-.1-.19-.38.19-.57-.19,0,0-.19.1-.23.24s0,.33-.24.24-.18.1-.28-.09.09-.29.14-.43.19-.1.23-.24c.19-.09.24.24,0,.14,0-.14.32-.52-.2-.37a.15.15,0,0,1-.09-.19c0-.47-.2-.38-.29-.09-.19.09-.28-.09-.47,0a13.17,13.17,0,0,1-1-1.88.61.61,0,0,1-.11-.66c.19-.1.29.09.43.14A11.28,11.28,0,0,1,5.86,31Z"/><path class="cls-36" d="M34.92,30c.15.05.24.24.39.76.1.18.14,0,.28.09s.29.09.24.23c-.14.43-.14,0-.28-.09-.33,0-.42.34-.52.62s0,.33,0,.47.33.43-.09.29c-.05.14-.09.28,0,.33s.42.14.47,0,.47-.47.66-.57.18-.1.28.09c.34.42-.09.76-.22,1.19s-.28.38-.38.66a.31.31,0,0,1-.37.2c-.14-.05,0-.33,0-.33-.28.38.19.37.29.56-.14.43-.66.58-.89.81s-.24.24-.43.34a3.18,3.18,0,0,1-.39-1.7,4.83,4.83,0,0,1,0-1.42c.51-.62.41-1.28.64-2C34.83,30.24,34.64,29.86,34.92,30Z"/><path class="cls-37" d="M74.3,79.27a15,15,0,0,1-2.69,4.48,4.2,4.2,0,0,1-2.17,1.35,1.16,1.16,0,0,0-.75.38c-.19.1,0,.33-.14.43-.09.28-.37.19-.51.15L67.75,86c.09-.29-.62-.52.09-.76.19-.1-.24-.24-.15-.52.19-.1.19-.1.47,0a.72.72,0,0,0,1-.15,7.6,7.6,0,0,1,1.93-1.11.15.15,0,0,1,.19-.09c.93-1.43,2.29-2.73,2.74-4.62a1.82,1.82,0,0,0,.14-.9c.19-.1.28.09.24.23A3.58,3.58,0,0,1,74.3,79.27Z"/><path class="cls-38" d="M73.44,92.2a14.21,14.21,0,0,1-.92-2c-.1-.18-.47,0-.48-.46s-.15-1-.11-1.61a15.39,15.39,0,0,1,1.63,2.73A16.69,16.69,0,0,0,75,93.65l-.05.14c-.13.43-.37.19-.7.25.38.28.43.61.62,1-.09.29.1.66-.37.67a6.48,6.48,0,0,1-1-1.74c-.1-.19-.29-.57-.39-.75A.15.15,0,0,1,73,93c-.1-.19,0-.33.18-.57l0-.14c.14,0,.19.37.42.13l.1-.28A.57.57,0,0,1,73.44,92.2Z"/><path class="cls-39" d="M75.06,103.73A11.62,11.62,0,0,1,70.48,99c0-.14-.1-.19,0-.33s.13-.43.42-.34.38.28.33.43-.19.09,0,.14c.61,0,.76.56,1.09,1l.29.09c.52.33.66.37,0,.81.43.13.47-.48.9-.35.57.66.87,1.7,1.63,2.26.19.38.57.66.62,1C75.54,104.2,75.34,103.82,75.06,103.73Z"/><path class="cls-40" d="M43.46,52.67l-.28-.09a.29.29,0,0,1,0-.47,18.63,18.63,0,0,0,3.17-9.83,31.79,31.79,0,0,0-.08-3.64,1,1,0,0,1,.48.94,20,20,0,0,1-.6,6.72c-.13.9-.74,1.81-.73,2.75A18.67,18.67,0,0,1,43.46,52.67Z"/><path class="cls-41" d="M20.08,15.58a3.92,3.92,0,0,0-.94.49c0,.14-.18.09-.28-.1a7.58,7.58,0,0,1,3.86-1.27,8.06,8.06,0,0,1,2.65.07c-.23.24-.75.39-.61.9a.15.15,0,0,0,.1.19c.1.66-.42.34-.65.58-.71.24-.39-.28-.48-.47-.47,0-.75.86-1.18.25a1.58,1.58,0,0,0-.76-.09c-.24-.23-.1-.66-.57-.65A1.6,1.6,0,0,0,20.08,15.58Z"/><path class="cls-42" d="M46.18,25.24a.59.59,0,0,1,0,.34c-.24.23-.24.23-.67.1.06.33.62,0,.48.46s-.14.43-.42.34-.76-.56-1.23-.55a3.34,3.34,0,0,1-1.1-.51c-.24-.24-.43-.61-.8-.42L42.34,25c-.09-.18-.23-.23-.14-.52s-.05-.33.13-.42.33-.05.53.32c0-.47-.43-.61-.67-.84s-.34-.42-.06-.81c.76.56,1.66.7,2.24,1.35A5.19,5.19,0,0,1,46.18,25.24Z"/><path class="cls-43" d="M43.66,29.15a4.1,4.1,0,0,1,.44,1.08c-.06-.8-.63-1.46-.73-2.12a31.36,31.36,0,0,1,1.83,4,22.77,22.77,0,0,1,1.33,5.15c-.33,0-.38-.28-.62-.52s0-.33-.19-.37a32.32,32.32,0,0,0-2.1-6.65C43.52,29.58,43.28,29.34,43.66,29.15Z"/><path class="cls-44" d="M27.82,3.77c-.1-.19,0-.48-.1-.67A3,3,0,0,1,27,1.93l.1-.29c.23-.24.32-.52.7-.24A9.48,9.48,0,0,0,30.4,2.56a4.1,4.1,0,0,1,1.19.69c.53.33.53.33.06.81-.19.09-.43-.14-.57-.19l-.43-.13c-.14-.05-.28-.1-.24-.24a.15.15,0,0,1,.19-.1c-.47,0-1,.3-1.56,0-.14,0-.19.1-.33,0-.19.1-.38.2-.47,0s-.15-.52-.24-.71c.05.33-.05.62.24.71,0,.14-.09.28-.24.24C27.91,4,27.82,3.77,27.82,3.77Z"/><path class="cls-45" d="M67.83,84.73c.15,0,.24.24.53.33-.1.28-.38.19-.61.43.14.05.75.09.29.57-.48,0-.67-.37-1.1-.51.24-.24-.14-.52,0-.62-.56-.18-.74.86-1.36.35a1.26,1.26,0,0,1-.09,1.23c-.18.1-.33,0-.28-.09,0-.62-.25-1.18-.21-1.8a2.65,2.65,0,0,1,1.74-1,2.57,2.57,0,0,1,1.24,1C68.21,84.54,67.59,84.5,67.83,84.73Z"/><path class="cls-46" d="M29,59a23.14,23.14,0,0,0,1.21-7.16c.05-.14.05-.14.19-.09s.1.19.19.37a24.87,24.87,0,0,1-.1,3.74,16.31,16.31,0,0,1-1.28,4.46,2.27,2.27,0,0,1-.56.77c-.52.15-.24-.24-.34-.42A3.89,3.89,0,0,0,29,59Z"/><path class="cls-47" d="M45,7.89s-.28-.09-.09-.19c.61-.43.32-.52-.15-.52-.05-.33.14-.42.18-.57,0,.48.29.57.67.37s.48.47.85.28a.2.2,0,0,1-.09.28c0,.15-.23.24-.18.57.52-.14.46-.95,1-.76.05.33-.37.66.2.85,0,.14,0,.14-.09.28s-.33,0-.28.38c-.05.15.09.19.28.09s.47,0,.42-.33.19-.1.24-.24a6.86,6.86,0,0,1,.1,1.13,1.25,1.25,0,0,1-1-.32c-.29-.09-.29-.09-.24.24,0,.14,0,.14-.23.24,0-.33-.67-.37-.67-.84a.55.55,0,0,1-.75.38c-.43-.13.18-.57-.2-.85.85.28.85.28.66-.57C45.63,7.93,45.35,8.31,45,7.89Z"/><path class="cls-48" d="M14.15,100.77c.33,0,.28-.38.19-.57a2.4,2.4,0,0,1,.32-1c.28-.39.18-1,.31-1.47s0-.62.28-.86c0,.47-.13.9-.13,1.37.33,0,.28-.38.47-.47s.19-.1.23-.24.19-.1.33-.05.1.18.05.33-.32.52-.41.81c-.89.81-.79,1.94-.87,3.18-.09.75,0,1.56-.12,2.32-.76-.56-.91-.61-.77-1.51Z"/><path class="cls-49" d="M28,86.53a20.62,20.62,0,0,0-2.25,1.63c-.37.19-.75.38-.84.67a12.3,12.3,0,0,1-1.69,1.34c-.33,0-.47.48-.8.53l-.28-.09c.18-.57.7-.72,1.12-1A29.71,29.71,0,0,1,26.59,87,4.23,4.23,0,0,1,28,86.19.53.53,0,0,0,28,86.53Z"/><path class="cls-50" d="M34.19,32.23a9.67,9.67,0,0,0,.41,3.12,2.41,2.41,0,0,1,.1.66l-.29-.56a12.15,12.15,0,0,1-.56-4.11c0-.62,0-1.09.08-1.71a3.61,3.61,0,0,1,.41-1.75,6.15,6.15,0,0,1,1.3-2.57c.33,0,.37-.67.79-.53a12.37,12.37,0,0,1-1.25,1.95,15.77,15.77,0,0,0-1,2.52,2.18,2.18,0,0,1-.18,1c.23-.24,0-.61.37-.66.14,0,.14-.43.33-.05A15.56,15.56,0,0,1,34.19,32.23Z"/><path class="cls-51" d="M53.29,52.38c1.36-1.29,2.72-2.59,3.93-3.92.8-1,1.45-2.05,2.06-3,.14,0,.33,0,.42.14-.23.24-.37.67-.6.9A6.68,6.68,0,0,0,61.64,46a.15.15,0,0,1,.1.19c-.23.24-.52.15-.66.57a.55.55,0,0,1-.47,0c-.38-.28-.61,0-.8.05-1.37-.12-1.6,1.06-2.3,1.78S56.25,50,55.59,50.6s-1.12,1.06-1.73,1.49C53.62,52.33,53.53,52.61,53.29,52.38Z"/><path class="cls-52" d="M50.91,50.51a12.14,12.14,0,0,0-1.38,3.8,2.07,2.07,0,0,0,1.08-.44c.38-.19.85-.19,1.13-.58a.5.5,0,0,1,.33,0l.29.09a17.74,17.74,0,0,1-3.62,2,3.34,3.34,0,0,0-1.37.35c-.38.19-.38.19-.57-.18.61-.44,1.22-.4,1.79-.69.38-.19.56-.29.56-.76a7.48,7.48,0,0,1,1.38-3.8C50.81,50.32,51,50.37,50.91,50.51Z"/><path class="cls-53" d="M18.38,44.28c.09-.29-.24-.24-.34-.43l.05-.14c.28.09.38.28.62.51a.27.27,0,0,0,.42.14c.39.28.39.76.39,1.23s.11.66.34.89a27.89,27.89,0,0,1,3,4.28c.38.28.44.61.25,1.18a16,16,0,0,1-1.25-2,31.27,31.27,0,0,0-2.63-3.52c-.24-.23-.33.05-.62,0-.09-.19-.33-.42-.52-.32-.28-.09-.28-.09-.19-.38a.32.32,0,0,1,.38-.19c.33,0,.28.09.61.51A15.08,15.08,0,0,1,18.38,44.28Z"/><path class="cls-54" d="M67.81,29.23c-.09-.19,0-.33-.14-.52A5.81,5.81,0,0,0,67,30.23c0,.14-.09.29-.23.24s0-.14-.2-.38c0,.15-.23.24-.28.38-.19-.37,0-.61.14-.9.28.1.28.1.33-.05a8.82,8.82,0,0,0,1.07-1.85c1-2.19,2.18-4.33,3.29-6.33.19-.1.14,0,.29.09-1,2-2.14,4.19-3.11,6.23A5.91,5.91,0,0,1,67.81,29.23Z"/><path class="cls-55" d="M31.46,4.15c.38-.19.28-.38,0-.61a6.91,6.91,0,0,1,2.24,1.35c.66.37,1,1.12,1.71,1.49a.33.33,0,0,1,.19.38.15.15,0,0,0,.1.19c.1.19.34.42,0,.61A.52.52,0,0,1,35,7.19l-.28-.56c0,.14,0,.47-.28.38A.29.29,0,0,1,34,6.87a.55.55,0,0,1,0-.47c.1-.29-.05-.33-.33-.43a2,2,0,0,1-.76-.56c-.24-.23-.29-.56-.95-.46C31.8,5.05,31.51,4.48,31.46,4.15Z"/><path class="cls-56" d="M21.46,25.46c.18-.1.38.28.52-.15l0-.14c.15.52.57-.29.9.13a.46.46,0,0,1-.05-.8c.09.18,0,.47.14.52s.24-.24.42-.34c.33-.52,1.13-.58,2-.31a2.46,2.46,0,0,0,.34.9c-.38-.28-.38-.28-.85.2.18-.57-.29-.57-.48-.47-.52.15-.14.43-.23.71-.19.1-.38-.28-.52.15s.24.23.19.38l.1.18a7.42,7.42,0,0,1-1.75-.4C21.75,26,21.51,25.79,21.46,25.46Z"/><path class="cls-57" d="M46.9,55.66c.28.1.28.1.51-.14.05-.15,1.33-.21,1.47-.16a20.08,20.08,0,0,1-7,1.82c-.42-.13-.75-.08-1.18-.22-.14-.05-.33,0-.38-.28s.47,0,.66-.1C42.89,56.89,44.82,56.25,46.9,55.66Z"/><path class="cls-58" d="M12.59,41.78c.38.28.8.42,1.19.7.71.23,1.14.84,1.71,1,.14,0,.38.28.52.33s.14,0,.24.23.66.37.53.8c-.43.34-.43.34-1,0,.19.38.85.28.81.89-.75-.09-1.19-.7-1.71-1a12.74,12.74,0,0,0-2.48-2.06c-.14,0-.23-.23-.33-.42s0-.33.09-.29C12.44,41.74,12.49,41.59,12.59,41.78Z"/><path class="cls-59" d="M16.69,45.62a6.46,6.46,0,0,0-1.14-.84c.47,0,.85.27,1.13-.11.19-.09.43.14.71.23-.14,0-.1-.19-.05-.33s.19-.1.05-.14a.53.53,0,0,1-.38-.28c-.1-.19-.15-.52.13-.43,0,0,.33,0,.05-.14s-.38-.28-.62-.52c.33-.05.52.33.85.28.1.19.53.33.25.71s.14.52.38.75c.19-.1-.14-.52.28-.38a4.39,4.39,0,0,1,.58,1.6c-.23-.23-.28-.56-.76-.56,0,0-.28-.09-.19.1s.1.19.24.23.62,0,.62.52A3.89,3.89,0,0,1,16.69,45.62Z"/><path class="cls-60" d="M65.69,29.49c-.14.42-.23.71-.37,1.14,0,.14.05.33-.09.28-.47,0-.15-.52-.62-.51.09-.29,0-.62.14-.9s.28.09.23-.24a20.64,20.64,0,0,1,.77-2.9c.1-.28-.23-.23-.19-.37l.54-3.13c.19-.1.19-.1.28.09a8,8,0,0,0-.12,1.85c0,1.09-.4,2.22-.44,3.31A1.46,1.46,0,0,1,65.69,29.49Z"/><path class="cls-61" d="M29,32.62c.29.56.63,1,.25,1.65-.09-.19-.14-.52-.47-.47-.1.29.19.38.24.71-.52-.33-.66.1-.66.57s-.13.43-.23.72a4.7,4.7,0,0,1-1.06-3c.28.09.23.23.33.42s.19.38.38.28-.1-.19-.24-.23,0-.33.09-.29.33-.05.29.09c.05.34.19.38.48.47.14,0,.42.14.47,0s-.1-.19-.19-.38C28.85,32.71,28.9,32.57,29,32.62Z"/><path class="cls-62" d="M74.75,95.92c.23-.24,0-.47.23-.71-.1-.19,0-.14.19-.1a.6.6,0,0,1,.38.28,18.51,18.51,0,0,1,1,3.16c-.47,0-.14.43-.18.57,0,.33.19.85.24,1.18,0,.15-.09.29-.23.24-.15-.52-.62-1-.72-1.65a.43.43,0,0,1,0-.61c.23-.24,0-.14-.1-.19a.32.32,0,0,1-.19-.38c.14-.42-.2-.37-.34-.42A.14.14,0,0,1,75,97.1a.81.81,0,0,0-.1-.66C74.8,96.25,74.51,96.16,74.75,95.92Z"/><path class="cls-63" d="M16.27,55.7a45,45,0,0,1,6.11,1.5c.14,0,.14,0,.24.23s.09.19-.09.29c-1.76-.41-3.65-.86-5.36-1.41L16,55.94C15.94,55.75,16,55.61,16.27,55.7Z"/><path class="cls-64" d="M38.5,9.09c0,.15.1.19.24.24l.29.09c.28.09.71.23.1.66l-.05.14c.05.33,0,.48-.18.57a2,2,0,0,1-.95,0c-.38-.28-.76-.56-.76-1s-.1-.66-.11-1.13c.33-.53-.24-.71-.48-.94a1.48,1.48,0,0,1-.44-1.09l.05-.14a15.52,15.52,0,0,1,1.91,2.34C38.17,9.15,38.22,9.48,38.5,9.09Z"/><path class="cls-65" d="M23,51.75c.28-.38-.06-.8-.25-1.18.32-.52,0-1.09,0-1.56.05-.14-.1-.19-.05-.33s-.05-.33,0-.62,0-.33.28-.38c.14,0,.1.19.19.38a19.29,19.29,0,0,1,0,2.84,2.5,2.5,0,0,0,.49,1.41,25.5,25.5,0,0,1,1.59,3.82c0,.14.05.33-.28.38-.43-1.09-.87-2.17-1.4-3.44A6.77,6.77,0,0,1,23,51.75Z"/><path class="cls-18" d="M41.17,79.76c.14-.43.57-.29.76-.38,2-.31,2.91-1.74,4-3.12.47-.48.84-1.15,1.31-1.62.38-.2.52-.15.52.32-.69,1.19-1.91,2.06-2.75,3.2-.05.14-.38.19-.28.38-.05.14,0,.33-.28.38s-.9.34-1.23.39a1.57,1.57,0,0,0-.8.53C41.84,80.13,41.51,80.18,41.17,79.76Z"/><path class="cls-66" d="M14.83,39.2c-.19.1-.33,0-.38.2a.13.13,0,0,1-.18.09c-.15,0-.15,0-.1-.19a2.3,2.3,0,0,0-.43-.61l0-.14c-.09-.19,0-.47-.28-.56a21.49,21.49,0,0,1-1.6-3.35,4.79,4.79,0,0,1-.58-1.6c-.1-.19-.24-.23.09-.28.72,1.17,1.26,2.44,2,3.62.52.8.91,1.55,1.34,2.16C14.78,38.87,14.88,39.06,14.83,39.2Z"/><path class="cls-67" d="M47.74,75c-.05-.33-.19-.38-.52-.32,1.12-2,2-3.91,3-6A17.17,17.17,0,0,1,47.74,75Z"/><path class="cls-68" d="M41.17,79.76a.84.84,0,0,0,1.14-.1,1.78,1.78,0,0,1,.94-.49c.38.28.66-.1,1-.15s.42-.34.43.14c-2.6.73-5.09,1.66-7.59,2.59-.19.09-.19.09-.33,0-.33-.43.14-.43.37-.67,1.37-.35,2.5-.93,3.87-1.27C40.94,80,41,79.86,41.17,79.76Z"/><path class="cls-69" d="M11.41,42a37,37,0,0,0-5.27-2.17c-1-.32-2.08-.35-2.94-.63a20.3,20.3,0,0,1,2.94.16c.23.23.56.18.71.23a31.87,31.87,0,0,1,3.55,1.14,1.1,1.1,0,0,0,.76.56c.15,0,.48,0,.39.28S11.55,42.08,11.41,42Z"/><path class="cls-70" d="M46,46.26a23.58,23.58,0,0,0,.55-6.59c0-.47-.24-.7-.39-1.22a1.62,1.62,0,0,0,0-.81c0-.14-.2-.37.13-.42s.43.13.38.28a20.4,20.4,0,0,1-.43,8.66C45.91,46.54,46,46.4,46,46.26Z"/><path class="cls-71" d="M59.7,45.64a.27.27,0,0,1-.42-.14,39.12,39.12,0,0,0,2.83-5.38l.28.1a10.09,10.09,0,0,1-.78,1.94A16.18,16.18,0,0,1,59.7,45.64Z"/><path class="cls-72" d="M18.72,15.93,19,16a.31.31,0,0,0,.15.52c-.24.24-.23.71-.8.53-.14.42-.51.62-.61.9a.5.5,0,0,1-.28.38c-.18.1-.42.34-.66.11s-.19-.38-.1-.67.09-.28-.09-.18A21.61,21.61,0,0,0,18.72,15.93Z"/><path class="cls-73" d="M26.57,60.28c.24.71.11,1.61.54,2.22.14,0,.1.18.05.33.05.33.06.8.11,1.13-.19.1-.29-.09-.43-.14-.25-1.18-.54-2.21-.79-3.39a2.16,2.16,0,0,0-1-1.27c.29.09.39.28.72.23.13-.43-.34-.9-.16-1.47a1.75,1.75,0,0,1,.58,1.13A2.66,2.66,0,0,0,26.57,60.28Z"/><path class="cls-74" d="M27.61,70.2c.19.38.28.1.33,0L31,66.43l.19-.1c.38.28-.14.43-.23.72-.56.76-1.21,1.33-1.77,2.1A15.49,15.49,0,0,1,27.67,71a.15.15,0,0,1-.19.09l-.15,0A1,1,0,0,1,27.61,70.2Z"/><path class="cls-45" d="M68.55,85.91c-.14-.52-.14-.52.14-.43.19.38.52.33,1,.32a.5.5,0,0,0,.33,0c.14,0,.19-.09.28.09s-.09.29-.23.24c-.19.1-.33,0-.52.15.81.42,1.71.55,2.37.92a.67.67,0,0,1-.23.71,1.25,1.25,0,0,1-1-.32.82.82,0,0,0-.48-.47,2.59,2.59,0,0,0-1-.17C68.42,86.81,68.42,86.81,68.55,85.91Z"/><path class="cls-75" d="M25.84,4.54c.14,0,.19-.09.33,0,.28-.38.56-.29.94,0,0,.15-.28-.09-.33,0s.38.28.72.23l.18-.09a.72.72,0,0,0,.49.94c-.43-.14-.67.1-.8.53.33,0,.61,0,.47.46-.33.06-.47,0-.8.06a.45.45,0,0,1-.57-.18c.09-.29.09-.76.18-1.05,0-.61-.57-.18-.57-.65C25.79,4.69,25.65,4.64,25.84,4.54Z"/><path class="cls-76" d="M29.27,94.79a5.78,5.78,0,0,0-2.63-2.57c-.28-.09-.38-.28-.66-.37-.05-.33-.38-.28-.43-.61a4.92,4.92,0,0,1,3.95,3.31C29.31,94.65,29.41,94.84,29.27,94.79Z"/><path class="cls-77" d="M58.75,78.82a.82.82,0,0,1-.15-.52,2.9,2.9,0,0,1,1,.65,8.07,8.07,0,0,1,.69,2.74A1.65,1.65,0,0,1,60,82.83C59.81,81.36,59.8,79.94,58.75,78.82Z"/><path class="cls-78" d="M47.13,16c0-.14.33-.05.47,0a5.23,5.23,0,0,1,1.37.61c-.33.05-.8.05-.7.71a.42.42,0,0,1-.23.24c-.29-.09-.29-.09-.28.38s-.14.43-.28.38l-.43-.13L47,18c.28-.38-.11-.66-.2-.85C46.51,16.39,47.32,16.34,47.13,16Z"/><path class="cls-79" d="M31.12,67.09c-.09-.19-.23-.23.1-.28a.28.28,0,0,0,.13-.43c.24-.24.43-.34.66-.58.7-.71,1.4-1.43,1.92-2,0,0,0-.14.09-.29s.23-.23.42-.33c.47,0,.61-.43.89-.81a.33.33,0,0,1,.38-.2.44.44,0,0,0,0,.33C34.21,63.84,32.72,65.56,31.12,67.09Z"/><path class="cls-80" d="M45.62,26.48c.42-.34.42-.34,0-.61-.14-.05-.24-.24-.48-.47.33,0,.58.65,1,.18l0,.14c0,.47.43.61.62,1,.29.57.77,1,1.06,1.6.1.19.24.24,0,.33s-.14,0-.28-.09A5.3,5.3,0,0,0,45.62,26.48Z"/><path class="cls-81" d="M43.62,25.37c.24.23.72.23.91.6a15.19,15.19,0,0,1-1.89.49c-.19-.37-.62-.51-.58-1.12a.77.77,0,0,1,.47-.48l.19-.1A2,2,0,0,1,43.62,25.37Z"/><path class="cls-82" d="M62.35,40.36l-.29-.09a20.81,20.81,0,0,0,1.47-4.09A4.19,4.19,0,0,0,64,34.9l.42.14C63.78,36.89,63.08,38.55,62.35,40.36Z"/><path class="cls-83" d="M70.57,98.66c0,.15.09.19-.09.29a19.48,19.48,0,0,1-2.07-3.81c-.2-.38-.1-.66.23-.71,0,.47.52.79.53,1.27,0,.14.09.19,0,.47s-.09.29-.09.29c.76.08.57.65.72,1.17a.56.56,0,0,0,.24.24C70.32,98,70.71,98.24,70.57,98.66Z"/><path class="cls-84" d="M66.87,83.32c-.7.25-1,.77-1.73,1-.06-.33.41-.81.08-1.23a2.61,2.61,0,0,0-1.29-1.36c.14-.43.14-.43.56-.29a1.26,1.26,0,0,1,.72.7A2.33,2.33,0,0,0,66.87,83.32Z"/><path class="cls-85" d="M63.9,24.82c-.1-.19,0-.47-.25-.71-.3-2-.84-3.73-1.19-5.57,0-.14-.09-.19,0-.47.52-.15.38.28.48.47.35,1.84.84,3.73,1.14,5.71C64,24.54,64.08,24.72,63.9,24.82Z"/><path class="cls-86" d="M23.24,48.2l-.1-.19c-.38.19.1.66-.27.86a34.5,34.5,0,0,1-.51-3.78c.23.23.33-.06.51-.15A19,19,0,0,1,23.24,48.2Z"/><path class="cls-87" d="M15.64,98.58c-.05-.33.23-.71.32-1-.18.1-.33,0-.51.15l.84-1.14a.13.13,0,0,1,.09.18.15.15,0,0,1,.19-.09c-.14-.05-.19.09-.28-.09a16.23,16.23,0,0,1,1.63-2.15c.24.23,0,.47-.09.76s-.42.33-.23.71A24.32,24.32,0,0,1,15.64,98.58Z"/><path class="cls-88" d="M21.17,39.51c.48,1.42,1,2.69,1.46,4.25a.8.8,0,0,1,.1.66c-.24-.23-.38.19-.47,0-.3-1.51-.74-3.06-1.18-4.62A.21.21,0,0,1,21.17,39.51Z"/><path class="cls-89" d="M52.76,21.39a.28.28,0,0,1-.43-.14c-.1-.66-.67-.84-.86-1.22s-.67-.37-.3-1c0-.14-.48-.47-.57-.65a1.51,1.51,0,0,1-.34-.9c.66.37.91,1.08,1.38,1.55a19.42,19.42,0,0,0,1.21,2.11S52.8,21.25,52.76,21.39Z"/><path class="cls-90" d="M70.07,86.08c0-.14.37-.19-.1-.19-.14,0-.19.1-.33.06l4.67-1.33c.14,0,.09.19.09.19a27.25,27.25,0,0,1-3.86,1.27C70.35,86.17,70.16,86.27,70.07,86.08Z"/><path class="cls-91" d="M39.76,26.16a3.07,3.07,0,0,0,1.6-.11c.33-.05.19.38.48.47a5.71,5.71,0,0,1-2.12.73A.86.86,0,0,1,39.76,26.16Z"/><path class="cls-36" d="M38.61,30.2l.29.09C38.49,32,37.22,33.05,35.81,34a1.79,1.79,0,0,1,.38-.66c.51-.62,1.26-1,1.49-1.72.42-.34.42-.81.7-1.19A.46.46,0,0,1,38.61,30.2Z"/><path class="cls-92" d="M14.83,39.2c-.38-.75-.91-1.55-1.3-2.3-.09-.19,0-.33-.19-.38a9.69,9.69,0,0,1,1.39,2c.1.19.24.71.47,0a.15.15,0,0,1,.19-.1,1.77,1.77,0,0,1,.48.94c.05.33.29.09.29.09a.15.15,0,0,1,.09.19c0,.14.05.33-.28.38a.36.36,0,0,1-.52-.32c-.19-.38-.19.09-.33.05A1.14,1.14,0,0,1,14.83,39.2Z"/><path class="cls-93" d="M21.76,91.28c-.65.57-1.21,1.33-1.87,1.91-.33,0-.28-.09-.19-.38a2.2,2.2,0,0,1,.56-.76,11.07,11.07,0,0,1,1.55-1.39C21.9,90.85,21.86,91,21.76,91.28Z"/><path class="cls-94" d="M77.71,89.65a20.51,20.51,0,0,0-4.17-1.19c.09-.29.24-.24.42-.34a5.77,5.77,0,0,1,1.57.51,13.31,13.31,0,0,1,2.37.92Z"/><path class="cls-95" d="M65.3,86.27l.28.1c.1.66-.56.76-.89.81-.52.15-.94.48-1.46.63a5.3,5.3,0,0,1-2.22.54A10.24,10.24,0,0,0,65.3,86.27Z"/><path class="cls-96" d="M26.57,60.28c-.71-.23-.48-.94-.77-1.51-.1-.19-.1-.66-.39-.75-.19-.38-.2-.85-.39-1.23.05-.14.24-.24.28-.38A13.54,13.54,0,0,1,26.57,60.28Z"/><path class="cls-97" d="M39.76,26.16a1.83,1.83,0,0,0-.09,1.23l-.18.1a.92.92,0,0,0-.61.91,1.7,1.7,0,0,1-.13.9c-.24-.24-.34-.42-.48-.47a.63.63,0,0,1,.18-1c.23-.24.23-.24,0-.48.43.14.66-.1.61-.43a1.24,1.24,0,0,1-.1-.66A1,1,0,0,1,39.76,26.16Z"/><path class="cls-98" d="M11.41,42a.54.54,0,0,1,.28-.38.15.15,0,0,1,.19-.1c.28.09.42.14.52.33a8.71,8.71,0,0,0,1.76,1.35c.38.28.53.8,1.05,1.13a4.43,4.43,0,0,1-1.62-1.31A4.26,4.26,0,0,1,11.41,42Z"/><path class="cls-99" d="M10.31,41.05C8.89,40.59,7.51,40,6,39.67c-.28-.09,0-.14,0-.14a22.84,22.84,0,0,1,4.31,1.23.92.92,0,0,1,.53.33c.23.23.05.33-.1.28S10.45,41.09,10.31,41.05Z"/><path class="cls-100" d="M61.69,46.28l-.09-.19a19,19,0,0,0,3-1.54c.24.23-.09.28-.14.42a5.51,5.51,0,0,1-2.54,1.54C61.74,46.61,61.65,46.42,61.69,46.28Z"/><path class="cls-101" d="M74.92,84.19a3.76,3.76,0,0,1,1.69-.87c.75-.39,1.41-1,2.16-1.35.19-.1.24-.24.52-.15a17.42,17.42,0,0,1-3.24,2.26C75.62,83.94,75.3,84.47,74.92,84.19Z"/><path class="cls-26" d="M24.86,15.86c-.14,0-.19.1-.24-.23a.78.78,0,0,1,.75-.86c.33,0,.57.18.9.13.14,0,.1.19.19.38s0,.47-.28.38-.09-.19-.28-.09,0,.47-.33.52A.65.65,0,0,1,24.86,15.86Z"/><path class="cls-102" d="M26.84,63.82l.43.14a14.19,14.19,0,0,1,.22,3.69.52.52,0,0,0-.47,0,22.6,22.6,0,0,1-.08-3.17C27,64.2,26.75,64.11,26.84,63.82Z"/><path class="cls-103" d="M36.7,81.94c.15,0,.19-.1.33,0a1.46,1.46,0,0,1-.89.34,7.29,7.29,0,0,0-2.5.92c-.33,0-.56.29-1,.16l-.14,0a12.11,12.11,0,0,1,3.63-1.5C36.32,81.66,36.42,81.85,36.7,81.94Z"/><path class="cls-104" d="M20.3,81.21a12.6,12.6,0,0,1,1.76-3l.29.09.09.19c-.37.66-.69,1.19-1.07,1.85-.33,0-.32.53-.51.62S20.58,81.3,20.3,81.21Z"/><path class="cls-105" d="M64.64,81.5c-.24.24-.57-.18-.57.29a12.13,12.13,0,0,0-1.76-1.35c-.1-.19.09-.29.19-.1s.33,0,.47,0A4.9,4.9,0,0,1,64.64,81.5Z"/><path class="cls-95" d="M60.83,88.45c-.19.1-.52.15-.71.25a9.66,9.66,0,0,1-4.59-.86A15.38,15.38,0,0,0,60.83,88.45Z"/><path class="cls-106" d="M25.55,91.24c.09.18.56.18.43.61a3.71,3.71,0,0,0-2.56-.35c-.14,0-.33,0-.61,0a.32.32,0,0,1,.37-.19A2.15,2.15,0,0,1,25.55,91.24Z"/><path class="cls-103" d="M32.7,83.64a12.91,12.91,0,0,1-2.58,1.21c-.2-.38.13-.43.18-.57a10.06,10.06,0,0,1,2.26-1.16.41.41,0,0,1,.14.52Z"/><path class="cls-107" d="M27,1.93c.38.28.76.56.76,1-.14,0-.33,0-.47,0,.43.13.1.66.34.89.14.05-.14.43-.28.38s-.29-.09-.24-.23.09-.29-.24-.23l-.14,0c.23-.24-.06-.8.18-1s.09-.29-.15-.52C26.9,2.21,27,2.07,27,1.93Z"/><path class="cls-6" d="M65.75,25.89c.1.19.38.28.29.56-.28.86-.46,1.9-.73,2.76-.09.28-.14.42-.38.19C65.11,28.36,65.48,27.22,65.75,25.89Z"/><path class="cls-108" d="M15.36,40c.19-.1,0-.33.14-.43.28.1.19.38.47.47s.14-.43.43-.33c.33.42.62,1,1,1.41,0,.14-.13.42-.42.33A11.73,11.73,0,0,1,15.36,40Z"/><path class="cls-109" d="M65.4,91.81c.09.19.24.23.14.52s.24.23.24.23a8.08,8.08,0,0,1-1,2.52c-.18.1-.18.1-.14,0C65.14,94.08,65,93,65.4,91.81Z"/><path class="cls-110" d="M20.26,92.05c.24.23-.09.28-.28.38-.09.29-.33.52-.09.76-.28.38-.7.72-1,1.1a1.59,1.59,0,0,1-.8,0A16.24,16.24,0,0,1,20.26,92.05Z"/><path class="cls-111" d="M23.55,76c.8-1,1.45-2,2.24-3l.15,0c.19.37.1.66-.23.71s-.19.1-.24.24-.14.43-.18.57c-.28.38-.75.86-1,1.24C24.07,75.83,24,76.11,23.55,76Z"/><path class="cls-112" d="M66.64,20.2a40.12,40.12,0,0,1,.86-4.12,36.48,36.48,0,0,1-.48,4.4C66.88,20.44,66.78,20.25,66.64,20.2Z"/><path class="cls-25" d="M8.38,36.81c.61,0,.29.56.34.9.09-.29.18-.57.37-.67.25,1.18.25,1.18-.37,1.14-.33-.42-.76-.56-1-.94A1.86,1.86,0,0,0,8.38,36.81Z"/><path class="cls-113" d="M16.56,22.15c.09.19.33.42.1.66s.19.38.14.52c-.28-.09-.8.06-1-.18-.09-.19-.33.05-.42-.14,0-.61.65-.57,1.07-.91-.09-.18-.09-.18.15,0C16.46,22,16.6,22,16.56,22.15Z"/><path class="cls-114" d="M27.52,71h0c.05.33-.13.43-.23.71a2.27,2.27,0,0,0-.56.77c-.23.24-.46.48-.89.34A1.93,1.93,0,0,1,26.4,72a2.5,2.5,0,0,0,.69-1.67c.29.09.24.24.34.42C27.28,70.73,27.38,70.92,27.52,71Z"/><path class="cls-115" d="M44.67,79.16c-.39-.28-.67.1-.85.2s-.48,0-.57-.19c.42-.33,1-.29,1.46-.63l0-.14c.15.52.48.47.9.13s.57.19.71.23A8.07,8.07,0,0,1,44.67,79.16Z"/><path class="cls-116" d="M16.27,55.7c-.05.14-.19.1-.09.29A6.84,6.84,0,0,1,13,54.65,25.65,25.65,0,0,0,16.27,55.7Z"/><path class="cls-117" d="M50.91,50.51l-.28-.09a16.91,16.91,0,0,1,1.63-2.15c.05-.14.23-.24.33-.05s.1.19-.09.29C51.84,49.08,51.57,49.94,50.91,50.51Z"/><path class="cls-31" d="M33.88,63.42c.09.19.24.23.19.38a13.38,13.38,0,0,1-2.06,2c0-.61.56-.76.84-1.14A1.9,1.9,0,0,1,33.88,63.42Z"/><path class="cls-118" d="M32.7,83.64c-.18.09-.33,0-.57-.19.29.1.48,0,.43-.33a6.15,6.15,0,0,0,2.3-.83c.38-.19.85-.2,1.23-.39L36,82C34.91,82.62,33.83,83.06,32.7,83.64Z"/><path class="cls-119" d="M25.38,6.44c-.23.24.11.66-.17,1s.23.24.33.43c-.33,0-.56.29-.89.34a6.1,6.1,0,0,1,.73-2.76c.14,0,.14,0,.09.19A1.06,1.06,0,0,1,25.38,6.44Z"/><path class="cls-120" d="M27.16,62.83c-.28-.09-.1-.19-.05-.33.51-.62.74-1.34,1.26-2,.14.05-.14.43.33.43A13.8,13.8,0,0,1,27.16,62.83Z"/><path class="cls-121" d="M52.31,53.48c-.14,0-.19.09-.33.05s-.1-.19.09-.29c.38-.19.61-.43,1-.62,0-.15.19-.1.23-.24.66-.1,1-.63,1.46-1.11.23-.23.32-.52.8-.52A11.47,11.47,0,0,1,52.31,53.48Z"/><path class="cls-122" d="M66.64,20.2a.21.21,0,0,1,.28.09c-.13.9-.22,1.66-.35,2.56l-.28-.09C66.37,22,66.51,21.1,66.64,20.2Z"/><path class="cls-123" d="M28,86.53c-.28-.1-.23-.24-.14-.52.66-.11,1-.77,1.74-1a.79.79,0,0,1,.66-.1C29.56,85.61,28.66,86,28,86.53Z"/><path class="cls-124" d="M25.84,72.78c.66-.1.89-.82,1.45-1.11a24.43,24.43,0,0,1-2,2.68c-.09-.19.1-.29,0-.48s.09-.28.42-.33S25.89,73.11,25.84,72.78Z"/><path class="cls-125" d="M20.3,81.21c.33,0,.42-.33.65-.57.05-.14,0-.48.42-.34-.51,1.1-1.16,2.14-1.67,3.24-.28-.09-.09-.19-.05-.33s.1-.29,0-.33c.38-.2.23-.72.61-.91A1.58,1.58,0,0,1,20.3,81.21Z"/><path class="cls-126" d="M18.3,94.25a1.11,1.11,0,0,1,.8-.06c-.47.48-.8,1-1.31,1.62-.33,0-.47,0-.24-.23s.66-.58.65-1C18.06,94.49,18.25,94.39,18.3,94.25Z"/><path class="cls-127" d="M62.85,18.82c-.24-.23-.11-.66-.44-.61a5.28,5.28,0,0,1-.34-1.37c0-.14.28.1.19-.09s0-.48-.06-.81c0-.14.14-.42.33,0A20,20,0,0,0,62.85,18.82Z"/><path class="cls-64" d="M35.69,6.62c.09-.29-.19-.38-.33-.43-.72-.23-.77-1-1.48-1.26l0-.14a9.13,9.13,0,0,1,2.39,1.87c-.05.14,0,.33-.1.28C35.88,7,35.79,6.8,35.69,6.62Z"/><path class="cls-128" d="M62.58,15.75c-.29-.09-.19.1-.23.24,0,.33-.05.61,0,1-.14-.05-.28-.1-.23-.24a13.8,13.8,0,0,1,.3-2.42A2.76,2.76,0,0,1,62.58,15.75Z"/><path class="cls-45" d="M74,88c0,.33-.23.24-.42.34s-.57-.19-.9-.14c-.1-.18-.24-.23-.34-.42s-.24-.23.14-.43A5.48,5.48,0,0,0,74,88Z"/><path class="cls-129" d="M10.31,41.05l.43.14a.16.16,0,0,0,.19-.1l.28.09c.38.28,1,.18,1.33.74a.15.15,0,0,0-.19.1c-.23.24-.42-.14-.61,0l-.14,0c-.29-.09-.62,0-.86-.27C10.65,41.47,10.22,41.33,10.31,41.05Z"/><path class="cls-130" d="M47.81,28.45c.29.09.24-.24.14-.43a11.56,11.56,0,0,1,1.4,3C49,30.23,48.3,29.39,47.81,28.45Z"/><path class="cls-131" d="M6.67,36.26c.61-.43,0-.47-.29-.56,0-.34.19-.1.24-.24.37-.2.33-.05.61,0s.39.75,1,.79c-.28.38-.47,0-.7.24l-.15,0c-.09-.19-.33,0-.71-.23Z"/><path class="cls-132" d="M22.2,78.21l-.14,0A13,13,0,0,1,23.55,76c.15,0,.29.09.2.38a7,7,0,0,1-1.55,1.86Z"/><path class="cls-133" d="M68.64,94.43c-.24.24-.43.33-.23.71a4.22,4.22,0,0,1-.63-1c0-.33.56-.76-.19-.85a.36.36,0,0,1,.61,0A4.15,4.15,0,0,1,68.64,94.43Z"/><path class="cls-134" d="M27.52,71c-.33.05-.28-.09-.38-.28s.09-.28-.14-.52a2.26,2.26,0,0,0,0-1.09.69.69,0,0,1,.23-.71c.24-.24.19-.09.29.09,0,.48.1,1.14.11,1.61A5.86,5.86,0,0,0,27.52,71Z"/><path class="cls-135" d="M74.3,79.27a1,1,0,0,1,0-.61.6.6,0,0,0-.1-.67c.09-.75.32-1.47.41-2.22A9.44,9.44,0,0,1,74.3,79.27Z"/><path class="cls-136" d="M75.59,95.25c-.19.1-.42-.14-.61,0s0-.33-.34-.42c-.14-.05-.24-.24-.33-.42.09-.29.52-.15.85-.2C75.4,94.4,75.4,94.88,75.59,95.25Z"/><path class="cls-137" d="M46,46.26c0,.14.1.18.24.23a15.3,15.3,0,0,1-.83,2.56c-.14,0-.18.1-.14,0A9.16,9.16,0,0,1,46,46.26Z"/><path class="cls-138" d="M22.2,78.21c.52-.62.94-1.43,1.45-2l-.1-.19c.29.09.38-.19.71-.24-.61.9-1.21,1.81-1.82,2.72C22.3,78.4,22.3,78.4,22.2,78.21Z"/><path class="cls-139" d="M27.5,68.6s-.05-.33-.14,0,0,.62-.14.9c.06.33.11.66-.27.86A5.46,5.46,0,0,1,27,68.13c.19-.1.29.09.43.14S27.69,68.5,27.5,68.6Z"/><path class="cls-140" d="M15.34,38.58a13.91,13.91,0,0,1-1.07-3.49c.29,1,.78,2,1.07,3C15.29,38.25,15.39,38.44,15.34,38.58Z"/><path class="cls-40" d="M46.53,37.78c-.09-.19-.05-.33-.38-.28a2.26,2.26,0,0,1,0,1.09,7.66,7.66,0,0,1-.4-2.17c.47,0,.1.66.52.8a.56.56,0,0,0,.24.23C46.62,37.5,46.58,37.64,46.53,37.78Z"/><path class="cls-4" d="M25.75,4.83l.85.27c-.42.34,0,1-.46,1.43a.56.56,0,0,1-.24-.24c.05-.14.05-.14,0-.33.09-.28,0-.61-.47-.47C25.51,5.07,25.56,4.92,25.75,4.83Z"/><path class="cls-141" d="M29.27,94.79c0-.14.18-.09.23-.24.34.9.54,1.75.83,2.79l-.19.09A10.44,10.44,0,0,1,29.27,94.79Z"/><path class="cls-142" d="M64.67,95l.14,0a22.64,22.64,0,0,1-1.53,2.81Z"/><path class="cls-143" d="M16.89,41.59c.18-.09.23-.23.42-.33a3.67,3.67,0,0,1,.86,1.22A1.43,1.43,0,0,1,16.89,41.59Z"/><path class="cls-144" d="M23.23,91.12c-.19.1-.24.24-.38.19s-.61,0-.9-.13c-.09-.19-.05-.33-.14-.52l.18-.1.29.1c.14,0,.09.18.28.09C22.57,91.22,23,90.88,23.23,91.12Z"/><path class="cls-145" d="M47.91,13.54c-.67.1-1.23.39-1.89.49-.33.05-.29-.09-.19-.38.18-.09.23-.23.51-.14A4.67,4.67,0,0,1,48,13.25C48.09,13.44,48.09,13.44,47.91,13.54Z"/><path class="cls-146" d="M63.93,81.75c.61,0,1.47.79,1.29,1.36C64.88,82.68,64.22,82.31,63.93,81.75Z"/><path class="cls-147" d="M64.47,45c0-.14.23-.24.14-.42a12.67,12.67,0,0,1,1.31-1.15A11.73,11.73,0,0,1,64.47,45Z"/><path class="cls-148" d="M15.34,38.58c.05-.14-.19-.37,0-.47l.87,1.69c-.19.1-.38.2-.43-.13A4.53,4.53,0,0,1,15.34,38.58Z"/><path class="cls-149" d="M22.53,57.72c0-.14,0-.14.09-.29a3.82,3.82,0,0,1,1.81,1.21A10.38,10.38,0,0,0,22.53,57.72Z"/><path class="cls-150" d="M74.92,84.19c.33,0,.61-.44,1.18-.25a5.18,5.18,0,0,1-1.65.72l-.1-.18C74.4,84.33,74.73,84.28,74.92,84.19Z"/><path class="cls-151" d="M30.37,38.23c-.19-.37-.43-.61,0-.94.24-.24.15.52.43.14.05-.15.23-.24.56-.29a.13.13,0,0,1,.1.18C31.17,37.71,30.65,37.85,30.37,38.23Z"/><path class="cls-131" d="M8.38,36.81c-.23.24-.37.67-.75.39-.15-.05-.1-.19-.24-.24-.15-.52-.15-.52.18-.57C7.81,36.63,8,37,8.38,36.81Z"/><path class="cls-152" d="M75.06,103.73c.19-.1.38.28.52-.15l0-.14a4.68,4.68,0,0,1,.91,1.08A3.56,3.56,0,0,1,75.06,103.73Z"/><path class="cls-153" d="M25.61,5.26c.14,0,.38-.2.52-.15a1.27,1.27,0,0,1,0,1.09l-.14,0a.77.77,0,0,1-.48-.47l-.09-.19C25.56,5.4,25.56,5.4,25.61,5.26Z"/><path class="cls-154" d="M21.17,39.51c-.05.15-.05.15-.09.29a21.27,21.27,0,0,1-.83-2.31A15.39,15.39,0,0,1,21.17,39.51Z"/><path class="cls-21" d="M31.31,37.28l-.1-.19a1.28,1.28,0,0,1,1.32-.68A3.52,3.52,0,0,1,31.31,37.28Z"/><path class="cls-155" d="M15.93,20.69c-.24.24-.37.67-.7.72a1.61,1.61,0,0,1,.36-1.14C15.5,20.55,15.92,20.22,15.93,20.69Z"/><path class="cls-156" d="M30.65,52c-.1-.19,0-.33-.24-.23a7.12,7.12,0,0,1,.27-1.8C30.78,50.63,30.55,51.34,30.65,52Z"/><path class="cls-157" d="M40.24,56.82c.19.38.62,0,.9.13a1.38,1.38,0,0,1,.67.38,6.22,6.22,0,0,1-1.56,0C40.15,57.11,40.05,56.92,40.24,56.82Z"/><path class="cls-158" d="M22.26,44.42c.37-.19-.06-.33.13-.42s.24.23.34.42c-.05.14.09.19.05.33-.19.1,0,.33-.14.43s-.24-.24-.38-.28C22.31,44.75,22.21,44.57,22.26,44.42Z"/><path class="cls-94" d="M72.3,87.43c0,.14-.09.29.2.38a.32.32,0,0,1,.19.37,1,1,0,0,0-.62,0l-.14,0c-.05-.33.14-.43.23-.71C72.06,87.2,72.21,87.24,72.3,87.43Z"/><path class="cls-159" d="M71.57,21.48l-.29-.1c.33-.52.51-1.09.88-1.76l.15.05A8.42,8.42,0,0,1,71.57,21.48Z"/><path class="cls-160" d="M48.07,11.55c-.18.1-.09.28-.13.43s.05.33-.24.24-.09-.19-.05-.34.33-.52,0-.8c-.1-.19.19-.1.23-.24s.14.05.24.24A.76.76,0,0,0,48.07,11.55Z"/><path class="cls-25" d="M7.53,36.53c-.38.2.19.38-.19.57-.28-.09-.47-.46-.71-.7C7.1,36.4,7.42,35.87,7.53,36.53Z"/><path class="cls-120" d="M29,59c.11.66-.12,1.38-.64,1.52C28.55,60,28.88,59.45,29,59Z"/><path class="cls-161" d="M24.26,75.73c0-.62.46-1,1-1.24A6.52,6.52,0,0,1,24.26,75.73Z"/><path class="cls-162" d="M61.69,46.28c0,.14.1.19.24.23a2.25,2.25,0,0,1-.75.39c-.28-.09-.19-.38,0-.47S61.41,46.19,61.69,46.28Z"/><path class="cls-163" d="M65.69,29.49c.14-.43.18-1,.32-1.47l.09.19C66.11,28.68,66.25,29.2,65.69,29.49Z"/><path class="cls-164" d="M11.22,32.85c-.18.1,0,.14-.09.29a9.65,9.65,0,0,1-.77-1.51A2.28,2.28,0,0,1,11.22,32.85Z"/><path class="cls-165" d="M69.21,21.5l-.29-.09a5.35,5.35,0,0,1,.7-1.19A1.42,1.42,0,0,1,69.21,21.5Z"/><path class="cls-118" d="M36.7,81.94c-.37.19-.51.15-.52-.33a1.33,1.33,0,0,1,.85-.2C37,81.56,36.51,81.56,36.7,81.94Z"/><path class="cls-166" d="M27.64,68.17,27.21,68c.05-.14-.05-.33,0-.47.09-.29.28-.38.47,0C27.44,67.79,27.54,68,27.64,68.17Z"/><path class="cls-51" d="M53.06,52.62c-.28.38-.8.53-1.08.91l-.28-.09A3.81,3.81,0,0,1,53.06,52.62Z"/><path class="cls-167" d="M59.76,46.92c.14-.43.57-.29.9-.34.14,0,0,.14-.1.28A1.11,1.11,0,0,1,59.76,46.92Z"/><path class="cls-168" d="M77.71,89.65l.05-.15a2.27,2.27,0,0,1,1.19.7C78.52,90.06,78.14,89.78,77.71,89.65Z"/><path class="cls-51" d="M51.7,53.44c-.19.57-.61.43-1.13.58A2.44,2.44,0,0,1,51.7,53.44Z"/><path class="cls-3" d="M29.12,26.51c.1.19.15.52,0,.62s-.24-.24-.42-.14C28.84,26.89,28.89,26.75,29.12,26.51Z"/><path class="cls-169" d="M24.72,88.93a.83.83,0,0,1,.84-.68A3.11,3.11,0,0,1,24.72,88.93Z"/><path class="cls-170" d="M67.83,84.73c-.14,0-.28-.09-.33-.42.23-.24.42.14.52-.15a.33.33,0,0,1,.19.38A.32.32,0,0,1,67.83,84.73Z"/><path class="cls-93" d="M22.37,90.84c-.18.1-.18.1-.28-.09.33,0,.37-.66.94-.48A3.43,3.43,0,0,0,22.37,90.84Z"/><path class="cls-171" d="M76.29,98.94c-.1-.19-.05-.34-.19-.38,0-.14-.2-.38,0-.33.18-.1.28.09.38.28a.15.15,0,0,0,.09.19C76.38,98.65,76.34,98.79,76.29,98.94Z"/><path class="cls-172" d="M20.11,81.78c-.09.29-.08.76-.6.91A1.45,1.45,0,0,1,20.11,81.78Z"/><path class="cls-28" d="M41.16,4.76c.05.33.33.42.05.8-.05-.33.09-.75-.43-.61Z"/><path class="cls-134" d="M27.25,71.82c-.05-.33.32-.53.42-.81l.18-.1A2.77,2.77,0,0,1,27.25,71.82Z"/><path class="cls-173" d="M65.44,91.19c.14,0,.28.1.19.38s-.09.29-.38.19C65.3,91.62,65.35,91.48,65.44,91.19Z"/><path class="cls-28" d="M42.28,4.18c-.13.43-.61.43-.89.34C41.77,4.33,42.1,4.28,42.28,4.18Z"/><path class="cls-33" d="M48.05,13.58h0a1.18,1.18,0,0,1,.8-.05C48.52,13.58,48.33,13.68,48.05,13.58Z"/><path class="cls-174" d="M35.45,25.4a14.9,14.9,0,0,0-1.66,4.19c-.33.05-.29-.57-.67-.38.43.62-.32,1-.46,1.43l-.27.85A22.14,22.14,0,0,0,31,34.35a.15.15,0,0,1-.19.09c-.24-.23-.48-.46-.1-.66s.36-1.14.17-1.51c-.09-.19-.48-.47,0-.62.19-.1.33-.52.37-.67-.05-.33-.33-.42-.71-.22a5.36,5.36,0,0,0-.53-1.28c-.14,0-.1-.18.09-.28a.45.45,0,0,1,.57.18c.28-.38-.1-.66-.15-1,.47,0,.8-.53,1.18-.72,0,0,.14,0,0-.14-.33-.43.09-.76.23-1.19A1.76,1.76,0,0,0,32,25.06c0-.14.33,0,.23-.24-.52-.32,0-.33.14-.42s.56-.29.89-.34c.14,0,.33,0,.42-.34-.09-.19-.28-.09-.42-.14.47-.48,1.18-.25,1.6-.58.19-.1.71.23,1-.15.14,0,.43.13.19.37s-.09.29,0,.48C36.29,24.73,35.73,25,35.45,25.4Z"/><path class="cls-175" d="M35.45,25.4c.28-.38.41-.8.74-1.33.19-.09.28-.38.51-.62a.31.31,0,0,0-.14-.52c-.72-.7-1.62-1.31-2.34-2-.19-.37.14-.43.24-.24s.8-.05.95.47c.23-.24.61,0,.84-.2s.24-.24,0-.47-.33-.43,0-.62c.43.14.62.51,1.05.65,0-.47-.3-1,0-1.42.33-.05.43-.33.38-.66a12.41,12.41,0,0,1,.6-5.78c.05-.15.05-.15.09-.29s.14-.43.43-.33.19.37.14.51c0,.62-.27,1.33-.31,2a.39.39,0,0,0,.29.56.54.54,0,0,1,0,.48,1,1,0,0,0-.13.9,7.4,7.4,0,0,0,1,4.72l.1.19a.93.93,0,0,1-.33.52.71.71,0,0,0-.42.81c.15.52-.32.52-.65.57-.14,0-.29-.09-.33.05-.14.43,0,.95-.75.86-.14,0-.28.39-.61.44-.24-.24.09-.29,0-.48s.09-.28.23-.24a.75.75,0,0,0,.47-.47c-.52.14-.7.71-1.13,1.05S35.92,25.4,35.45,25.4Z"/><path class="cls-176" d="M25.27,24.33c-.14-.52.33-.53.47-.95a6.64,6.64,0,0,0,.37-.67,4.3,4.3,0,0,1,1.22-.39c.15.05.1.19.06.33s-.24.24-.14.43a.86.86,0,0,1,.51-.62c.38-.2.47-.48,0-.62-.14,0-.42-.14-.33-.42s.37-.19.52-.15.33-.05.47,0a1,1,0,0,1-.62,0,2.4,2.4,0,0,0-1-.18.88.88,0,0,1-1-.32c-.24-.24-.29-.57.27-.86A7.87,7.87,0,0,1,30.14,19c.33-.05.66-.1.66.37s0,1.09-.6,1.38c.1.19.57.18.38.28s.2.85-.46.95c-.33.05-.47.48-.84.67-.19.1-.05.62.34.9-.38.19-.67-.38-.95,0-.09.28.1.66-.28.85-.09-.19.33-1-.38-.28-.52-.32-.42.34-.61.43s-.61,0-.94,0-.19.57-.28.86C25.52,25,25.51,24.56,25.27,24.33Z"/><path class="cls-177" d="M30.71,19.16c-.48-.47-.9-.13-1.37-.13a7.56,7.56,0,0,0-2.69.55c-.19.1-.33.53-.76.39.05-.14-.05-.33-.09-.19a1.51,1.51,0,0,1-.9.34.63.63,0,0,1-.75-.09c0-.33.13-.42.37-.66.75-.39,1.6-.59,2.35-1A6.07,6.07,0,0,1,29,18c.71.22,1.32-.21,2.13-.26a5.45,5.45,0,0,1,2.6.68c.1.19.24.23.48.47s.33.42.1.66-.47.48-.8.05c-.24-.23-.62,0-.86-.27A2.36,2.36,0,0,1,30.71,19.16Z"/><path class="cls-178" d="M32.6,19.61c.19-.09.29.1.52-.14a.55.55,0,0,1,.47,0c.15.05-.13.43.24.24.19-.1.33-.05.42-.34s0-.33-.33-.42-.29-.09-.34-.42a3.72,3.72,0,0,1,2.09.83c.29.09.57.18.62.51-.42.34.05.33.15.52s.28.09.19.37c-.28-.09-.37.67-.75.39-.1-.19-.29-.09-.33.05-.47.48-.47,0-.52-.32-.28.38-.43.33-.67.1-.09-.19-.33-.42-.33.05-.47-.47-.76-1-1.52-1.12C32.51,19.9,32.56,19.76,32.6,19.61Z"/><path class="cls-179" d="M37.22,8.68c.2.38.06.81.2,1.33s.3,1,1.15.83c.19-.09.42.14.52-.14a.57.57,0,0,0-.25-.71c.33-.05.62,0,.71-.24-.24-.24-.66.1-.62-.52.33-.05.23-.71.7-.72s.43.14.34.43c.14,0,.28-.38.52-.15,0,.33-.19.57-.28.85A5.21,5.21,0,0,0,39.47,11a.93.93,0,0,1-.33.52c-.33.05-.57-.18-.85-.27s-.67-.85-1.38-.6c-.19.09-.28-.1-.38-.28-.38-.28-.67-.85-1.19-.7a2.54,2.54,0,0,1,.95.46c.1.19.24.24.15.52s-.33,0-.47,0l-.72-.23c-.28-.1-.38-.28-.75-.09-.42.34-.37.67-.51,1.09a.14.14,0,0,0,.09.19c.48,0,.34.42.53.8.25.71-.17,1.52.45,2,.14.05,0,.33-.14.43s-.33.52-.61.43-.14,0-.1-.19c-.14-.52-.57-.65-1-.65a3.38,3.38,0,0,1-1.38-.13c-.14,0-.18.1-.37.2-.24-.24-.34-.43-.24-.71.28-.38-.11-.66-.06-1.28.38.28.48.94.95.94l.28.09c0-.47.38-.67.42-.81,0-.61.24-.24.38-.19a7.93,7.93,0,0,0,.86.75A3.52,3.52,0,0,0,33,12a.89.89,0,0,1-.15-.52c-.23-.23-.43-.61-.05-.8.19-.1.09-.29,0-.33,0-.15.19-.1.33-.06s.28.1.33-.05a.31.31,0,0,0-.19-.37c-.15-.05-.33.05-.43-.14-.52-.33-.28-.09-.24-.23,0-.95.89-.82,1.31-1.15.1.18-.28.38,0,.61s.33-.05.48,0c.18-.1.14,0,.23.23s.1.19.29.09.09-.28,0-.33-.05-.33.09-.28c.19-.1.28.09.33-.05.28-.39.47-.48.85-.2.14,0,.48.47.76.08A.28.28,0,0,1,37.22,8.68Z"/><path class="cls-180" d="M31.46,4.15c.1.19.24.24.29.57-.05.14.19.37.43.14.28-.39.61,0,.56.18a2.49,2.49,0,0,0,1.34.74c.14,0,.28.09.23.24s0,.47.06.8c-.57.29-1,.15-1-.65-.19-.38-.75-.09-1-.47,0,0-.33.06-.23.24s.15.52.24.71c-.05-.33,0-.47.42-.33.15,0,.2.37.48.46s1,.18,1.33.75a.79.79,0,0,1,.15.52c-.24.23-.52.14-.71-.23s-.34-.43-.62,0c-.19.09-.37.19-.61,0,.09-.28.42.14.37-.19.05-.14-.28-.09-.23-.23a2.64,2.64,0,0,0-1-.47c-.29-.09-.33.06-.38.2-.14,0-.1-.19-.24-.24-.05.15.1.19.24.24s.28.09.43.14c.47,0,.47,0,.47.46s-.23.72-.18,1l-.71-.23c.05-.15.57-.29.28-.38s-.43-.62-.76-.56L31,7.61c-.09.29.24.24.34.42-.19.1-.47,0-.57.29a.62.62,0,0,1-.71-.7c-.1-.66-.35-1.37.65-1.52a.82.82,0,0,0-.67.1c-.37.2-.8.06-.8-.41l0-.15c-.61,0-.43-.61-.67-.84a.15.15,0,0,1-.09-.19c.09-.28.56-.29.7-.24.19-.1.43.13.53.32.14.52.24.71.85.75l1-.15c-.43-.14-.34-.42-.77-.56s-.14-.52.28-.86A.54.54,0,0,0,31.46,4.15Z"/><path class="cls-181" d="M31.08,3.87c0,.15-.24.24-.28.38-.09.29-.14.43.33.43.19-.1.1.19.24.23s-.32.52.24.24l0,.14a1.64,1.64,0,0,1-2,0l-.28-.09a.15.15,0,0,1-.1-.19c.05-.14.43.14.24-.24A.28.28,0,0,0,29,4.61a2.41,2.41,0,0,1-.66.1c.24.23.62.51.53.8s.09.18.28.09.33,0,.38.28c0,.14-.52.14-.14.42s.48,0,.62,0c.09-.29.33-.06.52-.15.23-.24.28.09.47,0,.1.19-.23.24-.23.24a2.22,2.22,0,0,0-.61.43c-.43.34.14.52.05.81s-.23.71.43.61c0,0,.1.19.24.23.67.85.67.85.3,1.51a8.25,8.25,0,0,1-1.3-1.83c-.19-.37-.28-.56-.71-.23,0,.15-.18.1-.33,0s.05-.14.09-.28a.85.85,0,0,0-.34-1.37.16.16,0,0,1-.1-.19c.14-.9-.58-1.6-.63-2.4.23.23.38.28.51-.15.15,0,.29.09.34-.05.18-.57.7-.25,1.17-.25l1.42,0,.1.19c-.19.1-.43-.14-.66.1S31,3.68,31.08,3.87Z"/><path class="cls-182" d="M26.09,6.2c.14,0,.1.19.24.23.1.19.38.28.47,0,.28-.39.52-.15.76.08a.82.82,0,0,1,.15.52c-.05.14-.14.43.33.42l.14,0,0,.14c-.33.05-.42.34-.23.71s-.42.34-.52.62c.76.09,1.28.42,1.15,1.32-.09.28-.09.28-.28.38-.09-.19.28-.38,0-.47l-.15,0,.1.19c-.19.1-.19.1-.28-.09a5.52,5.52,0,0,0-.58-1.13c-.24-.24-.34-.42-.67-.37a3.6,3.6,0,0,1-.25-1.66c-.1-.19,0-.47-.15-.52S25.57,6.34,26.09,6.2Z"/><path class="cls-183" d="M26.57,11.54A3.92,3.92,0,0,0,27,12.62c-.42-.13-.57-.65-.67-.84C26.38,11.64,26.43,11.49,26.57,11.54Z"/><path class="cls-184" d="M34.57,8.14l-.29-.56.19-.1.28.09c.24.24.34.42.58.66s.24.23,0,.47-.28-.09-.42-.14S34.86,8.23,34.57,8.14Z"/><path class="cls-185" d="M31.28,14.47c0-.14,0-1,.51-.15a.93.93,0,0,0,.9.14c.71-.25,1.05.17,1.43.45.28.1-.1.29,0,.48.33-.05.18-.57.66-.58a.15.15,0,0,0-.1-.19c-.24-.23-.15-.52-.43-.61s-.19-.37,0-.33c.42-.33,0-.47.09-.76,0-.47,0-.94-.67-.84.23-.24-.1-.66.18-1,.51-.62,1-.63,1.6-.11l.43.13c.19-.09.19.38.28.09.24-.23,0-.33-.14-.51a1.42,1.42,0,0,0-.67-.38c-.33.05-.38-.28-.1-.66a.83.83,0,0,0,.62.52c.28.09.43.61.86.74a.56.56,0,0,1,.24.24c.7-.72.76.56,1.42.46.14,0,.57.18.66.37s0,.33-.09.28c-.8.06-1.38-.6-2.13-.68s-1-.18-1.42.48c-.09.29-.56.29-.37.67.09-.28.14-.43.43-.34s.38.28.33.43c-.18.57.25,1.18.21,1.79l-.05.15c.9.6.44,1.55.83,2.31,0,.33-.14.42-.23.71a.33.33,0,0,1-.38.19c-.14,0-.1-.19-.19-.38,0-.47-.43-.61-.48-.94a.71.71,0,0,0-.81-.41c-.33,0-.38-.28-.67-.38-.57-.65-.71-.7-1.46-.31a3.4,3.4,0,0,1-2,.3c-.33,0-.52.15-.85.2-.14,0-.28-.09-.23-.23.51-.15.28-.38.18-.57s-.1-.19-.05-.33.28.09.28.09c.48,0,.71.23,1.05.65s.66-.1,1-.15c.14,0,.33-.05.23-.24C31.7,14.61,31.42,14.52,31.28,14.47Z"/><path class="cls-4" d="M26.09,6.2c-.38.19.05.33,0,.47a.68.68,0,0,1-.72-.23,1.38,1.38,0,0,1,.09-.76C25.71,5.92,25.85,6,26.09,6.2Z"/><path class="cls-26" d="M29.61,12.83a1.14,1.14,0,0,1,.52.33c.14,0,.1.19-.05.14s-.42-.14-.52-.33Z"/><path class="cls-186" d="M65.23,30.91c0-.14.09-.28.09-.28.43.61.11,1.13-.22,1.66A4.21,4.21,0,0,0,65.23,30.91Z"/><path class="cls-187" d="M24.47,19.51c0,.14-.37.19-.32.52,0,.15-.24.24-.28.39a8,8,0,0,0-1.89,0,5.13,5.13,0,0,0-2.65.4c-.37.2-.85.2-1.22.39a.15.15,0,0,0-.19.1,11.63,11.63,0,0,1-1.65.73l-.19.09L15.51,22a11.31,11.31,0,0,0,1.65-1.2c0-.14.19-.1.23-.24-.1-.66.42-.33.75-.38s.86.27,1.28-.07c-.38-.28-.1-.66-.11-1.13.33-.05.67.37.71-.24.14,0,.33-.53.62,0l.14,0c.14-.42.52-.14.7-.24s.62,0,.61-.43a.34.34,0,0,1,.48,0,1.23,1.23,0,0,0,1,.18c.61,0,.81.42.76,1Z"/><path class="cls-41" d="M24.47,19.51c-.1-.19-.28-.09-.19-.38s.09-.75-.53-.79l-.1-.19c.05-.15.19-.1.24-.24.14-.43.51-.62.51-1.1-.1-.18.09-.28.28-.38s.24.24.19.38c.38-.19.51-.62.75-.86s.14-.43.32-.52.28-.39.29.09c.29.56.34,1.37.82,1.83a.51.51,0,0,1-.13.9c-.66.11-1.23.4-1.8.21a.46.46,0,0,0-.24-.23c.62.51,1.38.13,1.95.31A5.06,5.06,0,0,1,24.47,19.51Z"/><path class="cls-188" d="M25.71,16.14a.9.9,0,0,1-.6.9c-.19.1-.23.24-.52.15s.19-.1.09-.28c0,0,.05-.15-.09-.19s-.33.05-.24.24c.34.42-.23.71-.18,1,0,.14-.19.1-.33.05s.09-.28,0-.47.09-.29-.05-.33-.19.09-.24.24-.23.23-.33.05-.57-.19-.71-.71c0-.14-.38.2-.48,0a2.41,2.41,0,0,1-.1-.66c.29.09.66-.58.72.23,0,.14.51-.15.33.42.23-.24.09-.76.61-.43.28.09.23-.24.33-.53.23.24-.05.62.19.85.19-.09.14-.42.38-.19s.47,0,.56-.29S25.43,16.05,25.71,16.14Z"/><path class="cls-189" d="M18.65,18.58c-.28.38.1.66.34.89-.24.24-.62,0-.75.39,0,0-.19.1-.15-.05-.47-.46-.8-.41-1,.3-.1.28-.47.48-.28.85.1.19-.19.1-.33.05s-.24-.23-.48-.46c.28-.38.18-1.05,1-1.1,0,0,0-.48.42-.34s.61,0,.9.13a.13.13,0,0,0,.18-.09l-.14,0C18.27,18.77,18.08,18.4,18.65,18.58Z"/><path class="cls-72" d="M20.08,15.58a1,1,0,0,1,1.28-.06c.19.38.19.38-.18.57,0,0-.05.14-.09.29-.15-.05-.2-.38-.39-.28s-.13.42-.18.57C20,16.34,20.14,15.91,20.08,15.58Z"/><path class="cls-190" d="M18.65,18.58c-.47,0-.42.33-.47.48-.38-.28.18-.57,0-.95.19-.1.34.42.57.18C18.74,18.29,18.69,18.44,18.65,18.58Z"/><path class="cls-72" d="M19.15,16.54c.19-.1.23-.24.37-.19a.52.52,0,0,1,0,.47A.57.57,0,0,1,19.15,16.54Z"/><path class="cls-191" d="M43.2,10.61c-.05.14-.05.14-.09.28-.24.24-.48,0-.62,0s-.24-.23-.52-.32c.47,0,.47.46.67.84.14.05,0,.33.33.42l.1.19c.15.52-.23.71-.75.86a.66.66,0,0,1,.71.23c-.05-.33-.14-.52.23-.71.19-.1.57-.29.66-.1A1.14,1.14,0,0,1,44,13.39c.33-.05.42-.34.51-.62s.28-.38.61-.43c.14,0,.29.09.24.23-.18.57.2.85.39,1.23a3,3,0,0,1-1.17.72c-.38.19-.52.62-1,.63s-.85.19-1.13.1-.62,0-.34-.42c.05-.14,0-.33,0-.47l-.43-.61c-.24-.24-.29-.57-.53-.8-.33.05-.38-.28-.25-.71-.7.24-.84.2-.8-.42,0-.33-.24-.23-.2-.37-.23-.24.14-.43.19-.57.09-.29.47-.48.42-.81-.39-.28-.34-.43-.11-.66l.15,0c.28.09.42.14.52.33.19.37.38.28.66-.1,0-.15.09-.29.38-.2a.33.33,0,0,1,.19.38c-.09.28.38.28.66.37S43.1,10.42,43.2,10.61Z"/><path class="cls-192" d="M45.73,13.94c-.56-.18-.61-.51-.62-1,0-.14.23-.24,0-.33s-.28-.09-.38.2a.92.92,0,0,1-.6.9c-.52-.33.18-1-.2-1.32-.15-.05-.19.57-.52.15-.1-.19-.19.09-.19.09s0,.47,0,.62-.05.14-.19.09-.14,0-.1-.18c.14-.43-.05-.33-.38-.28-.09.28-.14-.05-.28-.1.47,0,1-.15,1-.76.24-.24.24-.24.28-.86s.37-.66.61-.43.57.18.94,0c0-.33-.28-.09-.28-.09s-.38.19-.48,0a.89.89,0,0,1,0-.61c.37-.2.23-.72.84-1.15a1.05,1.05,0,0,0,.48,1.42c.14,0,.05.33.05.33a.81.81,0,0,0,.1.66c.61-.91.43.14.76.09-.19.09-.33,0-.52.14.24.24.53.33.76.56-.33.05-.85-.27-.42.34.14,0,0,.33.15.52.28.09-.09.28,0,.47A4,4,0,0,1,45.73,13.94Z"/><path class="cls-192" d="M43.2,10.61h0c-.38.19-.38-.28-.67-.37a.81.81,0,0,1-.43-.62c0-.14,0-.14-.1-.18s0,.14-.09.28c-.14.43-.47.48-.7.72,0-.62-.43-.61-.67-.85a3.19,3.19,0,0,1,1.59-2,6.37,6.37,0,0,0,1.43.93c-.1.29-.43-.14-.52.15.14,0,.42.14.38.28.24.23,0,.33,0,.47C43.14,9.8,43.33,10.18,43.2,10.61Z"/><path class="cls-193" d="M42.17,7.45a5.27,5.27,0,0,0-1.58,2c-.19.1-.43.34-.33.53s-.14.42-.18.56a.92.92,0,0,1-.33.53c0,.14-.23.24-.23.24s-.24.24-.33,0-.1-.19,0-.33A16.52,16.52,0,0,1,40.3,8.89a1.84,1.84,0,0,1,.84-1.15,14,14,0,0,1,1.31-1.15c.19-.09.19-.09.33,0s.19-.09.28.09A7,7,0,0,0,42.17,7.45Z"/><path class="cls-192" d="M43,11.79c-.66.1-.47-.47-.71-.7s.18-.57-.38-.28c-.33,0-.2-.38-.15-.52.38.28.71.7,1.19.7C43.16,11.22,43.06,11.51,43,11.79Z"/><path class="cls-193" d="M43.3,6.39c.14-.42.61-.43,1-.62-.18.1-.23.24-.42.33C43.63,6.34,43.44,6.44,43.3,6.39Z"/><path class="cls-194" d="M43.42,9.42c0-.14-.05-.33,0-.47a.82.82,0,0,0,.52-.15C43.84,9.09,43.75,9.37,43.42,9.42Z"/><path class="cls-195" d="M30.8,28.62a.78.78,0,0,1,.1,1.14c-.28-.09-.14-.52-.66-.37a1.67,1.67,0,0,1,.34,1.37c0,.47-.33,0-.56.29-.05.14.43.13.33.42s-.28-.09-.28-.09a4.76,4.76,0,0,0-1.13.58c-.23.24.29.09.43.13-.19.1-.24.24-.47.48,0,.14-.23.24-.28.38-.23.24-.47,0-.62,0,.28-.38.52-.62.37-1.14a.94.94,0,0,1,.28-.85c.23-.24.46-.48.08-.76-.09-.19.24-.24,0-.47.19-.1.14,0,.28.09s.43.14.52-.15.33-.05.52-.15c-.33-.42,0-.94-.16-1.46.24.23.29.56.67.37.1.19,0,.14-.09.28A.18.18,0,0,1,30.8,28.62Z"/><path class="cls-196" d="M30.8,28.62a.55.55,0,0,1-.47,0c0-.14.18-.1.23-.24,0-.47.33-.52.61-.43,0-.14-.28-.09-.19-.38s.19-.1.33,0,.47,0,.28-.38a2.17,2.17,0,0,1,.13-1.37l0-.15c.14.05.1.19.2.38.18-.1.09-.29.13-.43.1.19.33,0,.48,0-.1.28-.47.48-.09.76-.24.23-.19.56-.37.66s-.47.48-.14.9c-.18.1.15.52-.23.24-.14,0-.19.1-.23.24A.53.53,0,0,1,30.8,28.62Z"/><path class="cls-195" d="M28.08,31.21c.28-.38-.53-.8.28-.86C28.27,30.64,28.65,30.92,28.08,31.21Z"/><path class="cls-197" d="M23.77,20.23c.05-.14.19-.1.38-.2.66.38,1-.29,1.51-.3.18-.09.37-.19.51-.14,0,.14-.23.24-.28.38-.13.43-.13.43.29.56.15,0,.29.1.1.19-.23.24-.05.14.1.19a2.16,2.16,0,0,1,1.65.22c.29.09.38-.19.47,0s.29.1.24.24,0,.14-.18.1c-.34.05-.62-.05-.95,0,.05.33.24.23.38.28s.52.32.48.46-.37.67-.52.62c-.61,0-.56.29-.51.62-.71-.22,0-.47-.05-.8-.43.34-.95,0-1.23.39-.1-.19-.05-.33-.28-.09s-.53-.33-.86-.27c-.24-.24-.24-.71-.71-.71-.15,0,0-.33-.15-.52.05-.14.05-.14.09-.28s0-.47.28-.38C24.2,20.37,24,20.46,23.77,20.23Z"/><path class="cls-198" d="M20.1,22.35c-.19.1-.23.24-.09.28l.57.19c-.23.24-.85.19-.37.66a.5.5,0,0,1-.33.05c-.33,0-.71-.23-.8.53a6.94,6.94,0,0,0-.53-1.27l-.29-.09c-.19.1,0,.14,0,.33s-.42.34,0,.47a.15.15,0,0,1-.19.1c-.14-.05-.28-.09-.24-.23-.1-.67-.53-.8-.91-1.08.05-.15.19-.1.38-.2l.71.23c.14.05.19-.09.09-.28.57-.29,1-.77,1.7-.4C20.1,21.88,20.57,21.87,20.1,22.35Z"/><path class="cls-199" d="M18.15,21.09a16.83,16.83,0,0,1,3.11-.88.87.87,0,0,1,.62,0c.1.19-.09.28-.14.43s-.47,0-.52.14l-1,.15c-.19.1-.47,0-.42.34,0,.14,0,.14-.19.1s-.19.09-.33.05C19.05,21.22,18.25,21.75,18.15,21.09Z"/><path class="cls-200" d="M18.15,21.09c.15.05.2.38.38.28s.52-.15.71.23a.29.29,0,0,0,.43.14c.19-.1,0-.14-.05-.33s-.1-.19.09-.29c.57.19.94-.48,1.47-.16.14.05.09.19.24.24-.34.05-.62,0-.61.43a.33.33,0,0,1-.38.19.55.55,0,0,0-.47,0c-.67-.37-1.18.25-1.66.25L18,22c.09-.28-.15-.52.13-.9Z"/><path class="cls-201" d="M21.7,20.82c-.1-.19.23-.24.13-.43a8.56,8.56,0,0,1,1.89,0c.19-.1.48,0,.76.09-.33.05-.38.19-.47.48-.14-.05-.28-.1-.33,0a.15.15,0,0,0-.19.09c-.28-.09.19-.57-.19-.37-.19.09-.23.24-.56.29C22.31,20.86,22,20.91,21.7,20.82Z"/><path class="cls-202" d="M18,21.19c.39.28.29.56,0,.94a.61.61,0,0,1-.66.11c-.14,0-.18.09-.33.05s-.19-.38-.42-.14a.15.15,0,0,0-.1-.19c-.05-.33.38-.19.42-.33A3.78,3.78,0,0,1,18,21.19Z"/><path class="cls-201" d="M24.11,21.12c.14.05.14.05.24.24a.15.15,0,0,0,.09.19c.48.46.62.51.67.84-.28-.09-.47,0-.75-.09l0-.14c.09-.28-.14,0-.28-.09L24,22c-.19.1-.24-.23-.43-.13-.14-.05-.14-.05-.1-.19C23.74,21.79,23.73,21.32,24.11,21.12Z"/><path class="cls-199" d="M19.77,21.93c0-.48.37-.2.52-.15s.42.14.52-.15c.14.05.18-.1.28.09-.09.29-.47,0-.42.34.28.09.47,0,.75.09s.15,0,.1.18a.14.14,0,0,1-.19.1c-.38-.28-.8.06-1.13.11a.16.16,0,0,1-.1-.19C20.19,22.06,20.24,21.92,19.77,21.93Z"/><path class="cls-203" d="M23.55,21.89c.19-.1.14,0,.28.09s.33-.05.38.28a2.07,2.07,0,0,1-1.41,0l-.1-.19c-.05-.33.23-.23.38-.19S23.31,22.13,23.55,21.89Z"/><path class="cls-34" d="M24.22,23.2c-.42-.13-.8.06-1.37-.12C23.37,22.93,23.89,22.78,24.22,23.2Z"/><path class="cls-34" d="M23.55,21.89c-.09.28-.23.24-.38.19s-.28-.09-.33.05c-.19-.85.42-.34.61-.43C23.41,21.84,23.41,21.84,23.55,21.89Z"/><path class="cls-198" d="M20.08,24.38c.09-.28-.15-.52-.44-.61.24-.24.48,0,.57.19C20.36,24,20.26,24.29,20.08,24.38Z"/><path class="cls-204" d="M73.16,93.05l.1.19,1.44,2.83a.55.55,0,0,1,0,.47c-.14.43-.28.38-.76.39-.33,0-.42-.14-.47-.47,0-.15-.34-.43-.43-.61A.85.85,0,0,0,73,95a1.15,1.15,0,0,1,.06.81.15.15,0,0,1-.19.09,3,3,0,0,1-.72-1.17c-.33.52-.47.48-.85.2.09-.29-.05-.33-.15-.52s-.19-.38,0-.48c.9.14,0-.47.32-.52s.1.19.38.28.43.14.33,0c-.1-.66.43-.34.8-.53C73.06,92.87,73.21,92.91,73.16,93.05Z"/><path class="cls-205" d="M68.55,85.91c0,1,.67.84,1.29.88.43.14.94,0,1,.66a2.54,2.54,0,0,1-1,.15L69,87.32c-.43-.13-1,.16-1.23-.55-.2-.38.46-.48.32-1C68.18,86.1,68.32,86.15,68.55,85.91Z"/><path class="cls-206" d="M68.72,88.79c.43-.33.62,0,.71.23a1.52,1.52,0,0,1,.44,1.09c0,.47.43.61.44,1.08-.19.1-.33,0-.62,0,0,.14-.09.28-.23.24-.47,0-.38-.28-.29-.57-.1-.18.28.1.09-.28s-.29-1-.63-1.46C68.59,89.22,68.54,88.89,68.72,88.79Z"/><path class="cls-207" d="M68.72,88.79c.2.38.06.81.67.85l.1.19c-.33.52.2.85.25,1.18-.14-.05-.24-.24-.38-.28a4,4,0,0,1-1.11-1.93,2.49,2.49,0,0,0-.86-1.22c-.19-.38.14-.43.32-.53a1.19,1.19,0,0,1,.63,1C68.2,88.47,68.67,88.46,68.72,88.79Z"/><path class="cls-208" d="M69.71,87.7c.28-.39.66-.11,1-.16l1,.32.14,0c0,.14-.09.28-.09.28-.09.29-.13.43-.47.48s-.38-.28-.33-.42a.31.31,0,0,0-.34-.42C70.37,88.07,69.94,87.93,69.71,87.7Z"/><path class="cls-209" d="M69.46,91.39c0-.14,0-.14.23-.24.19.38,0,.95.67.84l.14.05c-.27.85.44,1.08.73,1.65-.24.24-.33,0-.47,0s-.15,0-.24-.23a12.13,12.13,0,0,1-.82-1.84C69.41,91.53,69.41,91.53,69.46,91.39Z"/><path class="cls-210" d="M70,88.59a6.13,6.13,0,0,1,2.07,2.87A28.82,28.82,0,0,0,70,88.59Z"/><path class="cls-206" d="M68.34,88c-.19-.38-.43-.61-.63-1l.05-.14c.33.42.85.28,1.23.56C68.62,87.66,68.76,88.18,68.34,88Z"/><path class="cls-210" d="M73.16,93.05,72.88,93c-.24-.23-.15-.52-.39-.75.19-.1.33,0,.38.28,0,.14.1.19.24.23A.5.5,0,0,1,73.16,93.05Z"/><path class="cls-210" d="M73.44,92.2c.14,0,.37-.19.47,0s-.14.43-.33.53-.24-.24-.33-.42l.28.09C73.72,92.29,73.58,92.24,73.44,92.2Z"/><path class="cls-211" d="M39.19,26a.63.63,0,0,1,.24.71c-.24-.24-.43-.61-.67-.85-.23.24.29.57,0,.62s0-.33-.34-.42c-.28.38-.13.42.1.66s.1.19-.09.28-.37.2-.46.48-.28.38-.52.15c-.28.38-.81.05-1.23.39a.21.21,0,0,1,.09-.29.55.55,0,0,0,0-.47c-.1-.19-.09.29-.33.05A6.42,6.42,0,0,1,37.62,25l.71.23C38.57,25.47,39,25.75,39.19,26Z"/><path class="cls-212" d="M38.61,30.2c-.18.57-.6.9-.64,1.52.05.33-.29-.09-.33.05s0,.14-.24.24a.45.45,0,1,1-.85-.28c0-.33.47-.47.13-.9l0-.14c.52-.15.42-.33.13-.9.19-.1.57.18.8-.06.05-.14.15.05.1.19C38.28,30.25,38.28,30.25,38.61,30.2Z"/><path class="cls-213" d="M36.88,31.68c.29.57.29.57.9.14-.13.9-.94,1-1.31,1.62-.09.28-.47.48-.7.72-.71-.23-.67-.38-.15-1,.05.33-.28.38-.23.72.37-.67,1-1.1.92-1.91C36.64,31.92,36.69,31.78,36.88,31.68Z"/><path class="cls-214" d="M37.22,28.18c.1.19.2.37.29.09s.23-.24.33-.05.19.38,0,.47a.32.32,0,0,1-.37.2c-.15-.05,0-.34-.24-.24s-.24.24.05.33-.24.24-.19.1c-.19-.38-.43-.14-.76-.09-.09-.19-.38-.28-.14-.52,0-.14.23-.24.51-.14A2.66,2.66,0,0,0,37.22,28.18Z"/><path class="cls-215" d="M34.19,32.23a5.53,5.53,0,0,1,.54-2.65l.19-.1c-.05.14,0,.33,0,.47a11.68,11.68,0,0,0-.54,2.19C34.33,32.28,34.33,32.28,34.19,32.23Z"/><path class="cls-160" d="M37.41,27.61c.33-.05.52-.15.61-.43s.09-.29.52-.15c-.19.57-.71.72-1.13,1C37.13,28,37.36,27.75,37.41,27.61Z"/><path class="cls-215" d="M34.92,29.48a1.42,1.42,0,0,1,.41-1.28A1.42,1.42,0,0,1,34.92,29.48Z"/><path class="cls-214" d="M36.19,29c.14,0,.1.18.24.23-.33.05-.62,0-.8.06C35.86,29,36,29,36.19,29Z"/><path class="cls-216" d="M42.63,25.05a.75.75,0,0,0-.47.47l-.14,0c-.37.66-.81.05-1.28.06l-.28-.09c-.47,0-.47,0-.34-.43-.28-.09-.28.39-.52.15-.14,0-.47,0-.38-.28s.38-.19,0-.33a.32.32,0,0,1-.19-.38c.05-.14.33-.05.47,0a.77.77,0,0,1,.48.47c.1.19.28.09.33,0l.05-.15a1.82,1.82,0,0,0,.45-1.89l.05-.15a.15.15,0,0,1-.19.1l-.14,0c-.81.05-.81.05-.58-.66l.05-.14c.42-.34.27-.86.55-1.24s.43-.34.85-.2.25.71.3,1-.24.24-.57.29h0c.29.09.57-.29.8-.06.15.05.1.19.06.33.05.34,0,.62.19.85,0,.15.1.19-.09.29-.32.52.24.71.48.94a.63.63,0,0,1,.25.71l-.15-.05c-.09-.19-.19-.37-.38-.28s-.09.29-.13.43C42.58,24.71,42.53,24.86,42.63,25.05Z"/><path class="cls-217" d="M40.14,21.57c.38.28-.14.43-.19.57.33-.05.76.09.9-.34,0-.14.14,0,.14,0a2.32,2.32,0,0,1-.45,2.38c-.14,0-.1-.19-.24-.24.1.19.1.19.24.24-.28.38-.33.52-.61,0a.94.94,0,0,0-.81-.41c0,.47.38.28.62.51l-.57.29c-.52-.32-.67-.84-1-1.41.1-.28.66-.1.52-.62-.1-.19.09-.28-.29-.56.47,0,.66-.58,1.17-.73C39.81,21.62,40,21.52,40.14,21.57Z"/><path class="cls-50" d="M37.09,24.2c-.05.15-.19.1-.23.24s-.24.24-.43.34c.33-.52.66-1.05,1.17-1.2l0,.15A1.12,1.12,0,0,1,37.09,24.2Z"/><path class="cls-218" d="M34.4,29.63c-.23.24-.23.71-.32,1a1.74,1.74,0,0,1,.17-1.51C34.35,29.3,34.26,29.58,34.4,29.63Z"/><path class="cls-219" d="M38.24,25.52c-.29-.09-.71.24-.71-.23C37.9,24.62,38,25.28,38.24,25.52Z"/><path class="cls-220" d="M48.23,22.76c.24.24.24.24-.09.29a.55.55,0,0,0-.47,0c-.15,0-.1-.19-.05-.33-.19.1-.28.38-.43.34a.28.28,0,0,1-.42-.14c-.1-.19.13-.43-.29-.57a1.45,1.45,0,0,0-1.09,0l-.19.1c-.19.09-.18.57-.61.43-.14-.05,0-.48-.24-.71,0,0,0-.14-.24-.23.1.18.34.42.15.52-.09.28.05.8-.47.47l-.14,0c-.66.1-.66.1-.76-.56a.15.15,0,0,1-.1-.19h0c-.47,0-.29-.09-.19-.38a3.09,3.09,0,0,1,.84-.67c.19-.09.47,0,.56-.29a.57.57,0,0,1,.48,0c.42.13.7-.25,1.13-.11.14.05.09-.28.14-.43s.09-.28.42-.33c.14,0,.1.19.24.23.1.19.05.33.24.24s.33-.06.28-.39c0-.14.09-.28.09-.28.33-.05.23-.24.18-.57s0-.47.24-.24.47,0,.66-.1.37-.19.47,0,.1.19,0,.33.19.38,0,.62c-.52.15.1.19.05.33a.52.52,0,0,1,0,.47c.06.33.39.28.62.52.19-.1.1-.29.24-.24.33,0,.61-.43.8-.06s-.32.53-.42.81c.24.24.71.23.39.76-.19.09.19.37-.28.38.05-.15,0-.33,0-.48s-.09-.18-.23-.23-.05.14-.1.28-.18.57-.46.48-.53-.32-.53-.8c-.24.24,0,.48,0,.62s-.15-.05-.19.1c0,0-.1-.19-.14-.05C48.18,22.43,48.13,22.57,48.23,22.76Z"/><path class="cls-221" d="M48.77,19.63c.09-.28-.15-.52,0-.94-.19.09-.62,0-.47.48a.15.15,0,0,1-.19.09c-.09-.19-.19-.37-.38-.28a.16.16,0,0,0,.1.19l.14,0c-.05.14,0,.33,0,.47-.75-.09-.13.9-.74.86s-.53-.33-.53-.8a1.27,1.27,0,0,0-.28.38,1.38,1.38,0,0,0-.09.76c-.57-.18-.89.34-1.46.16,0-.33.18-.57.42-.81,0-.14.28-.38.18-.57l-.14-.05a.14.14,0,0,1-.1-.19c.52.33-.06-1.27.75-.38.33-.05.52-.15.57-.29s.33-.05.09-.29.14-.42.42-.33l.29.09c.42.14.42-.34.61-.43a.13.13,0,0,1,.18-.1c.34.42.76.09,1.14-.11a.22.22,0,0,1-.09.29c-.24.24-.28.38-.09.76s-.28.38-.23.71.52-.15.43.14-.19.57-.38.66C48.82,20,48.72,19.78,48.77,19.63Z"/><path class="cls-222" d="M49.53,20.67c.1.18-.13.42-.23.71-.19-.38-.38-.75-.9-.61l-.14,0a.31.31,0,0,1,.37-.2c.19-.09.34-.05.62,0C49.44,20.48,49.44,20.48,49.53,20.67Z"/><path class="cls-221" d="M49.25,20.57a1.21,1.21,0,0,0-.62,0,.52.52,0,0,0,0-.47c0-.14.19-.1.28.09C49.24,20.1,49.39,20.15,49.25,20.57Z"/><path class="cls-223" d="M48,17.65s-.19.1,0,.15c0,.47-.28.38-.52.14.19-.09.37-.19.42-.33S47.9,17.47,48,17.65Z"/><path class="cls-224" d="M31,34.49a8.32,8.32,0,0,1,1.44-3c.23-.24.42-.33.8,0,.29.56-.13.9-.27,1.33-.09.28-.28.38.24.23l.14,0c.1.18,0,.14-.09.28-.24.24-.09.76-.56.76-.14,0-.47,0-.34-.42s-.14,0-.24-.23-.18.09-.18.09c.14.52-.38.67-.37,1.14-.09.29-.23.72-.37,1.14a.14.14,0,0,1-.19.1A1.67,1.67,0,0,1,31,34.49Z"/><path class="cls-225" d="M32.53,36.41c-.62,0-.9.34-1.32.68l-.7.72c-.28-.09,0-.48-.15-.52a1,1,0,0,1,0-.62s.05-.14.15,0c.19.85.71.23.9.13a1.55,1.55,0,0,0,.89-.81c0-.15.37-.2.51-.15S32.34,36,32.53,36.41Z"/><path class="cls-195" d="M30.22,31.9c0,.14.05.33,0,.47-.14,0-.19.1-.33.05s-.28-.09-.1-.19c0,0,.19-.1.05-.14s-.19.1-.28-.09c.14,0,.23-.24.37-.2C30.17,31.56,30.07,31.85,30.22,31.9Z"/><path class="cls-151" d="M30.59,36.58h0a.68.68,0,0,1,.09-.76l.19-.1C30.78,36,30.68,36.29,30.59,36.58Z"/><path class="cls-226" d="M17.14,43.72c-.23.24-.13.43.15.52s.52.33-.09.28c-.43-.13-.81-.41-1.24-.55l-.14,0a8.84,8.84,0,0,1-2.2-2.43c-.48-.94-1.19-1.65-1.82-2.63,0-.15-.05-.33.09-.29.49.94,1.44,1.41,2,2.2,0,.62.25.71.72.71C15.52,42.41,16.43,43,17.14,43.72Z"/><path class="cls-227" d="M13.77,41.53A27.43,27.43,0,0,1,16,44a9.64,9.64,0,0,1-2.28-1.68C13.73,42.15,13.2,41.82,13.77,41.53Z"/><path class="cls-228" d="M12,38.62l-.1.28c-.67-.84-1.19-1.64-1.86-2.49-.1-.18.09-.28.23-.24a22,22,0,0,1,1.82,2.16A.21.21,0,0,0,12,38.62Z"/><path class="cls-229" d="M10.27,36.32c-.15,0-.19.09-.24.24-.14-.05-.24-.24-.38-.28-.05-.33-.43-.61-.62-1,.33,0,.38.28.52.32C9.79,35.85,10.07,35.94,10.27,36.32Z"/><path class="cls-230" d="M69.46,91.39a15.11,15.11,0,0,0,.87,2.17,2.26,2.26,0,0,1,.44,1.08l0,.14a.28.28,0,0,1-.43-.13c-.38-.76-1.05-1.13-1.43-1.88-.67-.37-.58-1.13-1.06-1.6L67.7,91c.14-.43-.28-.56-.38-.75a.82.82,0,0,1-.29-1c.13-.43.13-.9.27-1.33,0-.14.09-.28.33,0a10.24,10.24,0,0,1,1.15,2.26,2.46,2.46,0,0,1,.39.75C69.45,90.92,69.13,91.44,69.46,91.39Z"/><path class="cls-205" d="M66.94,85.55a3.43,3.43,0,0,1,1.1.51l.14,0c-.19.1-.24.24-.47.48s-.14.43-.47.48c.09-.29-.48-.47-.2-.85,0-.14,0-.14-.09-.19C66.24,85.79,66.61,85.6,66.94,85.55Z"/><path class="cls-231" d="M67.07,89.05c.14,0,.24.23.05.33,0,0,0,.14-.09.28.62,0,.39.76.81.89s.2.38-.14.43c-.18.1-.28-.09-.23-.23,0-.48-.34-.43-.67-.37C66.94,90,66.79,89.43,67.07,89.05Z"/><path class="cls-232" d="M33.05,31.39a1.63,1.63,0,0,0-.81.06,2,2,0,0,1,.42-.81l.29.09c.09.19-.19.1-.19.1a.15.15,0,0,0,.09.19c.15,0,.24-.24.38-.2A.45.45,0,0,1,33.05,31.39Z"/><path class="cls-225" d="M33.65,34.89a.66.66,0,0,1-.37.66C33.08,35.18,33.56,35.17,33.65,34.89Z"/><path class="cls-233" d="M70.61,93.65c.19-.1.29.09.43.14s-.23.23,0,.33.52.32.15.52a2.37,2.37,0,0,0,.76,1,.81.81,0,0,1,.58.65c0,.34.1.67.57.66l.29.09c.1.66.76,1,.91,1.55,0,.15-.14.43-.42.34s-.19.1-.24.24c-.14,0-.28-.09-.24-.23a1.12,1.12,0,0,0-1-.8l-.14,0a9.2,9.2,0,0,1-.72-1.65,3.65,3.65,0,0,1-.88-2.17C70.86,94.36,70.48,94.08,70.61,93.65Z"/><path class="cls-234" d="M72.5,98.5a1.78,1.78,0,0,0,.49.94,4.1,4.1,0,0,1,.43,1.09c-.28.38-.51.62-1.08.43l0-.14a1.06,1.06,0,0,0,.46-.48c.05-.14-.42-.13-.57-.18-.42-.14.1-.28,0-.33-.28.38-.42-.14-.57-.18-.23-.24,0-.33-.52-.33-.14,0,0-.33-.38-.28l0-.14c.33-.05.33-.05.09-.29s-.24.24-.38.2c0-.33-.29-.57-.34-.9.33,0,.38-.19.57-.29s-.38-.28,0-.33c.14,0,.28.09.19.38s.43.13.33.42a.14.14,0,0,0,.19-.1c0-.14.09-.28.24-.24-.05.15.38.28.14.52,0,0,0,.15-.09.29C72.07,97.89,72.17,98.55,72.5,98.5Z"/><path class="cls-235" d="M73.79,99.39c-.1-.19.09-.29.23-.24s.33-.05.43-.34c.28-.38.46-.48.8,0a.28.28,0,0,0,.43.13c.33,0,.42.14.19.38-.33.53-.14.9,0,1.42.05.33.05.33-.23.24s-.2-.38-.48-.47l0-.14c-.76.39-.48-.47-.72-.7C74.07,99.48,74,99.29,73.79,99.39Z"/><path class="cls-171" d="M75.46,101c.05-.15.33,0,.09-.29s-.38-.28,0-.47a.78.78,0,0,1,.22-1.19.2.2,0,0,0-.28-.09c-.33.05-.43-.14-.34-.42-.09-.19,0-.47-.1-.66,0-.15-.38-.28,0-.48.42.14.42.14.33.43l.1.18c0,.48.47-.47.42.14,0,.14-.37.2-.18.57a2,2,0,0,1,.24.71c.05.33.58.66.39,1.23-.28-.1-.19-.38-.43-.62a5.46,5.46,0,0,0,.15,1c0,.14.05.33,0,.47s-.14.43-.33,0S75.41,101.17,75.46,101Z"/><path class="cls-236" d="M75.52,102.78c-.29-.57.09-.76.51-1.1,0-.14.09-.28.24-.24,0,.48.19.85.2,1.33.28.09,0-.33.23-.24.34.42-.08.76-.13,1.37-.33-.42-.28-.56.09-.76-.43-.13-.85-.27-1-.79C75.66,102.35,75.85,102.73,75.52,102.78Z"/><path class="cls-234" d="M74.91,102.74a2.74,2.74,0,0,1-1.1-1.46.31.31,0,0,0-.57-.18c0-.15.14-.43.18-.57.33,0,.38.28.48.47a12.44,12.44,0,0,0,1,1.74C75.05,102.78,75,102.92,74.91,102.74Z"/><path class="cls-235" d="M76.27,101.44c0,.15-.19.1-.24.24-.09-.19-.33,0-.47,0s.09-.29.28-.38.14,0,.18-.57C76.26,101,76.17,101.26,76.27,101.44Z"/><path class="cls-236" d="M75.52,102.78c.1.18.2.37.34.42a1.77,1.77,0,0,1-.77-1C75.23,102.21,75.24,102.68,75.52,102.78Z"/><path class="cls-237" d="M74.91,102.74h0a8,8,0,0,1,.86.74l0,.15A1.51,1.51,0,0,1,74.91,102.74Z"/><path class="cls-92" d="M14.75,40.43c.47,0,.62.52.86.75,0,.62,0,.62.67,1.32l.1.19a10.06,10.06,0,0,1-2.67-2.43c.42.13.71.7,1.19.69C15,40.67,14.7,40.58,14.75,40.43Z"/><path class="cls-92" d="M13.35,37.94c.66-.1.2.38.29.57A.41.41,0,0,1,13.35,37.94Z"/><path class="cls-92" d="M14.27,39.49l.18-.09c.24.23.15.51.2.85C14.37,40.15,14.32,39.82,14.27,39.49Z"/><path class="cls-92" d="M13.74,38.69c.28.1.33.43.43.61C13.89,39.21,13.65,39,13.74,38.69Z"/><path class="cls-238" d="M36.5,16.78c-.1-.19-.15-.52-.25-.71a.13.13,0,0,1-.09-.18c.56-.77-.2-.85-.49-1.42,0,0-.28-.09-.24-.23.52-.62-.39-1.23,0-1.9-.15,0-.06-.33-.34-.42-.47,0,.1.19-.09.29s-.33,0-.38.19c-.14-.05-.14-.05-.09-.19s-.11-.66.37-.66l0-.15c.23-.71.71-.71,1.32-.67a3.6,3.6,0,0,1,1.71.55c.14,0,.47,0,.71.23a1.16,1.16,0,0,1-.09.75,15.46,15.46,0,0,0-1,5.17A2.4,2.4,0,0,1,37.37,19a4.88,4.88,0,0,0,.25,1.65,5.14,5.14,0,0,1-1.42-.93,9.8,9.8,0,0,0-2.71-1.34c-1.14-.37-2.37-.92-3.65-.39-.13.43-.46.48-.89.34-.14-.05-.1-.19.09-.28s.09-.29-.19-.38A.32.32,0,0,1,29,18c-.37.19-.8.05-1.13.1s-.38-.28-.15-.52a1.2,1.2,0,0,0-.3-1.51c-.14,0-.09-.19-.05-.33s0-.47.33-.05a5.2,5.2,0,0,0,2.09.36l.85.27c.14.05.52-.15.57.19.29.56.52.32.9.13.56-.29,1.09,0,1.51.17s.43.14.62,0a.72.72,0,0,1,1,.32c.34.9,1,.94,1.86,1.07C36.74,17.49,36.69,17.16,36.5,16.78Z"/><path class="cls-239" d="M29.68,16a.54.54,0,0,1-.8.06L28.6,16c-.57.29-.81,0-1.14-.37.14,0,.19-.1.33,0a.85.85,0,0,1,1.27-.06c.15,0,.1.19.24.23S29.78,15.72,29.68,16Z"/><path class="cls-240" d="M27.27,15.7l.1.18c-.1.29-.24.24-.38.2s-.48-.47-.57-.66-.1-.19-.05-.33C26.88,14.94,27,15.46,27.27,15.7Z"/><path class="cls-241" d="M70.77,94.64a1.52,1.52,0,0,1,.33.9,6.06,6.06,0,0,1,.54,1.27c-.19.09-.14.42-.33.52.09-.28.14-.43-.33-.42-.19.1-.34-.42-.43-.61s-.67-.37-.86-.75a18.6,18.6,0,0,1-1-2.21c.14-.43.38-.2.48,0s.33.42.38.76a1,1,0,0,0,1,.65C70.48,94.55,70.62,94.59,70.77,94.64Z"/><path class="cls-231" d="M70.34,94.5c-.14,0-.42.34-.38.2,0-.48-.85-.28-.67-.85,0-.14,0-.14-.09-.19s-.29-.09-.2-.37.1-.29-.38-.28c-.24-.71-.67-1.32-.92-2l0-.14a.8.8,0,0,1,.57.66c-.09.28.05.33.2.37a1,1,0,0,1,.62,1l.1.19A6.51,6.51,0,0,1,70.34,94.5Z"/><path class="cls-242" d="M43.29,5.45c-.1-.66.51-1.1-.16-1.47.38-.19.66-.1,1-.29s.71.23.95.46-.09.29-.18.57c-.24-.23-.71.24-.57-.18,0-.33-.15-.52-.29-.57s-.24.24-.24.24c.1.19.15.52.29.57l.29.09C44.09,5.39,43.61,4.92,43.29,5.45Z"/><path class="cls-243" d="M42.44,6.12a.22.22,0,0,1,.1-.29c.18-.09.47.47.66-.1,0-.14.14,0,.14,0,.1.19.1.19-.09.28s-.33.05-.52.15S42.54,6.31,42.44,6.12Z"/><path class="cls-8" d="M42.44,6.12a1.13,1.13,0,0,0,.62,0c.1.19-.23.24-.14.43s-.19.09-.23.24c-.43-.14-.53-.33-.25-.71Z"/><path class="cls-244" d="M14.67,41.66h0c-.43.34-.62,0-.86-.27s-.19-.38,0-.47A5,5,0,0,0,14.67,41.66Z"/><path class="cls-243" d="M42.3,6.07c.1.19,0,.48.29.57A10.19,10.19,0,0,0,40.3,8.89c-.29-.1-.38.19-.71.24-.1-.19.51-.62-.15-.52-.14-.52.61-.43.56-.76.43.14.1-.29.28-.38.43.13.81-.06.85-.67.14,0,.14,0,.24.23a.28.28,0,0,0,.42.14.54.54,0,0,0,.28-.38C41.88,6.41,41.93,6.27,42.3,6.07Z"/><path class="cls-245" d="M43.36,22.29c.14.05.61,0,.19.38,0,.14-.23.24-.09.28l.28.1c.19-.57.52-.15.66-.11s-.19-.37.14-.42.05-.15,0-.33-.38.19-.24-.24c.09-.28.24-.24.57-.29a2.18,2.18,0,0,0,0,.95c0-.47.46-.48.7-.72,0-.14.28.09.47,0,.1.18.43.13.57.18s.61,0,.29.56a.52.52,0,0,1,0,.34.16.16,0,0,0,.19-.1c.19-.1.28-.38.47-.48.38.28-.14.43,0,.62s0,.14-.09.28.14.05.14.05l.57.18c-.66.1-1.27.06-1.64.73.47.47.43.61-.32,1l-.19.1c-.71-.23-1.15-.84-1.81-1.21a5,5,0,0,0-1.33-.74.77.77,0,0,1-.48-.47c.05-.14-.1-.19,0-.33.23-.24.23-.71.85-.67-.1.28-.1.28,0,.33s.23-.24.33-.05-.29-.1-.19.09-.24.24-.42.34C43.08,22.67,43.31,22.44,43.36,22.29Z"/><path class="cls-245" d="M48.23,22.76c-.19.1-.33,0-.28-.09a.54.54,0,0,1,.28-.38l.09.19S48.28,22.62,48.23,22.76Z"/><path class="cls-246" d="M46,14.17c.57.19.15.52.1.67-.33.05-.37.19-.32.52s.43.14.57.18c-.57.29-.18,1.05-.6,1.38,0,.14-.1.29-.24.24-.19.1-.14.43-.23.71A1.2,1.2,0,0,1,44.41,19L44.27,19a1.37,1.37,0,0,1,.18-1.52c.18-.09.09-.28.13-.42A1.65,1.65,0,0,1,45,15.89c.42-.34.37-.67,0-1C45.22,14.56,45.5,14.18,46,14.17Z"/><path class="cls-246" d="M43.17,21.92c-.48,0-.38.66-.85.67a1.1,1.1,0,0,1,0-.81c.47,0,.28-.38.51-.62s.14-.42.33-.52c.66-.1.7-.72.69-1.19s.33-.52.71-.24c.19.37.57.65-.23.71.38.28.61,0,.8-.06.1.19-.23.24-.13.43.19.38-.14.43-.38.67-.28-.1-.28.38-.46.47A1.78,1.78,0,0,0,43.17,21.92Z"/><path class="cls-247" d="M46,14.17c-.37.2-.65.58-1,.77a8.51,8.51,0,0,1-1.35,1.77c-.33.05-.43-.14-.34-.43.52-.62.65-1.52,1.54-1.86-.14,0-.18.1-.33.05.28-.38.9-.34,1.18-.72l.14.05C45.88,14,45.83,14.13,46,14.17Z"/><path class="cls-223" d="M47,17.81c-.19.09-.23.24-.38.19a2.14,2.14,0,0,0,.34.42c-.33,0-.51.62-1,.3a1.46,1.46,0,0,0,.42-1.28s0-.15.09-.29c.47,0,.14-.43.32-.52C47.56,17,47.28,17.43,47,17.81Z"/><path class="cls-248" d="M44.34,20.72c.09-.28.42-.33.51-.62a.54.54,0,0,0,.51-.62c.43.14,0,.47,0,.47a2.65,2.65,0,0,1-.61.91c-.14-.05-.09-.19-.28-.09C44.39,21.05,44.43,20.91,44.34,20.72Z"/><path class="cls-78" d="M47.13,16l-.19.1c-.29-.1-.1-.19,0-.33.09-.29-.1-.67.23-.72.14.05.14.05.09.19C47,15.44,47.22,15.67,47.13,16Z"/><path class="cls-171" d="M74.71,96.54c-.24-.24-.15-.52-.29-.57-.38-.28-.25-.7-.44-1.08s-.62-1-.72-1.65a15.81,15.81,0,0,1,1.1,1.93l.39.75c0,.33.29.57.34.9s.19.38-.14.43C74.52,97.11,74.8,96.73,74.71,96.54Z"/><path class="cls-249" d="M74.58,93.51c-.09.29-.18.57-.47.48s-.33-.42-.43-.61a.16.16,0,0,1,.19-.1s.19-.09.14,0C74.06,93.66,74.3,93.42,74.58,93.51Z"/><path class="cls-216" d="M43.62,25.37a2,2,0,0,1-.8-.42C42.91,24.66,43.33,24.8,43.62,25.37Z"/><path class="cls-181" d="M28.19,3.57c-.33.05-.24-.23-.24-.23A.92.92,0,0,1,28,2.72C28.09,2.91,28.47,3.19,28.19,3.57Z"/><path class="cls-180" d="M34.61,7.53l-.14,0a.9.9,0,0,1,0-.61l.14,0c-.24-.23,0-.33.19-.57.09.19.38.28.43.61s.57.19.62.52c0-.33-.34-.43-.2-.85.1.18.34.42.47,0a3.84,3.84,0,0,0,1.06,1.6c.14,0,.19.38-.14.43l-.28-.1a2.11,2.11,0,0,1-1.43-.93C35.13,7.38,34.9,7.62,34.61,7.53Z"/><path class="cls-250" d="M34.51,6.87a.85.85,0,0,1,0,.61l-.14,0C34,7,33.52,7,33.14,6.74a.16.16,0,0,1-.1-.19c.05-.14-.14-.52.19-.57l.14,0c-.13.9.43.61.9.6C34.28,7.1,34.47,7,34.51,6.87Z"/><path class="cls-251" d="M16.11,44c.51-.15.85.27,1.23.55.1.19.52.33.29.57s-.24-.24-.52-.33l-.29-.09C16.63,44.34,16.11,44.49,16.11,44Z"/><path class="cls-252" d="M11.69,41.65c-.1-.19,0-.14.19-.1l.42.14c0,.14.1.19-.09.28S11.93,41.88,11.69,41.65Z"/><path class="cls-253" d="M74.71,96.54c.28.09,0,.47.24.71l.1.18c-.24.24.24.24.14.52a.63.63,0,0,0,.25.71c-.24.24-.14.43.14.52-.09.28-.32.52-.47,0s-.38-.28-.61,0a3.35,3.35,0,0,1-.92-1.55l-.14,0c-.66.1-.62-.52-.81-.89-.1-.19-.1-.67-.48-.47l0,.14c-.15-.52-.72-.7-.73-1.18.39.28.57.19.71-.24,0-.14.09-.28.24-.24s.28.09.09.19c-.51.62.25.71.48.94s0,.47.38.28l.43.14c.1.19-.19.09-.23.24a.55.55,0,0,0,.47,0c.1.19-.14.43-.18.57C74,96.78,74.38,97.06,74.71,96.54Z"/><path class="cls-254" d="M16.43,96.63l.56-.29a1.93,1.93,0,0,1-.56.76C16.34,96.92,16.52,96.82,16.43,96.63Z"/><path class="cls-239" d="M26.46,15.28c.29.09.29.56.58.65s.14.05.33,0c.76.56.81.89.39,1.7,0,.15-.09.29,0,.33.1.19.19-.09.33-.05A1.8,1.8,0,0,1,29,18c0,.14,0,.14-.09.28-.71.24-1.42,0-2.17.4a2.83,2.83,0,0,1-1.56,0c-.29-.09-.71-.23-.29-.56.38.28.76.56,1.18.22.19-.1.38-.19.48,0,.42.13.52-.15.7-.25.1-.28-.24-.23-.33-.42s-.15-.52-.24-.71-.11-.66-.53-.8-.05-.33.14-.42S26.27,15.37,26.46,15.28Z"/><path class="cls-255" d="M38.9,15.67c0-.14.09-.29,0-.33a2.93,2.93,0,0,1,.17-2,9.09,9.09,0,0,0,1.8.74.55.55,0,0,1,.39.75A.85.85,0,0,0,41.78,16c.43.14.29.56.53.8,0,.47-.42.81-.7,1.19a12.62,12.62,0,0,0-1.43,3,.6.6,0,0,1-.47.48c-.19.1-.24-.23-.38-.28a12.7,12.7,0,0,1-.76-5A1.14,1.14,0,0,0,38.9,15.67Z"/><path class="cls-256" d="M39.21,13.25c-.38.67-.13,1.37-.32,1.94-.28-.09-.24-.23-.29-.56.09-.76.32-1.47.41-2.23,0-.14,0-.14,0-.33a6.57,6.57,0,0,0-.74,2.28,19.51,19.51,0,0,0-.3,2.89,4.34,4.34,0,0,1,0,1.56c-.14.43-.38.19-.57.29a14.34,14.34,0,0,1,1.16-7c.05-.15.1-.29.14-.43.19-.1.05-.14.09-.29A.6.6,0,0,1,39,11c.15,0,0,.48.29.09,0-.14.19-.09.23-.24a.58.58,0,0,1,0,.48,2.2,2.2,0,0,0-.18,1C39.49,12.87,39.39,13.15,39.21,13.25Z"/><path class="cls-257" d="M38.9,15.67a25,25,0,0,0,.36,3.73A4.22,4.22,0,0,1,39.71,21a.6.6,0,0,0,.47.47l0,.14c-.19.1-.38.19-.48,0a5.72,5.72,0,0,1-.92-2.49,10.5,10.5,0,0,1-.08-3.17C38.71,15.76,38.61,15.58,38.9,15.67Z"/><path class="cls-14" d="M37.09,24.2c.09-.28.47-.47.56-.76C37.65,23.91,37.42,24.15,37.09,24.2Z"/><path class="cls-64" d="M34.61,7.53c.33-.53.71-.25,1.09,0,.19.38.38.76.86.75a.56.56,0,0,1,.24.23c-.19.1.09.19.05.34-.19.09-.33,0-.29-.1-.19-.37-.75-.08-.76-.56-.33,0,.15.52-.42.34.23-.24-.05-.33-.19-.38S34.8,7.9,34.61,7.53Z"/><path class="cls-185" d="M34.4,14.53c-.38.2-.48-.47-.81-.42,0-.14,0-.14.09-.28s.14.05.29.09C34.06,14.11,34.3,14.34,34.4,14.53Z"/><path class="cls-258" d="M33.14,6.74h0c-.38.19-.34-.42-.67-.37-.23.24.1.18.2.37-.29-.09-.62,0-.43-.61,0-.14-.53-.32-.11-.66a.33.33,0,0,1,.38-.19c.28.09.48.47.9.13.05-.14.05.33.05.33C32.85,6.17,33.19,6.6,33.14,6.74Z"/><path class="cls-4" d="M31.4,7.28c-.48,0-.2-.38-.34-.43C31.39,6.8,31.3,7.09,31.4,7.28Z"/><path class="cls-259" d="M36.5,16.78c.38.28.53.8.86,1.22a2.79,2.79,0,0,1-1.47-.31c-.28-.09-.38-.28-.62-.52s-.05-.8-.52-.32c-.19.09,0-.33-.19-.38-.14.43-.43.34-.85.2s-1.19-.7-1.75.06c-.23.24-.52.15-.47,0,0-.62-.53-.33-.81-.42-.05-.33-.15-.52-.2-.85l.05-.14c.33.42.94,0,1.37.13.47,0,.89-.34,1.23-.39.37-.2.47,0,.61,0,.24.23.29.56.57.65s.29.57.62,0c0-.14.57.19.66.38a3.48,3.48,0,0,0,.67.84c.24.23-.28.38,0,.62Z"/><path class="cls-26" d="M30.2,15.38a.7.7,0,0,1,.2.85c-.34.05-.43-.14-.72-.23a.54.54,0,0,1-.38-.28A1.51,1.51,0,0,0,30.2,15.38Z"/><path class="cls-260" d="M40.14,21.57c-.29-.09-.57-.18-.48-.47.1.19.43.61.47,0a13.21,13.21,0,0,1,2.32-4.29c.33-.52.51-1.09,1.08-1.38.33,0,.61-.43,1-.63.19-.09.33-.05.52-.14-.51.62-.88,1.28-1.35,1.76-.19.1-.28.38,0,.48.1.18.1.18,0,.33a23.44,23.44,0,0,0-1.56,4.37c-.28.38-.76-.09-1,.62,0-.47,0-.47.37-.67a.27.27,0,0,0,.14-.42c-.09-.19-.19.09-.33.05-.09-.19.33-.53.09-.76-.14-.05-.38-.28-.43-.14s-.32.53-.37.67S40.66,21.42,40.14,21.57Z"/><path class="cls-261" d="M43.57,15.29c-.42.33-.6.9-1.07,1.38-.14,0-.47,0-.34-.42.05-.14-.09-.19-.23-.24a.94.94,0,0,1-.68-1.31c0-.15-.43-.61-.62-.52-.37.2-.71-.23-1.18-.22s0-.47-.34-.42c0-.33.14-.43.23-.72s0-.94.56-1.23c.33-.05.52-.15.33.42s-.09.29.38.28c.15.05.33,0,.48,0-.1.28-.28.85.48.94.28.09-.14.42.1.66.28.09.23-.24.23-.24a.14.14,0,0,1,.1.19c-.28.38.24.7.29,1s.29.56-.32.52C42.58,15.44,43.15,15.15,43.57,15.29Z"/><path class="cls-262" d="M39.94,11.45c-.42.33-.13.9-.55,1.23-.29-.56.18-1,.36-1.61,0-.14.24-.24.33-.53A.86.86,0,0,1,40.4,10c.15.05.19-.1.33,0A6.81,6.81,0,0,0,39.94,11.45Z"/><path class="cls-192" d="M40.4,10c-.09.29-.13.43-.47.48.28-.38.14-.9.66-1.05C40.54,9.59,40,9.74,40.4,10Z"/><path class="cls-201" d="M25.15,21.3a2.46,2.46,0,0,0-.09.29.58.58,0,0,1-.38-.28l0-.15Z"/><path class="cls-10" d="M17.31,22.24a1.17,1.17,0,0,1,.66-.11l.15.05c.09.19.47,0,.38.28s-.52.15-.66.1S17.36,22.57,17.31,22.24Z"/><path class="cls-34" d="M24.21,22.26c-.09-.19-.28-.09-.38-.28a1.63,1.63,0,0,1,.81-.06C24.54,22.21,24.26,22.12,24.21,22.26Z"/><path class="cls-253" d="M73.09,95.7a2.2,2.2,0,0,1-.1-1.13C73.18,95,73.7,95.27,73.09,95.7Z"/><path class="cls-241" d="M70.61,93.65c0,.33.29.56.16,1a3.78,3.78,0,0,1-.44-1.08A.2.2,0,0,1,70.61,93.65Z"/><path class="cls-263" d="M42.07,21.41a5.47,5.47,0,0,1,.69-2.61,12,12,0,0,1,1-2.05A12.13,12.13,0,0,1,45.08,15c.15,0,.33-.05.43.14s.15.51-.09.75A1.15,1.15,0,0,0,45.06,17a.46.46,0,0,1-.19.57c-.56.29-.37.67-.22,1.19,0,.14,0,.14.05.33-.19.1-.29-.09-.47,0,.09.19-.18,1.52-.51,1.57-.8.06-.7.72-.89,1.29,0,.14-.09.28-.23.24s-.1-.19-.24-.24Z"/><path class="cls-216" d="M40.64,24.4c-.33.05-.38-.28-.76-.56C40.3,24,40.63,23.93,40.64,24.4Z"/><path class="cls-15" d="M49,20l-.28-.09a.92.92,0,0,1-.53-.33c.19-.09.33-.05.62,0C48.86,19.82,49,19.87,49,20Z"/><path class="cls-221" d="M44.34,20.72l.09.19c0,.47-.37.19-.56.29.19-.1.09-.29.13-.43C44.24,20.53,44.38,20.58,44.34,20.72Z"/><path class="cls-235" d="M75.34,98.47c-.24-.23-.71-.23-.24-.71C75.52,97.9,75.24,98.28,75.34,98.47Z"/><path class="cls-239" d="M29,18c.05-.15-.09-.19,0,0-.05-.34-.43-.14-.33-.43s.18-.09.33-.05C29.13,17.71,29.42,17.8,29,18Z"/><path class="cls-264" d="M43.36,22.29l0,.15a.48.48,0,0,1-.56.29c-.14-.05-.2-.38.09-.29a.44.44,0,0,0,.33-.05A.15.15,0,0,0,43.36,22.29Z"/><path class="cls-180" d="M33.14,6.74c-.62-.52-.24-.71.23-.71C33.13,6.26,33.19,6.6,33.14,6.74Z"/></g></svg>