<svg id="Layer_1" data-name="Layer 1" xmlns="http://www.w3.org/2000/svg" xmlns:xlink="http://www.w3.org/1999/xlink" viewBox="0 0 130.39 130.67"><defs><style>.cls-1{fill:none;}.cls-2{clip-path:url(#clip-path);}.cls-3{fill:#cbbaad;}.cls-4{fill:#adb3d0;}.cls-5{fill:#cdc9e2;}.cls-6{fill:#b9b29d;}.cls-7{fill:#a6acc7;}.cls-8{fill:#f6f6eb;}.cls-9{fill:#dfd4c5;}.cls-10{fill:#6687a0;}.cls-11{fill:#cccbe0;}.cls-12{fill:#6a77a1;}.cls-13{fill:#cfc0b0;}.cls-14{fill:#bbbad8;}.cls-15{fill:#4f6a39;}.cls-16{fill:#e3dcc7;}.cls-17{fill:#eae9dd;}.cls-18{fill:#baac96;}.cls-19{fill:#8395ab;}.cls-20{fill:#9aa8c0;}.cls-21{fill:#93a0b9;}.cls-22{fill:#8b9fb8;}.cls-23{fill:#334824;}.cls-24{fill:#bcbad8;}.cls-25{fill:#a2abc8;}.cls-26{fill:#b5b8d2;}.cls-27{fill:#b5bacd;}.cls-28{fill:#ad9f8f;}.cls-29{fill:#d5cfb8;}.cls-30{fill:#688550;}.cls-31{fill:#f4f1e9;}.cls-32{fill:#9bacb9;}.cls-33{fill:#dcd8c1;}.cls-34{fill:#e2e2d2;}.cls-35{fill:#d9ccd0;}.cls-36{fill:#435b31;}.cls-37{fill:#cdd5d6;}.cls-38{fill:#cacab0;}.cls-39{fill:#3a582d;}.cls-40{fill:#515687;}.cls-41{fill:#8ba0b9;}.cls-42{fill:#d9bba6;}.cls-43{fill:#8ea2b0;}.cls-44{fill:#4f5b97;}.cls-45{fill:#5b7883;}.cls-46{fill:#535234;}.cls-47{fill:#a1aeb8;}.cls-48{fill:#aa9d85;}.cls-49{fill:#f0ecdf;}.cls-50{fill:#798e66;}.cls-51{fill:#9b9c7f;}.cls-52{fill:#989981;}.cls-53{fill:#766f5b;}.cls-54{fill:#cecee0;}.cls-55{fill:#eaecea;}.cls-56{fill:#dbd6bd;}.cls-57{fill:#cfc1b6;}.cls-58{fill:#d3c4ba;}.cls-59{fill:#b4a594;}.cls-60{fill:#dfcfc5;}.cls-61{fill:#735b53;}.cls-62{fill:#ab9d85;}.cls-63{fill:#6f4d41;}.cls-64{fill:#b7ab9b;}.cls-65{fill:#a79f8f;}.cls-66{fill:#38482e;}.cls-67{fill:#aa9c85;}.cls-68{fill:#4a5b3c;}.cls-69{fill:#b7ab9c;}.cls-70{fill:#2f3d24;}.cls-71{fill:#4f4a3a;}.cls-72{fill:#8e8670;}.cls-73{fill:#9d9780;}.cls-74{fill:#927e65;}.cls-75{fill:#897d6e;}.cls-76{fill:#9aa5c3;}.cls-77{fill:#718aac;}.cls-78{fill:#768eac;}.cls-79{fill:#708fa6;}.cls-80{fill:#b7b7d6;}.cls-81{fill:#bbb9d8;}.cls-82{fill:#9fabc6;}.cls-83{fill:#c4c0de;}.cls-84{fill:#d0c4b6;}.cls-85{fill:#adaa91;}.cls-86{fill:#949277;}.cls-87{fill:#a49f89;}.cls-88{fill:#557343;}.cls-89{fill:#7b7c5f;}.cls-90{fill:#2e3d23;}.cls-91{fill:#9b977f;}.cls-92{fill:#85846b;}.cls-93{fill:#92907a;}.cls-94{fill:#7986b4;}.cls-95{fill:#939fba;}.cls-96{fill:#7d8cb7;}.cls-97{fill:#c5bcab;}.cls-98{fill:#60798f;}.cls-99{fill:#627e96;}.cls-100{fill:#628298;}.cls-101{fill:#c9c1ad;}.cls-102{fill:#d9d1bc;}.cls-103{fill:#c4bba6;}.cls-104{fill:#755646;}.cls-105{fill:#755546;}.cls-106{fill:#dee1d5;}.cls-107{fill:#49667b;}.cls-108{fill:#48676d;}.cls-109{fill:#c3c5ad;}.cls-110{fill:#6a4f46;}.cls-111{fill:#2b4423;}.cls-112{fill:#9e9c84;}.cls-113{fill:#b8b79d;}.cls-114{fill:#bbb9a0;}.cls-115{fill:#adb0cf;}.cls-116{fill:#bab7db;}.cls-117{fill:#92a2bd;}.cls-118{fill:#a2aeb8;}.cls-119{fill:#59779d;}.cls-120{fill:#526c89;}.cls-121{fill:#416a83;}.cls-122{fill:#60719a;}.cls-123{fill:#526a98;}.cls-124{fill:#7d88b7;}.cls-125{fill:#5a688c;}.cls-126{fill:#7d87ac;}.cls-127{fill:#445c8e;}.cls-128{fill:#46608d;}.cls-129{fill:#785847;}.cls-130{fill:#415432;}.cls-131{fill:#ada890;}.cls-132{fill:#29391e;}.cls-133{fill:#969177;}.cls-134{fill:#88866d;}.cls-135{fill:#88856d;}.cls-136{fill:#79745c;}.cls-137{fill:#6a8aa1;}.cls-138{fill:#99a6bb;}.cls-139{fill:#acb0d1;}.cls-140{fill:#8195b1;}.cls-141{fill:#566d9b;}.cls-142{fill:#bc9e88;}.cls-143{fill:#4f693a;}.cls-144{fill:#92a0ba;}.cls-145{fill:#192814;}.cls-146{fill:#71745a;}.cls-147{fill:#c5baab;}.cls-148{fill:#665248;}.cls-149{fill:#3c5431;}.cls-150{fill:#44563a;}.cls-151{fill:#9fa98c;}.cls-152{fill:#ada694;}.cls-153{fill:#474b7f;}.cls-154{fill:#e3ded6;}.cls-155{fill:#bbafa0;}.cls-156{fill:#958f7a;}.cls-157{fill:#45392b;}.cls-158{fill:#bbb3a0;}.cls-159{fill:#7b8ab6;}.cls-160{fill:#5c73a3;}.cls-161{fill:#365b86;}.cls-162{fill:#9fabc5;}.cls-163{fill:#6e8ba4;}.cls-164{fill:#7990af;}.cls-165{fill:#93a1c2;}.cls-166{fill:#93a2bf;}.cls-167{fill:#8198b0;}.cls-168{fill:#6a493d;}.cls-169{fill:#314928;}.cls-170{fill:#4a603a;}.cls-171{fill:#3c4f32;}.cls-172{fill:#71895c;}.cls-173{fill:#84946c;}.cls-174{fill:#a8a28d;}.cls-175{fill:#bcb69f;}.cls-176{fill:#939277;}.cls-177{fill:#cac2ad;}.cls-178{fill:#b1ae91;}.cls-179{fill:#a7a286;}.cls-180{fill:#5d5e41;}.cls-181{fill:#5f6043;}.cls-182{fill:#506c99;}.cls-183{fill:#d2c7b8;}.cls-184{fill:#c3bba1;}.cls-185{fill:#67463c;}.cls-186{fill:#d3c8ba;}.cls-187{fill:#837f67;}.cls-188{fill:#aca892;}.cls-189{fill:#34452b;}.cls-190{fill:#87896f;}.cls-191{fill:#9e9c85;}.cls-192{fill:#71885b;}.cls-193{fill:#99a385;}.cls-194{fill:#8093a7;}.cls-195{fill:#4e6d85;}.cls-196{fill:#466b83;}.cls-197{fill:#4a6a7e;}.cls-198{fill:#4a6e87;}.cls-199{fill:#3f6074;}.cls-200{fill:#406175;}.cls-201{fill:#45647d;}.cls-202{fill:#5d4941;}.cls-203{fill:#85604a;}.cls-204{fill:#efebdc;}.cls-205{fill:#85614c;}.cls-206{fill:#48547d;}.cls-207{fill:#516083;}.cls-208{fill:#3e618c;}.cls-209{fill:#7989a8;}.cls-210{fill:#375274;}.cls-211{fill:#3a5882;}.cls-212{fill:#707fab;}.cls-213{fill:#3d5581;}.cls-214{fill:#414879;}.cls-215{fill:#807f61;}.cls-216{fill:#5a6145;}.cls-217{fill:#4a643f;}.cls-218{fill:#202e18;}.cls-219{fill:#c6c1bc;}.cls-220{fill:#577c97;}.cls-221{fill:#10230d;}.cls-222{fill:#e0d6ca;}.cls-223{fill:#ebebe1;}.cls-224{fill:#a09d88;}.cls-225{fill:#9d9f87;}.cls-226{fill:#ccccce;}.cls-227{fill:#a0a487;}.cls-228{fill:#2e325a;}</style><clipPath id="clip-path"><rect class="cls-1" x="3.61" y="3.83" width="123" height="123"/></clipPath></defs><g class="cls-2"><path class="cls-3" d="M91.75,124.88a29.15,29.15,0,0,1-9.1-2.9c-3.9-2-7.72-4.27-11.69-6.23a30.09,30.09,0,0,1-8.3-5.79c-.44-.43-1.16-.58-1.45-1.16a2.06,2.06,0,0,1,1.73.22,3,3,0,0,0,1.38.58c-.08-.43-.44-.43-.65-.58a1.35,1.35,0,0,1-.51-.36c-.22-.22-.58-.44-.36-.87s.58-.22.87-.14.57.28.93.36A64.09,64.09,0,0,0,72,109.74a5.93,5.93,0,0,1-2.89-2.89c.14-.94.87-.65,1.44-.58a1.37,1.37,0,0,0,1.59-.65c.22-.29.43-.73.87-.44.14.44-.22.8-.15,1.31,2.1-.37,3.18.94,4.12,2.46.86,1.37.79,1.37,2.31.65a1,1,0,0,1,1.59.65c-.58,1.45-.51,1.59,1.22,1.67,1.16.07,2.31,0,3.47.14a1.42,1.42,0,0,0,1.66-1.16,7.6,7.6,0,0,1,1.37-1.3,1.14,1.14,0,0,0,.29-1.52c-.29-.58-.65-1-1.37-.87-.36.07-.8.29-.94-.29a21,21,0,0,1,2.31-2.82,3.62,3.62,0,0,0,.94-1.16c.65-1.23,1-1.3,2.16-.36.15.65-.29,1.16-.5,1.66-.51,1.16-.15,2,1.08,2.32a3.68,3.68,0,0,0,3.75-1.09c.36-.29.51-.79,1-.94,1.74.22,2.6,1.52,3.4,2.83-.44.36-.22,1.08-.65,1.52-.08.07-.15.14-.22.14a3.84,3.84,0,0,0-4,2.39c-.29.29-.87.36-.72.94a3.64,3.64,0,0,0-2.46.51c-.36.21-.65.5-1,.72a4.1,4.1,0,0,0-1.22.65,1.22,1.22,0,0,0-.58,1.45c.22.72.79.72,1.37.65a3.62,3.62,0,0,1,.87,0,1.36,1.36,0,0,1,.79.51.56.56,0,0,1,.14.36c-.07.73-.72,1.38-.21,2.17,1.15.51,2.16,1.16,2.24,2.61,0,.29-.15.43-.44.51s-.36-.15-.57-.22c-1.23-.58-1.88-.15-1.88,1.16a4.87,4.87,0,0,1,0,1C92.25,124.51,92.11,124.73,91.75,124.88Z"/><path class="cls-4" d="M102.43,59a1.26,1.26,0,0,1,1.23-.08c3,1.09,6.13,1.38,9,2.68a14.66,14.66,0,0,1,3.75,2.46,21.9,21.9,0,0,1,4.62,5,76.19,76.19,0,0,1,3.61,7.31c.07.22.07.51.15.72a1.62,1.62,0,0,1-2.68-.65,2.58,2.58,0,0,0-2-1.52c-1.58-.36-1.8-.72-1.3-2.24a.76.76,0,0,0-.21-.94,7.17,7.17,0,0,1-1.66-2.9c-.07-.29-.22-.8-.65-.58s-.22.65,0,.87a2.17,2.17,0,0,1,.14,2.53c-.5.87-.07,1.67,0,2.54.07,1.16,1,1.08,1.81,1.23.29.07.57.14.65.51-.44,1.81-.87,2.17-2.67,1.81-.73-.15-1.09.29-1.52.72a2.18,2.18,0,0,1-2.53-.14c-.79-.58-.57-1.38-.36-2.1.36-1.81.22-3.7.65-5.51.22-.72-.21-.94-.86-.79A6.84,6.84,0,0,0,109.72,71c-1.08.29-2.31-.14-3.18.87a2.13,2.13,0,0,1-.72.15,2.22,2.22,0,0,0-1.37.43c-.51.36-1,.15-1.59.15h-1.3A1.53,1.53,0,0,1,99.83,71c0-.94.43-1.23,1.66-1.23a1.31,1.31,0,0,0,.51-.07c-1.38-1.09-2.89-.72-4.41-.43a1.61,1.61,0,0,1,1.16-2.47,20,20,0,0,0,2.16-.29,1,1,0,0,0,.87-1.3,12.2,12.2,0,0,1-.22-2.82A4.43,4.43,0,0,1,102.43,59Z"/><path class="cls-5" d="M88.79,18.53c1.3.5.93,1.59,1,2.53a14,14,0,0,0,3.68,5.65,26,26,0,0,1,.94,2.53A8,8,0,0,0,97,32.64a7,7,0,0,1,1.09,1.74c-.07,1-1,1.23-1.66,1.59-.87.51-.94.94-.29,1.67s.65,1.37-.51,1.45c-1.87.21-3.82.21-5.55,1.23-.8.43-1.45-.15-1.74-.94a11.24,11.24,0,0,1-.29-3,1.85,1.85,0,0,1,1-1.38c.22-.14.65-.36.44-.65s-.51-.07-.72.14c-.44.37-.87.44-1.16-.07A3.14,3.14,0,0,0,84.89,33a.56.56,0,0,1-.51-.37.8.8,0,0,1,.08-.58,3.51,3.51,0,0,1,.93-.86c1.74-1.09,2.31-1,3.47.65A2.75,2.75,0,0,0,89,28c-.36-.36-.65-.43-.94.07-.07.07-.07.15-.14.22-1.52,1.95-2.6,1.88-4.19-.07-.65-.8-.57-1.31.22-2a3.81,3.81,0,0,1,1.73-.79A8.84,8.84,0,0,0,87.13,25c.36-.15.86-.22.79-.72s-.51-.44-.79-.51-.44-.07-.65-.15a2,2,0,0,1-1.23-.65c-1.08-.87-1.08-1.37,0-2.31.22-.22.65-.44.43-.8s-.65-.15-1,0c-.79.43-1.59,1-2.38.07a5.32,5.32,0,0,1,1.08-2.53c.36-.73.65-1.31-.5-1.52a1.4,1.4,0,0,1-.87-.73,2.31,2.31,0,0,1,.15-1.23c.14-.5.14-1.16.86-1.3a1.3,1.3,0,0,1,1.3.8c.87,1.59,2,3,3,4.48C87.7,18.67,88.06,19.11,88.79,18.53Z"/><path class="cls-6" d="M42.59,76.52a5.61,5.61,0,0,0-.29-1.89,35.49,35.49,0,0,1-1.73-9.19c-.07-.87-.36-1.74-.51-2.61a1.14,1.14,0,0,1,.44-1.23c.36-.36.79-.79,1.29-.51s.51.87.29,1.38c-.57,1.16.08,1.81.73,2.46A12.83,12.83,0,0,0,44,68.12c.43.65.65,1.37,1,2a2.08,2.08,0,0,0,.94,1.16c.65.22.94-.21,1.23-.65a4.82,4.82,0,0,1,2.09-1.74,7.9,7.9,0,0,0,2.31.8c.65.22,1.15.51.65,1.3-.15.22-.36.36-.22.65s.22.15.36.08c.36-.15.29-.44.29-.73a3,3,0,0,1,2.89-2.6c.5.79-.58,1.52-.07,2.39a7.15,7.15,0,0,1-1.16,2.67,4.84,4.84,0,0,0-.58,2.83,1.2,1.2,0,0,0,.94,1.16,10.41,10.41,0,0,1,.22,1.66,1.44,1.44,0,0,1-.07.58c-.07.43-.22.8-.29,1.23-.58,1.67-1.37,2-3,1-.29-.36-.51-.79-.87-.07A9.71,9.71,0,0,0,50.1,84a2.89,2.89,0,0,1-3.32,2.25A1.66,1.66,0,0,1,46.13,84a1.86,1.86,0,0,0,1.3-2.17c0-.87-.37-1.74-.44-2.61a4.54,4.54,0,0,1,.72-2.53c.36-.65.73-1.38,1.09-2s.86-1.73,2-.65c.28-.58-.08-.87-.22-1.16-.58-.87-.94.29-1.44.22-.51-.22-.37-.72-.73-1.16a5.42,5.42,0,0,0-.93,2.75A8.13,8.13,0,0,1,46.49,78a2.14,2.14,0,0,0,0,1.88c.21.87.21,1.66.36,2.53.07.65,0,1.23-.72,1.52a5.17,5.17,0,0,1-2.89-4.34c.07-.22.14-.36.21-.58C44.25,77.38,44,77,42.59,76.52Z"/><path class="cls-7" d="M114.41,78.61c.43-.94.94-1.66,2.17-.86a1,1,0,0,0,1.44-.51c.22-.44.43-.8.65-1.23,1.15.29,1.37,1.3,1.59,2.17s-.36,1.45-1.08,1.88a10.46,10.46,0,0,0-1.16.8,1.34,1.34,0,0,0-.22,1.52A1.11,1.11,0,0,0,119,83c2.45-.07,2.6,0,3.1,2.46.07.22.07.51.44.65a4.92,4.92,0,0,0,.65-3.33c-.08-.87-.29-1.81-.29-2.68,0-.57.07-1.15.72-1.37a1,1,0,0,1,1.37.65,15.94,15.94,0,0,1,1.3,9.48,1.5,1.5,0,0,1-1.88-.07c-.14-.36.07-.72-.07-1.16-.07.51.14,1,.07,1.38a11.05,11.05,0,0,0-.86,1.95c-.22.44-.44,1-1.09.87s-.79-.79-.86-1.45.57-1.3.72-2.31c-1.3.94-1.44,2.68-2.89,3a1.52,1.52,0,0,1-.94-.37,4.08,4.08,0,0,0-4.11-2.24,8.14,8.14,0,0,1-1.37-.22c-.36-.07-.65-.21-.65-.65s.21-.58.58-.79,1.15-.15,1.66-.51c-.15-.36-.51-.29-.73-.51-.14-1.59-1.08-2.39-2.6-2.89a1.76,1.76,0,0,1-.93-2c.43-.87,1.37-1,2.16-1.45C113.26,79.34,114.19,79.63,114.41,78.61Z"/><path class="cls-8" d="M41.94,38.43a4.37,4.37,0,0,1,3,.73A59.11,59.11,0,0,0,50.6,42c2.67,1.09,4.69,3.19,7.08,4.71-.08.22-.29.22-.44.22a8.41,8.41,0,0,1-1.08-.29c.43.29.79.43,1.08.65,1.73,1.3,3.61,2.39,4.69,4.27.51.72,1.09,1.37,1.66,2a.89.89,0,0,1,.29.29c3,3.25,6.43,6,9,9.62.07.08.14.22.21.29,1.66,1.89,3.32,3.77,5,5.58.72,1.37,1.74,2.6,1.81,4.27-.29.51-.72.58-1.3.36-1-.65-1.59-1.88-2.82-2.32l-.43-.43a4.93,4.93,0,0,0-3-4c-.79-.37-1.15-1.23-1.73-1.89a4.36,4.36,0,0,1-.58-1c-.43-2.24-2-3.55-3.68-4.63a8.42,8.42,0,0,1-1.3-.87c-.72-.8-1.59-1.59-2.38-2.32a7.68,7.68,0,0,1-2.17-2.68,4.12,4.12,0,0,0-2.16-2.24c-1.95-.73-3.18-2.39-4.77-3.62-.65-.51-1.37-.87-2-1.38a2.52,2.52,0,0,0-2-1.23A.84.84,0,0,1,49,45.1c-1.51-1.6-3.53-2.18-5.55-2.68-.15,0-.22-.15-.37-.22A3.21,3.21,0,0,0,40.93,41c-1.3-.43-1.52-1.52-.58-2.53.87-.15,1.44.5,2.24.72C42.44,38.94,42,38.87,41.94,38.43Z"/><path class="cls-9" d="M42.59,65.08c-.07-.15-.07-.29-.15-.29-1.58-.29-1.08-1.31-.79-2.25.14-.43.65-.87.14-1.23s-.86.36-1.22.65a3.56,3.56,0,0,0-.51.87,3.19,3.19,0,0,1-.5-2.75,2.45,2.45,0,0,0-.15-1.45,2.16,2.16,0,0,1,.65-2.82.78.78,0,0,1,.72.51c.15.65.29,1.3,1.16,1.3a.77.77,0,0,1,.36.14c1.52.37,2.09.08,2.17-1.08-.22-.8-.29-1.67-1.16-2.1a2.69,2.69,0,0,1-1.3-2.1c-.29-2.39.94-3.4,3.18-2.61a4.58,4.58,0,0,1,1.73,2c.07,1.08.36,1.74,1.66,1.88,1.59.15,2.45,1.74,2.24,3.4a2.26,2.26,0,0,1-1.37.15A1.16,1.16,0,0,0,48,58a1.91,1.91,0,0,0,0,2c.44.58,1.09.36,1.66.29s1.09-.37,1.59.14a.76.76,0,0,1,0,.8,5.85,5.85,0,0,0-1.08,3.25,1.1,1.1,0,0,1-1.16.8,1.24,1.24,0,0,1-1-1,2.83,2.83,0,0,0-1-1.59c-.21-.22-.5-.58-.86-.44s-.37.58-.44,1V64c-.21.51.22,1.09,0,1.59s-.36.87-.86.94A2.88,2.88,0,0,1,42.59,65.08Z"/><path class="cls-5" d="M101.85,57.4c.29-2.17.43-4.41.8-6.59a.58.58,0,0,1-.08-.36c-.14-1-.29-2-.5-3a1.24,1.24,0,0,1-.07-.5c-.15-.73-.29-1.53-.37-2.25l-.07-.07c-.58-.07-.29-.44-.21-.65a.59.59,0,0,0-.08-.51c-1-1.3-1.22-3-1.58-4.49-.15-.43-.08-.94-.51-1.23-.94-.14-1.73-.07-2.17.87a1.78,1.78,0,0,1-1.44,1.23c-.72.22-1.3.8-.79,1.38a3.57,3.57,0,0,1,.79,2.67,3.5,3.5,0,0,1-.22,1.74,1,1,0,0,0,.44,1.52,1.12,1.12,0,0,1,.29,1.45,1.05,1.05,0,0,0,.14.8c2.09,2,2.24,2.75.79,5.06-1.08,1.81-1,2.54.08,3.77.65-.15.72-.8,1.08-1.16s.58-.65,1.08-.43a.92.92,0,0,1,.51,1.08c0,.44-.29.8-.15,1.23a1.75,1.75,0,0,0,2.17-.07A9.59,9.59,0,0,1,101.85,57.4Z"/><path class="cls-10" d="M99.61,58.92c.73,0,1.45-.07,2.1-.07l.72.22c.14.21.22.43.36.65-1.73.58-.65,2.17-1.08,3.18-.15.29.07.73.07,1.16.43,2.68-.07,3.26-2.82,3.19a1.48,1.48,0,0,0-1.37,2.1.63.63,0,0,1-.43.58,2.43,2.43,0,0,0-1.73,3c-.08.36-.08.79-.15,1.16s-.21.65-.5.58c-1.52-.29-3,.28-4.41.5a1.34,1.34,0,0,1-.5-.14c-1.3-1.38-1.23-1.6.86-2.46.29-1.16.22-2.47,1.09-3.41.21-.29-.07-.65-.22-.94A2.09,2.09,0,0,1,92.47,66a44.16,44.16,0,0,0,3.46-3.77c.44-.51.07-.94,0-1.45.44-1.45.51-1.59,1.88-1.45C98.39,59.28,99,58.78,99.61,58.92Z"/><path class="cls-11" d="M79.26,6.44A2,2,0,0,1,80.7,7.81c.22,1,1.45.65,1.73,1.52.08.58.94.8.65,1.59-.72-.07-1.3,0-1.15.95a1.06,1.06,0,0,1-.07.65c-1.23,1.88-1.23,4.05-1.52,6.15a1.35,1.35,0,0,1-.36.51,2.2,2.2,0,0,1-.94.36c-2.24.36-3.61-1.09-4.91-2.46a6.57,6.57,0,0,1-1.37-7.89,1.24,1.24,0,0,1,1.88.65,12.42,12.42,0,0,1,4-3.48C78.82,6.36,79,6.44,79.26,6.44Z"/><path class="cls-12" d="M115.42,104c-2.09,1.66-3.9,3.69-6.86,3.62-1.37-1.31-1.37-1.31-3-.44a1,1,0,0,1-1.22-.07c-.44-.58-1.09-.94-1.45-1.59,0-.87.73-1.09,1.23-1.52s.51-.66-.14-.87-1.52-.29-2-.94c-.15-.87.86-.87,1-1.52s.36-1.38,1.08-1.67c1.08,0,2.24.36,3.32-.22a.59.59,0,0,1,.36.08,2.18,2.18,0,0,1,.51.36c.14.07.28.29.43.07.07-.07-.07-.29-.07-.43.36-.44.93-.37,1.37-.58.79-.44,1.3.07,1.59.79.72,1.6,1,1.67,2.31.51,1.22-.44,1.51-.22,1.44.94a9.08,9.08,0,0,0,0,1.38c-.14.14.07.14.07.07.07-.36.22-.58.58-.22C115.93,102.51,115.28,103.16,115.42,104Z"/><path class="cls-13" d="M94.56,122.05c.29.07.43-.07.58-.29a2.27,2.27,0,0,1,3.39-.14c.87.79,1.66,1.16,2.6.21.43-.43,1.15-.14,1.73-.36-.36-.5-1.23-.5-1.23-1.23a3.68,3.68,0,0,1,.65-1.37,10.36,10.36,0,0,0,1.38-2.18c.93-1.73,1.22-1.81,2.81-.72a2.74,2.74,0,0,1,.94,3.4,7.09,7.09,0,0,0-.29,2.18c0,.28-.22.65.22.79s.94.36.79.94a1.5,1.5,0,0,1-1.37,1,1.24,1.24,0,0,1-.87-.15,3,3,0,0,0-3,.29A12,12,0,0,1,97.38,126c-1.09-.07-2.24.07-3-1-.29-.36-.51-.07-.8,0a2.42,2.42,0,0,1-1.87.07c.14-.36.36-.65.5-1a.47.47,0,0,1,.36-.29A2.45,2.45,0,0,0,94.56,122.05Z"/><path class="cls-14" d="M125.09,79.34c-.43-.22-.86-.65-1.44-.36s-.36,1-.36,1.52c.14,1.73.65,3.47,0,5.21-.14.43-.29.94-.87.87s-.5-.58-.5-1c-.29-2.38-.44-2.53-2.89-2.17a1.16,1.16,0,0,1-1.3-.65c-.29-.65-.65-1.37,0-2a2,2,0,0,1,.58-.5c2.53-.94,2.24-2.39.43-4.27-.43-.08-.94-.15-1.37-.22-.94-.07-1.23-.58-1.37-1.52a3.87,3.87,0,0,1,.43-3.33c.29-.44,0-1-.43-1.38a1.23,1.23,0,0,1-.29-1.52c.07-.29.36-.36.65-.29.65.15.79.65.87,1.16a4.62,4.62,0,0,0,1.58,2.75c.51.44.8.94.15,1.52-.8.73-.29,1.16.36,1.45a8.46,8.46,0,0,0,1.52.36,1.7,1.7,0,0,1,1.44,1.16,1.68,1.68,0,0,0,2.53,1.16C125.46,77.82,125.17,78.61,125.09,79.34Z"/><path class="cls-15" d="M46.27,83.75a2.44,2.44,0,0,0,.58,2.1c.5,1.31,1.44,2.54,1.37,4.06a8.27,8.27,0,0,0-.51,1.88,1,1,0,0,1-.28.8,2.81,2.81,0,0,0-1.59,2.75.57.57,0,0,1-1,.29,2.13,2.13,0,0,1-1.95-1.09.66.66,0,0,1,0-.87c.94-.87.07-1.88.29-2.82A5,5,0,0,1,44.61,89c.29-.29.58-.58.22-1a10.74,10.74,0,0,1-1.59-2.9c-.65,1.16-.36,3-2.38,2.46a3.17,3.17,0,0,1-.22-1.81c0-.79-.14-1.52-1-1.81-.15.07-.22,0-.29-.14.29-1.45.29-3,1.73-4.06.58-.36.08-1.08.36-1.52a5.84,5.84,0,0,0,.73.29,1.37,1.37,0,0,1,1.58.87A7.21,7.21,0,0,0,46.27,83.75Z"/><path class="cls-16" d="M43.24,42.05c2.09.51,4.33.87,5.85,2.76.28.29.64.21.93.21.8.15,1.45.44,1.66,1.31a.4.4,0,0,1-.43.29,5,5,0,0,0-4.19-.37c-1.15.58-2.31,1.16-3.39,1.74a8.08,8.08,0,0,0-3.32,3.26,1.91,1.91,0,0,1-1,1.23,11.54,11.54,0,0,1-.65-9.27,2,2,0,0,0,.07-.65,6.27,6.27,0,0,0,3-.72A1.33,1.33,0,0,1,43.24,42.05Z"/><path class="cls-17" d="M37.46,75.72c0-.15-.14-.22-.21-.36a24.38,24.38,0,0,1-4.12-6.3,18.44,18.44,0,0,0-1.22-2A17.32,17.32,0,0,1,30.82,65a10.44,10.44,0,0,0-1.73-2.67,8.81,8.81,0,0,1-1.52-2.61,22,22,0,0,0-.86-2c-2.17-4.41-3.32-9.19-4.55-13.9-.36-1.52-.22-3.18-.94-4.63A3.05,3.05,0,0,0,19.27,39c-.28.29,1.74,8.26,1.95,9a66.91,66.91,0,0,0,3.18,8.25c2.6,5.43,6,10.28,9.24,15.21.79,1.16,1.59,2.31,2.31,3.47A2.42,2.42,0,0,0,37.1,76h.15C37.39,76,37.46,75.86,37.46,75.72Z"/><path class="cls-18" d="M64.68,108.3c-.65.21-1-.58-1.74-.44.08.65.8.65,1.16,1-.29.43-.79.29-1.16.5l-1.73-.65c-.72-.43-1.66-.65-2.09-1.45v-.14c1.08-2.25,1.08-2.25-1-3.77a5.31,5.31,0,0,1-1.16-.79,1.3,1.3,0,0,1-.5-1.09c.79-1.66,1.3-1.81,3.17-1.16a2.63,2.63,0,0,0,2.1-.29,1.6,1.6,0,0,1,.57-.07,6.23,6.23,0,0,1,1.95,1,1.39,1.39,0,0,1,.22.37,3.13,3.13,0,0,1-.14.79c-.58,1.67-.51,1.89,1.22,2a11.4,11.4,0,0,1,2.82.65c.79.51,1.88.65,2.31,1.66-.43.22-1.16-.5-1.37.44a3,3,0,0,1-3,.51c-1-.29-1.94-.87-3-1.09C63.16,107.5,64.53,107.43,64.68,108.3Z"/><path class="cls-19" d="M57.39,46.76a3.29,3.29,0,0,0,.36-.07.67.67,0,0,0,.79-.51,1.71,1.71,0,0,0,1.16-2.24,2.29,2.29,0,0,1,.79-2.68,5.28,5.28,0,0,0,2.67-.87c.51-.29,1.08-.58,1.66-.15s.43.95.22,1.53a1.17,1.17,0,0,0,.21,1.08c.29.73,1.09,1.23,1.09,2.1-.72,1.74-2,2.17-3.54,1.16a1.08,1.08,0,0,1-.14-.44c0-.29.07-.65-.29-.79a.78.78,0,0,0-.8.36.67.67,0,0,0-.07.94,1.75,1.75,0,0,0,.79.8c1.81.29,2.1.72,1.95,2.31-.14,1.74-.86,2.54-2.52,2.61-1.23-1.95-3.18-3-4.84-4.42C57,47.12,57,46.83,57.39,46.76Z"/><path class="cls-20" d="M65.18,43c-.58-.22-.94-.58-.5-1.23.21-.37.57-.87.07-1.24s-.94-.07-1.3.15a4.54,4.54,0,0,1-2.45.94c-.15,0-.29-.14-.51-.22a6.31,6.31,0,0,0-1.15,0,4.29,4.29,0,0,1,.79-3.11c2.09-.29,3-2,4.33-3.26,1.37.29,1.37.29,1,2.9.72-.29,1-.94,1.52-1.38s1.3-1.3,2.31-1.08c1.15,1.3.57,2.75.43,4.12a10.65,10.65,0,0,1-2,3.26,1,1,0,0,1-1.08.44A5.48,5.48,0,0,0,65.18,43Z"/><path class="cls-21" d="M124.52,88.68a9.15,9.15,0,0,0,2,.14c-.29,4-2.46,7-5,9.7a25,25,0,0,1-2.09,2,.79.79,0,0,1-.14-.58,12.83,12.83,0,0,0,.57-2.82,1.42,1.42,0,0,0-.36-1.09c-.21-.29-.5-.65-.36-1a8.67,8.67,0,0,0,.36-4.13,5.53,5.53,0,0,0,1.88-2.39c.29-.5.65-1.23,1.3-.79s0,.87-.22,1.3c-.21.65-.79,1.16-.43,1.88.14.29.14.58.51.65s.5-.29.57-.58C123.58,90.27,123.65,89.26,124.52,88.68Z"/><path class="cls-22" d="M64.46,35c-.79,1.09-1.37,2.25-2.6,2.9a2,2,0,0,1-1.8.29c1.08-3.69,2.31-7.39,3.1-11.22a22,22,0,0,1,2.53-6.81v-.14c.29-.58.43-1.52,1.37-1.09s.58,1.23.22,1.74c-1,1.52-1.09,3.33-1.59,5A2.52,2.52,0,0,0,66,27.58c.21.65.14,1.15-.65,1.37a1,1,0,0,0-.65,1.52,2,2,0,0,1-.22,2.17A1.71,1.71,0,0,0,64.46,35Z"/><path class="cls-23" d="M44.9,95.63c.79.07,1-.29.79-1-.36-.94-.21-1.44.87-1.66a1.17,1.17,0,0,0,.94-1.23,4,4,0,0,1,.65-2c.72-.07,1,.44,1.3.94a2.44,2.44,0,0,1-.15,1.45c-1.08,2.24-.65,3.84,1.45,5.07a14.61,14.61,0,0,1,3,2.53c.36.36.65.94,1.08,1.09a2.92,2.92,0,0,1,1.66,2.89c-.72.44-1.23-.21-1.8-.43a13.85,13.85,0,0,0-2.1-1c-1.15-.8-2.16-1.81-3.25-2.68a23.55,23.55,0,0,0-2.09-1.6C46.41,97.22,45.12,96.93,44.9,95.63Z"/><path class="cls-24" d="M99.18,37.93c-1.08,0-2.17.07-2.24,1.59-.07.65-.79.51-1.3.65-.36.15-.79.15-.86.58a.75.75,0,0,0,.57.87.94.94,0,0,1,.51,1.45c-.14.22-.29.51-.07.72.72.65.21,1.23-.07,1.81s-.37,1.09.36,1.31c1.37.36.72,1,.36,1.66-1.09-.65-2.24-1.38-2-3,.07-.43-.15-.5-.51-.5a2.32,2.32,0,0,1-1.37-.29c-.58-.29-1.23-.58-1.23-1.38S92,42.27,92.68,42c.44-.21,1.23-.07,1.09-1.08-.08-.8-.36-1.09-1.16-.87a4.64,4.64,0,0,0-1.73.79,2,2,0,0,1-2.45-.43c-1.16-1-1.23-3.4-.08-4.13.51.8,0,1.74.29,2.61.43,1.23.8,1.52,2,.8,1.44-.87,3-.8,4.55-1a4.77,4.77,0,0,0,1.44-.21c-.07-.94-1.73-1.09-1.23-2.1.37-.65,1.38-1,2-1.45.28-.22.5-.43.79-.65,1.08-.15,1.52.43,1.59,1.45s.29,1.66.43,2.53A.7.7,0,0,1,99.18,37.93Z"/><path class="cls-25" d="M65.76,27.79c-.36-.5-.79-.94-.58-1.59.65-1.66.44-3.62,1.59-5.21.14-.22.22-.44.36-.65.22-.44.36-.87-.07-1.16s-.8.07-1,.43a2.62,2.62,0,0,1-.36.58,10.78,10.78,0,0,1,2-5.14c.65.29.43.87.36,1.3s-.15.95.57,1c.22.79.87.65,1.45.58s1.23-.22,1.51.29-.07,1.08-.36,1.52c-.43.87-.94,1.73-1.37,2.6A11.17,11.17,0,0,0,68,25.62C67.64,26.78,67.06,27.79,65.76,27.79Z"/><path class="cls-26" d="M69.59,22.29c.57-1.09,1.08-2.1,1.66-3.11.43-.73.07-.87-.58-.87a11.16,11.16,0,0,1-1.52.14c-.94.08-1.3-.29-.72-1.15a7.47,7.47,0,0,1,1.44-3.62A8.35,8.35,0,0,0,71.1,10.2c.58-.94,1.23-1.88,1.81-2.82.79.58.28,1.16-.08,1.73a12.42,12.42,0,0,0-.43,4,4.64,4.64,0,0,0,1.95,3.54c.07.66-.51.73-.87.95-1.22.72-1.22.72-.65,2a2.44,2.44,0,0,0,.44,1.45.77.77,0,0,1-.36.65,1.3,1.3,0,0,1-.73,0c-.57-.14-.86.29-1.3.58S70,22.87,69.59,22.29Z"/><path class="cls-27" d="M80.05,18.53a6.36,6.36,0,0,0,.15-2,5.6,5.6,0,0,1,.86-3.19,3.25,3.25,0,0,0,.58-1.66c-.07-1.67,0-1.67,1.44-.94.58-.15.87.14,1.09.65-.15,1.37,1,1.81,1.8,2.32s1.73.86,1.52,2.24c-.15.94,1.08,1.59,1.37,2.53-.07.29.07.73-.36.87a.87.87,0,0,1-.87-.43c-.94-1.38-1.88-2.75-2.89-4.2a1.63,1.63,0,0,1-.21-.36c-.36-.58-.65-1.52-1.45-1.38s-.43,1-.65,1.52c-.07.22-.21.44-.28.73A6.13,6.13,0,0,1,81.57,18C81.28,18.53,80.92,19.32,80.05,18.53Z"/><path class="cls-28" d="M106.47,115.9c-1.66-.87-2.24.22-2.81,1.52-.29.58-.44,1.3-1.09,1.66-.21-.79.29-1.3.58-1.88.79-1.59.65-2-1.08-2.46a2.59,2.59,0,0,1-.72-.29,16.87,16.87,0,0,1-1.38-1.66,8.47,8.47,0,0,0,.15-4.06c.36-.29-.29-1.16.65-1.16a2.53,2.53,0,0,1,2.16,2,7.56,7.56,0,0,0,1.66,3A7.55,7.55,0,0,1,106.47,115.9Z"/><path class="cls-29" d="M39.41,52.55c1.09-3,3.54-4.7,6.35-6,.44-.21.87-.43,1.38-.65-.15,1.67-1.16,2.83-1.88,4.2-.94-.22-1.95-.87-2.6.36a2.85,2.85,0,0,0,1.16,3.91.49.49,0,0,1-.51.29,3,3,0,0,0-3,.8A2.88,2.88,0,0,1,39.41,52.55Z"/><path class="cls-30" d="M40.71,87.59c1.08-.14,1.81-.58,1.73-1.81,0-.43.22-1.08.65-1.08s.44.65.58,1A5.13,5.13,0,0,0,45,87.88c.58.44.58.87,0,1.3a6.85,6.85,0,0,0-1.66,1.89c-.14.07-.36.07-.5.14-1.23.22-1.45.73-.65,1.67.28.29.72.5.79.94,0,.21-.07.5-.07.72-1.45-.65-1.81-2.1-2.53-3.26a1,1,0,0,1-.14-.21C41.79,90.05,40.21,88.68,40.71,87.59Z"/><path class="cls-31" d="M31.91,77a.59.59,0,0,1-.73-.15c-4.83-4-9.81-7-14.07-11.72A98.92,98.92,0,0,1,6.43,50.52c-.29-.5-1.45-2.6-.51-3s2.24,3,2.53,3.55c3,5.87,7.36,10.86,11.91,15.49a66,66,0,0,0,5.27,4.93c1.15.94,2.38,1.88,3.61,2.82.64.44,1.22.87,1.87,1.3S31.62,76.3,31.91,77Z"/><path class="cls-32" d="M72.83,9.11c-.29-.57.58-1.08.08-1.73.21-.44.43-.94.65-1.38.14-.79.5-1.37,1.44-1.16.36.08.65-.21.87-.43s.64-.36,1,0a10.39,10.39,0,0,1,1.94,2.1c-1.51,1.16-3.24,2.1-4.33,4.27C74.49,9.33,73.63,9.26,72.83,9.11Z"/><path class="cls-33" d="M97.38,125.82a5,5,0,0,1,1.8-.51,7.18,7.18,0,0,0,3.25-1.09,3.38,3.38,0,0,1,4.33-.07c-1.23,2.82-3.68,2.75-7.15,2.54A3.62,3.62,0,0,1,97.38,125.82Z"/><path class="cls-34" d="M31.91,77c-.51-.29-1.09-.51-.08-.94a26.13,26.13,0,0,0,4.48,2.1c.36.07.65.5,1,.07a1.08,1.08,0,0,0,0-1.23,9.72,9.72,0,0,1-1.44-2.61c1.66.94,2.81,2.25,4.18,3.12.07.58-.36.86-.72,1.08a6.13,6.13,0,0,0-2,2.32,4,4,0,0,0-.79,1.59,1.09,1.09,0,0,1-.72.65C36.31,79.7,36,79.05,31.91,77Z"/><path class="cls-35" d="M102.86,109.53a11.48,11.48,0,0,0-2.16-2,7.53,7.53,0,0,0-3.4-3,.56.56,0,0,1-.57-.14c-1.3-1.09-1.38-1.31-.73-2.39,2.46-.07,4,1.52,5.42,3.18a4.78,4.78,0,0,0,2.45,2.32c.29.15.65.22.58.72C104,108.73,103.22,109,102.86,109.53Z"/><path class="cls-36" d="M37.1,80.86c.36-1.67,2.1-2.17,3-3.4a2.2,2.2,0,0,1,1.3.79c.43.87.51,1.67-.65,2.17-.65.29-.72,1-.86,1.6s0,1.3-.58,1.73a1.16,1.16,0,0,1-1.3-.43A19.56,19.56,0,0,1,37.1,80.86Z"/><path class="cls-37" d="M91.89,22.07c-.94.44-1.37-.72-2.09-.94.21,2.54,1.8,4.27,3.61,5.79.43.58.72,1.45,1.8.95a.88.88,0,0,1,.07-.58A20.92,20.92,0,0,1,91.89,22.07Z"/><path class="cls-38" d="M43.24,42.05a3.17,3.17,0,0,0-1.81.37c-.79.36-1.66.87-2.59.21a4,4,0,0,1-.22-3c.22-1.08.72-1.59,1.88-1-.65,1.45-.37,2,1.15,2.32C42.37,41,43.17,41,43.24,42.05Z"/><path class="cls-39" d="M40.21,55.38a1.84,1.84,0,0,1,2.45-1.24,5,5,0,0,0,1.08.15,2,2,0,0,1,.8,2.17c-.65.8-1.3,1.59-2.46,1.38L42,57.76l-.14-.07a3.19,3.19,0,0,1-1.3-1.3,3.72,3.72,0,0,0-.51-.65C40.13,55.59,40.13,55.45,40.21,55.38Z"/><path class="cls-40" d="M104.45,108.22c-1.3-.65-2.67-1.23-3.18-2.75.51-1,.8-1,1.74.08.21.14.5.21.65.43.72.94,1.3,1.74,2.59.51.8-.8,1.81-.15,2.31,1.23A27.45,27.45,0,0,1,104.45,108.22Z"/><path class="cls-41" d="M71.1,10.27A2.58,2.58,0,0,1,70.74,13c-.94,1.38-1.37,3-2.31,4.35-.22.14-.5.36-.65.29s-.29-.51-.22-.8a1.82,1.82,0,0,0,0-1.74C68.29,13.1,69.87,11.79,71.1,10.27Z"/><path class="cls-42" d="M47.14,98c2,.58,3.17,2.17,4.69,3.33a3.28,3.28,0,0,1,.72.72,8,8,0,0,0,2.89,2c.57.43,1.51.43,1.44,1.45-2-1-3.9-2-5.77-3.12a7,7,0,0,1-2.31-2.31A6.77,6.77,0,0,0,47.14,98Z"/><path class="cls-43" d="M93.41,26.92c.65.22.93,1.09,1.8.95A21.62,21.62,0,0,0,97.38,32a.71.71,0,0,1-.44.87C94.7,31.49,93.84,29.31,93.41,26.92Z"/><path class="cls-44" d="M119.54,100.12a1,1,0,0,0-.15.5,34.88,34.88,0,0,1-3.9,3.41c-1.08-1,.29-1.6.44-2.39C116.43,100.19,118.45,99.39,119.54,100.12Z"/><path class="cls-45" d="M59.26,41.4c.44-.65.8-.79,1.16,0-.8,1-.51,2.17-.36,3.33s-.29,1.52-1.52,1.45C58.11,44.44,58.83,42.92,59.26,41.4Z"/><path class="cls-46" d="M56.88,105.55c-.29-.8-1.3-.66-1.8-1.16-.08-.51-.65-.8-.44-1.38.65.15,1,.8,1.74.65.14-.43.07-.94.65-1.15.43.28.86.5,1.29.79.65,1.38.51,2-.64,2.9A2.23,2.23,0,0,0,56.88,105.55Z"/><path class="cls-47" d="M100.77,38.94a.24.24,0,0,0-.07-.14,2.29,2.29,0,0,0-.58-.36c-.29-.15-.65-.29-.94-.44.29,2,.51,4,1.88,5.72a.6.6,0,0,0,.29-.14C101.06,42,100.91,40.46,100.77,38.94Z"/><path class="cls-48" d="M57.75,106.05a3.22,3.22,0,0,0,.65-2.89,4.92,4.92,0,0,0,.65.58c1.87,1.52,1.87,1.88.07,3.54C58.69,106.92,58.18,106.49,57.75,106.05Z"/><path class="cls-49" d="M6.14,45.53c0,.72-.29,1.38.14,2.1A7,7,0,0,1,7.07,50,8.09,8.09,0,0,1,3.9,46.47C4.48,45.75,5.41,45.82,6.14,45.53Z"/><path class="cls-50" d="M37.9,83.1l1.37.73c.07.07.14.14.22.14l-1,.58c-1.37.65-2.09.29-2.74-1.37.22-.29.36-.58.58-.87A1.4,1.4,0,0,1,37.9,83.1Z"/><path class="cls-51" d="M43.67,79.48c-.5-.29-1-.58-1.59-.87.44-.57.22-1.37.51-2,.5-.65.94-.15,1.3.14a1.46,1.46,0,0,1,.43,1.52C44.1,78.69,43.89,79.05,43.67,79.48Z"/><path class="cls-52" d="M21.29,39.3a2.58,2.58,0,0,1-1.94-.14c-.29-.65-.73-1.38-.29-2a1.33,1.33,0,0,1,1.3-.43c.65.07.72.65.93,1.08A1.61,1.61,0,0,1,21.29,39.3Z"/><path class="cls-53" d="M6.14,45.53c-.51.87-1.38.87-2.24.87-.36-.87-.43-1.67.65-2S6.14,44.37,6.14,45.53Z"/><path class="cls-54" d="M77,4.63c-.22-.08-.58-.37-.72-.15a1.32,1.32,0,0,1-2,.65c-.36-.14-.51.58-.79.87.43-2,2.09-2.82,3.53-1.59a.14.14,0,0,1,0,.22Z"/><path class="cls-55" d="M77,4.63c0-.08.07-.15.07-.22,1.3,0,1.81.94,2.17,2-.15,0-.22.07-.36.07C78,6.07,77.24,5.57,77,4.63Z"/><path class="cls-56" d="M41.94,38.43c.5.44,1.73.66,1.37,1.16-.43.73-1.15-.29-1.8-.5a9.6,9.6,0,0,1-1.09-.58A1.33,1.33,0,0,1,41.94,38.43Z"/><path class="cls-24" d="M96.87,32.86,97.3,32a2.82,2.82,0,0,1,.8,2.46C97.38,34.09,97.23,33.44,96.87,32.86Z"/><path class="cls-57" d="M96.08,102.07c-.58,1.09.36,1.52.86,2.17-1.22.07-2.45.07-3-1.37-.43-1-1.3-.15-1.88-.37-.79-.5-1.58-.86-1.73.58a1.13,1.13,0,0,1-.65.87c-1.22.73-1.66,2.25-2.81,3,.43,1.16-.22,2.18-.51,3.19a3.64,3.64,0,0,1-5.34.07c-.58-.72-1.08-1.08-1.73-.07-.58.8-1.73.36-2.24-.8a5,5,0,0,0-2.24-2.46,1.29,1.29,0,0,0-1.51,0c-.22.15-.36.44-.65.15a.55.55,0,0,1,0-.73c.21-.36.36-.72.57-1.16a.33.33,0,0,1,0-.36.64.64,0,0,1,.65-.36c1.45,1.81,3.4,1.38,5.27,1.09h.65a.91.91,0,0,1,.65,0c.29,0,.65.21.72-.22a.69.69,0,0,0-.43-.73c-.43-.21-.5.15-.58.44s-.14.58-.57.58a8.43,8.43,0,0,1-2.67-.65,1.69,1.69,0,0,1-.94-1.16A5.37,5.37,0,0,1,76,101.2a1.29,1.29,0,0,1,2.09-.14,3.85,3.85,0,0,0,2.82,1.08,4.44,4.44,0,0,0,4.33.51c.94.14,1.51-.22,1.59-1.23a1.79,1.79,0,0,1,.43-1,11.59,11.59,0,0,1,2.82-.58,3.36,3.36,0,0,0,2-1.23c.57-.08,1.15.21,1.73,0a.77.77,0,0,1,.36.14,8.24,8.24,0,0,1,1.23,1.81C95.35,101,96,101.42,96.08,102.07Z"/><path class="cls-58" d="M100,112.64c.65.36,1.23.72,1.23,1.59-.58.94-1.51,1.67-2,2.68a2.19,2.19,0,0,1-1.73.58c-.87,0-1.66.07-2.53.15a1.52,1.52,0,0,1-1.8-.87.8.8,0,0,1,.07-.73c.94-1.3.58-2.46-.36-3.54a1.92,1.92,0,0,1,2.6-.37c.94-.14,1.66.8,2.67.44C98.68,112.57,99.32,112.13,100,112.64Z"/><path class="cls-59" d="M80.12,112.79c1.16.43.58,1.23.44,1.95-.08.36-.58.65-.22,1s.65.08.94,0c1.15-.07,2.31-.14,3.39-.29a.75.75,0,0,1,.65.37,5.21,5.21,0,0,0,2.31,1.88c-2.24.94-4.11-.22-6-.29-.07-.15-.07-.36-.29-.44,0,.15.07.22.07.37-.29.14-.57.43-.94.29-2.3-.8-4.76-1.09-7-2.25-.43-.22-1.15-.43-.94-1A2.86,2.86,0,0,1,74,112.64c.65-.22.72.43.86.87.15.94.58,1.52,1.66,1.37a2.34,2.34,0,0,1,1.52.58,1.09,1.09,0,0,0,1.44.08c-.07-.51-.79-.44-.79-.87A9.19,9.19,0,0,0,80.12,112.79Z"/><path class="cls-60" d="M101.71,120.31c.36.15.79.37,1.15.51s.72.15.58.65-.43.58-.79.44c-.8-.36-1.3,0-1.88.58a1.16,1.16,0,0,1-1.88-.15c-1.3-1.45-1.8-1.45-3.75-.58a.07.07,0,0,1-.07-.07c-.22-1.38-1.38-1.81-2.39-2.39a3.39,3.39,0,0,1,3.25-1.3,11.69,11.69,0,0,1,4.12,1.23c.14,0,.21.07.36.14C100.84,119.66,101.42,119.81,101.71,120.31Z"/><path class="cls-61" d="M92,102.51c1.59-.87,1.59-.87,2.38.57.29.51.65,1,1.3.73s.87.29,1.3.36c.15.07.29.22.44.29a4.08,4.08,0,0,1-5,2.24,1.83,1.83,0,0,1-1.16-2.89A11.31,11.31,0,0,0,92,102.51Z"/><path class="cls-62" d="M64.68,108.3c-.65-.44-1.45-.58-1.88-1.31-.22-.36-.36-.72-.07-1.08s.65-.15.94,0c.5.29,1.08.5,1.58.79a5,5,0,0,0,4,.15,11.55,11.55,0,0,0,3.69,3C70,110.25,67.42,109.09,64.68,108.3Z"/><path class="cls-63" d="M100,112.64a15.42,15.42,0,0,1-1.8.15c-.51-1-1.66-.87-2.38-1.53.79-2,2.16-3,4.33-2.6C100.7,110,101.13,111.34,100,112.64Z"/><path class="cls-64" d="M100.12,119.52c-1.08,0-1.81-.87-2.82-1.09a5.76,5.76,0,0,0-4.62.8c-.72-.94.08-1.67.44-2.39,1.95.94,3.89.43,5.84-.07.51.29,1.66-.36,1.38,1C99.69,118.29,100.12,118.94,100.12,119.52Z"/><path class="cls-65" d="M80.85,110.25c.79.22,1.51.58,2.31.73A2.81,2.81,0,0,0,86,110a1.52,1.52,0,0,1,1.52.8c0,1.16-.65,1.52-1.73,1.45-1.3-.08-2.6-.08-4-.15a2,2,0,0,1-1.09-.22c-.72-.36-1.22-.72-.21-1.3C80.63,110.54,80.77,110.4,80.85,110.25Z"/><path class="cls-66" d="M87.49,110.83A15.89,15.89,0,0,0,86,110c.22-1,.43-2,.72-3,.65.15,1.23-1,2,0,1,1.31,1,1.81-.14,2.9A12.94,12.94,0,0,1,87.49,110.83Z"/><path class="cls-67" d="M73.19,104.89c0,.08-.07.22-.07.29-.43.08-.5.44-.65.73a1.18,1.18,0,0,1-1.8.58c-.94-.51-1.81-1-2.74-1.45-.29-.44-.51-.87-.15-1.38s.79-.21,1.23-.14a4.64,4.64,0,0,0,2.81.43C72.4,104.17,72.91,104.32,73.19,104.89Z"/><path class="cls-68" d="M92.25,116.41h-.14c-.87.07-2,.5-2.39-.73-.36-.94.29-1.81,1.66-2.32.15-.07.37-.07.51-.14C93.26,113.8,93.41,115.25,92.25,116.41Z"/><path class="cls-69" d="M92.25,116.41c.72-1.53.65-2.18-.36-3.19a4.24,4.24,0,0,1,.94-.58c1.51.87,1.73,1.67.94,3.11a5.72,5.72,0,0,0-.58,1.16A10,10,0,0,0,92.25,116.41Z"/><path class="cls-70" d="M94.56,122.05c.07,1.16-.36,1.81-1.59,1.67a2.7,2.7,0,0,0-.72.14c-.5-1.74,0-2.53,1.44-2.46A.8.8,0,0,1,94.56,122.05Z"/><path class="cls-71" d="M95.79,111.26c.94.29,2.31-.14,2.38,1.53-1.16.72-2-.15-2.82-.66C94.92,111.63,95.28,111.41,95.79,111.26Z"/><path class="cls-72" d="M80.12,112.79c-.14.86-.14,1.81-1.37,1.95a1.38,1.38,0,0,1-.07-1.95C79.11,112.06,79.62,112.64,80.12,112.79Z"/><path class="cls-73" d="M90.81,117.71a1.39,1.39,0,0,1-.94.79,2,2,0,0,1-1.66-.5c-.07-.07-.07-.29-.07-.29.43-.36.93-.22,1.44-.22A4.27,4.27,0,0,1,90.81,117.71Z"/><path class="cls-74" d="M62.94,109.38c.15-.72.73-.43,1.16-.5.36.21,1,.36.72.94s-.72.07-1.08-.08C63.45,109.74,63.23,109.53,62.94,109.38Z"/><path class="cls-75" d="M81.5,117.35c-.29-.22-.73-.37-.58-.87.07-.22.29-.22.43-.07.43.21.65.57.36,1A.26.26,0,0,1,81.5,117.35Z"/><path class="cls-76" d="M110.59,80.93c.36,1.74.64,2.17,2.45,2.39.79.07.94.51.94,1.16,0,.43-.36.94.14,1.3-.21.51-.72.29-1.15.36a29.49,29.49,0,0,0-4.33.94,1.3,1.3,0,0,1-1-1.52,2.26,2.26,0,0,1,.43-.72c1.15-1.37,1.15-1.37.07-2.9a.88.88,0,0,1-.22-.72c.29-1-.36-1.09-1.08-1.09h-.5c-1.81.08-1.88,0-1.88-1.8-.07-.8-.65-.87-1.23-1.09A4.5,4.5,0,0,1,101,74.49a.88.88,0,0,1,.65-.94,17.46,17.46,0,0,1,1.88-.65.84.84,0,0,1-.58-.51c.51-.15,1,.29,1.45-.07.65.5,1.15.36,1.44-.44.22-.14.36-.07.58.07,1-.36,2.31.15,3.17-.94a4.19,4.19,0,0,1,2.24-1.3c.94-.14,1.3.22,1.09,1.16-.58,2.17-.29,4.41-.87,6.59-.22.72.36,1.08,1,1.23a11,11,0,0,0,1.52.07c.36,1.88-1.09.87-1.74,1.09a3,3,0,0,0-3,.36C109.86,80.64,110.44,80.5,110.59,80.93Z"/><path class="cls-77" d="M102.86,72.39c.22.22.65.22.65.51s-.36.43-.65.5c-.14.07-.36.07-.5.15-1.52.5-1.3.36-.65,1.88a2.61,2.61,0,0,0,2.23,1.66c.58.15,1,.51.73,1.23.07.22-.08.51-.29.44-1.16-.15-1.45.43-1.37,1.45,0,.21-.15.36-.29.58a2.8,2.8,0,0,1-2,.21,1.65,1.65,0,0,1-.8-.94,5.64,5.64,0,0,0-2.38-3,1.58,1.58,0,0,1-.72-1.52,6.43,6.43,0,0,1,.29-1.66c.14-.73.07-1.23-.87-.94-.36.07-.72.29-1.08-.07-.36-2,.94-3,2.52-3.62,1.66-1.24,3.32-.15,4.91.14.51.07.29.43.08.65a1.47,1.47,0,0,1-1.23.15c-.65-.08-1.37-.08-1.3.87.07.79.29,1.44,1.3,1.3A9.87,9.87,0,0,1,102.86,72.39Z"/><path class="cls-78" d="M109.5,70.94c.22.72-.36.8-.72.94a3.8,3.8,0,0,1-2.38.07C107.05,70.51,108.35,71,109.5,70.94Z"/><path class="cls-79" d="M105.75,71.88c.65.8-.07.87-.51,1s-1.08.28-.86-.58A1,1,0,0,1,105.75,71.88Z"/><path class="cls-80" d="M79.11,19.18c.22-.07.44-.15.73-.22.57.29.28.94.43,1.38s.29.79.86.36.8-.73,1.38-.58A2.27,2.27,0,0,0,85,19.47c.51-.51.94-.29,1.3.21s.36.95-.29,1.16-1.3.51-1.08,1.16a2.46,2.46,0,0,0,1.87,1.45,3.06,3.06,0,0,1,1.59.43c.51.37.72.73-.07,1.09a16.3,16.3,0,0,1-2.38.87,7.05,7.05,0,0,0-1.37.58c-1,.58-.94,1.16-.15,1.88,1.74,1.66,2.46,1.59,3.68-.51.44-.79.73-.87,1.3-.07,1.3,1.81,1.3,2.68-.14,5a.73.73,0,0,1-.22-.08c-1.22-2.39-1.3-2.39-4.11-.43a6.77,6.77,0,0,0-3.47,1.52,2.5,2.5,0,0,1-1.87.65,3.44,3.44,0,0,0-3.54,2c-.36.5-.72,1.08-1.44,1-.87-.44-.73-1.16-.51-1.88a7.67,7.67,0,0,0,.43-2.25,23.21,23.21,0,0,0,3.25-4.63A35.59,35.59,0,0,1,81.5,27c.65-.29,1-.58.86-1.31s0-1.37-.14-2.17c-1.16.65-1.3,2-2.24,2.75a8.09,8.09,0,0,0-2.38,2.32c-1.23,2.39-3.32,4.13-5.13,6.08-.65.72-1.15.22-1.3-.43a6.6,6.6,0,0,1,1-5.87c.94.15,1.38-.14,1.52-1.16.29-1.73.72-1.88,2.09-.87.51.44.8.29,1.09-.21a3.78,3.78,0,0,0,.21-.51A21,21,0,0,1,79.11,19.18Z"/><path class="cls-81" d="M88.28,36.41a3.17,3.17,0,0,0-.07,3.47,1.73,1.73,0,0,0,2.6.65,5.23,5.23,0,0,1,2.52-.79c.51,0,.87,0,.65.72a1.24,1.24,0,0,0,.08,1c.28.43.07.57-.37.72a3.59,3.59,0,0,0-.57.22c-.72.29-1.59.43-1.52,1.44,0,.58,1.59,1.38,2.31,1.16.94-.21,1.37-.29.8.87a1.28,1.28,0,0,0,.5,1.67,3.43,3.43,0,0,1,1.08,1.23v.58A14.12,14.12,0,0,0,93,51.9a1.48,1.48,0,0,1-2,.51,3.08,3.08,0,0,1-1.3-2.68,15.94,15.94,0,0,1,.65-2.17,32.25,32.25,0,0,1-3.46,1,1.22,1.22,0,0,0-1.08,1.09,2,2,0,0,1-.29.94,1.5,1.5,0,0,1-.94.29c-1.23-1.09-1.23-2.39.07-3.62a20.11,20.11,0,0,1,2-1.52c1.3-.94,1.52-1.38,1.74-3.12.14-.14-.22-.07,0-.07.07,0,.07.07,0,.15a7.38,7.38,0,0,1-5.13,1.44.72.72,0,0,1-.79-.79c-.08-.44,0-.87-.08-1.31-.28-1.3.44-2.09,1.38-2.82a20,20,0,0,0,3.1-2.68,5.68,5.68,0,0,1-4.91.58c-.72-.29-1.37-.65-1.51-1.37s.5-1.23,1-1.67a6.37,6.37,0,0,1,3-1.37c1.44-.08,2.74.14,3.53,1.66.22.44.51.07.65-.22s.58-.65,1-.43a.77.77,0,0,1,.51.65.79.79,0,0,1-.65.8C88.79,35.32,88.57,35.9,88.28,36.41Z"/><path class="cls-82" d="M84.45,32.64c-.43.66-1.29.58-1.87,1a7.18,7.18,0,0,0-1.23.87c-.94.94-.79,1.66.43,2.17A4.75,4.75,0,0,0,86,36.55a9.11,9.11,0,0,1,1.81-.72,11.69,11.69,0,0,1-3.47,3.33c-.94.72-1.88,1.37-1.59,2.82-.21.29-.57.36-.79.58-.65.44-1.66.58-.65,1.74.43.43.07,1-.51,1.37-.43.29-.93.44-1.22.87-.8.65-1.59,1.16-2.53.15a4.38,4.38,0,0,1,.87-2.25c.21-.5.65-.94.57-1.52-.07-.07-.14-.14-.21-.07-2.24,1-2.38.94-3.76-1.16a5.18,5.18,0,0,0-.79-1A1,1,0,0,1,73.84,39c.58-.29,1.23-.5,1.81-.86,1.37-.8,1.37-1.24,0-2a3.59,3.59,0,0,1,3.75-2c1.08.15,1.81-.72,2.6-1.23a2.93,2.93,0,0,1,2.74-.65A.8.8,0,0,0,84.45,32.64Z"/><path class="cls-83" d="M82.36,20.12a3.18,3.18,0,0,1-.65.43c-.58.22-.94,1.31-1.51.87s-.44-1.3-.36-2c0-.15-.08-.22-.08-.37s.15-.29.22-.43c1.15.29,1.3-.58,1.37-1.3a5.09,5.09,0,0,1,.65-2c.43.14.65.72,1.23.58,1.51-.22,1.08.58.65,1.3A29.79,29.79,0,0,1,82.36,20.12Z"/><path class="cls-84" d="M42.59,65.08c.79.43,1.51.79,2.31,1.23.43,0,.58.58,1.08.72.29-1.23-.58-2.24-.58-3.33a1.33,1.33,0,0,1-.07-1.45c.29-.72.65-1.16,1.37-.36S48.15,63,48.22,64c.07.36.07.8.58.87s.79-.22,1-.58c.14,0,.21,0,.29.14a1.29,1.29,0,0,1-.08.73c.51-.65.73-1.38,1.23-2a1.37,1.37,0,0,1,1.81-.36c.5.36.5.94.57,1.45.08.8.44.94,1.09.43a16.68,16.68,0,0,0,1.8-1.15c.72-.44.87-1.31,1.52-1.74.36-.22.65-.07,1,.07a6.72,6.72,0,0,0,3.61,1.59A7.31,7.31,0,0,1,66,65.87a6.62,6.62,0,0,1-.22,2.61c-.07.22-.07.51-.14.72-.08,1.67.21,1.89,1.73,1.31a3.29,3.29,0,0,1,.36.07c.79,1,.72,1.52-.51,2.89-.94,1-2.38,1.38-3.24,2.54-1.45.79-3,1.37-3.9,3a.64.64,0,0,1-1,.07,2.06,2.06,0,0,1-.51-1.23,3.65,3.65,0,0,1,.07-.87c.15-.58.36-1.23-.36-1.59s-1.08.21-1.51.65c-.65.51-1.16,1.23-2,1.45-.58.5-.94.43-1.16-.37A4.86,4.86,0,0,1,54,73.62l1.52-2.82c-.07-1.31,1.08-2.18,1.3-3.55-.51.43-.58,1.08-1.23,1.23-1.15.14-1.66,1.23-2.52,1.88-.37.22,0,.51.14.8a.76.76,0,0,1-.36,1.08c-.51.29-.94-.07-1.23-.36s.15-.58.36-.72c.72-.58.51-.87-.29-1.09a5.76,5.76,0,0,0-1.51-.29c-.58,0-.58-.36-.65-.72-.36-.15-.65-.44-1-.58-1.73-.51-2.38,0-2.24,1.81.07.43.22.94-.22,1.3-.86,0-.93-.72-1.22-1.23-.58-1.08-.87-2.46-2.24-3-.43-.14-.43-.65-.22-1A7.19,7.19,0,0,0,42.59,65.08Z"/><path class="cls-85" d="M51.54,81.66c2.09.94,2.38.72,3-2.25.87.15,1,.94,1.37,1.52s.22,1.88.94,2,.87-1.16,1.37-1.81.51-1.45,1.23-1.23.21,1.08.21,1.66a14.82,14.82,0,0,0,.22,3c.07.36.14.87-.22,1.09s-.65-.15-.86-.37c-.51-.36-.72-.14-.8.37a4.14,4.14,0,0,0-.21,1.44,39.13,39.13,0,0,0,3.46-2.17,4.87,4.87,0,0,1,1.3-.79c.51-.15,1.08-.22,1.37.36s0,.94-.43,1.3a2.64,2.64,0,0,1-.65.36c-1.08.37-1.44,1.38-1.8,2.32s.79.94,1,1.52c-.44.43-.51.51-1.09.22a1.62,1.62,0,0,0-1.8-.07c-.15,0-.22.07-.36.07-.87,0-1.45.65-2.1,1.16-.43.36-.86.94-1.44.5s-.14-1,0-1.52a7.79,7.79,0,0,1,.94-1.66A5.78,5.78,0,0,0,55,90.41c-.36.66-.79,1.38-1.66,1.09s-.72-1.16-.72-1.88.44-1,.44-1.59c-.22-.29-.51-.15-.73,0A1.09,1.09,0,0,1,50.89,88a1.12,1.12,0,0,1-.29-1.44A4.43,4.43,0,0,0,51,83.32,1.14,1.14,0,0,1,51.54,81.66Z"/><path class="cls-86" d="M51.54,81.66c-.14.36-.51.72-.43,1,.21,1.45.43,2.89-.44,4.27-.14.22.08.65.44.87a.67.67,0,0,0,.93-.15c.44-.36.87-.65,1.38-.29s-.15.8-.29,1.24c-.07.14-.22.28-.22.43-.07.72-.36,1.74.43,2.1s1.09-.58,1.45-1.16.5-1,.79-1.45.72-1.08,1.16-.72-.15.94-.44,1.3A3.36,3.36,0,0,0,55.37,91c0,.22-.29.51,0,.73s.5-.15.72-.29c.86-.65,1.44-1.81,2.81-1.45.15,1.09-.94,1.88-.58,3a.93.93,0,0,1-.07.43,5.34,5.34,0,0,1-1.15,2,2.05,2.05,0,0,1-1.16.22c-1.15-2.1-1.15-2.1-3.68-1.6-.14,0-.36.07-.5.07a1.24,1.24,0,0,1-.87-.72c-.22-1-1-1.66-1.52-2.53-.43-.29-.79-.65-1.22-.94-.22-1.31-1.3-2.39-1.23-3.84a2.72,2.72,0,0,0,3-2.25,7,7,0,0,1,.72-2.38c.15-.29.22-.73.72-.58S51.68,81.22,51.54,81.66Z"/><path class="cls-87" d="M50.67,72.39a6.29,6.29,0,0,1,.65.79c.22.37.36.8,0,1s-.79.29-1.08-.29c-.14-.29-.43-.58-.65-.15a34.8,34.8,0,0,0-2.31,4.56c-.07.22.07.51.07.73-.36.14-.5.65-.94.65a1.86,1.86,0,0,1,0-2.24,6.66,6.66,0,0,0,.8-3,5.38,5.38,0,0,1,.29-1.52c.29-.58.07-1.67,1-1.67s.21,1.09.72,1.52A4.83,4.83,0,0,0,50.67,72.39Z"/><path class="cls-88" d="M54.64,77.46a6.71,6.71,0,0,1,1.81-1.67,2.92,2.92,0,0,1,2.16,2c.08.36.22.72.29,1-.14.94-.72,1.3-1.66,1.3-.58-1-1.3-1.66-2.52-1.15A1.05,1.05,0,0,1,54.64,77.46Z"/><path class="cls-87" d="M45.84,71.52c-.08-.87-.15-1.67-.15-2.53-.07-.66.36-1.09.94-.95.94.15,2.24-.65,2.67.95a15.77,15.77,0,0,0-2.38,2.53C46.7,71.81,46.2,72.1,45.84,71.52Z"/><path class="cls-89" d="M46.41,79.77c.22-.29.29-.94.94-.65a11,11,0,0,1,.44,3c-.15.87-.15,2-1.52,1.67C47.21,82.45,46.34,81.08,46.41,79.77Z"/><path class="cls-90" d="M54.64,79c1.45-1.09,2.17-.8,2.46,1a1.19,1.19,0,0,1-1.45.87c-.36-.51-.79-1-1.15-1.52A.56.56,0,0,0,54.64,79Z"/><path class="cls-91" d="M55.37,68.48c.5-.65.57-1.67,1.58-2.1.29,1.88-1.08,3-1.66,4.34-.57-.29-.43-.72-.21-1.23C55.22,69.2,55.58,68.91,55.37,68.48Z"/><path class="cls-92" d="M50.67,72.39c-.29.72-.79.94-1.44.43a1.54,1.54,0,0,1,.94-.94C50.67,71.74,50.82,72,50.67,72.39Z"/><path class="cls-93" d="M51.11,80.13c-.36-.5-.51-.94,0-1.3.14-.07.36-.14.43.07C51.76,79.34,51.4,79.63,51.11,80.13Z"/><path class="cls-94" d="M108.78,86.94c.36-.58.94-.58,1.44-.72,1.3-.22,2.6-.37,3.9-.51.22.07.51.07.72.14s.51.15.51.51-.36.36-.58.44a11.48,11.48,0,0,1-1.66.28c-.29.08-.58.22-.5.58s.36.29.65.37l1.22.21c.65,0,1,.51,1.45.87a12.68,12.68,0,0,0,2.6,1.31c.28.14.57.28.93.5a4.25,4.25,0,0,1,.08,3.62,1.44,1.44,0,0,0,.14,1.52,4.41,4.41,0,0,0-1,.44h-.36c-.72-.29-1.44-.51-2.17-.8-.5-.22-.93-.8-.5-1.23s.07-.58-.07-.94c-.36-.73-.73-.58-1.16-.15a3.54,3.54,0,0,1-3.32.94c-.58-.07-1.08,0-1.66-.07-1.08-.07-2.17,0-2.67-1.23a1.52,1.52,0,0,0-1.52-.72c-.43.07-.93.29-1.37,0a2.13,2.13,0,0,1-.36-1.74c.07-.94-.29-1.74-.22-2.68.58-.94,1.3-.51,1.95-.14a3.15,3.15,0,0,1,.22.29c.14.43-.14,1.15.65,1.23s1.08-.44,1.44-.94S108.13,87.23,108.78,86.94Z"/><path class="cls-95" d="M118.6,90.49c-1.37.29-2.24-.58-3.18-1.31-.29-.29-.5-.72-.94-.86C116.36,88.1,117.88,88.53,118.6,90.49Z"/><path class="cls-96" d="M110.59,80.93c-.58,0-1.38-.14-1.45-.72s.8-.73,1.3-.8c.79-.14,1.66-.58,2.24.36C112,80.13,111.31,80.5,110.59,80.93Z"/><path class="cls-21" d="M124.52,88.68,124,88c-.14-.21-.29-.58,0-.79a.9.9,0,0,1,.65,0c.36.14.36.43.22.72A4,4,0,0,1,124.52,88.68Z"/><path class="cls-97" d="M55.73,80.86c.5-.29.93-.58,1.44-.87.79,0,1.23-.65,1.73-1.16.29.15.65.36.8.07.79-1.73,2.38-2.39,4-3,.21.94.43,1.81.72,2.75-.36.44-1.52.58-.8,1.6a1.47,1.47,0,0,0,2.24.21c.65-.5,1.23-1,1.88-1.59,1.15-1,1.15-1.16-.15-2-.21-1.08.22-2.38-.79-3.33a12,12,0,0,0,.87-1.23,1,1,0,0,0-.36-1.59c.14-.22.43-.22.72-.22,1.87-.36,2.45-1.23,2.31-3.18-.08-.8-.44-1.67.65-2.1A16.26,16.26,0,0,0,74.35,68a2.87,2.87,0,0,1,1.15,3.12c.15.72-.36,1-.79,1.3a3.32,3.32,0,0,1-1.23.36c-2.6.36-3,.94-2.45,3.48,1,1.81,1.37,1.88,3,.65a2.68,2.68,0,0,0,1.73-3.48,3.09,3.09,0,0,1,.22-2.1c1.3.37,2,1.53,2.81,2.39V74l-.07.07c-.58.22-.72.51-.29,1,.22.29.51.43.72.72a.61.61,0,0,1,.08.36,15.66,15.66,0,0,1-1.66,3,5.75,5.75,0,0,0-2.68,3.26c-.5,1,.22,1.52.87,2A24.21,24.21,0,0,0,81,87.52a.41.41,0,0,1,.22.36c-.29,1.3-1.3,2-2.39,1.45a9.24,9.24,0,0,0-4.4-.8c-1.66-.94-3.46-.58-5.2-.14-.28-.07-.36-.29-.5-.58-.87-1.59-1.08-1.74-2.82-1.52a2.71,2.71,0,0,1-3.24-.36c.36-.44,1.51-.58.86-1.38-.5-.65-1.3-.14-1.8.36C60.63,86,59.12,86.43,58,87.37c-.21.15-.5.37-.79.15s-.07-.51,0-.72.07-.37.14-.51c.51-2.1.51-2.1,2.17-.58a29.4,29.4,0,0,1-.36-5.65c-.51,1-1.08,2-1.59,3-.14.29-.22.72-.65.65a.91.91,0,0,1-.72-.79C56,82.16,55.87,81.51,55.73,80.86Z"/><path class="cls-98" d="M78,69.57c-1.8-1.81-3.46-3.77-5.12-5.65a4.53,4.53,0,0,0,3-1.59,2.3,2.3,0,0,0-3,1.44c-2-2.82-4.62-5-6.93-7.45-.72-.8-1.44-1.52-2.16-2.32a1.79,1.79,0,0,1,.94-.51,1.93,1.93,0,0,1,1.37.87,1.21,1.21,0,0,0,2,.07c.5-.36.86-1,1.59-.94a3,3,0,0,1,1.44,1c.07.07.14.21.22.29a3.11,3.11,0,0,0-.51,2.39c0,.29.07.65.43.72s.44-.29.58-.58c.51-1.3,2-1.95,2.46-3.26.21-.5.64-.14.93.22a4.06,4.06,0,0,1,.73,2c-.15.72-1.16,1.52.21,2.17.36.58.65,1.16.94,1.74.14,1.3.14,1.3,1.44,1.08a2.45,2.45,0,0,1,1.45.15,6.17,6.17,0,0,1,1.15.79c.8.73.8,1.09-.14,1.67-.44.22-.51.65-.72,1-.87.51-1.88.8-1.66,2.1-.15.87.36,1.52.57,2.32.08.29.15.65-.14.79A1.52,1.52,0,0,1,78,69.57Z"/><path class="cls-99" d="M78,69.57c.22.07.43.21.58.14s.07-.43,0-.65c-.29-.8-1-1.45-.43-2.39a2.41,2.41,0,0,1,2.59.07c.58.44,1.3.73,1.38,1.52v.58c-.08.44-.8.8-.29,1.23s1.15.15,1.58-.29a15,15,0,0,0,1.09-1.23.54.54,0,0,1,.36-.07c.36.07.43.8,1,.51s.65-1.09.58-1.74c.28-.51.65-.58,1.08-.22.29.73.72.8,1.44.51a1.9,1.9,0,0,1,2.67.65c.51.29,1,.65.44,1.16a3.21,3.21,0,0,0-.94,3c0,.14,0,.36-.22.36s-.36.07-.5,0c-.94-.43-1.59-.65-1.59.87,0,.8-1.73,1.66-2.46,1.3-1.66-.87-2.59-.07-3.39,1.23a1.55,1.55,0,0,1-2.24-.72,6,6,0,0,1-.93-2C79.26,72.17,78.68,70.87,78,69.57Z"/><path class="cls-100" d="M71,54.65c-.51-.36-1-.72-1.45-1.08a3.53,3.53,0,0,0-4.18-1.31c-.51-.14-.65.29-.87.58s-.43.87-.94,1a11.18,11.18,0,0,1-1.66-2c1.16-.43,2.1-1,2.24-2.46s-.07-1.81-2-2.17a1.15,1.15,0,0,1,.72-1.38c1.73.87,2.53.65,3.46-1.08a.82.82,0,0,1,.8.21c.43.65.07,1.23-.07,1.89a20.54,20.54,0,0,0-.51,2.53,2.86,2.86,0,0,0,1.59-1.74,7.32,7.32,0,0,1,.58-1.3,1.29,1.29,0,0,1,1.44-.58A1.05,1.05,0,0,1,71,47a.67.67,0,0,0,.58.87c1,.21,1.87.87,2.88,1.08a5.22,5.22,0,0,0,2.39.07c.5-.07,1.08-.07,1.22.58a1.31,1.31,0,0,1-.57,1.52,11.65,11.65,0,0,1-2,.95c-.58.29-1.09.5-1.3,1.23s-.58.43-.94.07c-.07-.36-.07-.65.36-.87A4.47,4.47,0,0,0,72,53.71C71.68,54.07,71.46,54.51,71,54.65Z"/><path class="cls-101" d="M58.76,62.11c-.29-.15-.51-.29-.8-.15-1.15-.5-2.31-.87-3.46,0A12,12,0,0,0,53,63.05a1.26,1.26,0,0,0-1.73.29c-.65.07-.79.87-1.37.94-.07-.07-.15-.07-.22-.14.15-1.24.15-2.47,1.16-3.41.21-.14.14-.5,0-.72.07-.8-.22-1.67.21-2.46.73,0,1.09-.58,1.66-.87,1.38.22,2.75.72,4.05-.15,1.15-.14,2.09-.43,2.09-1.88a.22.22,0,0,1,.07-.14c.65-1.6.65-1.6-1.15-1.6a1.76,1.76,0,0,1-.58-.14,2.9,2.9,0,0,1-.79-.51,3.15,3.15,0,0,1-.22-.29c0-.36.29-.58.5-.79.65-.66,1.3-.08,2,.07a3.74,3.74,0,0,1,2.17,2.17,10.43,10.43,0,0,0,3,3.48,5.46,5.46,0,0,1,1.51,1.66,2.2,2.2,0,0,1-1.37-.07,4,4,0,0,0-1.37-.29,2.2,2.2,0,0,0-2.74,1.66C59.55,60.66,59.62,61.6,58.76,62.11Z"/><path class="cls-102" d="M58.76,51.32c-.58.07-1.3-.43-1.88.15-.58.14-.94-.29-1.37-.58a17.37,17.37,0,0,0-2-1.16c-.22-.07-.36-.22-.72,0a4.26,4.26,0,0,0,1.87,1.16c.65.21,1.37.36,1.59,1.08.07.08.22.15.29.22-.36.58-.94.43-1.44.51-1,.14-1.95.29-2.1,1.59a16.4,16.4,0,0,0-.21,2.61c-.36.65-.58,1.44-1.59.86-.51-.07-.51-.43-.43-.79-.44-2.39-.73-2.68-3.32-3.11-1.09-.22-.58-1.24-.73-1.89a1.86,1.86,0,0,1,1.09-.58,2.84,2.84,0,0,0,2.52-3,2.22,2.22,0,0,1,.94-1.89c.15,0,.29-.07.43-.07a12.06,12.06,0,0,1,4,2.82A15.15,15.15,0,0,0,58.76,51.32Z"/><path class="cls-103" d="M64,58.2a10,10,0,0,0,1.38.36c.93.58,1.87,1.09,2.81,1.74a5.4,5.4,0,0,1,2.31,3.91c-.14.5-.72.43-1.08.5A33.2,33.2,0,0,0,65.62,66a12.58,12.58,0,0,0-3.4-2.46A10.17,10.17,0,0,0,63.45,59,1.1,1.1,0,0,1,64,58.2Z"/><path class="cls-104" d="M65.62,66.09c1.37-1.3,3.17-1.3,4.76-1.81a3.09,3.09,0,0,0,.5.8,2.3,2.3,0,0,0-.36,2c.73,2-.93,3.91-3.32,3.55l-.14-.14a3.68,3.68,0,0,0-1.88-2A13,13,0,0,0,65.62,66.09Z"/><path class="cls-105" d="M70.67,76.37a3.78,3.78,0,0,1-.15-.87c-.21-2,.44-2.82,2.46-3a2.57,2.57,0,0,0,2.52-1.37l.44.22c.14,1.08.07,2.17.21,3.33.15,1.37-.86,2-2.09,2.38C73,77,71.75,77.17,70.67,76.37Z"/><path class="cls-106" d="M79.84,73.47a2.3,2.3,0,0,1,.93,1.38A1.57,1.57,0,0,0,82.87,76c1.44,1.59,1.73,3.55,1.95,5.57a1.16,1.16,0,0,1-.65.94,1.56,1.56,0,0,1-1.74-1,10,10,0,0,0-1.8-2.75A5,5,0,0,1,79.11,76c-.07-.07-.14-.07-.21-.15A2.45,2.45,0,0,1,78.75,74c0-.07.07-.14.07-.22A.67.67,0,0,0,79.84,73.47Z"/><path class="cls-107" d="M72.76,63.77c.51-.43-.22-1.15.43-1.52.87-.5,1.81-.21,2.75-.43.29-.07.65.22.43.72A4.3,4.3,0,0,1,73,64,2.15,2.15,0,0,1,72.76,63.77Z"/><path class="cls-108" d="M63.52,53.78c.29-.58.58-1.08.87-1.66s.58-.51,1-.22a1.38,1.38,0,0,1-.8,1.59c-.21.37-.43.65-.86.44l-.07-.07Z"/><path class="cls-109" d="M57.39,46.76c-.15.22-.22.43-.36.65-.44-.29-1-.36-1.38-1C56.38,46,56.88,46.4,57.39,46.76Z"/><path class="cls-110" d="M51.32,46.47a4.37,4.37,0,0,0-.57,1.88,3.09,3.09,0,0,1-2.89,3.26l-1.08.22c-.51-.58-1.09-1.23-1.59-1.81.21-1.59,1.22-2.83,1.87-4.2C48.58,45.53,50,45.38,51.32,46.47Z"/><path class="cls-111" d="M50.75,56.9a6.38,6.38,0,0,0,.43.79c0,.8.36,1.67-.29,2.46-.65-.14-1.23.29-1.88.37A1.37,1.37,0,0,1,47.5,60a2.73,2.73,0,0,1,.14-2.68,1,1,0,0,1,1.3-.65C49.66,56.82,50.24,56.82,50.75,56.9Z"/><path class="cls-112" d="M45.4,63.7a8.44,8.44,0,0,1,1,2.9c.08.36.08.87-.36,1s-.57-.36-.79-.65l-.43-.65C45.76,65.58,44.83,64.5,45.4,63.7Z"/><path class="cls-113" d="M42.08,57.84c1-.08,1.59-1,2.46-1.38.21.22.72.22.36.73A1.92,1.92,0,0,1,42.08,57.84Z"/><path class="cls-114" d="M40.57,56.39a2,2,0,0,1,1.3,1.3C40.57,58.13,40.64,57.19,40.57,56.39Z"/><path class="cls-115" d="M92.76,51.47c.57-.51,1.22-1.09,1.87-1.6.51-.36.94-1,1.66-.65,2.46,1.09,2.53,3,1,5.21-.79.8-1.08,2-2.16,2.54-.43.22-.87.72-1.45.22.15-.87.29-1.6-.93-2-.94-.29-.94-1.09-.51-1.88C92.61,52.77,93,52.19,92.76,51.47Z"/><path class="cls-116" d="M93.77,57.26A4,4,0,0,0,96.58,55a.63.63,0,0,1,.72-.5,3,3,0,0,0-.21,3.69c.14,1-.87,1.52-1.09,2.39a2.56,2.56,0,0,1-1.08,1.52,20.4,20.4,0,0,0-2.67,2.31,1.63,1.63,0,0,1-1.59.58c-1.73-.5-1.87-.94-.72-2.31s2.46-2.61,2.6-4.56C92.47,57.4,93,57.11,93.77,57.26Z"/><path class="cls-117" d="M95.79,60.66c.43-.87.86-1.74,1.3-2.61a11.19,11.19,0,0,0,.65-1.23c.29-.65.72-1.08,1.51-.79a1.29,1.29,0,0,1,.8,1.66,3.37,3.37,0,0,1-.51,1.16c-.72.51-1.3,1.09-2.38.58-.87-.43-.79.87-1.23,1.23l-.14.07Z"/><path class="cls-118" d="M101.2,43.94c.07.21.15.5.22.72-.22.22-.51.44-.72.07S100.77,44,101.2,43.94Z"/><path class="cls-119" d="M95.07,72.82l1.08-.21c1.15-.37,1.51,0,1.23,1.23A12.62,12.62,0,0,0,97,75.43c-.07.51-.07,1.09.44,1.3,1.66.73,2.24,2.25,3,3.69.07.15.21.29.29.44-.44,1.08.65,1.08,1.08,1.52a4.07,4.07,0,0,1-.51,1.59,2.76,2.76,0,0,1-3,1.23c-1.51-.36-2.81-.58-3.46,1.31a2.89,2.89,0,0,0-2.74.57c-.58.51-1.23.29-1.23-.5,0-1.38-.72-1.45-1.73-1.31-.58.08-1.3.15-1.3-.72a3.55,3.55,0,0,1,1.8-1.74,2.55,2.55,0,0,1,.72-.07c.51,0,1.09.29,1.59-.07-.07-.51-.65-.51-.79-.87a2.08,2.08,0,0,0-.87-.87c-1.87-.8-2.16-1.3-1.8-3.4.07-.51-.15-1,.07-1.45A2.55,2.55,0,0,1,90,74.92c.51.29,1,0,1.45-.14a4.31,4.31,0,0,1,2.09-.36C94.92,74.63,95.21,74.05,95.07,72.82Z"/><path class="cls-120" d="M88.86,77.38c-.58,1.81-.15,2.68,1.66,3.12.72.14.72.58.79,1.08.07.73-.65.8-.94,1.23-.21.15-.36.08-.57,0a3.75,3.75,0,0,1-3.25-1.44c-.65-1-1.23-.08-1.88,0a18.12,18.12,0,0,0-1.73-5.43c.22-.37.36-.66.58-1,.57-1,1.37-1.3,2.31-.65a2.06,2.06,0,0,0,2.38-.14c.58-.37.86-.73.58-1.45-.15-.29-.22-.58.07-.8s.58-.07.86.07l1.45.8-.43.22c-1.52.5-1.52.5-.65,1.81-.22.65-.94.79-1.3,1.37s-1.16.22-1.59.8C87.63,77.24,88.35,76.88,88.86,77.38Z"/><path class="cls-121" d="M95.79,60.66a.26.26,0,0,1,.21.07c.87.44.87.94.15,1.6s-1.52,1.52-2.24,2.31C93.55,65,93,65.37,93,66c0,.14-.14.43-.21.43-1.66-.29-.87,1.09-1.08,1.74-.94-.58-1.88-1-3-.15-.29.29-.87.08-1.23-.14s-.07-.51,0-.8a9.32,9.32,0,0,1,3.1-2.39c.29.08.65.15.87-.14C92.76,63.05,94.49,62.18,95.79,60.66Z"/><path class="cls-83" d="M79.11,19.18a.55.55,0,0,1,.08.87,16.32,16.32,0,0,0-1.88,5.5,5.18,5.18,0,0,1-.36.94c-.36.8-.8.94-1.37.22-.29-.44-.58-.94-1.16-.8s-.29.87-.43,1.3a1.31,1.31,0,0,0-.07.51c-.29,1.38-.58,1.52-1.66.58-.58-.22-.51-.72-.44-1.23.29-1.81.72-3.62,1.09-5.43a2.7,2.7,0,0,0,.36-.72,1.08,1.08,0,0,1,.14-1c.29-.72-.22-.5-.58-.5-1.22-1.31-1.15-1.31.36-2.1a2.75,2.75,0,0,0,1.23-.8C75.58,18.16,77,19.39,79.11,19.18Z"/><path class="cls-122" d="M103.44,88.17c.87,1.3.14,2.75.5,4-.36.8-1,.51-1.58.44-1.3-.15-2.6-.58-3.9-.65s-1.59.07-.94,1.37c.07.15.14.22.14.37a2.66,2.66,0,0,0,2.82,1.59c.14,0,.22.07.29.22,0,1.37,0,1.37,2,1.8.29.73,1,1,1.37,1.67-.51.51-.58,1.23-.94,1.81a2.93,2.93,0,0,1-2-.29,2.21,2.21,0,0,0-2.74.51c-1,.07-1.59-.73-2.17-1.31a2.55,2.55,0,0,0-2.16-1.08c-.07-.07-.07-.15-.15-.15a.86.86,0,0,1,0-.72c.58-1.23-.57-1.81-1-2.61,0-.79-.14-1.59-.07-2.46a1.32,1.32,0,0,1,.94-1.37c.72-.22,1,.21,1.23.94A1.68,1.68,0,0,0,94.92,90c-.5-.58-.94-1.23.15-1.74,1.44.15,2.81.94,4.25,0C100.62,88.89,102,87.88,103.44,88.17Z"/><path class="cls-123" d="M104.09,99c-.65-.36-1.52-.58-1.44-1.66.43-.44,1.08-.8-.15-1a2.36,2.36,0,0,1-1.73-.87,1.16,1.16,0,0,1,.14-.87c.07-.29.72-.58.22-.86s-.65.36-.94.65c-.87-.15-2,.5-2.67-.51a5.71,5.71,0,0,1-.65-.8A1,1,0,0,1,96.8,92c.21-.44.65-.29,1-.29a32,32,0,0,1,4.62.72c.5.07,1,.22,1.44-.14a6.77,6.77,0,0,1,1.23-.22c.79-.14,1.59,0,1.88.72.57,1.45,1.8,1.23,2.88,1.23.22,0,.51-.14.73-.07a3.34,3.34,0,0,0,3.89-1.08c.51-.58,1-.8,1.09.29.07.5.28.72.72.43.21-.07.43-.14.5.07a.4.4,0,0,1-.43.51c-.43.07-.94.14-.87.72s.58.66,1,.73a5.36,5.36,0,0,1,1.88.79c0,.87-.58.8-1.15.73a48.16,48.16,0,0,0-6.5-.58c-.79,0-1.52.07-2.31.14-1.8.29-2,.51-1.37,2.18C106.4,99.83,105.24,99.46,104.09,99Z"/><path class="cls-124" d="M107.41,98.81c-1.3-1.45-1.16-2,.72-2.39a20,20,0,0,1,7.51.08,10.91,10.91,0,0,1,2.24.36c.5.14.57-.15.79-.44a1.15,1.15,0,0,1,1.37.73c.51,1.08-.43,2-.5,3a4.44,4.44,0,0,0-3.69,1.45c-.28-.08-.43.58-.72.21a1.07,1.07,0,0,1-.14-1.3c.14-.36.22-.8-.15-1s-.65,0-.93.21c-.87-.07-1.88.51-2.6-.5-.36-.65-.65-1.52-1.59-.51-.36.36-.79-.07-1.16.15a.88.88,0,0,1-.93.07C107.55,98.89,107.48,98.81,107.41,98.81Z"/><path class="cls-125" d="M96.08,102.07c-.44-.51-1-.87-.94-1.66a1.82,1.82,0,0,1,1.51.36,2.06,2.06,0,0,0,1.95.21c1.3-.21,2.53-.28,3.32,1a6.23,6.23,0,0,0,2.24.87c.36.07.87,0,.94.43s-.43.65-.72.87c-.51.43-1.16.65-1.37,1.3-.58-.07-1.16-1.16-1.74-.07A9.17,9.17,0,0,0,96.08,102.07Z"/><path class="cls-126" d="M101.92,102a5.93,5.93,0,0,0-3.32-.87c-.14,0-.14-.07-.21-.15.36-1.08,1-1.37,2.09-.94.87.37,1.73.58,2.6.87C103,101.56,102.28,101.56,101.92,102Z"/><path class="cls-127" d="M111.31,99.17c.79.66,1.87-.28,2.6.51C112.61,101.13,112,101,111.31,99.17Z"/><path class="cls-128" d="M107.63,98.89a.86.86,0,0,1,.93-.08c.22.29.94.29.65.87s-.65,0-1-.14A.88.88,0,0,1,107.63,98.89Z"/><path class="cls-129" d="M100.19,117.71c.15-.29.15-.65-.29-.51a.8.8,0,0,1-.94-.36,4.54,4.54,0,0,1,2.24-2.53c.43.07.94.07,1.37.14,1.45.43,1.74,1.16,1,2.46-.36.73-.72,1.45-1.15,2.17-.29.44-.51.87-.8,1.31a1.82,1.82,0,0,1-1.29-.73A1.75,1.75,0,0,0,100.19,117.71Z"/><path class="cls-130" d="M43,93.75A3.75,3.75,0,0,1,42,93c-.36-.43-1.08-.94-.58-1.66a1.37,1.37,0,0,1,2-.37,13.45,13.45,0,0,1,.36,1.74A1,1,0,0,1,43,93.75Z"/><path class="cls-131" d="M62.08,100.19c-.07.07-.22.07-.29.14-.79-.29-1.52-.79-2.38-.5-.07.43.43.5.36.87-.15,0-.36.07-.51,0-1.3-1-2-.22-2.6.94a4.87,4.87,0,0,1-1.44-3.19c.36-.8,1.16-1.16,1.59-1.88.94-1.52,2-3,3-4.35s1.44-1.37,2.53-.14c.14,3.11,1.59,3.91,4.26,2.24,1.51-.94,2.09-.79,3,.66.65.94,1.22,1.81.79,3-.29.79.29,1.08,1.08,1.15s1.81-.21,2.53.44c-.07.87-.72,1.23-1.44,1.45a5.39,5.39,0,0,1-4.48.29.77.77,0,0,0-1.15.43,2.55,2.55,0,0,1-1.59.44,1.36,1.36,0,0,1-1.08-.87c0-.44.86-.73.36-1.31s-1-.36-1.52-.21A3.27,3.27,0,0,1,62.08,100.19Z"/><path class="cls-132" d="M55.29,98.6c.44,1,.87,2,1.37,3-.07.37.44.51.44.8-.36.36.07,1.09-.65,1.16-.22-.15-.58-.29-.58-.44.07-2.1-2.16-2.38-3-3.76a7.11,7.11,0,0,0-2.67-2.1c-2-1.09-2.38-3.19-1.23-5.28A2.1,2.1,0,0,1,51.11,93a2.28,2.28,0,0,0,.72.73c1.08.79,1.51,2.09,2.6,2.89A2.2,2.2,0,0,1,55.29,98.6Z"/><path class="cls-133" d="M65.69,102.14a2.4,2.4,0,0,1,1.44-.43,2,2,0,0,1,1.59.07c.5.15,1.08.29,1.15.87s-.36,1-1,1.16c-1.51-.51-.93.58-.93,1.23a14.35,14.35,0,0,0-2.46-.51c-2.16,0-2.38-.5-1.44-2.46C64.53,101.85,65.11,102.43,65.69,102.14Z"/><path class="cls-134" d="M62.08,100.19a2.92,2.92,0,0,1,2-.8,1.24,1.24,0,0,1,1.22,1.09c.29.87-.72.5-.93.87C63.59,101,62.8,100.55,62.08,100.19Z"/><path class="cls-135" d="M59.77,100.7c-.36-.37-1.3-.29-1-1,.21-.5,1-.43,1.59-.29s1.15.22,1.44.87C61.14,100.7,60.56,101.2,59.77,100.7Z"/><path class="cls-136" d="M65.69,102.14c-.58,1.09-1.16.08-1.66-.07.14-.22.21-.43.36-.65C64.75,101.64,65.25,101.85,65.69,102.14Z"/><path class="cls-137" d="M67,45.17c-.22-.15-.44-.22-.65-.36-.36-.58-1.23-.87-1.09-1.74.22-.44.58-.65,1-.36.8.65,1.09.07,1.52-.58a25,25,0,0,0,1.81-2.9,1.33,1.33,0,0,1,.57-1,1.25,1.25,0,0,1,1.3-.29c.51.22.22.72.22,1.16a4.5,4.5,0,0,0,0,1.37A2,2,0,0,1,70,42.56a3.39,3.39,0,0,0-2,1.52C67.71,44.44,67.49,45,67,45.17Z"/><path class="cls-138" d="M62.8,45.89c-.22.44-.51.87-.72,1.38-.43-.65-1.66-1.09-.72-2.17.36-.44.86-.8,1.44-.51S63,45.38,62.8,45.89Z"/><path class="cls-139" d="M69.59,22.29c.57.29,1-.07,1.37-.43a1.35,1.35,0,0,1,1.22-.51,27.22,27.22,0,0,1-.86,4.85c-.65,3.11-1.3,6.23-2.1,9.34-1.37.22-2.09,1.3-3,2.24-.28.37-.64.87-1.08.66s-.21-.95.07-1.38c.58-.94.29-1.59-.72-2s-1.3-1-.65-2c.51-.73,1.16-1.45.29-2.61-.5-.65.22-1.74,1.08-1.74s.51-.43.51-.79a4.52,4.52,0,0,0,2.31-3A5,5,0,0,1,69.59,22.29Z"/><path class="cls-140" d="M69.22,35.54c-.43-1.3.29-2.39.51-3.62.65-3.26,1.37-6.52,2.09-9.77a3.09,3.09,0,0,1,.36-.8c.22.14.44.22.65.36a7.41,7.41,0,0,1-.43,3.55c-.22,1-.65,2-.22,3.11a8.27,8.27,0,0,0-.79,5.72c.14.65.29,1,.94.22,1.66-2,3.82-3.69,5-6.08a.47.47,0,0,1,.65.36c-.94,1.81-1.81,3.62-3.47,4.85a11.33,11.33,0,0,1-3,5.65c-.21-.29.15-.65.07-1a2.15,2.15,0,0,0-1.87,1.16C69.44,38,70,36.7,69.22,35.54Z"/><path class="cls-141" d="M120,97.08l-1.37-.73c.22-.58.58-.65,1.08-.36A.82.82,0,0,1,120,97.08Z"/><path class="cls-142" d="M54.64,102.94a1.25,1.25,0,0,1,.44,1.37c-.94-.72-2.39-.72-2.53-2.24C53.42,101.93,53.92,102.72,54.64,102.94Z"/><path class="cls-143" d="M51,93c-.72-.36-1.37-.72-2.09-1.08a9.68,9.68,0,0,0,.36-1.24A3,3,0,0,1,51,93Z"/><path class="cls-5" d="M94.34,42.92c.29.22.73.29.51.73s-1.59.79-2,.5-.65-.36-.36-.65C93,43,93.55,42.42,94.34,42.92Z"/><path class="cls-144" d="M72.76,19.61c.22-.36.43-.87.94-.5s.14.72,0,1-.36.58-.51.87C72.4,20.7,72.33,20.26,72.76,19.61Z"/><path class="cls-145" d="M37.9,83.1c-.51-.29-1.16-.36-1.59-.87.22-.5.14-1.08.72-1.37A2.16,2.16,0,0,1,37.9,83.1Z"/><path class="cls-146" d="M20.43,37.71c.14.15.43.22.29.51a.42.42,0,0,1-.65.14c-.22-.14-.44-.36-.29-.65S20.14,37.57,20.43,37.71Z"/><path class="cls-147" d="M74.06,99.68c-.94-.07-2-.14-2.89-.14S70,99.1,70.09,98.45a3.63,3.63,0,0,0-.65-3.4c.58-.94,1.44-.65,2.31-.44,1.44.44,1.52.37,1.59-1.15.07-.87.07-1.89,1.37-1.81a2.46,2.46,0,0,0,2.17,2.1c1.15.28,2.23.57,2.67,1.88,0,.36-.29.36-.58.36a2.89,2.89,0,0,0-2.31.29.5.5,0,0,0-.36.58c.07.22.36.22.58.14s.65-.14,1,0c.65.8.14,2,1,2.68.36,1,1.3,1.45,2.09,2a.42.42,0,0,1-.22.43,3.05,3.05,0,0,1-3.17-1.23c-.36-.5-1.16-.43-1.66.22A15.59,15.59,0,0,0,74.06,99.68Z"/><path class="cls-148" d="M92.18,98.52c-.29,1.23-1.45,1.31-2.38,1.6a15,15,0,0,1-2.39.29,3.82,3.82,0,0,1-2.16-1.31,1.68,1.68,0,0,1,.58-2,8,8,0,0,1,2.81-1.52A3.13,3.13,0,0,1,92,97.22,2.45,2.45,0,0,1,92.18,98.52Z"/><path class="cls-149" d="M74.06,99.68a2,2,0,0,1,2,1.67v2.31c-.51,1.16-1,1.38-2.31,1.09-.22-.07-.36.07-.51.22a15.74,15.74,0,0,0-1.51-.8,2.3,2.3,0,0,1,.86-3.26C73.34,100.84,73.7,100.19,74.06,99.68Z"/><path class="cls-150" d="M80.85,102.29c.07-.15.07-.29.14-.44A3,3,0,0,1,84.31,100a2.27,2.27,0,0,1,.87,2.68C83.66,103.74,82.22,103.37,80.85,102.29Z"/><path class="cls-151" d="M85.18,102.65c-.29-.8-.15-1.81-.94-2.46-.15-.8.29-1.16.94-1.3a8.6,8.6,0,0,1,2.09,1.52,2.64,2.64,0,0,0-.36,1.3C86.76,102.87,86.4,103.08,85.18,102.65Z"/><path class="cls-152" d="M73.7,104.68A2.64,2.64,0,0,0,76,103.59a1.92,1.92,0,0,0,1.44,1.23,5.87,5.87,0,0,1,2.17.73C77.53,106.2,75.36,107,73.7,104.68Z"/><path class="cls-153" d="M98.39,101c.07.08.14.08.21.15-.36.72-.94.58-1.44.36s-1.3-.65-2-1c-.29-.65-.94-1-1.08-1.74.72-1.16,1.29-.14,1.8.22C96.73,99.61,97.3,100.55,98.39,101Z"/><path class="cls-154" d="M92.18,98.52c-.07-.36-.22-.72-.29-1.08.29-.73.87-.58,1.44-.44s.8.36.87.87c-.07.22-.22.44-.29.65C93.33,99.32,92.76,98.81,92.18,98.52Z"/><path class="cls-155" d="M79.62,105.55v-.66c0-.5.14-1,.79-.94a1.31,1.31,0,0,1,.94,1.6c0,.57-.65.29-1.08.29C80.05,105.84,79.84,105.62,79.62,105.55Z"/><path class="cls-156" d="M84.45,106c-.36-.22-.57-.58-.36-.94.22-.51.73-.29,1.16-.22a.56.56,0,0,1,.43.8C85.47,106.12,84.89,106,84.45,106Z"/><path class="cls-157" d="M100.19,117.71c1.3.79,1.3.87.22,1.88h-.22C99.32,118.72,99.4,117.93,100.19,117.71Z"/><path class="cls-158" d="M72.54,100.84a3.8,3.8,0,0,0-.86,3.26c-1,.65-2,.21-2.82-.29,1.16-1.23,1.09-1.3-.5-1.74a9,9,0,0,0-1.3-.36c-.29-.22-.36-.36.07-.51a2.88,2.88,0,0,1,2.46.15c.72.29,1.15.5,1.73-.22A1.44,1.44,0,0,1,72.54,100.84Z"/><path class="cls-159" d="M102.5,80.64c.07-.14.15-.22.15-.36-.22-1.45.21-2.24,1.8-1.81.07,0,.14-.15.14-.15-.14,1.16.15,1.89,1.59,1.45.44-.14.94.08,1.37.08.73.07,1.09.28.65,1-.14.29-.21.51.08.8,1.44,1.8,1.44,1.8-.15,3.47l-.36.36c-.43.15-.72-.22-1-.36-.87-.51-1.16-.29-1.3.65-.07.44,0,.87-.36,1.16-1.23.65-1.37.58-1.88-.65a6.16,6.16,0,0,0-.43-1.09c-.36-.58-.22-.94.36-1.23s1-.51.87-1.23.57-1.23.94-1.95c-.73-.29-1.23.5-1.81.36C102.86,81.22,102.65,81,102.5,80.64Z"/><path class="cls-160" d="M105,86.94a5.76,5.76,0,0,0,.14-1.16c.07-.51-.07-1.08.58-1.23a1.35,1.35,0,0,1,1.37.44,6.46,6.46,0,0,0,.72.57,1.68,1.68,0,0,0,1,1.38,11,11,0,0,1-1,1.81,1.64,1.64,0,0,1-2,.94c-1-.29-.36-1.16-.5-1.66S104.81,87.37,105,86.94Z"/><path class="cls-161" d="M102.5,80.64c.29.15.58.36.87.51-.36.72-.8,1.23-1.74,1.08-.5-.07-1-.07-1.51-.14a3.1,3.1,0,0,1,.5-1.3A15.74,15.74,0,0,0,102.5,80.64Z"/><path class="cls-162" d="M77.89,28.52c-.22-.15-.44-.22-.65-.37a3.85,3.85,0,0,1,1-1.15,7.77,7.77,0,0,0,2.81-3.26c.22-.51.58-.87,1.09-.73s.36.8.28,1.09c-.28.94.8,2.24-.36,2.82a20.19,20.19,0,0,1-2.88,1.31C78.75,28.3,78.32,28.44,77.89,28.52Z"/><path class="cls-82" d="M71.39,39.09l3-5.65a2.45,2.45,0,0,1-.21,2.1c-.22.58-.44,1.23.21,1.74a2.92,2.92,0,0,1-.86,1.52,3.32,3.32,0,0,0-1.16,1.08c-.22.44-.5.8-1.08.44A1.07,1.07,0,0,1,71.39,39.09Z"/><path class="cls-163" d="M73.34,38.65c.29-.5.5-1.16,1.08-1.45.65-.07.94-.57,1.16-1.08.57.07,1.3-.15,1.51.58s-.5,1-.94,1.37a6,6,0,0,1-2.16,1A.84.84,0,0,1,73.34,38.65Z"/><path class="cls-164" d="M73.41,53.35c.29.07.65.51.65-.29s.36-1,1.08-1.16c.87-.22,1.52-.87,2.46-1.16.5-.14.36-.72.36-1.16s-.51-.43-.87-.36a5,5,0,0,1-2.52-.07c-.08-1.52.72-2.39,2.59-2.68A1.48,1.48,0,0,0,79.47,46c1.16.29,1.45,1.31,1.81,2.25s.58,1.95.94,3c.14.36.14.79.65.87s.72-.29.94-.58.5-.8,1.08-.8c.21-.07.43-.15.72-.22,1.08.22.94,1.09.87,1.81-.08.87-.36,1.67-.51,2.54s.07,1.23,1,1a4.51,4.51,0,0,1,3.68.8c.36.21.87.36.87.86s-.58.73-.94,1a10.72,10.72,0,0,1-2.16.79,7.51,7.51,0,0,0-3,1.74c.94-.29,1.74-.43,2.46.51a2.92,2.92,0,0,1,.43,3.11c-.29.8-.94.8-1.59.65s-1.15,0-1.3.8a1.53,1.53,0,0,1-.94,1.16c-.86.36-1.51.94-2.3,1.3.07-.94-1.09-.87-1.23-1.52s.58-.94.94-1.38c.14-.21.36-.5.21-.79s-.5-.08-.79,0-.8.36-1.16,0c.15-.8.15-1.74,1.45-1.31-.07-1.23-1.37-1.23-1.73-2a1.54,1.54,0,0,0-2-1.16,1.23,1.23,0,0,1-.86-.07,2,2,0,0,1-.87-1.67c-.07-.65.51-.87.8-1.23s.79-.51.5-1-.72-.08-1.08.07c-.15.07-.29.14-.43,0-.51-.72-.29-1.81-1.38-2.39A3.09,3.09,0,0,1,73,56.24c-.44.37-.94.73-.87,1.45s-.36.58-.72.65-.58-.21-.72-.5c-.44-1.23-.07-2.61.72-3A8.7,8.7,0,0,1,73.41,53.35Z"/><path class="cls-165" d="M81.93,68.41a1.93,1.93,0,0,1,1.15-1.09c1-.36,2-.8,2-2.17,0-.65.51-.44.94-.36.58.07,1.37.65,1.73-.15A2.92,2.92,0,0,0,87.63,62c-.79-1.52-2-.65-3.18-.72a6.08,6.08,0,0,1,3.25-2.17A15.48,15.48,0,0,0,90.59,58c.22-.14.58-.07.51-.43s-.37-.36-.51-.51a4.77,4.77,0,0,0-4.26-.8c-.79.22-.94-.21-.86-.79a18.42,18.42,0,0,1,.5-2.68c.15-.87.36-1.74-.43-2.39.21-2,.21-2,2.24-2.46a15.56,15.56,0,0,0,3.39-1.3c-.36.94-.51,1.66-.8,2.38a2.24,2.24,0,0,0,.44,2.54c.72.94,1.22.94,2.09-.07.65.5.51.94.07,1.52-.94,1.44-.86,1.59.72,2.17s.37,1.37.15,2a1.49,1.49,0,0,0-1.08,1.66c0,1.3-1.23,2.24-2,3.33-.14.22-.36.36-.5.58-1.16,1.3-1.16,1.38.5,1.88A10.81,10.81,0,0,1,87.63,67a.74.74,0,0,0-1,.36c-.36.73-1.08.87-1.73,1.09-.94.22-1.81.65-2.74.29C82,68.7,82,68.55,81.93,68.41Z"/><path class="cls-166" d="M84.74,50.6a3.64,3.64,0,0,0-1,1.3,1.44,1.44,0,0,1-1.22.58c-.51,0-.44-.51-.58-.87-.65-1.74-.8-3.62-2-5.07-.15-.21-.36-.36-.51-.58.29-.14.51-.29.8-.43,1.3-.72,1.37-1,.07-1.88-.43-.29-.29-.58,0-.65.94-.22,1.51-1.16,2.52-1.09.22,2,.22,2,2.31,1.66A5.43,5.43,0,0,0,87,43.14c.58-.29,1.16-.58,1.81-.87a3.14,3.14,0,0,1-1.23,3.19c-.72.58-1.59,1.08-2.31,1.66C84.09,48,83.52,49.29,84.74,50.6Z"/><path class="cls-167" d="M77.09,46.47c-1,.72-2.45,1.09-2.6,2.68-1.3-.15-2.31-1.09-3.61-1.16-.43-.07-.43-.51-.28-.8A.68.68,0,0,0,70.16,46a1,1,0,0,0-1.3.72,11.69,11.69,0,0,1-.57,1.67,2.55,2.55,0,0,1-2,1.44c-.07-1.66.8-3.11.87-4.63.8-1.45,1.44-2.9,3.47-3.19.65-.07.86-1,.93-1.81.51,0,.87-.21.87-.65.07-.72.51-.87,1.08-.87a2.45,2.45,0,0,0,.72.37c-.64.36-.86.87-.14,1.37A3.88,3.88,0,0,1,75,41.77c.94,1.59,1.66,1.73,3.1.65.22-.15.29-.8.72-.44a1,1,0,0,1,.08,1.09c-.29.72-.72,1.45-1.09,2.17A13.08,13.08,0,0,0,77.09,46.47Z"/><path class="cls-168" d="M64,58.2c-.07.72-.21,1.45-.28,2.17a4.23,4.23,0,0,1-1.45,3.26,3.86,3.86,0,0,1-3.46-1.52c.21-.58.43-1.23.65-1.81C60.27,57.76,61.28,57.26,64,58.2Z"/><path class="cls-169" d="M66.7,73.55c1.59.72,1,2.1.86,3.25-.57,1.67-1.87,2.39-3.32,1.81a2.46,2.46,0,0,1-.65-2.75C64.32,74.63,65.69,74.34,66.7,73.55Z"/><path class="cls-170" d="M62.51,71.45c-.65.5-1.37,1.16-2.09,1.73a.43.43,0,0,1-.58-.07,3.85,3.85,0,0,1-1.23-3.18,3.87,3.87,0,0,1,2.75-2C62.51,68,63.23,70.14,62.51,71.45Z"/><path class="cls-171" d="M53.06,63.12c.07-.79.86-.87,1.29-1.3,1.16.14,1.59,1.08,2.1,2-.44.94-1.59,1-2.31,1.67-.36.36-.87-.29-.94-.87C53.06,64.14,53.27,63.56,53.06,63.12Z"/><path class="cls-172" d="M56.45,63.77c-.72-.65-1.37-1.3-2.1-2,1.59-1,2.6-.94,3.61.14C57.46,62.62,57.53,63.7,56.45,63.77Z"/><path class="cls-97" d="M65.25,68.55c1.3.07,2,.65,1.88,2-.36.43-.72.94-1.37.72s-.51-.87-.58-1.45A2.1,2.1,0,0,1,65.25,68.55Z"/><path class="cls-173" d="M58.61,77.82c-.72-.65-1.44-1.3-2.16-2,.43-.65.86-1.3,1.8-.8s.72,1.24.51,2A3.78,3.78,0,0,0,58.61,77.82Z"/><path class="cls-174" d="M50,64.42c.36-.43.43-1.37,1.37-.94-.36.66-.65,1.31-1,2-.14.29-.29.79-.72.51s-.07-.58.07-.87A3,3,0,0,1,50,64.42Z"/><path class="cls-175" d="M62.73,85.85c1.08.22,2.16.8,3.25,0a7.48,7.48,0,0,1,.07,3.55c-1.52,1.23-2.89,1.45-4,.73-2-1.16-1.95-.66-.8-2.9C61.43,86.58,61.72,85.78,62.73,85.85Z"/><path class="cls-176" d="M61.86,90.13a4.89,4.89,0,0,0,4-.8,1.86,1.86,0,0,1,2,.22,1.29,1.29,0,0,1-.65,1.15c-1.44.66-2.88,1.24-4.33,1.81-.21,0-.5.08-.65-.14-1.08-1.23-1.3-1.09-2.16.07-1.09,1.45-2,3-3.11,4.35a1.85,1.85,0,0,1,.22-1.23c.29-.87,1.15-1.53.94-2.54V93c0-1.09.72-2,1-2.9s.79-.65,1.37-.43C60.85,89.76,61.28,90.34,61.86,90.13Z"/><path class="cls-177" d="M54.43,85.78c-.44-.22-.65-.5-.44-.94s.65-.36,1.09-.14.79.72.57,1.15C55.29,86.43,54.79,85.71,54.43,85.78Z"/><path class="cls-178" d="M59,90.05c.37,1.23-.57,2-1,2.9-.65-1.23.44-2.1.8-3C58.83,90,58.9,90,59,90.05Z"/><path class="cls-179" d="M54.21,96.86a9.17,9.17,0,0,1-2.45-3,3.72,3.72,0,0,1,2.31-.51c1.22,0,1.73.65,1.73,2.1a1.31,1.31,0,0,1-.15,1.16C55.29,97.08,54.86,97.58,54.21,96.86Z"/><path class="cls-180" d="M58,93c.5.15.65.51.36.94s-.58,1.09-.87,1.67a.69.69,0,0,1-.65-.15.24.24,0,0,0-.07-.14C57.17,94.54,57.6,93.82,58,93Z"/><path class="cls-181" d="M55.44,96.28c.14-.29.29-.58.43-.94s.65-.29.94-.07C56.81,96.21,56.38,96.64,55.44,96.28Z"/><path class="cls-182" d="M105,86.94a1.43,1.43,0,0,1,.29,1.09c-.65-.15-1.3-.8-1.88.14a3.32,3.32,0,0,0-.94.22,3.15,3.15,0,0,1-3.18-.07,2.12,2.12,0,0,0-2.67-1,3.8,3.8,0,0,1-1.58.29c-.44-.29-.65-.65-.29-1.16.57-2,.86-2.24,3-1.59,1.37.43,2.24-.22,3.25-.94,1-.51,2-1.38,3.25-1.16.5.94-.08,1.23-.8,1.45s-.94.43-.29,1a1.09,1.09,0,0,1,.29.8C103.66,87,104,87.52,105,86.94Z"/><path class="cls-183" d="M62.15,92.37h2.09a2.46,2.46,0,0,0,2.67-1.81,2.34,2.34,0,0,0,.87-1,3.29,3.29,0,0,1,1.08-.44,7.91,7.91,0,0,0,4.26-.72,1.13,1.13,0,0,1,1.08-.07c1.67-.08,3.25-.22,4.77.79,1,.65,1.66-.22,2.16-1.08a2.81,2.81,0,0,1,1.88.5c1.3.94,2.89,1.45,4.12,2.39a1.63,1.63,0,0,1,.21.36c.07.66-.72.66-.79,1.23.29.51,1.08.95.21,1.6A.83.83,0,0,1,86,94c-1-.43-1.59-1.66-2.88-1.23-.29.07-.65.22-1,.29-.8.15-1.3.51-1.3,1.45a2.29,2.29,0,0,1-.73,1.59c-.14.07-.36.15-.5-.07a4.7,4.7,0,0,0-2.82-1.81c-.21-.58.22-.94.44-1.38s.36-.86-.08-1.3A1,1,0,0,0,76,91.43c-.43.14-.79.51-1.3.43-.94.36-1.08,1.09-1,2,.07,1.59-.14,1.81-1.66,1.37-.87-.21-1.73-.58-2.53,0-1-1.37-1.3-1.44-2.67-.5a7.14,7.14,0,0,1-1.73.79,2,2,0,0,1-2.24-.43C62.15,94.18,61.65,93.38,62.15,92.37Z"/><path class="cls-184" d="M82.87,88.53a3.94,3.94,0,0,1-1.74-.65c-.07-.07-.14-.07-.21-.14a12.28,12.28,0,0,0-1.23-2.1,3.51,3.51,0,0,1-.58-2,8.22,8.22,0,0,1,.15-1.3c.21-2,.07-2.25-1.88-3.26.58-1,.8-2.25,1.66-3.11a16.23,16.23,0,0,0,2.82,3.76,2.35,2.35,0,0,1,.57.87c.08,1.09.87,1.45,1.66,1.88.37,0,.51.15.29.51a.8.8,0,0,1-.57,0c-.29-.07-.51-.29-.94-.29-.08.58.36.87.57,1.3.73,1,.73,2.39,1.88,3.11.29.22.15.66,0,1A2.18,2.18,0,0,1,82.87,88.53Z"/><path class="cls-185" d="M77.38,79.12c1.59,0,2.24.65,2.24,2.25,0,.79-.22,1.59-.29,2.38,0,.08-.07.15-.07.22-1.16,1.23-2.38-.07-3.61,0-.65.07-1.08-.79-1.08-1.59C75.14,80.93,75.72,79.48,77.38,79.12Z"/><path class="cls-186" d="M64.24,78.54c1.66.36,2.39-.79,3.32-1.81.58,0,1.16.07,1.38.73s-.37.87-.65,1.15c-.8.8-1.74,1.52-2.6,2.25a1.51,1.51,0,0,1-1.81.07,1.75,1.75,0,0,1-1-1.52C62.8,78.4,63.74,78.83,64.24,78.54Z"/><path class="cls-187" d="M74.57,82.31a3.89,3.89,0,0,0,4.76,1.37A4.59,4.59,0,0,0,80.27,86c.36.51,1,1,.65,1.81-2.46-.58-4.26-2.32-6.21-3.62C74,83.61,74.21,83,74.57,82.31Z"/><path class="cls-188" d="M68.79,89.18a.66.66,0,0,1-1,.29,18.26,18.26,0,0,0-2-.14c.22-1.16-.29-2.32.07-3.48,1.88-.29,3,.58,3.4,2.39C69.44,88.68,69.22,89,68.79,89.18Z"/><path class="cls-189" d="M70.23,84.41a1.85,1.85,0,0,1-2.23.21,1.27,1.27,0,0,1-.58-1.44,1.75,1.75,0,0,1,1.66-1.52c.22,0,.43-.08.65-.08C71.1,82.38,71.17,83,70.23,84.41Z"/><path class="cls-190" d="M68.79,89.18a6.2,6.2,0,0,1,.51-.94c1.66-.72,3.32-1.08,4.91,0C72.47,88.82,70.81,89.84,68.79,89.18Z"/><path class="cls-191" d="M70.67,76.37c1.15.29,2.38,0,3.39.72C72.54,78.69,72.11,78.61,70.67,76.37Z"/><path class="cls-192" d="M70.23,84.41c.87-1.16.15-2-.5-2.9.5-.36,1-1.09,1.73-.43s.22,1.23-.14,1.81S70.88,84.12,70.23,84.41Z"/><path class="cls-193" d="M78.68,74a4.08,4.08,0,0,1,.14,1.88,2.34,2.34,0,0,1-1-.87.78.78,0,0,1,0-.94C78.1,73.62,78.39,73.84,78.68,74Z"/><path class="cls-194" d="M64.53,53.49a15.77,15.77,0,0,0,.8-1.59c1.08-.22,2.09-.58,3.17.22.51.36.94.72.94,1.37-.94.44-1.44,1.67-2.53,1.74S65.54,53.86,64.53,53.49Z"/><path class="cls-195" d="M79.91,64.64a1.69,1.69,0,0,0,1.3-.43c.29-.29.57-.36.86-.15s.29.65.15,1c-.29.79-1.16,1-1.52,1.73a10.17,10.17,0,0,0-2.52-.14C77.89,65.37,78.25,65,79.91,64.64Z"/><path class="cls-196" d="M75.65,56.24c.14-.14.36-.21.5-.36a.88.88,0,0,1,1.45,0c.5.51.21.94-.22,1.31s-.94.86-1.44,1.3C74.49,58.13,74.49,57.76,75.65,56.24Z"/><path class="cls-197" d="M76.8,60.08a3.42,3.42,0,0,1,1.45-.29c1.08-.07,1.59.36,1.37,1.52-.51.15-.94,0-1.44.15C76.44,62,76.44,62,76.8,60.08Z"/><path class="cls-198" d="M73.41,53.35a2.48,2.48,0,0,1-2.24,1.45c-.07-.08-.14-.08-.21-.15a5,5,0,0,1,2.81-2.46C73.92,52.7,73.48,53,73.41,53.35Z"/><path class="cls-199" d="M82.07,68.77c.94-.07,1.81-.58,2.75-.29a4,4,0,0,1-1.88,2c-.65.21-1.44.21-1.73-.29S81.57,69.13,82.07,68.77Z"/><path class="cls-200" d="M84.82,68.48c.43-.65,1.15-.72,1.73-1.09,1,1.09-.07,1.52-.65,2C85,70,85.18,68.77,84.82,68.48Z"/><path class="cls-201" d="M86.12,71.38a.56.56,0,0,1-.87.21c-.36-.14-.58-.43-.43-.79s.43-.37.72-.22S86.26,70.87,86.12,71.38Z"/><path class="cls-202" d="M52.77,56.9c-.65-.87-.22-1.81-.08-2.68.51-1,1.23-1.74,2.46-1.23.79.36,1.44-.37,2.16-.29a5,5,0,0,0,.51.14,4.18,4.18,0,0,1-.87,4C55.58,57.91,54.21,57.55,52.77,56.9Z"/><path class="cls-203" d="M57,56.82a12.46,12.46,0,0,0,.87-4,2.12,2.12,0,0,1,2.45.58A3.13,3.13,0,0,0,59,55.81C58.9,57,57.75,56.68,57,56.82Z"/><path class="cls-204" d="M56.3,52c-1.15-.5-2.31-1-3.46-1.59-.43-.22-.94-.51-.58-1.09s.8-.29,1.23-.07A17.15,17.15,0,0,1,57,51.39C56.66,51.61,56.52,51.83,56.3,52Z"/><path class="cls-205" d="M57.39,52.7c-.58.36-1.09,1.08-1.88.72-1.16-.58-2,0-2.74.87a2.11,2.11,0,0,1,2.45-1.88c.51,0,.94.14,1.37-.15A2.28,2.28,0,0,1,57.39,52.7Z"/><path class="cls-206" d="M84.38,82.89c-.07-.15-.21-.29-.29-.44l.44-1.08c1.08-1.31,1.3-1.38,2.23,0,.73,1,2,.86,2.89,1.52-.58.58-1.15,1.08-1.8,1.66-1.52-.36-1.23.8-1.3,1.59a.75.75,0,0,1-.58.37c-.72-.15-.94-.73-1.08-1.31S84.53,83.68,84.38,82.89Z"/><path class="cls-207" d="M86.55,86.07c-.07-.22-.15-.36-.22-.58a1.42,1.42,0,0,1,.43-1.37c.51-.44.73.36,1.16.36.29.94,1.08.36,1.52.36,1.15-.14,1.87,0,1.66,1.38-.08.29-.15.65.21.79s.51-.14.72-.36a2,2,0,0,1,2.75-.29,1.64,1.64,0,0,0,.29,1,.67.67,0,0,1-.15.8c-.58.44-.36.87-.07,1.3,1.23,1.6,1.23,1.6.07,3.41-.21,0-.21-.22-.29-.37-.07-.43.08-1.15-.72-1.08s-.87.65-.87,1.3S93.41,94.25,93,95a1.08,1.08,0,0,1-1,.5,7.54,7.54,0,0,1-3.25-3.62A1.69,1.69,0,0,0,88,91c-.72-.79-1.44-1.66-2.16-2.53a1.15,1.15,0,0,1,.07-1.09C86.69,87.16,86,86.43,86.55,86.07Z"/><path class="cls-77" d="M104.31,82.81c-.8.51-2,.37-2.53,1.31-.15.21-.43,0-.72-.15a2.79,2.79,0,0,1,.65-1.66c.57-.37,1.15-.73,1.73-1.09.29-.22.58-.36.87-.58s.72-.51,1.08-.07.07.8-.36,1A1.16,1.16,0,0,0,104.31,82.81Z"/><path class="cls-208" d="M95.28,82.52a4.79,4.79,0,0,1,4-.29C98.31,83.47,96.94,83.61,95.28,82.52Z"/><path class="cls-209" d="M88.86,77.38H87.34c-.29,0-.65.15-.79-.21s.29-.58.5-.8a2.44,2.44,0,0,1,1.59-.29C88.71,76.52,88.79,77,88.86,77.38Z"/><path class="cls-210" d="M90.3,82.89c-.14-.8.8-.73.94-1.23.43.36,1.44.43,1.3.94-.22.72-1.16.58-1.88.43C90.52,83,90.37,82.89,90.3,82.89Z"/><path class="cls-211" d="M94.92,88.32a.8.8,0,0,1,.15-.8A5,5,0,0,1,98,86.94c.8.14,1.52.36,1.37,1.45C97.88,89.62,96.44,88.75,94.92,88.32Z"/><path class="cls-212" d="M100.7,95.48c.79.22,1.51.44,2.31.65.28.08.79-.07.86.37s-.29.65-.72.79a1.24,1.24,0,0,1-.5.07c-.65.08-1.45.44-2-.28C100.19,96.57,100.41,96.06,100.7,95.48Z"/><path class="cls-213" d="M97.59,93.82c.87.5,1.88,0,2.75.29.43-.15.72.07.86.5a5.54,5.54,0,0,1-.5.87c-1.23.94-2-.36-2.89-.65C97.3,94.61,97.3,94.25,97.59,93.82Z"/><path class="cls-214" d="M92.18,95.63a.7.7,0,0,1,.86-.44c.87.73,1.81,1.38,1.16,2.75a10.38,10.38,0,0,1-1-.65C92.76,96.79,91.89,96.57,92.18,95.63Z"/><path class="cls-122" d="M101.2,94.61a5,5,0,0,1-.86-.5c-.37-.29-.37-.51.07-.73s.86-.36,1.3,0,.14.51-.08.73A2.73,2.73,0,0,1,101.2,94.61Z"/><path class="cls-215" d="M55.44,96.28a1.27,1.27,0,0,0,1.37-1c.22.14.43.21.65.36a8.37,8.37,0,0,0-.58,1.16c-.22.86-1.23,1-1.59,1.81a5.3,5.3,0,0,0-1.08-1.74C54.86,97.29,55.15,96.79,55.44,96.28Z"/><path class="cls-216" d="M69,97.87a1,1,0,0,0-.36-.07c-.58-.29-1.3-.51-1.3-1.38a.4.4,0,0,1,.5-.43A1.66,1.66,0,0,1,69,97.87Z"/><path class="cls-217" d="M79.55,95.77a.68.68,0,0,0,.36-.07A1.79,1.79,0,0,1,81.5,96a1.16,1.16,0,0,1,.36,1.88,6,6,0,0,1-2,1.74,1.67,1.67,0,0,1-1,.22c-.86,0-.64-.73-.79-1.23A4.59,4.59,0,0,1,78,97.22c-.29-.94.29-1.23,1-1.45A.83.83,0,0,0,79.55,95.77Z"/><path class="cls-218" d="M74.64,91.72a11,11,0,0,1,1.59-.87,1,1,0,0,1,1.37.29,1.2,1.2,0,0,1,0,1.45A9.1,9.1,0,0,1,76.73,94C75.14,93.89,74.49,93.09,74.64,91.72Z"/><path class="cls-57" d="M78.82,99.9c.22-.07.44-.15.73-.22a8.53,8.53,0,0,1,1.87-.22c.58.08,1.23.22.87,1.09-.43.43-.87.87-1.3,1.38A2.47,2.47,0,0,1,78.82,99.9Z"/><path class="cls-183" d="M79,95.84a3,3,0,0,0-1,1.45l-1.23.22a.69.69,0,0,1-.86-.36c-.15-.36,0-.8.28-.87C77.09,95.92,78,95.27,79,95.84Z"/><path class="cls-147" d="M82.29,100.48c0-.94-.65-.87-1.3-.8s-1,.29-1.44-.07A20,20,0,0,0,81.28,98c.87-.94.79-1.38-.51-1.89a5.38,5.38,0,0,0-.93-.36,2.83,2.83,0,0,0,.57-2.17c-.14-.58.36-.72.8-.87l1.58-.43c.94,1.59,1.74,1.88,3.18,1.16.22.14.51.21.72.36,1,.29,1.45,1.16,2,2-.72.36-1.51.65-2.24,1.09a2.4,2.4,0,0,0-1.22,2c-.36.44-.8.73-.94,1.31A6.1,6.1,0,0,0,82.29,100.48Z"/><path class="cls-219" d="M88.71,95.77c-.86-.43-1.3-1.3-1.95-2,.73-1.09-.86-.94-.86-1.67.43-.14,1.51.58,1.3-.72.07-.07.07-.15.14-.22a2.28,2.28,0,0,1,1-.29c.22.15.65.29.72.44.37,2,2,3,3.25,4.2.29.57.65,1.08.94,1.66a1.55,1.55,0,0,0-1.37.22C91,96.5,90.16,95.48,88.71,95.77Z"/><path class="cls-220" d="M73.77,45.6c.44-1.08,1.45-1.37,2.38-1.74.15-.07.44-.14.58.08s.07.36,0,.58a1.48,1.48,0,0,1-1.51,1.08A5,5,0,0,0,73.77,45.6Z"/><path class="cls-220" d="M73.77,45.6c-.5.8-1.15,1.38-2.31.8A2.26,2.26,0,0,1,73.77,45.6Z"/><path class="cls-221" d="M61.07,71.88c-.36.22-.87.51-1.3.22a.71.71,0,0,1-.15-1c.29-.51.73-.29,1.09-.08A.74.74,0,0,1,61.07,71.88Z"/><path class="cls-222" d="M66.91,90.49a2,2,0,0,1-1.73,2.1,3.64,3.64,0,0,1-2.45-.29C64.1,91.72,65.54,91.14,66.91,90.49Z"/><path class="cls-223" d="M88.28,90.92c-.22.58-.58.44-1,.29C86.12,90.56,85,90,83.81,89.33c-.37-.22-.87-.29-.94-.8.79-.14,1.51-.36,2.31-.5a.87.87,0,0,1,1,.5A11.39,11.39,0,0,1,88.28,90.92Z"/><path class="cls-224" d="M86,93.46c-.29.57-.86,1.3-1.44.86s-2.17-.5-1.73-2c.86-.58,1.51-.15,2.16.36A5.65,5.65,0,0,0,86,93.46Z"/><path class="cls-225" d="M87.13,91.43c.5.22.65.51.36.94s-.58.36-.94.14-.43-.21-.65-.36A6.83,6.83,0,0,0,87.13,91.43Z"/><path class="cls-226" d="M86.19,88.53a6.76,6.76,0,0,1-1-.5c.07-.22.36-.58.14-.73-1.44-.65-1.3-2.24-2-3.26-.07-.65.07-1.15.72-1.37l.44.22c.57.43.57,1.08.72,1.73A3.24,3.24,0,0,0,86,86.43a1.17,1.17,0,0,1,.29,1.09A5,5,0,0,0,86.19,88.53Z"/><path class="cls-227" d="M84,82.67c-.22.43-.51.94-.72,1.37-.07-.07-.15-.21-.22-.29-.29-.43-.72-1.08-.43-1.44C83,81.8,83.52,82.52,84,82.67Z"/><path class="cls-228" d="M86.33,87.52A.83.83,0,0,1,86,86.43c.15-.21.29-.36.51-.36C86.4,86.58,87,87.16,86.33,87.52Z"/></g></svg>