<svg id="Layer_1" data-name="Layer 1" xmlns="http://www.w3.org/2000/svg" xmlns:xlink="http://www.w3.org/1999/xlink" viewBox="0 0 73.61 81.59"><defs><style>.cls-1{fill:none;}.cls-2{clip-path:url(#clip-path);}.cls-3{fill:#dee0e1;}.cls-4{fill:#81a1d1;}.cls-5{fill:#96afd5;}.cls-6{fill:#3c6551;}.cls-7{fill:#85a4c9;}.cls-8{fill:#9bb2d1;}.cls-9{fill:#648cb0;}.cls-10{fill:#7298be;}.cls-11{fill:#6187b6;}.cls-12{fill:#8ca8c8;}.cls-13{fill:#254851;}.cls-14{fill:#92adc5;}.cls-15{fill:#9bb3ce;}.cls-16{fill:#d5d7cd;}.cls-17{fill:#708e96;}.cls-18{fill:#a7bdcd;}.cls-19{fill:#919f8c;}.cls-20{fill:#e7e5d7;}.cls-21{fill:#b7c2be;}.cls-22{fill:#c5cee1;}.cls-23{fill:#87a6cb;}.cls-24{fill:#2b4930;}.cls-25{fill:#658ac3;}.cls-26{fill:#bfc6b6;}.cls-27{fill:#7194c3;}.cls-28{fill:#a1b3da;}.cls-29{fill:#97b1ca;}.cls-30{fill:#5d787c;}.cls-31{fill:#a6bace;}.cls-32{fill:#b0baa6;}.cls-33{fill:#bdcad4;}.cls-34{fill:#1e3c4b;}.cls-35{fill:#617561;}.cls-36{fill:#3253a4;}.cls-37{fill:#92a38c;}.cls-38{fill:#80a0c5;}.cls-39{fill:#173241;}.cls-40{fill:#b6c0ae;}.cls-41{fill:#8fa089;}.cls-42{fill:#5f745d;}.cls-43{fill:#60856f;}.cls-44{fill:#446ab5;}.cls-45{fill:#bac8cf;}.cls-46{fill:#536554;}.cls-47{fill:#537c47;}.cls-48{fill:#305333;}.cls-49{fill:#274038;}.cls-50{fill:#7fa1be;}.cls-51{fill:#85957f;}.cls-52{fill:#83a1cf;}.cls-53{fill:#75866f;}.cls-54{fill:#4e6751;}.cls-55{fill:#b8c4b3;}.cls-56{fill:#515f4f;}.cls-57{fill:#9fb09a;}.cls-58{fill:#a5b9d0;}.cls-59{fill:#8e9e86;}.cls-60{fill:#b5beae;}.cls-61{fill:#547fbd;}.cls-62{fill:#7c9dbb;}.cls-63{fill:#96a08f;}.cls-64{fill:#3e635b;}.cls-65{fill:#6e91be;}.cls-66{fill:#72896e;}.cls-67{fill:#65917a;}.cls-68{fill:#909f88;}.cls-69{fill:#a5b19e;}.cls-70{fill:#c1cece;}.cls-71{fill:#7194bd;}.cls-72{fill:#81a170;}.cls-73{fill:#687a62;}.cls-74{fill:#456daf;}.cls-75{fill:#bac4b6;}.cls-76{fill:#4d7345;}.cls-77{fill:#8da28a;}.cls-78{fill:#abb5a3;}.cls-79{fill:#97a490;}.cls-80{fill:#4169b8;}.cls-81{fill:#618354;}.cls-82{fill:#bdc5b4;}.cls-83{fill:#84a592;}.cls-84{fill:#4166a8;}.cls-85{fill:#b3bba6;}.cls-86{fill:#abb9b1;}.cls-87{fill:#abb7a5;}.cls-88{fill:#bac8d8;}.cls-89{fill:#b7c0ad;}.cls-90{fill:#647a64;}.cls-91{fill:#476156;}.cls-92{fill:#7e8879;}.cls-93{fill:#5e675b;}.cls-94{fill:#8cb39f;}.cls-95{fill:#bbcec0;}.cls-96{fill:#769a68;}.cls-97{fill:#a9baad;}.cls-98{fill:#99aca3;}.cls-99{fill:#bbc5b5;}.cls-100{fill:#536151;}.cls-101{fill:#778373;}.cls-102{fill:#738071;}.cls-103{fill:#aab59e;}.cls-104{fill:#96aa8d;}.cls-105{fill:#4d684b;}.cls-106{fill:#122e4a;}.cls-107{fill:#cfd4c6;}.cls-108{fill:#557250;}.cls-109{fill:#7f9479;}.cls-110{fill:#7898b7;}.cls-111{fill:#4d77c0;}.cls-112{fill:#d0d6cb;}.cls-113{fill:#becace;}.cls-114{fill:#cbd1c1;}.cls-115{fill:#929f8a;}.cls-116{fill:#61725a;}.cls-117{fill:#afc9b9;}.cls-118{fill:#5b80b5;}.cls-119{fill:#748072;}.cls-120{fill:#688165;}.cls-121{fill:#6b9d80;}.cls-122{fill:#aebca5;}.cls-123{fill:#699279;}.cls-124{fill:#778572;}.cls-125{fill:#627d60;}.cls-126{fill:#b5bda9;}.cls-127{fill:#bbc9d3;}.cls-128{fill:#396a61;}.cls-129{fill:#b6c5d0;}.cls-130{fill:#72a795;}.cls-131{fill:#53897a;}.cls-132{fill:#b3c2db;}.cls-133{fill:#658cc4;}.cls-134{fill:#4770b3;}.cls-135{fill:#5a83be;}.cls-136{fill:#4a6ec1;}.cls-137{fill:#3b56a8;}.cls-138{fill:#d1d8e1;}.cls-139{fill:#7f9f88;}.cls-140{fill:#96afcf;}.cls-141{fill:#9eb4c9;}.cls-142{fill:#6489c4;}.cls-143{fill:#4877aa;}.cls-144{fill:#d9dce4;}.cls-145{fill:#bfcbdc;}.cls-146{fill:#476a83;}.cls-147{fill:#60859b;}.cls-148{fill:#84a5c5;}.cls-149{fill:#a0b7c9;}.cls-150{fill:#87a6c7;}.cls-151{fill:#4671a5;}.cls-152{fill:#3f6697;}.cls-153{fill:#638bb3;}.cls-154{fill:#5a83ae;}.cls-155{fill:#3e6698;}.cls-156{fill:#5883a3;}.cls-157{fill:#acbfcd;}.cls-158{fill:#6a90b7;}.cls-159{fill:#7295ba;}.cls-160{fill:#577fbe;}.cls-161{fill:#4f8789;}.cls-162{fill:#34605f;}.cls-163{fill:#467e70;}.cls-164{fill:#4a6c88;}.cls-165{fill:#75a1a5;}.cls-166{fill:#5880b0;}.cls-167{fill:#7398b8;}.cls-168{fill:#375c8d;}.cls-169{fill:#5780ab;}.cls-170{fill:#6b92b0;}.cls-171{fill:#779ab8;}.cls-172{fill:#608558;}.cls-173{fill:#eeebdf;}.cls-174{fill:#3d6143;}.cls-175{fill:#688573;}.cls-176{fill:#5785a2;}.cls-177{fill:#f5f2ec;}.cls-178{fill:#e6e6e2;}.cls-179{fill:#8ca5c8;}.cls-180{fill:#6489c3;}.cls-181{fill:#9db4d1;}.cls-182{fill:#abbaa5;}.cls-183{fill:#8ca9c9;}.cls-184{fill:#c0cae0;}.cls-185{fill:#41657a;}.cls-186{fill:#426bad;}.cls-187{fill:#8daacd;}.cls-188{fill:#a9ba9d;}.cls-189{fill:#3a5e32;}.cls-190{fill:#fcf9f0;}.cls-191{fill:#214042;}.cls-192{fill:#1d3841;}.cls-193{fill:#3758a8;}.cls-194{fill:#e1e2e9;}.cls-195{fill:#23454a;}.cls-196{fill:#ebe9e8;}.cls-197{fill:#619d8e;}.cls-198{fill:#e7e7eb;}.cls-199{fill:#4d7e9c;}</style><clipPath id="clip-path"><rect class="cls-1" x="-9.58" y="22.55" width="90" height="54" transform="matrix(0.53, -0.85, 0.85, 0.53, -25.37, 53.34)"/></clipPath></defs><g class="cls-2"><path class="cls-3" d="M52,38.21c.4-.18.37.09.41.25a11.21,11.21,0,0,0,1.79,4.1l.31.19c.1.06.1.06.26,0a.22.22,0,0,0,.19-.3c0-.43.72-.69.17-1.17s-.37-.52.12-.64l.06-.1c-.07-.33-.46-.15-.67-.28.36-.34.39-.61,0-1-.13-.23-.07-.34.06-.54a1,1,0,0,0-.29-.89.13.13,0,0,0-.17,0c.5-.12.56-.22.29-.67.86,0,.77-.8.76-1.23a.52.52,0,0,1,.48-.55c.27,0,.33-.08.46-.28s.59-.49.68-.86a.27.27,0,0,0-.08-.33,4.27,4.27,0,0,1-.92-1,9.34,9.34,0,0,0-1.64-.74A13.93,13.93,0,0,0,52,31.42c-.67-.28-1,.06-.94.83.2.12.2.12.53,0a3.52,3.52,0,0,1,.59,2.22,15.75,15.75,0,0,1,.1,2.76c0,.16-.09.36-.22.57C51.82,37.81,51.69,38,52,38.21Z"/><path class="cls-4" d="M70.27,31.89a6.49,6.49,0,0,0,1.35-1.71c-.14-.23-.24-.29-.36-.09a1.29,1.29,0,0,1-1.29.48c.13-.2.4-.18.56-.22.5-.12.5-.12.22-.57a1.69,1.69,0,0,0-.66.15c-.53-.05-1,.24-1.52.19-.1-.06-.33.08-.39.18a.27.27,0,0,1-.33.08c-.51-.32-.9-.14-1.22.37-.11-.49-.38-.52-.81-.5A4.13,4.13,0,0,1,64.29,30c.25-.41.59-.06,1-.24.23-.14.32-.51.58-.48.1.06,0-.27-.07-.33a1.05,1.05,0,0,0-1.23-.06c0-.27.15-.47.55-.65.22-.14.26,0,.4.25.1.06.14.23.4.25a.12.12,0,0,1,.17,0c.06-.11.19-.31,0-.44a2.34,2.34,0,0,0-1-.79c-.1-.07-.27,0-.39.18,0-.27.15-.48.11-.64s-.3-.19-.57-.21-.24-.3-.34-.36-.3-.19-.36-.09c0,.27-.2.31-.3.25s-.23.14-.12.2c.07.33.44.42.58.65s.26,0,.43,0a1.15,1.15,0,0,1-.34,1.21.3.3,0,0,0-.47-.15c-.16,0-.12.21-.09.37a.63.63,0,0,1-.64.59c-.27,0-.37-.09-.6.05,0,.27-.22.58.28.46.16,0,.2.13.4.25a.22.22,0,0,0,.31.19c.16,0,.12-.2.19-.3,0,.16.07.33.11.49s.14.23-.09.37,0,.53.15.66A2,2,0,0,1,63.83,33a.11.11,0,0,0,0,.16c.53,0,.45.85,1.09,1h0l-.07.11c-.06.1-.13.2,0,.26a1.28,1.28,0,0,1,.8.51.25.25,0,0,0,.44,0c.12-.2.55-.22.42-.44s-.31-.19-.64-.12c.26-.4.32-.51.73-.25.1.06.27.45.4.25a.58.58,0,0,0,.18-.74c-.14-.23-.34-.35-.31-.62a.45.45,0,0,0-.61-.38c-.33.08-.67-.28-.93.13l-.1-.06c-.07-.33-.17-.39-.5-.32.56-.22,1-.4,1.33.12.14.23.4.26.49-.11s.52-.39.61-.76c.41.26.66-.15,1-.23.17,0,.23-.14.33-.08-.13.21,0,.44.2.13s.19-.31.06-.54c.16,0,.24.3.36.09s.27,0,.37.09a.37.37,0,0,0,.63.11C70.26,31.46,70,31.7,70.27,31.89Z"/><path class="cls-5" d="M64.63,34.18c.1.07.26,0,.23-.14s-.11-.06-.21-.13-.47-.15-.44-.41.09-.37-.17-.4-.47-.15-.45-.41c.08-.81-.65-1-.8-1.64.06-.1.2.12.33-.08s0-.16-.14-.23c-.14-.23-.28-.45-.15-.66s-.14-.23-.14-.23c-.26,0-.13.21-.13.21,0,.16.14.23,0,.26s-.1-.06-.14-.22c-.08-.33-.31-.63-.73-.18a.65.65,0,0,1,0-.43c-.37-.52-.93-.3-1.4-.45-.1-.07-.16,0-.13.2s0,.17.14.23.37.09.47.15a.44.44,0,0,1,.25.72c-.26.41-.32.51.15.66a.6.6,0,0,0,.53.05.68.68,0,0,0-.62.32.32.32,0,0,1-.5.12.71.71,0,0,0-.46-.15c-.27,0-.43,0-.19.31A7.76,7.76,0,0,0,62,32.71a.37.37,0,0,0-.11.63,2.29,2.29,0,0,0,.58.65c.2.12.63.11.31.62-.12.2.22.56.52.75s.43,0,.6-.06a.88.88,0,0,1,.65-.15c0,.16-.19.31,0,.43a7.66,7.66,0,0,0,3.45-1.25c0-.6.54-.65.84-.89.06-.1.33-.08.35-.35-.2-.12-.34-.35-.54-.48a.48.48,0,0,0-.37-.09,10.34,10.34,0,0,0-1.57.72c-.07.11-.13.21,0,.27.41.25.32.62.06,1-.37-.09-.31-.62-.81-.5s-.22.57-.51.81c.31.19.33-.08.5-.11s.16,0,.26,0,0,.16-.12.2-.17,0-.23.14-.09.37-.33.08-.61-.38-.15-.66c-.37-.09-.56.22-.86,0a.73.73,0,0,0-.47-.15C64.23,34.36,64.5,34.39,64.63,34.18Z"/><path class="cls-6" d="M39.39,5.51A55.73,55.73,0,0,1,34.12,11c-.06.1-.23.14-.29.24.06-.1-.24-.29,0-.43s.32-.51.44-.72a.41.41,0,0,0,.09-.37c-.1-.06-.16,0-.33.08s-.16,0-.23.14a17.21,17.21,0,0,0-2.91,4,3.18,3.18,0,0,0-.21,1c0,.27.2.13.3.19a22.51,22.51,0,0,0,5-2.3A30.57,30.57,0,0,1,39.33,11c-.24-.3-.43,0-.7,0-1.81.42-3.34,1.74-5.18,2.44.16-.47.49-.55.61-.76-.14-.23-.47-.15-.67-.27-.33.07-.45.28-.68.42a7.56,7.56,0,0,1,.91-.56c.66-.16.89-.3,1.08-.61.15-.47.65-.59.74-.95,1-1.1,2-2,2.84-3.2a15,15,0,0,0,1.31-1.87C39.55,5.47,39.55,5.47,39.39,5.51Z"/><path class="cls-7" d="M62.45,46.44a9,9,0,0,0,1.34-2.14c0-.27,0-.17-.2-.13s-.29.25-.4.18-.07-.33.06-.53l.25-.41a6.41,6.41,0,0,0,.36-1.48l-.1-.06.1.06c.31.19.47.15.56-.22-.07-.33,0-.53,0-.86-.2-.13-.2-.13-.93.13.07-.1.36-.35.16-.47-.44-.42-.12-.5.11-.64-.11-.49-.4-.25-.67-.27s-.39.17-.63-.12c0-.16-.53,0-.67-.27s-.17,0-.14-.23c0-.43-.11-.5-.57-.22-.06.11-.23.15-.29.25l-.13.2,0,.17c0,.43.68.71.65,1-.42.45-.11.64-.1,1.07s.58.65.06,1c.31.62,0,.7-.51.82-.17,0-.07.1-.13.2s0,.27.18.4a2,2,0,0,1,.24,1.85,1.1,1.1,0,0,0-.08.8c0,.17-.06.11-.22.15s-.16.47-.12.63-.19.31-.46.28c.05.6.15.66.61.38l.88-.73c0-.26.38-.61.3-.94,0-.16-.3-.19-.4-.25.25-.41.55-.65.64-1s.11-.64-.36-.79c-.2-.13-.07-.33-.17-.39s.16,0,.16,0a.64.64,0,0,0,.46-.28c.29-.25.33-.08.27,0a.68.68,0,0,1-.4.18c-.1-.06-.36-.09-.29.24l0,.17A1.42,1.42,0,0,1,62,46a1.48,1.48,0,0,1-.13.21C62.15,46.25,62.16,46.68,62.45,46.44Z"/><path class="cls-8" d="M55.85,17.63a15.63,15.63,0,0,0-1.48.79c0,.53.29.89.4,1.38.47.15.84.24,1.2-.11.22-.14.19-.3.09-.36.1.06.41.68.59-.06a.13.13,0,0,1,.17,0s.16,0,.1.07c-.09.37.24.29.4.25a.81.81,0,0,1,1-.07c.2.13.33-.08.49-.12-.06.11-.23.14-.25.41s-.32.51-.5.12l-.2-.13-.13.21c-.22.14-.09.37.05.59.41.26.28.46-.11.64a.52.52,0,0,0-.42.45.11.11,0,0,0,0,.16c.1.07.17,0,.27,0,.39-.18.58-.49.81-.63a.46.46,0,0,1,.23-.14c.29-.24.62-.32.71-.69.07-.1,0-.27.16-.47.1.06,0,.16.14.23s.44.41.59-.06c.06-.1.1.07.1.07.24.29.67.27,1,.36.29-.24.28-.68.37-1.05a.44.44,0,0,0,0-.26c0-.17-.08-.33-.11-.5s-.41-.25-.74-.17c-.29.24-.48.55-.84.89h0a.25.25,0,0,0-.07-.33c-.37-.09-.18-.39-.22-.56s-.14-.23-.17-.39.19-.31-.08-.33A.5.5,0,0,0,59,18c-.06.1-.09.37,0,.43s0,.16,0,.27c-.23.14-.27,0-.2-.13.24-.84-.32-.62-.52-.75l-.1-.06a.32.32,0,0,0-.11-.5c-.21-.12-.44-.41-.65-.54a2.38,2.38,0,0,0-1.14.7c.1.07.14.23,0,.27a.62.62,0,0,0-.29.24C56,17.86,56,17.86,55.85,17.63Z"/><path class="cls-9" d="M52,38.21c0-.27-.11-.5.22-.58.17,0,.09-.36.22-.57.11-.64-.14-1.36,0-2.1a1.15,1.15,0,0,0-.25-.72c-.1-.07,0-.43-.34-.36-.16,0-.19.31-.15.47s0,.17.07.34.15.66-.28.67l-.12.2c-.07.11-.36.35,0,.44l-.07.1a3.11,3.11,0,0,1-.85.46c-.16,0-.33.08-.25.41.11.49-.18.74-.27,1.11a.25.25,0,0,0,.07.33l.1.06c-.06.1-.1-.06-.16,0a2.62,2.62,0,0,1-.79.36c.08.33-.18.74.33,1.05a1.26,1.26,0,0,0-1.05.77c-.25.41-.85.46-1.1.87-.06.1-.2-.12-.3-.19a.33.33,0,0,0-.5.12c-.09.37.11.49.32.62-.07.1.49-.12.13.23-.06.1.08.33.34.35s.4-.18.6,0a7,7,0,0,0,2.57-2.08c.42-.45.63-1,1-1.47-.24-.29.09-.37.22-.58S51.93,38.31,52,38.21Z"/><path class="cls-10" d="M56.87,44.8c.75.61,1.66,1.18,2.4,1.78a.41.41,0,0,0,.37.09c.5.32.72-.26,1-.33,0-.17-.3-.19-.4-.26L60,45.89c-.3-.19-.6-.38-1,0,.13-.2.52-.38.38-.61-.17-.4-.67-.28-1.1-.27.07-.1.09-.36,0-.43-.4-.25.15-.47.12-.63s.1.06.1.06c.2.13.37.09.39-.18-.14-.23-.15-.66-.29-.89.1.06.08.33.24.29.21.13.19-.3.3-.24.43,0,.15-.47.48-.55.13-.2-.08-.33-.05-.6-.4-.25-.41-.68-.43-1.12,0-.26,0-.43-.4-.25,0,0-.08-.33-.34-.35-.1-.07-.17,0-.23.14a1,1,0,0,0-.24.84c0,.16.34.35-.06.53a.11.11,0,0,1-.16,0,.68.68,0,0,1-.48-.58c0-.17-.07-.33-.18-.39s-.27-.46-.5-.32a.44.44,0,0,0-.12.64,1.65,1.65,0,0,1,.58.64,1.07,1.07,0,0,0-.51-.75c-.69.43-.71,1.13.1,1.63.1.07-.06.1,0,0-.2-.12-.26,0-.33.08a.26.26,0,0,0,.08.33.9.9,0,0,1,.48.58.39.39,0,0,0-.51-.31c-.23.14,0,.26,0,.43l.1.06c.21.13.24.29.45.42C56.73,44.57,56.67,44.67,56.87,44.8Z"/><path class="cls-11" d="M59.78,18.53c0,.17-.48.55.22.56l0,.17c0,.16-.26,0-.12.2.1.06.2.13.33-.08s.48-.55.61-.75a5.91,5.91,0,0,0,1.08-1.74,2.35,2.35,0,0,0,.16-1.6l0-.16c.59-.49.21-1,.1-1.51,0-.16.15-.47-.22-.56a.58.58,0,0,0-.58.49A4.58,4.58,0,0,1,59,15.93a2.62,2.62,0,0,1-.79.36c-.19.3-.42.44-.24.84.14.23.34.35.47.15.15-.47.46-.28.75-.53.07.33-.16.47-.12.64a.25.25,0,0,0,.08.33.27.27,0,0,0,.33-.08c.42-.44.59-.05.73.18s.18.39.44.42h0l-.06.1C60.14,18.19,60.14,18.19,59.78,18.53Z"/><path class="cls-12" d="M47,30.85a2.18,2.18,0,0,1-.65.59A10.52,10.52,0,0,0,45,32.55c-.06.11.14.23.24.3s.22.55.61.37c.06-.1,0,.17.14.23s0,.17-.07.1c-.65.16-.57.92-1,1.21a.47.47,0,0,0-.09.36c.14.23-.05.54-.08.81a.53.53,0,0,0,.15.66c.21.12.37.08.46-.28l.17,0a.94.94,0,0,0,.52-.39c.25-.41.48-.55,1-.23.16,0,.33-.08.39-.18l.06-.1a3.69,3.69,0,0,1,.78-.8c.13-.2.42-.44.45-.71s.09-.37-.08-.33c-.2-.13-.33.08-.49.12a3.32,3.32,0,0,0-.29-.89c-.27,0-.23.14-.36.34s-.09.37,0,.6,0,.43-.22.57l-.12.21c0-.17.06-.1.12-.21a.31.31,0,0,0-.11-.49c-.1-.07.19-.31,0-.43s-.47-.15-.18-.4c0,.17.05.6.34.36.26-.41.25-.84.5-1.25.13-.21.27,0,.43,0s.3-.24.36-.34c0-.27-.14-.23-.37-.09.23-.14.4-.18.46-.28s-.2-.13-.3-.19c-.27,0-.47-.15-.64-.11a.41.41,0,0,0-.22.14c.07.33-.32.51-.45.71a.52.52,0,0,1-.69.43c.13-.21.4-.18.46-.29C47,31.39,47.37,31.21,47,30.85Z"/><path class="cls-13" d="M48.63,33.7l-.45.71c-.29.24-.48.55-.77.79-.07.1-.07.1,0,.17.27,0,0,.26.08.33.14.23.37.08.53,0A5.37,5.37,0,0,0,50,33.38c.25-.4.34-.77.6-1.18l.06-.1c0-.17,0-.27,0-.44a.13.13,0,0,0-.17,0c.09-.37-.18-.82.34-1.21.23-.14.19-.3,0-.43a4.49,4.49,0,0,1-1.43-.18.23.23,0,0,1-.31-.19c0-.17-.07-.33-.3-.19-.06.1-.17,0-.1-.07-.08-.33-.28-.45-.42-.68-.1-.06-.14-.23-.17-.39s-.08-.34-.24-.3c-.33.08-.74-.17-1,.07-.59.06-1,.07-1.62.12a9.2,9.2,0,0,1-1.72.06c-.17,0-.33.08-.3.25s.21.12.37.08c0-.16.27,0,.56-.22a4.14,4.14,0,0,0,1.82,0,2.8,2.8,0,0,1,.94.3c.3.19.51.32.58.65s.28.45.52.74a1.45,1.45,0,0,0,.54.48,3.18,3.18,0,0,1,.91.57c.2.13.43,0,.44.42A16.1,16.1,0,0,0,48.63,33.7Z"/><path class="cls-14" d="M51.57,19.08a2.25,2.25,0,0,0-1.17-.59c-.47-.15-1,0-1.54-.25-.2-.13-.29.24-.55.22a13.39,13.39,0,0,1-2.07-.3,3.44,3.44,0,0,0-.5,2.38l.1.07c.32-.52.62-.33.86,0,.17,0,.39-.18.6-.06s.26,0,.39-.18,0-.26.19-.3.14.22.24.29a.11.11,0,0,1,0,.16l.3.19.17,0c.14.23,0-.43.16,0l.1.07c.23-.14.22-.58.66-.16.26-.41,1-.4,1-.77-.25.41.28.46.52.75.1.07.2.13.14.23.2.13.43,0,.33-.08a1.29,1.29,0,0,1,.31-.94C51.88,19.27,51.61,19.24,51.57,19.08Z"/><path class="cls-15" d="M42.45,42.46c-.06.1-.06.1,0,.17l2.69.41c.4-.18,1-.4.91-1,.06-.1.06-.1.16,0s.33-.08.29-.24-.2-.13-.3-.19c.39-.18.86,0,1.22-.38.06-.1.09-.37.39-.18.1.07.17,0,.23-.14,0-.27,0-.43.12-.63-.18-.4-.38-.52,0-.7a.25.25,0,0,0-.07-.33c-.2-.13.13-.21,0-.27,0-.27.06-.54-.21-.56a.68.68,0,0,0-.62.32c-.09.37-.32.51-.75.53a.93.93,0,0,0-.94.83c-.09.37-.33.07-.39.18-.4.18-.59.48-1,.66a1.69,1.69,0,0,1-.59.49.62.62,0,0,1-.45.28c-.07.1-.13.2-.46.28C42.68,42.32,42.61,42.42,42.45,42.46Z"/><path class="cls-16" d="M48.13,58.35c0-.27.13-.2.33-.08a24.1,24.1,0,0,0,2.74,1c0-.44,0-.44.45-.72.06-.1.1.07,0,0-.06.1-.23.14-.19.31a.41.41,0,0,0,.26,0c.23-.14.33-.07.6,0a.11.11,0,0,0,.16,0c.69-.42.62-.75-.13-1.36a.72.72,0,0,0-.47-.15c-.9-.14-1.69-.21-2.59-.34-.74-.18-1.6-.15-2.33-.33a.26.26,0,0,0-.33.08c-.13.21-.46.28-.69.43.11.49.54.48,1,.73l.71.44C47.76,58.26,48,58.39,48.13,58.35Z"/><path class="cls-17" d="M58.11,58.34a8.19,8.19,0,0,0-1.52-.94c-.5-.32-1.17-.6-1.68-.91-.2-.13-.43,0-.45.28s.07.33.17.39c.31.19.51.32.15.66s-.09.37.38.52c-.17,0-.27,0-.43,0s-.29.24-.09.37.3.19.17.39.24.29-.12.2-.3.25-.16.48.18.39.44.41c1.17.16,2.4.22,3.63.28,0-.27-.05-.6-.15-.66a8.88,8.88,0,0,0-.94-.3c-.26,0-.19.3-.25.41.09-.37.09-.37-.46-.85A1.67,1.67,0,0,0,58.11,58.34Z"/><path class="cls-18" d="M43,38.25c.22.56,0,1-.09,1.5-.07.1,0,.17,0,.27l.1.06c.27,0,.23-.14.36-.34a3.34,3.34,0,0,0-.16,1.6c.08.33.18.39.51.32a2,2,0,0,0,.65-.59,12.4,12.4,0,0,0,1.42-1.38c.13-.21,0-.44-.28-.46-.47-.15-.57-.21-.21-.56l.06-.1c.55.48.56-.22.85-.46s.36-.35.59-.49l.13-.2a.11.11,0,0,1,0,.16c.24.29.43,0,.53.05a1,1,0,0,0,.42-.45c.07-.1.2-.3.36-.34s.33-.08.29-.24-.2-.13-.4-.26a.44.44,0,0,1-.37-.08,2.21,2.21,0,0,0-.79.36A11.27,11.27,0,0,1,43.86,38C43.43,38,43.16,37.94,43,38.25Z"/><path class="cls-19" d="M1,80.53c.23-.14.39-.18.52-.38s.16,0,.23-.14a.13.13,0,0,1,0-.17c.23-.14.35-.34.58-.48a2.57,2.57,0,0,0,1.05-.77l.12-.21A58.56,58.56,0,0,0,9.17,73a26.49,26.49,0,0,0,2.59-3.49.44.44,0,0,0,.3-.24.26.26,0,0,1,.33-.08A24.12,24.12,0,0,1,10,72.67a53,53,0,0,1-6.41,6.21,23.64,23.64,0,0,1-2.76,2C.67,80.78.9,80.64,1,80.53Z"/><path class="cls-20" d="M53.94,56c-.51-.32-1.1-.26-1.61-.58l.5-.11c-.14-.23-.31-.19-.47-.15a24,24,0,0,1-2.48.15c-.27,0-.5.11-.77.09a.11.11,0,0,0-.16,0,2.77,2.77,0,0,1-.7,0c-.1-.06-.16,0-.26,0a3.33,3.33,0,0,0-.7,0,.11.11,0,0,0-.16,0c-.17,0-.37-.08-.4.18-.06.11.14.23.24.3.31.18.57.21.77.34a6.6,6.6,0,0,0,2,.56c.8.07,1.57.41,2.37.48.26,0,.57.22.9.14.16,0,.12-.2,0-.27s-.2-.12-.17-.39.09-.37.45-.28A1.28,1.28,0,0,0,53.94,56Z"/><path class="cls-21" d="M53.94,56c-.17,0-.48.55-.6,0l-.1-.06c-.09.37-.45.28-.68.42.36.09.4.26.11.5.2.13.43,0,.34.35a.12.12,0,0,0,0,.17.13.13,0,0,0-.17,0c-.1-.06-.3-.19-.43,0a.46.46,0,0,1,.14.23c.37.09,0,.6.31.62-.12.21-.29.25-.42.45-.09.37,0,.53.55.48.26,0-.24-.29.13-.2.2.12.36.08.63.11s.2.12.14.23-.17,0-.17,0c-.26,0-.29.24-.25.4a3.78,3.78,0,0,0,1.1.27c-.14-.23,0-.44-.28-.46-.1-.06,0-.17,0-.27s.06-.1.16,0,.23-.14.46-.28c-.2-.12-.23.14-.27,0s.42-.45-.11-.5c0,0-.2-.12-.14-.23s.23-.14.33-.07c.31.18.43,0,.56-.22-.16,0-.59.05-.53,0s.19-.31.52-.39c-.14-.22-.11-.49-.48-.58-.1-.06-.37-.09-.24-.29s.19-.31.46-.28C54.67,56.2,54.24,56.21,53.94,56Z"/><path class="cls-22" d="M64.53,35.68h0c-.07-.33.36-.34.16-.47s-.54-.05-.7,0l-.06.1c-.36.35-.53.39-.74-.17-.1-.06-.3-.19-.34-.35s.33-.08.36-.35-.14-.23-.34-.35c-.47-.16-.65-.55-1-.9-.1-.07,0-.27.19-.31s.33-.08.29-.24a6.81,6.81,0,0,1-2.47-1c-.12.63-.08.8.55.91.37.09.34.35.64.54-.33.08-.79-.07-.64.59.56.22.51.75.62,1.25.1.06.14.22.18.39a1.76,1.76,0,0,0,.83.24l.11.06A5.9,5.9,0,0,0,64.53,35.68Z"/><path class="cls-23" d="M62.25,13.69c0,.26.11.49.08.76s.11.5-.15.47c-.39.18-.09.37-.12.64-.06.1,0,.16.08.33.15.66-.48,1-.43,1.58a3,3,0,0,0-.86,1.16c.23-.14.43,0,.63.11a.16.16,0,0,0,.13-.2,1,1,0,0,1-.08.8c-.07.1-.07.1,0,.27s0,.16.14.22c.27,0,.19-.3.36-.34s0-.17,0-.27c0,.27.18.39.38.52s.37.09.08.33a.66.66,0,0,0-.06.54c.07-.11.17,0,.27,0s.06-.1.23-.14a1.44,1.44,0,0,0,.43-1.15c0-.16.26-.41.28-.67a2.35,2.35,0,0,0-.33-1.49,6.37,6.37,0,0,1-.89-2.4C62.4,14.35,62.49,14,62.25,13.69Z"/><path class="cls-24" d="M49.81,56.56c-.64-.11-1.31-.39-1.94-.5-.87-.4-1.77-.54-2.54-.88.43,0,.71.44,1.29,0,.06-.1.53,0,.73.17l.11.07a1.24,1.24,0,0,0,.76-.1.48.48,0,0,0,.09-.37c-.24-.29-.57-.21-.94-.3-.7,0-1.24-.49-1.77-.54-.5.12-.87-.4-1.41-.45s-1.1-.26-1.62.12c-.29.25,0,.27.18.4.16,0,.36.09.47.15-.17,0-.31-.19-.44,0,0,.17-.45.29-.05.54a.87.87,0,0,0,.8.07c.29-.24.39-.18.53.05h0c-.1-.06-.14-.23-.3-.19s-.13.2,0,.27a22.41,22.41,0,0,0,2.58,1,2.18,2.18,0,0,0,.94.3,11.72,11.72,0,0,0,1.94.5c.16,0,.36.09.53,0A.48.48,0,0,0,49.81,56.56Z"/><path class="cls-25" d="M63.7,18.57c-.23.14-.32.51-.61.75-.07.1-.07.1,0,.16.24.3.12.5-.28.68l-.12.2c-.33.08.4.26,0,.27-.27,0-.08-.33-.11-.5s.19-.3.35-.34a.72.72,0,0,0-.47-.15l-.19.31-.06.1c0,.16-.19.3-.25.41-.36.34-.32.51.18.82,0,.27-.32.51-.24.84a1.82,1.82,0,0,1-.34,1.21c-.22.14-.62.32-.28.68.1.06.2.12.27,0,.44-.71,1.23-1.07,1.68-1.79a3.81,3.81,0,0,0,.69-1.55c0-.43-.18-.4-.51-.32l.5-.11c.06-.11,0-.27.09-.37-.08-.33-.32-.63-.19-.83C63.77,18.9,63.74,18.73,63.7,18.57Z"/><path class="cls-26" d="M21.81,49.86c.22-.58.33-1.21.55-1.79.35-.77.49-1.68.83-2.45.44-1.15.91-2.13,1.28-3.18a18.52,18.52,0,0,1,1.14-2.27c.22-.57.84-.89.59-1.62,0-.26-.14-.22-.31-.18a20.48,20.48,0,0,0-1.63,3.51c-.06.11-.09.37-.39.18-.13.21.07.33.11.5l-.13.2c-.37,1.05-.91,2.13-1.18,3.24a9.76,9.76,0,0,0-.83,2.46c0,.16.27,0,.14.23a1.39,1.39,0,0,0-.28.67C21.57,49.57,21.51,49.67,21.81,49.86Z"/><path class="cls-27" d="M46.73,20.31a.42.42,0,0,1-.14-.23c-.24-.29-.51-.31-.6.05a3.21,3.21,0,0,1-.19.31,9.37,9.37,0,0,0-.07,3.5,2,2,0,0,1,0,1l.11.06c.16,0,.16,0,.22-.14s.06-.54.18-.74c.47.15.83-.2.61-.75a1,1,0,0,0-.31-.63c.17,0,.19.83.63.12.13-.21-.17-.4.06-.54l.12-.2a1.48,1.48,0,0,0,.13-.21.22.22,0,0,0,.19-.3c0-.17-.2-.13-.36-.09s-.47-.15-.28-.46c.06-.1.29-.24.15-.47s-.36-.09-.53,0c.1.07.27,0,.13-.2Z"/><path class="cls-28" d="M54.25,18.62c-.36.35-.75.53-1.11.87-.23.14-.35.35-.62.32-.13.21.14.23.18.4.26,0,.39-.18.65-.16-.26,0-.35.34-.65.16a.44.44,0,0,0-.3.24.37.37,0,0,1-.25.41,5.13,5.13,0,0,0-1.22,1.5c.17.4-.16.47-.29.68s-.25.41-.18.74c0,.16.23-.14.21.12s.07.33.24.29a.23.23,0,0,0,.19-.3c0-.27.29-.24.35-.35,0-.59.41-.88.77-1.22.23-.14.39-.18.38-.61s.61-.76,1-.77a.36.36,0,0,0,.56-.22c0-.27.19-.31.36-.35l.06-.1A2,2,0,0,0,54.25,18.62Z"/><path class="cls-29" d="M56.87,44.8c-.07-.33.26-.41.48-.55-.49.12-.67-.28-.91-.57-.1-.06-.2-.12,0-.16,0,0,.23-.14.26,0s.21.13.41.25a3.11,3.11,0,0,0-.46-.85c-.2-.12-.3-.18-.17-.39s.2.13.37.09c-.32-.62-1-1.07-.25-1.86,0-.26,0-.43.12-.63.5.31.65,1,.93,1.43,0,.16,0,.16.23-.14,0-.43-.42-.69-.43-1.12a1.64,1.64,0,0,0-.48-.58c-.14-.23-.5-.32-.58-.65,0-.16-.2-.12-.37-.09-.45.29-.47,1-.83,1.33l-.16,0c-.06.1,0,.16.14.23a1.55,1.55,0,0,1,.27,1.59.26.26,0,0,0,.08.33l.2.12c-.07.11-.17,0-.27,0a.11.11,0,0,0-.16,0c-.13.2.32,1.05.52,1.18A2.17,2.17,0,0,0,56.87,44.8Z"/><path class="cls-30" d="M58.11,58.34a.43.43,0,0,0-.29.25c-.26.4-.72.25-1,.33,0,0-.14-.23-.27,0s-.29.24.07.33c.11.06.08.33.35.35a.47.47,0,0,1,0,.27c-.06.1-.33.08-.13.2s0,.17.2.13l.2-.31c.06-.1,0-.16.09-.37.1.07,0,.27.07.33.06-.1.26-.4.43,0L58,60c.3-.25.33-.08.24.29-.12.2.2.12.24.29.6-.05,1.23.06,1.83,0,.12-.2.29-.24.42-.44s-.14-.23-.24-.3A10.88,10.88,0,0,0,58.11,58.34Z"/><path class="cls-31" d="M47,35.48a3.82,3.82,0,0,0-.8-.07c-.16,0-.2-.13-.14-.23s-.2-.12-.26,0c-.19.3.1.06.2.12a.63.63,0,0,1-.22.58c-.06.1-.23.14-.29.24s-.43,0-.13.21c-.06.1-.13.2-.23.14s-.3-.19-.17-.4a1.87,1.87,0,0,0,.18-.74c.06-.1,0-.16-.21-.12-.53,0-.52.38-.81.62l-.38.62c-.06.1-.09.37.07.33s.23-.14.23-.14c-.25.4-.43,0-.59.05l-.1-.06a3.55,3.55,0,0,0-.27,1.1.48.48,0,0,1-.09.37,3.06,3.06,0,0,0,1.48-.35,3.15,3.15,0,0,0,1.08-.6c.22-.57.84-.89,1.26-1.34C46.82,35.69,47.15,35.61,47,35.48Z"/><path class="cls-32" d="M26,38.26l.3.19c.2.13.27,0,.33-.08a16.48,16.48,0,0,1,6.34-6.54,20.15,20.15,0,0,1,2.81-1.36.8.8,0,0,0-.86,0,18.57,18.57,0,0,0-5,3.27c-.69.42-1.09,1.3-1.78,1.72A8.68,8.68,0,0,0,26,38.26Z"/><path class="cls-33" d="M64.23,40.89c.08.33,0,.6.13.93-.07.1,0,.26.14.22a6.67,6.67,0,0,0-.73-3.57,6,6,0,0,0-1.24-2c-.19.3,0,.7-.51.81l-.17,0c-.56.22-.15.47-.08.8,0,.6.31.19.47.16.24.29-.41.87.33,1.05.26,0,.4.25.54.48s.56-.22.73.18A6.18,6.18,0,0,0,64.23,40.89Z"/><path class="cls-34" d="M45.91,24.76c-.1-.06-.16,0-.23.15-.09.37-.09.37.12.49-.23.14-.28-.46-.57-.21s-.3.24-.16.47c.31.19.67.28.85.67.3.19.54.48.81.5s.63.12.64.55l.1.06a.64.64,0,0,0,.43,0c.17,0,.33-.08.26-.41,0-.17-.14-.23-.41-.25.4-.18.64.11.9.13s.54.05.63-.32c-.67-.28-1.25-.92-1.93-1.2C46.89,25.23,46.48,25,45.91,24.76Z"/><path class="cls-35" d="M44.05,28.42c-.33.08-.7,0-1,.07.62-.32,1.36-.14,1.92-.36a30.3,30.3,0,0,0-3.84.29,21.6,21.6,0,0,0-4.52,1.16c.08.33.41.25.57.21s.23-.14.43,0a30.1,30.1,0,0,1,6.08-1.18A.24.24,0,0,0,44.05,28.42Z"/><path class="cls-36" d="M70.13,30.1c.16,0,.39-.18.56-.22.43,0,.73.17,1.06.1l.13-.21c.19-.3.32-.51-.15-.66a8.86,8.86,0,0,1-2-1.53,2,2,0,0,0-1-.63c-.4-.25-.47-.15-.62.32,0,.17.24.29.34.36l.3.19c.1.06.2.12.27,0a.47.47,0,0,0,0-.27,3.85,3.85,0,0,0,.62,1.25c.1.06,0,.16.08.33-.13.2,0,.26.17.39a1.25,1.25,0,0,0,.7,0,1,1,0,0,1-.66.16c-.1-.07-.16,0-.13.2S70,30,70.13,30.1Z"/><path class="cls-37" d="M27,52.11a25.77,25.77,0,0,1,5-4c.07-.11.07-.11,0-.17a.26.26,0,0,0-.33.08,21,21,0,0,0-2.75,1.69A11.63,11.63,0,0,0,26,52.61c-.12.21-.25.41-.38.61.18.4.3.19.43,0A3.08,3.08,0,0,1,27,52.11Z"/><path class="cls-38" d="M59.78,18.53l.21.13c.11-.64.25-.41.49-.12.16,0,.19-.3.42-.45-.39.18-.6.06-.61-.37s-.57-.22-.58-.65a.46.46,0,0,0-.23.14c-.06.1-.19.31-.35.35-.08-.33.61-.76.17-1.18-.17,0-.38.62-.66.16-.17,0-.07.1-.13.2s.08.33-.09.37c0,0-.27,0-.2-.12s-.18-.4.05-.54c.1.07,0,0,0-.16a2.09,2.09,0,0,0-.95.4,2.25,2.25,0,0,0,.58.64c.2.13.14.23,0,.27s-.13.2,0,.27c.33-.08.51.31.9.13a.42.42,0,0,0,0,.7c.45.42.46-.28.76-.09-.54-.48-.54-.48.18-.74C59.61,18.14,59.32,18.38,59.78,18.53Z"/><path class="cls-39" d="M45.46,37c-.85.46-1.67.65-2.46,1a1.69,1.69,0,0,0-.56.22c.27,0,.37.09.53,0A10.57,10.57,0,0,0,46.42,37a4.35,4.35,0,0,0,1.21-.81,3.39,3.39,0,0,0,1.23-1.07A8.7,8.7,0,0,0,50.3,33c-.07-.33.32-.51,0-1a12,12,0,0,0-1,1.8,17.18,17.18,0,0,1-1.58,1.85,4.28,4.28,0,0,0-.81.63c.13-.21.56-.22.38-.61-.1-.07.3-.25-.07-.33C46.69,35.89,46.11,36.38,45.46,37Z"/><path class="cls-40" d="M22.15,30.64A34.56,34.56,0,0,1,23.62,26,30.62,30.62,0,0,1,25,23.08a.42.42,0,0,0-.24-.29l-.51.81a9.81,9.81,0,0,1-.65-2.1c-.1-.07-.1-.07-.16,0s.11.5-.18.74a.62.62,0,0,0,.17.4c.37.08.28.45.25.72.66,1-.12,1.77-.46,2.55a13.69,13.69,0,0,0-.77,2.35A11.91,11.91,0,0,1,22,30.14C22,30.41,21.78,30.55,22.15,30.64Z"/><path class="cls-41" d="M24.46,31.66a11,11,0,0,1-2.35,2.64c-.18-.39-.05-.6-.12-.93a2.69,2.69,0,0,1,0-1.13c.06-.1,0-.17-.14-.23s0-.16-.14-.23a17.3,17.3,0,0,0,0,3.67,1.86,1.86,0,0,1,.27,1.15c0,.27,0,.44.34.36a5.89,5.89,0,0,0-.21-1.69c-.08-.33.05-.54.34-.78a5.89,5.89,0,0,0,2.36-2.65A.22.22,0,0,0,24.46,31.66Z"/><path class="cls-42" d="M42.68,54.24c.23-.14.37.09.54,0l.06-.1a.87.87,0,0,0-.63-.11c-.1-.07-.27,0-.24-.3a.9.9,0,0,0-1.09.17.61.61,0,0,1-.76.1A43.41,43.41,0,0,0,36,53.47c-.47-.15-.64-.11-.89.3.7,0,1.33.12,2,.13a29.64,29.64,0,0,1,3.76.5c.26,0,.07.33.27.46a.54.54,0,0,1,.51.31c.14.23.3.19.37.09a.71.71,0,0,0,0-.43c-.14-.23-.14-.23-.67-.28C41.82,54.27,42.39,54.48,42.68,54.24Z"/><path class="cls-43" d="M34,9.82l.5-.12a6.13,6.13,0,0,1-.87,1.17c-.06.1-.23.14-.13.2s.17,0,.33-.08a1,1,0,0,0-.15.47.85.85,0,0,0,.58-.48c-.2-.13-.2-.13-.07-.33a4.51,4.51,0,0,1,1-1.53c1.18-1.68,2.43-3.45,3.51-5.18,0-.17,0-.17-.2-.13-1.18,1.67-2.37,3.34-3.55,5A4.19,4.19,0,0,0,34,9.82Z"/><path class="cls-44" d="M68.26,27.23c0-.26.26-.41.56-.22a8,8,0,0,0-2-1.26c-.61-.38-1.3-.39-1.81-.7-.1-.07-.2-.13-.43,0l-.16,0c-.17,0-.54-.05-.46.28a.52.52,0,0,0,.6.38.62.62,0,0,1,.54,0c-.07.1-.4.18-.26.41s.08.33.3.19a.68.68,0,0,0,.4-.18c.23-.14.33-.08.47.15s.5.31.7.44c.37.09.7,0,.71.44C67.54,27.49,68,27.48,68.26,27.23Z"/><path class="cls-45" d="M55.92,44.07c0-.17-.46-.15-.11-.5l.06-.1c-.43,0,0-.6-.47-.58.3.19.49-.12.72-.26-.2-.13-.29.24-.43,0s0-.26.15-.47c.26-.41,0-1.13-.54-1.61a2.89,2.89,0,0,0-.82.19c.4.26.4.26.08.77.36-.35.54,0,.57.21.12.5-.35.35-.48.55,0,.16.3.19.18.39s-.27,0-.37-.08-.17,0-.27,0a6,6,0,0,0,1.06,1.23A2,2,0,0,0,55.92,44.07Z"/><path class="cls-46" d="M22.21,37.06c-.2-.13-.2-.13-.07-.33a2.47,2.47,0,0,0-.53-1.18,19.9,19.9,0,0,0,1.49,6.17c.3.19.37.52.61.82,0,.16.08.33.31.18s-.24-.29-.12-.49A24.58,24.58,0,0,1,22.21,37.06Z"/><path class="cls-47" d="M47,57.66,46,57a9.28,9.28,0,0,0-1.59-.84l-.5-.32-.2-.12c-.27,0-.51-.32-.8-.08-.15.48-.15.48.31.63-.43,0-.54-.49-.93-.31.38.52,1,.64,1.41.89a21.71,21.71,0,0,1,2.58,1,.84.84,0,0,0,.53.05c.17,0,.17,0,.23-.14S47.12,57.72,47,57.66Z"/><path class="cls-48" d="M42.3,56a3.49,3.49,0,0,1,1.07.52c-.17-.39-.54-.48-.29-.88,0-.27-.24-.3-.44-.42a.26.26,0,0,0,.33-.08c.1.06,0-.17.07-.1l.3.19c.26,0,.43,0,.25-.41.07-.1-.13-.23.13-.21a1.43,1.43,0,0,0,.67.28c-.07-.33-.5-.31-.54-.48-.17,0-.41-.25-.66.16-.13.2-.43,0-.7,0,0-.17.4-.18.19-.31a3,3,0,0,0-1.52.19c.27,0,.6-.06.71.44,0,0,.2.12,0,.26s-.16,0-.2-.12-.27-.46-.57-.22C41.45,55.31,41.66,55.87,42.3,56Z"/><path class="cls-49" d="M34.66,11.5a3.11,3.11,0,0,1-.71.69c-.16,0-.33.08-.19.3s.49-.11.73.18a1.69,1.69,0,0,0,.59-.49c.06-.1-.14-.23,0-.26l1.95-1.77c.13-.2.3.19.33-.08.75-.52,1.4-1.11,2.21-1.74.06-.1,0-.16-.14-.23A7.39,7.39,0,0,1,38.08,9a17.75,17.75,0,0,1-2.38,1.78A2.18,2.18,0,0,0,34.66,11.5Z"/><path class="cls-50" d="M47.36,41.13a1.71,1.71,0,0,0-1.45.51c.27,0,.43,0,.57.22-.23.14-.43,0-.66.15.51.32.21.56-.08.81a1.1,1.1,0,0,0-.42.44,3.77,3.77,0,0,0,2.84-.49c-.14-.23-.26,0-.36-.09s-.33.08-.41-.25c.06-.11.17,0,.27,0s.16,0,.23-.14-.14-.23-.21-.13a.28.28,0,0,1-.46-.15c-.11-.06-.31-.19-.18-.39s.27,0,.33-.08S47.46,41.19,47.36,41.13Z"/><path class="cls-51" d="M34.75,60.64a20,20,0,0,0-3.68-4l-.2-.12c-.1-.07-.17,0-.23.14,1.06,1.23,2.18,2.35,3.24,3.58.24.3.44.42.68.71C34.79,60.8,34.86,60.7,34.75,60.64Z"/><path class="cls-52" d="M61.55,24a.41.41,0,0,1-.37-.09l-.3-.18c-.3-.19-.54-.49-.5.11l-.06.1a.54.54,0,0,0-.42.45.84.84,0,0,0,.42.69,1.28,1.28,0,0,0,1.16.16c.29-.25.66-.16.89-.3.25-.41.66-.16.86,0a1.26,1.26,0,0,0,1.09-.17l.06-.1a19.74,19.74,0,0,0-2.63-.51C61.69,24.26,61.36,24.34,61.55,24Z"/><path class="cls-53" d="M35,53.7c.25-.41.62-.32.89-.29.25-.41.85-.47,1.14-.71.06-.1.16,0,.23-.14s.33-.08.46-.28.22-.14.19-.31a.26.26,0,0,0-.33.08,13.3,13.3,0,0,0-2.26,1.14,2.49,2.49,0,0,1-1.36.15,18.43,18.43,0,0,0-3.64.42c-.06.1-.22.14-.19.31,1-.07,2.12-.24,3.15-.31C34.05,53.67,34.51,53.82,35,53.7Z"/><path class="cls-54" d="M48,54.89c0,.17,0,.17-.09.37s-.06.1,0,.16.1.07.26,0a2.37,2.37,0,0,1,.7,0l.17,0c.26,0,.39-.18.59-.05l3.08-.21A8.47,8.47,0,0,0,54.31,55c.1.06.27,0,.23-.15-1.23,0-2.42.05-3.65,0-.8-.08-1.49-.09-2.29-.16C48.37,54.81,48.17,54.69,48,54.89Z"/><path class="cls-55" d="M47.24,58.65A16.35,16.35,0,0,1,51,61.85c.58.64,1.1,1.39,1.68,2a8,8,0,0,0-1.28-2.22c-.27,0-.41-.25-.55-.48A14.4,14.4,0,0,0,48.44,59a1,1,0,0,1-.71-.44c-.1-.06-.17-.39-.4-.25A.44.44,0,0,0,47.24,58.65Z"/><path class="cls-56" d="M29.89,33.77a25.38,25.38,0,0,1,4.76-3.13,2.52,2.52,0,0,1,1.09-.17c.23-.14.4-.18.63-.32s.33-.08.29-.24a.29.29,0,0,0-.47-.15,17.67,17.67,0,0,0-6.57,4C29.66,33.91,29.73,33.81,29.89,33.77Z"/><path class="cls-57" d="M24.74,22.89c0,.17.07.33.24.29a38.75,38.75,0,0,1,2.9-4.43c0-.16-.2-.12-.3-.19A4.86,4.86,0,0,0,26.42,20C26,21,25.27,21.81,24.74,22.89Z"/><path class="cls-58" d="M64.33,42.08c-.1-.06-.1-.06-.14-.23-.19.31-.33.08-.49.12,0,.27-.49.55-.08.8-.29.25-.22.58-.51.82-.07.1-.23.14-.19.31s-.09.36.11.49.43,0,.56-.22.13-.2.16,0A4.91,4.91,0,0,0,64.33,42.08Z"/><path class="cls-59" d="M27,54.54c-.66.16-1.25.64-1.88.53-.1-.06-.17,0-.33.08s-.62.32-.85.46c0,.27.14.23.24.29,1-.23,2-.47,3-.8a2.61,2.61,0,0,1,1.43.18c-.14-.22-.4-.25-.44-.41.36-.35.92-.14,1.22-.38a1.15,1.15,0,0,0-1.13,0C27.73,54.55,27.37,54.46,27,54.54Z"/><path class="cls-60" d="M18.93,57.85c-.37-.09-.14-.23-.08-.33.57-1.35,1.07-2.6,1.63-4a.13.13,0,0,0,0-.17c-.47-.15-.25.41-.52.38-.45.72-.53,1.52-.91,2.13a12.56,12.56,0,0,0-.78,1.93c-.06.1-.06.1,0,.26l.1.07C18.67,58.25,18.84,58.22,18.93,57.85Z"/><path class="cls-61" d="M70.27,31.89c.07-.1,0-.16,0-.27.09-.37,0-.59-.48-.58-.06.1.2.13.14.23s-.47-.15-.44-.42l0-.16a.66.66,0,0,1-.93.13c.31.19.28.45,0,.7-.08-.33-.28-.46-.57-.22a1.17,1.17,0,0,1,.25.73c0,.16.07.33.34.35.23-.14.52-.38.75-.52.36-.35.44.42.73.17C70.15,32.1,70.21,32,70.27,31.89Z"/><path class="cls-62" d="M52.76,20.1c.13-.2-.14-.22-.08-.33a4.93,4.93,0,0,0-1-.79c.07.33.21.56-.25.84,0,0-.13.2,0,.26.13.23.13.23-.2.31a.37.37,0,0,0-.15.47.22.22,0,0,0,.3.19l.17,0c.19-.3.49-.11.76-.09C52.64,20.74,52.37,20.28,52.76,20.1Z"/><path class="cls-63" d="M19.92,53.78c.1.07.27,0,.23-.14s.13-.2.29-.24c0-.27.15-.47.18-.74a20.44,20.44,0,0,1,.87-2.29c.06-.1.06-.1.23-.14s.09-.37.15-.47c-.17-.4,0-.7.27-1.11.07-.1,0-.27,0-.43,0,0-.12.2-.23.14A44.25,44.25,0,0,0,19.92,53.78Z"/><path class="cls-64" d="M45.24,25.62c.15-.47.09-.37.46-.28a1.93,1.93,0,0,0,.63.11c-.08-.33-.74-.17-.52-.75l-.16,0c-.4.18-.64-.11-1-.2l-1.6-.14a.25.25,0,0,0-.33.07c-.06.11,0,.17.14.23A18.33,18.33,0,0,0,45.24,25.62Z"/><path class="cls-65" d="M47,26.86c-.36-.09-.54-.48-.87-.4,0,.53.33,1.05.38,1.65.33-.08.67.27,1.12,0,.23-.14.19-.3.06-.53l.06-.1A.94.94,0,0,0,47,26.86Z"/><path class="cls-66" d="M27.68,18.63c0,.16.2.12.3.19.74-1,1.65-2,2.49-2.85.29-.24.44-.72.83-.9l-.3-.18A32.43,32.43,0,0,0,27.68,18.63Z"/><path class="cls-67" d="M39.06,11c.27,0,.39-.18.7,0a48.53,48.53,0,0,1,4.8-1.39c.17,0,.27,0,.33-.08-.11-.5-.36-.09-.63-.11-1.61.55-3.19.84-4.87,1.49A.26.26,0,0,0,39.06,11Z"/><path class="cls-68" d="M37.75,52c.1.06.17,0,.27,0-.09.36-.56.21-.49.54a21,21,0,0,0,3.12-1.17c-.2-.12-.07-.33-.11-.49A11.33,11.33,0,0,0,37.75,52Z"/><path class="cls-69" d="M45.13,50.09c-1.25.21-2.61.36-3.76.63-.17,0-.43,0-.56.22.26,0,.07.33.17.39a35.92,35.92,0,0,1,4-1C45.07,50.2,45.27,50.32,45.13,50.09Z"/><path class="cls-70" d="M46.31,18.06c0,.16.07.33.24.29.49-.12.89.14,1.33.12.26,0,.6.38.92-.13.06-.1.47.15.73.18s.6-.06.87,0a4,4,0,0,0-1.74-.38c-.63-.11-1.35.15-2.09,0A.41.41,0,0,0,46.31,18.06Z"/><path class="cls-71" d="M47.91,30.12a5.76,5.76,0,0,1-.63-1.24c-.08-.33-.43,0-.53-.05A4.8,4.8,0,0,0,47,30.69C47.42,30.67,47.75,30.6,47.91,30.12Z"/><path class="cls-31" d="M45.19,32.68,45,32.55a6.44,6.44,0,0,0-1.62,4c.23-.14.13-.2.38-.61A14.8,14.8,0,0,1,44.36,34c0-.44.38-.62.63-1C45.16,33,45.32,32.91,45.19,32.68Z"/><path class="cls-72" d="M48,54.89c.8.07,1.56,0,2.26,0,.16,0,.26,0,.43,0a9.24,9.24,0,0,0-2.13-.2c-.1-.06-.6.06-.24-.29a.13.13,0,0,0,0-.17,2,2,0,0,0-1,0c-.17,0-.2-.13-.3-.19s-.11-.06-.27,0-.33.08-.19.3a.36.36,0,0,0,.4.26c.33-.08-.12.2,0,.16A7,7,0,0,0,48,54.89Z"/><path class="cls-73" d="M27,54.54c.54.48,1,0,1.45-.08.27,0,.5-.12.76-.09a5.87,5.87,0,0,0,1.16-.28l.19-.3A13.06,13.06,0,0,0,27,54.54Z"/><path class="cls-74" d="M47.91,30.12a2.46,2.46,0,0,1-.92.57l0,.16a.75.75,0,0,1-.51.82,3.93,3.93,0,0,1-.69.42c.27,0,.37.09.54,0,.46.15.66-.16.81-.63,0-.26,0-.26.33-.07-.24-.3-.21-.56,0-.7a1.85,1.85,0,0,0,.66-.16C48.15,30.42,47.94,30.29,47.91,30.12Z"/><path class="cls-75" d="M47.24,58.65c.06-.11.13-.21.19-.31a.11.11,0,0,0,0-.16c-.13-.23-.3-.19-.57-.22a10.84,10.84,0,0,1-1.8-.7c-.47-.15-.9-.14-1.37-.29.44.42,1.14.43,1.64.74A14.8,14.8,0,0,1,47.24,58.65Z"/><path class="cls-76" d="M48.54,59c.92,1,1.87,1.74,2.73,2.84.14.23.16,0,.06-.1a19.65,19.65,0,0,0-2.72-2.84l-.41-.25c-.26,0-.23.14-.12.2A.66.66,0,0,0,48.54,59Z"/><path class="cls-77" d="M23.41,21.64l.17,0a17.35,17.35,0,0,1,0-3c-.2-.12-.23.14-.29.25a4.37,4.37,0,0,0-.1,2.63C23.18,21.78,23.25,21.68,23.41,21.64Z"/><path class="cls-22" d="M61.89,37.44c0,.16,0,.16.2.12.4-.18.59-.48.37-1-.07-.33-.34-.36-.41-.69a.44.44,0,0,0-.27,0c-.06.1-.39.18-.25.41.1.06.26,0,.2.12s-.29.25-.26.41S61.75,37.21,61.89,37.44Z"/><path class="cls-78" d="M24.12,55.84a.45.45,0,0,1-.24-.29A19.31,19.31,0,0,0,21,56.85c.1.06.14.22.24.29a26.42,26.42,0,0,0,2.49-1.29C23.85,55.81,24.05,55.94,24.12,55.84Z"/><path class="cls-79" d="M13.42,68a13.67,13.67,0,0,0,1.65-2.65l-.2-.13c-.1-.06-.1-.06-.16,0l-1,1.63c.07.34-.26.41-.28.68S13.21,67.9,13.42,68Z"/><path class="cls-80" d="M71.75,30c-.37-.09-.61-.38-1.06-.1.1.06.13.23.17.39-.34-.35-.49.12-.86,0-.1-.06-.19.31-.15.47s.2.13.36.09c.13-.2.19-.3.33-.08l.1.07c0-.27.46-.29.59-.49.09-.37.29-.24.39-.18Z"/><path class="cls-6" d="M37.44,10a.5.5,0,0,0-.59,0c-.65.59-1.24,1.08-1.88,1.67-.23.14-.2.3,0,.43C35.85,11.39,36.57,10.7,37.44,10Z"/><path class="cls-81" d="M47.14,54.75c.06-.1.23-.14.29-.24-.13-.23-.43,0-.57-.21-.3-.19.3-.25.09-.37l-1.59-.15c-.07.11-.19.31,0,.44C46,54.33,46.51,54.64,47.14,54.75Z"/><path class="cls-82" d="M16.18,63.37a31.88,31.88,0,0,0,1.49-3l-.11-.06c-.36-.09-.49.11-.42.44a.17.17,0,0,1-.12.21c-.17,0-.3.24-.36.34A2.94,2.94,0,0,1,16,62.54C16,63,15.88,63.18,16.18,63.37Z"/><path class="cls-83" d="M41.45,6.94a18.55,18.55,0,0,0,2.92-2.43,29.78,29.78,0,0,0-3.16,2.14A.4.4,0,0,0,41.45,6.94Z"/><path class="cls-21" d="M52.48,58.8c-.27-.46-.53,0-.92.13.13-.2.25-.41.42-.44-1,.23-1,.23-.71.69a4.5,4.5,0,0,0,1.2.32A2.77,2.77,0,0,1,52.48,58.8Z"/><path class="cls-84" d="M60.53,46.37c-.17,0-.43,0-.56.22s-.33.08-.5.12c.31.19.32.62.62.81.17,0,.14.23.24.29.46-.28.24-.84.33-1.21.07-.1.13-.2-.13-.23Z"/><path class="cls-85" d="M18.34,58.33h0c-.26,0-.29.25-.48.55s-.15.47-.34.78a.64.64,0,0,0,0,.86,1,1,0,0,0,.34-.77,2.32,2.32,0,0,1,1-1.2c-.13-.23-.2-.13-.36-.09C18.61,58.36,18.45,58.4,18.34,58.33Z"/><path class="cls-86" d="M34.75,60.64c-.06.1-.12.2-.19.3a6.32,6.32,0,0,0,2.34,1.89C36.12,62.06,35.44,61.35,34.75,60.64Z"/><path class="cls-87" d="M24.46,31.66l.21.12a7.14,7.14,0,0,0,.9-2.13c.07-.1.13-.2,0-.26s-.17,0-.23.14A7.78,7.78,0,0,1,24.46,31.66Z"/><path class="cls-26" d="M21.62,50.16c-.1-.06-.37-.08-.33.08a8.26,8.26,0,0,0-.67,2.42c.46-.28.35-.78.54-1.08A3.26,3.26,0,0,0,21.62,50.16Z"/><path class="cls-88" d="M69,33c-.19.3-.62.32-.81.62s-.27,0-.47-.15c.07.33,0,.6.12.93a6.45,6.45,0,0,0,1.85-1.83c-.11-.06-.11-.06-.27,0C69.33,32.72,69.17,32.76,69,33Z"/><path class="cls-89" d="M24.73,55.09c.2.12.26,0,.33-.08.28-.68.76-1.23,1-1.8-.2-.13-.29.24-.43,0C25.33,53.9,25,54.41,24.73,55.09Z"/><path class="cls-90" d="M21.71,31.78l.08.33c.1.07.26,0,.23-.14-.08-.33.11-.63.1-1.07.07-.1,0-.26.09-.37-.21-.56.11-1.07.26-1.54,0-.26.32-.51.08-.8A10.14,10.14,0,0,0,21.71,31.78Z"/><path class="cls-91" d="M41.45,6.94c0-.17-.14-.23-.21-.13-.58.49-1.2.81-1.79,1.29.1.07,0,.17.14.23C40.17,7.85,40.86,7.42,41.45,6.94Z"/><path class="cls-92" d="M17.67,60.32c-.22-.56.2-1,.25-1.54a12.2,12.2,0,0,0-1.22,2.64c.16,0,.13-.21.29-.24s.23-.15.15-.48S17.44,60.46,17.67,60.32Z"/><path class="cls-93" d="M13.42,68c-.08-.33.15-.47.18-.74.06-.1.29-.24.09-.36-.58.91-1.25,1.77-1.76,2.59.2.12.27,0,.23-.15s.13-.2.33-.07c-.08-.33.42-.45.51-.82C13.16,68.43,13.29,68.23,13.42,68Z"/><path class="cls-94" d="M44.16,9.34c.27,0,.46-.28.63.11A6.17,6.17,0,0,0,46,9.08c.06-.1-.2-.13,0-.17a2.33,2.33,0,0,0,.63-.32c.06-.1.29-.24,0-.26A23,23,0,0,0,44.16,9.34Z"/><path class="cls-52" d="M64.66,25.12c.23-.14.37.09.47.16.44.41,1.16.16,1.61.57a.11.11,0,0,1,.16,0,9.23,9.23,0,0,0-2.31-1c-.07.11-.23.15-.19.31S64.5,25.16,64.66,25.12Z"/><path class="cls-95" d="M46.52,8.26c.2.13,0,.17-.13.21a2.56,2.56,0,0,1-.78.36l.3.19a13.87,13.87,0,0,0,1.73-1.19C47.27,7.74,47,8,46.52,8.26Z"/><path class="cls-96" d="M48.54,59a.42.42,0,0,0-.24-.29c-.2-.12,0-.16.13-.2l-.3-.19c-.41-.25-.58-.65-1.11-.69l0,.16c0,.27.31.19.28.46l0,.16c.2.13.27.46.48.59S48.25,59.28,48.54,59Z"/><path class="cls-97" d="M42.8,24.8c-.14-.22,0-.26.19-.3a6.54,6.54,0,0,0-2.82.23C41,24.7,41.93,24.83,42.8,24.8Z"/><path class="cls-98" d="M53.67,59.83c.12-.64.33-.08.43,0,.23-.14.07-.1,0-.27,0-.43-.08-.33-.28-.45s-.69,0-1-.47c0,.27.28.46.21.56l.1.06c.2.13.11.5.48.59Z"/><path class="cls-99" d="M14.91,65.41l.1.06a7.13,7.13,0,0,0,1.11-2l-.1-.06c-.1-.07-.2-.13-.27,0-.21.58-.6,1.19-.84,2Z"/><path class="cls-100" d="M18.34,58.33c0,.27.14.23.37.09s.23-.14.43,0c.19-.31.52-.39.75-.53s.39-.18.42-.45,0-.16-.2-.12c-.39.18-.85.46-1.24.64A1,1,0,0,0,18.34,58.33Z"/><path class="cls-101" d="M29.89,33.77c-.1-.07-.16,0-.27,0A16,16,0,0,0,28,35.43c.1.06,0,.17.1.06C28.76,34.91,29.24,34.36,29.89,33.77Z"/><path class="cls-102" d="M14.91,65.41c.28-.68.66-1.29,1-2.07l.16,0c-.14-.22,0-.43,0-.59-.4.88-.91,1.69-1.32,2.57Z"/><path class="cls-103" d="M20.17,57.2s.17,0,.1.07a1,1,0,0,1-.68.42c-.23.14-.56.22-.65.59a5.5,5.5,0,0,0,1.6-1c0-.26-.14-.23-.24-.29C20.4,57.06,20.24,57.1,20.17,57.2Z"/><path class="cls-104" d="M48.32,54.21a13,13,0,0,0,3.07-.63,16,16,0,0,1-2.78.39C48.55,54.07,48.45,54,48.32,54.21Z"/><path class="cls-32" d="M36.19,29.76a.22.22,0,0,1,.3.19,1.88,1.88,0,0,0-.85.46,14.85,14.85,0,0,0,1.78-.59c-.18-.4-.56.21-.8-.08a.16.16,0,0,1-.2-.12A.42.42,0,0,0,36.19,29.76Z"/><path class="cls-4" d="M70,32a2.91,2.91,0,0,1-.58-.64c-.15.47-.68.42-.84.89a.46.46,0,0,0,.37.09c.07-.1.17,0,.23-.14.23-.14.46-.28.57.21A.37.37,0,0,0,70,32Z"/><path class="cls-105" d="M45.37,54.22c0-.17,0-.27,0-.44-.43,0-.84-.23-1.33-.12A2,2,0,0,0,45.37,54.22Z"/><path class="cls-106" d="M54.25,18.62a11.58,11.58,0,0,1,.37,1.65c.14.23.2.13.37.09s0-.27-.18-.39a4.55,4.55,0,0,0-.5-1.45Z"/><path class="cls-107" d="M23.31,18.88c.06-.11,0-.27.29-.25a3.75,3.75,0,0,0,.26-1.54A4.48,4.48,0,0,0,23.31,18.88Z"/><path class="cls-108" d="M48.32,54.21c.17,0,.33-.07.39-.18-.53,0-1.12,0-1.65,0,0,.17-.09.37.24.29S48.06,54.19,48.32,54.21Z"/><path class="cls-109" d="M30.7,56.55c.07-.11.17,0,.23-.14a3.46,3.46,0,0,0-1.68-.91A9.22,9.22,0,0,0,30.7,56.55Z"/><path class="cls-110" d="M42.45,42.46c.27,0,.63.11.79-.36,0-.26-.43,0-.24-.29.06-.1.19-.31,0-.43a.13.13,0,0,0-.17,0C42.53,41.66,42.6,42,42.45,42.46Z"/><path class="cls-98" d="M52.48,58.8c-.12.2-.31.51-.07.8.1.07.26,0,.36.09.43,0,.43,0,.36-.35s-.57-.21-.65-.54Z"/><path class="cls-111" d="M69.79,32.44c0-.16,0-.53-.11-.49s-.56.21-.85.46l.1.06c.14.23.3.19.57.21l.16,0Z"/><path class="cls-112" d="M45.13,50.09c-.06.11-.13.21-.13.21a9.11,9.11,0,0,0,2.08-.4A13.8,13.8,0,0,0,45.13,50.09Z"/><path class="cls-18" d="M42.72,41.35l.17,0a1,1,0,0,0,0-1.3A10.68,10.68,0,0,0,42.72,41.35Z"/><path class="cls-113" d="M62,46.29c0,.27-.48.55-.3.94a2.75,2.75,0,0,0,.71-.69C62.22,46.58,62.21,46.15,62,46.29Z"/><path class="cls-114" d="M31.71,48c.17,0,.33-.08.37.08.46-.28.81-.62,1.27-.91A11.42,11.42,0,0,0,31.71,48Z"/><path class="cls-115" d="M24.08,42.62c-.37-.09-.28-.45-.48-.58s-.24-.29-.44-.42a2.72,2.72,0,0,0,.69,1.14C23.91,42.66,24.12,42.79,24.08,42.62Z"/><path class="cls-116" d="M41,51.34s.07-.11,0-.17c0-.27.26,0,.23-.14s-.27,0-.37-.09l-.33.08c0,.16-.33.08-.19.31s.2.12.36.08Z"/><path class="cls-117" d="M38.44,3.64l.2.13c.32-.51.68-.85,1-1.36l-.1-.07A10.73,10.73,0,0,0,38.44,3.64Z"/><path class="cls-118" d="M55.85,17.63c0,.17-.13.21-.19.31s-.23.14-.13.2.16,0,.33-.07.25-.41.62-.32c.1.06,0-.17,0-.27s-.1-.06-.21-.13C56.08,17.49,56,17.6,55.85,17.63Z"/><path class="cls-21" d="M53.13,59.34c.07.34-.43,0-.36.35a1.8,1.8,0,0,0,.84.24C53.37,59.64,53.69,59.13,53.13,59.34Z"/><path class="cls-89" d="M27,52.11c-.56.22-1,.67-.87,1.16C26.4,52.86,26.75,52.52,27,52.11Z"/><path class="cls-119" d="M16,62.71a1.57,1.57,0,0,0,.67-1.29A3,3,0,0,0,16,62.71Z"/><path class="cls-120" d="M23.41,21.64c-.1-.07-.16,0-.2-.13-.13.2,0,.43.09.76.2.13.36.09.39-.18C23.49,22,23.61,21.76,23.41,21.64Z"/><path class="cls-121" d="M34.66,11.5c.36-.35.65-.59,1-.94-.1-.06-.1-.06-.27,0C35.15,11,34.72,11,34.66,11.5Z"/><path class="cls-122" d="M54.48,54.94c-.07.1-.07.1-.23.14.47.15,1-.07,1.56,0A3.61,3.61,0,0,0,54.48,54.94Z"/><path class="cls-123" d="M39.39,5.51l.2.13c.19-.31.38-.62.64-1A1.92,1.92,0,0,0,39.39,5.51Z"/><path class="cls-124" d="M20.5,57.13a.42.42,0,0,1,.24.29c.17,0,.23-.14.4-.18.12-.21.09-.37-.24-.29C20.79,56.88,20.57,57,20.5,57.13Z"/><path class="cls-40" d="M22.06,31c-.26.41-.08.81-.33,1.21l.2.13A5.92,5.92,0,0,0,22.06,31Z"/><path class="cls-125" d="M23.72,23.39c.36-.34,0-.6-.12-.93-.1-.06-.06.1-.13.21A1.23,1.23,0,0,0,23.72,23.39Z"/><path class="cls-40" d="M22,32.24c-.36.34-.08.8,0,1.13A2.15,2.15,0,0,0,22,32.24Z"/><path class="cls-3" d="M52,38.48c-.27,0-.33.07-.46.28s.2.12.24.29A1.43,1.43,0,0,0,52,38.48Z"/><path class="cls-126" d="M13.1,68.53c-.29.25-.52.39-.51.82C12.78,69,13,68.9,13.1,68.53Z"/><path class="cls-23" d="M63.81,20.19c-.23.14-.54-.05-.63.32.23-.14.52-.38.64.12A.74.74,0,0,0,63.81,20.19Z"/><path class="cls-100" d="M17.92,58.78c.23-.14.26-.41.39-.61l0-.17A1.08,1.08,0,0,0,17.92,58.78Z"/><path class="cls-23" d="M63.81,19.06a.82.82,0,0,0,0,.87C63.92,19.56,63.78,19.33,63.81,19.06Z"/><path class="cls-28" d="M54.31,18.52A.64.64,0,0,0,54,17.9C54.13,18.13,54.11,18.39,54.31,18.52Z"/><path class="cls-127" d="M50.24,33.14a15.35,15.35,0,0,1-2.61,3c.07.33.43,0,.61.38-.7,0-.55.65-1,.93a1.84,1.84,0,0,0-.54.66A23.41,23.41,0,0,1,45,40.38a.11.11,0,0,0,0,.16c.21.13.47.15.56-.22s.71-.69,1.15-.7c.16,0,.56.21.45-.28,0-.17.32-.51.32-.51.33-.08.53,0,.44.41.37.09.73-.25,1.19-.1.11.06.17,0,.13-.21s-.17-.39-.4-.25c.19-.31.49-.12.72-.26-.18-.39.08-.8,0-1.13,0,0,0-.16.07-.1.43,0,.52-.39.71-.69a1.65,1.65,0,0,1,1-.5c.06-.1-.08-.33.12-.21.51.32.33-.07.3-.24-.08-.33.05-.53-.09-.76s-.07-.33.09-.37.14.23.24.29c.22-.57-.22-1-.17-1.53,0-.26-.38-.52-.29-.89-.1-.06-.3-.18-.33.08s-.23.14-.39.18C50.48,32.3,50.49,32.73,50.24,33.14Z"/><path class="cls-128" d="M50.24,33.14c.25-.41.44-.71.7-1.12a1.34,1.34,0,0,1,.22-.58c0-.26.33-.07.49-.11a20,20,0,0,1,2.48,1c.43,0,.19-.31.09-.37-.37-.09-.31-.62-.64-.54,0-.27-.28-.46-.25-.73s0-.27.39-.18c.2.13.47.15.46-.28-.24-.29-.67-.28-1-.63.39-.18.82-.2,1.08-.6a.45.45,0,0,1,.38-.62,11.59,11.59,0,0,0,4.2-2.9l.13-.21c.06-.1.19-.3.09-.37s-.27,0-.49.12c-.46.28-.88.73-1.4,1.11-.23.14-.4.18-.5.12s-.26,0-.39.18a1.7,1.7,0,0,1-.65.59,8.06,8.06,0,0,1-4,1.3l-.16,0c-.16,0-.19.31-.25.41,0,.26-.12.63-.45.71s-.26.41-.18.74c.1.06.2.13,0,.17-.3.24-.69.42-.41.88,0,.16-.26.4-.12.63s.23-.14.39-.18a.41.41,0,0,0,.09-.37.74.74,0,0,1,.16-.47c0,.43-.25.84-.3,1.38C50.46,32.57,50.16,32.81,50.24,33.14Z"/><path class="cls-129" d="M55.3,40.56c.43,0,.32-.51.45-.72l.32-.51c.13-.2-.16-1.09-.26-1.15s-.17,0-.23.14-.13.2-.26.41c.3-.25.26-.41.28-.68,0-.43.16-.47.46-.28.1.06.24.29.37.09s0-.27-.11-.5c-.1-.06-.14-.23-.18-.39a.62.62,0,0,0,.28.45,1.07,1.07,0,0,1,.51.75.91.91,0,0,0,.75.61c.37.09.49-.12.58-.49a7.53,7.53,0,0,0-.88-3.53c-.14-.23-.22-.56-.61-.38-.35.35-.85.46-.8,1.06-.17,0-.41-.25-.47-.15-.09.37-.72.26-.45.72.08.33-.11.63-.14.9s-.46.28-.76.09c0,.27.61.38.42.69s-.5.11-.59.48c.17,0,.65-.58.41.26.4.25-.09.37-.12.63s.28.46.35.79-.35.34-.48.55C54.54,40.65,54.94,40.47,55.3,40.56Z"/><path class="cls-130" d="M57,34.24c.53,0,.58.65.76,1a6,6,0,0,1,.62,2.38c0,.26-.32.51.09.76.06-.1.22-.14.2.13s0,.59,0,.86a.43.43,0,0,0,.38.52.55.55,0,0,0,.32-.51,17.31,17.31,0,0,1-.16-2.22,4.35,4.35,0,0,0-.58-1.78A6.58,6.58,0,0,1,58,33.74,7.21,7.21,0,0,0,56.41,32c-.16,0-.36-.09-.47-.15a.49.49,0,0,0-.65.16c-.13.2-.22.57.14.66s.28.45.48.58A12.22,12.22,0,0,0,57,34.24Z"/><path class="cls-131" d="M55.84,33c0-.17-.14-.23-.11-.5.06-.1-.14-.22-.24-.29s-.29.25-.27,0-.07-.33.09-.37a.6.6,0,0,1,.53.05c.1.06.24.29.37.08-.31-.62-1-.89-1.43-1.31-.2-.13-.34-.36-.67-.28-.09.37-.26,0-.43,0s-.2-.13-.36-.09c.24.29-.49.55.08.76.2.13.2.13.14.23-.22.57.18.39.51.32-.2.3-.16.47.11.49s.36.09.07.33c.47.15,1.1.26,1.38.72C55.71,33.15,55.78,33.05,55.84,33Z"/><path class="cls-132" d="M62.43,24.87a4.63,4.63,0,0,0-1,.33c-.49.12-.93.13-1.14-.42,0-.17-.24-.3-.17-.4s.25-.41.59-.05c-.14-.23-.28-.46-.15-.66.27,0,.38.52.67.27-.07-.33.42-.44.35-.77s-.24-.29-.47-.15c0-.17.09-.37-.18-.4s-.35.35-.54.65l-.71,1.13c-.06.1-.29.24-.15.47a1.54,1.54,0,0,0,.54.48c.41.25,1,.2,1,.8,0,.16.31.19.41.25.36.09.9.13,1,.63a1.33,1.33,0,0,0-.81-.51c-.1-.06-.27,0-.39.18s0,.27.17.4.34.35.54.48.41.25.38.52a1.27,1.27,0,0,1-.61.75c-.06.1-.16,0-.1-.06-.18-.39-.53-.05-.8-.07-.59.05-1,.76-1.71.49-.1-.07-.33.08-.29.24s-.26.41-.12.64c.1.06.1.06.17,0,.49-.12.73.17.91.57a1.74,1.74,0,0,0,.65,1c.2.13,0,.27.08.33.3.19.46.15.66-.15s.65-.16,1-.4c-.47-.15-.86,0-1.1-.26-.11-.07-.21-.13-.14-.23.33-.08.38-.61.44-.72.46-.28.13-.2-.07-.33a2.66,2.66,0,0,1-.94-.3,2.68,2.68,0,0,1,1.53.25c.17,0,.33-.08.43,0,.27,0,.64.11.63-.33.06-.1.12-.2.33-.07.06-.11,0-.17-.14-.23a.26.26,0,0,1-.08-.33.23.23,0,0,1,.37.09c.1.06.08.33.24.29s-.14-.23,0-.27c.78-.36.3-.94.36-1.48-.27,0-.09.37-.36.35s-.14-.23-.07-.33a.17.17,0,0,0-.21-.13c-.1-.06-.26,0-.2-.13s.13-.2.23-.14c.27,0,.27,0,.13-.2a.42.42,0,0,0-.24-.29c.19-.31.15-.47-.25-.73-.1-.06-.47-.15-.38-.52S62.6,24.83,62.43,24.87Z"/><path class="cls-133" d="M68.26,27.23c-.16,0-.36-.08-.53-.05s-.33.08-.24-.29c.26-.41-.27-.45-.34-.35A1.07,1.07,0,0,1,66,26c-.11-.07-.14-.23-.37-.09s-.4.18-.62.32c0,.6.35.79.91.57.43,0,.37.52.81.5,0,0,.07.33-.13.21s-.4.18-.66.15c.23-.14.29-.24,0-.43-.1-.06-.37-.09-.47-.15-.41-.25-.52-.75-1.11-.7-.17,0-.37-.08-.5.12s0,.43.44.42c.27,0,.54.05.38.52a.36.36,0,0,0,.28.46c.13-.21-.24-.3-.08-.33s.21.12.31.18c.36.09.5.32.74.61.21.13,0,.27,0,.43s.17,0,.27,0c-.16,0-.16,0-.27,0s-.3-.19-.34-.35c-.07-.33-.17-.39-.46-.15s-.42.45-.75.52c.2.13.24.3.44.42.13-.2,0-.53.15-.47s.63.11.77.34l0,.17c-.23.14-.27,0-.47-.15,0,.16.18.39-.05.53.24.29.38.52.77.34.6-.05,1.19-.11.9-1a.92.92,0,0,1,.15.66.46.46,0,0,0,.71.45s.13-.21.17,0c.24.29.59-.06.9.13.1.07.2.13.26,0,.19-.31,0-.44-.15-.66s-.17-.4-.34-.36c-.49.12-.59.06-.87-.4a1.27,1.27,0,0,1-.35-.79c.2.13.43,0,.63.11s.49-.11.58-.48A1,1,0,0,1,68.26,27.23Z"/><path class="cls-134" d="M68.6,27.59c-.06.1-.12.2-.19.3s-.29.25-.36-.08c0-.17-.17,0-.27,0s-.32.51-.27,0a.41.41,0,0,0-.22.14,1.48,1.48,0,0,0,.86,1.53l.31.19a.16.16,0,0,0,.12-.2c.07-.1-.3-.19,0-.27.17,0,.3.19.34.36a2,2,0,0,0,.21.56c-.36-.09-.56-.22-.89-.14s-.17,0-.21-.13-.07-.33-.3-.19,0,.44-.29.25-.18-.4-.28-.46c.23-.14-.14-.23-.07-.33s-.21-.13-.18-.39c-.23.14-.13.2-.09.37a.88.88,0,0,1-.12.63c-.15.47-.43,0-.66.16s-.42.44-.69,0l-.2-.13c-.9-.13-.9-.13-1.32.31a5,5,0,0,0,2,.24c.33-.08.53,0,.44.41-.06.11,0,.17.14.23s.16,0,.23-.14c.25-.41.61-.75,1.15-.27.1.06.1.06.27,0,.52-.38,1.35-.14,2.08-.4-.2-.13-.31-.19-.08-.33,0-.17-.14-.23-.07-.33.32-.51-.15-.66-.39-1a2.67,2.67,0,0,0-.49-1l-.1-.06c0,.16.24.29.21.56C68.84,27.88,68.87,27.61,68.6,27.59Z"/><path class="cls-135" d="M69,32.37c-.1-.06-.26,0-.37-.09s-.3-.19-.27-.46-.11-.49-.32-.62c-.16,0-.26,0-.49.12-.07.1-.29.24-.37-.09l-.1-.06c-.1-.06-.16,0-.13.2.08.33-.09.37-.42.45s-.09.37-.38.61c-.38-.52-.88-.83-1.47-.35-.23.14-.12.21-.15.47.16,0,.15-.47.39-.18.1.07.1.07,0,.17a.44.44,0,0,1-.27,0c-.06.1,0,.16.21.12a3.68,3.68,0,0,1,1-.07c.51.32.61.38.75.61a10.6,10.6,0,0,0,1.44-.52c.17,0,.4-.17.5-.11S69,32.8,69,32.37Z"/><path class="cls-136" d="M64.63,34.18a4.63,4.63,0,0,1-1,.07,1.83,1.83,0,0,0,1,.2A.41.41,0,0,0,64.63,34.18Z"/><path class="cls-137" d="M63.93,26.51c.17,0,.43,0,.6-.05a.11.11,0,0,0,0-.16l-.2-.13c-.27,0-.47-.15-.73-.18a.26.26,0,0,0-.4.18c0,.17.2.13.31.19S63.83,26.45,63.93,26.51Z"/><path class="cls-138" d="M60.35,31.8c.13-.21.79-.36,0-.44-.26,0-.44-.41-.41-.68,0-.6-.52-.75-.92-1-.21-.13-.13.2-.4.18-.14-.23.42-.45.18-.74l.17,0c.2.13.43,0,.69,0A.26.26,0,0,0,60,29c.09-.37.4-.18.63-.32.39-.18.68-.42,1,.2.09-.37.55-.22.71-.69.32-.51,0-.86-.53-1.18a.45.45,0,0,1-.24-.29c0-.17-.33.08-.3-.19s.23-.14.43,0,.47.16.54.49.37.08.56-.22a.57.57,0,0,1-.67-.28c-.14-.23-.63-.11-.94-.3l-.2-.13c.24-.84-.71-.44-.88-.83l-.61-.38a.22.22,0,0,0-.19.3c.31.63,1.05.8,1.36,1.42.28.46.62.81.2,1.26-.13.21.11.5-.38.61.23-.14.29-.24.15-.47s-.4-.25-.47-.15c-.42.45-1,.34-1.51.62a.11.11,0,0,1-.16,0c-.87-.4-1.42.25-2.18.34a1.07,1.07,0,0,0-.42.45c-.07.1,0,.26,0,.43a.26.26,0,0,0,.33-.08c.29-.24.63.11,1,0s.63.12.65.55c0,.16.4.25.5.31.74.18.84.24.82.94a2.17,2.17,0,0,0,.64,1.68,1.81,1.81,0,0,1,.15.66c.1.06.2.12.27,0-.18-.39.19-.3.35-.34s.27,0,.33-.08-.2-.13-.14-.23c-.17-.39-.44-.42-.91-.57s-.11-.49-.35-.78c-.1-.07-.14-.23.13-.21C60.15,31.67,60.25,31.73,60.35,31.8Z"/><path class="cls-4" d="M69,32.37c0,.27-.33.08-.39.18.14.23.28.45.54.48a.53.53,0,0,0,.42-.45A1.26,1.26,0,0,1,69,32.37Z"/><path class="cls-22" d="M62.39,32.36l-.4-.25c-.1-.07-.17,0-.07.1a.37.37,0,0,0,.41.25C62.26,32.56,62.33,32.46,62.39,32.36Z"/><path class="cls-139" d="M33.76,12.49l.19-.3c-.63-.11-.85.46-1.21.8A5.93,5.93,0,0,0,33.76,12.49Z"/><path class="cls-140" d="M59.25,39.19c-.13.21-.09.37-.32.51a.46.46,0,0,0-.09.37,9.68,9.68,0,0,1,.77,1.47,4.23,4.23,0,0,1,.75,2.18,5.47,5.47,0,0,1,.16,1.09l0,.16c0,.44.06,1,.07,1.47l0,.16c.11.07.14.23.35.36a5.55,5.55,0,0,1,.22-1.71c.06-.1,0-.16,0-.27.56-.21,0-.43,0-.7s-.48-.58-.49-1c.47.15.72-.26.95-.4-.14-.23-.61-.38-.15-.66-.2-.13.15-.47-.28-.46l-.1-.06c.46-.28,0-.43,0-.7s-.28-.46.11-.64a.43.43,0,0,0-.17-.39c-.37-.09-.44-.42-.52-.75a.75.75,0,0,0-1-.2C59.41,39.15,59.31,39.09,59.25,39.19Z"/><path class="cls-33" d="M59.25,39.19c.1.07.14.23.37.09s.62-.32.79.07l.17,0c.06-.1.06-.1,0-.26.2-.31.29-.68.68-.86a.23.23,0,0,0,.09-.37c-.14-.23-.2-.12-.43,0,0-.44.28-.68.31-1s.19-.3.25-.4.19-.31-.14-.23a3.86,3.86,0,0,1-1.72.06c-.37-.09-.66.15-.59.48a5.32,5.32,0,0,0,.61,1.51c.1.07.16,0,.2.13-.67-.28-.66-1-1-1.33A17.12,17.12,0,0,0,59.25,39.19Z"/><path class="cls-141" d="M61.41,36.86a1.33,1.33,0,0,0-.51.81c0,.17,0,.27.18.4s0-.17.12-.21l.17,0c0,.17.07.33,0,.27-.43,0-.42.45-.71.69-.16,0,0,.16.08.33.16,0,.22-.14.39-.18s.29-.24.33-.08c.2.13,0,.27,0,.27s-.19.31.14.23.44.42.84.24c.16,0,0,.26.17.39l.5-.12c-.21-.12.18-.74-.38-.52-.17,0-.11-.49-.47-.15,0-.27.62-.32.12-.63-.21-.13.19-.31.25-.41-.37-.09-.46.28-.72.26,0-.17.29-.25,0-.44s-.18-.39,0-.53C61.88,37,61.55,37.08,61.41,36.86Z"/><path class="cls-142" d="M62.34,43.25c-.26.41-.56.22-.83.19,0,.27.28.46.09.77a.11.11,0,0,0,0,.16c.46.15.7.44.28.89-.12.2-.11.64-.54.65-.17,0,0,.27.14.23s.36.09.46.15c.16-.47.72-.69.5-1.25a.37.37,0,0,0,.05-.53,1.64,1.64,0,0,1-.47-.59.11.11,0,0,1,0-.16l.2.13C62.35,43.68,62.78,43.67,62.34,43.25Z"/><path class="cls-58" d="M64.23,40.89c.16-.47-.08-.77-.49-1-.36-.09-.26,0-.35.35-.07.1-.13.2-.19.3.1.07.33-.07.46.15s-.29.25-.35.35C63.55,41.31,63.9,41,64.23,40.89Z"/><path class="cls-143" d="M62.34,43.25c.24.29-.09.37-.22.57.47.15.52-.38.79-.36,0-.26-.47-.15-.28-.45A.62.62,0,0,1,62.34,43.25Z"/><path class="cls-58" d="M63.7,42c.06-.1.12-.2-.08-.33s-.23.14-.39.18C63.43,42,63.53,42,63.7,42Z"/><path class="cls-144" d="M58.52,21c-.06.1-.06.1-.23.14a.47.47,0,0,0,.28.45c.1.07.37.09.4.26-.17-.4-.57-.22-.9-.14a.91.91,0,0,1-.53,0l-.16,0c-.5.12-.42.45-.41.88-.14-.23-.28-.46-.54-.48.16,0,.49-.12.41-.45.23-.14.16-.47,0-.43a.81.81,0,0,0-.85.46c-.07-.33.16-.47.28-.67a.31.31,0,0,0,.06-.54c-.1-.06-.14-.23-.2-.12-.36.34-.83.19-1.1.17-.25.4-.07.8-.16,1.17s-.29.67-.11,1.07.15.66.39.95.28.45.43,0c.13-.2.23-.14.39-.18a2.67,2.67,0,0,0,.64.11,1.86,1.86,0,0,1,.9.14c.3.19.53.05.82-.19,0,.59.15.66.61.38.23-.15.26,0,.36.08s.19-.3.32-.51.16-.47.49-.55c.3.19.33-.07.45-.28a.11.11,0,0,0,0-.16.54.54,0,0,0-.51-.32c-.37-.09-.4-.25-.11-.5a.43.43,0,0,0,.09-.36.41.41,0,0,0-.37-.09c-.46.28-.53-.05-.73-.18S58.68,21,58.52,21Z"/><path class="cls-145" d="M54.92,20.46a.64.64,0,0,0,1,0c.06-.11.09-.37.33-.08,0,.16.13.23-.09.37a.89.89,0,0,0-.41.88c.5.31.65-.59,1.11-.44,0,.16-.25.41.12.49.1.07,0,.17-.07.11a.59.59,0,0,0-.45.28l-.07.1c.1.06.1.06.17,0,.29-.24.33-.08.3.19s.37.09.4.25c-.17-.39-.25-.72.21-1,0-.27,0-.27.59-.49.29-.24.31-.51,0-.7a.83.83,0,0,1-.41-.68c.16,0,.2.12.3.19s0,.26.17.39a1.7,1.7,0,0,0,.46-.28c0-.43.48-.55.54-1.09a.91.91,0,0,1-1.26.21.27.27,0,0,0-.33.08c-.12.21-.29.24-.56.22.51-.82-.4-.25-.47-.58,0,.26,0,.43,0,.7a2.06,2.06,0,0,0-.77-.34c.14.23.54.48-.16.47-.1-.06-.22.14-.43,0s-.12.21-.29.25C54.91,20,55,20.19,54.92,20.46Z"/><path class="cls-145" d="M58.52,21h0c.07.33.4.25.51.31s.4.25.53.05.16,0,.26,0-.06.11-.12.21c-.3.24-.16.47-.25.84.46-.28.7,0,1,.2a3,3,0,0,0,.91-2.13c-.4-.25-.94-.3-1.28-.66-.13.21.24.3.11.5-.16,0-.3-.19-.53-.05-.2-.13-.23.14-.39.18C59.14,20.68,58.81,20.76,58.52,21Z"/><path class="cls-146" d="M61.36,20.51a4.88,4.88,0,0,1-.91,2.13.37.37,0,0,1-.25.41c-.17,0-.3.24-.36.34l-.25.41a.41.41,0,0,0-.09.37c-.07.1-.13.2,0,.27s.16,0,.33-.08A14.54,14.54,0,0,0,61,22.52a2.6,2.6,0,0,0,.6-1.18c.15-.48.2-1,.36-1.48a.26.26,0,0,0-.08-.33c0-.17,0-.17-.14-.23C61.54,19.77,61.45,20.14,61.36,20.51Z"/><path class="cls-145" d="M57.71,21.63c.21.56.57.22.83.24.1.06.36-.34.47.15.07.33.33-.08.39-.18-.4-.25-.83-.24-1-.63C58.06,21.29,57.94,21.49,57.71,21.63Z"/><path class="cls-146" d="M61.59,19.24a1.21,1.21,0,0,0,0-1,.88.88,0,0,1-.15.47C61.52,18.91,61.56,19.07,61.59,19.24Z"/><path class="cls-147" d="M59.23,20.32c.17,0,.23-.15.4-.18,0-.17,0-.27,0-.44C59.42,20,59.26,20.05,59.23,20.32Z"/><path class="cls-148" d="M49.7,38.05a.77.77,0,0,0-1,.4c.2.13.49-.11.5.32A2,2,0,0,0,48,39c-.39.18.07.33,0,.59-.17,0-.24-.29-.37-.08s.2.12.24.29c0,.43.09.76-.11,1.07s-.13-.23-.3-.19-.09.37-.15.47a3.21,3.21,0,0,0-.19.31c0,.26.07.33.27.45.09-.37.28-.67.72-.69.26,0,.45-.28.54-.65.13-.2.22-.57.59-.48.2.12.09-.37.29-.25,0-.16-.1-.06-.2-.12s-.24-.3-.08-.33c.3-.25-.07-.34-.11-.5.47.15.79-.36,1.28-.48-.26,0-.53,0-.5-.31-.17,0-.17,0-.13.2A.46.46,0,0,0,49.7,38.05Z"/><path class="cls-149" d="M49.7,38.05a.42.42,0,0,0,.24.29l.13-.2c.39-.18.25-.41.11-.64.17,0,.14.23.37.09s0-.16-.07-.33-.24-.29.09-.37.68-.42,1-.66l.07-.11c0-.16-.17,0-.37-.08,0-.17.23-.14.19-.31-.26,0-.14-.23-.34-.35-.13.2-.11.63-.62.32,0,.26-.36.34-.38.61s-.22.57-.59.48c-.06.11-.49.12-.09.37.1.07-.06.11,0,.27S49.4,37.86,49.7,38.05Z"/><path class="cls-148" d="M48.79,41.31c.09-.37.8.08.65-.58C49.21,40.87,48.74,40.72,48.79,41.31Z"/><path class="cls-150" d="M59,40a.37.37,0,0,0,0-.26c-.5-.32-.19-.83-.3-1.33,0-.16.09-.36-.11-.49-.17,0,0,.27-.15.47-.26.41-.26.41-.6,0-.1-.06-.14-.22-.16,0s-.13.21-.17,0a1.52,1.52,0,0,0-1-1.16c-.2-.13-.07-.33-.17-.4l-.21-.12c-.06.1-.06.1,0,.26l.41.69c-.23.14-.2-.13-.3-.19s-.4-.25-.47-.15-.32.51-.28.67c.28.46,0,.54-.28.68.44.42.39-.18.62-.32-.15.47.42.68.26,1.15.1.07.23-.14.21.13s.4.25.64.55c.27,0,.59-.06.83.23.11.07.23-.14.5-.11.06-.11.06-.11.23-.14s.39-.18.15-.48C58.76,39.74,58.74,40,59,40Z"/><path class="cls-151" d="M58.9,43.8c0,.16,0,.27-.23.14s-.14-.23-.34-.35c-.13.2.25.72-.32.51l.08.33c.14.22.54.48-.08.8a5.07,5.07,0,0,1,1.19-.11l.2.13c0,.26-.23.14-.23.14-.16,0-.09.37-.39.18a.11.11,0,0,0,0,.16.22.22,0,0,0,.3.19c.46-.28.8.08,1.1.26.07-.1.13-.2,0-.26a1.45,1.45,0,0,0-.54-.48c-.14-.23,0-.17.12-.21a1.59,1.59,0,0,0-.33-1.48C59.26,43.45,59,43.16,58.9,43.8Z"/><path class="cls-152" d="M60.68,44.77A7.74,7.74,0,0,0,60,42.06a.92.92,0,0,0-.28-.45c-.27,0-.13.2-.26.41s.18.39.12.49c0,.27.21.56.18.83.1.06.24.29-.09.37l-.13.2c-.06.1,0,.17.14.23C60.2,44.19,60.19,44.89,60.68,44.77Z"/><path class="cls-153" d="M60.68,44.77c-.1-.06-.26,0-.3-.19s-.18-.39-.44-.42-.2-.12-.24-.29.06-.1.23-.14.16,0,.13-.2c-.35-.36-.13-.93-.53-1.18a.41.41,0,0,0-.37-.09c.14.23.28.46-.12.64-.12.2-.19.3,0,.43s.23.29.17.39c.51.32.29.89.5,1.45l.2.13C60.23,45.05,60.49,45.08,60.68,44.77Z"/><path class="cls-154" d="M59.52,41.91c.16,0,.19-.3.25-.4A8.59,8.59,0,0,0,59,40c0-.16-.23-.29-.37-.52,0,.27,0,.44-.22.58a.42.42,0,0,1,.14.23l0,.16c.14.23.36-.34.37.09,0,.16-.09.37-.05.53C59.14,41.39,59.21,41.72,59.52,41.91Z"/><path class="cls-155" d="M60.72,44.94a.66.66,0,0,0-.79.36c0,.26,0,.43.22.55,0,.17,0,.17.07.33s.27,0,.41.26a.11.11,0,0,0,.16,0c.23-.14,0-.27.05-.54A3.58,3.58,0,0,1,60.72,44.94Z"/><path class="cls-154" d="M58.18,40.23c-.1-.07-.2-.13-.27,0l-.16,0c-.57-.21-.67-.27-.9-.13.14.22.18.39.38.52l.06-.11c.19-.3.1.07.2.13l.11.06c0,.17.2.13.24.3s.1.06.26,0C57.93,40.64,58.32,40.46,58.18,40.23Z"/><path class="cls-152" d="M59.33,43.78c.33-.07,0-.26,0-.43s-.24-.29-.17-.39c-.11-.06,0-.17-.14-.23-.23.14.17.39-.06.53-.13-.22-.17-.39-.37-.52s-.1-.06-.17,0l-.06.11c.4.25.31.62.39,1l.1.06C59,43.59,59.16,43.39,59.33,43.78Z"/><path class="cls-156" d="M57.8,40.84c.06-.1-.1-.06-.2-.13s-.14-.22-.31-.19a1.58,1.58,0,0,0,.59,1.08l.17,0c.33-.07.13-.2.09-.37S57.77,41.11,57.8,40.84Z"/><path class="cls-29" d="M56.51,40.88a8.25,8.25,0,0,0,.65,1C57.05,41.37,57.07,41.1,56.51,40.88Z"/><path class="cls-29" d="M57.8,40.84c-.23.14,0,.27,0,.43s.2.13.07.33c.76-.09.16-.47.12-.63A.16.16,0,0,1,57.8,40.84Z"/><path class="cls-151" d="M57.37,44.68c.19-.3.39-.18.69,0a.29.29,0,0,0-.34-.35C57.52,44.21,57.29,44.35,57.37,44.68Z"/><path class="cls-157" d="M48.25,30.48a.44.44,0,0,0-.66.15,1.72,1.72,0,0,0,.9.14c0,.27-.43,0-.46.28s.33-.08.47.15c-.19.31-.19.31-.56.22-.17,0-.27,0-.13.21s-.09.36-.15.47a.31.31,0,0,0,.11.49c-.09.37.31.62.16,1.1a.4.4,0,0,0,.23-.15c.06-.1.23-.14.39-.18s-.12.21.08.34a5.51,5.51,0,0,0,1.07-2.17c-.2-.13-.34-.36-.54-.48Z"/><path class="cls-158" d="M45.19,32.68c-.36.35-.51.82-.91,1-.23.14.14.22.08.33l-.13.2a.62.62,0,0,0,0,.54c.2.12.36.08.59-.06s.22-.57.59-.48l.06-.11c0-.43,0-.53.59-.48,0-.27-.35-.36-.25-.73.06-.1-.11-.06-.21-.12C45.43,33,45.43,33,45.19,32.68Z"/><path class="cls-159" d="M44.87,34.76c-.59.05-.59.05-.41-.69-.69.42-.44,1.15-.65,1.72-.13.2-.22.57-.35.78.44.42.61.38.79-.36-.23.14-.16.47-.52.38.38-.61.5-1.25,1.12-1.57A.41.41,0,0,1,44.87,34.76Z"/><path class="cls-160" d="M47.41,32.94c-.1-.07-.33.08-.24-.29.07-.11.13-.21-.07-.33s-.33.07-.46.28-.19.3.08.33c.1.06.33-.08.3.19-.06.1-.13.2-.23.14s-.12.2,0,.27c.43,0,.24.29.37.52s.31.18.5-.12,0-.27-.11-.5C47.43,33.37,47.39,33.2,47.41,32.94Z"/><path class="cls-161" d="M45.46,37a5.26,5.26,0,0,0,1.82-1.56l0-.17c-.16,0-.23.14-.39.18-.42.45-1,.93-1.43,1.38A.13.13,0,0,0,45.46,37Z"/><path class="cls-118" d="M47.77,32.59c-.14-.23-.18-.39.12-.63s.23-.15-.08-.33c-.35.34-.24.84-.4,1.31C47.58,32.9,47.61,32.63,47.77,32.59Z"/><path class="cls-161" d="M47.24,35.24a1,1,0,0,0,.78-.79C47.69,34.53,47.5,34.83,47.24,35.24Z"/><path class="cls-160" d="M47.14,34.05a.4.4,0,0,0-.36-.09c.14.23.34.35.25.72C47.32,34.44,47.18,34.21,47.14,34.05Z"/><path class="cls-162" d="M47.64,27.4c0,.17-.09.37,0,.54l.1.06c-.32.51.31.62.49,1,.1.06.2.12.14.22.07.33.07.33.46.15.21.13-.09.37,0,.44s.24.29.37.08.09-.36.23-.14.2.13.33-.07,0-.27-.07-.33a.53.53,0,0,0-.57-.22c-.17,0-.21-.12-.14-.23l.06-.1a1.79,1.79,0,0,1,1.3-1.17l.06-.11-.06.11.1.06c.15.66.31.62.83.24l.07-.11c.09-.37.48-.54.74-.95s.05-.54-.25-.73-.66.16-.93.13-.09.37,0,.54h0c-.14-.23,0-.54-.25-.73-.1-.06-.17,0-.33.08a1.25,1.25,0,0,1-.73.26c-.16,0-.16,0-.22.14-.32.51-.6.06-.87,0s-.53-.05-.66.16l.21.12a.22.22,0,0,1,.3.19c0,.17-.13.21-.29.25A.25.25,0,0,1,47.64,27.4Z"/><path class="cls-163" d="M51.23,28c-.46-.15-.29.24-.42.44-.07-.33-.37-.52-.08-.76.06-.1-.1-.06-.2-.13a2,2,0,0,0-1.69,1.36c.1.06.26,0,.36.09a.43.43,0,0,1-.36-.09c-.19.31-.32.51.27.46a.56.56,0,0,1,.55.48c-.3.24-.41-.25-.67-.28a.94.94,0,0,1-.06.54,2.61,2.61,0,0,0,1.43.18c.13-.2-.21-.56.29-.68.16,0,.12-.2.43,0-.18-.39.18-.74.06-1.23C51.37,28.17,51.34,28,51.23,28Z"/><path class="cls-39" d="M50.46,31.44a.44.44,0,0,0,0,.26.65.65,0,0,0,0,.43,2.9,2.9,0,0,0,.46-1.41l-.1-.06A1.72,1.72,0,0,0,50.46,31.44Z"/><path class="cls-164" d="M47.45,35.8c-.09.37-.42.45-.61.75a2.29,2.29,0,0,0,1.15-.7C47.75,35.56,47.56,35.86,47.45,35.8Z"/><path class="cls-165" d="M49.16,31.05c.2.12.05.59.54.48C49.82,30.89,49.36,31.17,49.16,31.05Z"/><path class="cls-166" d="M47.14,22.13c-.2-.13-.37-.09-.23.14s.14.23.18.39.16,0,.22-.14c0,.16-.19.31-.15.47s.08.33.3.19.3-.24.54.05a2,2,0,0,1,.45.85.41.41,0,0,0,0,.27c0,.16-.25.4-.05.53s.39-.18.6-.05a.16.16,0,0,1,.2.12c-.17,0-.37-.08-.43,0s-.73.26-.12.63l.1.07c.21.56.21.56.77.34a.13.13,0,0,0,.17,0h0c.17.39.3.19.33-.08s.22-.57.14-.9c0-.17-.18-.4,0-.54s-.07-.33-.17-.39c-.24-.29-.15-.66-.29-.89s.13-.2.25-.41a.41.41,0,0,0,.09-.37.41.41,0,0,0-.26,0c-.17,0-.33.08-.37-.09s-.07-.33.09-.37.23-.14.13-.2c0-.27.09-.37.35-.35s.3-.24.2-.3c-.31-.19-.08-.33-.12-.5s0-.27-.17-.39a.24.24,0,0,0-.33.08c-.13.2-.33.07-.46.28.18.39-.16,0-.23.14a.45.45,0,0,0-.29.24c-.23.14-.4-.25-.57-.21,0-.17.13-.21.19-.31-.14-.23,0-.7-.31-.62s-.26.41-.38.61c-.21-.12-.45-.42-.7,0,0,.17-.33.08-.26.41a.68.68,0,0,1,.4-.18c.16,0,.16,0,.26,0s-.06.11-.12.21-.36.34-.22.57.4.25.8.08c0,.26-.3.24-.46.28s0,.16,0,.16l.1.07C47.24,22.19,47.24,22.19,47.14,22.13Z"/><path class="cls-167" d="M49.29,20.49c.12-.21.49-.12.68-.42-.13.2.28.45-.11.63-.17,0-.07.1,0,.17s.27,0,.41.25c-.07.1-.17,0-.27,0l-.1-.07c-.16,0-.23.14-.39.18.37.52-.59.49-.31.94s.5.32.8.08c-.07.1,0,.26-.13.2-.23.14-.29.24-.52.39.4.25.12.92.53,1.18a1.86,1.86,0,0,0,.54-.66c.13-.2.09-.36.42-.44L51,23a.12.12,0,0,0,.17,0c-.51-.31,1-.4,0-.7-.13-.23-.07-.33,0-.6.06-.1,0-.16.22-.14s.3-.24.16-.47l-.3-.19c-.31-.19.15-.47,0-.7a.44.44,0,0,0,0-.26c-.53-.05-.38-.52-.46-.85a.44.44,0,0,0-.29.24c-.19.3-.25.41-.52.38s-.19.31-.42.45c-.1-.06-.11-.5-.24-.29a.77.77,0,0,0-.38.61l.1.06C49,20.57,49.06,20.63,49.29,20.49Z"/><path class="cls-168" d="M48.12,20.33c-.16,0-.29.24-.42.44.27,0,.76-.09.71.45l.1.06c.17,0,0-.27.09-.37s-.07-.33-.34-.35C48.39,20.35,48.29,20.29,48.12,20.33Z"/><path class="cls-167" d="M48.42,20.52c.11.06.14.23.35.35.06-.1.22-.14.29-.24l-.2-.13C48.72,20.27,48.55,20.31,48.42,20.52Z"/><path class="cls-169" d="M51.07,20.33l-.12.2c-.3.24-.2.31.11.5,0-.17,0-.27.15-.47S51.24,20.29,51.07,20.33Z"/><path class="cls-170" d="M45.12,40.44a8,8,0,0,0,1.73-2.32c0-.27,0-.54-.21-.56-.6,0-.65.59-.94.83-.13.2-.26.41-.27,0l-.1-.07c-.1-.06-.17,0-.13.21s-.52.38-.34.77c.1.07.24.3.46.15s.21.13.21.13,0,.17,0,.17c-.43,0-.31.51-.61.75s-.42.45-.71.69a.11.11,0,0,0,0,.16A3.61,3.61,0,0,1,45.12,40.44Z"/><path class="cls-171" d="M43,40a1.42,1.42,0,0,1,0,1.3c0,.26-.15.47-.24.84.2.12.29-.25.49-.12a1,1,0,0,0,.46-.28c.06-.1.06-.1,0-.17-.66.16-.38-.52-.42-.68a1.42,1.42,0,0,1,.21-1,.31.31,0,0,0-.11-.49C43.07,39.44,43.35,39.9,43,40Z"/><path class="cls-148" d="M47.43,39.9c-.17,0-.23.14-.4.18.1.06,0,.16.14.22s.2.13.17,0,0-.16.06-.1,0,.17.2.13c-.1-.06.13-.2,0-.27C47.65,39.75,47.53,40,47.43,39.9Z"/><path class="cls-110" d="M43.72,41.55h0c.17,0,.49-.11.52-.38l0-.17C44.08,41.21,43.85,41.35,43.72,41.55Z"/><path class="cls-172" d="M43.63,55c-.09.37-.19.31-.49.12-.1-.06-.41-.25-.23.14s.6.38.84.67l.11.07a10.13,10.13,0,0,0,2.77.73c1,0,1.8.27,2.76.31.06-.1.33-.08.13-.21a18.58,18.58,0,0,1-2.47-.54c-.46.28-.7,0-.94-.31A20,20,0,0,0,43.63,55Z"/><path class="cls-173" d="M46.63,56.7A18.06,18.06,0,0,0,43.86,56,13.27,13.27,0,0,0,46,57C46.23,56.88,46.74,57.2,46.63,56.7Z"/><path class="cls-174" d="M49.58,56.7l-.13.21c.9.13,1.8.27,2.6.34.16,0,.23-.14,0-.27-.69,0-1.46-.35-2.26-.42C49.74,56.66,49.68,56.77,49.58,56.7Z"/><path class="cls-175" d="M52.17,57.05c0,.16,0,.16,0,.26.1.07.26,0,.37.09.32-.08.63.11,1.06.1-.14-.23-.37-.09-.41-.25A5.64,5.64,0,0,1,52.17,57.05Z"/><path class="cls-176" d="M46.64,37.56c.2.12.17.39.21.56.23-.14.25-.41.38-.62l-.2-.12c-.16,0,0,.16-.06.1-.07.1-.17,0-.1-.06s.12-.21.09-.37A.54.54,0,0,0,46.64,37.56Z"/><path class="cls-171" d="M43.64,38.53c-.33.07-.35.34-.38.61C43.59,39.06,43.52,38.73,43.64,38.53Z"/><path class="cls-72" d="M47.19,55.35c-.18-.39-.57-.21-.87-.4-.56.22-.56.22-1.3,0a.11.11,0,0,0-.16,0,9.23,9.23,0,0,0,3,1c-.24-.29-.83-.24-1-.63C46.92,55.33,47.13,55.45,47.19,55.35Z"/><path class="cls-72" d="M49.65,55.47c-.28-.46-.43,0-.6.05C49.25,55.65,49.48,55.51,49.65,55.47Z"/><path class="cls-72" d="M48.09,55.49l0-.17c-.26,0-.49.12-.76.1C47.49,55.54,47.82,55.46,48.09,55.49Z"/><path class="cls-72" d="M49,55.46c-.24-.29-.47-.15-.7,0A.66.66,0,0,0,49,55.46Z"/><path class="cls-177" d="M56.46,28.8c.17,0,.43,0,.6-.05a.11.11,0,0,0,.16,0c.35-.78.83-.2,1.26-.21l.2.12c.28-.67,1.09-.17,1.37-.84.1.06.33-.08.37.09.18.39-.17,0-.23.14a.23.23,0,0,0,.08.33c0,.16.1.06.16,0s.56-.22.32-.51l.06-.1c.42-.45.25-.84,0-1.3a3.66,3.66,0,0,0-1.12-1.13c-.1-.06-.18-.39-.45-.42s-.39.18-.52.39A12.37,12.37,0,0,1,55,28.18,2.13,2.13,0,0,0,54,29a3.16,3.16,0,0,1-1.45.52c.44.41,1,.46,1.38.72a9.35,9.35,0,0,1,2.16,1.49c.78.77,1.69,1.34,1.79,2.53a2.62,2.62,0,0,0,.35.79c.1.06.17,0,.23-.14s.23-.14.33-.08c-.1-.06-.2-.13-.33.08a3.4,3.4,0,0,0,.45.85c.14.23.37.09.5-.12.48-.55.65-.59,1.22-.37.1.06.2.12.26,0s.36-.34-.07-.33c-.61-.38-.76-1-1-1.49-.13-.23-.4-.26-.54-.49s-.17-.39-.34-.35c-.43,0-.4-.25-.41-.69s-.52-.74-.86-1.1c-.2-.12-.31-.19-.28-.45s-.41-.69-.68-.71c-.76.09-1.14-.43-1.52-.95A2.57,2.57,0,0,0,56.46,28.8Z"/><path class="cls-178" d="M59.9,33.64c0,.27,0,.54.32.63.1.06.2.12.14.22-.06.54.31.63.68.71.06-.1,0-.16,0-.26a.73.73,0,0,0-.49-1c-.1-.06-.1-.06-.26,0C60.11,33.77,60.07,33.6,59.9,33.64Z"/><path class="cls-179" d="M61.11,35.53c-.1-.06-.1-.06-.26,0s-.13.2.07.33a.84.84,0,0,0,.8.07l.33-.08C61.87,35.44,61.44,35.46,61.11,35.53Z"/><path class="cls-180" d="M62.38,18.88c.56-.22.51-.82,1.18-.54-.08-.33-.15-.66-.22-1s-.45-.42-.71-.45-.33.08-.4.18c.27,0,.05.6.45.42.22-.14.33-.08.53.05A.37.37,0,0,1,63,18a.6.6,0,0,1-.53-.05l-.2-.13C62.13,18.15,62.76,18.26,62.38,18.88Z"/><path class="cls-181" d="M62.3,19.68a.23.23,0,0,0,.19-.31c0-.16-.57-.21-.21-.56.06-.1,0-.16-.1-.06-.1-.06-.17,0-.13.2a.67.67,0,0,1,0,.44C61.93,19.59,62.14,19.72,62.3,19.68Z"/><path class="cls-8" d="M62.3,19.68c0-.17-.3-.19-.34-.36-.27,0,0,.27-.29.25-.07.1-.07.1,0,.26.24.3.41.26.66-.15C62.34,19.84,62.24,19.78,62.3,19.68Z"/><path class="cls-182" d="M46.17,55.85h0c0,.44.28.46.55.48s.43,0,.39-.18A1.28,1.28,0,0,1,46.17,55.85Z"/><path class="cls-181" d="M62.34,19.84c-.27,0-.4.18-.6.06a10.34,10.34,0,0,1-.86,2.72c.14.23,0,.44.15.66.17,0,.28-.67.5-.11.39-.18.11-.64.44-.72-.24-.29.13-.2.26-.41-.31-.19-.22-.55.14-.9l-.2-.13c-.17,0-.2-.12-.3-.19a.22.22,0,0,1,.19-.3C62.18,20.31,62.41,20.17,62.34,19.84Z"/><path class="cls-183" d="M49.35,25.78c-.1-.06-.27-.46-.32.08-.07.1-.13.2-.23.14s-.21-.13-.14-.23c.25-.41-.18-.39-.22-.56s.37.09.3-.24c0-.17.16,0,.23-.14s0,.43.2.12c.23-.14.09-.37-.05-.59-.19.3-.46.28-.79.36.4-.18.12-.64.25-.84s-.31-.19-.18-.4c-.27,0-.24-.29-.34-.35s-.28-.46-.53-.05c-.07.1-.17,0-.33.08.06-.11,0-.17,0-.27a.69.69,0,0,0,.16-.47c-.3-.19-.29.24-.46.28l-.13.2c-.16,0-.1-.06,0-.16s-.24-.29-.34-.36c.11.5.49,1,.1,1.63-.46-.15-.63-.11-.64.59-.07.1,0,.17,0,.27a10.84,10.84,0,0,0,1.68.91,4.5,4.5,0,0,1,1,.79.54.54,0,0,0,.57.22l.33-.08c0-.27.48-.55.14-.91-.23.14-.13.21-.16,0s.09-.37-.08-.33.14.23,0,.27a.65.65,0,0,0,0,.43C49.16,26.09,49.39,25.94,49.35,25.78Z"/><path class="cls-183" d="M47.14,22.13c0,.16,0,.16.2.12a.22.22,0,0,0,.19-.3l-.16,0A.35.35,0,0,0,47.14,22.13Z"/><path class="cls-184" d="M54.56,20.38c-.34-.36-.5.11-.56.21.07.33-.09.37-.26.41-.33.08-.24-.29-.44-.42,0,.54-.75.53-.8,1.06a.46.46,0,0,0-.09.37c0,.17-.26.41-.52.39a.83.83,0,0,0-.44,1.14l.1.07c.5-.12.93-.13,1.05-.77a.42.42,0,0,1,.29-.24c.23-.14.62-.32.71-.69s.32-.51.79-.36C54.54,21.07,54.83,20.83,54.56,20.38Z"/><path class="cls-184" d="M49.79,25.76c.17.4-.32.52-.15.91a.66.66,0,0,0,.56-.22c-.17-.39.15-.47.28-.68s.29-.24.32-.51c-.21-.55.24-.84.54-1.08s.25-.41-.05-.6c-.27,0-.74-.17-.48.55-.31-.19-.28-.45-.32-.62-.16,0,0,.27-.19.31a.39.39,0,0,0-.32.51c.14.22-.19.3-.22.57A1.09,1.09,0,0,1,49.79,25.76Z"/><path class="cls-185" d="M54.56,20.38a3.86,3.86,0,0,1-.27,1.1,10.86,10.86,0,0,0-.82,1.76c.14.23.3.19.43,0,.38-.61,1-1.1.88-1.86.1.06,0,.26.08.33.09-.37-.09-.77.06-1.24l0-.16a.27.27,0,0,1-.33.08Z"/><path class="cls-169" d="M51.32,21.05c0,.17,0,.27,0,.43-.16,0-.46-.15-.43,0,.08.33-.28.67.13.93a2.13,2.13,0,0,1,.84-.9l.12-.2c-.24-.29.2-.31.26-.41C51.77,20.34,51.62,20.81,51.32,21.05Z"/><path class="cls-186" d="M50.25,24.35c.12-.2,0-.53.28-.67a.56.56,0,0,1,.28-.68c-.3-.19-.33.08-.39.18-.2.31-.32.51-.51.82.1.06.26,0,.13.22S50.08,24.39,50.25,24.35Z"/><path class="cls-62" d="M52.76,20.1c-.06.11-.06.11,0,.27s.17,0,.33-.08.5-.11.49-.55c.06-.1-.21-.12-.17,0A.74.74,0,0,1,52.76,20.1Z"/><path class="cls-162" d="M47,26.86a2,2,0,0,1,.65.54C47.73,27,47.59,26.81,47,26.86Z"/><path class="cls-134" d="M70,29.6c.07.33.2.13.36.09a1.69,1.69,0,0,0,.56-.22C70.57,29.38,70.27,29.2,70,29.6Z"/><path class="cls-133" d="M64.33,26.33l.1.07a1,1,0,0,0,.46-.28.12.12,0,0,1,0-.17c.2.13.33-.08.29-.24-.16,0-.4-.25-.63-.11-.4.18-.34-.36-.67-.28.23-.14.53.05.66-.16-.21-.12-.43,0-.18-.39a2.66,2.66,0,0,1-1.7-.21c-.1-.06-.43,0-.29.24l.3.19a2.89,2.89,0,0,0,1.22.76C64.21,25.84,64.19,26.11,64.33,26.33Z"/><path class="cls-187" d="M64.89,26.12a.84.84,0,0,0-.46.28l.1.06c.43,0,.71.44,1,.63l.1.07a.53.53,0,0,0,.42-.45l-.1-.06c-.58.48-.63-.12-.87-.41C64.86,26.38,64.92,26.28,64.89,26.12Z"/><path class="cls-188" d="M43.75,55.9c-.11-.49-.54-.48-.84-.67-.17,0-.51-.31-.53,0s.36.09.5.32l.31.19C43.35,55.65,43.53,56,43.75,55.9Z"/><path class="cls-189" d="M47.43,58.34c.17,0,.17,0,0-.27l-.41-.25c-.16,0-.16,0-.23.14Z"/><path class="cls-178" d="M61.72,35.91c-.14-.23-.53,0-.74-.17s-.2-.13-.13-.23c-.61-.38-.94-.3-1.49.35-.06.1-.12.2-.23.14a.11.11,0,0,1,0-.16c-.08-.34-.28-.46-.52-.75-.06.1-.16,0-.23.14A15.27,15.27,0,0,1,58.93,37a2.45,2.45,0,0,0,.63,1.24c.13.23.37.52.59,0a1.34,1.34,0,0,1-.72-.88.25.25,0,0,0-.07-.33c-.31-.19-.11-.49,0-.6s.27,0,.47.15.33-.07.59,0,.5-.12.8.07.23-.14.19-.3S61.76,36.08,61.72,35.91Z"/><path class="cls-190" d="M56.37,26.47a.26.26,0,0,1,.33-.08,2.62,2.62,0,0,0,1.5-1.05,6.76,6.76,0,0,1-1.29-1.08c-.14-.23-.4-.26-.7,0a.81.81,0,0,1-1.12,0c-.24-.29-.6.06-.8-.07-.39.18-.45.71-.64,1a13.75,13.75,0,0,1-1.79,2.43c-.13.2-.3.24-.22.57,0,.16.3.19.47.15a9.8,9.8,0,0,0,4.17-1.51A.45.45,0,0,1,56.37,26.47Z"/><path class="cls-191" d="M58.1,25.28c-.32.51-1,.67-1.4,1.11.14.23.3.19.43,0l1.56-1.15c.07-.1.13-.21.23-.14a3.92,3.92,0,0,1-1.49,1.48,7.79,7.79,0,0,1-2.12,1.37,4.19,4.19,0,0,0-1.24.64c-.29.25,0,.27,0,.43A14.55,14.55,0,0,0,59,25.15c.07-.1.23-.14.3-.24a.17.17,0,0,1,.12-.21l.26-.4c-.1-.07-.33.07-.14-.23.06-.11.13-.21,0-.27s-.3.24-.36.34a1.59,1.59,0,0,1-.81.63C58.35,24.87,58.12,25,58.1,25.28Z"/><path class="cls-192" d="M56.37,26.47a23.15,23.15,0,0,1-3.08,1.34,7.33,7.33,0,0,0-1.32.31c-.23.14-.37-.09-.57-.21l-.17,0c0,.16,0,.26.18.39a4.19,4.19,0,0,0,2.28-.28,7.17,7.17,0,0,0,2.49-1.28C56.24,26.68,56.51,26.7,56.37,26.47Z"/><path class="cls-13" d="M50.46,31.44c.13-.21.15-.48.28-.68C50.41,30.84,50.49,31.17,50.46,31.44Z"/><path class="cls-52" d="M64.33,26.33c.32-.51-.15-.66-.52-.74s-.7,0-.81-.51c0-.16-.2-.13-.37-.09s-.26,0-.22.14.13.23.13.23c.44,0,.38.52.71.45.14.22-.39.17-.15.47.13-.21.23-.14.33-.08A1.72,1.72,0,0,0,64.33,26.33Z"/><path class="cls-138" d="M59.13,29.47c0,.44.47.16.61.38l.13-.2c.06-.1,0-.17-.2-.13A1,1,0,0,0,59.13,29.47Z"/><path class="cls-193" d="M65.58,27.26h0c.07.33.43,0,.6.38-.12.2-.26,0-.33.07.21.13.28.46.64.12.06-.11.4.25.49-.12.07-.1.13-.21-.07-.33s-.64-.11-.48-.58c.06-.11-.23.14-.33.07C66.07,27.14,65.71,27.05,65.58,27.26Z"/><path class="cls-4" d="M65.91,28.74c.08.33.33-.07.54.05C66.31,28.56,66.08,28.71,65.91,28.74Z"/><path class="cls-194" d="M56.46,28.8c-.4-.25-.79-.07-1.23-.06a2.94,2.94,0,0,0,.86,1.1c.14.23.47.16.67.28s.62-.32.51.32c0,.16.16,0,.36.08-.19.31-.15.48.26.73s1,.63.66,1.41c-.13.2.18.39.24.29.46-.28.47.15.61.38a1.16,1.16,0,0,1,.76-.09l.06-.11c-.47-.15-.41-.68-.65-1s-.09-.77-.16-1.1-.08-.33-.28-.45-.53-.05-.73-.18-.6.06-.28-.45c.06-.11-.34-.36-.51-.32a1.34,1.34,0,0,1-1-.2c-.26,0-.19.31-.45.28A.78.78,0,0,1,56.46,28.8Z"/><path class="cls-22" d="M60.12,33.07c-.3-.19-.53,0-.76.09a1.45,1.45,0,0,0,.54.48c.1.07.14.23.37.09A1.65,1.65,0,0,1,60.12,33.07Z"/><path class="cls-195" d="M51.3,27.84c.14.23.34.36.57.22-.21-.13-.7,0-.18-.4a10.66,10.66,0,0,0,2.4-3.61,2.43,2.43,0,0,0,.62-1.45c-.07-.33.12-.64.11-1.07,0-.16-.08-.33,0-.43A10.86,10.86,0,0,1,54,22.86c-.13.2-.09.37-.39.18-.1-.07-.17,0-.23.14a15.88,15.88,0,0,1-2.71,3c-.19.3.38.52,0,1C51,27,51,27,51,26.52a.22.22,0,0,1,.19-.3c.16,0,0,.16.14.22.26,0,.25-.4.52-.38.1.06.37.09.4.25s-.25.41-.38.62C51.55,27.44,51.22,27.51,51.3,27.84Z"/><path class="cls-196" d="M54.81,22.66c-.15.47-.57.92-.62,1.46.1.06.24.29.36.08s.17,0,.27,0a1,1,0,0,0,1.39,0c.07-.1.64.11.67.27,0,.44.55.48.62.82s.36-.35.53,0c.17,0,.3-.24.42-.44s.69-.43.68-.86c-.14-.23-.11-.49-.47-.15s-.29.24-.3-.19c0-.16-.08-.33-.11-.49-.4.18-.75.52-1.2.1,0-.16-.29.25-.39.18s.13-.2.09-.37l-.1-.06c-.15.47-.66.16-.82.19-.33.08-.44,0-.32.52C55,23.49,55.05,23,54.81,22.66Z"/><path class="cls-197" d="M59.19,24c-.09.37-.68.42-.67.85.59,0,.81-.62,1.17-1,.06-.1.19-.3.25-.41s.19-.3.22-.57l-.08-.33C59.77,23.06,59.51,23.47,59.19,24Z"/><path class="cls-145" d="M60.06,22.82c-.13.2-.36.34-.22.57.19-.31.69-.42.57-.92C60.29,22.68,60.46,23.07,60.06,22.82Z"/><path class="cls-154" d="M57.66,39.48c-.06.1-.22.14-.12.2s.13.23.36.09l.13-.2A.45.45,0,0,1,57.66,39.48Z"/><path class="cls-10" d="M60.15,45.85c0-.16,0-.43-.22-.55l-.1-.07c-.16,0-.24-.29-.36-.09s.11.5.21.56S60,45.89,60.15,45.85Z"/><path class="cls-29" d="M57.29,40.52c.1.07.14.23.31.19a1.07,1.07,0,0,0-.32-.62C57.15,40.3,57.36,40.42,57.29,40.52Z"/><path class="cls-198" d="M50.53,26.37a8.41,8.41,0,0,0,1.82-1.56c.42-.45.8-1.06,1.22-1.5a11.23,11.23,0,0,0,.72-1.83c0-.16-.08-.33-.31-.19s-.49.12-.52.39c0,.43-.38.61-.77.79-.17,0-.3.24-.36.34,0,.54-.38.62-.71.69-.1-.06-.17,0-.23.15s.14.22.18.39c-.27,0-1,.77-1,.93.32.62-.34.78-.6,1.19-.06.1-.23.14-.13.2s.17,0,.27,0A1.49,1.49,0,0,0,50.53,26.37Z"/><path class="cls-162" d="M48.84,28.86c.07.33.46.15.7.44C49.43,28.81,49.29,28.58,48.84,28.86Z"/><path class="cls-14" d="M48.86,20.5c.1.07.1.07.13.23.21.13.24.29.51.32,0-.17-.14-.23-.28-.46C49.12,20.53,49,20.3,48.86,20.5Z"/><path class="cls-167" d="M50.25,24.35c-.1-.06-.17,0-.21-.13-.29.25-.09.37,0,.54.07-.1.23-.14.36-.35C50.35,24.41,50.41,24.31,50.25,24.35Z"/><path class="cls-178" d="M58.64,35a.13.13,0,0,0,.17,0c.16,0,.07.33.26,0,.07-.1,0-.16-.13-.23C58.87,34.84,58.57,34.65,58.64,35Z"/><path class="cls-199" d="M49.35,25.78l-.16,0c-.13.2-.15.47,0,.53s.26,0,.29-.24a.37.37,0,0,1-.14-.23C49.39,25.94,49.46,25.84,49.35,25.78Z"/><path class="cls-133" d="M65.58,27.26l.16,0c.47.15.43,0,.36-.35C66,27.08,65.71,27.05,65.58,27.26Z"/></g></svg>