<svg id="Layer_1" data-name="Layer 1" xmlns="http://www.w3.org/2000/svg" xmlns:xlink="http://www.w3.org/1999/xlink" viewBox="0 0 82.86 107.72"><defs><style>.cls-1{fill:none;}.cls-2{clip-path:url(#clip-path);}.cls-3{fill:#dee0e1;}.cls-4{fill:#81a1d1;}.cls-5{fill:#96afd5;}.cls-6{fill:#3c6551;}.cls-7{fill:#85a4c9;}.cls-8{fill:#9bb2d1;}.cls-9{fill:#648cb0;}.cls-10{fill:#7298be;}.cls-11{fill:#cbd2d2;}.cls-12{fill:#6187b6;}.cls-13{fill:#8ca8c8;}.cls-14{fill:#254851;}.cls-15{fill:#92adc5;}.cls-16{fill:#9bb3ce;}.cls-17{fill:#d5d7cd;}.cls-18{fill:#a9b5a1;}.cls-19{fill:#708e96;}.cls-20{fill:#49733f;}.cls-21{fill:#a7bdcd;}.cls-22{fill:#919f8c;}.cls-23{fill:#2f4e6e;}.cls-24{fill:#e7e5d7;}.cls-25{fill:#b7c2be;}.cls-26{fill:#c5cee1;}.cls-27{fill:#8ea9b6;}.cls-28{fill:#87a6cb;}.cls-29{fill:#2b4930;}.cls-30{fill:#658ac3;}.cls-31{fill:#bfc6b6;}.cls-32{fill:#7194c3;}.cls-33{fill:#a1b3da;}.cls-34{fill:#97b1ca;}.cls-35{fill:#5d787c;}.cls-36{fill:#a6bace;}.cls-37{fill:#3c643a;}.cls-38{fill:#aabec3;}.cls-39{fill:#365474;}.cls-40{fill:#b0baa6;}.cls-41{fill:#bdcad4;}.cls-42{fill:#1e3c4b;}.cls-43{fill:#617561;}.cls-44{fill:#3253a4;}.cls-45{fill:#365e35;}.cls-46{fill:#92a38c;}.cls-47{fill:#80a0c5;}.cls-48{fill:#48574a;}.cls-49{fill:#bec4b3;}.cls-50{fill:#173241;}.cls-51{fill:#b6c0ae;}.cls-52{fill:#8fa089;}.cls-53{fill:#5f745d;}.cls-54{fill:#60856f;}.cls-55{fill:#446ab5;}.cls-56{fill:#bac8cf;}.cls-57{fill:#536554;}.cls-58{fill:#537c47;}.cls-59{fill:#305333;}.cls-60{fill:#274038;}.cls-61{fill:#7fa1be;}.cls-62{fill:#577994;}.cls-63{fill:#85957f;}.cls-64{fill:#83a1cf;}.cls-65{fill:#75866f;}.cls-66{fill:#4e6751;}.cls-67{fill:#c5cbbc;}.cls-68{fill:#798871;}.cls-69{fill:#b8c4b3;}.cls-70{fill:#515f4f;}.cls-71{fill:#9fb09a;}.cls-72{fill:#a5b9d0;}.cls-73{fill:#8e9e86;}.cls-74{fill:#b5beae;}.cls-75{fill:#547fbd;}.cls-76{fill:#9ba691;}.cls-77{fill:#8a9c83;}.cls-78{fill:#7c9dbb;}.cls-79{fill:#96a08f;}.cls-80{fill:#3e635b;}.cls-81{fill:#6e91be;}.cls-82{fill:#72896e;}.cls-83{fill:#496c85;}.cls-84{fill:#5c7259;}.cls-85{fill:#65917a;}.cls-86{fill:#909f88;}.cls-87{fill:#717f6f;}.cls-88{fill:#a5b19e;}.cls-89{fill:#c1cece;}.cls-90{fill:#558646;}.cls-91{fill:#7194bd;}.cls-92{fill:#81a170;}.cls-93{fill:#afb9a8;}.cls-94{fill:#588156;}.cls-95{fill:#92a88b;}.cls-96{fill:#687a62;}.cls-97{fill:#456daf;}.cls-98{fill:#bac4b6;}.cls-99{fill:#4d7345;}.cls-100{fill:#8da28a;}.cls-101{fill:#8dae86;}.cls-102{fill:#abb5a3;}.cls-103{fill:#bac0af;}.cls-104{fill:#97a490;}.cls-105{fill:#7a8d76;}.cls-106{fill:#778771;}.cls-107{fill:#4169b8;}.cls-108{fill:#618354;}.cls-109{fill:#78996c;}.cls-110{fill:#71806e;}.cls-111{fill:#bdc5b4;}.cls-112{fill:#84a592;}.cls-113{fill:#4166a8;}.cls-114{fill:#b3bba6;}.cls-115{fill:#657960;}.cls-116{fill:#abb9b1;}.cls-117{fill:#abb7a5;}.cls-118{fill:#92a08a;}.cls-119{fill:#bac8d8;}.cls-120{fill:#b7c0ad;}.cls-121{fill:#647a64;}.cls-122{fill:#476156;}.cls-123{fill:#9ea794;}.cls-124{fill:#7e8879;}.cls-125{fill:#5e675b;}.cls-126{fill:#475949;}.cls-127{fill:#8cb39f;}.cls-128{fill:#bbcec0;}.cls-129{fill:#769a68;}.cls-130{fill:#a9baad;}.cls-131{fill:#99aca3;}.cls-132{fill:#bbc5b5;}.cls-133{fill:#68899d;}.cls-134{fill:#536151;}.cls-135{fill:#8ead7f;}.cls-136{fill:#7193a8;}.cls-137{fill:#778373;}.cls-138{fill:#738071;}.cls-139{fill:#aab59e;}.cls-140{fill:#96aa8d;}.cls-141{fill:#ced1c4;}.cls-142{fill:#acc2a2;}.cls-143{fill:#4d684b;}.cls-144{fill:#3c4d3c;}.cls-145{fill:#122e4a;}.cls-146{fill:#9cac96;}.cls-147{fill:#cfd4c6;}.cls-148{fill:#557250;}.cls-149{fill:#7f9479;}.cls-150{fill:#5c8a4f;}.cls-151{fill:#7898b7;}.cls-152{fill:#56718c;}.cls-153{fill:#4d77c0;}.cls-154{fill:#d0d6cb;}.cls-155{fill:#becace;}.cls-156{fill:#cbd1c1;}.cls-157{fill:#929f8a;}.cls-158{fill:#61725a;}.cls-159{fill:#afc9b9;}.cls-160{fill:#5b80b5;}.cls-161{fill:#748072;}.cls-162{fill:#688165;}.cls-163{fill:#6b9d80;}.cls-164{fill:#aebca5;}.cls-165{fill:#699279;}.cls-166{fill:#778572;}.cls-167{fill:#627d60;}.cls-168{fill:#a1c098;}.cls-169{fill:#86937f;}.cls-170{fill:#93a68e;}.cls-171{fill:#456884;}.cls-172{fill:#b5bda9;}.cls-173{fill:#88a185;}.cls-174{fill:#bbc9d3;}.cls-175{fill:#396a61;}.cls-176{fill:#b6c5d0;}.cls-177{fill:#72a795;}.cls-178{fill:#53897a;}.cls-179{fill:#b3c2db;}.cls-180{fill:#658cc4;}.cls-181{fill:#4770b3;}.cls-182{fill:#5a83be;}.cls-183{fill:#4a6ec1;}.cls-184{fill:#3b56a8;}.cls-185{fill:#d1d8e1;}.cls-186{fill:#7f9f88;}.cls-187{fill:#96afcf;}.cls-188{fill:#9eb4c9;}.cls-189{fill:#6489c4;}.cls-190{fill:#4877aa;}.cls-191{fill:#d9dce4;}.cls-192{fill:#bfcbdc;}.cls-193{fill:#476a83;}.cls-194{fill:#60859b;}.cls-195{fill:#84a5c5;}.cls-196{fill:#a0b7c9;}.cls-197{fill:#87a6c7;}.cls-198{fill:#4671a5;}.cls-199{fill:#3f6697;}.cls-200{fill:#638bb3;}.cls-201{fill:#5a83ae;}.cls-202{fill:#3e6698;}.cls-203{fill:#5883a3;}.cls-204{fill:#adbfc6;}.cls-205{fill:#5d914d;}.cls-206{fill:#b1c0bf;}.cls-207{fill:#87a39c;}.cls-208{fill:#abbebd;}.cls-209{fill:#8ca8ab;}.cls-210{fill:#84a4a9;}.cls-211{fill:#acbfcd;}.cls-212{fill:#6a90b7;}.cls-213{fill:#7295ba;}.cls-214{fill:#577fbe;}.cls-215{fill:#4f8789;}.cls-216{fill:#34605f;}.cls-217{fill:#467e70;}.cls-218{fill:#4a6c88;}.cls-219{fill:#75a1a5;}.cls-220{fill:#5880b0;}.cls-221{fill:#7398b8;}.cls-222{fill:#375c8d;}.cls-223{fill:#5780ab;}.cls-224{fill:#6b92b0;}.cls-225{fill:#779ab8;}.cls-226{fill:#608558;}.cls-227{fill:#eeebdf;}.cls-228{fill:#3d6143;}.cls-229{fill:#688573;}.cls-230{fill:#fcfaf1;}.cls-231{fill:#dbdedb;}.cls-232{fill:#5785a2;}.cls-233{fill:#486d8e;}.cls-234{fill:#698bad;}.cls-235{fill:#5e82a1;}.cls-236{fill:#46688d;}.cls-237{fill:#7a9cc4;}.cls-238{fill:#f5f2ec;}.cls-239{fill:#e6e6e2;}.cls-240{fill:#8ca5c8;}.cls-241{fill:#bac7cc;}.cls-242{fill:#6489c3;}.cls-243{fill:#9db4d1;}.cls-244{fill:#abbaa5;}.cls-245{fill:#8ca9c9;}.cls-246{fill:#c0cae0;}.cls-247{fill:#41657a;}.cls-248{fill:#426bad;}.cls-249{fill:#789bab;}.cls-250{fill:#8daacd;}.cls-251{fill:#a9ba9d;}.cls-252{fill:#3a5e32;}.cls-253{fill:#789ab2;}.cls-254{fill:#2e3f34;}.cls-255{fill:#fcf9f0;}.cls-256{fill:#214042;}.cls-257{fill:#1d3841;}.cls-258{fill:#3758a8;}.cls-259{fill:#e1e2e9;}.cls-260{fill:#23454a;}.cls-261{fill:#ebe9e8;}.cls-262{fill:#619d8e;}.cls-263{fill:#e7e7eb;}.cls-264{fill:#4d7e9c;}</style><clipPath id="clip-path"><rect class="cls-1" x="-10.61" y="10.68" width="107" height="94" transform="translate(-25.16 80.82) rotate(-72.14)"/></clipPath></defs><g class="cls-2"><path class="cls-3" d="M29.31,27c0-.48-.24-.23-.43-.13a11.33,11.33,0,0,1-5,.42l-.43-.14c-.14-.05-.14-.05-.24-.23s.09-.29.14-.42c.38-.19.32-1,1-.78s.76.09.61-.43l.05-.14c.33-.05.33.43.62.51.18-.56.37-.66,1-.62.15,0,.33-.06.43-.34s.75-.39,1-.14a.15.15,0,0,0,.09.19c-.1-.67-.1-.67.52-.63-.48-.95.37-1.14.93-1.43.38-.19.33-.53.27-.86-.23-.23-.05-.33.05-.62.28-.38.13-.9.36-1.13a.48.48,0,0,1,.33-.06,3.08,3.08,0,0,0,1.61.37,4.42,4.42,0,0,1,1.62,1.3c.72.71,1.53,1.12,2.24,1.83.62.52.48.94-.27,1.33a.66.66,0,0,1-.29-.56,5.69,5.69,0,0,0-2.54.58,10.19,10.19,0,0,0-2.78,1.31,1,1,0,0,0-.33.52A.39.39,0,0,1,29.31,27Z"/><path class="cls-4" d="M25.65,5.19a7.21,7.21,0,0,1,1.06-2.33c.33,0,.43.14.34.42-.33.52-.13.9.15,1.47a.76.76,0,0,0-.1-.67c-.14-.51-.14-.51.47-.47.24.23.15.52.24.7.29.57.25,1.18.59,1.61.09.18.05.33.14.52a.31.31,0,0,0,.2.37c.52.33.52.8.3,1.51A.72.72,0,0,1,30,8.8a5.4,5.4,0,0,0,1.11,1.44c.18-.57-.25-.71-.44-1.08s.33-.53.28-.86c0,0,.23-.23.37-.19a1.49,1.49,0,0,1,.39,1.23c.38-.2.28-.39.28-.85s-.24-.23-.38-.29-.33.06-.43-.13l.05-.15c0-.14.23-.24.42-.33a2.6,2.6,0,0,1,1.37.6c.15.05.24.23,0,.47a1.67,1.67,0,0,1,.61-.42c.33-.06.38.27.48.46s.28.1.57.18.23.23.33.42a.57.57,0,0,0,0,.48c0,.14-.09.29-.09.29-.33,0-.57-.19-.9-.14a.34.34,0,0,1-.19-.38,1.56,1.56,0,0,0-1.12,1,.6.6,0,0,1,.47.47c.1.19-.23.25-.28.38-.23.24-.46.48-.27.87.1.19.33.42.24.69s-.47.48-.61,0a.29.29,0,0,0-.43-.13c-.14,0-.33.05-.43-.14s.24-.23.28-.38c-.18.09-.33,0-.51.15s-.29-.1-.38.19-.57.29-.85.2a2.6,2.6,0,0,0-1.61.11l-.18.1c-.44-.62-1.09,0-1.52-.65h0l-.05.15a.34.34,0,0,1-.38.19,1.59,1.59,0,0,0-1.09-.52c-.28-.09-.24-.23-.19-.37s-.1-.65.23-.71.38.28.43.62c.33-.54.37-.68-.2-.86-.14-.05-.61,0-.52-.33a.82.82,0,0,1,.66-.56c.33-.06.47,0,.8-.06s.61,0,.66.37c.2.38.77.55.44,1.08l.14.05c.38-.19.48,0,.53.33-.1-.67-.11-1.15-.82-1.38-.29-.08-.52-.32-.15-.51s.09-.76.47-1c-.53-.32-.11-.65-.3-1a.5.5,0,0,0-.05-.33c-.14,0-.42-.14-.33-.43s.13-.42.56-.29c-.1-.19-.43-.13-.33-.41s-.1-.2-.24-.24-.57-.19-.43-.61C26.17,5,26,5.47,25.65,5.19Z"/><path class="cls-5" d="M26.38,12.18c-.1-.17-.24-.23-.05-.33s.14.05.24.24a.69.69,0,0,0,.71.23c.19-.1.37-.2.47,0,.19.37.38.27.57.17.61-.42,1.37.13,2.08-.11,0-.14-.29-.08-.19-.37s.18-.1.33-.06a.52.52,0,0,0,.7-.23c.05-.15.33-.06.29.08.24.23.09.19-.05.14s-.33.05-.23.24.14.06.28.1c.47,0,.76.08.62.52.19-.11.33-.06.52-.16.61,0,.86.75,1.19,1.18.14,0,0,.13-.09.27s-.19.1-.28-.08-.24-.23-.34-.42a.5.5,0,0,0-.85.19c-.18.57-.32.52-.85.21a.87.87,0,0,1-.33-.44,1.15,1.15,0,0,1,.05.81c-.09.28-.13.42.1.67a.52.52,0,0,1,.39.27c.09.19.19.38-.28.38-.81-.42-1.53-1.11-2.34-1.54.05.33-.18.58-.61.45l-1-.33c-.29-.1-.48-.46-.8.06-.1.28-.67.09-1.09,0s-.19-.38-.25-.71c.1-.29,0-.48-.19-.85-.19.1-.14.43-.38.19a7.85,7.85,0,0,1-.56-4.11c.57-.29.28-.85.46-1.42.05-.15-.05-.33.18-.57l.71.23a.31.31,0,0,1,.2.37,7.47,7.47,0,0,1,.11,2.08.31.31,0,0,1-.37.2c-.57-.18-.81.05-1.09.43.24.24.76.1.91.62s-.47.48-.47.94c-.24-.23-.19-.38-.1-.65s-.09-.19-.24-.25-.18.1-.09.29.1.19.05.33-.28.38.05.34c.15,0,.48.46.57-.3.19.38-.09.76.34.9.09.19.38.28.47.46C26.38,12.66,26.29,12.47,26.38,12.18Z"/><path class="cls-6" d="M69,22.15a42.23,42.23,0,0,0-2.67,8.26.55.55,0,0,0,0,.47c0-.14.43.15.42-.33.09-.29.33-.52.42-.81s.09-.29.23-.23.1.18,0,.33l-.09.27c-.74,1.81-1.19,3.71-2.45,5.19-.24.25-.52.62-.85.67s-.28-.09-.43-.13a28.55,28.55,0,0,1-.34-6.25,34,34,0,0,0,0-4.4c.42.13.33.42.24.7.59,2.08,0,4.26.25,6.53.42-.33.28-.85.51-1.08.33-.06.34.42.62.5,0,.33,0,.63,0,1A4.55,4.55,0,0,0,65,31.57a3.41,3.41,0,0,1,.23-1.2c.42-.32.27-.84.55-1.23.51-1.57,1-3.13,1.61-4.52a16.15,16.15,0,0,1,1.21-2.28C68.92,22,69.06,22,69,22.15Z"/><path class="cls-7" d="M15.26,20.87a6.66,6.66,0,0,1,1.44-2.53c.24-.24.33,0,.29.09s-.14.43.14.52.38-.19.42-.33.24-.24.28-.38c.19-.57.85-.67,1.32-1.15l.14,0-.14,0c-.43-.14-.34-.43-.1-.66.14,0,.42-.34.75-.38s.28.08.34.88c0-.13.18-.57.28-.38.57.19.52-.14.61-.43.52-.15.52.33.62.51s0,.48.47.47c.19-.09.34.43.77.56.14.06.09.19.28.1.57-.29.66-.11.52.33,0,.13-.09.27-.13.42s-.1.29-.24.25l-.19.08c-.56.29-1.13-.35-1.23-.08a1.45,1.45,0,0,1-1.08.44c-.37.19-1-.32-1.08.44-.76-.09-.75.39-.46.95.09.19-.05.15-.24.25s-.38.19-.52.13a1.74,1.74,0,0,0-2,.79,2.91,2.91,0,0,1-.8.52c-.19.1-.05.14-.1.29.06.33-.28.38-.46.48-.38.19-.28.37,0,.61-.57.29-.85.2-.81-.42a4,4,0,0,1,.27-1.33c.37-.19.37-.65.84-.67.15.06.29.1.57.19a4.53,4.53,0,0,1,.7-1.19c.56-.29.89-.35,1.13-.11s.33,0,.52-.14-.1-.19-.1-.19c.05-.15.1-.29.19-.58-.1-.17-.1-.17-.29-.09a.55.55,0,0,0,0,.47c.09.2.33.43,0,.49L17.9,20c-1-.32-1.47.15-1.88,1,0,.15,0,.15-.24.24S15.26,21.34,15.26,20.87Z"/><path class="cls-8" d="M47.88,12.19c.11.67-.08,1.24,0,1.9-.42.33-1,.15-1.51.3a1.14,1.14,0,0,1-.53-1.28c0-.14.09-.27.38-.19-.1-.18-.9-.12-.25-.7.19-.1-.09-.19-.09-.19s0-.15-.14,0c-.38.18-.48,0-.39-.29a1.15,1.15,0,0,0-.43-1.08.82.82,0,0,1-.15-.52c0,.14-.09.28-.18.57-.28.38-.33.52.15.52.14.05.28.09.23.23s0,.15-.23.24a1.07,1.07,0,0,1-.8.06c-.53-.33-.62-.05-.61.43a.68.68,0,0,1-.23.71c0,.15-.14,0-.14,0a.14.14,0,0,1-.1-.19,5.3,5.3,0,0,1-.11-1.14l.09-.27c.14-.44.09-.77.37-1.15.05-.15.24-.23.28-.38-.14,0-.19.09-.28-.1s-.57-.18-.29-.56c0-.14,0,0-.14,0-.43-.14-.62-.52-1-.94.14-.43.52-.62.89-.82L43.11,7a.81.81,0,0,1,.52-.15.83.83,0,0,1,.57.66c-.14.44-.28.85-.41,1.29h0c0-.15.37-.2.33-.06.24.23.47,0,.66-.1s.33,0,.47,0,.28-.37.38-.18a.78.78,0,0,1,.1.65.34.34,0,0,1-.38.2c-.14,0-.14,0-.19.09-.09.29.24.24.24.24.52-.62.62.05.86.27l.14.05c.09-.29.23-.23.52-.15a2.62,2.62,0,0,1,.95.46,2.53,2.53,0,0,1,0,1.56c-.14,0-.28-.08-.18.11s-.14.42-.14.42C47.6,12.1,47.6,12.1,47.88,12.19Z"/><path class="cls-9" d="M29.31,27c.33-.06.52-.15.51-.63a1.17,1.17,0,0,1,.47-.47c.61-.44,1.46-.63,2.07-1.07a4.88,4.88,0,0,1,.85-.2c.14,0,.38-.19.43.14s-.14.43-.28.38-.33.05-.38.2c-.23.25-.71.25-.51.62a.14.14,0,0,1-.19.09c-.19.1-.18.57-.52.15l-.05.14a2.84,2.84,0,0,0,0,1.09c.09.19,0,.48-.14.43-.52.15-.66.57-1.08.92-.19.09-.19.09-.33,0l-.14,0c0,.14.14,0,.1.18a1.91,1.91,0,0,0,0,.95c-.34.05-.66.58-1.18.25a1.38,1.38,0,0,1-.18,1.51c-.32.53,0,1.09-.36,1.63-.05.13.28.08.43.12a.31.31,0,0,1,.14.52c-.23.24-.52.15-.8.07,0,.13-.15-.52-.33,0-.05.14-.33.06-.57-.18s0-.48-.29-.57a7.88,7.88,0,0,1,.72-3.69c.18-.58.7-1.2.88-1.77.48,0,.42-.33.47-.47C29,27,29.12,27.07,29.31,27Z"/><path class="cls-10" d="M20,25.69c-1.1-.51-2-1-3.14-1.47-.14-.06-.28-.1-.24-.23-.52-.34-.19-.86-.2-1.34.19-.08.29.09.57.19,0,.15.1.19.24.23.43.15.66.37.48.94.24-.23.09-.75.37-.67.48,0,.62.52.82.9a.31.31,0,0,1,.37-.19c.57.19.42-.33.61-.44s-.14,0-.14,0c-.24-.23-.38-.29,0-.48.34,0,.71-.24,1-.15-.15-.05-.33,0-.48,0-.24-.22.24-.24,0-.47s.32-.52.37-.67a5.93,5.93,0,0,0,.56-.29,2.18,2.18,0,0,0,1.47-.15c.19-.1.56-.29.57.19,0,0,.37-.2.61,0s.1.19.05.32c-.09.29-.37.68-.7.72s-.57-.18-.56.29c0,0-.05.15.09.19a1,1,0,0,0,.9.13c.14,0,.33,0,.47,0s.62,0,.53.33-.28.37-.61.42c-.24-.23-.57-.17-.9-.13.33,0,.66-.1.9.13a1.07,1.07,0,0,1-1.7.87h0c.29.09.1.19.05.33s-.23.24-.51.15-.38-.27-.9-.12c.33-.06.61,0,.52.31s-.23.25-.52.15l-.14-.05c-.29-.08-.47,0-.71-.22C20.32,25.64,20.13,25.74,20,25.69Z"/><path class="cls-11" d="M71.74,88.74c0,.15.1.19.05.33,0,.48.2.85.2,1.33-.09.28.34.42.58.65a12.13,12.13,0,0,0,.82,1.84c.24.23.29.56-.19.58l-.18.1c-.19.08-.24-.25-.38-.29.09.19.19.37.14.52-.23.23-.66.1-.65.57a.15.15,0,0,1-.19.1c-.14,0-.38-.28-.38.19.1.19-.37.19-.52.16a2.73,2.73,0,0,1-.91-1.56c.05-.15-.24-.23-.33-.42a.79.79,0,0,1-.11-.67c.19-.1.38-.18.14-.43s-.24-.69-.34-.89c-.14-.51-.34-.9-.95-.94-.24-.23-.53-.32-.39-.75.24-.24.33-.52.66-.57s.57.19.9.13c.28.1.57.18.85.27s.43.14.52.33.06.33.2.37.23-.22.28-.37a2.46,2.46,0,0,1,.09-.29C71.64,88.55,71.79,88.6,71.74,88.74Z"/><path class="cls-12" d="M44.82,8.55c-.18.08-.37.65-.66.09a.13.13,0,0,0-.18.1c-.15-.05.19.37-.1.29a.36.36,0,0,1-.19-.39,3.38,3.38,0,0,1,.51-1.09,6,6,0,0,1,1.12-2,1.84,1.84,0,0,1,1.55-.92l.18-.09c.14-.9.85-.67,1.41-1,.29.09.57-.29.66-.11.24.25.1.67-.13.91A5.42,5.42,0,0,0,48,8c0,.33-.05.61,0,.94s-.22.71-.7.72c-.28-.1-.57-.18-.33-.43s0-.61,0-.94c-.33.06-.42.33-.61.44s-.24.23-.19.1c-.14-.06-.1-.2,0-.33.23-.73-.29-.58-.57-.67S45,8,44.82,7.59h0l0,.15C45,8.11,45,8.11,44.82,8.55Z"/><path class="cls-13" d="M39.48,28.05c-.23.23-.18.56-.13.89A10.26,10.26,0,0,1,39,31c-.19.09-.28-.09-.33.06-.28-.1-.66.09-.66-.37,0-.15-.15-.06-.29-.11s-.14,0-.19.11c.25.7-.51,1.08-.69,1.65a.31.31,0,0,1-.38.2.81.81,0,0,0-.65.57c-.24.24-.42.35-.71.25s-.33-.42,0-.61c0,0,0-.15-.09-.19a1.13,1.13,0,0,1,.08-.77c.33-.52.23-.71-.24-1.18a.7.7,0,0,1-.15-.51l.05-.14a1.67,1.67,0,0,0,.36-1.15,2.1,2.1,0,0,1,.42-.81c.19-.09.23-.23.38-.19s.19.38.14.52a1.26,1.26,0,0,1,1-.14c.24.22-.09.27-.18.56a.47.47,0,0,1-.56.29c-.48,0-.52.15-.33.52,0,.15,0,.15-.19.1.14,0,0-.14.09-.29.19-.08.24-.24.52-.14s.09-.29.42-.34c.15,0,.34.42.48,0-.14-.05-.57.28-.57-.18.18-.58.7-.73,1-1.11.09-.28-.24-.23-.19-.37a.45.45,0,0,1,.18-.57c.19-.1.29.09.38.28.09-.29-.14-.52,0-.62s.29.09.38.28.34.42.44.61c0,0,.09.19-.05.14-.38.21-.33.53-.56.77-.42.34-.37.67,0,.94.09-.27,0-.47,0-.6C38.87,28.47,38.87,28,39.48,28.05Z"/><path class="cls-14" d="M35.7,28.09c-.09.28-.32.51-.42.8a4.45,4.45,0,0,0-.41,1.28c0,.15,0,.15-.19.11-.24-.25-.23.23-.33,0-.28-.08-.24-.23-.33-.42a6.51,6.51,0,0,1,1.34-3.18l.84-1.15,0-.15c.19-.08.24-.23.52-.14a.15.15,0,0,1,.1.19c.42-.34,1-.3,1.08-.9,0-.35.13-.44.52-.16s.48.94,1,1.26a.29.29,0,0,0,.43.15c.19-.1.37-.2.42.13,0,.14.1.19.15.06a1.81,1.81,0,0,1,.9.12.55.55,0,0,0,.47,0,.28.28,0,0,1,.42.14c.06.33.58.66.58,1.13.29.56.44,1.08.73,1.66s.53,1.27.82,1.83a.27.27,0,0,1-.14.42c-.19.1-.28-.08-.24-.23,0-.33-.43-.6-.34-.9a6.44,6.44,0,0,1-1-1.74,1.28,1.28,0,0,0-.71-.69,1.26,1.26,0,0,0-1-.33c-.33.06-.61,0-.94,0s-.43-.14-.71-.23-.67-.37-1-.64c-.1-.2-.29-.58-.57-.19C36.68,26.51,36.26,27.32,35.7,28.09Z"/><path class="cls-15" d="M48.78,17.2a4.52,4.52,0,0,1,1.29.89,6.85,6.85,0,0,0,1,1.26c.24.24,0,.49.1.66a17.5,17.5,0,0,1,1.4,2,4.11,4.11,0,0,1-2.16,1.83.15.15,0,0,1-.1-.19c.33-.53.09-.76-.34-.89-.09-.19,0-.48-.29-.56s-.19-.38,0-.48.23-.25.14-.42-.29-.1-.43-.15l-.14-.05a.5.5,0,0,1-.38-.28l-.1-.18c-.33.06.38-.19,0-.15l-.15,0c-.05-.33.52-.62-.05-.81.32-.52-.25-1.17.17-1.51-.28.38-.61,0-1.08,0-.1-.19-.24-.23-.29-.08-.28-.1-.19-.39,0-.48.37-.2.46-.48.74-.86C48.36,17.07,48.6,17.3,48.78,17.2Z"/><path class="cls-16" d="M30.18,38.88A.15.15,0,0,1,30,39c-.67-.86-1.34-1.69-1.86-2.5,0-.46-.11-1.14.46-1.42.18-.1,0-.15,0-.15a.28.28,0,0,1,.14-.43c.19-.09.28.1.38.29,0-.48-.34-.9-.34-1.37,0-.15.23-.24,0-.48-.14,0-.1-.19.09-.28a2.22,2.22,0,0,0,.61-.43c.19-.1.48,0,.47-.48.05-.15.19-.1.33,0,.24.23.19-.1.24-.24s.42-.34.66-.1.14.51-.09.75a.93.93,0,0,0-.18,1,1.31,1.31,0,0,1-.32,1.47c-.37.2.05.33,0,.47.14.52-.13.9-.27,1.33s-.19.57-.28.86c0,.13,0,.48,0,.61s-.09.28,0,.62C30.27,38.59,30.09,38.69,30.18,38.88Z"/><path class="cls-17" d="M11.07,41.68c.23-.24.09-.28,0-.46A28.15,28.15,0,0,1,8.49,39c.52-.15.52-.15.42-.81,0-.15-.15,0,0,0-.05.14-.1.28-.24.24s-.1-.18-.05-.33a.39.39,0,0,0-.29-.56l-.09-.19c.13-.91.32-1,1.45-.64.15.06.24.24.39.29.52.79,1.19,1.64,1.72,2.43a23.87,23.87,0,0,1,1.63,2.26c.1.19.1.19.19.39-.09.27,0,.6-.13.89-.52.15-.81-.41-1.24-.56a2,2,0,0,0-.8-.41C11.3,41.92,11,41.84,11.07,41.68Z"/><path class="cls-18" d="M58.56,79.47c-.9-.13-1.75-.4-2.65-.54a14.81,14.81,0,0,0-5.82,0,38.73,38.73,0,0,1-3.92.47.87.87,0,0,0-1,.16c-.23.23-.52.15-.66-.38,1-.3,2.17-.39,3.2-.7a31.32,31.32,0,0,1,4.07-.42c1.7.08,3.54.21,5.34.46a13.6,13.6,0,0,1,5.51,2.41c-.14.42-.48,0-.71.24A8,8,0,0,0,59.65,80l-.43-.13c-.33,0-.38-.27-.66-.37C58.46,79.28,58.7,79.51,58.56,79.47Z"/><path class="cls-19" d="M5.67,31.61a4.13,4.13,0,0,1,1.72,1c.66.37,1.14.85,1.8,1.21.24.24.2.37,0,.62,0,.14-.14,0-.28-.1s-.67-.36-.71.25c-.14.43-.28.39-.61,0,.09.17.24.23.33.42s0,.46-.28.37c-.14,0-.24-.23-.47,0,0,.15-.43-.12-.09.29a.37.37,0,0,1-.33.52c-.28-.09-.47,0-.71-.22a17.36,17.36,0,0,1-2.16-3.53c.19-.1.56-.29.71-.25.23.24.62.53.85.75s-.23.24-.32.53c.23-.23.23-.23,1.13-.11C5.31,32.76,5.16,32.24,5.67,31.61Z"/><path class="cls-20" d="M60.64,89.1a.14.14,0,0,0,.18-.09A9.64,9.64,0,0,0,64,87.84c.19-.1.52-.16.89-.35a1.19,1.19,0,0,0,.47-.48c0-.33.18-.57.09-.75l0-.15a3.69,3.69,0,0,1,1.32-.68.76.76,0,0,1,0,.95l-.19.11c.38.27.24.7.44,1.08.23-.25.32-.52.65-.58l.15,0c.19.38-.33.54-.28.86-.05.14-.05.14-.09.28s-.28.38-.33.53A4,4,0,0,1,66.93,90c-.14.42-.13.89-.22,1.19s-.09.75-.61.89l-.46,1.44c-.19.09-.47,0-.38-.29s-.05-.33-.14-.52l0-.14c.19-.09.09-.28,0-.61s.14-.9.13-1.38A3.71,3.71,0,0,1,66.17,89c0-.14.23-.23.28-.38a.31.31,0,0,0-.2-.37c-.42-.14,0,.14,0,.14,0,.15,0,.15-.33.05a1.25,1.25,0,0,0-1.28.06,14.42,14.42,0,0,1-4.72,1C60,89.07,60.31,89.15,60.64,89.1Z"/><path class="cls-21" d="M34.08,36.05c-.66.1-1,.62-1.41,1l-.19.09-.14,0c-.1-.2-.05-.33.18-.58a3.87,3.87,0,0,1-1.59,1.06c-.33.05-.48,0-.53-.33s0-.61.28-.85a5.34,5.34,0,0,1,.69-2.13c.09-.29.37-.19.61,0,.34.41.48.46.66-.11l0-.14c-.81-.42-.1-.66,0-1.09a1.8,1.8,0,0,0,.14-.89c0-.15,0-.15.23-.25a.16.16,0,0,0-.19.1c-.47,0-.19-.37-.29-.56s.14-.44.23-.72.24-.24.19-.57c0-.14-.2-.38.13-.43s.29.1.39.28.23.24.19.38c0,.33,0,.61,0,.94a15.2,15.2,0,0,0,.32,3.88C34.12,35.43,34.31,35.82,34.08,36.05Z"/><path class="cls-22" d="M14,101.42c.08-1.23.36-2.56.48-3.93a76.77,76.77,0,0,1,2.7-9.83,16.39,16.39,0,0,1,2.18-4.32c.28.08.24.23.19.38s-.23.23-.14.42c-.65,1.52-1.58,3-2.08,4.51-.92,2.86-1.69,5.75-2.33,8.69a1.84,1.84,0,0,1-.09.28,4.41,4.41,0,0,0-.17,1.52c.05.33.19.85-.47,1-.14,0,0,.15-.09.29s0,.47-.09.75C14.34,101.22,14.25,101.51,14,101.42Z"/><path class="cls-23" d="M76.38,99.2c.15,1,.35,1.85.5,2.83a16,16,0,0,1,.12,3c0,.46-.28.37-.51.15-.43-.15-.72-.71-1-.94a3.12,3.12,0,0,1-.67-.85,7.09,7.09,0,0,1-1.15-1.79c-.1-.19-.19-.38-.34-.42a.15.15,0,0,1-.09-.19,6.66,6.66,0,0,0-.53-1.27.71.71,0,0,1-.16-1c.38-.21.9.12,1.1.5.09.19.09.19.24.23s.33,0,.42.14c.29.57,1.1,1,1.39,1.54.09.19.24.24.33.43-.09.28.29.1.2.37-.14.43-.52.62-.51,1.1-.19.09-.24-.24-.34-.43.1.19.19.39.34.43a.14.14,0,0,1,.09.19l-.09-.19c.23-.72.23-.72.66-.1.09.18.19.37.52.33.14,0,.28.08.24.23s-.19.09-.24.23l0-.14c.05-.13.19-.09.23-.24a.13.13,0,0,0-.09-.18c-.71-.23-.48-.94-.63-1.46a1.1,1.1,0,0,1-.1-.67c-.1-.19-.05-.33-.15-.52s0-.33.14-.42.24.23.38.28c0-.34-.06-.81-.11-1.13C76.15,99.44,76.1,99.11,76.38,99.2Z"/><path class="cls-24" d="M10.19,34.64c.53.33.77,1,1.48,1.26.09-.28,0-.47,0-.6.33-.06.38.27.48.46.34.89.87,1.69,1.21,2.59,0,.33.14.52.19.85l0,.14A2,2,0,0,0,14,40c.14.06.1.19.24.23s.33.43.43.62a.15.15,0,0,1,.1.19c.09.18.19.37,0,.48a.3.3,0,0,1-.43-.15c-.28-.08-.47-.47-.76-.56a9,9,0,0,1-1.67-1.64c-.53-.8-1.14-1.3-1.81-2.15a3.12,3.12,0,0,1-.67-.85c0-.15.09-.28.23-.24s.28.09.47,0,.28-.38,0-.61C10.06,35.07,10,34.88,10.19,34.64Z"/><path class="cls-25" d="M10.19,34.64c.1.2-.37.68.29.58l.1.18c-.23.23,0,.61-.13.9-.34-.43-.53-.33-.52.14-.14,0-.29-.56-.57-.18l-.14,0a.13.13,0,0,1,.09.18c.15.05.43.15.34.42-.14,0-.33.06-.29-.08-.23-.23-.56.29-.8.06,0,.13-.14.42-.18.56-.42.33-.57.29-.86-.27-.09-.19.48,0,.1-.29-.1-.19-.34-.42-.44-.61a.21.21,0,0,0-.28-.09c-.19.09-.05.14.1.18,0,.48-.19.57-.52.63a1.71,1.71,0,0,1-.76-1c.14.05.37-.19.61,0s.14.06.19-.09.05-.15-.1-.19,0-.33,0-.62c.15.06,0,.33.2.38s.18-.57.52-.15a.21.21,0,0,0,.28.1c0-.15.09-.29,0-.33-.43-.14-.19-.38-.1-.67a.79.79,0,0,0,.43.61c.33-.05.14-.42.09-.76.28.11.66-.1.9.15.14,0,.23.23.42.13s.14-.42,0-.62C9.67,33.84,10,34.41,10.19,34.64Z"/><path class="cls-26" d="M25,13c.33-.06.18-.58.32-.52s.34.41.39.75l-.05.13c-.18.57-.09.76.57.66.15.06.29.09.43.14.05-.14-.19-.37.18-.57.19-.09.29.09.43.14a1.73,1.73,0,0,0,1.42.45c.15.05.24-.22.1-.28a.27.27,0,0,1,.13-.42,7,7,0,0,0,2.34,2c-.61.43-.8.54-1.23-.08-.24-.23-.57-.17-.85-.27.05.33.52.79-.18,1a1.53,1.53,0,0,0-1.61.12c-.14-.06-.33,0-.47,0-.24-.23-.48-.46-.72-.71l-.14,0A8,8,0,0,1,25,13Z"/><path class="cls-27" d="M66.19,91.84c.38-.2.23-.72.47-1,.56-.29.56-.29.71.23.09.19.09.19.19.38l.1.18a14.66,14.66,0,0,0,.87,2.17,10.76,10.76,0,0,0,1.3,2.31,5.19,5.19,0,0,0,1.33,1.21.43.43,0,0,0,.62,0,2.68,2.68,0,0,1,.72,1.65c-.42.34-.8.06-1-.46-.56.29-.8,0-.86-.75.06.33-.18.57-.65.57-.29-.09-.34-.42-.43-.61s-.1-.66-.53-.79c-.14,0-.14,0-.1-.19.23-.72-.39-1.23-.49-1.89l-.58-1.13h0c.2.38,0,.48-.23.71-.38-.75-.72-1.65-1.11-2.4C66.39,92.22,66.48,91.92,66.19,91.84Z"/><path class="cls-28" d="M48.32,3.53c-.33.05-.52.15-.85.2s-.52.15-.47.49-.28.37-.46.46-.19.1-.33.06c-.67.1-.66,1-1.36,1.29.1.66-.51,1.09-.65,1.52-.05-.33-.15-.52-.43-.61,0-.14.23-.23.23-.23a2,2,0,0,0-.75.38c0,.14,0,.14-.23.23s-.19.1-.29-.09.24-.24.14-.42c.05-.15.19-.09.33-.06a1.11,1.11,0,0,1-.76-.08c-.14,0-.33-.42-.47,0a.4.4,0,0,1-.56.3l-.29-.1c-.1-.19.05-.14.09-.28a1.64,1.64,0,0,1,1-1.1c.18-.1.32-.52.55-.77a2.6,2.6,0,0,1,1.7-.39,5.22,5.22,0,0,0,2.83-.5C47.61,3.77,48,3.58,48.32,3.53Z"/><path class="cls-29" d="M11.89,39.12a9,9,0,0,0,1.67,1.64c.86.75,1.58,1.46,2.29,2.15-.19-.38-.9-.59-.67-1.32,0-.14-.34-.42-.58-.65l-.09-.18a1.57,1.57,0,0,1-.34-.91.32.32,0,0,1,.37-.19c.43.14.48.47.72.7.43.61,1.1,1,1.53,1.59.1.67.86.75,1.19,1.18s1,.94.73,1.65c-.1.29-.38.19-.48,0s-.19-.38-.33-.42c.1.19.28.09.19.38-.19.1,0,.61-.42.33-.29-.08-.62-.52-.39-.75.14-.43,0-.48-.29-.56h0a.52.52,0,0,1,.39.27.32.32,0,0,1-.38.19,12.33,12.33,0,0,1-2.48-2,2.43,2.43,0,0,1-.81-.89c-.43-.61-1.1-1-1.48-1.73L11.94,39C11.7,39.22,11.75,39.07,11.89,39.12Z"/><path class="cls-30" d="M42.61,4.68c0,.33-.37.67-.46,1s0,0-.19.1-.38.19-.37.66c0,0-.05.15-.09.29,0,.33-.57-.19-.24.24.24.23.33,0,.52-.15s.09-.29.19-.56c.14,0,.38.27.52.32-.05.14-.09.28-.14.43a.14.14,0,0,1-.19.09c-.19.1-.23.24-.32.52-.19.57-.37.67-.85.21-.24.23-.33.52-.7.71a1.89,1.89,0,0,0-.94.95c-.23.24-.23.72-.7.72-.14,0-.29-.09-.24-.23.42-.81.41-1.76,1-2.52a3,3,0,0,1,1.16-1.67c.43-.33.48,0,.53.33a.74.74,0,0,1-.1-.66c0-.15.18-.1.23-.24.23-.24.66-.1.89-.34S42.42,4.78,42.61,4.68Z"/><path class="cls-31" d="M34,63.68c.47-.48,1-1.09,1.45-1.57L37.52,60c.8-1,1.59-2,2.57-3.1.71-.72,1-1.57,1.68-2.28.47-.48.56-1.23,1.26-1.48a.21.21,0,0,1,.29.08,33.88,33.88,0,0,1-2.57,3.59c0,.13-.42.33,0,.46-.09.29-.33.06-.52.15s-.05.14-.09.29c-.8,1-1.73,2-2.67,2.91a14.51,14.51,0,0,1-2,2.21c-.14-.06-.19-.39-.33,0a1.17,1.17,0,0,1-.52.62C34.3,63.63,34.21,63.92,34,63.68Z"/><path class="cls-32" d="M50,22.78l.29.08c.47,0,.52.33.24.71,0,.15-.09.29-.09.29a12.55,12.55,0,0,1-3.48,2,3.64,3.64,0,0,0-.94.48l-.14,0a2.46,2.46,0,0,1,.09-.29c.23-.23.42-.33.66-.56-.34-.44-.2-.86.36-1.15a1.15,1.15,0,0,1,.81-.06c-.1-.19-1,.15-.48-.46.19-.1.47,0,.56-.29s0-.15.09-.29.05-.13.1-.29,0-.33.13-.42.24.23.24.23c.2.38.34.42.62,0a.6.6,0,0,1,.47-.48c.28.1.19.38.28.57.15,0,0-.13.19-.09Z"/><path class="cls-33" d="M47.72,14.18c-.19.58-.18,1.06-.37,1.62-.09.29-.18.57.06.8-.19.1-.29-.09-.47,0-.1-.19,0-.48-.11-.67.1.19-.18.57.25.71a.3.3,0,0,1-.14.44c-.19.08-.23.23-.33.51a5.56,5.56,0,0,1-.83,2.09c-.47,0-.42.34-.56.78-.09.27-.18.56-.65.56-.19.1.09-.27-.24-.23a.55.55,0,0,1-.47,0,.19.19,0,0,1,.09-.27c.19-.11.09-.29.18-.58a1.62,1.62,0,0,0,.79-1.48c.09-.28,0-.46.37-.65a1.2,1.2,0,0,0,.18-1.52c-.1-.2-.29-.58,0-.63s.28-.37.18-.57l.05-.13A2.31,2.31,0,0,1,47.72,14.18Z"/><path class="cls-34" d="M20,25.69c.37-.18.28-.37.23-.7.14.52.62.5,1,.64.14.05.29.09.19-.1,0,0,.09-.27-.24-.23s-.28-.08-.57-.18a1.68,1.68,0,0,1,1.09,0c.28.09.28.09.47,0,.09-.29-.28-.1-.33-.43.75.1,1.75.41,2-.77a2.16,2.16,0,0,0,.61-.44c-.67-.37-1.38-.12-2-.16-.14-.05-.14-.05,0-.34.37-.19.94,0,1.32-.19.28.08.61,0,.76.08s.66.38,1,.19c.19-.1.24.23.19.36,0,.62-.65,1.06-.93,1.43l-.05.15c0,.14-.18.09-.33.06a1.87,1.87,0,0,0-1.74.52c-.05.15-.19.11-.33.06s-.1-.18-.28-.1a.14.14,0,0,0,.09.19c.14.06.1.19,0,.14-.19.11-1.18.25-1.42,0C20.75,26.26,20.41,25.84,20,25.69Z"/><path class="cls-35" d="M5.67,31.61a.29.29,0,0,1-.13.44c-.33.52.19.84.24,1.17,0,0,.34,0,.1.19,0,.14-.14.43-.33.06-.1-.19-.38.18-.57-.19a.46.46,0,0,0-.23.25c0,.13,0,.32-.24.23-.14,0-.18.09-.28-.1s.09-.28.14-.42.19-.1.23-.23c.19-.11.24.23,0,.13,0-.13.32-.52-.2-.38a.13.13,0,0,1-.09-.17c0-.49-.2-.39-.29-.1-.19.1-.28-.1-.47,0a13.73,13.73,0,0,1-1-1.88.63.63,0,0,1-.11-.67c.19-.09.29.11.43.15A11.24,11.24,0,0,1,5.67,31.61Z"/><path class="cls-36" d="M34.73,30.6c.15,0,.24.24.39.75.1.2.14,0,.28.09s.29.09.24.24c-.14.42-.14-.05-.28-.09-.33.05-.42.33-.52.63,0,.13,0,.33,0,.46s.33.42-.09.29c0,.14-.09.29.05.33s.42.13.47,0c.09-.29.47-.48.66-.58s.18-.1.28.1c.34.42-.09.75-.22,1.17s-.28.38-.38.67a.31.31,0,0,1-.37.19c-.14,0,0-.32,0-.32-.28.37.19.37.29.56-.14.42-.66.57-.89.81s-.24.24-.43.34a3.21,3.21,0,0,1-.39-1.69,4.9,4.9,0,0,1,0-1.43c.51-.61.41-1.28.64-2C34.64,30.88,34.45,30.51,34.73,30.6Z"/><path class="cls-37" d="M74.11,79.92a14.61,14.61,0,0,1-2.69,4.47,4.14,4.14,0,0,1-2.17,1.35,1.22,1.22,0,0,0-.75.39c-.19.09,0,.34-.14.42-.09.29-.37.21-.51.15l-.29-.09c.09-.27-.62-.51.09-.76.19-.09-.24-.23-.15-.51.19-.1.19-.1.47,0a.74.74,0,0,0,1-.16,7.91,7.91,0,0,1,1.93-1.11.15.15,0,0,1,.19-.1c.93-1.42,2.29-2.71,2.74-4.62a1.8,1.8,0,0,0,.14-.9c.19-.1.28.1.24.24A3.58,3.58,0,0,1,74.11,79.92Z"/><path class="cls-38" d="M73.25,92.84a14.07,14.07,0,0,1-.92-2c-.1-.19-.47,0-.48-.47s-.15-1-.11-1.61a16.14,16.14,0,0,1,1.63,2.73,16.79,16.79,0,0,0,1.45,2.83l0,.14c-.13.42-.37.19-.7.24.38.29.43.62.62,1-.09.28.1.67-.37.67a6.38,6.38,0,0,1-1-1.75c-.1-.18-.29-.56-.39-.75s-.09-.19-.09-.19c-.1-.18,0-.33.18-.56l0-.15c.14,0,.19.38.42.15l.1-.29A.52.52,0,0,1,73.25,92.84Z"/><path class="cls-39" d="M74.87,104.37a11.5,11.5,0,0,1-4.58-4.78c0-.14-.1-.18-.05-.33s.13-.42.42-.33.38.29.33.42-.19.1,0,.14c.61,0,.76.56,1.09,1l.29.08c.52.32.66.37,0,.8.43.14.47-.48.9-.34.57.66.87,1.69,1.63,2.25.19.38.57.66.62,1C75.35,104.84,75.15,104.47,74.87,104.37Z"/><path class="cls-40" d="M43.27,53.32a2.71,2.71,0,0,1-.28-.1.28.28,0,0,1,0-.46,18.69,18.69,0,0,0,3.17-9.84,31.89,31.89,0,0,0-.08-3.64,1,1,0,0,1,.48.94A20,20,0,0,1,46,47c-.13.9-.74,1.81-.73,2.75A19,19,0,0,1,43.27,53.32Z"/><path class="cls-41" d="M19.89,16.24a3.07,3.07,0,0,0-.94.48c0,.13-.18.1-.28-.1a7.58,7.58,0,0,1,3.86-1.27,8.35,8.35,0,0,1,2.65.06c-.23.24-.75.39-.61.91a.15.15,0,0,0,.1.19c.1.66-.42.33-.65.58-.71.25-.39-.29-.48-.48-.47,0-.75.86-1.18.25a1.92,1.92,0,0,0-.76-.08c-.24-.23-.1-.66-.57-.66A1.56,1.56,0,0,0,19.89,16.24Z"/><path class="cls-42" d="M46,25.89a.59.59,0,0,1,0,.33c-.24.25-.24.25-.67.1.06.33.62,0,.48.48-.09.29-.14.42-.42.33s-.76-.56-1.23-.56a3.53,3.53,0,0,1-1.1-.5c-.24-.23-.43-.62-.8-.43l-.15,0c-.09-.19-.23-.24-.14-.51s0-.33.13-.44.33,0,.53.34c0-.48-.43-.62-.67-.86s-.34-.41-.06-.79c.76.55,1.66.69,2.24,1.34A5.06,5.06,0,0,1,46,25.89Z"/><path class="cls-43" d="M43.47,29.8a4,4,0,0,1,.44,1.08c-.06-.79-.63-1.46-.73-2.12A30.89,30.89,0,0,1,45,32.82,22.47,22.47,0,0,1,46.34,38c-.33.06-.38-.28-.62-.51s0-.33-.19-.37a32.41,32.41,0,0,0-2.1-6.66C43.33,30.22,43.09,30,43.47,29.8Z"/><path class="cls-44" d="M27.63,4.41c-.1-.19,0-.47-.1-.66a3,3,0,0,1-.73-1.18l.1-.28c.23-.24.32-.52.7-.24a9.79,9.79,0,0,0,2.61,1.16,4.1,4.1,0,0,1,1.19.69c.53.32.53.32.06.81-.19.09-.43-.15-.57-.19l-.43-.14c-.14,0-.28-.09-.24-.23a.15.15,0,0,1,.19-.1c-.47,0-1,.3-1.56,0-.14,0-.19.1-.33.05s-.38.19-.47,0-.15-.52-.24-.71c.05.34,0,.61.24.71-.05.14-.09.28-.24.23C27.72,4.6,27.63,4.41,27.63,4.41Z"/><path class="cls-45" d="M67.64,85.38c.15,0,.24.23.53.32-.1.29-.38.2-.61.44.14,0,.75.08.29.56-.48,0-.67-.36-1.1-.51.24-.24-.14-.52,0-.6-.56-.2-.74.85-1.36.33a1.25,1.25,0,0,1-.09,1.23c-.18.11-.33,0-.28-.08,0-.62-.25-1.19-.21-1.79a2.66,2.66,0,0,1,1.74-1,2.61,2.61,0,0,1,1.24,1C68,85.19,67.4,85.14,67.64,85.38Z"/><path class="cls-46" d="M28.82,59.67A23.14,23.14,0,0,0,30,52.51c0-.14,0-.14.19-.1s.1.19.19.39a24.81,24.81,0,0,1-.1,3.73A16.21,16.21,0,0,1,29,61a2.37,2.37,0,0,1-.56.77c-.52.14-.24-.23-.34-.42A4,4,0,0,0,28.82,59.67Z"/><path class="cls-47" d="M44.82,8.55s-.28-.11-.09-.2c.61-.43.32-.53-.15-.51,0-.33.14-.44.18-.58,0,.48.29.56.67.37s.48.47.85.28a.2.2,0,0,1-.09.28c0,.15-.23.24-.18.57.52-.15.46-.94,1-.77.05.33-.37.67.2.85-.05.15-.05.15-.09.29s-.33,0-.28.38c0,.14.09.19.28.09s.47,0,.42-.34.19-.09.24-.23a6.86,6.86,0,0,1,.1,1.13,1.25,1.25,0,0,1-1-.32c-.29-.08-.29-.08-.24.25,0,.13,0,.13-.23.23-.05-.33-.67-.37-.67-.85a.55.55,0,0,1-.75.39c-.43-.14.18-.56-.2-.85.85.27.85.27.66-.58C45.44,8.59,45.16,9,44.82,8.55Z"/><path class="cls-48" d="M14,101.42c.33,0,.28-.37.19-.57a2.49,2.49,0,0,1,.32-1c.28-.38.18-1,.31-1.47.09-.28,0-.62.28-.85,0,.48-.13.9-.13,1.37.33-.05.28-.37.47-.48,0-.14.19-.1.23-.24s.19-.09.33-.05.1.19.05.34-.32.52-.41.81c-.89.81-.79,1.94-.87,3.17-.09.77,0,1.56-.12,2.33-.76-.56-.91-.62-.77-1.52Z"/><path class="cls-49" d="M27.81,87.17a25.59,25.59,0,0,0-2.25,1.63c-.37.21-.75.39-.84.67A12.35,12.35,0,0,1,23,90.82c-.33.05-.47.48-.8.53L22,91.26c.18-.57.7-.71,1.12-1.06a29.61,29.61,0,0,1,3.33-2.54,4.06,4.06,0,0,1,1.36-.82A.5.5,0,0,0,27.81,87.17Z"/><path class="cls-50" d="M34,32.88A9.73,9.73,0,0,0,34.41,36c.09.17.05.33.1.65l-.29-.57a12.09,12.09,0,0,1-.56-4.1c0-.62,0-1.1.08-1.71a3.59,3.59,0,0,1,.41-1.75A6.19,6.19,0,0,1,35.45,26c.33-.05.37-.65.79-.53a12,12,0,0,1-1.25,2,16.15,16.15,0,0,0-1,2.52,2.18,2.18,0,0,1-.18,1c.23-.24,0-.62.37-.66.14,0,.14-.43.33-.06A15.68,15.68,0,0,1,34,32.88Z"/><path class="cls-51" d="M53.1,53c1.36-1.29,2.72-2.59,3.93-3.93.8-1,1.45-2.05,2.06-3,.14,0,.33,0,.42.13-.23.25-.37.67-.6.91a6.7,6.7,0,0,0,2.54-.6.15.15,0,0,1,.1.19c-.23.25-.52.15-.66.58a.55.55,0,0,1-.47,0c-.38-.27-.61,0-.8.06-1.37-.12-1.6,1.07-2.3,1.77s-1.26,1.48-1.92,2.07c-.61.42-1.12,1-1.73,1.48C53.43,53,53.34,53.26,53.1,53Z"/><path class="cls-52" d="M50.72,51.16A12.11,12.11,0,0,0,49.34,55a2.36,2.36,0,0,0,1.08-.44c.38-.19.85-.21,1.13-.59a.44.44,0,0,1,.33,0l.29.1a18.76,18.76,0,0,1-3.62,2,3.18,3.18,0,0,0-1.37.33c-.38.21-.38.21-.57-.18.61-.43,1.22-.38,1.79-.68.38-.18.56-.29.56-.76a7.44,7.44,0,0,1,1.38-3.8C50.62,51,50.77,51,50.72,51.16Z"/><path class="cls-53" d="M18.19,44.92c.09-.28-.24-.23-.34-.41l0-.15c.28.09.38.28.62.51a.27.27,0,0,0,.42.14c.39.29.39.75.39,1.23s.11.66.34.89a27.32,27.32,0,0,1,3,4.27c.38.28.44.61.25,1.19a17.71,17.71,0,0,1-1.25-2,30.39,30.39,0,0,0-2.63-3.52c-.24-.24-.33,0-.62,0-.09-.19-.33-.42-.52-.33-.28-.09-.28-.09-.19-.37a.32.32,0,0,1,.38-.2c.33,0,.28.09.61.52A15.1,15.1,0,0,1,18.19,44.92Z"/><path class="cls-54" d="M67.62,29.87c-.09-.19-.05-.32-.14-.52a6.18,6.18,0,0,0-.65,1.53c0,.15-.09.28-.23.23s0-.14-.2-.37c0,.14-.23.25-.28.38-.19-.38,0-.61.14-.9.28.1.28.1.33,0a9.08,9.08,0,0,0,1.07-1.85c1-2.2,2.18-4.33,3.29-6.33.19-.1.14,0,.29.08-1,2.05-2.14,4.19-3.11,6.25A5.87,5.87,0,0,1,67.62,29.87Z"/><path class="cls-55" d="M31.27,4.8c.38-.19.28-.38,0-.62a7.48,7.48,0,0,1,2.24,1.35c.66.37,1.05,1.13,1.71,1.5a.31.31,0,0,1,.19.37.15.15,0,0,0,.1.19c.1.19.34.42,0,.63a.54.54,0,0,1-.67-.38c-.09-.19-.19-.37-.28-.57-.05.14,0,.47-.28.38a.28.28,0,0,1-.43-.12.6.6,0,0,1,0-.49c.1-.28-.05-.32-.33-.42a2.11,2.11,0,0,1-.76-.56c-.24-.23-.29-.56-.95-.46C31.61,5.69,31.32,5.13,31.27,4.8Z"/><path class="cls-56" d="M21.27,26.1c.18-.09.38.28.52-.13l0-.15c.15.52.57-.29.9.13a.47.47,0,0,1-.05-.81c.09.2,0,.47.14.52s.24-.24.42-.34c.33-.52,1.13-.58,2-.29a2.48,2.48,0,0,0,.34.89c-.38-.28-.38-.28-.85.19.18-.56-.29-.56-.48-.46-.52.15-.14.42-.23.71-.19.09-.38-.27-.52.15s.24.23.19.37l.1.19A7,7,0,0,1,22,26.66.66.66,0,0,1,21.27,26.1Z"/><path class="cls-57" d="M46.71,56.32c.28.08.28.08.51-.16A4.11,4.11,0,0,1,48.69,56a20.54,20.54,0,0,1-7,1.83c-.42-.15-.75-.1-1.18-.24-.14,0-.33.06-.38-.28s.47,0,.66-.1C42.7,57.53,44.63,56.9,46.71,56.32Z"/><path class="cls-58" d="M12.4,42.43c.38.29.8.41,1.19.69.71.23,1.14.85,1.71,1,.14,0,.38.28.52.32s.14.06.24.25.66.37.53.79c-.43.33-.43.33-.95,0,.19.36.85.27.81.88-.75-.09-1.19-.69-1.71-1a12.62,12.62,0,0,0-2.48-2c-.14-.06-.23-.25-.33-.44s0-.33.09-.28C12.25,42.38,12.3,42.24,12.4,42.43Z"/><path class="cls-59" d="M16.5,46.26a8.43,8.43,0,0,0-1.14-.84c.47,0,.85.28,1.13-.1.19-.1.43.15.71.23-.14,0-.1-.19-.05-.33s.19-.1.05-.15a.49.49,0,0,1-.38-.27c-.1-.19-.15-.52.13-.43,0,0,.33,0,.05-.15s-.38-.28-.62-.5c.33-.06.52.33.85.27.1.18.53.33.25.7s.14.53.38.76c.19-.1-.14-.52.28-.38a4.39,4.39,0,0,1,.58,1.6c-.23-.24-.28-.57-.76-.56,0,0-.28-.1-.19.09s.1.19.24.24.62.05.62.51A3.73,3.73,0,0,1,16.5,46.26Z"/><path class="cls-60" d="M65.5,30.13l-.37,1.15c0,.13.05.32-.09.29-.47,0-.15-.52-.62-.52.09-.29,0-.62.14-.91,0-.13.28.1.23-.24A20.51,20.51,0,0,1,65.56,27c.1-.29-.23-.23-.19-.38l.54-3.12c.19-.1.19-.1.28.09a8,8,0,0,0-.12,1.84c0,1.09-.4,2.23-.44,3.32A1.43,1.43,0,0,1,65.5,30.13Z"/><path class="cls-61" d="M28.85,33.26c.29.58.63,1,.25,1.66-.09-.18-.14-.52-.47-.47-.1.29.19.37.24.71-.52-.32-.66.1-.66.58.05.33-.13.42-.23.7a4.67,4.67,0,0,1-1.06-3c.28.1.23.23.33.42s.19.37.38.28-.1-.19-.24-.24-.05-.32.09-.28.33,0,.29.09c.05.33.19.39.48.47s.42.15.47,0-.1-.17-.19-.36C28.66,33.36,28.71,33.22,28.85,33.26Z"/><path class="cls-62" d="M74.56,96.57c.23-.23,0-.47.23-.71-.1-.19,0-.14.19-.1a.58.58,0,0,1,.38.29,18.12,18.12,0,0,1,1,3.15c-.47,0-.14.43-.18.58,0,.32.19.84.24,1.17,0,.14-.09.29-.23.24-.15-.52-.62-1-.72-1.64-.1-.2-.2-.39,0-.63s0-.14-.1-.18a.32.32,0,0,1-.19-.38c.14-.43-.2-.37-.34-.42a.14.14,0,0,1-.09-.18.82.82,0,0,0-.1-.67C74.61,96.9,74.32,96.82,74.56,96.57Z"/><path class="cls-63" d="M16.08,56.35a43.56,43.56,0,0,1,6.11,1.49c.14,0,.14,0,.24.25s.09.19-.09.27C20.58,58,18.69,57.51,17,57l-1.14-.36C15.75,56.4,15.79,56.26,16.08,56.35Z"/><path class="cls-64" d="M38.31,9.74c0,.14.1.19.24.23a2.44,2.44,0,0,0,.29.1c.28.09.71.23.1.67l0,.13c0,.33,0,.47-.18.57a2,2,0,0,1-1,0c-.38-.28-.76-.56-.76-1s-.1-.66-.11-1.14c.33-.52-.24-.71-.48-.94A1.44,1.44,0,0,1,36,7.26L36,7.11a15.19,15.19,0,0,1,1.91,2.36C38,9.8,38,10.12,38.31,9.74Z"/><path class="cls-65" d="M22.85,52.4c.28-.39-.06-.81-.25-1.18.32-.53,0-1.09,0-1.57.05-.14-.1-.18-.05-.33s0-.33,0-.6-.05-.34.28-.38c.14,0,.1.17.19.36a19.42,19.42,0,0,1,0,2.85A2.54,2.54,0,0,0,23.61,53a25,25,0,0,1,1.59,3.81c0,.13.05.32-.28.37-.43-1.08-.87-2.16-1.4-3.43A6.77,6.77,0,0,1,22.85,52.4Z"/><path class="cls-18" d="M41,80.41c.14-.42.57-.29.76-.38,2-.31,2.91-1.73,4-3.13.47-.47.84-1.14,1.31-1.62.38-.19.52-.15.52.33-.69,1.19-1.91,2-2.75,3.21,0,.13-.38.19-.28.37-.05.15,0,.34-.28.38-.48,0-.9.34-1.23.4a1.49,1.49,0,0,0-.8.52C41.65,80.78,41.32,80.84,41,80.41Z"/><path class="cls-66" d="M14.64,39.85c-.19.09-.33,0-.38.2a.14.14,0,0,1-.18.09c-.15,0-.15,0-.1-.19a2,2,0,0,0-.43-.61l0-.14c-.09-.19,0-.48-.28-.57a21.32,21.32,0,0,1-1.6-3.33,4.84,4.84,0,0,1-.58-1.61c-.1-.18-.24-.24.09-.29.72,1.19,1.26,2.45,2,3.63.52.79.91,1.56,1.34,2.16C14.59,39.53,14.69,39.72,14.64,39.85Z"/><path class="cls-67" d="M47.55,75.61c0-.33-.19-.37-.52-.33,1.12-2,2-3.9,3-5.94A17.24,17.24,0,0,1,47.55,75.61Z"/><path class="cls-68" d="M41,80.41a.82.82,0,0,0,1.14-.11,1.84,1.84,0,0,1,.94-.48c.38.28.66-.1,1-.15s.42-.33.43.13c-2.6.75-5.09,1.67-7.59,2.59-.19.1-.19.1-.33,0-.33-.41.14-.43.37-.66,1.37-.35,2.5-.93,3.87-1.27C40.75,80.65,40.8,80.51,41,80.41Z"/><path class="cls-69" d="M11.22,42.68A35.86,35.86,0,0,0,6,40.51c-1-.32-2.08-.36-2.94-.63A20.31,20.31,0,0,1,6,40c.23.25.56.19.71.23a34.16,34.16,0,0,1,3.55,1.15A1.07,1.07,0,0,0,11,42c.15,0,.48,0,.39.29S11.36,42.72,11.22,42.68Z"/><path class="cls-70" d="M45.81,46.9a23.48,23.48,0,0,0,.55-6.58c0-.47-.24-.71-.39-1.23a1.55,1.55,0,0,0,0-.79c0-.15-.2-.39.13-.44s.43.15.38.28A20.5,20.5,0,0,1,46,46.82C45.72,47.19,45.77,47.05,45.81,46.9Z"/><path class="cls-71" d="M59.51,46.28a.27.27,0,0,1-.42-.13,40.18,40.18,0,0,0,2.83-5.37l.28.08a10.27,10.27,0,0,1-.78,2A16.26,16.26,0,0,1,59.51,46.28Z"/><path class="cls-72" d="M18.53,16.57l.28.09a.31.31,0,0,0,.15.52c-.24.24-.23.72-.8.54-.14.42-.51.62-.61.9a.57.57,0,0,1-.28.39c-.18.09-.42.33-.66.09s-.19-.38-.1-.66.09-.29-.09-.18A21.67,21.67,0,0,0,18.53,16.57Z"/><path class="cls-73" d="M26.38,60.92c.24.71.11,1.61.54,2.22.14,0,.1.2,0,.33.05.33.06.81.11,1.14-.19.09-.29-.08-.43-.14-.25-1.17-.54-2.21-.79-3.4a2.19,2.19,0,0,0-1-1.27c.29.1.39.29.72.23.13-.42-.34-.89-.16-1.46A1.75,1.75,0,0,1,26,59.7,2.62,2.62,0,0,0,26.38,60.92Z"/><path class="cls-74" d="M27.42,70.85c.19.39.28.09.33,0,1-1.23,2.06-2.48,3.08-3.71L31,67c.38.27-.14.42-.23.7-.56.76-1.21,1.34-1.77,2.11a14.66,14.66,0,0,1-1.54,1.85.15.15,0,0,1-.19.11l-.15-.06A1,1,0,0,1,27.42,70.85Z"/><path class="cls-45" d="M68.36,86.55c-.14-.5-.14-.5.14-.42.19.38.52.32,1,.32a.57.57,0,0,0,.33,0c.14,0,.19-.1.28.09s-.09.29-.23.25-.33,0-.52.14c.81.42,1.71.55,2.37.92a.66.66,0,0,1-.23.71,1.25,1.25,0,0,1-1-.32.85.85,0,0,0-.48-.47,2.42,2.42,0,0,0-1-.17C68.23,87.45,68.23,87.45,68.36,86.55Z"/><path class="cls-75" d="M25.65,5.19c.14,0,.19-.1.33-.05.28-.38.56-.29.94,0,0,.14-.28-.09-.33,0-.09.29.38.29.72.23l.18-.1a.71.71,0,0,0,.49.94c-.43-.14-.67.1-.8.53.33,0,.61,0,.47.47-.33,0-.47,0-.8.06a.46.46,0,0,1-.57-.19c.09-.28.09-.76.18-1,0-.61-.57-.18-.57-.66C25.6,5.33,25.46,5.28,25.65,5.19Z"/><path class="cls-76" d="M29.08,95.44a5.81,5.81,0,0,0-2.63-2.58c-.28-.08-.38-.27-.66-.37-.05-.33-.38-.27-.43-.61a5,5,0,0,1,3.95,3.32C29.12,95.3,29.22,95.49,29.08,95.44Z"/><path class="cls-77" d="M58.56,79.47a.82.82,0,0,1-.15-.52,2.77,2.77,0,0,1,1.05.65,8,8,0,0,1,.69,2.74,1.62,1.62,0,0,1-.37,1.13C59.62,82,59.61,80.59,58.56,79.47Z"/><path class="cls-78" d="M46.94,16.61c0-.14.33-.06.47,0a5.19,5.19,0,0,1,1.37.6c-.33.06-.8.06-.7.72a.42.42,0,0,1-.23.24c-.29-.09-.29-.09-.28.39,0,.32-.14.42-.28.37s-.29-.08-.43-.14l-.09-.19c.28-.37-.11-.66-.2-.85C46.32,17.05,47.13,17,46.94,16.61Z"/><path class="cls-79" d="M30.93,67.74c-.09-.19-.23-.23.1-.29a.27.27,0,0,0,.13-.42c.24-.23.43-.34.66-.58.7-.71,1.4-1.42,1.92-2,0,0,0-.14.09-.29s.23-.24.42-.33c.47,0,.61-.44.89-.81a.31.31,0,0,1,.38-.19.41.41,0,0,0,0,.32C34,64.49,32.53,66.22,30.93,67.74Z"/><path class="cls-80" d="M45.43,27.13c.42-.33.42-.33,0-.62-.14,0-.24-.23-.48-.46.33-.06.58.65,1,.17l0,.14c0,.48.43.61.62,1,.29.56.77,1,1.06,1.6.1.19.24.23,0,.33s-.14,0-.28-.09A5.3,5.3,0,0,0,45.43,27.13Z"/><path class="cls-81" d="M43.43,26c.24.25.72.23.91.61a15.19,15.19,0,0,1-1.89.49c-.19-.37-.62-.51-.58-1.12a.77.77,0,0,1,.47-.48l.19-.1A2.12,2.12,0,0,1,43.43,26Z"/><path class="cls-82" d="M62.16,41a2.43,2.43,0,0,1-.29-.1,20.87,20.87,0,0,0,1.47-4.07,4.24,4.24,0,0,0,.42-1.29l.42.13C63.59,37.53,62.89,39.2,62.16,41Z"/><path class="cls-83" d="M70.38,99.32c0,.13.09.19-.09.27a18.92,18.92,0,0,1-2.07-3.81c-.2-.37-.1-.66.23-.71,0,.48.52.8.53,1.27,0,.15.09.19,0,.48s-.09.28-.09.28c.76.09.57.66.72,1.18,0,0,.1.19.24.23S70.52,98.88,70.38,99.32Z"/><path class="cls-84" d="M66.68,84c-.7.25-1,.77-1.73,1-.06-.34.41-.82.08-1.23a2.66,2.66,0,0,0-1.29-1.37c.14-.42.14-.42.56-.29a1.32,1.32,0,0,1,.72.7A2.37,2.37,0,0,0,66.68,84Z"/><path class="cls-85" d="M63.71,25.47c-.1-.19,0-.48-.25-.71-.3-2-.84-3.73-1.19-5.57,0-.14-.09-.18,0-.47.52-.15.38.29.48.46.35,1.85.84,3.73,1.14,5.72C63.8,25.18,63.89,25.37,63.71,25.47Z"/><path class="cls-86" d="M23.05,48.84l-.1-.18c-.38.19.1.66-.27.85a34,34,0,0,1-.51-3.77c.23.23.33-.06.51-.15A18.86,18.86,0,0,1,23.05,48.84Z"/><path class="cls-87" d="M15.45,99.24c0-.35.23-.73.32-1-.18.1-.33,0-.51.14q.42-.59.84-1.14a.13.13,0,0,1,.09.18.16.16,0,0,1,.19-.1c-.14,0-.19.1-.28-.08a15.6,15.6,0,0,1,1.63-2.15c.24.23,0,.48-.09.75s-.42.34-.23.73A26.39,26.39,0,0,1,15.45,99.24Z"/><path class="cls-88" d="M21,40.16c.48,1.41,1,2.69,1.46,4.24a.82.82,0,0,1,.1.67c-.24-.23-.38.19-.47,0-.3-1.5-.74-3.06-1.18-4.63A.2.2,0,0,1,21,40.16Z"/><path class="cls-89" d="M52.57,22.05a.29.29,0,0,1-.43-.15c-.1-.66-.67-.85-.86-1.22s-.67-.38-.3-1c.05-.13-.48-.47-.57-.65a1.49,1.49,0,0,1-.34-.9c.66.38.91,1.08,1.38,1.54a21.71,21.71,0,0,0,1.21,2.13A2.78,2.78,0,0,0,52.57,22.05Z"/><path class="cls-90" d="M69.88,86.74c0-.15.37-.21-.1-.19-.14-.06-.19.09-.33,0,1.56-.44,3.11-.87,4.67-1.33a.15.15,0,0,1,.09.19,24.92,24.92,0,0,1-3.86,1.27C70.16,86.82,70,86.92,69.88,86.74Z"/><path class="cls-91" d="M39.57,26.82a3.31,3.31,0,0,0,1.6-.12c.33-.05.19.37.48.47a5.71,5.71,0,0,1-2.12.73A.85.85,0,0,1,39.57,26.82Z"/><path class="cls-36" d="M38.42,30.84l.29.09c-.41,1.76-1.68,2.77-3.09,3.73A1.74,1.74,0,0,1,36,34c.51-.62,1.26-1,1.49-1.71.42-.34.42-.81.7-1.19A.5.5,0,0,1,38.42,30.84Z"/><path class="cls-92" d="M14.64,39.85c-.38-.76-.91-1.55-1.3-2.3-.09-.2-.05-.33-.19-.38a9.69,9.69,0,0,1,1.39,2c.1.18.24.7.47,0a.15.15,0,0,1,.19-.09,1.77,1.77,0,0,1,.48.94c.05.33.29.09.29.09s.09.2.09.2.05.32-.28.37a.37.37,0,0,1-.52-.33c-.19-.37-.19.11-.33,0A1.09,1.09,0,0,1,14.64,39.85Z"/><path class="cls-93" d="M21.57,91.92c-.65.59-1.21,1.34-1.87,1.92-.33,0-.28-.1-.19-.37a2.09,2.09,0,0,1,.56-.78,11,11,0,0,1,1.55-1.37C21.71,91.49,21.67,91.64,21.57,91.92Z"/><path class="cls-94" d="M77.52,90.3a19.93,19.93,0,0,0-4.17-1.2c.09-.28.24-.23.42-.32a5.75,5.75,0,0,1,1.57.5,13.31,13.31,0,0,1,2.37.91Z"/><path class="cls-95" d="M65.11,86.92l.28.09c.1.66-.56.77-.89.83-.52.13-.94.48-1.46.63a5.62,5.62,0,0,1-2.22.54A10.38,10.38,0,0,0,65.11,86.92Z"/><path class="cls-96" d="M26.38,60.92c-.71-.23-.48-.93-.77-1.5-.1-.18-.1-.66-.39-.76-.19-.36-.2-.84-.39-1.22.05-.14.24-.24.28-.37A13.31,13.31,0,0,1,26.38,60.92Z"/><path class="cls-97" d="M39.57,26.82a1.82,1.82,0,0,0-.09,1.23l-.18.09a.92.92,0,0,0-.61.91,1.65,1.65,0,0,1-.13.89c-.24-.22-.34-.41-.48-.47a.64.64,0,0,1,.18-1c.23-.24.23-.24,0-.46.43.13.66-.11.61-.44a1.24,1.24,0,0,1-.1-.66A.9.9,0,0,1,39.57,26.82Z"/><path class="cls-98" d="M11.22,42.68a.5.5,0,0,1,.28-.38.14.14,0,0,1,.19-.1c.28.1.42.14.52.33A9.09,9.09,0,0,0,14,43.88c.38.28.53.8,1,1.13a4.45,4.45,0,0,1-1.62-1.32A4.17,4.17,0,0,1,11.22,42.68Z"/><path class="cls-99" d="M10.12,41.69c-1.42-.45-2.8-1.06-4.27-1.37-.28-.08.05-.14.05-.14a22.12,22.12,0,0,1,4.31,1.23.87.87,0,0,1,.53.33c.23.23,0,.33-.1.29S10.26,41.74,10.12,41.69Z"/><path class="cls-100" d="M61.5,46.93l-.09-.19a18.22,18.22,0,0,0,3-1.55c.24.24-.09.3-.14.43a5.59,5.59,0,0,1-2.54,1.54C61.55,47.26,61.46,47.07,61.5,46.93Z"/><path class="cls-101" d="M74.73,84.84A3.66,3.66,0,0,1,76.42,84c.75-.38,1.41-1,2.16-1.36.19-.08.24-.23.52-.14a16.9,16.9,0,0,1-3.24,2.25C75.43,84.59,75.11,85.11,74.73,84.84Z"/><path class="cls-26" d="M24.67,16.51c-.14,0-.19.09-.24-.23a.79.79,0,0,1,.75-.87c.33-.05.57.19.9.14.14,0,.1.19.19.37s0,.48-.28.38c-.14,0-.09-.18-.28-.08s0,.47-.33.52A.67.67,0,0,1,24.67,16.51Z"/><path class="cls-102" d="M26.65,64.47a3.09,3.09,0,0,0,.43.14,14.21,14.21,0,0,1,.22,3.69.55.55,0,0,0-.47,0,22.53,22.53,0,0,1-.08-3.17C26.84,64.85,26.56,64.76,26.65,64.47Z"/><path class="cls-103" d="M36.51,82.59c.15,0,.19-.1.33-.06a1.4,1.4,0,0,1-.89.34,7.53,7.53,0,0,0-2.5.93c-.33,0-.56.29-1,.15l-.14,0A12.39,12.39,0,0,1,36,82.4C36.13,82.3,36.23,82.49,36.51,82.59Z"/><path class="cls-104" d="M20.11,81.86a12.41,12.41,0,0,1,1.76-3l.29.08.09.19c-.37.67-.69,1.19-1.07,1.86-.33.06-.32.52-.51.62C20.44,81.82,20.39,82,20.11,81.86Z"/><path class="cls-105" d="M64.45,82.15c-.24.24-.57-.18-.57.29a12.13,12.13,0,0,0-1.76-1.35c-.1-.19.09-.29.19-.1s.33,0,.47,0A5.2,5.2,0,0,1,64.45,82.15Z"/><path class="cls-95" d="M60.64,89.1c-.19.09-.52.14-.71.24a9.65,9.65,0,0,1-4.59-.85A15.62,15.62,0,0,0,60.64,89.1Z"/><path class="cls-106" d="M25.36,91.88c.09.19.56.19.43.61a3.77,3.77,0,0,0-2.56-.35c-.14,0-.33,0-.61,0a.32.32,0,0,1,.37-.19A2.17,2.17,0,0,1,25.36,91.88Z"/><path class="cls-103" d="M32.51,84.28a12.38,12.38,0,0,1-2.58,1.21c-.2-.37.13-.42.18-.57a11.48,11.48,0,0,1,2.26-1.16c.24.25.19.38.14.52Z"/><path class="cls-107" d="M26.81,2.57c.38.28.76.56.76,1-.14,0-.33.05-.47,0,.43.14.1.66.34.9.14,0-.14.42-.28.38s-.29-.09-.24-.24.09-.28-.24-.23l-.14,0c.23-.23-.06-.8.18-1s.09-.28-.15-.52C26.71,2.86,26.76,2.72,26.81,2.57Z"/><path class="cls-6" d="M65.56,26.55c.1.17.38.27.29.55-.28.85-.46,1.91-.73,2.75-.09.29-.14.43-.38.2C64.92,29,65.29,27.86,65.56,26.55Z"/><path class="cls-108" d="M15.17,40.65c.19-.1-.05-.33.14-.43.28.1.19.38.47.47.43.13.14-.43.43-.34.33.43.62,1,.95,1.41,0,.14-.13.43-.42.34A11.73,11.73,0,0,1,15.17,40.65Z"/><path class="cls-109" d="M65.21,92.47c.09.17.24.22.14.5s.24.25.24.25a8.27,8.27,0,0,1-1,2.52c-.18.08-.18.08-.14-.06C65,94.74,64.84,93.59,65.21,92.47Z"/><path class="cls-110" d="M20.07,92.69c.24.24-.09.3-.28.4-.09.27-.33.51-.09.75-.28.38-.7.71-1,1.09-.33.06-.52.16-.8.06A16.89,16.89,0,0,1,20.07,92.69Z"/><path class="cls-111" d="M23.36,76.62c.8-1,1.45-2.05,2.24-3.05l.15,0c.19.38.1.67-.23.71s-.19.1-.24.25-.14.42-.18.56c-.28.38-.75.86-1,1.24C23.88,76.47,23.79,76.76,23.36,76.62Z"/><path class="cls-112" d="M66.45,20.85a40.31,40.31,0,0,1,.86-4.13,36.86,36.86,0,0,1-.48,4.41C66.69,21.09,66.59,20.89,66.45,20.85Z"/><path class="cls-25" d="M8.19,37.47c.61,0,.29.56.34.88.09-.28.18-.57.37-.67.25,1.18.25,1.18-.37,1.14-.33-.42-.76-.56-.95-.93A2.16,2.16,0,0,0,8.19,37.47Z"/><path class="cls-113" d="M16.37,22.8c.09.19.33.42.1.67s.19.37.14.5c-.28-.09-.8.06-1-.17-.09-.19-.33.05-.42-.14,0-.61.65-.57,1.07-.9-.09-.19-.09-.19.15,0C16.27,22.61,16.41,22.65,16.37,22.8Z"/><path class="cls-114" d="M27.33,71.61h0c.05.33-.13.42-.23.71a2.37,2.37,0,0,0-.56.77c-.23.23-.46.48-.89.33a2.08,2.08,0,0,1,.56-.76A2.49,2.49,0,0,0,26.9,71c.29.08.24.23.34.41C27.09,71.37,27.19,71.57,27.33,71.61Z"/><path class="cls-115" d="M44.48,79.8c-.39-.27-.67.1-.85.21-.33,0-.48,0-.57-.19.42-.33,1-.29,1.46-.63l0-.14c.15.52.48.46.9.13s.57.18.71.23A7.45,7.45,0,0,1,44.48,79.8Z"/><path class="cls-116" d="M16.08,56.35c0,.14-.19.09-.09.28a6.72,6.72,0,0,1-3.18-1.33A25.65,25.65,0,0,0,16.08,56.35Z"/><path class="cls-117" d="M50.72,51.16l-.28-.09a16.23,16.23,0,0,1,1.63-2.15c0-.14.23-.24.33-.05s.1.2-.09.28C51.65,49.74,51.38,50.59,50.72,51.16Z"/><path class="cls-31" d="M33.69,64.07c.09.19.24.23.19.37a13.45,13.45,0,0,1-2.06,2c0-.61.56-.76.84-1.13A1.87,1.87,0,0,1,33.69,64.07Z"/><path class="cls-118" d="M32.51,84.28c-.18.1-.33.06-.57-.18.29.09.48,0,.43-.34a5.82,5.82,0,0,0,2.3-.83c.38-.19.85-.19,1.23-.38l0,.14C34.72,83.28,33.64,83.7,32.51,84.28Z"/><path class="cls-119" d="M25.19,7.09c-.23.23.11.67-.17,1s.23.23.33.42c-.33,0-.56.29-.89.34a6.13,6.13,0,0,1,.73-2.75c.14.05.14.05.09.19A1.07,1.07,0,0,1,25.19,7.09Z"/><path class="cls-120" d="M27,63.47c-.28-.09-.1-.19,0-.33.51-.61.74-1.32,1.26-2,.14.05-.14.43.33.42A12.66,12.66,0,0,1,27,63.47Z"/><path class="cls-121" d="M52.12,54.12c-.14,0-.19.1-.33.05s-.1-.18.09-.28c.38-.19.61-.42,1-.63,0-.14.19-.09.23-.23.66-.11,1-.63,1.46-1.11.23-.24.32-.52.8-.53A11.15,11.15,0,0,1,52.12,54.12Z"/><path class="cls-122" d="M66.45,20.85a.21.21,0,0,1,.28.09c-.13.9-.22,1.66-.35,2.57a1.57,1.57,0,0,0-.28-.1C66.18,22.65,66.32,21.76,66.45,20.85Z"/><path class="cls-123" d="M27.81,87.17c-.28-.08-.23-.23-.14-.52.66-.1,1-.77,1.74-1a.76.76,0,0,1,.66-.09C29.37,86.26,28.47,86.6,27.81,87.17Z"/><path class="cls-124" d="M25.65,73.42c.66-.1.89-.81,1.45-1.1a23.41,23.41,0,0,1-2,2.67c-.09-.19.1-.27,0-.46-.05-.34.09-.29.42-.35S25.7,73.76,25.65,73.42Z"/><path class="cls-125" d="M20.11,81.86c.33,0,.42-.33.65-.58,0-.14,0-.46.42-.33-.51,1.1-1.16,2.14-1.67,3.23-.28-.09-.09-.19-.05-.33s.1-.28-.05-.32c.38-.19.23-.71.61-.91A1.58,1.58,0,0,1,20.11,81.86Z"/><path class="cls-126" d="M18.11,94.89a1.12,1.12,0,0,1,.8,0c-.47.48-.8,1-1.31,1.63-.33,0-.47,0-.24-.25s.66-.57.65-1C17.87,95.13,18.06,95,18.11,94.89Z"/><path class="cls-127" d="M62.66,19.47c-.24-.23-.11-.65-.44-.61a5.28,5.28,0,0,1-.34-1.37c0-.14.28.1.19-.1s0-.47-.06-.8c.05-.14.14-.43.33,0A19.89,19.89,0,0,0,62.66,19.47Z"/><path class="cls-64" d="M35.5,7.26c.09-.28-.19-.37-.33-.42-.72-.23-.77-1-1.48-1.26l0-.15A9.57,9.57,0,0,1,36.12,7.3c0,.14.05.33-.1.29C35.69,7.64,35.6,7.45,35.5,7.26Z"/><path class="cls-128" d="M62.39,16.4c-.29-.1-.19.09-.23.23.05.34,0,.63,0,1-.14-.06-.28-.1-.23-.24a13.8,13.8,0,0,1,.3-2.42A2.74,2.74,0,0,1,62.39,16.4Z"/><path class="cls-45" d="M73.82,88.63c.05.34-.23.24-.42.34s-.57-.19-.9-.13c-.1-.2-.24-.24-.34-.43s-.24-.24.14-.42A6.15,6.15,0,0,0,73.82,88.63Z"/><path class="cls-129" d="M10.12,41.69l.43.15a.16.16,0,0,0,.19-.1,1.57,1.57,0,0,1,.28.1c.38.27,1,.17,1.33.73a.15.15,0,0,0-.19.1c-.23.23-.42-.14-.61-.05l-.14,0c-.29-.1-.62,0-.86-.29S10,42,10.12,41.69Z"/><path class="cls-130" d="M47.62,29.09c.29.09.24-.24.14-.43a11.79,11.79,0,0,1,1.4,3C48.78,30.88,48.11,30,47.62,29.09Z"/><path class="cls-131" d="M6.48,36.91c.61-.44,0-.48-.29-.57-.05-.33.19-.1.24-.24.37-.19.33-.05.61,0s.39.76,1,.8c-.28.38-.47,0-.7.24l-.15,0c-.09-.18-.33.06-.71-.22Z"/><path class="cls-132" d="M22,78.86l-.14,0a13,13,0,0,1,1.49-2.2c.15,0,.29.1.2.37A7.25,7.25,0,0,1,22,78.86Z"/><path class="cls-133" d="M68.45,95.07c-.24.25-.43.34-.23.71a4.14,4.14,0,0,1-.63-1c0-.33.56-.77-.19-.85A.37.37,0,0,1,68,94,4,4,0,0,1,68.45,95.07Z"/><path class="cls-134" d="M27.33,71.61c-.33,0-.28-.08-.38-.27a.42.42,0,0,0-.14-.52,2.3,2.3,0,0,0,0-1.1.69.69,0,0,1,.23-.71c.24-.23.19-.1.29.09,0,.47.1,1.14.11,1.62A5.46,5.46,0,0,0,27.33,71.61Z"/><path class="cls-135" d="M74.11,79.92a1,1,0,0,1,0-.62.58.58,0,0,0-.1-.66c.09-.76.32-1.47.41-2.23A9.47,9.47,0,0,1,74.11,79.92Z"/><path class="cls-136" d="M75.4,95.9c-.19.09-.42-.14-.61,0s-.05-.33-.34-.43-.24-.23-.33-.42c.09-.27.52-.15.85-.19C75.21,95.05,75.21,95.53,75.4,95.9Z"/><path class="cls-137" d="M45.81,46.9c-.05.15.1.19.24.24a15,15,0,0,1-.83,2.56c-.14-.05-.18.1-.14-.05A9.4,9.4,0,0,1,45.81,46.9Z"/><path class="cls-138" d="M22,78.86c.52-.62.94-1.43,1.45-2l-.1-.2c.29.1.38-.2.71-.25l-1.82,2.72C22.11,79.05,22.11,79.05,22,78.86Z"/><path class="cls-139" d="M27.31,69.24s0-.33-.14,0,0,.62-.14.9c.06.33.11.66-.27.85a5.42,5.42,0,0,1,.07-2.17c.19-.1.29.09.43.13S27.5,69.15,27.31,69.24Z"/><path class="cls-140" d="M15.15,39.24a14.11,14.11,0,0,1-1.07-3.5c.29,1,.78,2,1.07,3C15.1,38.9,15.2,39.09,15.15,39.24Z"/><path class="cls-40" d="M46.34,38.43c-.09-.19-.05-.34-.38-.28a2.26,2.26,0,0,1,0,1.09,7.66,7.66,0,0,1-.4-2.17c.47,0,.1.65.52.79,0,0,.1.19.24.23S46.39,38.28,46.34,38.43Z"/><path class="cls-4" d="M25.56,5.47l.85.28c-.42.33,0,.94-.46,1.42-.14,0-.24-.23-.24-.23s.05-.14-.05-.33c.09-.29,0-.62-.47-.47C25.32,5.72,25.37,5.57,25.56,5.47Z"/><path class="cls-141" d="M29.08,95.44c0-.14.18-.1.23-.24.34.89.54,1.74.83,2.79l-.19.1A10.5,10.5,0,0,1,29.08,95.44Z"/><path class="cls-142" d="M64.48,95.68l.14.06a22.41,22.41,0,0,1-1.53,2.79Z"/><path class="cls-143" d="M16.7,42.24c.18-.1.23-.23.42-.34.33.44.71.71.86,1.23A1.44,1.44,0,0,1,16.7,42.24Z"/><path class="cls-144" d="M23,91.76c-.19.1-.24.25-.38.21s-.61,0-.9-.15c-.09-.18-.05-.33-.14-.5l.18-.1.29.08c.14,0,.09.19.28.09C22.38,91.87,22.8,91.53,23,91.76Z"/><path class="cls-145" d="M47.72,14.18c-.67.12-1.23.39-1.89.5-.33.06-.29-.09-.19-.38.18-.1.23-.23.51-.15a4.9,4.9,0,0,1,1.66-.25C47.9,14.09,47.9,14.09,47.72,14.18Z"/><path class="cls-146" d="M63.74,82.39c.61,0,1.47.79,1.29,1.37C64.69,83.34,64,83,63.74,82.39Z"/><path class="cls-147" d="M64.28,45.62c0-.13.23-.24.14-.43a13.78,13.78,0,0,1,1.31-1.14A11.15,11.15,0,0,1,64.28,45.62Z"/><path class="cls-148" d="M15.15,39.24c0-.15-.19-.39,0-.48L16,40.45c-.19.1-.38.19-.43-.13A4.63,4.63,0,0,1,15.15,39.24Z"/><path class="cls-149" d="M22.34,58.36a2.14,2.14,0,0,1,.09-.27,3.68,3.68,0,0,1,1.81,1.21A9.87,9.87,0,0,0,22.34,58.36Z"/><path class="cls-150" d="M74.73,84.84c.33-.06.61-.44,1.18-.25a5.44,5.44,0,0,1-1.65.73l-.1-.2C74.21,85,74.54,84.93,74.73,84.84Z"/><path class="cls-151" d="M30.18,38.88c-.19-.37-.43-.6,0-1,.24-.24.15.52.43.14,0-.14.23-.23.56-.29a.15.15,0,0,1,.1.19C31,38.35,30.46,38.51,30.18,38.88Z"/><path class="cls-131" d="M8.19,37.47c-.23.22-.37.65-.75.37-.15,0-.1-.19-.24-.23-.15-.52-.15-.52.18-.56C7.62,37.28,7.81,37.65,8.19,37.47Z"/><path class="cls-152" d="M74.87,104.37c.19-.09.38.28.52-.13l0-.15a4.62,4.62,0,0,1,.91,1.07A3.44,3.44,0,0,1,74.87,104.37Z"/><path class="cls-153" d="M25.42,5.9c.14.06.38-.18.52-.15a1.27,1.27,0,0,1,0,1.09l-.14,0a.77.77,0,0,1-.48-.47l-.09-.19C25.37,6,25.37,6,25.42,5.9Z"/><path class="cls-154" d="M21,40.16c-.05.14-.05.14-.09.28a19.84,19.84,0,0,1-.83-2.31A15.49,15.49,0,0,1,21,40.16Z"/><path class="cls-21" d="M31.12,37.92l-.1-.18a1.25,1.25,0,0,1,1.32-.67A3.59,3.59,0,0,1,31.12,37.92Z"/><path class="cls-155" d="M15.74,21.34c-.24.23-.37.67-.7.71a1.66,1.66,0,0,1,.36-1.14C15.31,21.2,15.73,20.86,15.74,21.34Z"/><path class="cls-156" d="M30.46,52.65c-.1-.18-.05-.33-.24-.24a7.19,7.19,0,0,1,.27-1.8C30.59,51.28,30.36,52,30.46,52.65Z"/><path class="cls-157" d="M40.05,57.47c.19.37.62,0,.9.13a1.36,1.36,0,0,1,.67.37,5.4,5.4,0,0,1-1.56,0C40,57.76,39.86,57.57,40.05,57.47Z"/><path class="cls-158" d="M22.07,45.07c.37-.19-.06-.33.13-.43s.24.24.34.43.09.19.05.33c-.19.09.05.34-.14.42s-.24-.23-.38-.27C22.12,45.4,22,45.22,22.07,45.07Z"/><path class="cls-94" d="M72.11,88.09c0,.13-.09.27.2.36a.35.35,0,0,1,.19.39.78.78,0,0,0-.62,0l-.14-.06c0-.33.14-.42.23-.71C71.87,87.84,72,87.89,72.11,88.09Z"/><path class="cls-159" d="M71.38,22.12,71.09,22c.33-.52.51-1.09.88-1.75l.15,0A8.13,8.13,0,0,1,71.38,22.12Z"/><path class="cls-160" d="M47.88,12.19c-.18.11-.09.3-.13.43s0,.33-.24.24-.09-.19,0-.33.33-.52-.05-.79c-.1-.19.19-.11.23-.25s.14,0,.24.23A.77.77,0,0,0,47.88,12.19Z"/><path class="cls-25" d="M7.34,37.18c-.38.19.19.39-.19.58-.28-.1-.47-.48-.71-.71C6.91,37.05,7.23,36.53,7.34,37.18Z"/><path class="cls-120" d="M28.82,59.67c.11.67-.12,1.38-.64,1.52C28.36,60.62,28.69,60.09,28.82,59.67Z"/><path class="cls-161" d="M24.07,76.37c0-.61.46-1,1-1.24A6,6,0,0,1,24.07,76.37Z"/><path class="cls-162" d="M61.5,46.93c0,.14.1.18.24.23a2.25,2.25,0,0,1-.75.39c-.28-.1-.19-.38,0-.48C61,46.93,61.22,46.84,61.5,46.93Z"/><path class="cls-163" d="M65.5,30.13c.14-.41.18-1,.32-1.47l.09.19C65.92,29.32,66.06,29.84,65.5,30.13Z"/><path class="cls-164" d="M11,33.51c-.18.08,0,.13-.09.27a9.52,9.52,0,0,1-.77-1.5A2.35,2.35,0,0,1,11,33.51Z"/><path class="cls-165" d="M69,22.15l-.29-.1a5.84,5.84,0,0,1,.7-1.19A1.44,1.44,0,0,1,69,22.15Z"/><path class="cls-118" d="M36.51,82.59c-.37.19-.51.15-.52-.33a1.22,1.22,0,0,1,.85-.19C36.79,82.2,36.32,82.22,36.51,82.59Z"/><path class="cls-166" d="M27.45,68.82,27,68.68c.05-.15-.05-.33,0-.48s.28-.38.47,0C27.25,68.44,27.35,68.63,27.45,68.82Z"/><path class="cls-51" d="M52.87,53.26c-.28.38-.8.54-1.08.91l-.28-.08A4.15,4.15,0,0,1,52.87,53.26Z"/><path class="cls-167" d="M59.57,47.57c.14-.44.57-.29.9-.35.14.06,0,.14-.1.29A1.23,1.23,0,0,1,59.57,47.57Z"/><path class="cls-168" d="M77.52,90.3l0-.15a2.27,2.27,0,0,1,1.19.7C78.33,90.72,78,90.43,77.52,90.3Z"/><path class="cls-51" d="M51.51,54.09c-.19.56-.61.42-1.13.57A2.5,2.5,0,0,1,51.51,54.09Z"/><path class="cls-3" d="M28.93,27.16c.1.19.15.52,0,.62s-.24-.23-.42-.14C28.65,27.55,28.7,27.4,28.93,27.16Z"/><path class="cls-169" d="M24.53,89.57a.81.81,0,0,1,.84-.67A2.92,2.92,0,0,1,24.53,89.57Z"/><path class="cls-170" d="M67.64,85.38c-.14,0-.28-.08-.33-.41.23-.25.42.12.52-.15a.3.3,0,1,1-.19.56Z"/><path class="cls-93" d="M22.18,91.49c-.18.1-.18.1-.28-.09.33-.05.37-.66.94-.49A4,4,0,0,0,22.18,91.49Z"/><path class="cls-171" d="M76.1,99.59c-.1-.2,0-.33-.19-.39,0-.13-.2-.36,0-.33s.28.1.38.28c0,0,0,.15.09.19C76.19,99.3,76.15,99.44,76.1,99.59Z"/><path class="cls-172" d="M19.92,82.43c-.09.29-.08.76-.6.91A1.42,1.42,0,0,1,19.92,82.43Z"/><path class="cls-28" d="M41,5.41c.05.33.33.42.05.81-.05-.34.09-.76-.43-.62Z"/><path class="cls-134" d="M27.06,72.47c0-.34.32-.53.42-.82l.18-.08A3.08,3.08,0,0,1,27.06,72.47Z"/><path class="cls-173" d="M65.25,91.84c.14,0,.28.09.19.38s-.09.29-.38.19C65.11,92.28,65.16,92.12,65.25,91.84Z"/><path class="cls-28" d="M42.09,4.83c-.13.42-.61.43-.89.34A9.34,9.34,0,0,1,42.09,4.83Z"/><path class="cls-33" d="M47.86,14.24h0a1.12,1.12,0,0,1,.8-.07A1.74,1.74,0,0,1,47.86,14.24Z"/><path class="cls-174" d="M35.26,26.05a14.67,14.67,0,0,0-1.66,4.19c-.33,0-.29-.57-.67-.38.43.61-.32,1-.46,1.42l-.27.86A22.68,22.68,0,0,0,30.81,35a.15.15,0,0,1-.19.1c-.24-.23-.48-.47-.1-.66s.36-1.13.17-1.52c-.09-.19-.48-.47,0-.61.19-.1.33-.52.37-.67-.05-.33-.33-.41-.71-.23a5.3,5.3,0,0,0-.53-1.27c-.14,0-.1-.19.09-.29a.47.47,0,0,1,.57.19c.28-.38-.1-.66-.15-1,.47,0,.8-.54,1.18-.73,0,0,.14,0,0-.15-.33-.41.09-.76.23-1.18a1.73,1.73,0,0,0-.06-1.27c0-.15.33-.06.23-.25-.52-.33,0-.33.14-.42s.56-.29.89-.35c.14.06.33-.05.42-.33-.09-.19-.28-.09-.42-.13.47-.48,1.18-.25,1.6-.6.19-.09.71.23,1-.15.14.06.43.14.19.38s-.09.28,0,.47C36.1,25.38,35.54,25.67,35.26,26.05Z"/><path class="cls-175" d="M35.26,26.05c.28-.38.41-.81.74-1.33.19-.1.28-.38.51-.62a.3.3,0,0,0-.14-.51c-.72-.71-1.62-1.31-2.34-2-.19-.38.14-.43.24-.23s.8-.06.95.46c.23-.25.61,0,.84-.21.19-.08.24-.24,0-.47s-.33-.42,0-.61c.43.13.62.52,1,.65,0-.48-.3-1,0-1.42.33,0,.43-.34.38-.67a12.37,12.37,0,0,1,.6-5.77c0-.15,0-.15.09-.29s.14-.42.43-.34.19.38.14.52c0,.61-.27,1.34-.31,1.94a.4.4,0,0,0,.29.57.52.52,0,0,1,0,.47,1,1,0,0,0-.13.9,7.43,7.43,0,0,0,1,4.73l.1.19c-.05.13-.14.42-.33.52a.71.71,0,0,0-.42.81c.15.52-.32.52-.65.57-.14-.05-.29-.09-.33.05-.14.43,0,.95-.75.86-.14,0-.28.38-.61.44-.24-.23.09-.29,0-.48s.09-.29.23-.23c.19-.11.38-.19.47-.48-.52.14-.7.71-1.13,1S35.73,26.05,35.26,26.05Z"/><path class="cls-176" d="M25.08,25c-.14-.5.33-.52.47-.94,0-.15.28-.39.37-.67A4.3,4.3,0,0,1,27.14,23c.15,0,.1.18.06.33s-.24.23-.14.42a.9.9,0,0,1,.51-.62c.38-.19.47-.48,0-.61-.14,0-.42-.14-.33-.42s.37-.2.52-.15.33-.05.47,0a.87.87,0,0,1-.62,0,2.56,2.56,0,0,0-1-.18.87.87,0,0,1-1-.32c-.24-.23-.29-.55.27-.84A7.88,7.88,0,0,1,30,19.62c.33-.05.66-.09.66.37s0,1.1-.6,1.38c.1.2.57.2.38.28-.23.24.2.86-.46,1-.33.06-.47.49-.84.68-.19.09-.05.61.34.89-.38.19-.67-.37-.95,0-.09.29.1.66-.28.87-.09-.2.33-1-.38-.29-.52-.33-.42.33-.61.43s-.61,0-.94,0-.19.58-.28.85C25.33,25.68,25.32,25.22,25.08,25Z"/><path class="cls-177" d="M30.52,19.82c-.48-.48-.9-.15-1.37-.14a7.36,7.36,0,0,0-2.69.56c-.19.08-.33.52-.76.37.05-.14-.05-.33-.09-.18a1.66,1.66,0,0,1-.9.35.69.69,0,0,1-.75-.1c-.05-.33.13-.42.37-.67.75-.38,1.6-.58,2.35-1a6.1,6.1,0,0,1,2.17-.41c.71.23,1.32-.2,2.13-.26a5.46,5.46,0,0,1,2.6.69c.1.19.24.23.48.46s.33.42.1.66-.47.48-.8.07c-.24-.23-.62,0-.86-.29A2.4,2.4,0,0,1,30.52,19.82Z"/><path class="cls-178" d="M32.41,20.26c.19-.1.29.09.52-.15a.63.63,0,0,1,.47,0c.15,0-.13.42.24.23.19-.1.33,0,.42-.33s-.05-.34-.33-.42-.29-.1-.34-.43a3.87,3.87,0,0,1,2.09.83c.29.1.57.18.62.52-.42.33,0,.33.15.52s.28.09.19.37c-.28-.08-.37.67-.75.4-.1-.2-.29-.11-.33,0-.47.48-.47,0-.52-.33-.28.38-.43.34-.67.1s-.33-.42-.33.05c-.47-.46-.76-1-1.52-1.11C32.32,20.55,32.37,20.4,32.41,20.26Z"/><path class="cls-179" d="M37,9.34c.2.36.06.79.2,1.31s.3,1,1.15.84c.19-.1.42.14.52-.15a.56.56,0,0,0-.25-.7c.33-.05.62,0,.71-.25-.24-.23-.66.1-.62-.51.33,0,.23-.71.7-.72s.43.14.34.43c.14,0,.28-.39.52-.16.05.35-.19.58-.28.87a4.94,4.94,0,0,0-.74,1.32c-.05.14-.14.43-.33.53s-.57-.18-.85-.28-.67-.84-1.38-.59c-.19.09-.28-.1-.38-.29-.38-.27-.67-.84-1.19-.69a2.54,2.54,0,0,1,1,.46c.1.19.24.23.15.52s-.33.06-.47,0l-.72-.23c-.28-.08-.38-.27-.75-.08s-.37.66-.51,1.1a.15.15,0,0,0,.09.19c.48,0,.34.41.53.79.25.71-.17,1.52.45,2,.14,0,.05.32-.14.42s-.33.52-.61.43-.14,0-.1-.18a.93.93,0,0,0-1-.66A3.77,3.77,0,0,1,31.6,15c-.14-.05-.18.1-.37.19-.24-.23-.34-.42-.24-.71.28-.38-.11-.65-.06-1.27.38.29.48.94.95.93l.28.11c0-.48.38-.67.42-.82,0-.62.24-.24.38-.2a7,7,0,0,0,.86.75,3.71,3.71,0,0,0-1-1.27.81.81,0,0,1-.15-.51c-.23-.24-.43-.62,0-.81.19-.1.09-.27,0-.33,0-.14.19-.1.33,0s.28.08.33-.06a.33.33,0,0,0-.19-.38c-.15,0-.33,0-.43-.13-.52-.33-.28-.1-.24-.24,0-.94.89-.81,1.31-1.15.1.19-.28.38,0,.62s.33-.05.48,0,.14,0,.23.24c.15,0,.1.19.29.09s.09-.29-.05-.33c-.1-.19,0-.32.09-.29s.28.09.33,0c.28-.38.47-.48.85-.2.14.05.48.47.76.09A.27.27,0,0,1,37,9.34Z"/><path class="cls-180" d="M31.27,4.8c.1.19.24.23.29.56,0,.15.19.38.43.14s.61,0,.56.18a2.5,2.5,0,0,0,1.34.75c.14,0,.28.09.23.23-.09.3,0,.47.06.81-.57.29-1,.15-1-.66-.19-.37-.75-.08-1-.46,0,0-.33.05-.23.24s.15.52.24.71c0-.33,0-.48.42-.33.15,0,.2.37.48.46s1,.18,1.33.74a.82.82,0,0,1,.15.52c-.24.24-.52.15-.71-.22s-.34-.42-.62-.05a.43.43,0,0,1-.61,0c.09-.28.42.15.37-.19,0-.14-.28-.09-.23-.24a2.79,2.79,0,0,0-1-.46c-.29-.09-.33.06-.38.19-.14,0-.1-.19-.24-.23-.05.14.1.19.24.23.1.19.28.1.43.14.47,0,.47,0,.47.48,0,.32-.23.71-.18,1l-.71-.24c.05-.13.57-.28.28-.38s-.43-.61-.76-.56l-.19.1c-.09.29.24.23.34.42-.19.1-.47,0-.57.29a.62.62,0,0,1-.71-.69c-.1-.67-.35-1.38.65-1.53a.76.76,0,0,0-.67.1c-.37.19-.8.05-.8-.42l0-.14c-.61,0-.43-.61-.67-.85a.13.13,0,0,1-.09-.18C28.39,5,28.86,5,29,5s.43.14.53.33c.14.52.24.7.85.74l1-.15c-.43-.13-.34-.42-.77-.56s-.14-.52.28-.85A.54.54,0,0,0,31.27,4.8Z"/><path class="cls-181" d="M30.89,4.52c-.05.14-.24.24-.28.38s-.14.43.33.42c.19-.09.1.19.24.24s-.32.52.24.23l0,.14a1.65,1.65,0,0,1-2,0l-.28-.1a.14.14,0,0,1-.1-.18c.05-.15.43.13.24-.24a.29.29,0,0,0-.43-.14c-.19.1-.33,0-.66.1.24.24.62.52.53.8s.09.19.28.09.33,0,.38.28c0,.14-.52.15-.14.44s.48,0,.62,0c.09-.27.33,0,.52-.15s.28.09.47,0c.1.19-.23.24-.23.24a1.86,1.86,0,0,0-.61.43c-.43.33.14.52.05.81s-.23.71.43.6a.56.56,0,0,0,.24.24c.67.85.67.85.3,1.51a8,8,0,0,1-1.3-1.83c-.19-.37-.28-.56-.71-.23,0,.15-.18.09-.33.05s.05-.13.09-.29A.84.84,0,0,0,28.36,7a.15.15,0,0,1-.1-.19c.14-.9-.58-1.6-.63-2.41.23.23.38.28.51-.15.15,0,.29.09.34,0,.18-.58.7-.25,1.17-.25h1.42l.1.18c-.19.09-.43-.14-.66.1S30.79,4.33,30.89,4.52Z"/><path class="cls-182" d="M25.9,6.84c.14,0,.1.19.24.24s.38.28.47,0c.28-.38.52-.15.76.09a.81.81,0,0,1,.15.52c-.05.14-.14.42.33.42l.14.05,0,.15c-.33,0-.42.32-.23.71s-.42.33-.52.61c.76.1,1.28.41,1.15,1.31-.09.29-.09.29-.28.39-.09-.19.28-.39,0-.48l-.15,0L28,11c-.19.1-.19.1-.28-.1a6.41,6.41,0,0,0-.58-1.13c-.24-.23-.34-.42-.67-.37a3.53,3.53,0,0,1-.25-1.65c-.1-.19,0-.48-.15-.52S25.38,7,25.9,6.84Z"/><path class="cls-183" d="M26.38,12.18a4.28,4.28,0,0,0,.43,1.1c-.42-.15-.57-.67-.67-.86S26.24,12.14,26.38,12.18Z"/><path class="cls-184" d="M34.38,8.8l-.29-.58.19-.09.28.09c.24.23.34.42.58.65.09.2.24.24,0,.48-.19.09-.28-.09-.42-.13C34.62,9,34.67,8.88,34.38,8.8Z"/><path class="cls-185" d="M31.09,15.12c0-.15,0-.95.51-.15a.92.92,0,0,0,.9.13c.71-.24,1,.18,1.43.47.28.08-.1.27,0,.46.33,0,.18-.56.66-.56a.15.15,0,0,0-.1-.19c-.24-.23-.15-.52-.43-.62s-.19-.38-.05-.32c.42-.35,0-.49.09-.77,0-.47,0-1-.67-.83.23-.25-.1-.67.18-1.06.51-.61,1-.61,1.6-.11.14,0,.29.09.43.15.19-.11.19.37.28.08s-.05-.33-.14-.52a1.49,1.49,0,0,0-.67-.37c-.33.06-.38-.28-.1-.65a.82.82,0,0,0,.62.5c.28.09.43.61.86.75a.63.63,0,0,1,.24.23c.7-.71.76.56,1.42.46.14.06.57.19.66.37s0,.33-.09.29c-.8.05-1.38-.6-2.13-.69s-1-.18-1.42.49c-.09.28-.56.29-.37.68.09-.29.14-.44.43-.35s.38.29.33.42c-.18.58.25,1.18.21,1.81l-.05.13c.9.62.44,1.56.83,2.31.05.33-.14.43-.23.71a.32.32,0,0,1-.38.2c-.14,0-.1-.19-.19-.38,0-.47-.43-.6-.48-.93a.69.69,0,0,0-.81-.42c-.33,0-.38-.29-.67-.37-.57-.67-.71-.71-1.46-.33a3.41,3.41,0,0,1-2,.31c-.33.06-.52.15-.85.2-.14,0-.28-.08-.23-.24.51-.13.28-.38.18-.57s-.1-.19-.05-.33.28.09.28.09c.48,0,.71.24,1,.66s.66-.11,1-.16c.14,0,.33-.05.23-.24C31.51,15.26,31.23,15.16,31.09,15.12Z"/><path class="cls-4" d="M25.9,6.84c-.38.2.05.33,0,.48a.7.7,0,0,1-.72-.23,1.37,1.37,0,0,1,.09-.76C25.52,6.56,25.66,6.61,25.9,6.84Z"/><path class="cls-26" d="M29.42,13.49a1.06,1.06,0,0,1,.52.31c.14,0,.1.19-.05.15s-.42-.13-.52-.33Z"/><path class="cls-186" d="M65,31.57l.09-.29c.43.6.11,1.13-.22,1.65A4.09,4.09,0,0,0,65,31.57Z"/><path class="cls-187" d="M24.28,20.16c0,.14-.37.19-.32.52-.05.14-.24.24-.28.39a8.56,8.56,0,0,0-1.89,0,5.13,5.13,0,0,0-2.65.4c-.37.19-.85.2-1.22.39a.15.15,0,0,0-.19.11,9.74,9.74,0,0,1-1.65.71l-.19.1-.57-.18A13,13,0,0,0,17,21.42c0-.14.19-.1.23-.24-.1-.65.42-.34.75-.38.48,0,.86.27,1.28-.06-.38-.29-.1-.67-.11-1.14.33-.05.67.37.71-.25.14,0,.33-.51.62,0l.14.05c.14-.43.52-.14.7-.25s.62,0,.61-.43a.34.34,0,0,1,.48,0,1.15,1.15,0,0,0,1,.17c.61.06.81.42.76,1Z"/><path class="cls-41" d="M24.28,20.16c-.1-.19-.28-.09-.19-.38s.09-.75-.53-.79l-.1-.19c.05-.15.19-.1.24-.25.14-.42.51-.62.51-1.08-.1-.19.09-.3.28-.38s.24.23.19.36c.38-.19.51-.61.75-.86.19-.08.14-.42.32-.52s.28-.38.29.09c.29.58.34,1.37.82,1.85a.5.5,0,0,1-.13.89c-.66.11-1.23.4-1.8.21a.51.51,0,0,0-.24-.24c.62.52,1.38.14,1.95.31A5,5,0,0,1,24.28,20.16Z"/><path class="cls-188" d="M25.52,16.78a.9.9,0,0,1-.6.91c-.19.11-.23.24-.52.15s.19-.1.09-.29a.15.15,0,0,0-.09-.19c-.15,0-.33.05-.24.24.34.43-.23.72-.18,1,0,.15-.19.09-.33.05s.09-.29,0-.48.09-.28,0-.33-.19.1-.24.24-.23.24-.33.05-.57-.17-.71-.69c0-.15-.38.18-.48,0a2.5,2.5,0,0,1-.1-.67c.29.09.66-.56.72.23-.05.14.51-.15.33.42.23-.23.09-.75.61-.42.28.08.23-.25.33-.52.23.23-.05.6.19.84.19-.09.14-.43.38-.2s.47,0,.56-.29S25.24,16.69,25.52,16.78Z"/><path class="cls-189" d="M18.46,19.22c-.28.39.1.67.34.9-.24.24-.62,0-.75.39,0,0-.19.09-.15,0-.47-.48-.8-.42-1,.29-.1.29-.47.48-.28.85.1.19-.19.11-.33.05s-.24-.23-.48-.47c.28-.37.18-1,1-1.1,0,0,0-.47.42-.33.28.09.61,0,.9.13a.13.13,0,0,0,.18-.09l-.14,0C18.08,19.42,17.89,19.05,18.46,19.22Z"/><path class="cls-72" d="M19.89,16.24a1,1,0,0,1,1.28-.07c.19.38.19.38-.18.57,0,0,0,.14-.09.29-.15,0-.2-.39-.39-.29s-.13.43-.18.58C19.81,17,20,16.57,19.89,16.24Z"/><path class="cls-190" d="M18.46,19.22c-.47,0-.42.35-.47.48-.38-.28.18-.57,0-.94.19-.1.34.42.57.18Z"/><path class="cls-72" d="M19,17.18c.19-.09.23-.24.37-.19a.54.54,0,0,1,0,.48A.58.58,0,0,1,19,17.18Z"/><path class="cls-191" d="M43,11.26a1.66,1.66,0,0,0-.09.29c-.24.23-.48,0-.62,0s-.24-.25-.52-.34c.47,0,.47.47.67.84.14.06,0,.34.33.43l.1.19c.15.51-.23.71-.75.86a.64.64,0,0,1,.71.23c-.05-.34-.14-.52.23-.71.19-.1.57-.29.66-.11a1.18,1.18,0,0,1,.11,1.15c.33-.06.42-.35.51-.64S44.63,13,45,13c.14,0,.29.08.24.23-.18.58.2.85.39,1.22a3,3,0,0,1-1.17.72c-.38.2-.52.64-1,.64s-.85.19-1.13.1-.62,0-.34-.43c0-.13-.05-.33,0-.46l-.43-.62c-.24-.23-.29-.55-.53-.8-.33.05-.38-.27-.25-.71-.7.25-.84.21-.8-.41-.05-.33-.24-.23-.2-.38-.23-.23.14-.43.19-.56.09-.29.47-.48.42-.81-.39-.29-.34-.42-.11-.67l.15,0c.28.09.42.14.52.32.19.38.38.28.66-.1.05-.14.09-.27.38-.19a.32.32,0,0,1,.19.38c-.09.29.38.27.66.37S42.91,11.07,43,11.26Z"/><path class="cls-192" d="M45.54,14.59c-.56-.19-.61-.52-.62-1,0-.13.23-.24-.05-.32s-.28-.1-.38.19a.93.93,0,0,1-.6.9c-.52-.32.18-1-.2-1.32-.15,0-.19.56-.52.14-.1-.18-.19.11-.19.11s0,.46,0,.6,0,.15-.19.11-.14-.06-.1-.19c.14-.44,0-.33-.38-.29-.09.29-.14,0-.28-.09.47,0,1-.14,1-.77.24-.24.24-.24.28-.85s.37-.67.61-.44.57.19.94,0c-.05-.32-.28-.09-.28-.09s-.38.21-.48,0a1,1,0,0,1,0-.63c.37-.18.23-.7.84-1.14a1,1,0,0,0,.48,1.41c.14.05,0,.34,0,.34a.76.76,0,0,0,.1.65c.61-.9.43.14.76.1-.19.09-.33,0-.52.14.24.23.53.32.76.57-.33,0-.85-.29-.42.33.14,0,.05.32.15.52.28.08-.09.28,0,.48A4.84,4.84,0,0,1,45.54,14.59Z"/><path class="cls-192" d="M43,11.26h0c-.38.19-.38-.29-.67-.38a.79.79,0,0,1-.43-.6c.05-.15.05-.15-.1-.19l-.09.28c-.14.43-.47.47-.7.72,0-.62-.43-.62-.67-.85a3.16,3.16,0,0,1,1.59-2,6.37,6.37,0,0,0,1.43.93c-.1.28-.43-.14-.52.15.14,0,.42.13.38.27.24.25.05.33,0,.48C43,10.45,43.14,10.82,43,11.26Z"/><path class="cls-193" d="M42,8.09a5.3,5.3,0,0,0-1.58,2c-.19.09-.43.33-.33.52s-.14.43-.18.57a.92.92,0,0,1-.33.53c0,.14-.23.23-.23.23,0,.15-.24.24-.33.06s-.1-.19,0-.34a17.2,17.2,0,0,1,1.16-2.14A1.84,1.84,0,0,1,41,8.39a12.67,12.67,0,0,1,1.31-1.15c.19-.1.19-.1.33,0s.19-.1.28.09A8.73,8.73,0,0,0,42,8.09Z"/><path class="cls-192" d="M42.78,12.44c-.66.11-.47-.47-.71-.7s.18-.57-.38-.27c-.33,0-.2-.38-.15-.53.38.28.71.7,1.19.69C43,11.87,42.87,12.15,42.78,12.44Z"/><path class="cls-193" d="M43.11,7c.14-.43.61-.43,1-.63-.18.1-.23.24-.42.34S43.25,7.09,43.11,7Z"/><path class="cls-194" d="M43.23,10.07c.05-.15,0-.33,0-.48a.75.75,0,0,0,.52-.14C43.65,9.74,43.56,10,43.23,10.07Z"/><path class="cls-195" d="M30.61,29.28a.76.76,0,0,1,.1,1.12c-.28-.08-.14-.51-.66-.37a1.69,1.69,0,0,1,.34,1.37c0,.47-.33.05-.56.29,0,.15.43.15.33.42s-.28-.08-.28-.08a4.76,4.76,0,0,0-1.13.57c-.23.24.29.09.43.14-.19.1-.24.25-.47.48-.05.14-.23.25-.28.38-.23.24-.47,0-.62,0,.28-.39.52-.63.37-1.15a.93.93,0,0,1,.28-.85c.23-.25.46-.48.08-.75-.09-.2.24-.25,0-.48.19-.1.14,0,.28.08s.43.15.52-.14.33,0,.52-.15c-.33-.41,0-.95-.16-1.47.24.24.29.58.67.39.1.17-.05.13-.09.27A.17.17,0,0,1,30.61,29.28Z"/><path class="cls-196" d="M30.61,29.28a.59.59,0,0,1-.47,0c0-.15.18-.1.23-.23,0-.48.33-.54.61-.45.05-.13-.28-.09-.19-.36s.19-.11.33-.06.47,0,.28-.38a2.21,2.21,0,0,1,.13-1.38l0-.14c.14,0,.1.19.2.37.18-.08.09-.28.13-.41.1.18.33-.06.48,0-.1.29-.47.48-.09.77-.24.23-.19.56-.37.66s-.47.47-.14.9c-.18.09.15.52-.23.25-.14-.06-.19.08-.23.23A.54.54,0,0,1,30.61,29.28Z"/><path class="cls-195" d="M27.89,31.85c.28-.38-.53-.8.28-.84C28.08,31.28,28.46,31.57,27.89,31.85Z"/><path class="cls-197" d="M23.58,20.87c.05-.13.19-.09.38-.19.66.37,1-.3,1.51-.3a.71.71,0,0,1,.51-.14c0,.13-.23.23-.28.37-.13.44-.13.44.29.57.15,0,.29.1.1.19s-.05.14.1.2a2.07,2.07,0,0,1,1.65.21c.29.09.38-.19.47,0,.15,0,.29.08.24.23s0,.14-.18.09c-.34,0-.62,0-.95,0,0,.33.24.23.38.28s.52.33.48.47-.37.67-.52.63c-.61,0-.56.29-.51.61-.71-.23,0-.47-.05-.8-.43.33-.95,0-1.23.39-.1-.18,0-.33-.28-.09s-.53-.32-.86-.28c-.24-.23-.24-.71-.71-.7-.15-.05-.05-.32-.15-.52a1.84,1.84,0,0,0,.09-.28c.05-.15,0-.48.28-.39C24,21,23.82,21.11,23.58,20.87Z"/><path class="cls-198" d="M19.91,23c-.19.1-.23.25-.09.29l.57.19c-.23.23-.85.19-.37.66a.44.44,0,0,1-.33.05c-.33.06-.71-.23-.8.54a6.77,6.77,0,0,0-.53-1.28l-.29-.1c-.19.1,0,.15.05.34s-.42.33,0,.47a.16.16,0,0,1-.19.11c-.14-.06-.28-.11-.24-.25-.1-.66-.53-.79-.91-1.08.05-.13.19-.09.38-.19l.71.23c.14,0,.19-.1.09-.29.57-.29,1-.76,1.7-.38C19.91,22.53,20.38,22.53,19.91,23Z"/><path class="cls-199" d="M18,21.74a17.67,17.67,0,0,1,3.11-.89,1,1,0,0,1,.62,0c.1.2-.09.29-.14.43s-.47,0-.52.15c-.33.06-.66.1-1,.15s-.47,0-.42.35c-.05.13-.05.13-.19.08s-.19.1-.33.05C18.86,21.87,18.06,22.4,18,21.74Z"/><path class="cls-200" d="M18,21.74c.15,0,.2.37.38.29.33-.06.52-.16.71.23a.28.28,0,0,0,.43.12c.19-.08.05-.14-.05-.33s-.1-.19.09-.27c.57.17.94-.5,1.47-.17.14.05.09.19.24.23-.34.06-.62,0-.61.44a.32.32,0,0,1-.38.19.49.49,0,0,0-.47,0c-.67-.39-1.18.23-1.66.25l-.28-.1c.09-.29-.15-.52.13-.9Z"/><path class="cls-201" d="M21.51,21.47c-.1-.19.23-.25.13-.42a6.67,6.67,0,0,1,1.89,0c.19-.11.48,0,.76.07-.33,0-.38.2-.47.49-.14-.06-.28-.1-.33,0a.15.15,0,0,0-.19.11c-.28-.1.19-.58-.19-.39-.19.1-.23.24-.56.29C22.12,21.51,21.79,21.55,21.51,21.47Z"/><path class="cls-202" d="M17.77,21.84c.39.27.29.56,0,.94a.57.57,0,0,1-.66.1c-.14,0-.18.11-.33.05s-.19-.36-.42-.13a.15.15,0,0,0-.1-.19c-.05-.33.38-.2.42-.33A3.78,3.78,0,0,1,17.77,21.84Z"/><path class="cls-201" d="M23.92,21.78c.14,0,.14,0,.24.23a.13.13,0,0,0,.09.18c.48.47.62.51.67.86-.28-.11-.47,0-.75-.1l0-.13c.09-.29-.14-.06-.28-.1l-.14,0c-.19.11-.24-.24-.43-.14s-.14,0-.1-.19C23.55,22.43,23.54,22,23.92,21.78Z"/><path class="cls-199" d="M19.58,22.57c0-.47.37-.19.52-.15s.42.15.52-.14c.14,0,.18-.1.28.09-.09.28-.47,0-.42.33.28.1.47,0,.75.1s.15,0,.1.19a.16.16,0,0,1-.19.1c-.38-.29-.8,0-1.13.09a.15.15,0,0,1-.1-.19C20,22.72,20.05,22.57,19.58,22.57Z"/><path class="cls-203" d="M23.36,22.53c.19-.09.14.06.28.09s.33-.05.38.28a2,2,0,0,1-1.41,0l-.1-.18c-.05-.34.23-.25.38-.19S23.12,22.78,23.36,22.53Z"/><path class="cls-34" d="M24,23.85c-.42-.13-.8.06-1.37-.13C23.18,23.57,23.7,23.43,24,23.85Z"/><path class="cls-34" d="M23.36,22.53c-.09.29-.23.25-.38.21s-.28-.11-.33,0c-.19-.85.42-.34.61-.44C23.22,22.49,23.22,22.49,23.36,22.53Z"/><path class="cls-198" d="M19.89,25c.09-.29-.15-.52-.44-.61.24-.24.48,0,.57.18S20.07,24.93,19.89,25Z"/><path class="cls-204" d="M73,93.7l.1.19,1.44,2.83a.53.53,0,0,1,0,.46c-.14.43-.28.39-.76.39s-.42-.14-.47-.47c0-.13-.34-.42-.43-.61a.83.83,0,0,0-.06-.8,1.13,1.13,0,0,1,.06.8.15.15,0,0,1-.19.1A2.88,2.88,0,0,1,72,95.41c-.33.53-.47.48-.85.2.09-.27,0-.33-.15-.52s-.19-.37,0-.47c.9.14,0-.47.32-.52s.1.18.38.28.43.13.33-.06c-.1-.66.43-.33.8-.52C72.87,93.51,73,93.57,73,93.7Z"/><path class="cls-205" d="M68.36,86.55c0,1,.67.85,1.29.89.43.15.94,0,1,.65a2.54,2.54,0,0,1-1,.15c-.28-.09-.57-.17-.85-.27s-1,.15-1.23-.56c-.2-.36.46-.47.32-1C68,86.76,68.13,86.8,68.36,86.55Z"/><path class="cls-206" d="M68.53,89.44c.43-.34.62,0,.71.23a1.51,1.51,0,0,1,.44,1.09c0,.48.43.6.44,1.08-.19.09-.33,0-.62,0,0,.14-.09.29-.23.23-.47,0-.38-.27-.29-.56-.1-.19.28.1.09-.29s-.29-1-.63-1.46C68.4,89.87,68.35,89.55,68.53,89.44Z"/><path class="cls-207" d="M68.53,89.44c.2.38.06.8.67.84l.1.19c-.33.54.2.85.25,1.18-.14,0-.24-.23-.38-.28a3.93,3.93,0,0,1-1.11-1.93,2.58,2.58,0,0,0-.86-1.22c-.19-.37.14-.42.32-.52a1.2,1.2,0,0,1,.63,1C68,89.11,68.48,89.11,68.53,89.44Z"/><path class="cls-208" d="M69.52,88.34c.28-.37.66-.1,1-.15l1,.32.14,0c0,.15-.09.29-.09.29-.09.28-.13.44-.47.48s-.38-.27-.33-.42a.31.31,0,0,0-.34-.43C70.18,88.72,69.75,88.57,69.52,88.34Z"/><path class="cls-209" d="M69.27,92c0-.14,0-.14.23-.23.19.37,0,.94.67.84l.14,0c-.27.86.44,1.09.73,1.65-.24.23-.33,0-.47,0s-.15,0-.24-.24a12.4,12.4,0,0,1-.82-1.82C69.22,92.18,69.22,92.18,69.27,92Z"/><path class="cls-210" d="M69.85,89.24a6.15,6.15,0,0,1,2.07,2.86A29.8,29.8,0,0,0,69.85,89.24Z"/><path class="cls-206" d="M68.15,88.69c-.19-.37-.43-.6-.63-1l0-.13c.33.42.85.27,1.23.54C68.43,88.3,68.57,88.82,68.15,88.69Z"/><path class="cls-210" d="M73,93.7l-.28-.09c-.24-.24-.15-.52-.39-.76.19-.09.33,0,.38.28,0,.15.1.19.24.24A.51.51,0,0,1,73,93.7Z"/><path class="cls-210" d="M73.25,92.84c.14,0,.37-.19.47,0s-.14.44-.33.52-.24-.23-.33-.42l.28.09C73.53,92.94,73.39,92.89,73.25,92.84Z"/><path class="cls-211" d="M39,26.63a.63.63,0,0,1,.24.71c-.24-.24-.43-.62-.67-.85-.23.25.29.56,0,.61s-.05-.32-.34-.42c-.28.39-.13.43.1.66s.1.19-.09.29-.37.19-.46.48c-.24.24-.28.38-.52.15-.28.37-.81.06-1.23.38a.2.2,0,0,1,.09-.28.55.55,0,0,0,0-.47c-.1-.19-.09.28-.33.05a6.42,6.42,0,0,1,1.68-2.29l.71.23C38.38,26.11,38.76,26.39,39,26.63Z"/><path class="cls-212" d="M38.42,30.84c-.18.57-.6.92-.64,1.52,0,.34-.29-.08-.33.06s-.05.15-.24.23a.45.45,0,0,1-.56.29.46.46,0,0,1-.29-.56c0-.33.47-.48.13-.89l0-.15c.52-.15.42-.33.13-.9.19-.1.57.18.8-.06.05-.14.15.05.1.19C38.09,30.89,38.09,30.89,38.42,30.84Z"/><path class="cls-213" d="M36.69,32.34c.29.55.29.55.9.13-.13.89-.94,1-1.31,1.62-.09.28-.47.48-.7.71-.71-.23-.67-.37-.15-1,0,.32-.28.37-.23.71.37-.68,1-1.11.92-1.91C36.45,32.57,36.5,32.42,36.69,32.34Z"/><path class="cls-214" d="M37,28.82c.1.19.2.38.29.09,0-.13.23-.23.33-.05s.19.38,0,.48a.29.29,0,0,1-.37.19c-.15,0-.05-.33-.24-.23s-.24.25.05.33c.14,0-.24.24-.19.09-.19-.37-.43-.13-.76-.08-.09-.19-.38-.28-.14-.52,0-.13.23-.24.51-.15A2.07,2.07,0,0,0,37,28.82Z"/><path class="cls-215" d="M34,32.88a5.55,5.55,0,0,1,.54-2.66l.19-.1c0,.16.05.35,0,.48a11.78,11.78,0,0,0-.54,2.18C34.14,32.92,34.14,32.92,34,32.88Z"/><path class="cls-160" d="M37.22,28.26c.33-.06.52-.15.61-.44s.09-.27.52-.15c-.19.57-.71.72-1.13,1.07C36.94,28.63,37.17,28.4,37.22,28.26Z"/><path class="cls-215" d="M34.73,30.13a1.44,1.44,0,0,1,.41-1.29A1.44,1.44,0,0,1,34.73,30.13Z"/><path class="cls-214" d="M36,29.59c.14.05.1.19.24.25-.33,0-.62-.06-.8,0C35.67,29.64,35.81,29.69,36,29.59Z"/><path class="cls-216" d="M42.44,25.69c-.19.11-.38.19-.47.48l-.14-.05c-.37.68-.81.06-1.28.06l-.28-.09c-.47,0-.47,0-.34-.42-.28-.08-.28.38-.52.15-.14,0-.47,0-.38-.27s.38-.21-.05-.33a.34.34,0,0,1-.19-.38c.05-.15.33-.06.47,0a.71.71,0,0,1,.48.46c.1.19.28.08.33-.06l0-.14a1.83,1.83,0,0,0,.45-1.9l0-.13a.15.15,0,0,1-.19.09l-.14-.05c-.81.06-.81.06-.58-.66l0-.13c.42-.33.27-.85.55-1.23s.43-.35.85-.21.25.71.3,1c.09.18-.24.23-.57.3h0c.29.08.57-.3.8-.07.15.05.1.19.06.34,0,.33,0,.61.19.85,0,.13.1.19-.09.27-.32.53.24.71.48,1s.34.42.25.69l-.15,0c-.09-.19-.19-.38-.38-.28s-.09.28-.13.42C42.39,25.36,42.34,25.51,42.44,25.69Z"/><path class="cls-217" d="M40,22.22c.38.27-.14.42-.19.56.33,0,.76.09.9-.34,0-.14.14,0,.14,0a2.31,2.31,0,0,1-.45,2.37c-.14,0-.1-.19-.24-.23.1.19.1.19.24.23-.28.38-.33.52-.61,0a.93.93,0,0,0-.81-.42c0,.48.38.28.62.52l-.57.3a3.18,3.18,0,0,1-1-1.42c.1-.29.66-.1.52-.62-.1-.19.09-.29-.29-.57.47,0,.66-.56,1.17-.72C39.62,22.28,39.8,22.17,40,22.22Z"/><path class="cls-50" d="M36.9,24.85c0,.14-.19.1-.23.24-.19.1-.24.25-.43.33.33-.52.66-1,1.17-1.18l0,.13A1.13,1.13,0,0,1,36.9,24.85Z"/><path class="cls-218" d="M34.21,30.28c-.23.23-.23.71-.32,1a1.76,1.76,0,0,1,.17-1.52C34.16,29.94,34.07,30.24,34.21,30.28Z"/><path class="cls-219" d="M38.05,26.16c-.29-.09-.71.25-.71-.23C37.71,25.28,37.81,25.93,38.05,26.16Z"/><path class="cls-220" d="M48,23.41c.24.23.24.23-.09.28a.55.55,0,0,0-.47,0c-.15-.05-.1-.19,0-.33-.19.1-.28.39-.43.33a.27.27,0,0,1-.42-.13c-.1-.19.13-.43-.29-.56a1.4,1.4,0,0,0-1.09,0l-.19.1c-.19.09-.18.56-.61.42-.14,0,0-.46-.24-.69,0,0,0-.16-.24-.25.1.19.34.42.15.52-.09.29,0,.8-.47.48l-.14,0c-.66.09-.66.09-.76-.57a.14.14,0,0,1-.1-.18h0c-.47,0-.29-.1-.19-.38a2.74,2.74,0,0,1,.84-.66c.19-.11.47,0,.56-.3a.58.58,0,0,1,.48,0c.42.14.7-.24,1.13-.09.14,0,.09-.29.14-.44s.09-.29.42-.33c.14,0,.1.19.24.23s.05.33.24.23.33,0,.28-.38c0-.14.09-.29.09-.29.33,0,.23-.23.18-.56s0-.48.24-.23.47,0,.66-.12.37-.19.47,0,.1.19,0,.33.19.38,0,.62c-.52.15.1.19,0,.34a.5.5,0,0,1,0,.46c.06.33.39.29.62.51.19-.09.1-.28.24-.24.33-.05.61-.42.8-.05s-.32.52-.42.82c.24.22.71.22.39.75-.19.1.19.37-.28.37.05-.14,0-.33,0-.47s-.09-.19-.23-.24,0,.15-.1.29-.18.57-.46.48-.53-.33-.53-.8c-.24.24,0,.47,0,.62s-.15,0-.19.1-.1-.2-.14,0C48,23.09,47.94,23.22,48,23.41Z"/><path class="cls-221" d="M48.58,20.28c.09-.29-.15-.52,0-.94-.19.09-.62,0-.47.48a.16.16,0,0,1-.19.09c-.09-.19-.19-.38-.38-.28a.15.15,0,0,0,.1.19l.14,0c-.05.15,0,.33,0,.48-.75-.08-.13.9-.74.85s-.53-.32-.53-.79a1.14,1.14,0,0,0-.28.38,1.35,1.35,0,0,0-.09.75c-.57-.18-.89.35-1.46.16-.05-.33.18-.57.42-.81,0-.14.28-.37.18-.56l-.14,0a.15.15,0,0,1-.1-.19c.52.32-.06-1.29.75-.4.33-.05.52-.14.57-.29s.33,0,.09-.28c-.19-.38.14-.43.42-.34a1.68,1.68,0,0,0,.29.09c.42.14.42-.32.61-.43a.13.13,0,0,1,.18-.09c.34.43.76.08,1.14-.11a.22.22,0,0,1-.09.29c-.24.23-.28.38-.09.75s-.28.38-.23.71.52-.14.43.14-.19.57-.38.67C48.63,20.61,48.53,20.42,48.58,20.28Z"/><path class="cls-222" d="M49.34,21.32c.1.19-.13.42-.23.71-.19-.38-.38-.75-.9-.61l-.14-.05a.32.32,0,0,1,.37-.19c.19-.09.34-.05.62,0C49.25,21.12,49.25,21.12,49.34,21.32Z"/><path class="cls-221" d="M49.06,21.22a1.1,1.1,0,0,0-.62,0,.5.5,0,0,0,0-.46c.05-.15.19-.11.28.08C49.05,20.76,49.2,20.8,49.06,21.22Z"/><path class="cls-223" d="M47.8,18.3s-.19.1,0,.14c0,.48-.28.38-.52.15.19-.1.37-.19.42-.33S47.71,18.11,47.8,18.3Z"/><path class="cls-224" d="M30.76,35.14a8.4,8.4,0,0,1,1.44-3c.23-.24.42-.34.8,0,.29.56-.13.9-.27,1.32s-.28.39.24.24l.14,0c.1.19,0,.15-.09.3-.24.23-.09.75-.56.75-.14-.05-.47,0-.34-.42s-.14,0-.24-.23-.18.09-.18.09c.14.52-.38.67-.37,1.14L31,36.47a.14.14,0,0,1-.19.08A1.65,1.65,0,0,1,30.76,35.14Z"/><path class="cls-225" d="M32.34,37.07c-.62,0-.9.33-1.32.67l-.7.71c-.28-.09,0-.46-.15-.52a1,1,0,0,1,0-.61s.05-.14.15,0c.19.86.71.23.9.15.37-.21.75-.4.89-.83,0-.13.37-.19.51-.15S32.15,36.68,32.34,37.07Z"/><path class="cls-195" d="M30,32.55c-.05.13,0,.32,0,.46-.14,0-.19.1-.33.06s-.28-.1-.1-.19c0,0,.19-.1,0-.14s-.19.1-.28-.1c.14,0,.23-.24.37-.19C30,32.22,29.88,32.49,30,32.55Z"/><path class="cls-151" d="M30.4,37.22h0a.66.66,0,0,1,.09-.75l.19-.1Z"/><path class="cls-226" d="M17,44.37c-.23.24-.13.43.15.52s.52.33-.09.28c-.43-.14-.81-.41-1.24-.55l-.14,0a9,9,0,0,1-2.2-2.44c-.48-.94-1.19-1.64-1.82-2.62.05-.15,0-.34.09-.29.49.94,1.44,1.4,2,2.2,0,.63.25.71.72.7C15.33,43.07,16.24,43.66,17,44.37Z"/><path class="cls-227" d="M13.58,42.18a27.43,27.43,0,0,1,2.19,2.44,9.64,9.64,0,0,1-2.28-1.68C13.54,42.8,13,42.47,13.58,42.18Z"/><path class="cls-228" d="M11.85,39.26l-.1.29c-.67-.85-1.19-1.65-1.86-2.48-.1-.2.09-.29.23-.25A22.18,22.18,0,0,1,11.94,39,.19.19,0,0,0,11.85,39.26Z"/><path class="cls-229" d="M10.08,37c-.15,0-.19.1-.24.23-.14,0-.24-.23-.38-.28-.05-.33-.43-.6-.62-1,.33,0,.38.29.52.33C9.6,36.49,9.88,36.59,10.08,37Z"/><path class="cls-230" d="M69.27,92a14.66,14.66,0,0,0,.87,2.17,2.37,2.37,0,0,1,.44,1.1l0,.13a.28.28,0,0,1-.43-.13c-.38-.75-1-1.13-1.43-1.89-.67-.36-.58-1.13-1.06-1.59l-.1-.19c.14-.43-.28-.56-.38-.76a.81.81,0,0,1-.29-1c.13-.43.13-.9.27-1.33,0-.14.09-.29.33,0a9.75,9.75,0,0,1,1.15,2.25,2.25,2.25,0,0,1,.39.75C69.26,91.57,68.94,92.09,69.27,92Z"/><path class="cls-205" d="M66.75,86.19a3.66,3.66,0,0,1,1.1.51l.14.06c-.19.08-.24.23-.47.48-.19.08-.14.41-.47.46.09-.28-.48-.46-.2-.85.05-.13.05-.13-.09-.18C66.05,86.44,66.42,86.24,66.75,86.19Z"/><path class="cls-231" d="M66.88,89.69c.14,0,.24.24.05.34,0,0,0,.14-.09.29.62,0,.39.75.81.88s.2.39-.14.43c-.18.09-.28-.1-.23-.24,0-.47-.34-.42-.67-.36C66.75,90.59,66.6,90.07,66.88,89.69Z"/><path class="cls-232" d="M32.86,32.05c-.29-.1-.48,0-.81,0a2.25,2.25,0,0,1,.42-.81,1.42,1.42,0,0,0,.29.1c.09.19-.19.09-.19.09a.14.14,0,0,0,.09.19c.15.06.24-.24.38-.19A.47.47,0,0,1,32.86,32.05Z"/><path class="cls-225" d="M33.46,35.53a.68.68,0,0,1-.37.67C32.89,35.82,33.37,35.82,33.46,35.53Z"/><path class="cls-233" d="M70.42,94.3c.19-.1.29.09.43.13s-.23.24.05.33.52.33.15.52a2.29,2.29,0,0,0,.76,1,.81.81,0,0,1,.58.65c0,.33.1.66.57.66l.29.09c.1.66.76,1,.91,1.56,0,.13-.14.42-.42.33s-.19.09-.24.23c-.14,0-.28-.08-.24-.23a1.12,1.12,0,0,0-1-.79l-.14,0a9,9,0,0,1-.72-1.66c-.62-.51-.68-1.32-.88-2.17C70.67,95,70.29,94.72,70.42,94.3Z"/><path class="cls-234" d="M72.31,99.15a1.78,1.78,0,0,0,.49.94,4,4,0,0,1,.43,1.08c-.28.38-.51.63-1.08.44l0-.14a1.16,1.16,0,0,0,.46-.48c0-.14-.42-.14-.57-.17-.42-.15.1-.29,0-.33-.28.37-.42-.15-.57-.19-.23-.23,0-.33-.52-.33-.14,0,0-.33-.38-.28l.05-.14c.33-.06.33-.06.09-.29s-.24.25-.38.19c0-.33-.29-.56-.34-.88.33-.06.38-.21.57-.29,0-.16-.38-.29,0-.34.14,0,.28.09.19.38s.43.13.33.42a.15.15,0,0,0,.19-.1c0-.13.09-.29.24-.24,0,.15.38.28.14.52,0,0,0,.15-.09.28C71.88,98.55,72,99.2,72.31,99.15Z"/><path class="cls-235" d="M73.6,100c-.1-.19.09-.27.23-.23s.33-.06.43-.33c.28-.38.46-.48.8-.07a.29.29,0,0,0,.43.15c.33-.06.42.13.19.37-.33.52-.14.9,0,1.42,0,.33,0,.33-.23.23-.33.06-.2-.37-.48-.46l0-.14c-.76.38-.48-.46-.72-.71C73.88,100.12,73.79,99.94,73.6,100Z"/><path class="cls-171" d="M75.27,101.67c0-.14.33,0,.09-.28s-.38-.28,0-.48a.76.76,0,0,1,.22-1.17.21.21,0,0,0-.28-.1c-.33,0-.43-.13-.34-.42-.09-.19,0-.48-.1-.67s-.38-.27,0-.46c.42.13.42.13.33.42l.1.18c0,.47.47-.47.42.15,0,.13-.37.19-.18.56a2,2,0,0,1,.24.7c0,.34.58.66.39,1.24-.28-.1-.19-.39-.43-.62a5.76,5.76,0,0,0,.15,1c0,.13.05.33,0,.47s-.14.42-.33,0S75.22,101.82,75.27,101.67Z"/><path class="cls-236" d="M75.33,103.42c-.29-.56.09-.76.51-1.08,0-.15.09-.29.24-.25,0,.48.19.85.2,1.32.28.1,0-.32.23-.24.34.42-.08.76-.13,1.38-.33-.43-.28-.56.09-.75-.43-.15-.85-.29-1-.81C75.47,103,75.66,103.37,75.33,103.42Z"/><path class="cls-234" d="M74.72,103.38a2.76,2.76,0,0,1-1.1-1.45.31.31,0,0,0-.57-.19c0-.14.14-.42.18-.57.33,0,.38.28.48.47a11.39,11.39,0,0,0,1,1.74C74.86,103.43,74.82,103.57,74.72,103.38Z"/><path class="cls-235" d="M76.08,102.09c0,.15-.19.1-.24.25-.09-.2-.33,0-.47,0-.1-.2.09-.29.28-.39.14.06.14.06.18-.57C76.07,101.62,76,101.9,76.08,102.09Z"/><path class="cls-236" d="M75.33,103.42c.1.19.2.38.34.42a1.69,1.69,0,0,1-.77-1C75,102.86,75.05,103.34,75.33,103.42Z"/><path class="cls-237" d="M74.72,103.38h0a7,7,0,0,1,.86.75l0,.15A1.53,1.53,0,0,1,74.72,103.38Z"/><path class="cls-92" d="M14.56,41.09c.47,0,.62.5.86.75,0,.6,0,.6.67,1.31l.1.19a9.79,9.79,0,0,1-2.67-2.44c.42.15.71.7,1.19.7C14.8,41.32,14.51,41.22,14.56,41.09Z"/><path class="cls-92" d="M13.16,38.59c.66-.1.2.38.29.56A.39.39,0,0,1,13.16,38.59Z"/><path class="cls-92" d="M14.08,40.14l.18-.09c.24.23.15.52.2.84C14.18,40.8,14.13,40.47,14.08,40.14Z"/><path class="cls-92" d="M13.55,39.34c.28.09.33.42.43.61C13.7,39.86,13.46,39.62,13.55,39.34Z"/><path class="cls-238" d="M36.31,17.43c-.1-.19-.15-.52-.25-.71a.15.15,0,0,1-.09-.19c.56-.75-.2-.85-.49-1.41,0,0-.28-.09-.24-.24.52-.62-.39-1.22,0-1.89-.15-.05-.06-.33-.34-.42-.47,0,.1.19-.09.28s-.33.05-.38.2c-.14,0-.14,0-.09-.19s-.11-.66.37-.67l0-.14c.23-.71.71-.71,1.32-.68a3.71,3.71,0,0,1,1.71.55c.14.05.47,0,.71.23a1.19,1.19,0,0,1-.09.76,15.37,15.37,0,0,0-1,5.18,2.35,2.35,0,0,1-.17,1.5,4.92,4.92,0,0,0,.25,1.67A5.39,5.39,0,0,1,36,20.32,10.1,10.1,0,0,0,33.3,19c-1.14-.36-2.37-.92-3.65-.38-.13.42-.46.48-.89.34-.14-.05-.1-.19.09-.29s.09-.28-.19-.38a.34.34,0,0,1,.19.38c-.37.2-.8.06-1.13.12s-.38-.29-.15-.52a1.21,1.21,0,0,0-.3-1.52c-.14,0-.09-.19-.05-.33s0-.48.33-.05a4.87,4.87,0,0,0,2.09.35l.85.28c.14,0,.52-.15.57.18.29.57.52.34.9.13.56-.29,1.09,0,1.51.19s.43.12.62,0c.23-.25.94,0,1,.31.34.9,1,.94,1.86,1.07C36.55,18.13,36.5,17.8,36.31,17.43Z"/><path class="cls-239" d="M29.49,16.65a.54.54,0,0,1-.8.05l-.28-.09c-.57.29-.81.06-1.14-.37.14.06.19-.09.33,0a.86.86,0,0,1,1.27-.06c.15.05.1.19.24.24S29.59,16.36,29.49,16.65Z"/><path class="cls-240" d="M27.08,16.34l.1.19c-.1.29-.24.25-.38.19s-.48-.46-.57-.65-.1-.19-.05-.33C26.69,15.59,26.84,16.11,27.08,16.34Z"/><path class="cls-241" d="M70.58,95.3a1.48,1.48,0,0,1,.33.88,6.55,6.55,0,0,1,.54,1.27c-.19.1-.14.43-.33.54.09-.3.14-.44-.33-.44-.19.1-.34-.42-.43-.61s-.67-.37-.86-.74a19.36,19.36,0,0,1-1-2.21c.14-.44.38-.19.48,0s.33.41.38.75a.92.92,0,0,0,1,.64C70.29,95.19,70.43,95.24,70.58,95.3Z"/><path class="cls-231" d="M70.15,95.15c-.14-.05-.42.34-.38.19,0-.47-.85-.27-.67-.83.05-.16.05-.16-.09-.19s-.29-.1-.2-.39.1-.28-.38-.28c-.24-.71-.67-1.31-.92-2l0-.14a.83.83,0,0,1,.57.65c-.09.29.05.33.2.39a.92.92,0,0,1,.62,1l.1.18A7.3,7.3,0,0,1,70.15,95.15Z"/><path class="cls-242" d="M43.1,6.09c-.1-.66.51-1.09-.16-1.46.38-.2.66-.1,1-.3s.71.23,1,.47-.09.28-.18.57c-.24-.24-.71.24-.57-.19,0-.33-.15-.52-.29-.56s-.24.24-.24.24c.1.19.15.52.29.56l.29.09C43.9,6,43.42,5.57,43.1,6.09Z"/><path class="cls-243" d="M42.25,6.76a.21.21,0,0,1,.1-.28c.18-.1.47.48.66-.1,0-.14.14,0,.14,0,.1.19.1.19-.09.3s-.33,0-.52.14S42.35,7,42.25,6.76Z"/><path class="cls-8" d="M42.25,6.76a1.1,1.1,0,0,0,.62,0c.1.18-.23.23-.14.42s-.19.1-.23.24c-.43-.14-.53-.32-.25-.71Z"/><path class="cls-244" d="M14.48,42.32h0c-.43.33-.62,0-.86-.27s-.19-.39,0-.48A5.1,5.1,0,0,0,14.48,42.32Z"/><path class="cls-243" d="M42.11,6.72c.1.19,0,.47.29.56a10.4,10.4,0,0,0-2.29,2.25c-.29-.09-.38.19-.71.25-.1-.19.51-.62-.15-.52-.14-.52.61-.44.56-.77.43.14.1-.27.28-.38.43.15.81,0,.85-.67.14,0,.14,0,.24.24a.28.28,0,0,0,.42.14.55.55,0,0,0,.28-.39C41.69,7.05,41.74,6.91,42.11,6.72Z"/><path class="cls-245" d="M43.17,22.94c.14,0,.61,0,.19.38,0,.15-.23.23-.09.28l.28.09c.19-.57.52-.14.66-.1s-.19-.37.14-.43,0-.13-.05-.32-.38.19-.24-.24.24-.24.57-.28a2.13,2.13,0,0,0,0,.94c0-.48.46-.48.7-.71,0-.16.28.08.47,0,.1.19.43.14.57.19s.61,0,.29.56a.5.5,0,0,1,0,.33.15.15,0,0,0,.19-.1c.19-.09.28-.38.47-.46.38.27-.14.42-.05.6a2.46,2.46,0,0,1-.09.29c0,.15.14,0,.14,0l.57.18c-.66.11-1.27.07-1.64.72.47.47.43.62-.32,1l-.19.1c-.71-.23-1.15-.84-1.81-1.21A5.67,5.67,0,0,0,42.66,24a.76.76,0,0,1-.48-.46c0-.15-.1-.19,0-.33.23-.25.23-.71.85-.67-.1.28-.1.28.05.32s.23-.24.33-.05-.29-.08-.19.1c-.05.15-.24.24-.42.34C42.89,23.32,43.12,23.09,43.17,22.94Z"/><path class="cls-245" d="M48,23.41c-.19.1-.33.06-.28-.09a.53.53,0,0,1,.28-.39l.09.19S48.09,23.26,48,23.41Z"/><path class="cls-246" d="M45.78,14.82c.57.19.15.52.1.67-.33,0-.37.18-.32.52s.43.13.57.18c-.57.3-.18,1-.6,1.38-.05.15-.1.28-.24.25s-.14.42-.23.71a1.2,1.2,0,0,1-.84,1.13l-.14,0a1.38,1.38,0,0,1,.18-1.52c.18-.09.09-.28.13-.43a1.65,1.65,0,0,1,.37-1.14c.42-.33.37-.66,0-.94C45,15.22,45.31,14.82,45.78,14.82Z"/><path class="cls-246" d="M43,22.57c-.48,0-.38.67-.85.67a1.1,1.1,0,0,1-.05-.81c.47,0,.28-.38.51-.61s.14-.44.33-.54c.66-.1.7-.71.69-1.19s.33-.52.71-.24c.19.39.57.66-.23.72.38.27.61,0,.8-.06.1.19-.23.25-.13.42.19.39-.14.43-.38.67-.28-.09-.28.39-.46.49A1.64,1.64,0,0,0,43,22.57Z"/><path class="cls-247" d="M45.78,14.82c-.37.19-.65.57-1,.77a8.44,8.44,0,0,1-1.35,1.76c-.33,0-.43-.13-.34-.42.52-.61.65-1.52,1.54-1.86-.14,0-.18.09-.33,0,.28-.38.9-.34,1.18-.72l.14,0C45.69,14.63,45.64,14.78,45.78,14.82Z"/><path class="cls-223" d="M46.81,18.45c-.19.1-.23.24-.38.2a2.14,2.14,0,0,0,.34.42c-.33.05-.51.62-1,.29a1.43,1.43,0,0,0,.42-1.27s0-.15.09-.29c.47,0,.14-.43.32-.52C47.37,17.69,47.09,18.07,46.81,18.45Z"/><path class="cls-248" d="M44.15,21.37c.09-.28.42-.34.51-.61a.55.55,0,0,0,.51-.63c.43.13,0,.47,0,.47a2.85,2.85,0,0,1-.61.91c-.14,0-.09-.19-.28-.1C44.2,21.7,44.24,21.55,44.15,21.37Z"/><path class="cls-78" d="M46.94,16.6l-.19.1c-.29-.09-.1-.19,0-.33s-.1-.65.23-.71c.14,0,.14,0,.09.19C46.79,16.09,47,16.32,46.94,16.6Z"/><path class="cls-171" d="M74.52,97.18c-.24-.23-.15-.51-.29-.56-.38-.28-.25-.71-.44-1.07-.14-.52-.62-1-.72-1.66a15.09,15.09,0,0,1,1.1,1.93l.39.75c0,.33.29.56.34.9.09.18.19.37-.14.42C74.33,97.76,74.61,97.37,74.52,97.18Z"/><path class="cls-249" d="M74.39,94.16c-.09.28-.18.58-.47.47s-.33-.41-.43-.6a.15.15,0,0,1,.19-.1s.19-.09.14,0C73.87,94.3,74.11,94.07,74.39,94.16Z"/><path class="cls-216" d="M43.43,26a1.68,1.68,0,0,1-.8-.42C42.72,25.32,43.14,25.45,43.43,26Z"/><path class="cls-181" d="M28,4.22c-.33,0-.24-.24-.24-.24a.9.9,0,0,1,0-.61C27.9,3.56,28.28,3.84,28,4.22Z"/><path class="cls-180" d="M34.42,8.17l-.14,0a.92.92,0,0,1,0-.62l.14.06c-.24-.25-.05-.34.19-.58.09.18.38.28.43.61s.57.18.62.51c-.05-.33-.34-.42-.2-.85.1.19.34.42.47,0A3.81,3.81,0,0,0,37,8.85a.23.23,0,0,1-.14.43l-.28-.09a2.15,2.15,0,0,1-1.43-.93C34.94,8,34.71,8.26,34.42,8.17Z"/><path class="cls-250" d="M34.32,7.51a.87.87,0,0,1,0,.62l-.14,0c-.34-.43-.81-.43-1.19-.71a.15.15,0,0,1-.1-.19c0-.14-.14-.51.19-.57l.14,0c-.13.9.43.61.9.61C34.09,7.76,34.28,7.65,34.32,7.51Z"/><path class="cls-251" d="M15.92,44.66c.51-.15.85.28,1.23.56.1.18.52.33.29.56s-.24-.23-.52-.31l-.29-.11C16.44,45,15.92,45.13,15.92,44.66Z"/><path class="cls-252" d="M11.5,42.3c-.1-.19,0-.15.19-.1l.42.14c0,.15.1.19-.09.28S11.74,42.53,11.5,42.3Z"/><path class="cls-253" d="M74.52,97.18c.28.1,0,.48.24.71l.1.2c-.24.23.24.23.14.51s0,.47.25.72c-.24.23-.14.42.14.5-.09.29-.32.53-.47,0s-.38-.29-.61,0a3.44,3.44,0,0,1-.92-1.56l-.14,0c-.66.11-.62-.51-.81-.89-.1-.19-.1-.66-.48-.46l0,.13c-.15-.5-.72-.69-.73-1.17.39.29.57.19.71-.23,0-.16.09-.29.24-.25s.28.09.09.19c-.51.62.25.71.48.94s0,.47.38.29l.43.12c.1.19-.19.11-.23.24a.55.55,0,0,0,.47,0c.1.2-.14.43-.18.57C73.81,97.43,74.19,97.72,74.52,97.18Z"/><path class="cls-254" d="M16.24,97.28,16.8,97a2.11,2.11,0,0,1-.56.77C16.15,97.57,16.33,97.47,16.24,97.28Z"/><path class="cls-239" d="M26.27,15.92c.29.11.29.57.58.67.14,0,.14,0,.33-.06.76.56.81.89.39,1.71,0,.13-.09.27.05.33s.19-.1.33-.06a2.05,2.05,0,0,1,.9.13c0,.14,0,.14-.09.29-.71.24-1.42,0-2.17.41a3.14,3.14,0,0,1-1.56,0c-.29-.1-.71-.23-.29-.56.38.27.76.56,1.18.23.19-.11.38-.21.48,0,.42.14.52-.15.7-.23.1-.3-.24-.25-.33-.44s-.15-.5-.24-.69c-.24-.25-.11-.67-.53-.81s-.05-.33.14-.43S26.08,16,26.27,15.92Z"/><path class="cls-255" d="M38.71,16.32c0-.15.09-.29-.05-.33a3,3,0,0,1,.17-2,8.57,8.57,0,0,0,1.8.75.55.55,0,0,1,.39.75.85.85,0,0,0,.57,1.12c.43.15.29.57.53.8,0,.48-.42.81-.7,1.19a12.68,12.68,0,0,0-1.43,3,.63.63,0,0,1-.47.49c-.19.08-.24-.25-.38-.29a12.7,12.7,0,0,1-.76-5A1.1,1.1,0,0,0,38.71,16.32Z"/><path class="cls-256" d="M39,13.9c-.38.67-.13,1.38-.32,1.94-.28-.08-.24-.23-.29-.56.09-.75.32-1.46.41-2.23,0-.15,0-.15,0-.33A6.49,6.49,0,0,0,38,15a19.24,19.24,0,0,0-.3,2.88,4.34,4.34,0,0,1,0,1.56c-.14.42-.38.19-.57.29a14.42,14.42,0,0,1,1.16-7c.05-.13.1-.28.14-.42s0-.15.09-.29a.58.58,0,0,1,.28-.38c.15,0,0,.47.29.09,0-.13.19-.1.23-.23a.53.53,0,0,1,0,.46A2.25,2.25,0,0,0,39.15,13C39.3,13.53,39.2,13.8,39,13.9Z"/><path class="cls-257" d="M38.71,16.32a25,25,0,0,0,.36,3.73,4.22,4.22,0,0,1,.45,1.55.57.57,0,0,0,.47.47l0,.15c-.19.1-.38.19-.48,0a5.76,5.76,0,0,1-.92-2.5,10.5,10.5,0,0,1-.08-3.17C38.52,16.41,38.42,16.22,38.71,16.32Z"/><path class="cls-14" d="M36.9,24.85c.09-.28.47-.48.56-.76C37.46,24.57,37.23,24.8,36.9,24.85Z"/><path class="cls-64" d="M34.42,8.17c.33-.52.71-.24,1.09.05.19.37.38.75.86.75a.51.51,0,0,1,.24.22c-.19.11.09.19,0,.34s-.33,0-.29-.1c-.19-.38-.75-.09-.76-.56-.33.05.15.52-.42.35.23-.25,0-.35-.19-.38S34.61,8.55,34.42,8.17Z"/><path class="cls-185" d="M34.21,15.18c-.38.19-.48-.46-.81-.42a2.14,2.14,0,0,1,.09-.27c0-.15.14,0,.29.08S34.11,15,34.21,15.18Z"/><path class="cls-258" d="M33,7.38h0c-.38.21-.34-.41-.67-.37-.23.24.1.2.2.38-.29-.09-.62,0-.43-.61,0-.15-.53-.32-.11-.66a.33.33,0,0,1,.38-.2c.28.09.48.47.9.14.05-.15.05.33.05.33C32.66,6.82,33,7.24,33,7.38Z"/><path class="cls-4" d="M31.21,7.92c-.48,0-.2-.37-.34-.41C31.2,7.45,31.11,7.74,31.21,7.92Z"/><path class="cls-259" d="M36.31,17.43c.38.29.53.81.86,1.22a2.7,2.7,0,0,1-1.47-.31c-.28-.1-.38-.29-.62-.52-.09-.19,0-.81-.52-.33-.19.1-.05-.33-.19-.37-.14.43-.43.33-.85.2-.57-.19-1.19-.7-1.75.06-.23.24-.52.15-.47,0,0-.61-.53-.32-.81-.42,0-.33-.15-.52-.2-.85l.05-.13c.33.41.94,0,1.37.11s.89-.34,1.23-.38c.37-.19.47,0,.61,0,.24.23.29.56.57.65s.29.56.62,0c0-.13.57.18.66.37a3.55,3.55,0,0,0,.67.85c.24.23-.28.38,0,.61C36.08,18.14,36.17,17.85,36.31,17.43Z"/><path class="cls-26" d="M30,16a.7.7,0,0,1,.2.85c-.34.05-.43-.14-.72-.23a.54.54,0,0,1-.38-.28A1.45,1.45,0,0,0,30,16Z"/><path class="cls-260" d="M40,22.22c-.29-.1-.57-.19-.48-.46.1.18.43.6.47,0a13.11,13.11,0,0,1,2.32-4.27c.33-.54.51-1.1,1.08-1.38.33-.06.61-.45,1-.64.19-.1.33,0,.52-.15-.51.62-.88,1.29-1.35,1.77-.19.09-.28.38,0,.48.1.19.1.19,0,.32A23.44,23.44,0,0,0,42,22.24c-.28.38-.76-.09-1,.63,0-.48,0-.48.37-.67a.27.27,0,0,0,.14-.42c-.09-.19-.19.09-.33,0s.33-.52.09-.75c-.14,0-.38-.27-.43-.14s-.32.52-.37.66S40.47,22.07,40,22.22Z"/><path class="cls-261" d="M43.38,15.93c-.42.35-.6.91-1.07,1.39-.14,0-.47,0-.34-.43.05-.13-.09-.17-.23-.23a1,1,0,0,1-.68-1.32c0-.14-.43-.6-.62-.5-.37.19-.71-.24-1.18-.24s0-.47-.34-.42c-.05-.33.14-.42.23-.71s0-.94.56-1.23c.33-.06.52-.15.33.42s-.09.28.38.28c.15.05.33-.06.48,0-.1.29-.28.87.48.94.28.1-.14.43.1.66s.23-.23.23-.23a.14.14,0,0,1,.1.19c-.28.37.24.7.29,1s.29.56-.32.52C42.39,16.09,43,15.8,43.38,15.93Z"/><path class="cls-262" d="M39.75,12.09c-.42.34-.13.9-.55,1.25-.29-.58.18-1.06.36-1.62,0-.15.24-.23.33-.53,0-.14.13-.43.32-.52s.19-.1.33-.05A7,7,0,0,0,39.75,12.09Z"/><path class="cls-192" d="M40.21,10.67c-.09.28-.13.42-.47.47.28-.38.14-.9.66-1C40.35,10.24,39.83,10.39,40.21,10.67Z"/><path class="cls-201" d="M25,22a2.46,2.46,0,0,0-.09.29.56.56,0,0,1-.38-.29l0-.13Z"/><path class="cls-10" d="M17.12,22.88a1.15,1.15,0,0,1,.66-.1l.15.06c.09.17.47,0,.38.27s-.52.15-.66.11S17.17,23.22,17.12,22.88Z"/><path class="cls-34" d="M24,22.9c-.09-.18-.28-.08-.38-.28a1.75,1.75,0,0,1,.81-.05C24.35,22.85,24.07,22.76,24,22.9Z"/><path class="cls-253" d="M72.9,96.35a2.2,2.2,0,0,1-.1-1.13C73,95.59,73.51,95.92,72.9,96.35Z"/><path class="cls-241" d="M70.42,94.3c0,.32.29.56.16,1a4,4,0,0,1-.44-1.1A.21.21,0,0,1,70.42,94.3Z"/><path class="cls-263" d="M41.88,22.05a5.53,5.53,0,0,1,.69-2.61,12.23,12.23,0,0,1,1-2,12.77,12.77,0,0,1,1.35-1.77c.15,0,.33,0,.43.15s.15.52-.09.75a1.14,1.14,0,0,0-.36,1.14.46.46,0,0,1-.19.57c-.56.29-.37.66-.22,1.18-.05.15-.05.15,0,.34-.19.09-.29-.1-.47,0,.09.19-.18,1.52-.51,1.58-.8,0-.7.71-.89,1.27,0,.15-.09.29-.23.24s-.1-.19-.24-.23Z"/><path class="cls-216" d="M40.45,25.05c-.33.05-.38-.27-.76-.56C40.11,24.63,40.44,24.59,40.45,25.05Z"/><path class="cls-15" d="M48.77,20.66l-.28-.09a.87.87,0,0,1-.53-.33c.19-.1.33,0,.62,0C48.67,20.47,48.82,20.51,48.77,20.66Z"/><path class="cls-221" d="M44.15,21.37l.09.18c0,.48-.37.21-.56.29.19-.08.09-.27.13-.42C44.05,21.18,44.19,21.22,44.15,21.37Z"/><path class="cls-235" d="M75.15,99.12c-.24-.24-.71-.23-.24-.71C75.33,98.55,75.05,98.93,75.15,99.12Z"/><path class="cls-239" d="M28.85,18.64c0-.13-.09-.19,0,0-.05-.32-.43-.13-.33-.42,0-.13.18-.1.33,0S29.23,18.45,28.85,18.64Z"/><path class="cls-264" d="M43.17,22.94l-.05.15a.47.47,0,0,1-.56.28c-.14-.05-.2-.38.09-.28A.48.48,0,0,0,43,23,.14.14,0,0,0,43.17,22.94Z"/><path class="cls-180" d="M33,7.38c-.62-.51-.24-.7.23-.71C32.94,6.91,33,7.24,33,7.38Z"/></g></svg>