<svg id="Layer_1" data-name="Layer 1" xmlns="http://www.w3.org/2000/svg" xmlns:xlink="http://www.w3.org/1999/xlink" viewBox="0 0 61.98 37.75"><defs><style>.cls-1{fill:none;}.cls-2{clip-path:url(#clip-path);}.cls-3{fill:#dee0e1;}.cls-4{fill:#81a1d1;}.cls-5{fill:#96afd5;}.cls-6{fill:#3c6551;}.cls-7{fill:#85a4c9;}.cls-8{fill:#9bb2d1;}.cls-9{fill:#648cb0;}.cls-10{fill:#7298be;}.cls-11{fill:#6187b6;}.cls-12{fill:#8ca8c8;}.cls-13{fill:#254851;}.cls-14{fill:#92adc5;}.cls-15{fill:#9bb3ce;}.cls-16{fill:#d5d7cd;}.cls-17{fill:#708e96;}.cls-18{fill:#a7bdcd;}.cls-19{fill:#919f8c;}.cls-20{fill:#e7e5d7;}.cls-21{fill:#b7c2be;}.cls-22{fill:#c5cee1;}.cls-23{fill:#87a6cb;}.cls-24{fill:#2b4930;}.cls-25{fill:#658ac3;}.cls-26{fill:#bfc6b6;}.cls-27{fill:#7194c3;}.cls-28{fill:#a1b3da;}.cls-29{fill:#97b1ca;}.cls-30{fill:#5d787c;}.cls-31{fill:#a6bace;}.cls-32{fill:#b0baa6;}.cls-33{fill:#bdcad4;}.cls-34{fill:#1e3c4b;}.cls-35{fill:#617561;}.cls-36{fill:#3253a4;}.cls-37{fill:#92a38c;}.cls-38{fill:#80a0c5;}.cls-39{fill:#173241;}.cls-40{fill:#b6c0ae;}.cls-41{fill:#8fa089;}.cls-42{fill:#5f745d;}.cls-43{fill:#60856f;}.cls-44{fill:#446ab5;}.cls-45{fill:#bac8cf;}.cls-46{fill:#536554;}.cls-47{fill:#537c47;}.cls-48{fill:#305333;}.cls-49{fill:#274038;}.cls-50{fill:#7fa1be;}.cls-51{fill:#85957f;}.cls-52{fill:#83a1cf;}.cls-53{fill:#75866f;}.cls-54{fill:#4e6751;}.cls-55{fill:#b8c4b3;}.cls-56{fill:#515f4f;}.cls-57{fill:#9fb09a;}.cls-58{fill:#a5b9d0;}.cls-59{fill:#8e9e86;}.cls-60{fill:#b5beae;}.cls-61{fill:#547fbd;}.cls-62{fill:#7c9dbb;}.cls-63{fill:#96a08f;}.cls-64{fill:#3e635b;}.cls-65{fill:#6e91be;}.cls-66{fill:#72896e;}.cls-67{fill:#65917a;}.cls-68{fill:#909f88;}.cls-69{fill:#a5b19e;}.cls-70{fill:#c1cece;}.cls-71{fill:#7194bd;}.cls-72{fill:#81a170;}.cls-73{fill:#687a62;}.cls-74{fill:#456daf;}.cls-75{fill:#bac4b6;}.cls-76{fill:#4d7345;}.cls-77{fill:#8da28a;}.cls-78{fill:#abb5a3;}.cls-79{fill:#97a490;}.cls-80{fill:#4169b8;}.cls-81{fill:#618354;}.cls-82{fill:#bdc5b4;}.cls-83{fill:#84a592;}.cls-84{fill:#4166a8;}.cls-85{fill:#b3bba6;}.cls-86{fill:#abb9b1;}.cls-87{fill:#abb7a5;}.cls-88{fill:#bac8d8;}.cls-89{fill:#b7c0ad;}.cls-90{fill:#647a64;}.cls-91{fill:#476156;}.cls-92{fill:#7e8879;}.cls-93{fill:#5e675b;}.cls-94{fill:#8cb39f;}.cls-95{fill:#bbcec0;}.cls-96{fill:#769a68;}.cls-97{fill:#a9baad;}.cls-98{fill:#99aca3;}.cls-99{fill:#bbc5b5;}.cls-100{fill:#536151;}.cls-101{fill:#778373;}.cls-102{fill:#738071;}.cls-103{fill:#aab59e;}.cls-104{fill:#96aa8d;}.cls-105{fill:#4d684b;}.cls-106{fill:#122e4a;}.cls-107{fill:#cfd4c6;}.cls-108{fill:#557250;}.cls-109{fill:#7f9479;}.cls-110{fill:#7898b7;}.cls-111{fill:#4d77c0;}.cls-112{fill:#d0d6cb;}.cls-113{fill:#becace;}.cls-114{fill:#cbd1c1;}.cls-115{fill:#929f8a;}.cls-116{fill:#61725a;}.cls-117{fill:#afc9b9;}.cls-118{fill:#5b80b5;}.cls-119{fill:#748072;}.cls-120{fill:#688165;}.cls-121{fill:#6b9d80;}.cls-122{fill:#aebca5;}.cls-123{fill:#699279;}.cls-124{fill:#778572;}.cls-125{fill:#627d60;}.cls-126{fill:#b5bda9;}.cls-127{fill:#bbc9d3;}.cls-128{fill:#396a61;}.cls-129{fill:#b6c5d0;}.cls-130{fill:#72a795;}.cls-131{fill:#53897a;}.cls-132{fill:#b3c2db;}.cls-133{fill:#658cc4;}.cls-134{fill:#4770b3;}.cls-135{fill:#5a83be;}.cls-136{fill:#4a6ec1;}.cls-137{fill:#3b56a8;}.cls-138{fill:#d1d8e1;}.cls-139{fill:#7f9f88;}.cls-140{fill:#96afcf;}.cls-141{fill:#9eb4c9;}.cls-142{fill:#6489c4;}.cls-143{fill:#4877aa;}.cls-144{fill:#d9dce4;}.cls-145{fill:#bfcbdc;}.cls-146{fill:#476a83;}.cls-147{fill:#60859b;}.cls-148{fill:#84a5c5;}.cls-149{fill:#a0b7c9;}.cls-150{fill:#87a6c7;}.cls-151{fill:#4671a5;}.cls-152{fill:#3f6697;}.cls-153{fill:#638bb3;}.cls-154{fill:#5a83ae;}.cls-155{fill:#3e6698;}.cls-156{fill:#5883a3;}.cls-157{fill:#acbfcd;}.cls-158{fill:#6a90b7;}.cls-159{fill:#7295ba;}.cls-160{fill:#577fbe;}.cls-161{fill:#4f8789;}.cls-162{fill:#34605f;}.cls-163{fill:#467e70;}.cls-164{fill:#4a6c88;}.cls-165{fill:#75a1a5;}.cls-166{fill:#5880b0;}.cls-167{fill:#7398b8;}.cls-168{fill:#375c8d;}.cls-169{fill:#5780ab;}.cls-170{fill:#6b92b0;}.cls-171{fill:#779ab8;}.cls-172{fill:#608558;}.cls-173{fill:#eeebdf;}.cls-174{fill:#3d6143;}.cls-175{fill:#688573;}.cls-176{fill:#5785a2;}.cls-177{fill:#f5f2ec;}.cls-178{fill:#e6e6e2;}.cls-179{fill:#8ca5c8;}.cls-180{fill:#6489c3;}.cls-181{fill:#9db4d1;}.cls-182{fill:#abbaa5;}.cls-183{fill:#8ca9c9;}.cls-184{fill:#c0cae0;}.cls-185{fill:#41657a;}.cls-186{fill:#426bad;}.cls-187{fill:#8daacd;}.cls-188{fill:#a9ba9d;}.cls-189{fill:#3a5e32;}.cls-190{fill:#fcf9f0;}.cls-191{fill:#214042;}.cls-192{fill:#1d3841;}.cls-193{fill:#3758a8;}.cls-194{fill:#e1e2e9;}.cls-195{fill:#23454a;}.cls-196{fill:#ebe9e8;}.cls-197{fill:#619d8e;}.cls-198{fill:#e7e7eb;}.cls-199{fill:#4d7e9c;}</style><clipPath id="clip-path"><rect class="cls-1" x="1.43" y="0.66" width="59.36" height="35.61" transform="translate(-0.77 1.36) rotate(-2.47)"/></clipPath></defs><g class="cls-2"><path class="cls-3" d="M18.75,13.69c-.25-.15-.09-.23,0-.31a7.58,7.58,0,0,0,1.56-2.51,1.93,1.93,0,0,1,0-.24c0-.07,0-.07-.09-.15a.15.15,0,0,0-.24,0c-.23.17-.64-.12-.7.36s-.14.39-.39.17h-.08c-.15.16.1.31.1.47-.32-.06-.47,0-.54.34-.07.16-.15.16-.31.16s-.38.34-.38.5a.08.08,0,0,0,.09.07c-.25-.22-.33-.22-.47.1-.34-.46-.73-.12-1,0a.35.35,0,0,1-.48,0c-.08-.16-.16-.16-.32-.16s-.48-.12-.72,0a.17.17,0,0,0-.15.17,2.64,2.64,0,0,1-.2.87,5.87,5.87,0,0,0,.21,1.17,8.9,8.9,0,0,0,.39,1.56c.1.46.42.52.8.19,0-.14,0-.14-.17-.29a2.22,2.22,0,0,1,1-1.15,9.85,9.85,0,0,1,1.46-1.08c.08-.09.24-.09.4-.1C18.6,13.92,18.76,13.92,18.75,13.69Z"/><path class="cls-4" d="M8.49,6.11A4.09,4.09,0,0,0,7.06,6c-.07.16-.07.24.09.22a.91.91,0,0,1,.74.53c-.16,0-.25-.14-.33-.22-.25-.22-.25-.22-.39.1.08.15.24.22.33.3.17.29.49.45.67.75,0,.08.16.16.24.15A.17.17,0,0,1,8.58,8c0,.4.26.55.65.53-.22.25-.14.39,0,.63a2.6,2.6,0,0,1,.44.93c-.32,0-.25-.31-.5-.45s-.39,0-.48-.14-.16.09-.15.16a.67.67,0,0,0,.42.69.49.49,0,0,1-.55-.05c-.17-.07-.09-.15,0-.32s.07-.15,0-.31c0,0-.08,0-.08-.07s-.24,0-.24.15a1.72,1.72,0,0,0,0,.88c0,.08.09.16.25.15-.16.08-.32.09-.39.16s0,.25.09.4-.07.24-.06.32,0,.23.09.23.24,0,.24.07.16.07.16,0c.15-.15.06-.38.13-.54s-.08-.17-.17-.23a.76.76,0,0,1,.79-.27.19.19,0,0,0,.09.31c.08.07.16,0,.23-.09a.42.42,0,0,1,.57.13c.08.16.08.23.25.31.15-.1.39-.1.14-.33-.08-.07,0-.15,0-.31a.15.15,0,0,0,0-.23c-.08-.08-.16,0-.24,0l.23-.25c.07-.07.07-.15.23-.08S11,10.17,11,10a1.31,1.31,0,0,1,.52-.82s.08,0,.07-.07c-.17-.31.3-.56.12-.95h.08c.08,0,.16,0,.16-.09a.84.84,0,0,1,0-.62.16.16,0,0,0-.17-.23c-.16,0-.33-.23-.4-.06s0,.23.18.38c-.32,0-.4,0-.41-.3,0-.08.14-.33,0-.31a.39.39,0,0,0-.47.18c-.07.16-.06.32-.22.4a.29.29,0,0,0,0,.46c.17.16.1.48.42.46v.08c-.15.17-.15.25,0,.4-.33-.23-.57-.37-.43-.77.07-.17,0-.32-.25-.23s-.4-.14-.64,0c0-.31-.33-.3-.49-.45s-.16-.07-.17-.15c.16,0,.23-.17,0-.16s-.24,0-.32.18c-.08-.08.07-.24-.08-.24s-.09-.15-.09-.23a.26.26,0,0,0-.18-.4C8.26,6.27,8.5,6.34,8.49,6.11Z"/><path class="cls-5" d="M11.85,8.32c0-.09-.09-.15-.17-.07s0,.08,0,.15.09.31-.06.4-.24.09-.15.25.09.31-.06.39c-.47.25-.29.71-.59,1-.08,0,0-.15-.17-.14s-.07.08-.07.16-.15.32-.3.33-.08.15-.08.15c.09.16.16,0,.16,0s.07-.16.16-.08,0,.08-.08.16-.22.4.18.46c-.07.08-.15.17-.23.17-.14.4.19.62.28.93,0,.07.08.07.16,0s.08-.09.07-.16-.09-.25-.09-.32c-.09-.24.06-.39.3-.41s.4,0,.3-.33a.38.38,0,0,0-.17-.3.43.43,0,0,0,.41.22c.16,0,.24.07.25.23a.47.47,0,0,0,.09.31c.08.15.17.23.24,0A5.22,5.22,0,0,0,12,10.28c.16.07.32.07.39-.17a1.47,1.47,0,0,0,.13-.56c0-.15-.17-.38.23-.4.15,0,.22-.33.21-.56s-.17-.23-.25-.3A.63.63,0,0,1,12.39,8c.07-.08.24,0,.23-.16a5.06,5.06,0,0,0-2-1.42c-.31.25-.56-.05-.8-.12-.08,0-.16-.15-.32-.07,0,.17-.06.33-.06.48a.31.31,0,0,0,.09.23,6.07,6.07,0,0,0,1,.59c.08,0,.16,0,.16-.09,0-.31.22-.39.53-.41.09.22-.22.39,0,.63s.39-.1.63,0c0-.23-.16-.15-.24-.22s-.09-.08-.09-.16.08-.08.16,0,.08.07.16.07.24-.09.17.14,0,.48-.31.34c.09.23.33.22.34.45a.47.47,0,0,0,.09.31C12.09,8.46,12,8.32,11.85,8.32Z"/><path class="cls-6" d="M5.67,32.75a34.39,34.39,0,0,1,5,.81c.08,0,.16.07.24.06-.08,0-.07.24-.23.17s-.39,0-.55,0a.29.29,0,0,0-.24.08c0,.08.08.08.17.15s.08.08.16.08a11.51,11.51,0,0,0,3.26.08,1.8,1.8,0,0,0,.62-.25c.16-.09,0-.16,0-.25A15.68,15.68,0,0,0,11,31.89a20.29,20.29,0,0,1-2.28-1.16c-.07.23.17.23.26.38.91.83,2.19,1.17,3.26,1.91-.32.09-.48-.06-.64-.06-.07.17.09.32.1.46a1.18,1.18,0,0,0,.48.23,4.08,4.08,0,0,1-.64-.29c-.33-.3-.5-.38-.73-.36s-.57-.13-.8,0c-1-.12-1.84-.32-2.79-.36a10.88,10.88,0,0,0-1.51,0C5.59,32.67,5.59,32.67,5.67,32.75Z"/><path class="cls-7" d="M19.32,4.92A6.61,6.61,0,0,0,17.66,5c-.16.09-.08.09,0,.15s.24.08.24.16-.15.15-.31.17h-.32a5.14,5.14,0,0,0-.93.37v0c0-.24-.1-.31-.33-.23s-.31.18-.46.34c0,.16,0,.16.41.44-.08,0-.32-.05-.31.11-.06.39-.23.24-.39.16-.23.25,0,.31.1.48a.32.32,0,0,1,.18.38c-.08.09.17.31.09.47s.09.08-.07.15-.23.25.1.4c.08,0,.16.07.24.07h.16l.07-.08c.24-.17.14-.63.29-.72.4.06.39-.17.62-.35s.14-.56.54-.41c.22-.4.39-.25.63,0s.08,0,.16,0,.16-.1.15-.24c.14-.48.53-.66.92-.84a.62.62,0,0,0,.46-.25c.08-.08.08,0,.17.07s.31-.09.39-.17.23,0,.32.14c.31-.25.3-.33,0-.47l-.72-.2c-.16.08-.48,0-.63.17s0,.25,0,.33a2.5,2.5,0,0,0-.79,0c-.24.08-.39.17-.3.49,0,.15-.15.15-.15.24s-.08-.09-.08-.09a.43.43,0,0,0-.32-.13c-.24-.07-.17-.16-.09-.16s.16.08.25.15.08.23.24.06l.07-.07a.94.94,0,0,1,1-.75h.16C19.33,5.17,19.57,5,19.32,4.92Z"/><path class="cls-8" d="M6.12,19.27a8.87,8.87,0,0,0,1,.51c.31-.17.37-.49.6-.73-.09-.32-.18-.55-.5-.61-.16-.07-.24,0-.24.09,0-.09.22-.48-.25-.32a.06.06,0,0,1-.08-.06s-.08-.08,0-.08c.23-.09.07-.24,0-.31a.54.54,0,0,1-.42-.55c0-.14-.16-.14-.24-.21s.16.07.31,0,.4,0,.25.23a1.48,1.48,0,0,0,0,.16h.16c.16.06.23-.09.3-.25s.15-.32.39-.17a.37.37,0,0,0,.4.06c.08,0,.08-.08.08-.08s-.08-.08-.09-.16a3.6,3.6,0,0,0-.64-.21A.23.23,0,0,1,7,16.48c-.25-.08-.41-.22-.65-.13a1,1,0,0,1-.31.09c0-.07.08-.08.07-.16s.07-.39-.25-.3c-.08,0,0-.08,0-.08.07-.25-.1-.48-.19-.71-.24-.06-.47.11-.71.2a.25.25,0,0,0-.15.07,1.89,1.89,0,0,1-.23.25c-.07.17,0,.32.18.46s.48.06.8.14h0a.15.15,0,0,0-.15.15c.09.23-.15.25-.23.34S5.07,17,5,17s-.23,0-.15.15.17.23.33.23.23-.08.23-.16.08-.09.16-.09.08.16,0,.16c-.55.18-.22.4-.21.56V18c-.16,0-.23.1-.23.25s-.06.4,0,.56c.24.13.49.37.81.36,0-.08.07-.17.15-.09a.48.48,0,0,0,.25.07C6.2,19.11,6.2,19.11,6.12,19.27Z"/><path class="cls-9" d="M18.75,13.69c-.16.09-.23.25-.39.1s-.24.09-.4.09c-.39.18-.69.58-1.16.76a.9.9,0,0,0-.3.41c0,.08-.23.16-.06.31s.24,0,.31-.09l.15-.16c.16-.09.31-.33.48-.1h.16c.07,0,.32.07.23-.16h.08a1.67,1.67,0,0,1,.56.29c.09.07.17.15.32,0s.47-.19.7-.27a.17.17,0,0,0,.16-.17V14.6c.08,0,0,.07.09.07a2,2,0,0,1,.48.29c.16-.16.47-.17.46-.56a.82.82,0,0,0,.8.27c.32,0,.57.29.89.27.08,0,0,.17,0,.25a.22.22,0,0,0,.25.23c.23-.09.22-.25.22-.41.08,0-.25-.22.07-.16.08,0,.15-.16.07-.32s-.25-.14-.26-.3a4.48,4.48,0,0,0-2.09-.62c-.4-.06-.79,0-1.19,0-.07.23-.23.08-.39.08S18.83,13.69,18.75,13.69Z"/><path class="cls-10" d="M20.51,8.58c.06-.64,0-1.35.08-2a.26.26,0,0,0-.09-.23c0-.4-.41-.3-.58-.46-.07.09,0,.23,0,.31a2,2,0,0,0,0,.25c0,.23,0,.46.34.53-.16,0-.4-.14-.48,0s.1.46.27.69c-.08,0-.23.09-.23.17,0,.31-.31.08-.39.17s0-.09,0-.09-.09-.22-.25-.13-.3.32-.37.49c0-.08.15-.17.07-.24s-.24,0-.25-.07-.31.09-.47-.07c-.16,0-.16.17-.31.25,0,.32-.22.48-.45.66s-.23.17,0,.3c0,0-.15.18-.06.33s.08.08.16.07c.24,0,.4,0,.55-.18s.06-.32.31-.18a.08.08,0,0,1,.08.09.42.42,0,0,1-.14.47c-.07.09-.15.17-.15.25s-.14.32,0,.38a.28.28,0,0,0,.39-.17,1.11,1.11,0,0,1,.14-.56.7.7,0,0,0-.22.56c.49.21.87,0,.85-.66,0-.09.08,0,0,0,0,.16.08.16.16.14a.15.15,0,0,0,.15-.15.59.59,0,0,1,.14-.48.25.25,0,0,0,0,.38c.16.09.15-.07.23-.15V9.23c0-.16.07-.25.06-.4C20.44,8.73,20.52,8.73,20.51,8.58Z"/><path class="cls-11" d="M5.14,16.8c.08-.09.48.05.23-.34l.07-.07c.08-.08.09.15.16,0s0-.15-.16-.15-.48-.06-.64-.06a4.36,4.36,0,0,0-1.35.06,1.65,1.65,0,0,0-.93.52l-.08.08c-.48-.14-.62.27-.85.51-.07.08-.31.08-.22.33a.38.38,0,0,0,.48.13A3.05,3.05,0,0,1,4,18.17a1.9,1.9,0,0,1,.49.31c.24,0,.4.06.55-.18S5.11,18,5,18c-.32.1-.33-.14-.57-.21.15-.16.31-.1.39-.17a.17.17,0,0,0,.15-.18.17.17,0,0,0-.16-.14c-.4-.07-.25-.3-.18-.46s.15-.24.06-.4h.08C4.82,16.73,4.82,16.73,5.14,16.8Z"/><path class="cls-12" d="M16.6,19.13a1.44,1.44,0,0,1,.56.14,7.25,7.25,0,0,0,1.13.34c.08,0,.07-.17.07-.24s.22-.32,0-.47c-.08,0,.07-.08.07-.17s.08-.08.08,0c.33.31.71,0,1,.12a.27.27,0,0,0,.23-.09c.08-.16.31-.17.47-.25a.34.34,0,0,0,.3-.34c0-.15-.09-.23-.32-.14L20.13,18a.6.6,0,0,0-.41-.14c-.32,0-.48-.06-.49-.45-.09-.08-.17-.16-.25-.16l-.08,0a2.6,2.6,0,0,1-.72-.13c-.16,0-.4-.06-.55,0s-.24.09-.15.17.16.15.24.22a2,2,0,0,0-.37.49c.08.15.16.07.32.07s.23-.09.3-.25.24-.17.4-.11h.16c-.08.09-.08,0-.16,0s-.24.1-.23.25-.24,0-.23.17.09.31-.15.25c.08-.09.31-.25.07-.32s-.55.17-.87.19c-.16,0-.09-.15-.17-.23s-.24-.06-.32-.06-.07.16.09.23c-.16-.07-.24-.14-.32-.14s0,.16,0,.23.09.32.17.39.09.08.16.06.4,0,.56,0a.34.34,0,0,1,.49.21c-.16,0-.25-.13-.33-.13C16.91,19,16.67,18.82,16.6,19.13Z"/><path class="cls-13" d="M17.55,17.19a5.24,5.24,0,0,0,.56,0c.24.08.47.06.72.14.08,0,.08,0,.07-.08s.16-.09.15-.17-.09-.23-.17-.31a3.5,3.5,0,0,0-2-.15c-.32,0-.55.11-.87.11h-.08c-.07.1-.15.1-.23.18a.07.07,0,0,0,.08.07c-.23.09-.38.42-.78.27-.16-.08-.24,0-.23.17a2.83,2.83,0,0,1,.43.85.14.14,0,0,1,0,.23c-.07.09-.15.17,0,.23s.09.09,0,.09a1.29,1.29,0,0,0-.22.48.4.4,0,0,1-.15.24c-.15.09-.15.17-.07.24s.18.47.42.54l.67.83a6.22,6.22,0,0,1,.68.92c.08.07.16.14.24.07s0-.16-.09-.24c-.08.08-.09-.15-.33-.23a2.52,2.52,0,0,0-.68-1,2.08,2.08,0,0,1-.18-.62.7.7,0,0,1,.13-.57c.16-.15.15-.31.22-.56a1.1,1.1,0,0,0,.06-.48,2,2,0,0,1,0-.69c0-.16-.17-.23.06-.4A8.62,8.62,0,0,0,17.55,17.19Z"/><path class="cls-14" d="M8.5,21.06a1.59,1.59,0,0,0,.12.86c.09.31.34.52.44.92,0,.16.24.06.32.23A6.7,6.7,0,0,1,10,24.3a2.22,2.22,0,0,0,1.49-.63v-.06c-.39,0-.4-.22-.33-.46-.09-.08-.25-.15-.26-.31s-.08-.15-.24-.15-.16.09-.24,0,.07-.16.07-.25a.07.07,0,0,1,.08-.07,1.93,1.93,0,0,1,0-.24l-.09-.07c.08-.18-.23.15-.08-.08v-.08c-.16-.07-.4.1-.33-.3-.32,0-.57-.37-.81-.28.32,0,.15-.32.21-.56s0-.16.08-.16c0-.16-.17-.23-.17-.16a.84.84,0,0,1-.63.19C8.49,20.82,8.58,21,8.5,21.06Z"/><path class="cls-15" d="M24.62,17.29c.08,0,.08,0,.08-.08-.26-.54-.52-1.08-.79-1.62-.24-.15-.57-.38-.87-.13-.08,0-.08,0-.09-.06s-.16-.15-.24-.07,0,.15,0,.24c-.24-.15-.34-.46-.66-.53-.07,0-.23.09-.24-.14,0-.08-.08-.08-.16-.08a1.14,1.14,0,0,1-.39.18c-.15.23-.14.4-.39.25a.17.17,0,0,0-.15.17c0,.15-.16,0-.15.08-.16.09-.32.17-.23.33a.44.44,0,0,0,.41.21c.23-.1.39,0,.56.22a.64.64,0,0,0,.81.2c.23-.09.16.15.24.14.24.15.48.13.73.29a1,1,0,0,1,.48.13.41.41,0,0,1,.32.15c.08,0,.16,0,.33.14C24.46,17.21,24.54,17.21,24.62,17.29Z"/><path class="cls-16" d="M31.14,8.28c-.15.08-.15,0-.16-.15a16,16,0,0,0-.48-1.87c-.23.16-.23.16-.55,0-.08,0,0-.09,0,0s.16.07.23,0a.24.24,0,0,0-.08-.15c-.16-.07-.17-.16-.25-.31a.09.09,0,0,0-.09-.08c-.48-.21-.63,0-.69.59,0,.08,0,.24.1.31.26.54.52,1,.78,1.54s.52.92.69,1.39a.18.18,0,0,0,.17.15c.16,0,.32.14.49.21.22-.25.05-.48,0-.79,0-.15,0-.4,0-.55S31.23,8.35,31.14,8.28Z"/><path class="cls-17" d="M27.42,2.85a5.16,5.16,0,0,0,0,1.18c0,.39.11.86.13,1.25a.2.2,0,0,0,.32.14c.16,0,.16-.16.15-.25s0-.38.31-.31.23-.09.14-.4c.08.07.08.15.17.21s.24.08.23-.07,0-.24.15-.25.07-.24.16,0,.24.07.31-.1.15-.24.06-.39c-.34-.69-.77-1.38-1.2-2.07-.15.08-.3.24-.3.32.09.24.1.47.18.62s.24,0,.32,0c-.23.1-.23.1-.29.57A1.1,1.1,0,0,0,27.42,2.85Z"/><path class="cls-18" d="M22.14,18.58c.22-.32.54-.35.85-.51.08,0,.08-.09.15-.09V17.9c-.08-.15-.16-.06-.32-.06a2.13,2.13,0,0,0,.93-.51c.15-.16.15-.24,0-.39a1.06,1.06,0,0,0-.56-.13,7.27,7.27,0,0,0-1.28-.26c-.16,0-.23.16-.14.32s.09.39-.23.32h-.08c.06-.48-.32-.23-.57-.29s-.32-.06-.48-.13h-.16a.08.08,0,0,1,.08-.08c.07-.25-.17-.23-.17-.3a.73.73,0,0,0-.4-.07.46.46,0,0,1-.32-.06c-.09-.09-.17-.15-.24-.07s0,.16,0,.31a.32.32,0,0,1,.09.23,1.44,1.44,0,0,0,.49.3,7.38,7.38,0,0,1,1.88,1.18C21.81,18.44,21.9,18.59,22.14,18.58Z"/><path class="cls-19" d="M60.81,25.65c-.17-.07-.25-.15-.41-.14s-.08-.09-.16-.07-.08.08-.08.08a4.34,4.34,0,0,0-.48-.14,1.64,1.64,0,0,0-.8-.28h-.16a40.2,40.2,0,0,0-5-1.13,16.24,16.24,0,0,0-2.87-.1.26.26,0,0,0-.24-.07.19.19,0,0,1-.17-.16,17.19,17.19,0,0,1,2.79,0A35.77,35.77,0,0,1,59,24.86a16.13,16.13,0,0,1,2.09.78C61.05,25.71,60.89,25.64,60.81,25.65Z"/><path class="cls-20" d="M27.71,6c0,.4.27.69.29,1.1l-.25-.23a.21.21,0,0,0,.09.3,15.93,15.93,0,0,1,1,1.31c.09.15.25.21.33.37a.09.09,0,0,0,.09.07,2.42,2.42,0,0,1,.25.39c0,.08.08.08.09.15a1.65,1.65,0,0,0,.25.39.07.07,0,0,0,.08.07c.09.08.09.24.25.15s.07-.16.07-.24c0-.23-.1-.39-.11-.55a4.06,4.06,0,0,0-.45-1.32c-.26-.46-.36-1-.62-1.46-.08-.16-.09-.39-.26-.54s-.16,0-.16.08,0,.15-.14.25-.24.09-.33-.15A.94.94,0,0,0,27.71,6Z"/><path class="cls-21" d="M27.71,6c.08.08.48.06.25.31v.08c.24-.09.33.14.49.21-.09-.23,0-.31.23-.24,0-.17-.17-.23.06-.32a.08.08,0,0,0,.08-.08A.07.07,0,0,0,28.9,6c0,.08,0,.24.17.22a.25.25,0,0,1,.07-.15c-.09-.23.31-.25.22-.41.16,0,.25.08.4.06s.31-.16.06-.46c-.08-.16-.07.23-.16,0s-.08-.23-.17-.38,0-.16.07-.16.08.07.08.07.25.07.32,0a2.53,2.53,0,0,0-.27-.7c-.07.16-.23.17-.14.31s-.08.08-.16.1-.08,0-.08-.08-.16-.07-.32-.14c0,.16.16.07.08.14s-.4,0-.22.25c0,0,0,.17-.08.17s-.16-.07-.16-.15c0-.25-.17-.23-.33-.23.08.08.25.31.17.31s-.24,0-.4-.14c-.07.16-.23.25-.14.48,0,.08.09.23-.07.24s-.24,0-.32-.14C27.53,5.52,27.7,5.75,27.71,6Z"/><path class="cls-22" d="M12.7,7.81h0c-.15.17-.32-.06-.32.09s.18.31.26.39h.08c.32.06.4.13.18.46a.48.48,0,0,1-.07.32c-.08,0-.16-.15-.32-.07s-.07.15-.06.32-.06.55-.13.87c0,.08-.15.09-.23,0s-.17-.14-.25-.06a4.45,4.45,0,0,1,.4,1.72c.39-.18.46-.26.29-.64s.06-.32.05-.56c.17.15.26.46.56.14-.09-.39.22-.58.45-.81,0-.08.07-.16.14-.25a1.12,1.12,0,0,0-.18-.54V9.12A4.12,4.12,0,0,0,12.7,7.81Z"/><path class="cls-23" d="M1.59,17.26c.15-.09.23-.24.38-.34s.23-.23.32-.08.23-.09.38-.17.08-.09.16-.17c.3-.33.71-.11,1-.36a1.84,1.84,0,0,0,1,0c-.16-.06-.17-.23-.18-.37a.1.1,0,0,0-.16,0,.66.66,0,0,1,.47-.25c.08,0,.08,0,.16-.09s.07-.08.07-.16-.24,0-.32-.07-.08.09-.16.09c.16-.09.15-.24.14-.4s-.09-.23.16-.16a.45.45,0,0,0,.31-.17c-.08,0-.09-.08-.09-.17s-.08,0-.16-.06a1,1,0,0,0-.79.19c-.07.08-.32,0-.47.1a1.53,1.53,0,0,0-.68.74,4.55,4.55,0,0,1-1,1.38C1.89,16.94,1.66,17,1.59,17.26Z"/><path class="cls-24" d="M29.55,8c.17.39.27.86.45,1.24.1.63.36,1.17.47,1.71-.17-.23,0-.56-.51-.68-.08,0-.17-.32-.18-.47V9.75a.79.79,0,0,0-.34-.38.34.34,0,0,0-.23.09c-.07.23.1.39.19.62.25.38.19.86.36,1.17s.11.62.28.92.27.71.67.85c.25.07.16-.1.15-.25a.47.47,0,0,1-.09-.31c.08.08,0,.23.17.23s.32.15.31-.17a.56.56,0,0,0-.26-.46c-.24-.08-.24-.16-.17-.31h0c0,.08-.07.15,0,.23S31,12,31,11.9a14.33,14.33,0,0,0-.39-1.79,1.51,1.51,0,0,0-.19-.63A6.78,6.78,0,0,0,30,8.25c-.08-.08-.09-.23-.17-.31A.25.25,0,0,0,29.55,8Z"/><path class="cls-25" d="M3.7,14.65c.16.08.4,0,.64.06.08,0,.08,0,.07-.09.07-.23.23-.24.48-.09H5c.17.15,0-.33.16-.1s-.15.18-.23.25-.24,0-.32-.06a.45.45,0,0,0,.09.31,1,1,0,0,0,.24,0h.08c.08-.07.24,0,.32,0,.32.06.39,0,.38-.42.15-.08.39,0,.55-.17A1.13,1.13,0,0,1,7.09,14c.16.07.41.22.47-.1,0-.08,0-.16-.09-.16-.55,0-1-.27-1.59-.24a2.78,2.78,0,0,0-1.11.19c-.23.17-.15.25,0,.41l-.25-.24c-.08,0-.15.1-.23.1-.15.15-.22.4-.38.4Z"/><path class="cls-26" d="M36.35,25.76c-.4.09-.79.27-1.18.36-.55.11-1.09.36-1.65.47-.78.19-1.49.3-2.2.49a15.76,15.76,0,0,1-1.66.23c-.39.09-.8-.14-1.1.28-.15.08-.07.16,0,.23a12.85,12.85,0,0,0,2.53-.42c.08,0,.23-.09.24.15.16,0,.15-.17.23-.25h.16c.7-.19,1.49-.32,2.2-.57a6.33,6.33,0,0,0,1.64-.47c.08-.09-.08-.15.08-.16a.89.89,0,0,0,.47-.1C36.28,26,36.36,26,36.35,25.76Z"/><path class="cls-27" d="M11,23.23a.29.29,0,0,1-.07.16c-.07.24,0,.4.25.3h.24a6.28,6.28,0,0,0,1.93-1.27,1.23,1.23,0,0,1,.54-.33V22c-.09-.09-.09-.09-.17-.07s-.31.17-.46.17c-.1-.31-.42-.38-.64-.05a.64.64,0,0,0-.22.4c-.09-.07.38-.41-.18-.38-.16,0-.15.24-.31.17h-.32a.15.15,0,0,0-.23,0c-.08.09,0,.15.09.24s.09.31-.15.32c-.08,0-.24-.07-.31.09s.09.23.17.31c0-.08-.09-.16-.16,0Z"/><path class="cls-28" d="M7.26,19.77c.32.07.56.21.88.28.16.07.32.07.41.22.16,0,.07-.16.15-.24-.09-.16-.25-.15-.33-.3.08.15.32.06.33.3a.28.28,0,0,0,.24.06.25.25,0,0,1,.32,0,3.23,3.23,0,0,0,1.27.09c.15-.23.31-.08.47-.09s.32,0,.47-.18-.16-.07,0-.15.15-.16.06-.24a.15.15,0,0,0-.23,0c-.16.09-.24-.08-.32-.06-.31.25-.63.1-1,0-.16-.08-.24-.15-.47,0s-.64-.06-.81-.29c0-.15-.17-.31-.32-.21a.23.23,0,0,1-.32-.08H8A1.36,1.36,0,0,0,7.26,19.77Z"/><path class="cls-29" d="M20.51,8.58c-.15.15-.31,0-.47-.06.24.23.1.46,0,.71,0,.08,0,.15-.08.08s-.16-.08-.09-.16,0-.15,0-.31a1.88,1.88,0,0,0-.29.56c0,.16,0,.24-.15.25s0-.17-.09-.23c-.22.4-.2.95-.92.81a.83.83,0,0,1-.39.19c0-.4.29-.73.43-1.05.08-.08.08-.08-.16-.07s-.22.48-.45.64a1.15,1.15,0,0,0-.13.48c-.08.17,0,.4-.14.56s0,.16.09.23c.32.15.71-.1,1,0l.08.08c.08,0,.08-.08.08-.16a1,1,0,0,1,.76-.74.18.18,0,0,0,.15-.18.76.76,0,0,0,0-.14c.08,0,.09.07.09.14a.08.08,0,0,0,.08.09c.16,0,.45-.57.45-.73A1.37,1.37,0,0,0,20.51,8.58Z"/><path class="cls-30" d="M27.42,2.85a.32.32,0,0,0,.24.07c.31,0,.41.29.57.45,0,0-.07.16.09.15s.24.07.15-.16.15-.17.07-.32a.36.36,0,0,1,.15-.1c.08,0,.17.16.16,0s.08-.08,0-.15h-.23c-.08,0-.08.08-.24.09,0-.08.16-.09.15-.18s-.31,0-.17-.21V2.34c-.24-.07-.17-.15.07-.24s0-.16.07-.24c-.26-.3-.43-.69-.68-1-.16,0-.24-.07-.4-.06s-.08.15-.07.23A6.72,6.72,0,0,0,27.42,2.85Z"/><path class="cls-31" d="M19.15,17.44c0,.09.09.16.26.46a.1.1,0,0,1-.07.17c-.08.08,0,.16.08.16.24,0,0-.08,0-.16.16-.17.32-.09.4-.11s.16.08.24.08.17.23.16,0c.08,0,.16,0,.16.08s0,.23-.15.24a1.14,1.14,0,0,0-.47.18c-.08,0-.07.08,0,.14.17.31.4.15.64.22l.48,0c.08,0,.23-.09.15-.16s-.16-.07-.16-.07c.32,0,.17.22.25.3V19a2.58,2.58,0,0,0,.71-.27.37.37,0,0,1,.23-.1,2.31,2.31,0,0,0-.74-.67,2.37,2.37,0,0,0-.73-.36,3.34,3.34,0,0,1-1.2-.18C19.31,17.44,19.14,17.29,19.15,17.44Z"/><path class="cls-32" d="M28.49,27.83a1.93,1.93,0,0,0,0-.24c0-.15-.08-.15-.16-.15a10.87,10.87,0,0,1-5.92-1,12.13,12.13,0,0,1-1.79-1,.53.53,0,0,0,.33.47,12.29,12.29,0,0,0,3.64,1.5c.49.21,1.12.11,1.6.32A5.85,5.85,0,0,0,28.49,27.83Z"/><path class="cls-33" d="M15.64,6c.15-.16.31-.24.46-.41.08,0,.15-.08.07-.16A4.41,4.41,0,0,0,14.5,7.19a3.81,3.81,0,0,0-.65,1.44c.23,0,.38-.25.63,0l.08.07c.33.23.32-.08.47-.25.3-.25,0-.23-.1-.31.07-.24.64-.1.46-.57-.09-.15,0-.31.06-.47s-.33-.23-.18-.47A3.13,3.13,0,0,0,15.64,6Z"/><path class="cls-34" d="M13.71,22c0,.08.08.08.16.08.23-.09.23-.09.23-.25.16.06-.15.31.09.39s.24.07.32-.09-.1-.47.05-.72c0-.23.06-.48,0-.62s-.18-.4.05-.57v-.06c0-.08-.08-.16-.17-.23s-.16-.15-.31,0-.08.17,0,.32c-.25-.14-.18-.38-.26-.53s-.17-.31-.41-.22c.1.45,0,1,.07,1.49C13.6,21.31,13.61,21.62,13.71,22Z"/><path class="cls-35" d="M16.39,21.65c.17.16.26.39.42.54-.4-.21-.58-.68-.91-.9a21.86,21.86,0,0,0,1.59,2,14.94,14.94,0,0,0,2.32,2c.15-.16,0-.31-.1-.39s-.16-.07-.17-.23a19.62,19.62,0,0,1-2.9-2.86A.18.18,0,0,0,16.39,21.65Z"/><path class="cls-36" d="M7.57,6.86c-.08-.08-.24-.15-.32-.23S7.07,6.17,6.9,6H6.74c-.23,0-.39,0-.3.32A5.8,5.8,0,0,1,6.35,8a1.3,1.3,0,0,0,0,.78c0,.32.09.32.4.22a.48.48,0,0,0,.07-.32,1.69,1.69,0,0,1,0-.23c0-.08,0-.16-.09-.15a.24.24,0,0,0-.15.08,2.69,2.69,0,0,0,.44-.8c0-.08.07-.09.15-.17s.16-.08.15-.25a.72.72,0,0,0-.26-.37.55.55,0,0,1,.33.3c0,.07.09.07.16,0S7.58,6.92,7.57,6.86Z"/><path class="cls-37" d="M35.63,22.09a16.92,16.92,0,0,1-4-1.24c-.08,0-.08,0-.08.07a.18.18,0,0,0,.17.16,14.81,14.81,0,0,0,1.94.86,7.7,7.7,0,0,0,2.64.52,3.85,3.85,0,0,1,.48,0c.15-.25,0-.25-.17-.23A2.29,2.29,0,0,1,35.63,22.09Z"/><path class="cls-38" d="M5.14,16.8v-.16c-.39.17-.32,0-.25-.24-.08-.06-.24,0-.4,0,.24.15.25.3,0,.47s.09.39-.14.56a.23.23,0,0,0,.17.06.51.51,0,0,1,.32.08c-.16.15-.64-.06-.7.34.08.08.47,0,.33.29.08.08.08,0,.16,0s.15-.17.23-.08.09.14,0,.14-.15.25-.31.18c0-.07,0,0-.08.09a1.48,1.48,0,0,0,.57.37,1.84,1.84,0,0,0,.14-.56c0-.16.07-.16.15-.1s.16,0,.16-.07c-.17-.16,0-.41-.26-.54a.27.27,0,0,0,.38-.25c.06-.41-.32-.16-.33-.39-.06.48-.06.48-.47.18C5,17,5.24,17.11,5.14,16.8Z"/><path class="cls-39" d="M20.51,17.71c.57.29,1,.66,1.47,1a1.7,1.7,0,0,0,.33.22c-.09-.16-.09-.24-.17-.31a7,7,0,0,0-2-1.41,2.72,2.72,0,0,0-.89-.35,2.15,2.15,0,0,0-1-.27,5.5,5.5,0,0,0-1.67,0c-.15.15-.4,0-.54.34a6.71,6.71,0,0,0,1.34-.15,12.41,12.41,0,0,1,1.6.17,2.43,2.43,0,0,0,.64.22c-.16,0-.33-.23-.47,0,0,.07-.24-.07-.16.16C19.47,17.44,20,17.57,20.51,17.71Z"/><path class="cls-40" d="M25.77,32.75a22.12,22.12,0,0,1-3.06.9,15.69,15.69,0,0,1-2.13.33.31.31,0,0,0-.07.25l.63,0a5.71,5.71,0,0,1-.9,1.16c0,.07,0,.07.08.07s.23-.25.47-.19c.08-.08.15-.15.15-.23s.14-.33.3-.41c.29-.72,1-.59,1.56-.69a11.15,11.15,0,0,0,1.57-.46A6.76,6.76,0,0,1,25.54,33C25.69,32.9,25.86,33,25.77,32.75Z"/><path class="cls-41" d="M25.46,31.11a7.08,7.08,0,0,1,2.31.29c-.14.24-.3.25-.45.41s-.31.33-.62.42c-.08,0-.08.09-.07.16s-.08.09-.08.16a10.66,10.66,0,0,0,2-1.34,1.16,1.16,0,0,1,.53-.57c.16-.09.23-.18.07-.32-.39.16-.54.49-.84.74s-.31.17-.56.09a4,4,0,0,0-2.31-.28C25.37,30.94,25.38,31,25.46,31.11Z"/><path class="cls-42" d="M30.94,12.77c-.16-.08-.09-.23-.17-.31h-.08a.57.57,0,0,0,.18.39c0,.07.08.16-.07.24a.59.59,0,0,0,.5.53.4.4,0,0,1,.33.38A28.37,28.37,0,0,0,33,16.69c.09.32.17.39.49.38-.25-.4-.43-.77-.69-1.15a21.43,21.43,0,0,1-1.12-2.25c-.09-.14.15-.15.14-.31a.36.36,0,0,1,0-.4c.08-.15,0-.23-.09-.23s-.15.09-.23.17-.07.16.1.47C31.28,13.23,31.18,12.84,30.94,12.77Z"/><path class="cls-43" d="M10,34.05l-.25-.22a3.79,3.79,0,0,1,1,0c.08,0,.17.07.16,0s-.08-.07-.16-.15a.71.71,0,0,0,.31-.09.51.51,0,0,0-.48-.14c0,.16,0,.16-.15.17a3.18,3.18,0,0,1-1.19,0c-1.35,0-2.78,0-4.13,0-.08.09-.08.09,0,.16l4.05.07A2.94,2.94,0,0,0,10,34.05Z"/><path class="cls-44" d="M6.71,8.94c-.16.08-.32,0-.33-.23a5.59,5.59,0,0,0,.07,1.58c0,.47.28.85.29,1.24a.23.23,0,0,0,.17.23l.08.08c.09.06.18.3.33.14a.36.36,0,0,0,0-.47.39.39,0,0,1-.17-.32c.07,0,.24.16.31,0s.15-.17,0-.25-.16-.14-.24-.13-.17-.16-.1-.31,0-.4,0-.56-.25-.38,0-.54C7.12,9.23,7,9,6.71,8.94Z"/><path class="cls-45" d="M20.47,9.37c-.08.07.09.3-.23.24h-.08c.17.23-.3.25-.14.47,0-.23-.24-.22-.41-.29,0,.14.25.07.17.23s-.15.08-.31.09c-.32,0-.62.42-.68.89.09.16.25.22.42.38,0-.32,0-.32.38-.33-.32-.08-.17-.31-.1-.39.23-.25.32.06.48.06s0-.25.15-.25.09.16.09.23.08.08.09.16a4,4,0,0,0,.27-1A1,1,0,0,0,20.47,9.37Z"/><path class="cls-46" d="M29.24,30.31c0,.15,0,.15-.16.17a1.62,1.62,0,0,0-.44.73,13.22,13.22,0,0,0,2.8-3.12c0-.23.15-.4.21-.63s.16-.17,0-.25-.06.25-.22.25A15.77,15.77,0,0,1,29.24,30.31Z"/><path class="cls-47" d="M31.18,9.14c0,.24,0,.47,0,.78a5.2,5.2,0,0,0,.13,1.18c0,.16,0,.24,0,.38a1,1,0,0,1,0,.17c.09.15,0,.39.26.46.31-.09.31-.09.22-.4.17.23-.06.46.18.62a2.5,2.5,0,0,0,0-1.1,14,14,0,0,1-.4-1.79.6.6,0,0,0-.17-.31c-.08-.07-.08-.07-.16-.07S31.18,9.06,31.18,9.14Z"/><path class="cls-48" d="M32,12.33a2.57,2.57,0,0,1-.11-.78c-.15.24-.06.47-.37.49s-.07.24-.07.38a.16.16,0,0,0-.16-.14c0-.09-.08.09-.08,0s0-.16,0-.24-.17-.23-.32,0c-.08,0-.07.17-.16,0a.87.87,0,0,0-.1-.47c-.15.17,0,.4-.06.48.09.07,0,.31.33.3.16,0,.17.23.26.38-.08.08-.25-.15-.24,0,.09.31.42.53.67.76-.09-.15-.25-.3,0-.55,0,0,0-.16.15-.09s.08.07,0,.16-.15.32.09.39C32,13,32.21,12.71,32,12.33Z"/><path class="cls-49" d="M10.69,33.08a1.83,1.83,0,0,1,.64.13c.08.08.17.15.24,0s-.25-.21-.18-.46a1.23,1.23,0,0,0-.48-.13c-.08,0-.07.16-.16.09l-1.68-.4c-.16,0,0-.24-.17-.15-.56-.22-1.12-.35-1.77-.56-.08,0-.07.09-.07.15a6.93,6.93,0,0,1,1,.44,12.56,12.56,0,0,1,1.85.63A1.44,1.44,0,0,0,10.69,33.08Z"/><path class="cls-50" d="M22.07,15.12a1.11,1.11,0,0,0,.82.59c-.09-.15-.17-.23-.1-.38.16.07.17.23.33.3,0-.4.23-.33.47-.26a.62.62,0,0,0,.4.05,2.51,2.51,0,0,0-1.33-1.35c-.07.16.08.16.09.24s.16.15,0,.31c-.08,0-.08-.08-.09-.16s-.08-.07-.16-.07-.07.16,0,.16a.19.19,0,0,1,.09.31c0,.08,0,.24-.15.24s-.08-.16-.16-.16S22.06,15,22.07,15.12Z"/><path class="cls-51" d="M37.38,14.69a13,13,0,0,0-.8,3.5v.16c0,.07.09.07.17.07.27-1,.46-2.06.74-3.1.06-.24.06-.4.13-.63C37.45,14.62,37.38,14.62,37.38,14.69Z"/><path class="cls-52" d="M7.47,13.78a.27.27,0,0,1,.09.24,1.69,1.69,0,0,1,0,.23c0,.23-.05.48.25.23l.08,0a.34.34,0,0,0,.4.08.57.57,0,0,0,.22-.49.84.84,0,0,0-.35-.69c-.24-.07-.33-.3-.49-.38-.32,0-.33-.29-.34-.45-.09-.32-.25-.38-.5-.53H6.76a15.47,15.47,0,0,0,.71,1.63C7.55,13.62,7.71,13.77,7.47,13.78Z"/><path class="cls-53" d="M33.51,17.15c-.31,0-.4-.23-.49-.38-.32,0-.57-.29-.81-.35-.08,0-.08-.08-.16-.08s-.17-.15-.33-.15-.16-.06-.23,0a.16.16,0,0,0,.16.15,8.59,8.59,0,0,0,1.47.79c.32.16.41.47.58.7a12.88,12.88,0,0,0,1.59,1.82c.08,0,.16.06.24,0-.42-.53-.92-1.06-1.34-1.59S33.76,17.37,33.51,17.15Z"/><path class="cls-54" d="M29.3,9.62c.07-.09.07-.09.23-.09s.08,0,.08-.09,0-.07-.09-.15a1.65,1.65,0,0,1-.25-.39l-.09-.07c-.08-.16-.24-.14-.25-.3L27.67,6.92A6.36,6.36,0,0,0,27,6.17c0-.07-.08-.15-.16-.07.43.69.93,1.3,1.36,2,.26.46.51.83.77,1.3C29.13,9.46,29.14,9.62,29.3,9.62Z"/><path class="cls-55" d="M31.64,8.65A11,11,0,0,1,32,5.4c.14-.55.35-1.11.49-1.67a5.25,5.25,0,0,0-.73,1.53.5.5,0,0,1-.06.47,9.2,9.2,0,0,0-.3,2.14.7.7,0,0,1,0,.55c0,.08-.15.25,0,.31A.29.29,0,0,0,31.64,8.65Z"/><path class="cls-56" d="M24.58,27.37a16.34,16.34,0,0,1-3.47-1.43,1.37,1.37,0,0,1-.5-.54,3.17,3.17,0,0,1-.41-.21c-.08-.07-.17-.14-.24-.06a.19.19,0,0,0,.09.31,11.92,11.92,0,0,0,4.62,2.08C24.74,27.44,24.66,27.44,24.58,27.37Z"/><path class="cls-57" d="M20.59,34.23c.07-.08.15-.17.07-.25a23.93,23.93,0,0,1-3.49.08c-.08.08,0,.15,0,.24a3,3,0,0,0,1.19.1C19.08,34.29,19.8,34.34,20.59,34.23Z"/><path class="cls-58" d="M16.25,5.54c0,.07,0,.07-.07.15.24,0,.17.16.25.23.15-.08.48.06.46-.25.25.06.4-.1.64,0,.08,0,.16.07.24,0s.23-.09.22-.25-.16-.23-.32-.23-.16,0-.09-.06A3.13,3.13,0,0,0,16.25,5.54Z"/><path class="cls-59" d="M36.94,21.17c.33.29.82.44,1,.81,0,.09.08.09.17.16s.4.22.57.28.07-.15.06-.23c-.49-.46-1-.9-1.56-1.35a1.75,1.75,0,0,1-.44-.84c-.07.15,0,.31-.06.39-.32-.06-.42-.45-.66-.52a.81.81,0,0,0,.43.61C36.69,20.79,36.78,21,36.94,21.17Z"/><path class="cls-60" d="M41.77,24.34c.09.24-.08.16-.16.17l-2.75.59s-.08,0-.08.07c.1.31.32,0,.41.15.55,0,1-.28,1.49-.3A8.9,8.9,0,0,0,42,24.73a.26.26,0,0,0,.16-.09v-.08C42.08,24.33,42,24.26,41.77,24.34Z"/><path class="cls-61" d="M8.49,6.11c-.08,0-.07.08-.15.08-.24.09-.31.25-.14.48.08,0,0-.16.07-.16s.1.31-.06.39L8.13,7c.33.07.41.23.42.46,0-.23.15-.32.39-.25-.15.16-.15.32.09.39a.9.9,0,0,1,.3-.41c.08-.08.16-.16.07-.32s-.4-.14-.57-.21c-.32-.06.07-.39-.17-.47C8.65,6.1,8.57,6.1,8.49,6.11Z"/><path class="cls-62" d="M8.62,20c-.16,0-.07.16-.15.16a3.21,3.21,0,0,0-.05.87c.16-.16.23-.33.55-.18,0,0,.16,0,.16-.09s.07-.16.24,0,.23,0,.31-.09a.14.14,0,0,0,0-.23l-.08-.08c-.24,0-.25-.23-.34-.38C9,19.86,8.86,20.17,8.62,20Z"/><path class="cls-63" d="M39.19,25.32c0-.09-.09-.15-.16-.07s-.16,0-.25-.08c-.15.1-.31.1-.46.19a12.24,12.24,0,0,1-1.58.37c-.08,0-.08,0-.16-.06s-.23.09-.31.09c-.15.24-.39.25-.71.27-.07,0-.15.08-.23.16s.16,0,.17.08A27.7,27.7,0,0,0,39.19,25.32Z"/><path class="cls-64" d="M14.42,22.06c-.31.09-.23.09-.32-.14a1.42,1.42,0,0,0-.17-.39c-.16.16.17.47-.22.56l.08.08c.25.14.18.38.27.62l.52.92a.16.16,0,0,0,.16.15c.08,0,.08-.08.07-.17A10.71,10.71,0,0,0,14.42,22.06Z"/><path class="cls-65" d="M14.44,20.64c.09.24-.06.48.11.63.31-.17.45-.58.76-.83-.17-.14-.1-.46-.43-.6-.16-.07-.23,0-.31.17h-.08A.66.66,0,0,0,14.44,20.64Z"/><path class="cls-66" d="M17.17,34.21c.08-.07,0-.15,0-.23a23.39,23.39,0,0,1-2.47-.29c-.24-.06-.56,0-.8-.12,0,.08,0,.16,0,.24A20.44,20.44,0,0,0,17.17,34.21Z"/><path class="cls-67" d="M8.77,30.88c-.09-.15-.25-.15-.26-.38-.9-.67-1.72-1.35-2.55-2.1-.08-.07-.08-.15-.16-.14-.23.24.09.22.17.38.9.67,1.65,1.43,2.63,2.09A.17.17,0,0,0,8.77,30.88Z"/><path class="cls-68" d="M31.57,16.29c0-.08-.08-.08-.09-.16.24-.09.33.22.48.06a14.53,14.53,0,0,0-1.8-1.27c0,.17-.15.17-.23.25A7.34,7.34,0,0,0,31.57,16.29Z"/><path class="cls-69" d="M27.77,13c.59.61,1.17,1.29,1.75,1.82.08.08.17.23.33.22-.09-.15.15-.16.15-.24A22.25,22.25,0,0,1,27.93,13C27.85,13,27.85,12.83,27.77,13Z"/><path class="cls-70" d="M9.91,24.3c.08-.09.16-.16.07-.24-.24-.22-.26-.54-.43-.77s0-.47-.41-.45c-.08,0-.1-.31-.18-.46s-.25-.31-.34-.46A2.71,2.71,0,0,0,9.06,23c.18.39.59.67.77,1.15A.24.24,0,0,0,9.91,24.3Z"/><path class="cls-71" d="M15.88,18.92a4.61,4.61,0,0,1-.44.81c-.16.17.16.23.17.31a3.23,3.23,0,0,0,.92-.83A.56.56,0,0,0,15.88,18.92Z"/><path class="cls-31" d="M18.28,19.46a1.24,1.24,0,0,1,0,.15A4.26,4.26,0,0,0,21,19c-.16-.08-.15,0-.47,0a8.49,8.49,0,0,1-1.26.36c-.23.18-.47,0-.79,0C18.44,19.37,18.36,19.3,18.28,19.46Z"/><path class="cls-72" d="M29.3,9.62c-.26-.47-.6-.84-.85-1.23-.08-.07-.09-.16-.17-.24A5.68,5.68,0,0,0,29,9.39c0,.07.25.3-.07.24,0,0-.08,0-.08.08a1.35,1.35,0,0,0,.34.54c.09.08,0,.15,0,.23s0,.09.08.16.17.15.24,0a.24.24,0,0,0,0-.31c-.17-.15.15,0,.07-.09A6.56,6.56,0,0,0,29.3,9.62Z"/><path class="cls-73" d="M36.94,21.17c.06-.48-.34-.54-.59-.77-.08-.15-.24-.23-.33-.37a3.81,3.81,0,0,0-.58-.53H35.2A9.12,9.12,0,0,0,36.94,21.17Z"/><path class="cls-74" d="M15.88,18.92a2,2,0,0,1,.65.29l.07-.08a.48.48,0,0,1,.64,0,1.78,1.78,0,0,1,.48.21,1.22,1.22,0,0,0-.17-.31c-.09-.32-.33-.3-.64-.2s-.16.08-.17-.16c-.07.25-.22.33-.39.25s-.17-.23-.33-.29S16,18.85,15.88,18.92Z"/><path class="cls-75" d="M31.64,8.65H31.4a.08.08,0,0,0-.08.08c-.07.17,0,.25.1.4a6.12,6.12,0,0,1,.29,1.25c.09.31.26.54.36.85.06-.4-.2-.79-.21-1.17A8.86,8.86,0,0,1,31.64,8.65Z"/><path class="cls-76" d="M31.36,7.8c.2-.88.25-1.67.53-2.55.07-.16-.08-.08-.08,0a13,13,0,0,0-.53,2.54c0,.08,0,.23,0,.31s.16.06.16,0S31.45,7.87,31.36,7.8Z"/><path class="cls-77" d="M20.4,35.42l-.08-.08a9.93,9.93,0,0,1-1.62,1.08c0,.17.16.09.24.08a2.92,2.92,0,0,0,1.47-.93C20.56,35.48,20.48,35.48,20.4,35.42Z"/><path class="cls-22" d="M14.64,8.6c.07-.09.07-.09,0-.16-.24-.15-.48-.14-.71.19-.15.16-.06.31-.21.48a.24.24,0,0,0,.08.15c.08,0,.25.14.32,0s-.09-.16,0-.16.24.06.32,0S14.57,8.76,14.64,8.6Z"/><path class="cls-78" d="M38.74,22.27a.29.29,0,0,1-.07.24,12.43,12.43,0,0,0,1.79,1.1c0-.08.08-.17.07-.24a17.15,17.15,0,0,0-1.62-.87C38.82,22.42,38.82,22.27,38.74,22.27Z"/><path class="cls-79" d="M49.36,23.54a9.46,9.46,0,0,0-2.06.09v.16c0,.08,0,.08.09.08l1.26-.06c.16-.16.32,0,.48-.1S49.36,23.69,49.36,23.54Z"/><path class="cls-80" d="M6.9,6c.09.23,0,.46.35.61,0-.08.07-.17.14-.24-.06.32.25.23.34.46,0,.07.24,0,.32-.09S8,6.6,8,6.52s-.24,0-.17-.15V6.29c-.16.09-.33-.14-.49-.14S7.06,6.09,7.06,6Z"/><path class="cls-6" d="M8.82,32.14c0,.16.09.23.25.3l1.61.41c.16.07.24,0,.23-.18C10.19,32.46,9.55,32.34,8.82,32.14Z"/><path class="cls-81" d="M29.56,10.15c-.08,0-.16-.07-.24-.06-.08.16.17.23.09.39s-.24-.08-.23.09l.51.91c.08,0,.24,0,.24-.16C29.75,10.92,29.73,10.54,29.56,10.15Z"/><path class="cls-82" d="M45.79,23.78a21,21,0,0,0-2.21.33v.08c.09.23.24.21.4.06a.11.11,0,0,1,.15,0,.47.47,0,0,0,.33.08,1.79,1.79,0,0,1,.94-.12C45.64,24,45.8,24,45.79,23.78Z"/><path class="cls-83" d="M5.68,31.09a12.84,12.84,0,0,0-2.41-.69,18.69,18.69,0,0,0,2.34.93A.28.28,0,0,0,5.68,31.09Z"/><path class="cls-21" d="M29.76,5.73c-.14.33.18.32.42.46-.16,0-.32,0-.4-.06.5.45.5.45.64.13a3,3,0,0,0-.27-.78A1.38,1.38,0,0,1,29.76,5.73Z"/><path class="cls-84" d="M20,6c.08.08.17.23.32.23s.17.15.25.21c0-.23.22-.39.21-.63-.08-.08.07-.16.07-.24-.32-.15-.55.18-.78.27-.08,0-.16,0-.07.16Z"/><path class="cls-85" d="M42.25,24.48h0c.08.15.24.07.48.06a4.27,4.27,0,0,1,.55-.1.44.44,0,0,0,.46-.34.71.71,0,0,0-.55.09,1.48,1.48,0,0,1-1-.1c-.07.16,0,.16.09.23C42.16,24.33,42.25,24.4,42.25,24.48Z"/><path class="cls-86" d="M37.38,14.69h.24a4.11,4.11,0,0,0,.15-2C37.64,13.42,37.51,14.06,37.38,14.69Z"/><path class="cls-87" d="M25.46,31.11a1.6,1.6,0,0,1,0-.17,4.44,4.44,0,0,0-1.49.31c-.08,0-.16,0-.16.09s.08.06.16.06A5.31,5.31,0,0,1,25.46,31.11Z"/><path class="cls-26" d="M36.58,25.75c0,.08.09.23.17.15a5.83,5.83,0,0,0,1.57-.54c-.33-.15-.56.1-.79.1A2.32,2.32,0,0,0,36.58,25.75Z"/><path class="cls-88" d="M9.54,6.38c.24,0,.4.22.64.21s.09.14.1.31c.15-.17.3-.25.45-.42a4.57,4.57,0,0,0-1.68-.33c0,.08,0,.08.09.17S9.38,6.38,9.54,6.38Z"/><path class="cls-89" d="M38.1,22.21c0-.15-.09-.14-.16-.14-.48.1-1,0-1.35.14,0,.15.24.06.17.23C37.23,22.34,37.63,22.32,38.1,22.21Z"/><path class="cls-90" d="M26.55,32.55l.15-.16c0-.08-.08-.16-.16-.07s-.39.16-.62.33c-.08,0-.15.1-.23.1-.23.32-.62.34-.94.42-.15.1-.39,0-.46.27A7.12,7.12,0,0,0,26.55,32.55Z"/><path class="cls-91" d="M5.68,31.09c-.08.08-.07.17,0,.16.48.14.89.36,1.37.48,0-.08.07-.08.07-.15C6.65,31.44,6.16,31.23,5.68,31.09Z"/><path class="cls-92" d="M43.58,24.11c-.22.31-.62.26-.93.43a7.81,7.81,0,0,0,1.89-.33c-.08-.06-.16,0-.24-.06s-.16-.07-.31.1S43.75,24.17,43.58,24.11Z"/><path class="cls-93" d="M49.36,23.54c-.15.17-.32.1-.47.17s-.24-.06-.24.1c.72,0,1.43,0,2.07,0,0-.16-.09-.15-.16-.07s-.16,0-.17-.15c-.15.15-.4-.06-.63,0A.62.62,0,0,0,49.36,23.54Z"/><path class="cls-94" d="M6,28.71c-.08-.14-.32-.13-.17-.37a4.76,4.76,0,0,0-.66-.53c-.08,0,0,.15-.07.09a2.14,2.14,0,0,0-.41-.23c-.08,0-.24-.06-.16.09C5,28.13,5.49,28.42,6,28.71Z"/><path class="cls-52" d="M6.91,11.67c-.16-.06-.09-.23-.1-.3.07-.39-.34-.7-.28-1.09a.07.07,0,0,1-.08-.07,5.59,5.59,0,0,0,.31,1.64c.08,0,.16.07.23,0S7,11.76,6.91,11.67Z"/><path class="cls-95" d="M4.51,27.84c0-.17.07-.08.16,0a1.58,1.58,0,0,1,.48.3,1.85,1.85,0,0,0,0-.24,8.12,8.12,0,0,0-1.29-.49C3.94,27.63,4.18,27.69,4.51,27.84Z"/><path class="cls-96" d="M31.36,7.8a.31.31,0,0,0-.07.23c0,.16-.07.09-.16,0,0,.15,0,.15,0,.24,0,.31-.13.55,0,.86l.08-.08c.15-.1,0-.24.14-.33l.08-.08c0-.15.14-.31.14-.48S31.6,7.86,31.36,7.8Z"/><path class="cls-97" d="M14.89,23.69c-.07.16-.15.09-.24,0a4.46,4.46,0,0,0,1.18,1.46C15.49,24.69,15.23,24.15,14.89,23.69Z"/><path class="cls-98" d="M29.88,4.71c-.39.18-.17-.15-.17-.23-.16-.08-.08,0-.15.09-.24.16-.16.16-.15.32s.26.38.11.7c.16-.08.15-.32.22-.32V5.19c0-.16.23-.25.14-.48Z"/><path class="cls-99" d="M47.38,23.71v-.08a4.85,4.85,0,0,0-1.5.14v.08c0,.07,0,.16.08.16.39-.11.87-.12,1.42-.3Z"/><path class="cls-100" d="M42.25,24.48c.15-.08.07-.16-.09-.23S42,24.17,42,24a1.17,1.17,0,0,1-.56-.21c-.17-.08-.25-.16-.4-.06s-.08.08,0,.15c.25.15.57.29.82.44A.6.6,0,0,0,42.25,24.48Z"/><path class="cls-101" d="M24.58,27.37c0,.07.08.07.09.15a11.46,11.46,0,0,0,1.52.25c0-.08.07-.08,0-.08C25.62,27.56,25.14,27.5,24.58,27.37Z"/><path class="cls-102" d="M47.38,23.71c-.47.1-1,.12-1.5.21l-.08-.06c-.08.16-.23.16-.31.24.63-.1,1.26-.14,1.9-.23A.86.86,0,0,1,47.38,23.71Z"/><path class="cls-103" d="M41,23.9s-.08-.07,0-.07a.68.68,0,0,1,.49.21c.16.08.32.23.56.13a3.89,3.89,0,0,0-1.14-.5c-.15.09-.07.17-.07.23S40.87,23.9,41,23.9Z"/><path class="cls-104" d="M28.82,9.71a8,8,0,0,0-1.49-1.43,9,9,0,0,1,1.25,1.37C28.66,9.64,28.67,9.71,28.82,9.71Z"/><path class="cls-32" d="M20.05,25.44a.16.16,0,0,1,0-.25,1.15,1.15,0,0,0,.57.29,7.84,7.84,0,0,0-1-.73c-.14.23.33.21.26.46a.11.11,0,0,1,0,.16A.29.29,0,0,0,20.05,25.44Z"/><path class="cls-4" d="M8.66,6.17a2.07,2.07,0,0,1-.14.56c.31-.09.49.21.8.13a.26.26,0,0,0-.09-.23c-.08,0-.08-.08-.16-.08s-.32-.15-.1-.4A.27.27,0,0,0,8.66,6.17Z"/><path class="cls-105" d="M29.93,11.32c-.08.08-.16.08-.24.16.17.23.19.55.44.78A1.4,1.4,0,0,0,29.93,11.32Z"/><path class="cls-106" d="M7.26,19.77A6.88,6.88,0,0,1,8,18.94c.07-.15,0-.14-.09-.23a.22.22,0,0,0-.15.25,3,3,0,0,0-.6.82Z"/><path class="cls-107" d="M18.94,36.5c-.08,0-.16.09-.24-.08a2.79,2.79,0,0,0-.94.45A3,3,0,0,0,18.94,36.5Z"/><path class="cls-108" d="M28.82,9.71a.43.43,0,0,0-.24-.14c.17.31.42.6.6.91.07-.08.23-.08.06-.23S28.91,9.87,28.82,9.71Z"/><path class="cls-109" d="M36.67,18.42c-.08,0-.09-.07-.17-.07a2.36,2.36,0,0,0,.14,1.26A6.76,6.76,0,0,0,36.67,18.42Z"/><path class="cls-110" d="M24.62,17.29c-.08-.15-.17-.39-.49-.29-.15.08.17.23-.06.23s-.24,0-.24.17a.09.09,0,0,0,.09.08C24.16,17.55,24.31,17.39,24.62,17.29Z"/><path class="cls-98" d="M29.76,5.73c.16,0,.4,0,.47-.25s-.09-.15-.09-.23C30,5,30,5,29.82,5.19s.1.39-.06.54Z"/><path class="cls-111" d="M9,6.15c-.07.1-.31.19-.22.25s.32.23.56.29V6.62c.07-.16,0-.23-.1-.39l-.08-.08Z"/><path class="cls-112" d="M27.77,13h.16c-.33-.31-.59-.77-1-1A8.15,8.15,0,0,0,27.77,13Z"/><path class="cls-18" d="M23.92,17.56l-.08-.08a.65.65,0,0,0-.7.5A5.64,5.64,0,0,0,23.92,17.56Z"/><path class="cls-113" d="M19.42,5.23c.15-.08.48.07.63-.17a2,2,0,0,0-.65-.14C19.49,5,19.26,5.17,19.42,5.23Z"/><path class="cls-114" d="M31.62,21.08c-.08-.07-.17-.16-.09-.23-.33-.14-.65-.21-1-.35A6.94,6.94,0,0,0,31.62,21.08Z"/><path class="cls-115" d="M31.57,27.21c.08.25-.15.33-.14.48s-.07.25-.07.41a1.91,1.91,0,0,0,.37-.8C31.65,27.3,31.64,27.14,31.57,27.21Z"/><path class="cls-116" d="M30,14.78a.08.08,0,0,0-.08.08c-.16.08-.09-.15-.16-.07s.08.15.09.23l.16.15c.08-.08.17.15.24,0s0-.15-.09-.23Z"/><path class="cls-117" d="M5,34a.86.86,0,0,0,0-.16c-.39,0-.71,0-1.11,0v.08A10,10,0,0,0,5,34Z"/><path class="cls-118" d="M6.12,19.27c.08-.08.16,0,.24,0s.16.07.16,0-.08-.09-.17-.16-.31,0-.4-.21-.08.07-.16.07,0,.09,0,.17C6,19.19,6,19.19,6.12,19.27Z"/><path class="cls-21" d="M29.82,5.19c.15-.17.17.23.32.06A1.19,1.19,0,0,0,30,4.71C29.89,4.94,29.49,5,29.82,5.19Z"/><path class="cls-89" d="M35.63,22.09a.76.76,0,0,0,1,0C36.27,22.14,36,22.08,35.63,22.09Z"/><path class="cls-119" d="M45.49,24.1a1.07,1.07,0,0,0-1,.11A1.82,1.82,0,0,0,45.49,24.1Z"/><path class="cls-120" d="M20.4,35.42c0,.08.08.06,0,.15.16,0,.23-.17.38-.34,0-.14-.09-.22-.24-.13S20.4,35.26,20.4,35.42Z"/><path class="cls-121" d="M10.69,33.08c-.32-.06-.56-.14-.88-.2,0,.08,0,.08.08.16C10.21,33,10.38,33.25,10.69,33.08Z"/><path class="cls-122" d="M26.92,6.1c.08,0,.08,0,.16.07-.09-.31-.42-.53-.59-.84A2.4,2.4,0,0,0,26.92,6.1Z"/><path class="cls-123" d="M5.67,32.75v-.16l-.8,0A1.32,1.32,0,0,0,5.67,32.75Z"/><path class="cls-124" d="M40.79,23.76a.25.25,0,0,1,.07-.24c-.09-.08-.16-.08-.25-.15s-.23.09-.07.24S40.71,23.76,40.79,23.76Z"/><path class="cls-40" d="M26,32.65c.32,0,.47-.25.78-.26v-.16A3.41,3.41,0,0,0,26,32.65Z"/><path class="cls-125" d="M21.24,34.59c-.32-.06-.31.25-.46.42s.08,0,.16,0A.74.74,0,0,0,21.24,34.59Z"/><path class="cls-40" d="M26.7,32.23c.32.07.46-.25.62-.42A1.37,1.37,0,0,0,26.7,32.23Z"/><path class="cls-3" d="M18.9,13.61c.09.15.17.15.33.14s0-.16.07-.24A.82.82,0,0,0,18.9,13.61Z"/><path class="cls-126" d="M49.75,23.53c.24.07.41.14.64,0A1.73,1.73,0,0,0,49.75,23.53Z"/><path class="cls-23" d="M4.55,14c.16.08.17.32.4.23-.16-.07-.4-.14-.17-.39A.42.42,0,0,0,4.55,14Z"/><path class="cls-100" d="M42.65,24.54c-.16-.08-.32,0-.48,0l-.07.08A.69.69,0,0,0,42.65,24.54Z"/><path class="cls-23" d="M3.93,14.4a.51.51,0,0,0,.46-.33C4.16,14.15,4.08,14.32,3.93,14.4Z"/><path class="cls-28" d="M7.18,19.78a.4.4,0,0,0-.22.39C7,20,7.18,19.92,7.18,19.78Z"/><path class="cls-127" d="M16.65,16.54a9.86,9.86,0,0,1,2.63.28c.15-.17-.17-.23,0-.48.26.39.56.06.88.2a1.22,1.22,0,0,0,.56.06,14,14,0,0,1,1.83.07.08.08,0,0,0,.08-.08c0-.15-.09-.31-.33-.22s-.64-.14-.81-.36-.1-.39-.32-.14c-.08.07-.4,0-.4,0-.16-.16-.17-.31.06-.41-.09-.22-.41-.29-.5-.6,0-.08-.08-.07-.16,0s-.15.24,0,.3c-.24,0-.25-.21-.41-.29-.15.25-.47.25-.62.43,0,0-.08.07-.08,0-.17-.23-.4-.14-.64-.14a1,1,0,0,1-.65-.36c-.08,0-.16.17-.16,0,0-.4-.17-.15-.24-.07s-.31.17-.39.33-.15.17-.23.09.07-.16.07-.25c-.39.11-.46.5-.77.68-.15.07-.14.4-.37.49,0,.06,0,.23.16.15s.16.07.25.14C16.1,16.71,16.33,16.55,16.65,16.54Z"/><path class="cls-128" d="M16.65,16.54l-.87,0a1,1,0,0,1-.4.1c-.15.08-.16-.15-.24-.23a12.84,12.84,0,0,1-.4-1.71c-.17-.23-.23,0-.23.09s-.22.39-.06.55c-.15.09-.14.32-.3.41s-.15.08-.24-.15-.09-.31-.33-.15c-.06.25.1.48,0,.79-.25-.14-.41-.37-.73-.37a.29.29,0,0,1-.48,0,8,8,0,0,0-3.15-1.19H9.1c-.07,0-.23,0-.23.1s.09.15.25.22c.32.14.72.21,1.13.35.16.06.24.14.24.22s.09.15.25.15a1.16,1.16,0,0,1,.56.13,5.25,5.25,0,0,1,2.22,1.71l.08.08c.08.08.24,0,.32,0s.39-.17.55,0,.32,0,.47-.19c0-.06,0-.14.08-.07.24.07.48.22.63-.1.07-.1.32,0,.39-.18s-.16-.07-.25-.15a.25.25,0,0,0-.23.09c-.08.09-.24.09-.31.1a7.08,7.08,0,0,1,.85-.35C16.26,16.63,16.5,16.69,16.65,16.54Z"/><path class="cls-129" d="M18.79,11c-.17-.23-.39,0-.55,0h-.4c-.16,0-.53.5-.53.58s.08.06.16.06h.32a.45.45,0,0,0-.47.1c-.23.15-.32.09-.33-.15,0-.08.07-.24-.09-.24s-.15.1-.22.25-.08.17-.15.25a.42.42,0,0,0,.14-.32.7.7,0,0,1,.22-.56.59.59,0,0,0,.05-.63c-.09-.24-.25-.24-.48-.14a4.88,4.88,0,0,0-1.59,1.8c-.08.16-.23.32,0,.47s.57.29.87,0c.08.08,0,.31.09.31.24-.09.41.3.56,0s.39-.18.54-.26.33.14.34.37c.15-.08,0-.46.22-.48s.24.23.48.14c-.08-.07-.56-.14,0-.31,0-.33.23-.1.38-.18s.15-.32.3-.48.32.06.48.06C19.13,11.39,18.88,11.25,18.79,11Z"/><path class="cls-130" d="M14.72,12.44c-.17-.3.14-.55.29-.79a3.69,3.69,0,0,1,1.06-1.23c.15-.08.39,0,.38-.33-.08,0-.16-.07,0-.17s.31-.23.47-.32a.31.31,0,0,0,.14-.41.41.41,0,0,0-.4,0,10.29,10.29,0,0,1-1.15.92,3,3,0,0,0-.75,1,4.22,4.22,0,0,1-.68,1,5,5,0,0,0-.33,1.51.47.47,0,0,1,.09.31.33.33,0,0,0,.33.29c.16,0,.4-.08.31-.31s.14-.33.14-.48A8.36,8.36,0,0,0,14.72,12.44Z"/><path class="cls-131" d="M14.45,13.56c-.07.08-.07.15-.22.25s-.08.15-.07.24.24.06.08.14-.15.17-.23.1a.4.4,0,0,1-.17-.31c0-.08.07-.25-.09-.23A3.73,3.73,0,0,0,13.56,15c0,.15-.06.31.1.46.24-.08.09.16.17.23s0,.16.09.23c.07-.23.48.06.39-.33,0-.15,0-.15.07-.17.39-.08.15-.23,0-.38.24,0,.31-.1.23-.25s-.09-.23.15-.16c-.09-.31-.27-.71-.12-1C14.61,13.55,14.53,13.56,14.45,13.56Z"/><path class="cls-132" d="M7.6,13c.17.23.41.31.57.46s.42.45.2.77c-.08.09-.07.25-.15.25s-.32,0-.25-.31c-.07.17-.15.33-.31.33-.08-.15.15-.4-.1-.46-.15.15-.4-.08-.55.1s-.07.24.1.3c-.08.09-.24.1-.15.25s.32.06.56.06.55,0,.87,0c.08,0,.24.07.31-.09a1,1,0,0,0,.06-.48c0-.31-.26-.62,0-.87.08-.08,0-.23,0-.31s-.26-.54,0-.79a.91.91,0,0,0,0,.63c0,.08.09.16.25.14s.15-.08.14-.23.07-.32.06-.48,0-.31.15-.4a.79.79,0,0,1,.63,0c.08,0,.09.08,0,.08-.15.25.17.31.25.46.26.31.81.27.91.75,0,.08.17.15.24.06s.32,0,.39-.16,0-.09-.08-.09c-.25-.21-.18-.45,0-.7a1.1,1.1,0,0,0,.28-.72c0-.15.16-.08.16-.16,0-.24-.1-.31-.33-.3s-.33-.3-.58-.37c.1.31.34.46.27.69,0,.08,0,.16-.07.17-.17-.15-.48,0-.55,0-.33-.15-.16,0-.16.17a1.72,1.72,0,0,1,.19.62,1.76,1.76,0,0,1-.44-.94.38.38,0,0,1-.17-.23c-.08-.14-.17-.37-.4-.21-.08,0-.16,0-.17-.15-.08,0-.07.09-.07.16a.16.16,0,0,1-.15.16.15.15,0,0,1-.09-.23c0-.07.15-.16.07-.23s-.08.16-.16.08c-.49-.29-.63.19-.94.36.09.15.24-.09.32.06s-.07.16-.15.17a.1.1,0,0,0,0,.15c0,.08.09.16,0,.16s-.16,0-.17-.07-.08-.16-.15,0a.24.24,0,0,0-.07.23c-.24,0-.32.1-.3.41,0,.08.09.31-.15.4S7.52,12.92,7.6,13Z"/><path class="cls-133" d="M6.71,8.94c.08.07.09.23.17.31s.17.15-.07.23-.14.33-.06.32a.68.68,0,0,1,.11.85c0,.08-.07.17.09.25s.25.14.41.21c.31-.25.3-.48,0-.71-.17-.23.14-.39,0-.62,0,0,.15-.17.16,0s.25.15.33.3c-.16-.07-.24-.07-.23.16s.09.23.09.32c0,.31-.21.56,0,.85.08.08.09.25.25.24s.23-.18.06-.41-.17-.29.14-.39a.24.24,0,0,0,.15-.32c-.16,0-.07.24-.15.17s0-.16,0-.25a.84.84,0,0,1,0-.62c0-.17.15-.09.23-.17s-.08-.07-.09-.15c.09.07.09.07.09.15s0,.24-.07.31-.15.25.1.32.4.06.56.2c0-.15.07-.23.06-.38-.16,0-.31.17-.31.09s-.18-.39-.1-.55l.07-.08c.16.07.09.15.1.31.07-.08.14-.24.31-.18.06-.23.14-.39-.11-.54-.25-.3-.5-.6-.88-.12a.61.61,0,0,1,.31-.32.31.31,0,0,0,0-.56s-.16,0-.08-.07c.07-.24-.25-.3-.26-.54,0-.08,0-.16-.09-.15-.23,0-.23.17-.3.32S7.54,8,7.62,8c.25.23.26.31.11.62,0,.17-.14.33-.3.49,0-.16-.17-.24-.17-.38S7,8.53,6.78,8.62A.7.7,0,0,1,6.71,8.94Z"/><path class="cls-134" d="M6.78,8.62H7c.16,0,.24.06.09.23s.09.08.09.16.4,0,.08.15a.23.23,0,0,0,.17.06,1,1,0,0,0,.51-1,1.69,1.69,0,0,1,0-.23.12.12,0,0,0-.16,0c-.08,0,0,.23-.16.09s0-.23.07-.32a.94.94,0,0,0,.22-.32c.09.23.1.39.27.53s.08.09,0,.17-.15.16,0,.23.23-.17.24.07-.14.24-.14.32c-.16-.07-.07.16-.15.17s0,.15-.15.24c.16.07.16,0,.23-.09a.55.55,0,0,1,.39-.17c.32-.1.17.22.33.29s.4.06.26.39v.15c.27.54.27.54.67.61a3.23,3.23,0,0,0-.61-1.16c-.16-.16-.17-.3.06-.39.08,0,.08-.1.08-.16s-.09-.08-.17-.08c-.31,0-.63,0-.58-.53,0-.08,0-.08-.08-.14-.4-.15-.59-.69-1-1,0,.15,0,.23-.15.16-.07.08-.07.15-.15.15-.4,0-.3.34-.37.58a1.59,1.59,0,0,0-.37.65v.06c.08-.07.07-.23.23-.31C6.84,8.38,6.69,8.46,6.78,8.62Z"/><path class="cls-135" d="M9.23,6.63c0,.06.09.15.09.23s0,.23-.14.31S9,7.42,9,7.58s.09.15.25.23.24.07.09.23v.08c0,.07.08.07.15,0s.24-.09.4.06.24-.09.48,0c-.14.4-.13.79.36.93.16.07.16,0,.31-.1-.08-.08-.31.1-.24-.14,0-.08,0-.08.07-.08s.09.08.09.14.07-.07,0-.14a2.37,2.37,0,0,1-.42-.55,1.15,1.15,0,0,1,0-.62A5.6,5.6,0,0,0,9.72,7c-.08-.08-.24-.15-.24-.23S9.46,6.46,9.23,6.63Z"/><path class="cls-136" d="M11.85,8.32a3.28,3.28,0,0,1,.42.54A1.23,1.23,0,0,0,12,8.23.21.21,0,0,0,11.85,8.32Z"/><path class="cls-137" d="M7.93,11.56a3.61,3.61,0,0,0-.25-.3.07.07,0,0,0-.07.08v.16c.09.15.1.31.18.46a.17.17,0,0,0,.25.15c.07-.08,0-.17,0-.24S7.94,11.64,7.93,11.56Z"/><path class="cls-138" d="M12.14,11.54c-.16,0-.49-.31-.23.15.09.17-.06.41-.22.5s-.21.56-.2.87c0,.15.16,0,.25.15-.07.16-.4-.06-.47.17l-.08-.07c0-.16-.17-.23-.26-.39a.15.15,0,0,0-.16-.14c-.24.09-.25-.15-.41-.22s-.49-.22-.26-.62c-.24.09-.33-.23-.65-.13s-.46.33-.44.73a.29.29,0,0,1-.07.24c-.08.08.17.14,0,.23s-.16-.07-.17-.23-.09-.32.06-.47-.09-.23-.33-.22a.34.34,0,0,1,.1.46c-.07.16.18.39.19.62a1.48,1.48,0,0,0,0,.16c-.55.18,0,.55-.13.8,0,.06,0,.31,0,.47a.16.16,0,0,0,.24,0c.22-.42,0-.88.26-1.27s.21-.65.61-.59c.16,0,.23-.25.48,0-.16-.06-.24-.06-.32.1s0,.31.1.31c.4.05.57.45.9.59a.08.08,0,0,1,.08.08c.11.61.66.67,1,1.06a.79.79,0,0,0,.4.05c.08,0,.15-.08.23-.17a.16.16,0,0,0-.17-.14c-.24-.07-.17-.4-.34-.54s-.17-.38.06-.55c.07-.08,0-.31,0-.39-.18-.47-.18-.55.21-.8a1.41,1.41,0,0,0,.67-1c.07-.17.23-.25.3-.33s0-.16-.08-.15c-.15.24-.24,0-.32-.07s-.09-.15-.17-.15,0,.16-.07.16c-.15.24-.07.39,0,.71s-.23.25-.3.47-.07.17-.16,0A1.05,1.05,0,0,1,12.14,11.54Z"/><path class="cls-4" d="M9.23,6.63c.16-.09.17.15.25.14s.14-.33,0-.47a.32.32,0,0,0-.39-.07A.91.91,0,0,1,9.23,6.63Z"/><path class="cls-22" d="M11.69,10.21c0,.09,0,.23,0,.32s.09.08.08,0a.24.24,0,0,0,0-.32Z"/><path class="cls-139" d="M11.57,33.19l-.24,0c.18.39.57.29.89.36A5.93,5.93,0,0,0,11.57,33.19Z"/><path class="cls-140" d="M16.58,9.38c.16,0,.23-.09.39,0a.3.3,0,0,0,.24-.09,5.24,5.24,0,0,1,.51-1,2.77,2.77,0,0,1,.9-1.22,3.79,3.79,0,0,1,.54-.5l.07-.08L20,5.92l.08-.08c0-.08.07-.17.06-.31a4,4,0,0,1-1,.51c-.08,0-.07.08-.15.09-.33-.23-.23.16-.39.25s-.14.48-.37.64c-.09-.31-.41-.29-.57-.37-.07.17,0,.48-.3.33,0,.16-.32.1-.15.32v.08c-.33-.15-.23.17-.39.26s-.14.32-.39.17a.32.32,0,0,0-.15.24c.09.24-.06.39-.21.56a.5.5,0,0,0,.26.62C16.5,9.3,16.5,9.38,16.58,9.38Z"/><path class="cls-33" d="M16.58,9.38c0-.08.07-.17-.09-.23s-.41-.23-.26-.48l-.08-.06c-.08,0-.08,0-.16.08a1.09,1.09,0,0,1-.71,0,.15.15,0,0,0-.24.08c-.07.17,0,.16.17.23-.23.17-.47.1-.63.19s-.24,0-.31,0-.24,0-.08.17c.25.31.58.53.68.91.09.23.33.31.48.15a3.72,3.72,0,0,0,.6-.9c0-.08-.09-.08,0-.15.1.46-.29.72-.35,1A13.2,13.2,0,0,0,16.58,9.38Z"/><path class="cls-141" d="M14.5,9.07a.86.86,0,0,0,.63,0c.08-.09.16-.09.15-.25s-.07.09-.16,0L15,8.73c.08-.08.15-.16.16-.08.16.23.4.06.64.13.08.08.07-.09.15-.16-.08-.08-.16-.08-.25-.16s-.24-.06-.16-.14.15-.09.15-.09.24,0,.08-.16.06-.4-.19-.54c-.08-.07.16-.09.15-.24l-.25-.23c0,.15-.46.17-.14.4.09.08-.22.25.1.31-.16.09-.41-.22-.39.17,0,.16-.24,0-.32,0,.09.23.32.14.41.3-.08.08-.24-.07-.23.16s-.15.25-.31.18C14.41,8.76,14.57,8.9,14.5,9.07Z"/><path class="cls-142" d="M17.63,6.19c.32,0,.33.21.41.37.16-.08.15-.33.39-.33a.07.07,0,0,0,.07-.08c-.09-.31,0-.55.38-.5.16,0,.39-.17.56.06s.15-.08.07-.16-.09-.23-.09-.32c-.32.1-.64-.12-.87.21a.24.24,0,0,0-.31.17,1,1,0,0,1-.14.48s0,.06-.07.08A1.48,1.48,0,0,1,18,6C17.86,6,17.69,5.79,17.63,6.19Z"/><path class="cls-58" d="M15.64,6c-.31.1-.38.34-.37.64s.09.16.32.08a1,1,0,0,1,.24,0c0-.08-.17-.15-.09-.31s.24.06.32.06C16.13,6.25,15.8,6.17,15.64,6Z"/><path class="cls-143" d="M17.63,6.17c.07-.23.24-.07.39-.08-.09-.31-.4-.15-.48-.29-.16.08.09.31-.15.32A.45.45,0,0,1,17.63,6.17Z"/><path class="cls-58" d="M16.43,5.92c-.08,0-.16,0-.15.17s.16.06.24.14C16.51,6.08,16.51,6,16.43,5.92Z"/><path class="cls-144" d="M7,16.56c.08,0,.08,0,.16.07a.31.31,0,0,0,.15-.32c0-.08-.09-.23,0-.31-.15.23.1.39.26.54a.6.6,0,0,1,.18.3l.08.08c.25.22.4.06.63-.11a.52.52,0,0,0-.06.48c-.08-.08-.25-.23-.4-.06-.16-.08-.31.09-.23.16a.5.5,0,0,0,.57.28c-.15.18-.32.11-.47.11s-.32,0-.31.16-.08.17,0,.17c.32.06.42.37.5.53.32,0,.47-.26.7-.34s.47-.11.62-.36.31-.31.38-.55.14-.32-.17-.24c-.16,0-.17-.06-.25-.14a1.54,1.54,0,0,0-.17-.38c-.09-.17-.25-.31-.26-.54s-.18-.31-.42-.38c.31-.25.31-.33,0-.48-.16-.06-.08-.14-.09-.22s-.24,0-.39,0-.32.1-.48-.06c0-.23-.17-.14-.33-.14,0,0-.08,0-.07.08a.36.36,0,0,0,0,.4c.09.23,0,.31-.22.24a.34.34,0,0,0-.24.09.27.27,0,0,0,.09.23c.32.15.17.31.18.47S6.88,16.48,7,16.56Z"/><path class="cls-145" d="M8,18.71a.43.43,0,0,0-.35-.54c-.07,0-.23.1-.16-.14s.07-.16.23-.09a.6.6,0,0,0,.63-.1c0-.4-.56-.15-.65-.45.08-.08.32,0,.23-.24,0-.08.07-.08.08,0a.44.44,0,0,0,.32.15h.08c0-.07,0-.07-.08-.07-.24-.07-.17-.15,0-.25s-.09-.23,0-.31c-.14.25-.3.42-.62.27-.16.09-.16.09-.48-.13s-.4,0-.39.25a.54.54,0,0,1-.22.48c-.08-.08,0-.16,0-.24s.16-.09.15-.24a.94.94,0,0,0-.32-.14c-.23.17-.48-.06-.79.11a.6.6,0,0,1,.58.61.18.18,0,0,0,.17.15A.32.32,0,0,1,6.7,18c-.63,0,0,.32-.14.48.16-.08.24-.16.39-.25a1.57,1.57,0,0,0,.1.55c.08-.16.06-.48.32-.09,0,.08.16.06.17.23s.16,0,.24.06S7.85,18.8,8,18.71Z"/><path class="cls-145" d="M7,16.56H7c.15-.16,0-.31,0-.39s0-.32-.17-.31-.08-.07-.09-.15.08,0,.16,0c.24.08.32-.08.55-.17-.32-.14-.25-.38-.26-.62a2,2,0,0,0-1.5.29c0,.33.19.63.12,1,.16,0,.07-.24.23-.25s0,.24.17.3c0,.17.16.08.24.16S6.72,16.48,7,16.56Z"/><path class="cls-146" d="M5.63,15.19a3.25,3.25,0,0,1,1.5-.29.23.23,0,0,1,.31,0,.42.42,0,0,0,.32,0h.32a.48.48,0,0,0,.24-.09c.07,0,.15,0,.15-.09s-.08-.07-.16-.15a9.72,9.72,0,0,0-1.43.06,1.64,1.64,0,0,0-.87.12c-.31.09-.62.26-.94.36a.16.16,0,0,0-.15.16c-.08.08-.08.08-.07.15A5,5,0,0,0,5.63,15.19Z"/><path class="cls-145" d="M7.6,16.77c.23-.33-.09-.39-.18-.54s-.32-.08-.09-.33-.17-.14-.25-.13c0,.31.19.54,0,.78A1.71,1.71,0,0,0,7.6,16.77Z"/><path class="cls-146" d="M4.85,15.55a.74.74,0,0,0-.54.34.51.51,0,0,1,.31-.09Z"/><path class="cls-147" d="M6.32,16.42c-.08-.06-.16-.06-.25-.14-.07.09-.15.09-.23.16C6.08,16.44,6.16,16.52,6.32,16.42Z"/><path class="cls-148" d="M19.52,15a.5.5,0,0,0,.57.36c0-.15-.25-.22,0-.4a1.43,1.43,0,0,0,.58.62c.24.13.15-.18.3-.25s-.06.24.09.23,0-.16.07-.24c.23-.17.39-.34.62-.34s-.07.16,0,.23.24-.09.32-.09h.24c.15-.08.15-.17.14-.32a.49.49,0,0,1-.64-.14c-.09-.14-.32-.13-.56,0s-.39.08-.48-.15-.24.1-.24-.06c-.08.08,0,.08,0,.16s-.06.24-.15.15-.15.18-.22.25c-.1-.31-.49-.29-.74-.52.08.16.17.32,0,.4.09.08.09.08.16,0A.34.34,0,0,0,19.52,15Z"/><path class="cls-149" d="M19.52,15a.31.31,0,0,0,.07-.24h-.16c-.24-.14-.32,0-.39.18-.08-.08.07-.16-.09-.23s-.07.08-.15.16-.07.24-.23.09-.49-.23-.73-.29h-.08c-.08.09.08.08.09.23s-.16-.06-.24,0c.09.15-.07.16-.06.31.15,0,.39-.17.4.23.16-.09.32.06.48,0a.31.31,0,0,1,.48.13c.08,0,.25.23.23-.09,0-.08.08,0,.16-.08S19.53,15.23,19.52,15Z"/><path class="cls-148" d="M21.63,14.27c-.23.09-.25-.46-.56-.13C21.23,14.21,21.33,14.52,21.63,14.27Z"/><path class="cls-150" d="M17.13,9.19a.27.27,0,0,0-.16.09c0,.39-.38.41-.61.66-.07.08-.23.09-.22.23s.15-.07.31-.08c.32,0,.32,0,.25.31,0,.06-.07.16.08.06s.16,0,.09.09a1,1,0,0,0-.28.95c0,.15-.15.17-.15.23s0,.17,0,.17.08,0,.15-.08.15-.32.22-.49c.16.07,0,.15,0,.24s0,.31.09.31a1,1,0,0,0,.48-.1c.14-.32.31-.17.47-.11.06-.38-.25-.13-.41-.21.32-.09.22-.48.53-.57,0-.08-.16-.07,0-.16s0-.31.05-.56-.25-.29-.18-.53c0-.08-.16-.07-.25-.24-.08,0-.08,0-.16-.06s-.24-.15-.31.08C17.06,9.44,17.21,9.35,17.13,9.19Z"/><path class="cls-151" d="M19.21,7.85c.08-.08.16-.09.16.07s-.07.16-.06.31c.16,0,.3-.4.39,0l.16-.15c.07-.16.06-.48.46-.26a3.36,3.36,0,0,1-.5-.61,1.19,1.19,0,0,0,0-.15c.16-.1.16.07.16.07s.24-.09.25.14a.08.08,0,0,0,.08-.08.14.14,0,0,0,0-.23C20,6.79,20,6.48,20,6.23c-.08,0-.16,0-.16.09a1.14,1.14,0,0,0-.06.48c-.07.16-.07.08-.16,0-.31.17-.62.34-.68.73S18.82,8,19.21,7.85Z"/><path class="cls-152" d="M19.08,6.52A5,5,0,0,0,17.86,7.9a.67.67,0,0,0-.14.33c.09.15.16,0,.32,0s.15-.25.22-.25.23-.32.38-.4c0-.08.07-.24.24-.1H19c.08,0,.07-.08.07-.16C18.94,7,19.32,6.73,19.08,6.52Z"/><path class="cls-153" d="M19.08,6.52c0,.07.08.15,0,.23s-.15.23-.07.4,0,.16-.07.24-.08,0-.16-.07-.08-.09-.16,0c-.06.32-.46.41-.44.73a.27.27,0,0,0,.09.23c.07-.16.14-.32.39-.17.16,0,.24,0,.23-.17s.07-.25.15-.25c0-.38.37-.48.6-.81a.71.71,0,0,1,0-.15C19.4,6.65,19.31,6.51,19.08,6.52Z"/><path class="cls-154" d="M18,8.21c-.09-.07-.24,0-.32,0a6,6,0,0,0-.51,1c-.08.09-.07.25-.15.41.16-.09.24-.18.4-.1a.23.23,0,0,1,.07-.16l.08-.08c.07-.16-.32-.07-.09-.23.07-.09.23-.09.31-.17C17.82,8.62,18,8.44,18,8.21Z"/><path class="cls-155" d="M19.15,6.42a.44.44,0,0,0,.49.31c.16-.09.23-.17.22-.33L20,6.23c.07-.08-.09-.14,0-.31a.07.07,0,0,0-.08-.07c-.16-.07-.15.09-.31.17A1.86,1.86,0,0,1,19.15,6.42Z"/><path class="cls-154" d="M17.54,9.57c0,.08,0,.16.09.16l.08.07c.09.39.1.47.26.54.07-.17.15-.24.14-.4H18c-.24,0,0-.07,0-.15V9.71c.08-.08,0-.16.07-.25s0-.07-.09-.14C17.86,9.56,17.61,9.4,17.54,9.57Z"/><path class="cls-152" d="M19,7.62c-.16-.16-.15.07-.23.17s-.07.24-.15.24-.07.08-.07.16c.16.07.15-.25.31-.17a.77.77,0,0,0-.14.4c0,.08,0,.08.08.06h.08c0-.31.22-.39.37-.56V7.84C19.05,7.85,18.9,7.86,19,7.62Z"/><path class="cls-156" d="M18,9.55c-.07,0,0,.08,0,.16s-.07.16,0,.23a1.05,1.05,0,0,0,.37-.73l-.08-.06c-.17-.15-.16,0-.24.08S18.17,9.46,18,9.55Z"/><path class="cls-29" d="M18.52,10.23a5.73,5.73,0,0,0,.29-.71C18.58,9.76,18.42,9.85,18.52,10.23Z"/><path class="cls-29" d="M18,9.55c.16.07.15-.09.23-.17s0-.15.15-.17c-.34-.37-.32.1-.39.19A.1.1,0,0,1,18,9.55Z"/><path class="cls-151" d="M20.27,8.35C20,8.36,20,8.21,20,8c-.15.1-.15.25-.06.33S20.11,8.52,20.27,8.35Z"/><path class="cls-157" d="M15.94,18.61a.28.28,0,0,0,.33.29c0-.23-.17-.37-.26-.53.16-.08.17.23.33.15s-.17-.15-.1-.31c.24,0,.24,0,.33.21.08.08.09.16.16,0s.23-.09.31-.09a.22.22,0,0,0,.23-.25c.24-.1.22-.41.54-.49a.27.27,0,0,0-.17-.07c-.08,0-.16-.08-.24-.15s.16,0,.15-.16a3.57,3.57,0,0,0-1.58.21c0,.17-.06.33-.06.48Z"/><path class="cls-158" d="M18.28,19.46c.32.06.64,0,.88.11s.07-.17.15-.17h.16a.36.36,0,0,0,.31-.17c0-.15-.09-.23-.25-.31s-.39.11-.48-.13H19c-.23.16-.31.16-.48-.15-.16.1-.07.33-.3.42s0,.07,0,.14C18.35,19.21,18.35,19.21,18.28,19.46Z"/><path class="cls-159" d="M19.53,18.85c.25.3.25.3-.22.48.49.22.79-.19,1.18-.28.16,0,.39-.11.55-.11.06-.39,0-.48-.49-.29.16.06.32-.09.41.14-.48,0-.87.19-1.28,0A.24.24,0,0,1,19.53,18.85Z"/><path class="cls-160" d="M17.59,18.15c0,.08.17.15-.07.24-.08,0-.16,0-.15.16s.17.14.32.14.24,0,.16-.16-.17-.15,0-.24.15,0,.16.08.16,0,.15-.09c-.17-.23.07-.24.14-.4s0-.23-.24-.23-.16.08-.23.25S17.75,18.06,17.59,18.15Z"/><path class="cls-161" d="M20.51,17.71A3.24,3.24,0,0,0,19,17.3l-.07.08c.08.08.16.06.24.15.4.06.89.2,1.29.26C20.51,17.79,20.51,17.71,20.51,17.71Z"/><path class="cls-118" d="M17.27,18.08a.28.28,0,0,1-.39.18c-.16-.07-.16-.07-.15.16.32.06.55-.19.86-.27C17.51,18.07,17.35,18.15,17.27,18.08Z"/><path class="cls-161" d="M18.91,17.38a.62.62,0,0,0-.72-.12A1,1,0,0,0,18.91,17.38Z"/><path class="cls-160" d="M18.29,17.88a.31.31,0,0,0,.09.23c.08-.17.07-.31.3-.4C18.44,17.64,18.37,17.8,18.29,17.88Z"/><path class="cls-162" d="M14.5,20.09c.07-.08.23-.09.31-.17v-.08c.39,0,.22-.4.36-.65,0-.07,0-.15.08-.15.15-.17.15-.17-.1-.33,0-.14.24-.07.24-.15s.06-.24-.09-.23-.24.07-.17-.08,0-.15-.16-.15-.16.09-.15.17a.32.32,0,0,0,.09.38c.09.08,0,.16-.07.17h-.08a1.17,1.17,0,0,1-1.12-.27h0v-.07c.31-.33.23-.41-.18-.56l-.08,0c-.23.08-.48-.06-.79-.05s-.31.17-.3.41.33.3.41.45.24-.1.31-.17h0c-.07.15-.31.17-.3.4s.09.08.17.16a.78.78,0,0,1,.41.3c.08.07.08.07.16.07.4,0,.25.3.34.45s.17.31.33.3a.81.81,0,0,0,0-.15.16.16,0,0,1,0-.24c.08-.08.16,0,.24.07A.18.18,0,0,1,14.5,20.09Z"/><path class="cls-163" d="M13.45,17.92c.09.31.24.08.4.06-.15.17-.14.41-.38.35-.08,0,0,.07,0,.15a1.28,1.28,0,0,0,1.36.42c0-.08-.08-.17-.09-.25a.29.29,0,0,1,.09.25c.24,0,.4,0,.15-.33a.36.36,0,0,1,.06-.47c.24.07,0,.3.1.47a.51.51,0,0,1,.31-.17,1.83,1.83,0,0,0-.44-.85c-.15,0-.22.32-.47.1-.08-.08-.16,0-.17-.23-.15.23-.47.18-.69.42C13.52,17.77,13.45,17.85,13.45,17.92Z"/><path class="cls-39" d="M15.64,17.05a.24.24,0,0,0,.15-.09c.08,0,.16-.08.23-.16a1.76,1.76,0,0,0-.94.28v.07A1.15,1.15,0,0,0,15.64,17.05Z"/><path class="cls-164" d="M19.13,17.06c.24-.1.4.06.64.05a1.53,1.53,0,0,0-.81-.36C18.89,17,19.13,17,19.13,17.06Z"/><path class="cls-165" d="M15.91,17.9c0-.15.31-.25.06-.48C15.58,17.6,15.91,17.75,15.91,17.9Z"/><path class="cls-166" d="M11.82,22.33c0,.15.08.23.16.07s.07-.17.15-.25-.09-.06-.17-.06c.08-.08.24,0,.32-.09s.15-.17,0-.24-.24-.07-.18-.32a1.28,1.28,0,0,1,.3-.55.21.21,0,0,0,.15-.09c.08-.09.32,0,.31-.17s-.24-.15-.25-.3a.11.11,0,0,1,0-.16c.08.08.09.23.16.23s.41.29.39-.17v-.08c.22-.33.22-.33-.1-.55a.08.08,0,0,0-.09-.07c0,.08,0-.09,0,0h0c.15-.25,0-.24-.16-.15s-.39.08-.55.26-.14.24-.31.17-.15.15-.14.24-.31.33-.38.49-.16,0-.32,0a.31.31,0,0,0-.23.09.28.28,0,0,0,.08.15c.09.08.17.15.09.24s-.15.16-.23.09-.16-.08-.16,0c-.15.09-.23.09-.32-.06s-.24-.08-.24,0-.15.16-.23.24-.15.09-.14.25a.17.17,0,0,0,.16.15c.16,0,.17.15.33.14.14-.24.08.07.16.07s.16.06.24.06,0,.32.1.4c-.08.08-.16,0-.24,0-.08.16-.39.25-.22.4s.31,0,.47,0c0,.15-.06.4.26.38.07-.08.16.15.31,0a.38.38,0,0,1-.24-.16c-.08-.06-.08-.06-.09-.14s.08,0,.16,0,.32.07.39-.1,0-.31-.25-.45c.15-.09.24.06.32.14s.08-.08.08-.08v-.08C11.81,22.25,11.81,22.25,11.82,22.33Z"/><path class="cls-167" d="M10.12,21.78c-.16,0-.24-.23-.48-.22.16,0,.14-.33.39-.17.08.07.08,0,.07-.09s-.08-.15,0-.32c.08,0,.08.08.09.16v.07c.08.09.16.08.24.16.14-.41.49.14.63-.2s0-.38-.26-.46c.08,0,.16-.07.16,0,.16.08.24.07.4.15,0-.32.46-.42.45-.73a1.21,1.21,0,0,0-.56-.06c-.16,0-.23.08-.4-.06v-.09c0-.06-.08-.06-.08-.06,0,.39-.58-.38-.39.25-.07.16-.15.17-.31.25s-.07.08-.16-.07-.24-.08-.31.09a1.93,1.93,0,0,0,0,.24c0,.23-.32.09-.39.25a.24.24,0,0,0-.15.09c.17.3-.15.4-.3.56a.32.32,0,0,0,.24.07c.24,0,.32,0,.41.14s.23,0,.4.06c0,.08-.23.24-.07.24a.52.52,0,0,0,.47,0v-.09C10.29,21.92,10.29,21.85,10.12,21.78Z"/><path class="cls-168" d="M10.47,22.46a.55.55,0,0,0,.4.07c-.09-.15-.33-.38,0-.55V21.9c-.08-.07-.15.08-.23.08a.25.25,0,0,0-.07.33C10.38,22.31,10.39,22.39,10.47,22.46Z"/><path class="cls-167" d="M10.46,22.23c0-.08.07-.16.07-.33-.08,0-.17-.06-.24,0V22C10.22,22.15,10.3,22.23,10.46,22.23Z"/><path class="cls-169" d="M9.37,20.86h.16c.24.06.24,0,.23-.25-.08.08-.16.08-.32.08S9.29,20.79,9.37,20.86Z"/><path class="cls-170" d="M22.53,16.6a5.13,5.13,0,0,0-1.91-.08c-.16.09-.31.17-.23.33.26.3.57.13.81.2s.31,0,.08.14v.09c0,.08.08.07.16,0s.4.13.55-.1c0-.08.07-.25-.1-.31s0-.17,0-.17.07-.07.07-.07c.17.23.4,0,.64.05s.4.06.64.13a.08.08,0,0,0,.08-.09A2.71,2.71,0,0,1,22.53,16.6Z"/><path class="cls-171" d="M23.06,17.9a1,1,0,0,1,.7-.5c.15-.08.31-.08.54-.17,0-.16-.24-.08-.24-.23a.62.62,0,0,0-.33-.14c-.08,0-.08,0-.07.08.33.29-.15.4-.22.48a.94.94,0,0,1-.63.27.2.2,0,0,0-.22.23C22.75,18.08,22.9,17.76,23.06,17.9Z"/><path class="cls-148" d="M21.37,15.55c.08.07.16.07.25.14,0-.08.07-.08.07-.16s0-.16-.08-.07-.08.08-.08,0,.07-.08,0-.16c0,.08-.16,0-.16.09S21.37,15.46,21.37,15.55Z"/><path class="cls-110" d="M23.66,16.94h0c-.09-.07-.25-.23-.41-.14l-.07.08C23.33,16.88,23.5,16.94,23.66,16.94Z"/><path class="cls-172" d="M31,12c.23-.09.23,0,.25.23,0,.08,0,.31.16.07s0-.47.05-.71v-.09a6.54,6.54,0,0,0-.63-1.77c-.34-.54-.52-1.08-.86-1.62-.08,0-.17-.15-.16,0a14.3,14.3,0,0,1,.62,1.55c.32.14.25.38.19.62A11.7,11.7,0,0,0,31,12Z"/><path class="cls-173" d="M30.81,9.71a12.69,12.69,0,0,0,.63,1.77,9.31,9.31,0,0,0-.22-1.56C31.05,9.86,31,9.46,30.81,9.71Z"/><path class="cls-174" d="M29.71,8.1h.16c-.27-.54-.53-1.08-.79-1.54-.08-.08-.16-.08-.15.08.25.38.36.93.62,1.39C29.62,8,29.7,8,29.71,8.1Z"/><path class="cls-175" d="M28.93,6.56c.07-.08.07-.08.15-.08S29,6.32,29,6.25s-.17-.39-.34-.62c-.07.16.09.23,0,.31A3.33,3.33,0,0,1,28.93,6.56Z"/><path class="cls-176" d="M20.39,16.85c0-.16.15-.25.23-.33-.16-.08-.32,0-.48,0a1.36,1.36,0,0,1,0,.15c.08.08.08-.07.08,0s.08.08,0,.08-.16,0-.23.09A.37.37,0,0,0,20.39,16.85Z"/><path class="cls-171" d="M22,18.11c.16.15.32.06.47,0C22.35,17.94,22.2,18.11,22,18.11Z"/><path class="cls-72" d="M29.86,9.9c-.14.25.1.4.11.63.33.22.33.22.51.68,0,0,0,.09.08.08a6.35,6.35,0,0,0-.56-2c-.07.24.18.54,0,.79C30,10.06,29.94,9.9,29.86,9.9Z"/><path class="cls-72" d="M29,8.53c-.14.32.17.23.25.3C29.26,8.67,29.09,8.6,29,8.53Z"/><path class="cls-72" d="M29.6,9.37l-.07.07c.08.16.25.23.33.39C29.85,9.67,29.69,9.52,29.6,9.37Z"/><path class="cls-72" d="M29.27,8.9c-.07.25.09.31.25.39A.45.45,0,0,0,29.27,8.9Z"/><path class="cls-177" d="M12,14.77c-.09-.08-.17-.23-.26-.31a.07.07,0,0,0-.08-.07c-.55.09-.41-.37-.58-.6v-.16c-.47.1-.5-.53-1-.44,0-.07-.16-.14-.09-.23s.08.08.16.08a.16.16,0,0,0,.16-.16c.07-.09,0-.08-.09-.08s-.32-.22-.39,0H9.74c-.4-.06-.55.18-.7.5a2.54,2.54,0,0,0-.19,1c0,.07-.15.25-.06.4s.24.15.4.14a8.32,8.32,0,0,1,3,.89,1.41,1.41,0,0,0,.8.28,2.15,2.15,0,0,1,.82.59,3.94,3.94,0,0,0-.12-1,6.34,6.34,0,0,1,0-1.74c.12-.71.09-1.42.71-1.92a1.4,1.4,0,0,0,.29-.47c0-.09-.08-.09-.16-.09s-.16-.06-.16-.14c0,.08,0,.16.16.14a2,2,0,0,0,.3-.55c.07-.16-.09-.23-.25-.22-.48-.06-.56-.14-.66-.53,0-.08,0-.16-.09-.16s-.32-.06-.15.17a2.33,2.33,0,0,1-.43,1.12c-.07.15,0,.32-.06.48s-.14.23-.06.32,0,.31-.22.48-.21.56-.28.87c0,.16,0,.24-.14.33s-.22.48-.14.63c.34.37.2.78.06,1.18A1.79,1.79,0,0,0,12,14.77Z"/><path class="cls-178" d="M13.32,11.09c.15-.08.31-.17.22-.4,0-.08,0-.16.07-.16.31-.17.22-.4.13-.64-.08,0-.08.09-.15.09a.47.47,0,0,0-.37.64c0,.07,0,.07.08.16S13.23,11,13.32,11.09Z"/><path class="cls-179" d="M13.89,9.73c0,.08,0,.08.09.15s.16,0,.15-.17a.52.52,0,0,0-.26-.45.73.73,0,0,0-.16-.15C13.56,9.35,13.73,9.58,13.89,9.73Z"/><path class="cls-180" d="M4.36,15.26c-.33-.23-.63,0-.73-.44-.15.16-.31.32-.46.49s-.06.38,0,.55.16.15.24.14c-.09-.15.31-.25.06-.39s-.16-.15-.17-.31a.23.23,0,0,1,.32,0,.41.41,0,0,1,.17.3.86.86,0,0,0,0,.16C4.06,15.65,3.89,15.28,4.36,15.26Z"/><path class="cls-181" d="M4.83,15c-.09-.08-.17-.08-.24,0s.1.39-.23.32c-.07,0-.07.09,0,.07s.08.08.16,0,.15-.17.23-.17S4.91,15.07,4.83,15Z"/><path class="cls-8" d="M4.83,15c-.08.08,0,.23-.07.32.09.14.16-.09.24.07.08,0,.08,0,.16-.09.07-.24,0-.32-.33-.3C4.9,14.92,4.91,15,4.83,15Z"/><path class="cls-182" d="M30.52,10.27h0c.23-.17.14-.33.05-.47s-.16-.23-.24-.15A.83.83,0,0,1,30.52,10.27Z"/><path class="cls-181" d="M4.9,14.92c.09.15.25.14.25.29A7.6,7.6,0,0,1,7,14.67c.07-.16.23-.17.3-.33s-.47.1-.25-.22c-.24-.16-.39.17-.55,0-.07.24-.16,0-.32,0,0,.24-.22.33-.54.27v.15c.09.08,0,.16,0,.24a.15.15,0,0,1-.23,0C5.22,14.83,5.05,14.75,4.9,14.92Z"/><path class="cls-183" d="M13,19.76c0,.08-.15.32.16.14.08,0,.16,0,.16.08s0,.16-.07.17c-.32,0-.15.24-.22.31s-.09-.23-.25-.06-.08-.07-.16-.07.23-.18,0-.16-.24.09-.31.25c.24,0,.32.15.49.29-.25-.14-.39.18-.55.19s0,.23-.15.24c.09.15-.07.24-.06.32s-.15.32.17.3c.08,0,.08.08.16.14-.08,0-.07.1-.15.1a.49.49,0,0,0-.32.09c0,.24.25.06.33.14h.16c.08.07,0,.08-.08.08a.42.42,0,0,0-.06.32c.22-.25.36-.65.84-.67.09.31.18.39.56.14.08,0,.08-.09.16-.09a6.56,6.56,0,0,0-.14-1.25,3,3,0,0,1,0-.87.36.36,0,0,0-.1-.39l-.17-.15c-.15.09-.48-.06-.54.26.16.06.16,0,.08.06s-.23.1-.15.18.07-.16.16-.09.15-.09.23-.16C13.21,19.75,13.05,19.67,13,19.76Z"/><path class="cls-183" d="M11.82,22.33c.07-.08.07-.08,0-.16a.16.16,0,0,0-.24,0l.08.09A.3.3,0,0,0,11.82,22.33Z"/><path class="cls-184" d="M8.09,18.94c-.06.33.25.23.33.23.15-.16.24-.09.32,0s-.07.25-.06.41c.31-.18.56.21.87,0a.34.34,0,0,0,.24-.09c.07-.09.31,0,.4.14a.56.56,0,0,0,.79-.19v-.08c-.25-.23-.41-.46-.8-.28A.32.32,0,0,1,9.93,19a.89.89,0,0,0-.65-.13c-.31.08-.39,0-.49-.29C8.48,18.69,8.24,18.63,8.09,18.94Z"/><path class="cls-184" d="M12.81,19.53c.14-.24.39,0,.54-.26a.43.43,0,0,0-.33-.22c-.14.25-.31.09-.47.1s-.24-.07-.39,0c-.23.31-.55.18-.79.11s-.32,0-.31.25.18.47.48.06c0,.23-.15.31-.22.39.08.09.15-.08.23,0a.26.26,0,0,0,.4,0c.07-.16.24,0,.39-.09A.76.76,0,0,1,12.81,19.53Z"/><path class="cls-185" d="M8.1,18.94a3.16,3.16,0,0,1,.7-.27,5,5,0,0,0,1.26-.21c.07-.15,0-.23-.17-.23-.47,0-1-.1-1.34.23,0-.08.16-.09.15-.16-.23.08-.38.33-.69.41l-.08.09a.18.18,0,0,1,.17.14Z"/><path class="cls-169" d="M9.67,20.46c.07-.09.15-.09.23-.17.08.07.09.31.17.23s.47-.1.46-.41a1.42,1.42,0,0,1-.8-.13H9.57c-.07.25-.24,0-.32,0C9.11,20.48,9.43,20.39,9.67,20.46Z"/><path class="cls-186" d="M11.87,19.81c-.16,0-.32.17-.48.09a.37.37,0,0,1-.47.11c0,.22.17.14.25.14l.63,0c0-.08-.09-.15.07-.17S12,19.89,11.87,19.81Z"/><path class="cls-62" d="M8.62,20c.08,0,.08,0,.15-.09s-.08-.07-.16-.15-.25-.22-.48-.06c-.08,0,0,.16.08.08A.46.46,0,0,1,8.62,20Z"/><path class="cls-162" d="M14.44,20.64a1.48,1.48,0,0,1,.06-.55C14.26,20.17,14.19,20.34,14.44,20.64Z"/><path class="cls-134" d="M7.35,7.1c.15-.16,0-.16-.09-.23a1,1,0,0,0-.33-.22C7,6.88,7,7.11,7.35,7.1Z"/><path class="cls-133" d="M7.69,11.4v-.06a.65.65,0,0,0-.33-.15.07.07,0,0,1-.07.08c0-.15-.17-.15-.24-.06.08.07,0,.31.17.38s-.06.31.1.47c-.16-.08-.17-.31-.33-.3,0,.16.17.22-.15.24a1.8,1.8,0,0,1,.52,1c0,.08.17.23.24.07a1.77,1.77,0,0,0,0-.24,1.76,1.76,0,0,0,0-.94C7.46,11.65,7.62,11.57,7.69,11.4Z"/><path class="cls-187" d="M7.36,11.19a.65.65,0,0,0,.33.15v-.08c-.17-.23,0-.55,0-.8v-.07a.37.37,0,0,0-.4-.06v.07c.48.15.18.4.11.63C7.52,11.11,7.44,11.11,7.36,11.19Z"/><path class="cls-188" d="M31.45,11.57c-.23.25-.06.47-.05.71.08.07,0,.39.17.31s-.09-.24,0-.4a1.85,1.85,0,0,0,0-.23C31.46,11.88,31.61,11.64,31.45,11.57Z"/><path class="cls-189" d="M31.4,8.65c-.08-.07-.08-.07-.16.08s0,.17,0,.33.08.07.16.07C31.41,9,31.41,8.82,31.4,8.65Z"/><path class="cls-178" d="M13.87,9.26c-.07.16.17.31.18.45s0,.17-.07.17c0,.48.18.63.74.68.08,0,.16,0,.16.07a.07.07,0,0,1-.07.08,1.22,1.22,0,0,0-.22.56c.08,0,.09.08.17.08.3-.33.44-.73.75-1A1.66,1.66,0,0,0,16,9.56c.07-.16.14-.41-.25-.3a.88.88,0,0,1-.21.72.16.16,0,0,0-.15.16c0,.24-.23.25-.31.25s-.08-.16-.09-.31-.17-.16-.25-.31-.25-.22-.26-.46-.16-.08-.24,0S14,9.17,13.87,9.26Z"/><path class="cls-190" d="M10.73,15.69a.16.16,0,0,1-.16-.15,1.76,1.76,0,0,0-1.13-.42,4.57,4.57,0,0,1-.11,1.09c-.08.17,0,.33.25.39a.56.56,0,0,1,.43.61c-.07.23.25.31.25.46.25.15.56,0,.8,0a9.68,9.68,0,0,1,2,.07c.15,0,.24.07.39-.09s0-.24-.09-.31A6.54,6.54,0,0,0,11,15.6.34.34,0,0,1,10.73,15.69Z"/><path class="cls-191" d="M9.44,15.19c.4,0,.73.29,1.13.35.07-.16,0-.24-.17-.23l-1.21-.42c-.08,0-.16,0-.16-.07a2.73,2.73,0,0,1,1.36.25,5.64,5.64,0,0,1,1.54.64,2.44,2.44,0,0,0,.81.44c.24.06.16-.08.23-.17A10,10,0,0,0,9,14.73c-.08,0-.17-.06-.25-.06a.1.1,0,0,1-.15,0l-.32,0c0,.08.16.15-.07.16-.08,0-.16,0-.16.09A.46.46,0,0,0,8.4,15a1,1,0,0,1,.65.21A.59.59,0,0,0,9.44,15.19Z"/><path class="cls-192" d="M10.73,15.69a13.26,13.26,0,0,1,1.88,1.18,4.93,4.93,0,0,0,.66.59c.17.08.09.23.1.4l.08.06c.08-.07.16-.07.15-.23a2.8,2.8,0,0,0-1-1.14A4.9,4.9,0,0,0,11,15.67C10.89,15.67,10.81,15.53,10.73,15.69Z"/><path class="cls-13" d="M15.64,17.05c-.16,0-.32.09-.47.1C15.33,17.3,15.48,17.14,15.64,17.05Z"/><path class="cls-52" d="M7.69,11.4c-.4,0-.3.33-.21.56s.25.4,0,.64c-.07.07,0,.16.09.23s.09.15.16.07.08-.15.08-.15c-.17-.23.14-.4,0-.56.08-.15.25.15.32-.09C8,12.11,8,12,8,11.94S7.86,11.56,7.69,11.4Z"/><path class="cls-138" d="M11.34,13.07c.23-.17-.1-.31,0-.47h-.16c-.08,0-.08.07,0,.16A.67.67,0,0,0,11.34,13.07Z"/><path class="cls-193" d="M7.73,10.39h0c.15-.16-.17-.24,0-.47.15,0,.08.15.16.15,0-.17.15-.32-.17-.4-.08,0,0-.3-.25-.21s-.16,0-.15.16.17.39-.14.48c-.08,0,.16.07.16.15C7.48,10.15,7.57,10.4,7.73,10.39Z"/><path class="cls-4" d="M8.41,9.65c.15-.17-.17-.15-.17-.31C8.16,9.5,8.33,9.58,8.41,9.65Z"/><path class="cls-194" d="M12,14.77c0,.31.25.46.42.69a1.78,1.78,0,0,0,.28-.88c.07-.16-.09-.31-.1-.47s-.4-.21,0-.4c.07-.07-.09-.06-.09-.23.23,0,.31-.08.3-.4s0-.78.51-.89c.16,0,.15-.25.07-.23-.32-.15-.09-.31,0-.48a.79.79,0,0,1-.33-.37h-.08c.09.31-.22.48-.29.72s-.38.32-.53.5-.15.15-.15.32.18.29.18.46.25.29-.14.31c-.08,0-.07.33,0,.4a.87.87,0,0,1,.27.62c.09.16.24,0,.32.15A.51.51,0,0,1,12,14.77Z"/><path class="cls-22" d="M12.92,11.19c0,.23.17.31.34.38a1.16,1.16,0,0,0,.06-.48c0-.08.07-.17-.09-.23S13.08,11.1,12.92,11.19Z"/><path class="cls-195" d="M13.37,17.94c.08-.16.07-.32-.09-.39,0,.14.25.37-.15.24a7.06,7.06,0,0,0-2.86,0,1.62,1.62,0,0,0-1,.21c-.15.15-.39.17-.62.34s-.16.16-.23.16a6.63,6.63,0,0,1,1.26-.21c.16,0,.23-.1.24.15,0,.08.08.07.16.07a10.41,10.41,0,0,1,2.64.35c.24,0,.14-.39.54-.33-.24-.15-.24-.15-.47,0a.16.16,0,0,1-.24,0c-.08-.07.07-.08.07-.16s-.32,0-.4-.14-.09-.23,0-.32a1,1,0,0,1,.48,0C13.06,17.94,13.22,18.1,13.37,17.94Z"/><path class="cls-196" d="M9.24,18a6,6,0,0,0,1-.2c0-.09.07-.24-.09-.24s-.08-.08-.09-.15a.62.62,0,0,0-.51-.77c-.08,0-.17-.39-.1-.46.23-.18.06-.49.21-.64s-.32-.08-.17-.31a.61.61,0,0,0-.4-.06c-.24,0-.48-.23-.72-.05-.07.15-.22.25.1.31s.24.07,0,.24l-.23.24c.24.15.57.22.5.61-.07.08.24.07.25.15s-.16,0-.24.08v.09c.31-.11.33.3.41.37s.17.23.4,0C9.62,17.55,9.31,17.71,9.24,18Z"/><path class="cls-197" d="M8.33,15.08c.23-.08.48.22.71.05-.25-.3-.64-.21-1-.27H7.76c-.15.09-.24,0-.39.09l-.15.17Z"/><path class="cls-145" d="M7.37,15.05c.16,0,.32.06.39-.11-.23,0-.48-.21-.71,0C7.21,15,7.36,14.73,7.37,15.05Z"/><path class="cls-154" d="M17.33,10.13c.07,0,.16.06.15,0s.08-.17-.09-.24h-.15A.32.32,0,0,1,17.33,10.13Z"/><path class="cls-10" d="M19.86,6.4c-.07.08-.23.17-.22.33v.08c.09.07-.07.24.09.23s.23-.25.23-.33S20,6.48,19.86,6.4Z"/><path class="cls-29" d="M18,9.94c0-.07.07-.16,0-.23s-.23.23-.22.4C18,10.11,18,9.94,18,9.94Z"/><path class="cls-198" d="M12.86,18.9a5.5,5.5,0,0,0-1.53-.4c-.4-.08-.87,0-1.27-.11a7.89,7.89,0,0,0-1.26.28c-.08.1-.15.18,0,.25s.25.23.4.14.48,0,.72.13a.53.53,0,0,0,.32.06.48.48,0,0,1,.64.13c0,.08.09.08.17.06s.07-.15.14-.23a1.28,1.28,0,0,0,.89.19c.22-.39.55-.09.86-.11.08,0,.17.07.16,0s-.08-.08-.08-.16A1.29,1.29,0,0,0,12.86,18.9Z"/><path class="cls-162" d="M14.84,18.9c.16-.17-.09-.31,0-.55C14.59,18.59,14.52,18.75,14.84,18.9Z"/><path class="cls-14" d="M10.29,22c0-.08,0-.08.07-.16s.07-.24,0-.4c-.08.09-.08.17-.15.33S10.13,22,10.29,22Z"/><path class="cls-167" d="M11.87,19.81c0,.08.08.08,0,.15.24.08.24-.08.31-.16-.08,0-.16-.07-.32-.07C11.86,19.73,11.78,19.73,11.87,19.81Z"/><path class="cls-178" d="M14.52,11.28s0-.09-.09-.09.15-.15-.08-.14c-.08,0-.08.08-.08.16S14.36,11.44,14.52,11.28Z"/><path class="cls-199" d="M13,19.76l.08.08c.16,0,.31-.09.31-.17s-.09-.16-.24-.07a.27.27,0,0,1-.08.16C13.05,19.67,13,19.67,13,19.76Z"/><path class="cls-133" d="M7.73,10.39l-.09-.08c-.09-.31-.17-.22-.32-.06C7.48,10.23,7.57,10.4,7.73,10.39Z"/></g></svg>