<svg id="Layer_1" data-name="Layer 1" xmlns="http://www.w3.org/2000/svg" xmlns:xlink="http://www.w3.org/1999/xlink" viewBox="0 0 77.81 86.92"><defs><style>.cls-1{fill:none;}.cls-2{clip-path:url(#clip-path);}.cls-3{fill:#dee0e1;}.cls-4{fill:#81a1d1;}.cls-5{fill:#96afd5;}.cls-6{fill:#3c6551;}.cls-7{fill:#85a4c9;}.cls-8{fill:#9bb2d1;}.cls-9{fill:#648cb0;}.cls-10{fill:#7298be;}.cls-11{fill:#6187b6;}.cls-12{fill:#8ca8c8;}.cls-13{fill:#254851;}.cls-14{fill:#92adc5;}.cls-15{fill:#9bb3ce;}.cls-16{fill:#d5d7cd;}.cls-17{fill:#708e96;}.cls-18{fill:#a7bdcd;}.cls-19{fill:#919f8c;}.cls-20{fill:#e7e5d7;}.cls-21{fill:#b7c2be;}.cls-22{fill:#c5cee1;}.cls-23{fill:#87a6cb;}.cls-24{fill:#2b4930;}.cls-25{fill:#658ac3;}.cls-26{fill:#bfc6b6;}.cls-27{fill:#7194c3;}.cls-28{fill:#a1b3da;}.cls-29{fill:#97b1ca;}.cls-30{fill:#5d787c;}.cls-31{fill:#a6bace;}.cls-32{fill:#b0baa6;}.cls-33{fill:#bdcad4;}.cls-34{fill:#1e3c4b;}.cls-35{fill:#617561;}.cls-36{fill:#3253a4;}.cls-37{fill:#92a38c;}.cls-38{fill:#80a0c5;}.cls-39{fill:#173241;}.cls-40{fill:#b6c0ae;}.cls-41{fill:#8fa089;}.cls-42{fill:#5f745d;}.cls-43{fill:#60856f;}.cls-44{fill:#446ab5;}.cls-45{fill:#bac8cf;}.cls-46{fill:#536554;}.cls-47{fill:#537c47;}.cls-48{fill:#305333;}.cls-49{fill:#274038;}.cls-50{fill:#7fa1be;}.cls-51{fill:#85957f;}.cls-52{fill:#83a1cf;}.cls-53{fill:#75866f;}.cls-54{fill:#4e6751;}.cls-55{fill:#b8c4b3;}.cls-56{fill:#515f4f;}.cls-57{fill:#9fb09a;}.cls-58{fill:#a5b9d0;}.cls-59{fill:#8e9e86;}.cls-60{fill:#b5beae;}.cls-61{fill:#547fbd;}.cls-62{fill:#7c9dbb;}.cls-63{fill:#96a08f;}.cls-64{fill:#3e635b;}.cls-65{fill:#6e91be;}.cls-66{fill:#72896e;}.cls-67{fill:#65917a;}.cls-68{fill:#909f88;}.cls-69{fill:#a5b19e;}.cls-70{fill:#c1cece;}.cls-71{fill:#7194bd;}.cls-72{fill:#81a170;}.cls-73{fill:#687a62;}.cls-74{fill:#456daf;}.cls-75{fill:#bac4b6;}.cls-76{fill:#4d7345;}.cls-77{fill:#8da28a;}.cls-78{fill:#abb5a3;}.cls-79{fill:#97a490;}.cls-80{fill:#4169b8;}.cls-81{fill:#618354;}.cls-82{fill:#bdc5b4;}.cls-83{fill:#84a592;}.cls-84{fill:#4166a8;}.cls-85{fill:#b3bba6;}.cls-86{fill:#abb9b1;}.cls-87{fill:#abb7a5;}.cls-88{fill:#bac8d8;}.cls-89{fill:#b7c0ad;}.cls-90{fill:#647a64;}.cls-91{fill:#476156;}.cls-92{fill:#7e8879;}.cls-93{fill:#5e675b;}.cls-94{fill:#8cb39f;}.cls-95{fill:#bbcec0;}.cls-96{fill:#769a68;}.cls-97{fill:#a9baad;}.cls-98{fill:#99aca3;}.cls-99{fill:#bbc5b5;}.cls-100{fill:#536151;}.cls-101{fill:#778373;}.cls-102{fill:#738071;}.cls-103{fill:#aab59e;}.cls-104{fill:#96aa8d;}.cls-105{fill:#4d684b;}.cls-106{fill:#122e4a;}.cls-107{fill:#cfd4c6;}.cls-108{fill:#557250;}.cls-109{fill:#7f9479;}.cls-110{fill:#7898b7;}.cls-111{fill:#4d77c0;}.cls-112{fill:#d0d6cb;}.cls-113{fill:#becace;}.cls-114{fill:#cbd1c1;}.cls-115{fill:#929f8a;}.cls-116{fill:#61725a;}.cls-117{fill:#afc9b9;}.cls-118{fill:#5b80b5;}.cls-119{fill:#748072;}.cls-120{fill:#688165;}.cls-121{fill:#6b9d80;}.cls-122{fill:#aebca5;}.cls-123{fill:#699279;}.cls-124{fill:#778572;}.cls-125{fill:#627d60;}.cls-126{fill:#b5bda9;}.cls-127{fill:#bbc9d3;}.cls-128{fill:#396a61;}.cls-129{fill:#b6c5d0;}.cls-130{fill:#72a795;}.cls-131{fill:#53897a;}.cls-132{fill:#b3c2db;}.cls-133{fill:#658cc4;}.cls-134{fill:#4770b3;}.cls-135{fill:#5a83be;}.cls-136{fill:#4a6ec1;}.cls-137{fill:#3b56a8;}.cls-138{fill:#d1d8e1;}.cls-139{fill:#7f9f88;}.cls-140{fill:#96afcf;}.cls-141{fill:#9eb4c9;}.cls-142{fill:#6489c4;}.cls-143{fill:#4877aa;}.cls-144{fill:#d9dce4;}.cls-145{fill:#bfcbdc;}.cls-146{fill:#476a83;}.cls-147{fill:#60859b;}.cls-148{fill:#84a5c5;}.cls-149{fill:#a0b7c9;}.cls-150{fill:#87a6c7;}.cls-151{fill:#4671a5;}.cls-152{fill:#3f6697;}.cls-153{fill:#638bb3;}.cls-154{fill:#5a83ae;}.cls-155{fill:#3e6698;}.cls-156{fill:#5883a3;}.cls-157{fill:#acbfcd;}.cls-158{fill:#6a90b7;}.cls-159{fill:#7295ba;}.cls-160{fill:#577fbe;}.cls-161{fill:#4f8789;}.cls-162{fill:#34605f;}.cls-163{fill:#467e70;}.cls-164{fill:#4a6c88;}.cls-165{fill:#75a1a5;}.cls-166{fill:#5880b0;}.cls-167{fill:#7398b8;}.cls-168{fill:#375c8d;}.cls-169{fill:#5780ab;}.cls-170{fill:#6b92b0;}.cls-171{fill:#779ab8;}.cls-172{fill:#608558;}.cls-173{fill:#eeebdf;}.cls-174{fill:#3d6143;}.cls-175{fill:#688573;}.cls-176{fill:#5785a2;}.cls-177{fill:#f5f2ec;}.cls-178{fill:#e6e6e2;}.cls-179{fill:#8ca5c8;}.cls-180{fill:#6489c3;}.cls-181{fill:#9db4d1;}.cls-182{fill:#abbaa5;}.cls-183{fill:#8ca9c9;}.cls-184{fill:#c0cae0;}.cls-185{fill:#41657a;}.cls-186{fill:#426bad;}.cls-187{fill:#8daacd;}.cls-188{fill:#a9ba9d;}.cls-189{fill:#3a5e32;}.cls-190{fill:#fcf9f0;}.cls-191{fill:#214042;}.cls-192{fill:#1d3841;}.cls-193{fill:#3758a8;}.cls-194{fill:#e1e2e9;}.cls-195{fill:#23454a;}.cls-196{fill:#ebe9e8;}.cls-197{fill:#619d8e;}.cls-198{fill:#e7e7eb;}.cls-199{fill:#4d7e9c;}</style><clipPath id="clip-path"><rect class="cls-1" x="-7.34" y="25.47" width="90" height="54" transform="matrix(0.53, -0.85, 0.85, 0.53, -26.79, 56.62)"/></clipPath></defs><g class="cls-2"><path class="cls-3" d="M54.24,41.12c.39-.18.36.09.4.25a11.23,11.23,0,0,0,1.8,4.1l.3.19c.1.06.1.06.27,0a.23.23,0,0,0,.19-.3c0-.43.71-.69.17-1.17s-.38-.52.11-.64l.07-.1c-.08-.33-.47-.15-.67-.28.35-.34.38-.61,0-1-.14-.23-.08-.34,0-.54s-.08-.76-.29-.89a.11.11,0,0,0-.16,0c.49-.12.56-.22.28-.67.86,0,.78-.8.76-1.23a.52.52,0,0,1,.49-.55c.26,0,.33-.08.45-.28s.59-.49.68-.86a.26.26,0,0,0-.08-.33,4.27,4.27,0,0,1-.92-1,9,9,0,0,0-1.64-.74,13.28,13.28,0,0,0-2.28-.85c-.67-.28-1,.06-.94.83.2.12.2.12.53,0a3.52,3.52,0,0,1,.59,2.22,14.84,14.84,0,0,1,.1,2.76c0,.16-.09.36-.21.57C54.06,40.72,53.93,40.93,54.24,41.12Z"/><path class="cls-4" d="M72.52,34.8a6.93,6.93,0,0,0,1.35-1.71c-.14-.23-.24-.29-.37-.09a1.28,1.28,0,0,1-1.28.48c.12-.2.39-.18.56-.22.49-.12.49-.12.21-.57a1.74,1.74,0,0,0-.66.15c-.53,0-1,.24-1.52.19-.1-.06-.33.08-.39.18a.26.26,0,0,1-.33.08c-.51-.32-.9-.14-1.22.37-.11-.49-.38-.52-.81-.5a4.13,4.13,0,0,1-1.53-.25c.26-.41.6-.06,1-.24.23-.14.32-.51.58-.48s0-.27-.07-.33a1.05,1.05,0,0,0-1.23-.06c0-.27.16-.47.55-.65.23-.14.26,0,.4.25.1.06.14.23.41.25a.11.11,0,0,1,.16,0c.07-.11.19-.31,0-.44a2.34,2.34,0,0,0-1-.79c-.1-.07-.26,0-.39.18,0-.27.15-.48.12-.64s-.31-.19-.57-.21-.24-.3-.34-.36-.31-.19-.37-.09c0,.27-.19.31-.29.25s-.23.14-.13.2c.07.33.44.42.58.65s.27,0,.43,0A1.17,1.17,0,0,1,66,31.56a.3.3,0,0,0-.47-.15c-.17,0-.13.21-.09.37a.65.65,0,0,1-.65.59c-.27,0-.37-.09-.6.05,0,.27-.21.58.28.46.17,0,.2.13.41.25,0,.17.13.23.3.19s.13-.2.19-.3c0,.16.07.33.11.49s.14.23-.09.37,0,.53.15.66a2,2,0,0,1,.57,1.35.11.11,0,0,0,0,.16c.54.05.46.85,1.09,1h0l-.06.11c-.07.1-.13.2,0,.26a1.3,1.3,0,0,1,.81.51.24.24,0,0,0,.43,0c.13-.2.56-.22.42-.44s-.3-.19-.63-.12c.25-.4.31-.51.72-.25.1.06.28.45.4.25a.58.58,0,0,0,.18-.74c-.13-.23-.34-.35-.31-.62a.45.45,0,0,0-.61-.38c-.33.08-.67-.28-.92.13l-.1-.06c-.08-.33-.18-.39-.51-.32.56-.22,1-.4,1.33.12.14.23.41.26.5-.11s.52-.39.61-.76c.4.26.66-.15,1-.23.16,0,.22-.14.32-.08-.12.21,0,.44.21.13s.19-.31,0-.54c.16,0,.24.3.37.09s.26,0,.36.09a.38.38,0,0,0,.64.11C72.51,34.37,72.21,34.61,72.52,34.8Z"/><path class="cls-5" d="M66.87,37.09c.1.06.27,0,.23-.14s-.1-.06-.2-.13-.47-.15-.45-.41.09-.37-.17-.4-.47-.15-.44-.41c.08-.81-.66-1-.81-1.64.07-.1.2.12.33-.08s0-.17-.14-.23c-.13-.23-.27-.45-.15-.66s-.13-.23-.13-.23c-.27,0-.13.21-.13.21,0,.16.14.23,0,.26s-.1-.06-.14-.22c-.07-.33-.31-.63-.73-.18,0-.16-.08-.33,0-.43-.38-.52-.94-.3-1.41-.45-.1-.07-.16,0-.12.2s0,.17.13.23.37.09.47.15a.44.44,0,0,1,.25.72c-.25.41-.32.51.15.66a.6.6,0,0,0,.53.05.68.68,0,0,0-.62.32.31.31,0,0,1-.49.12.72.72,0,0,0-.47-.15c-.27,0-.43,0-.19.31a7.81,7.81,0,0,0,2.15,1.06c-.23.14-.36.34-.12.63a2.29,2.29,0,0,0,.58.65c.2.12.64.11.32.62-.13.2.21.56.51.75s.43,0,.6-.06a.91.91,0,0,1,.66-.15c0,.16-.19.3,0,.43a7.62,7.62,0,0,0,3.45-1.25c-.05-.6.55-.65.84-.89.06-.1.33-.08.36-.35-.21-.12-.35-.35-.55-.48a.43.43,0,0,0-.36-.09,10.47,10.47,0,0,0-1.58.72c-.06.11-.13.21,0,.27.4.25.31.62.06,1-.37-.09-.32-.62-.81-.5s-.22.57-.51.81c.3.19.33-.08.49-.11s.17,0,.27,0,0,.16-.13.2-.17,0-.23.14-.09.37-.33.08-.61-.38-.15-.66c-.37-.09-.56.22-.86,0a.72.72,0,0,0-.47-.15C66.48,37.27,66.74,37.3,66.87,37.09Z"/><path class="cls-6" d="M41.63,8.42a54.59,54.59,0,0,1-5.27,5.51c-.06.1-.23.14-.29.24.06-.1-.24-.29,0-.43s.32-.51.45-.72a.48.48,0,0,0,.09-.37c-.1-.06-.17,0-.33.08s-.17,0-.23.14a17,17,0,0,0-2.92,4,2.92,2.92,0,0,0-.2,1c0,.27.2.13.3.19a22.94,22.94,0,0,0,5-2.3,29.59,29.59,0,0,1,3.4-1.84c-.24-.3-.43,0-.7,0-1.81.42-3.33,1.74-5.17,2.44.15-.47.48-.55.61-.76-.14-.23-.47-.15-.67-.27-.33.07-.46.28-.69.42a7.56,7.56,0,0,1,.91-.56c.66-.16.89-.3,1.08-.61.16-.47.65-.59.74-1,1-1.1,2-2,2.84-3.2a15,15,0,0,0,1.31-1.87C41.79,8.38,41.79,8.38,41.63,8.42Z"/><path class="cls-7" d="M64.69,49.35A8.65,8.65,0,0,0,66,47.21c0-.27,0-.17-.2-.13s-.29.25-.39.18-.08-.33,0-.53.19-.31.26-.41a7.63,7.63,0,0,0,.36-1.48L66,44.78l.11.06c.3.19.46.15.55-.22-.07-.33.06-.53,0-.86-.2-.13-.2-.13-.92.13.06-.1.35-.35.15-.47-.44-.42-.11-.5.12-.64-.12-.49-.41-.25-.67-.28s-.4.18-.64-.11c0-.16-.53,0-.67-.27-.1-.07-.16,0-.14-.23,0-.43-.11-.5-.56-.22-.07.11-.23.15-.3.25l-.12.2,0,.17c0,.43.68.71.66,1-.42.45-.12.64-.11,1.07s.58.65.06,1c.32.62,0,.7-.51.82-.16,0-.06.1-.13.2s0,.27.18.4a2.07,2.07,0,0,1,.25,1.85,1,1,0,0,0-.08.8c0,.17-.07.11-.23.15s-.15.47-.12.63-.19.31-.45.28c0,.6.15.66.6.38l.88-.73c0-.26.38-.61.31-.94,0-.16-.31-.19-.41-.25a3.94,3.94,0,0,0,.64-1c.09-.37.12-.64-.35-.79-.2-.13-.08-.33-.18-.39s.17,0,.17,0a.62.62,0,0,0,.45-.28c.3-.25.33-.08.27,0s-.23.14-.39.18-.37-.09-.3.24l0,.17a1.41,1.41,0,0,1,.08,1.89l-.12.21C64.39,49.16,64.4,49.59,64.69,49.35Z"/><path class="cls-8" d="M58.09,20.54c-.49.12-.91.57-1.47.79,0,.53.29.89.4,1.38.47.15.83.24,1.19-.11.23-.14.19-.3.09-.37.1.07.41.69.59-.05a.13.13,0,0,1,.17,0s.16,0,.1.07c-.09.36.24.29.41.25a.79.79,0,0,1,1-.07c.2.13.33-.08.5-.12-.07.11-.23.14-.26.41s-.32.51-.49.12l-.21-.13-.12.21c-.23.14-.09.37.05.59.4.26.27.46-.12.64a.53.53,0,0,0-.42.45.11.11,0,0,0,0,.16c.1.07.16,0,.26,0,.4-.18.59-.49.82-.63a.41.41,0,0,1,.22-.14c.3-.24.63-.32.72-.69.06-.1,0-.27.15-.47.1.06,0,.16.14.23s.44.41.59-.06c.07-.1.11.07.11.07.24.29.67.27,1,.36.3-.24.28-.68.37-1.05a.37.37,0,0,0,0-.26c0-.17-.07-.33-.11-.5s-.41-.25-.74-.17c-.29.24-.48.55-.84.89h0a.25.25,0,0,0-.07-.33c-.37-.09-.18-.39-.21-.56s-.14-.23-.18-.39.19-.31-.07-.33a.49.49,0,0,0-.56.22c-.07.1-.09.37,0,.43s0,.16,0,.27c-.23.14-.26,0-.2-.13.24-.84-.31-.62-.52-.75l-.1-.06a.32.32,0,0,0-.11-.5c-.2-.12-.44-.41-.64-.54a2.37,2.37,0,0,0-1.15.7c.1.07.14.23,0,.27a.57.57,0,0,0-.29.24C58.23,20.77,58.23,20.77,58.09,20.54Z"/><path class="cls-9" d="M54.24,41.12c0-.27-.12-.5.21-.58.17,0,.09-.36.22-.57.12-.64-.13-1.36,0-2.1a1.21,1.21,0,0,0-.25-.72c-.1-.06,0-.43-.34-.36-.17,0-.19.31-.16.47l.08.34c0,.26.15.66-.28.67l-.13.2c-.07.11-.36.35,0,.44l-.06.1a3.11,3.11,0,0,1-.85.46c-.17,0-.33.08-.26.41.11.5-.18.74-.27,1.11a.26.26,0,0,0,.07.33l.11.06c-.07.1-.11-.06-.17,0a2.62,2.62,0,0,1-.79.36c.08.33-.18.74.33,1a1.23,1.23,0,0,0-1,.77c-.26.41-.85.46-1.11.87-.06.1-.2-.12-.3-.19a.33.33,0,0,0-.5.12c-.09.37.12.49.32.62-.06.1.49-.12.14.23-.07.1.07.33.34.35s.39-.18.59-.05a7,7,0,0,0,2.57-2.08c.42-.45.64-1,1.06-1.47-.24-.29.09-.37.22-.58S54.17,41.22,54.24,41.12Z"/><path class="cls-10" d="M59.11,47.71c.75.61,1.66,1.18,2.4,1.78a.43.43,0,0,0,.37.09c.51.32.72-.26,1-.34,0-.16-.3-.18-.4-.25l-.3-.19c-.31-.19-.61-.38-1,0,.13-.2.52-.38.39-.61-.18-.4-.67-.28-1.1-.27.06-.1.09-.36,0-.43-.4-.25.16-.47.12-.63s.1.06.1.06c.2.13.37.09.4-.18-.14-.23-.15-.66-.29-.89.1.06.07.33.24.29.2.13.19-.3.29-.24.43,0,.15-.47.48-.55.13-.2-.07-.33,0-.6-.4-.25-.41-.68-.42-1.12,0-.26,0-.43-.41-.25,0,0-.07-.33-.34-.35-.1-.07-.16,0-.23.14a1,1,0,0,0-.24.84c0,.16.34.35,0,.53a.12.12,0,0,1-.17,0,.69.69,0,0,1-.48-.58c0-.17-.07-.33-.17-.39s-.28-.46-.51-.32a.44.44,0,0,0-.11.64,1.73,1.73,0,0,1,.58.64,1.11,1.11,0,0,0-.52-.75c-.69.43-.7,1.13.11,1.63.1.07-.07.1,0,0-.21-.12-.27,0-.33.08a.25.25,0,0,0,.07.33.87.87,0,0,1,.48.58.38.38,0,0,0-.5-.31c-.23.14,0,.26,0,.43l.1.06c.2.13.24.29.44.42C59,47.48,58.91,47.58,59.11,47.71Z"/><path class="cls-11" d="M62,21.44c0,.17-.49.55.21.56l0,.17c0,.16-.27,0-.13.2.1.06.2.13.33-.08s.48-.55.61-.75a5.91,5.91,0,0,0,1.08-1.74,2.35,2.35,0,0,0,.16-1.6l0-.16c.58-.49.2-1,.09-1.51,0-.16.15-.47-.21-.55a.57.57,0,0,0-.59.48,4.55,4.55,0,0,1-2.33,2.38,2.45,2.45,0,0,1-.78.36c-.19.3-.42.44-.25.84.14.23.34.35.47.15.16-.47.46-.28.75-.53.08.33-.15.48-.12.64a.24.24,0,1,0,.41.25c.42-.44.59-.05.73.18s.18.39.44.42h0l-.06.1C62.38,21.1,62.38,21.1,62,21.44Z"/><path class="cls-12" d="M49.27,33.76a2.06,2.06,0,0,1-.65.59,9.67,9.67,0,0,0-1.39,1.11c-.07.11.14.23.24.3s.21.55.6.37c.07-.1,0,.17.14.23s0,.17-.06.1c-.66.16-.58.92-1,1.21A.4.4,0,0,0,47,38c.14.23-.06.54-.08.81a.52.52,0,0,0,.15.66c.2.12.36.08.45-.29l.17,0a.94.94,0,0,0,.52-.39c.26-.41.48-.55,1-.23.16,0,.33-.08.39-.18l.07-.1a3.64,3.64,0,0,1,.77-.8c.13-.2.42-.44.45-.71s.09-.37-.08-.33c-.2-.13-.33.08-.49.12a3.32,3.32,0,0,0-.29-.89c-.26,0-.23.14-.35.34s-.09.37,0,.6,0,.43-.21.57l-.13.21c0-.17.06-.1.13-.21a.31.31,0,0,0-.12-.49c-.1-.07.2-.31,0-.43s-.47-.16-.17-.4c0,.17.05.6.34.36.25-.41.24-.84.5-1.25.12-.21.26,0,.43,0s.29-.24.35-.34c0-.27-.13-.23-.36-.09.23-.14.39-.18.45-.28s-.2-.13-.3-.19c-.27,0-.47-.15-.63-.11a.42.42,0,0,0-.23.14c.07.33-.32.51-.45.71a.51.51,0,0,1-.68.43c.12-.21.39-.18.45-.29C49.22,34.3,49.61,34.12,49.27,33.76Z"/><path class="cls-13" d="M50.87,36.6l-.44.72c-.3.24-.49.55-.78.79-.06.1-.06.1,0,.17.26,0,0,.26.07.33.14.23.37.08.53,0a5.31,5.31,0,0,0,1.9-2.37c.26-.4.35-.77.6-1.18l.06-.1c0-.17,0-.27,0-.44a.11.11,0,0,0-.16,0c.09-.37-.19-.82.33-1.21.23-.14.19-.3,0-.43a4.53,4.53,0,0,1-1.43-.18.23.23,0,0,1-.3-.19c0-.17-.08-.33-.31-.19-.06.1-.16,0-.1-.07-.07-.33-.27-.45-.41-.68-.1-.06-.14-.23-.18-.4S50.2,30.93,50,31c-.33.08-.73-.17-1,.07-.59.06-1,.07-1.62.12a9.17,9.17,0,0,1-1.72.06c-.17,0-.33.08-.29.25s.2.12.36.08c0-.16.27,0,.56-.22a4.18,4.18,0,0,0,1.83,0,2.82,2.82,0,0,1,.93.3c.31.19.51.32.58.65s.28.45.52.74a1.45,1.45,0,0,0,.54.48,3.18,3.18,0,0,1,.91.57c.21.13.43,0,.44.42A16,16,0,0,0,50.87,36.6Z"/><path class="cls-14" d="M53.82,22a2.28,2.28,0,0,0-1.18-.59c-.47-.15-1,0-1.53-.25-.2-.13-.29.24-.56.22a13.26,13.26,0,0,1-2.06-.3A3.39,3.39,0,0,0,48,23.45l.1.07c.32-.51.63-.33.87,0,.16,0,.39-.18.59-.06s.27,0,.39-.18,0-.26.2-.3.13.22.23.29a.11.11,0,0,1,0,.16l.31.19.16,0c.14.23,0-.43.17,0l.1.07c.22-.14.21-.58.66-.16.25-.41,1-.4,1-.77-.26.41.27.46.51.75.11.07.21.13.14.23.2.13.43,0,.33-.08a1.33,1.33,0,0,1,.31-.94C54.12,22.18,53.85,22.15,53.82,22Z"/><path class="cls-15" d="M44.69,45.37c-.06.1-.06.1,0,.17l2.7.4c.39-.18,1-.39.9-1,.06-.1.06-.1.17,0s.33-.08.29-.24-.2-.13-.31-.19c.4-.18.87,0,1.22-.38.07-.1.09-.37.4-.18.1.07.16,0,.22-.14,0-.27,0-.43.12-.63-.17-.4-.38-.52,0-.7a.26.26,0,0,0-.08-.33c-.2-.13.13-.21,0-.27,0-.27.05-.54-.22-.56a.66.66,0,0,0-.62.32c-.09.37-.32.51-.75.52a1,1,0,0,0-.94.84c-.09.37-.33.07-.39.18-.39.18-.59.48-1,.66a1.65,1.65,0,0,1-.58.49.66.66,0,0,1-.46.28c-.06.1-.13.2-.46.28C44.92,45.23,44.86,45.33,44.69,45.37Z"/><path class="cls-16" d="M50.37,61.26c0-.27.13-.2.33-.08a25,25,0,0,0,2.75,1c0-.44,0-.44.44-.72.07-.1.1.07,0,0-.06.1-.23.14-.19.31a.44.44,0,0,0,.27,0c.23-.14.33-.07.59,0a.13.13,0,0,0,.17,0c.68-.42.61-.75-.14-1.36a.71.71,0,0,0-.46-.15c-.9-.14-1.7-.21-2.6-.34-.73-.18-1.6-.15-2.33-.33a.26.26,0,0,0-.33.08c-.13.21-.46.28-.69.43.12.49.55.48,1,.73l.71.44C50,61.17,50.21,61.3,50.37,61.26Z"/><path class="cls-17" d="M60.35,61.25a8.45,8.45,0,0,0-1.51-.94c-.51-.32-1.18-.6-1.68-.91-.21-.13-.43,0-.46.28s.07.33.18.39c.3.19.5.32.15.66s-.1.37.37.52c-.16,0-.26,0-.43,0s-.29.24-.09.37.31.19.18.39.24.29-.13.2-.29.25-.15.48.17.39.44.41c1.16.16,2.39.22,3.62.28a.88.88,0,0,0-.15-.66,8.88,8.88,0,0,0-.94-.3c-.26,0-.19.3-.25.41.09-.37.09-.37-.45-.85A1.63,1.63,0,0,0,60.35,61.25Z"/><path class="cls-18" d="M45.22,41.16c.21.56,0,1-.1,1.5-.06.1,0,.17,0,.27l.1.06c.26,0,.23-.14.35-.34a3.34,3.34,0,0,0-.16,1.6c.08.33.18.39.51.32a1.88,1.88,0,0,0,.65-.59A12.4,12.4,0,0,0,48,42.6a.3.3,0,0,0-.27-.46c-.47-.15-.57-.21-.22-.56l.07-.1c.54.48.55-.22.85-.46s.35-.35.58-.49l.13-.2a.11.11,0,0,1,0,.16c.24.29.43,0,.53,0a1.07,1.07,0,0,0,.42-.45c.06-.1.19-.3.35-.34s.33-.08.3-.24-.21-.13-.41-.26a.46.46,0,0,1-.37-.08,2.25,2.25,0,0,0-.78.36,11.46,11.46,0,0,1-3.09,1.33C45.67,40.88,45.41,40.85,45.22,41.16Z"/><path class="cls-19" d="M3.21,83.44c.23-.14.39-.18.52-.38s.17,0,.23-.14a.13.13,0,0,1,0-.17c.23-.14.36-.34.59-.48a2.62,2.62,0,0,0,1-.77l.13-.21a58.44,58.44,0,0,0,5.73-5.35A26.57,26.57,0,0,0,14,72.45a.42.42,0,0,0,.29-.24.26.26,0,0,1,.33-.08,24.08,24.08,0,0,1-2.43,3.45,54.48,54.48,0,0,1-6.41,6.21,24.61,24.61,0,0,1-2.77,2C2.92,83.69,3.15,83.55,3.21,83.44Z"/><path class="cls-20" d="M56.18,58.93c-.5-.32-1.1-.26-1.6-.58l.49-.11c-.14-.23-.3-.19-.47-.15a23.87,23.87,0,0,1-2.48.15c-.27,0-.5.11-.76.09a.13.13,0,0,0-.17,0,2.69,2.69,0,0,1-.69,0c-.1-.06-.17,0-.27,0a3.33,3.33,0,0,0-.7,0,.11.11,0,0,0-.16,0c-.17,0-.37-.08-.39.18s.13.23.24.3c.3.18.56.21.77.34a6.62,6.62,0,0,0,2,.56c.8.07,1.57.41,2.37.48.27,0,.57.22.9.14.17,0,.13-.2,0-.27s-.21-.12-.18-.39.09-.37.46-.28A1.26,1.26,0,0,0,56.18,58.93Z"/><path class="cls-21" d="M56.18,58.93c-.16,0-.48.55-.59,0l-.1-.06c-.09.37-.46.28-.69.42.37.09.41.26.11.5.2.13.43,0,.34.35a.12.12,0,0,0,0,.17.11.11,0,0,0-.16,0c-.11-.06-.31-.19-.43,0a.41.41,0,0,1,.13.23c.37.09.05.6.32.62-.13.21-.29.25-.42.45-.09.37,0,.53.54.48.27,0-.24-.29.13-.2a1.39,1.39,0,0,0,.63.11c.27,0,.2.13.14.23,0,.26-.16,0-.16,0-.27,0-.3.24-.26.4a3.86,3.86,0,0,0,1.1.27c-.14-.23,0-.44-.28-.46-.1-.06,0-.17,0-.27s.06-.1.17,0,.22-.14.45-.28c-.2-.12-.23.14-.26,0s.42-.45-.12-.5c0,0-.2-.12-.13-.23s.22-.14.33-.07c.3.19.43,0,.55-.22-.16,0-.59,0-.53-.05s.19-.31.52-.39c-.14-.22-.11-.49-.48-.58-.1-.06-.36-.09-.24-.29s.2-.31.46-.28C56.92,59.11,56.49,59.12,56.18,58.93Z"/><path class="cls-22" d="M66.78,38.59h0c-.08-.33.35-.34.15-.47s-.53,0-.7,0l-.06.1c-.36.35-.52.39-.74-.17-.1-.06-.3-.19-.34-.36s.33-.07.36-.34-.14-.23-.34-.35c-.47-.16-.64-.55-1-.9-.1-.07,0-.27.2-.31s.33-.08.29-.24a6.86,6.86,0,0,1-2.48-1c-.12.63-.08.8.55.91.37.09.34.35.65.54-.33.08-.8-.07-.65.59.57.22.52.75.63,1.25.1.06.14.22.17.39a1.8,1.8,0,0,0,.84.24l.1.06A6,6,0,0,0,66.78,38.59Z"/><path class="cls-23" d="M64.49,16.6c0,.26.11.49.09.76s.11.5-.16.47c-.39.18-.09.37-.11.64-.07.1,0,.16.07.33.15.66-.47,1-.42,1.58a3,3,0,0,0-.87,1.16c.23-.14.43,0,.63.11a.16.16,0,0,0,.13-.2,1,1,0,0,1-.08.8c-.06.1-.06.1,0,.27s0,.16.13.22c.27,0,.2-.3.36-.34s0-.17,0-.27c0,.27.17.39.37.52s.37.09.08.33a.62.62,0,0,0,0,.54c.06-.11.16,0,.26,0s.07-.1.23-.14a1.42,1.42,0,0,0,.44-1.15c0-.16.25-.41.28-.67a2.36,2.36,0,0,0-.34-1.49,6.54,6.54,0,0,1-.89-2.4C64.64,17.26,64.73,16.89,64.49,16.6Z"/><path class="cls-24" d="M52.05,59.47c-.63-.11-1.3-.39-1.94-.5-.87-.4-1.77-.54-2.54-.88.43,0,.71.44,1.29,0,.07-.1.54.05.74.17l.1.07a1.23,1.23,0,0,0,.76-.1.44.44,0,0,0,.09-.37c-.24-.29-.57-.21-.94-.3-.69,0-1.24-.49-1.77-.54-.49.12-.87-.4-1.4-.45s-1.1-.26-1.62.12c-.3.25,0,.27.17.4a.72.72,0,0,1,.47.15c-.17,0-.3-.19-.43,0,0,.17-.46.29-.05.54a.85.85,0,0,0,.79.07c.3-.24.4-.18.54,0h0c-.11-.06-.14-.23-.31-.19s-.13.2,0,.27a21,21,0,0,0,2.58,1,2.15,2.15,0,0,0,.93.3,12,12,0,0,0,1.94.5c.16,0,.37.09.53.05A.44.44,0,0,0,52.05,59.47Z"/><path class="cls-25" d="M65.94,21.47c-.23.15-.32.52-.61.76-.06.1-.06.1,0,.16.24.29.11.5-.28.68l-.13.2c-.33.08.4.26,0,.27-.26,0-.07-.33-.11-.5s.19-.3.36-.34a.73.73,0,0,0-.47-.15,3.21,3.21,0,0,0-.19.31l-.07.1c0,.16-.19.3-.25.41-.36.34-.32.51.19.82,0,.27-.32.51-.25.84a1.8,1.8,0,0,1-.33,1.21c-.23.14-.62.32-.28.68.1.06.2.12.26,0,.45-.71,1.24-1.07,1.68-1.79a3.81,3.81,0,0,0,.69-1.55c0-.43-.17-.4-.5-.32l.49-.11c.06-.11,0-.27.09-.37-.07-.33-.31-.63-.19-.83S66,21.64,65.94,21.47Z"/><path class="cls-26" d="M24.05,52.77c.22-.58.34-1.21.55-1.79.35-.77.49-1.68.84-2.45.43-1.15.91-2.13,1.28-3.18a18.46,18.46,0,0,1,1.13-2.27c.22-.57.84-.89.59-1.62,0-.26-.14-.22-.3-.18a20.54,20.54,0,0,0-1.64,3.51c-.06.11-.09.37-.39.18-.13.21.07.33.11.5l-.13.2c-.37,1-.9,2.13-1.17,3.24a9.78,9.78,0,0,0-.84,2.46c0,.16.27,0,.14.23a1.62,1.62,0,0,0-.28.67C23.81,52.48,23.75,52.58,24.05,52.77Z"/><path class="cls-27" d="M49,23.22a.42.42,0,0,1-.14-.23c-.24-.29-.5-.32-.59.05l-.19.31a9.59,9.59,0,0,0-.08,3.5,2,2,0,0,1,0,1l.1.06c.16,0,.16,0,.23-.14s.05-.54.18-.74c.47.15.82-.2.61-.75a1,1,0,0,0-.32-.63c.17,0,.19.83.64.12.12-.21-.18-.4.05-.54l.13-.2.12-.21a.23.23,0,0,0,.2-.3c0-.17-.21-.13-.37-.09s-.47-.15-.28-.46c.07-.1.29-.24.16-.47s-.37-.09-.54,0c.11.07.27,0,.13-.2Z"/><path class="cls-28" d="M56.49,21.53c-.36.35-.75.53-1.11.87-.22.14-.35.35-.62.32-.12.21.14.23.18.4.26,0,.39-.18.66-.16-.27,0-.36.34-.66.16a.4.4,0,0,0-.29.24.38.38,0,0,1-.26.41,5.3,5.3,0,0,0-1.22,1.5c.18.4-.15.47-.28.68s-.26.41-.18.74c0,.16.23-.14.2.12s.08.33.24.29a.22.22,0,0,0,.19-.3c0-.27.29-.24.36-.35-.05-.59.41-.88.76-1.22.23-.14.4-.18.38-.61s.62-.76,1-.77c.2.12.53,0,.55-.22s.2-.31.36-.35l.06-.1A2,2,0,0,0,56.49,21.53Z"/><path class="cls-29" d="M59.11,47.71c-.07-.33.26-.41.49-.55-.5.12-.67-.28-.91-.57-.1-.06-.2-.12,0-.16,0,0,.23-.14.27,0s.2.13.4.25a2.85,2.85,0,0,0-.45-.85c-.2-.12-.31-.19-.18-.39s.2.13.37.09c-.32-.62-1-1.07-.25-1.86,0-.27,0-.43.12-.63.5.31.65,1,.93,1.43,0,.16,0,.16.23-.14,0-.43-.42-.69-.43-1.12a1.46,1.46,0,0,0-.48-.58c-.13-.23-.5-.32-.58-.65,0-.16-.2-.13-.36-.09-.46.29-.48,1-.83,1.33l-.17,0c-.06.1,0,.16.14.23a1.55,1.55,0,0,1,.27,1.59.27.27,0,0,0,.08.33l.2.12c-.06.11-.16,0-.26,0a.12.12,0,0,0-.17,0c-.13.2.33,1,.53,1.18C58.34,47.37,58.71,47.46,59.11,47.71Z"/><path class="cls-30" d="M60.35,61.25a.46.46,0,0,0-.29.25c-.25.4-.72.25-1.05.33,0,0-.14-.23-.27,0s-.29.24.08.33c.1.06.07.33.34.35a.4.4,0,0,1,0,.27c-.06.1-.33.08-.12.2s0,.17.2.13.13-.2.19-.31,0-.16.09-.37c.1.07,0,.27.07.33.07-.1.26-.4.43,0l.21.13c.29-.25.33-.08.24.29-.13.2.2.12.24.29.59,0,1.22.06,1.82,0,.13-.2.29-.24.42-.44s-.14-.23-.24-.3A10.42,10.42,0,0,0,60.35,61.25Z"/><path class="cls-31" d="M49.19,38.39a3.72,3.72,0,0,0-.8-.07c-.16,0-.2-.13-.13-.23s-.21-.12-.27,0c-.19.3.1.06.2.12a.6.6,0,0,1-.22.58c-.06.1-.22.14-.29.24s-.43,0-.13.2c-.06.11-.12.21-.22.15s-.31-.19-.18-.4a1.72,1.72,0,0,0,.18-.74c.06-.1,0-.16-.2-.12-.53-.05-.52.38-.81.62l-.39.62c-.06.1-.09.37.08.33s.23-.14.23-.14c-.26.4-.43,0-.6,0l-.1-.06a3.86,3.86,0,0,0-.27,1.1.44.44,0,0,1-.09.37,3.06,3.06,0,0,0,1.48-.35,3,3,0,0,0,1.08-.6c.22-.57.84-.89,1.26-1.34C49.06,38.6,49.39,38.52,49.19,38.39Z"/><path class="cls-32" d="M28.2,41.17l.31.19c.2.13.26,0,.33-.08a16.46,16.46,0,0,1,6.33-6.54A20.26,20.26,0,0,1,38,33.38a.8.8,0,0,0-.86,0,18.62,18.62,0,0,0-5,3.27c-.68.42-1.09,1.3-1.78,1.72A8.82,8.82,0,0,0,28.2,41.17Z"/><path class="cls-33" d="M66.48,43.8c.07.33,0,.59.12.93-.06.1,0,.26.14.22A6.76,6.76,0,0,0,66,41.38a6,6,0,0,0-1.25-2.05c-.19.3,0,.7-.51.81l-.16,0c-.56.22-.16.47-.08.8,0,.6.3.19.47.15.24.3-.41.88.32,1.06.27,0,.41.25.54.48s.56-.22.74.17A4.5,4.5,0,0,0,66.48,43.8Z"/><path class="cls-34" d="M48.16,27.67c-.1-.06-.17,0-.23.15-.09.36-.09.36.11.49-.23.14-.28-.46-.57-.21s-.29.24-.15.47c.3.19.67.28.84.67.31.19.55.48.81.5s.63.12.65.55l.1.06a.64.64,0,0,0,.43,0c.16,0,.33-.08.25-.41,0-.17-.14-.23-.4-.25.39-.18.63.11.9.13s.53.05.62-.32c-.67-.28-1.25-.92-1.92-1.2C49.13,28.14,48.73,27.89,48.16,27.67Z"/><path class="cls-35" d="M46.29,31.33c-.33.08-.69,0-1,.07.62-.32,1.35-.14,1.91-.36a30.58,30.58,0,0,0-3.84.29,21.35,21.35,0,0,0-4.51,1.16c.07.33.4.25.57.21s.22-.14.43,0a30.14,30.14,0,0,1,6.07-1.18A.24.24,0,0,0,46.29,31.33Z"/><path class="cls-36" d="M72.37,33c.17,0,.39-.18.56-.22.43,0,.73.17,1.06.1l.13-.21c.19-.3.32-.51-.15-.66a8.59,8.59,0,0,1-2-1.53,2.05,2.05,0,0,0-1-.63c-.4-.25-.46-.15-.62.32,0,.17.24.29.34.36l.31.19c.1.06.2.12.26,0a.4.4,0,0,0,0-.27,3.88,3.88,0,0,0,.63,1.25c.1.06,0,.16.07.33-.13.2,0,.26.18.39a1.21,1.21,0,0,0,.69,0,.94.94,0,0,1-.65.16c-.11-.07-.17,0-.13.2S72.27,33,72.37,33Z"/><path class="cls-37" d="M29.25,55a26,26,0,0,1,5-4c.06-.1.06-.1,0-.16a.26.26,0,0,0-.33.08,21.56,21.56,0,0,0-2.74,1.69,11.3,11.3,0,0,0-2.91,2.86l-.39.61c.18.4.31.19.43,0A3.08,3.08,0,0,1,29.25,55Z"/><path class="cls-38" d="M62,21.44l.2.13c.12-.64.25-.41.49-.12.17,0,.19-.3.42-.45-.39.18-.59.06-.6-.37S62,20.41,62,20a.42.42,0,0,0-.23.14c-.07.1-.19.31-.36.35-.07-.33.61-.76.17-1.18-.16,0-.38.62-.66.16-.16,0-.06.1-.13.2s.08.33-.09.37c0,0-.26,0-.2-.12s-.17-.4,0-.54c.11.07,0,0,0-.16a2.09,2.09,0,0,0-.95.4,2,2,0,0,0,.58.64c.2.13.13.23,0,.27s-.13.2,0,.27c.33-.08.51.31.9.13a.42.42,0,0,0,0,.7c.44.42.45-.28.76-.09-.55-.48-.55-.48.18-.74C61.85,21.05,61.56,21.29,62,21.44Z"/><path class="cls-39" d="M47.7,39.88c-.85.46-1.67.65-2.46,1a1.77,1.77,0,0,0-.56.22c.27,0,.37.09.54,0a10.65,10.65,0,0,0,3.45-1.25,4.31,4.31,0,0,0,1.2-.81A3.42,3.42,0,0,0,51.11,38,9.31,9.31,0,0,0,52.55,36c-.08-.33.31-.51,0-1a11.2,11.2,0,0,0-1,1.8A17.18,17.18,0,0,1,50,38.63a4,4,0,0,0-.82.63c.13-.21.56-.22.39-.61-.1-.07.29-.25-.08-.33C48.94,38.8,48.35,39.29,47.7,39.88Z"/><path class="cls-40" d="M24.39,33.55a34.59,34.59,0,0,1,1.48-4.62A30.54,30.54,0,0,1,27.28,26a.39.39,0,0,0-.23-.29c-.2.3-.32.51-.51.81a9.84,9.84,0,0,1-.66-2.1c-.1-.07-.1-.07-.16,0s.11.5-.18.74c0,.17.07.33.18.4.36.08.27.45.25.72.65,1-.12,1.77-.47,2.55a14.62,14.62,0,0,0-.77,2.35,10,10,0,0,1-.45,1.85C24.25,33.32,24,33.46,24.39,33.55Z"/><path class="cls-41" d="M26.71,34.57a11.3,11.3,0,0,1-2.36,2.64c-.17-.39,0-.6-.12-.93a2.69,2.69,0,0,1,0-1.13c.07-.1,0-.17-.13-.23s0-.16-.14-.23a16.66,16.66,0,0,0,0,3.67,1.86,1.86,0,0,1,.26,1.15c0,.27,0,.43.34.36a5.56,5.56,0,0,0-.21-1.69.72.72,0,0,1,.35-.78A5.87,5.87,0,0,0,27,34.75.22.22,0,0,0,26.71,34.57Z"/><path class="cls-42" d="M44.93,57.15c.23-.14.36.09.53.05l.06-.1a.87.87,0,0,0-.63-.11c-.1-.07-.27,0-.24-.3a.9.9,0,0,0-1.09.17.61.61,0,0,1-.76.1,42.75,42.75,0,0,0-4.56-.58c-.47-.15-.63-.11-.89.3.7,0,1.33.12,2,.13a29.4,29.4,0,0,1,3.76.5c.27,0,.08.33.28.46a.54.54,0,0,1,.5.31c.14.23.31.19.37.09a.64.64,0,0,0,0-.43c-.14-.23-.14-.23-.67-.28C44.07,57.18,44.64,57.39,44.93,57.15Z"/><path class="cls-43" d="M36.27,12.73l.49-.12a6.07,6.07,0,0,1-.86,1.17c-.07.1-.23.14-.13.2s.16,0,.33-.08a.9.9,0,0,0-.16.47.89.89,0,0,0,.59-.48c-.2-.13-.2-.13-.08-.33a4.51,4.51,0,0,1,1-1.53c1.18-1.68,2.43-3.45,3.52-5.18,0-.17,0-.17-.21-.13-1.18,1.67-2.37,3.34-3.55,5A4.16,4.16,0,0,0,36.27,12.73Z"/><path class="cls-44" d="M70.51,30.14c0-.26.25-.41.56-.22a8,8,0,0,0-2-1.26c-.6-.38-1.3-.39-1.81-.7-.1-.07-.2-.13-.43,0l-.16,0c-.17,0-.53-.05-.46.28a.53.53,0,0,0,.61.38.6.6,0,0,1,.53,0c-.06.1-.39.18-.25.41s.07.33.3.19.33-.08.39-.18c.23-.14.33-.08.47.15s.51.31.71.44c.36.09.69,0,.71.44C69.78,30.4,70.21,30.39,70.51,30.14Z"/><path class="cls-45" d="M58.17,47c0-.17-.47-.15-.12-.5l.07-.1c-.43,0,0-.6-.48-.58.3.19.49-.12.72-.26-.2-.13-.29.24-.43,0s0-.26.16-.47c.25-.41,0-1.13-.54-1.61a2.88,2.88,0,0,0-.83.19c.41.26.41.26.09.77.35-.35.53,0,.57.21.11.5-.36.35-.49.55,0,.16.31.19.18.39s-.27,0-.37-.08-.16,0-.26,0A5.43,5.43,0,0,0,57.5,46.7,1.86,1.86,0,0,0,58.17,47Z"/><path class="cls-46" d="M24.46,40c-.21-.13-.21-.13-.08-.33a2.29,2.29,0,0,0-.53-1.18,19.9,19.9,0,0,0,1.49,6.17c.3.19.38.52.62.81,0,.17.07.34.3.19s-.24-.29-.11-.49A23.48,23.48,0,0,1,24.46,40Z"/><path class="cls-47" d="M49.26,60.56c-.3-.18-.61-.37-1-.63a9.19,9.19,0,0,0-1.58-.84l-.51-.32-.2-.12c-.27,0-.51-.32-.8-.08-.15.48-.15.48.32.63-.43,0-.55-.49-.94-.31.38.52,1,.64,1.42.89a22.41,22.41,0,0,1,2.58,1,.83.83,0,0,0,.53,0c.16,0,.16,0,.23-.14S49.36,60.63,49.26,60.56Z"/><path class="cls-48" d="M44.54,58.89a3.84,3.84,0,0,1,1.08.53c-.18-.39-.55-.48-.29-.89,0-.26-.24-.29-.44-.41a.27.27,0,0,0,.33-.08c.1.06,0-.17.06-.1l.3.19c.27,0,.43,0,.26-.41.06-.1-.14-.23.12-.21a1.47,1.47,0,0,0,.68.28c-.08-.33-.51-.31-.55-.48-.16,0-.4-.25-.66.16-.12.2-.43,0-.69,0,0-.17.39-.18.19-.31a3,3,0,0,0-1.52.19c.26,0,.59-.06.7.44,0,0,.21.12,0,.26s-.17,0-.2-.12-.28-.46-.57-.22C43.69,58.22,43.91,58.78,44.54,58.89Z"/><path class="cls-49" d="M36.91,14.41a3,3,0,0,1-.72.69c-.16,0-.33.08-.19.3s.5-.11.74.18a1.65,1.65,0,0,0,.58-.49c.07-.1-.14-.23,0-.26l1.94-1.77c.13-.2.31.19.33-.08.75-.52,1.4-1.11,2.21-1.74.07-.1,0-.16-.13-.23a7.83,7.83,0,0,1-1.38.85A18.33,18.33,0,0,1,38,13.64,2.09,2.09,0,0,0,36.91,14.41Z"/><path class="cls-50" d="M49.6,44a1.68,1.68,0,0,0-1.44.51c.26,0,.43,0,.56.22-.22.14-.43,0-.65.15.5.32.21.56-.08.81a1,1,0,0,0-.42.44,3.77,3.77,0,0,0,2.84-.49c-.14-.23-.27,0-.37-.09s-.33.08-.41-.25c.07-.11.17,0,.27,0s.17,0,.23-.14-.14-.23-.2-.13a.29.29,0,0,1-.47-.15c-.1-.06-.3-.19-.18-.39s.27,0,.33-.08S49.7,44.1,49.6,44Z"/><path class="cls-51" d="M37,63.55a20.11,20.11,0,0,0-3.69-4l-.2-.12c-.1-.07-.16,0-.23.14,1.06,1.23,2.19,2.35,3.25,3.58.23.3.44.42.68.71C37,63.71,37.1,63.61,37,63.55Z"/><path class="cls-52" d="M63.79,26.94a.4.4,0,0,1-.36-.09l-.31-.18c-.3-.19-.54-.49-.49.11l-.07.1a.54.54,0,0,0-.42.45.88.88,0,0,0,.42.69,1.28,1.28,0,0,0,1.16.16c.3-.25.66-.16.89-.3.26-.41.66-.16.86,0a1.26,1.26,0,0,0,1.09-.17l.07-.1A20.21,20.21,0,0,0,64,27.07C63.93,27.17,63.6,27.25,63.79,26.94Z"/><path class="cls-53" d="M37.25,56.61c.26-.41.62-.32.89-.29.26-.41.85-.47,1.14-.71.07-.1.17,0,.23-.14s.33-.08.46-.28.23-.14.19-.31a.26.26,0,0,0-.33.08,13.3,13.3,0,0,0-2.26,1.14c-.46.28-.92.13-1.36.15a18.24,18.24,0,0,0-3.63.42c-.07.1-.23.14-.19.31,1-.07,2.11-.24,3.14-.31C36.29,56.58,36.76,56.73,37.25,56.61Z"/><path class="cls-54" d="M50.28,57.8c0,.17,0,.17-.09.37s-.06.1,0,.16.1.07.27,0a2.3,2.3,0,0,1,.69,0l.17,0c.26,0,.39-.18.59,0L55,58.07a8.37,8.37,0,0,0,1.52-.18c.11.06.27,0,.23-.15-1.23-.05-2.42,0-3.65,0-.79-.08-1.49-.09-2.29-.16C50.61,57.72,50.41,57.6,50.28,57.8Z"/><path class="cls-55" d="M49.48,61.56a16.4,16.4,0,0,1,3.77,3.2c.58.64,1.09,1.39,1.67,2a8,8,0,0,0-1.28-2.22c-.27,0-.4-.26-.54-.48a15.22,15.22,0,0,0-2.41-2.22,1,1,0,0,1-.71-.44c-.1-.06-.18-.39-.41-.25A.48.48,0,0,0,49.48,61.56Z"/><path class="cls-56" d="M32.13,36.68a25.45,25.45,0,0,1,4.77-3.13A2.5,2.5,0,0,1,38,33.38c.23-.14.39-.18.62-.32s.33-.08.29-.24a.29.29,0,0,0-.47-.15,17.71,17.71,0,0,0-6.56,4C31.91,36.82,32,36.72,32.13,36.68Z"/><path class="cls-57" d="M27,25.8c0,.16.08.33.24.29a40.23,40.23,0,0,1,2.91-4.43c0-.16-.21-.12-.31-.19a4.86,4.86,0,0,0-1.16,1.41C28.19,23.86,27.52,24.72,27,25.8Z"/><path class="cls-58" d="M66.57,45c-.1-.06-.1-.06-.13-.23-.2.31-.33.08-.5.12,0,.27-.48.55-.08.8-.29.25-.22.58-.51.82-.06.1-.23.14-.19.31s-.09.36.11.49.43,0,.56-.22.13-.2.17,0A5.07,5.07,0,0,0,66.57,45Z"/><path class="cls-59" d="M29.28,57.45c-.66.16-1.24.64-1.88.53-.1-.06-.16,0-.33.08s-.62.32-.85.46c0,.27.14.23.24.29,1-.23,2-.47,3-.8a2.59,2.59,0,0,1,1.43.18c-.13-.22-.4-.25-.44-.41.36-.35.93-.14,1.22-.38a1.15,1.15,0,0,0-1.13,0C30,57.46,29.61,57.37,29.28,57.45Z"/><path class="cls-60" d="M21.17,60.76c-.36-.09-.14-.23-.07-.33.56-1.35,1.06-2.6,1.62-4a.12.12,0,0,0,0-.17c-.46-.15-.25.41-.52.38-.44.72-.52,1.52-.9,2.13a11.63,11.63,0,0,0-.78,1.93c-.07.1-.07.1,0,.26l.1.07C20.92,61.16,21.08,61.13,21.17,60.76Z"/><path class="cls-61" d="M72.52,34.8c.06-.1,0-.16,0-.27.09-.36-.05-.59-.48-.58-.06.1.21.13.14.23s-.47-.15-.44-.42l0-.16a.65.65,0,0,1-.92.13c.3.19.27.45,0,.7-.07-.33-.27-.46-.57-.22a1.17,1.17,0,0,1,.25.73c0,.16.08.33.34.35.23-.14.53-.38.75-.52.36-.35.45.42.74.17C72.39,35,72.45,34.9,72.52,34.8Z"/><path class="cls-62" d="M55,23c.13-.2-.14-.23-.07-.33a5,5,0,0,0-1-.79c.07.33.21.55-.24.84,0,0-.13.2,0,.26.14.23.14.23-.19.31s-.19.31-.16.47a.22.22,0,0,0,.31.19l.16,0c.19-.3.5-.11.76-.09C54.89,23.65,54.61,23.19,55,23Z"/><path class="cls-63" d="M22.16,56.69c.1.07.27,0,.23-.14s.13-.2.29-.24c0-.27.16-.47.18-.74a22.59,22.59,0,0,1,.87-2.29c.07-.1.07-.1.23-.14s.09-.37.16-.47c-.18-.4,0-.7.27-1.11a.71.71,0,0,0,0-.43s-.13.2-.23.14A44.32,44.32,0,0,0,22.16,56.69Z"/><path class="cls-64" d="M47.48,28.53c.16-.47.09-.37.46-.28a2,2,0,0,0,.63.11c-.07-.33-.73-.18-.51-.75l-.17,0c-.39.18-.63-.11-1-.2l-1.6-.14a.25.25,0,0,0-.33.07c-.06.11,0,.17.14.23A18.91,18.91,0,0,0,47.48,28.53Z"/><path class="cls-65" d="M49.24,29.77c-.37-.09-.55-.48-.87-.4-.06.53.32,1.05.37,1.65.33-.08.67.27,1.13,0,.23-.14.19-.3.05-.53l.06-.1A.93.93,0,0,0,49.24,29.77Z"/><path class="cls-66" d="M29.92,21.54c0,.16.21.12.31.19.74-1,1.64-2,2.48-2.85.29-.24.44-.72.84-.9l-.31-.18A32.54,32.54,0,0,0,29.92,21.54Z"/><path class="cls-67" d="M41.3,13.89c.27,0,.4-.18.7,0a47.94,47.94,0,0,1,4.81-1.39c.16,0,.26,0,.33-.08-.11-.5-.37-.09-.64-.11-1.61.55-3.19.84-4.87,1.49A.27.27,0,0,0,41.3,13.89Z"/><path class="cls-68" d="M40,54.92c.1.06.16,0,.26,0-.09.36-.56.21-.48.54a21.84,21.84,0,0,0,3.12-1.17c-.2-.12-.08-.33-.11-.49A11.33,11.33,0,0,0,40,54.92Z"/><path class="cls-69" d="M47.38,53c-1.26.21-2.62.36-3.77.63-.16,0-.43,0-.56.22.27,0,.08.33.18.39a34.84,34.84,0,0,1,4-1C47.31,53.11,47.51,53.23,47.38,53Z"/><path class="cls-70" d="M48.55,21c0,.16.07.33.24.29.49-.12.9.14,1.33.12.26,0,.61.38.92-.13.07-.1.47.15.74.18s.59-.06.86,0A4,4,0,0,0,50.91,21c-.64-.11-1.36.15-2.09,0A.44.44,0,0,0,48.55,21Z"/><path class="cls-71" d="M50.15,33a5.76,5.76,0,0,1-.63-1.24c-.07-.33-.43,0-.53-.05a4.62,4.62,0,0,0,.25,1.86C49.67,33.58,50,33.51,50.15,33Z"/><path class="cls-31" d="M47.43,35.59l-.2-.13a6.45,6.45,0,0,0-1.63,3.95c.23-.14.13-.2.39-.61a14.87,14.87,0,0,1,.61-1.88c0-.44.38-.62.64-1C47.4,35.86,47.57,35.82,47.43,35.59Z"/><path class="cls-72" d="M50.28,57.8c.8.07,1.56,0,2.26,0,.16,0,.26,0,.43,0a9.19,9.19,0,0,0-2.13-.2c-.1-.06-.59.05-.24-.29a.12.12,0,0,0,0-.17,2,2,0,0,0-1,0c-.16,0-.2-.13-.3-.19s-.1-.06-.27,0-.33.07-.19.3a.37.37,0,0,0,.41.26c.33-.08-.13.2,0,.16A7.32,7.32,0,0,0,50.28,57.8Z"/><path class="cls-73" d="M29.28,57.45c.54.48,1,0,1.46-.08.26,0,.49-.12.76-.09A5.63,5.63,0,0,0,32.65,57l.19-.3A13.14,13.14,0,0,0,29.28,57.45Z"/><path class="cls-74" d="M50.15,33a2.35,2.35,0,0,1-.91.57l0,.16a.73.73,0,0,1-.51.82,4.17,4.17,0,0,1-.68.42c.26,0,.36.09.53,0,.47.15.66-.16.81-.63,0-.26,0-.26.33-.07-.24-.3-.21-.56,0-.7a1.9,1.9,0,0,0,.66-.16C50.39,33.33,50.19,33.2,50.15,33Z"/><path class="cls-75" d="M49.48,61.56l.2-.31a.13.13,0,0,0,0-.17c-.14-.22-.31-.18-.57-.21a11,11,0,0,1-1.81-.7c-.47-.15-.9-.14-1.37-.29.44.42,1.14.43,1.65.74A14.06,14.06,0,0,1,49.48,61.56Z"/><path class="cls-76" d="M50.79,61.94c.92,1,1.87,1.74,2.72,2.84.14.23.17,0,.07-.1a20.28,20.28,0,0,0-2.73-2.84l-.4-.25c-.27,0-.23.14-.13.2A.67.67,0,0,0,50.79,61.94Z"/><path class="cls-77" d="M25.66,24.55l.16,0a18.44,18.44,0,0,1,0-3c-.2-.12-.22.14-.29.25a4.52,4.52,0,0,0-.1,2.63C25.43,24.69,25.49,24.59,25.66,24.55Z"/><path class="cls-22" d="M64.13,40.35c0,.16,0,.16.21.12a.71.71,0,0,0,.37-1c-.08-.33-.34-.36-.42-.69a.41.41,0,0,0-.26,0c-.07.1-.4.18-.26.41.1.06.27,0,.2.12s-.29.25-.25.41S64,40.12,64.13,40.35Z"/><path class="cls-78" d="M26.36,58.75a.45.45,0,0,1-.24-.29,19.31,19.31,0,0,0-2.92,1.3c.1.06.14.22.24.29a26.42,26.42,0,0,0,2.49-1.29C26.1,58.72,26.3,58.85,26.36,58.75Z"/><path class="cls-79" d="M15.66,70.93a13.24,13.24,0,0,0,1.66-2.65l-.2-.13c-.11-.06-.11-.06-.17,0l-1,1.63c.08.34-.25.41-.28.68S15.46,70.81,15.66,70.93Z"/><path class="cls-80" d="M74,32.89c-.36-.09-.6-.38-1.06-.1.1.06.14.23.18.39-.35-.35-.5.12-.87,0-.1-.06-.19.31-.15.47s.2.13.37.09c.12-.2.19-.3.33-.08l.1.07c0-.27.45-.29.58-.49.09-.37.29-.24.4-.18Z"/><path class="cls-6" d="M39.69,12.88a.5.5,0,0,0-.6,0c-.65.59-1.23,1.08-1.88,1.67-.23.14-.19.3,0,.43C38.1,14.3,38.81,13.61,39.69,12.88Z"/><path class="cls-81" d="M49.38,57.66c.07-.1.23-.14.3-.24-.14-.23-.43,0-.57-.21-.31-.19.29-.25.09-.37l-1.6-.15c-.06.1-.19.31,0,.44C48.25,57.24,48.75,57.55,49.38,57.66Z"/><path class="cls-82" d="M18.43,66.28a33,33,0,0,0,1.48-3.05l-.1-.06c-.37-.09-.5.11-.42.44a.17.17,0,0,1-.13.21c-.16,0-.29.24-.36.34a2.89,2.89,0,0,1-.66,1.29C18.25,65.88,18.12,66.09,18.43,66.28Z"/><path class="cls-83" d="M43.69,9.85a18.11,18.11,0,0,0,2.92-2.43,29.78,29.78,0,0,0-3.16,2.14A.47.47,0,0,0,43.69,9.85Z"/><path class="cls-21" d="M54.73,61.71c-.28-.46-.53-.05-.93.13.13-.2.26-.41.42-.45-1,.24-1,.24-.71.69a4.62,4.62,0,0,0,1.2.33A2.84,2.84,0,0,1,54.73,61.71Z"/><path class="cls-84" d="M62.77,49.28c-.17,0-.43,0-.56.22s-.33.08-.49.12c.3.19.31.62.61.81.17,0,.14.23.24.29.46-.28.25-.84.34-1.21.06-.1.13-.2-.14-.23Z"/><path class="cls-85" d="M20.59,61.24h0c-.27,0-.29.25-.49.55s-.15.47-.34.78a.65.65,0,0,0,0,.86,1,1,0,0,0,.35-.77,2.24,2.24,0,0,1,1-1.2c-.14-.23-.21-.13-.37-.09C20.85,61.27,20.69,61.31,20.59,61.24Z"/><path class="cls-86" d="M37,63.55c-.07.1-.13.2-.19.3a6.2,6.2,0,0,0,2.33,1.89C38.36,65,37.68,64.26,37,63.55Z"/><path class="cls-87" d="M26.71,34.57l.2.12a6.92,6.92,0,0,0,.91-2.13c.06-.1.12-.2,0-.26s-.16,0-.23.14A7.47,7.47,0,0,1,26.71,34.57Z"/><path class="cls-26" d="M23.86,53.07c-.1-.06-.36-.08-.33.08a8.26,8.26,0,0,0-.67,2.42c.46-.28.35-.78.54-1.08A3.14,3.14,0,0,0,23.86,53.07Z"/><path class="cls-88" d="M71.28,35.88c-.19.3-.62.32-.81.62s-.27,0-.47-.15c.08.33,0,.6.13.93A6.54,6.54,0,0,0,72,35.45c-.1-.06-.1-.06-.27,0C71.58,35.63,71.41,35.67,71.28,35.88Z"/><path class="cls-89" d="M27,58c.2.12.27,0,.33-.08.28-.68.77-1.23,1-1.8-.2-.13-.29.24-.43,0C27.57,56.81,27.25,57.32,27,58Z"/><path class="cls-90" d="M24,34.69c0,.17,0,.17.07.33s.27,0,.23-.14c-.07-.33.12-.63.11-1.07.06-.1,0-.26.09-.37-.22-.56.1-1.07.26-1.54,0-.26.31-.51.07-.8A10.11,10.11,0,0,0,24,34.69Z"/><path class="cls-91" d="M43.69,9.85c0-.17-.14-.23-.2-.13-.59.49-1.21.81-1.79,1.29.1.07,0,.17.13.23C42.42,10.76,43.1,10.33,43.69,9.85Z"/><path class="cls-92" d="M19.91,63.23c-.21-.56.21-1,.26-1.54a12.23,12.23,0,0,0-1.23,2.64c.17,0,.13-.21.29-.24s.23-.15.16-.48S19.68,63.37,19.91,63.23Z"/><path class="cls-93" d="M15.66,70.93c-.07-.33.15-.47.18-.74.06-.1.29-.24.09-.37-.57.92-1.25,1.78-1.76,2.6.21.12.27,0,.23-.15s.13-.2.33-.07c-.07-.33.42-.45.51-.82C15.41,71.34,15.53,71.14,15.66,70.93Z"/><path class="cls-94" d="M46.4,12.25c.27,0,.46-.28.64.11A6.09,6.09,0,0,0,48.25,12c.07-.1-.2-.13,0-.17a2.45,2.45,0,0,0,.62-.32c.06-.1.29-.24,0-.26A23.14,23.14,0,0,0,46.4,12.25Z"/><path class="cls-52" d="M66.9,28c.23-.14.37.09.47.15.44.42,1.17.16,1.61.58a.11.11,0,0,1,.16,0,8.92,8.92,0,0,0-2.31-1c-.06.11-.23.14-.19.31S66.74,28.07,66.9,28Z"/><path class="cls-95" d="M48.76,11.17c.21.13,0,.17-.12.21a2.62,2.62,0,0,1-.79.36l.3.19a13.16,13.16,0,0,0,1.73-1.19C49.51,10.65,49.22,10.89,48.76,11.17Z"/><path class="cls-96" d="M50.79,61.94a.47.47,0,0,0-.24-.29c-.2-.12,0-.16.13-.2l-.31-.19c-.4-.25-.58-.65-1.11-.69l0,.16c0,.27.3.19.27.46l0,.16c.2.13.28.46.48.59S50.5,62.19,50.79,61.94Z"/><path class="cls-97" d="M45,27.71c-.14-.22,0-.26.19-.3a6.48,6.48,0,0,0-2.81.23C43.28,27.61,44.18,27.74,45,27.71Z"/><path class="cls-98" d="M55.92,62.74c.11-.64.32-.08.43,0,.22-.14.06-.1,0-.27,0-.43-.07-.33-.27-.45s-.7,0-1-.47c0,.27.28.46.21.56l.11.06c.2.13.11.5.48.59Z"/><path class="cls-99" d="M17.15,68.32l.1.06a7.13,7.13,0,0,0,1.11-2l-.1-.06c-.1-.07-.2-.13-.26,0-.22.58-.6,1.19-.85,2Z"/><path class="cls-100" d="M20.59,61.24c0,.27.14.23.36.09s.23-.14.44,0c.19-.31.52-.39.75-.53s.39-.18.41-.45,0-.16-.2-.12c-.39.18-.85.46-1.24.64A.93.93,0,0,0,20.59,61.24Z"/><path class="cls-101" d="M32.13,36.68c-.1-.07-.16,0-.26,0a16.09,16.09,0,0,0-1.62,1.69c.1.06,0,.16.1.06C31,37.81,31.49,37.27,32.13,36.68Z"/><path class="cls-102" d="M17.15,68.32c.28-.68.67-1.29,1-2.07l.17,0c-.14-.22,0-.43,0-.59-.41.88-.92,1.69-1.33,2.57Z"/><path class="cls-103" d="M22.42,60.11s.16,0,.1.07a1.08,1.08,0,0,1-.69.42c-.23.14-.56.22-.65.59a5.37,5.37,0,0,0,1.6-1c0-.26-.13-.23-.24-.29C22.65,60,22.48,60,22.42,60.11Z"/><path class="cls-104" d="M50.57,57.12a12.88,12.88,0,0,0,3.06-.63,15.93,15.93,0,0,1-2.77.39C50.79,57,50.69,56.92,50.57,57.12Z"/><path class="cls-32" d="M38.43,32.67a.22.22,0,0,1,.31.19,1.88,1.88,0,0,0-.85.46,14.68,14.68,0,0,0,1.77-.59c-.17-.4-.56.21-.8-.08a.16.16,0,0,1-.2-.12A.46.46,0,0,0,38.43,32.67Z"/><path class="cls-4" d="M72.29,34.94a2.91,2.91,0,0,1-.58-.64c-.16.47-.69.42-.84.89a.44.44,0,0,0,.37.09c.06-.1.16,0,.22-.14.23-.14.46-.28.57.21A.36.36,0,0,0,72.29,34.94Z"/><path class="cls-105" d="M47.61,57.13c0-.17,0-.27,0-.44-.43,0-.83-.24-1.33-.12A2,2,0,0,0,47.61,57.13Z"/><path class="cls-106" d="M56.49,21.53a11.58,11.58,0,0,1,.37,1.65c.14.23.21.13.37.09s0-.27-.17-.39a4.83,4.83,0,0,0-.51-1.45Z"/><path class="cls-107" d="M25.55,21.79c.07-.11,0-.27.29-.25A3.59,3.59,0,0,0,26.1,20,4.64,4.64,0,0,0,25.55,21.79Z"/><path class="cls-108" d="M50.57,57.12a.57.57,0,0,0,.39-.18c-.53,0-1.13,0-1.66,0,0,.17-.09.37.24.29S50.3,57.1,50.57,57.12Z"/><path class="cls-109" d="M33,59.46c.06-.11.16,0,.23-.14a3.49,3.49,0,0,0-1.69-.91A10,10,0,0,0,33,59.46Z"/><path class="cls-110" d="M44.69,45.37c.27,0,.64.11.79-.36,0-.26-.43,0-.24-.29.06-.1.19-.31,0-.43a.13.13,0,0,0-.17,0C44.77,44.57,44.85,44.9,44.69,45.37Z"/><path class="cls-98" d="M54.73,61.71c-.13.2-.32.51-.08.8.1.07.27,0,.37.09.43,0,.43,0,.35-.35s-.57-.21-.64-.54Z"/><path class="cls-111" d="M72,35.35c0-.16.06-.53-.11-.49s-.56.21-.85.46l.1.06c.14.23.3.19.57.21l.17,0Z"/><path class="cls-112" d="M47.38,53l-.13.21a9.11,9.11,0,0,0,2.08-.4A13.53,13.53,0,0,0,47.38,53Z"/><path class="cls-18" d="M45,44.26l.17,0a1,1,0,0,0,0-1.3A12.71,12.71,0,0,0,45,44.26Z"/><path class="cls-113" d="M64.23,49.2c0,.27-.49.55-.31.94a2.75,2.75,0,0,0,.71-.69C64.47,49.49,64.46,49.06,64.23,49.2Z"/><path class="cls-114" d="M34,50.87c.17,0,.33-.08.37.08.46-.28.82-.62,1.27-.91A11.42,11.42,0,0,0,34,50.87Z"/><path class="cls-115" d="M26.32,45.53c-.36-.09-.27-.45-.48-.58s-.24-.29-.44-.42a2.83,2.83,0,0,0,.69,1.14C26.16,45.57,26.36,45.7,26.32,45.53Z"/><path class="cls-116" d="M43.23,54.24a.11.11,0,0,0,0-.16c0-.27.27,0,.23-.14s-.27,0-.37-.09l-.33.08c0,.16-.33.08-.19.31s.2.12.37.08Z"/><path class="cls-117" d="M40.69,6.55l.2.13c.32-.51.67-.85,1-1.36l-.1-.07A9.75,9.75,0,0,0,40.69,6.55Z"/><path class="cls-118" d="M58.09,20.54c0,.17-.13.21-.19.31s-.23.14-.13.2.17,0,.33-.07.26-.41.62-.32c.1.06,0-.17,0-.27s-.1-.06-.2-.13C58.32,20.4,58.26,20.51,58.09,20.54Z"/><path class="cls-21" d="M55.37,62.25c.08.33-.43,0-.35.35a1.76,1.76,0,0,0,.83.24C55.61,62.55,55.93,62,55.37,62.25Z"/><path class="cls-89" d="M29.25,55c-.56.22-1,.67-.86,1.16C28.64,55.77,29,55.43,29.25,55Z"/><path class="cls-119" d="M18.28,65.62a1.56,1.56,0,0,0,.66-1.29A3,3,0,0,0,18.28,65.62Z"/><path class="cls-120" d="M25.66,24.55c-.11-.07-.17,0-.21-.13-.12.2,0,.43.09.76.2.13.37.09.39-.18C25.73,24.88,25.86,24.67,25.66,24.55Z"/><path class="cls-121" d="M36.91,14.41c.35-.35.64-.59,1-.94-.1-.06-.1-.06-.27,0C37.39,13.86,37,13.87,36.91,14.41Z"/><path class="cls-122" d="M56.72,57.85c-.06.1-.06.1-.23.14.47.15,1-.07,1.56,0A3.61,3.61,0,0,0,56.72,57.85Z"/><path class="cls-123" d="M41.63,8.42l.2.13c.19-.31.38-.62.64-1A2,2,0,0,0,41.63,8.42Z"/><path class="cls-124" d="M22.75,60a.42.42,0,0,1,.24.29c.16,0,.22-.14.39-.18.13-.21.09-.37-.24-.29C23,59.79,22.81,59.94,22.75,60Z"/><path class="cls-40" d="M24.3,33.91c-.25.41-.08.81-.33,1.21l.2.13A5.39,5.39,0,0,0,24.3,33.91Z"/><path class="cls-125" d="M26,26.3c.35-.34,0-.6-.13-.93-.1-.06-.06.1-.12.21A1.17,1.17,0,0,0,26,26.3Z"/><path class="cls-40" d="M24.23,35.15c-.35.34-.07.8,0,1.13A2.05,2.05,0,0,0,24.23,35.15Z"/><path class="cls-3" d="M54.21,41.39c-.27,0-.33.07-.46.28s.21.12.24.29A1.29,1.29,0,0,0,54.21,41.39Z"/><path class="cls-126" d="M15.34,71.44c-.29.25-.52.39-.51.82C15,72,15.25,71.81,15.34,71.44Z"/><path class="cls-23" d="M66.05,23.1c-.23.14-.53-.05-.62.32.23-.14.52-.38.63.12A.67.67,0,0,0,66.05,23.1Z"/><path class="cls-100" d="M20.17,61.69c.23-.14.25-.41.38-.61l0-.17A1,1,0,0,0,20.17,61.69Z"/><path class="cls-23" d="M66.05,22a.82.82,0,0,0,0,.87C66.17,22.47,66,22.24,66.05,22Z"/><path class="cls-28" d="M56.55,21.43a.64.64,0,0,0-.31-.62C56.38,21,56.35,21.3,56.55,21.43Z"/><path class="cls-127" d="M52.48,36.05a15,15,0,0,1-2.61,3.05c.08.33.43,0,.61.38-.7,0-.55.65-1,.93a1.86,1.86,0,0,0-.55.66,23.41,23.41,0,0,1-1.67,2.22.11.11,0,0,0,0,.16c.2.13.47.15.56-.22s.71-.69,1.14-.7c.16,0,.57.21.46-.28,0-.17.31-.51.31-.51.33-.08.54,0,.45.41.36.09.72-.25,1.19-.1.1.06.16,0,.13-.21s-.18-.39-.41-.25c.19-.31.5-.12.72-.26-.17-.39.08-.8,0-1.13,0,0,0-.16.06-.1.43,0,.52-.39.71-.69a1.68,1.68,0,0,1,1-.5c.06-.1-.08-.33.13-.21.5.32.33-.07.29-.24-.08-.33,0-.53-.09-.76s-.07-.33.09-.37.14.23.24.29c.22-.57-.22-1-.17-1.53,0-.26-.38-.52-.29-.89-.1-.06-.3-.18-.33.08s-.22.14-.39.18C52.73,35.21,52.74,35.64,52.48,36.05Z"/><path class="cls-128" d="M52.48,36.05c.26-.41.45-.71.7-1.12a1.49,1.49,0,0,1,.22-.58c0-.26.33-.07.5-.11a20.47,20.47,0,0,1,2.47,1c.44,0,.2-.31.09-.37-.36-.09-.31-.62-.64-.54,0-.27-.28-.46-.25-.73s0-.27.39-.18.47.15.46-.28c-.24-.29-.67-.28-1-.63.39-.18.82-.2,1.08-.6a.45.45,0,0,1,.38-.62,11.63,11.63,0,0,0,4.21-2.9l.12-.21c.07-.1.19-.3.09-.37s-.26,0-.49.12c-.46.28-.88.73-1.4,1.11-.23.14-.39.18-.49.12s-.27,0-.4.18a1.7,1.7,0,0,1-.65.59,8,8,0,0,1-4,1.3l-.17,0c-.16,0-.19.31-.25.41,0,.26-.12.63-.45.71s-.25.41-.18.74c.1.06.2.13,0,.17-.29.24-.69.42-.41.88,0,.16-.25.4-.12.63s.23-.14.4-.18a.44.44,0,0,0,.09-.37.73.73,0,0,1,.15-.47c0,.43-.24.84-.29,1.38C52.7,35.48,52.41,35.72,52.48,36.05Z"/><path class="cls-129" d="M57.55,43.47c.43,0,.32-.51.44-.72s.19-.3.32-.51-.16-1.09-.26-1.15-.16,0-.23.14-.13.2-.25.41c.29-.25.25-.41.28-.68,0-.43.15-.47.46-.28.1.06.23.29.36.09s0-.27-.11-.5c-.1-.06-.14-.23-.18-.39a.62.62,0,0,0,.28.45,1.11,1.11,0,0,1,.52.75.9.9,0,0,0,.74.61c.37.09.5-.12.59-.49a7.55,7.55,0,0,0-.89-3.53c-.14-.23-.21-.56-.61-.38-.35.35-.85.46-.8,1.06-.16,0-.4-.25-.47-.15-.09.37-.72.26-.44.72.07.33-.12.63-.14.9s-.46.28-.77.09c0,.27.61.38.42.69s-.49.11-.58.48c.16,0,.64-.58.4.26.4.25-.09.37-.12.63s.28.46.36.79-.36.34-.49.55C56.79,43.56,57.18,43.38,57.55,43.47Z"/><path class="cls-130" d="M59.24,37.15c.54.05.58.65.76,1a6,6,0,0,1,.62,2.38c0,.26-.31.51.09.76.06-.1.23-.14.2.13s.05.59,0,.86a.44.44,0,0,0,.38.52.55.55,0,0,0,.32-.51,17.31,17.31,0,0,1-.16-2.22,4.5,4.5,0,0,0-.57-1.78,6.26,6.26,0,0,1-.64-1.68,7.37,7.37,0,0,0-1.6-1.71.72.72,0,0,1-.47-.15.51.51,0,0,0-.66.16c-.13.2-.22.57.15.66s.28.45.48.58A11.76,11.76,0,0,0,59.24,37.15Z"/><path class="cls-131" d="M58.08,35.86c0-.17-.14-.23-.11-.5.06-.1-.14-.22-.24-.29s-.29.25-.26,0-.08-.33.09-.37a.6.6,0,0,1,.53,0c.1.06.24.29.36.08-.31-.62-1-.89-1.42-1.31-.2-.13-.34-.36-.67-.28-.09.37-.27,0-.43,0s-.21-.13-.37-.09c.24.29-.48.55.09.76.2.13.2.13.13.23-.21.57.18.39.51.32-.19.3-.15.47.11.49s.37.09.08.33c.46.15,1.1.26,1.37.72C58,36.06,58,36,58.08,35.86Z"/><path class="cls-132" d="M64.68,27.78a4.72,4.72,0,0,0-1.06.33c-.49.12-.92.13-1.14-.42,0-.17-.23-.3-.17-.4s.25-.41.59-.05c-.13-.23-.27-.46-.15-.66.27,0,.38.52.68.27-.08-.33.42-.44.34-.77s-.24-.29-.47-.15c0-.17.09-.37-.17-.4s-.36.35-.55.65l-.7,1.13c-.07.1-.29.24-.16.47a1.49,1.49,0,0,0,.55.48c.4.25,1,.2,1,.8,0,.16.3.19.4.25.37.09.9.13,1,.63a1.33,1.33,0,0,0-.81-.51c-.1-.06-.26,0-.39.18s0,.27.17.4.35.35.55.48.4.25.38.52a1.28,1.28,0,0,1-.62.75c-.06.1-.16,0-.1-.06-.17-.39-.53-.05-.79-.07-.6.05-1,.76-1.72.49-.1-.07-.33.08-.29.24s-.25.41-.12.64c.11.06.11.06.17,0,.49-.12.73.17.91.57s.25.72.65,1c.21.13,0,.27.08.33.3.19.47.15.66-.15s.66-.16.95-.4c-.47-.15-.86,0-1.1-.26-.1-.07-.2-.13-.14-.23.33-.08.38-.61.45-.72.45-.28.12-.2-.08-.33a2.61,2.61,0,0,1-.93-.3,2.69,2.69,0,0,1,1.53.25c.16,0,.33-.08.43,0,.26,0,.63.11.62-.33.06-.1.13-.2.33-.07.06-.11,0-.17-.14-.23a.25.25,0,0,1-.07-.33.22.22,0,0,1,.36.09c.11.06.08.33.24.29s-.13-.23,0-.27c.79-.36.31-.94.36-1.48-.27,0-.09.37-.36.35s-.13-.23-.07-.33a.16.16,0,0,0-.2-.13c-.1-.06-.27,0-.2-.13s.12-.2.22-.14c.27,0,.27,0,.13-.2a.42.42,0,0,0-.24-.29c.19-.31.16-.47-.25-.73-.1-.06-.47-.15-.38-.52S64.84,27.74,64.68,27.78Z"/><path class="cls-133" d="M70.51,30.14c-.17,0-.37-.09-.53-.05s-.33.08-.24-.29c.25-.41-.28-.45-.35-.35a1.07,1.07,0,0,1-1.17-.59c-.1-.07-.14-.23-.37-.09s-.39.18-.62.32c0,.6.35.79.91.57.43,0,.38.52.81.5,0,0,.07.33-.13.21s-.39.18-.66.15c.23-.14.29-.24,0-.43-.1-.06-.37-.09-.47-.15-.4-.25-.51-.75-1.11-.7-.16,0-.37-.08-.49.12s0,.43.44.42c.26,0,.53,0,.38.52a.35.35,0,0,0,.27.46c.13-.21-.24-.3-.07-.34s.2.13.3.19c.37.09.51.32.75.61.2.13,0,.27,0,.43s.16,0,.26,0c-.16,0-.16,0-.26,0s-.31-.19-.34-.35c-.08-.33-.18-.39-.47-.15s-.42.45-.75.52c.2.13.24.3.44.42.13-.2,0-.53.15-.47s.64.11.78.34l0,.17c-.22.14-.26,0-.46-.16,0,.17.17.4-.06.54.24.29.38.52.77.34.6-.05,1.2-.11.91-1a1,1,0,0,1,.15.66A.46.46,0,0,0,70,33s.12-.21.16,0c.24.29.6-.06.9.13.1.07.2.13.26,0,.2-.31,0-.44-.14-.66s-.18-.4-.35-.36c-.49.12-.59.06-.87-.4a1.27,1.27,0,0,1-.35-.79c.2.13.43,0,.63.11s.5-.11.59-.48A1,1,0,0,1,70.51,30.14Z"/><path class="cls-134" d="M70.85,30.5c-.07.1-.13.2-.19.3s-.3.25-.37-.08c0-.17-.17,0-.27,0s-.31.51-.26,0a.42.42,0,0,0-.23.14,1.51,1.51,0,0,0,.87,1.53l.3.19a.17.17,0,0,0,.13-.2c.06-.1-.31-.19,0-.27.17,0,.31.19.35.36a1.41,1.41,0,0,0,.21.55c-.37-.08-.57-.21-.9-.13s-.17,0-.2-.13-.08-.33-.31-.19,0,.44-.29.25-.17-.4-.28-.46c.23-.14-.13-.23-.07-.33s-.2-.13-.18-.39c-.22.14-.12.2-.09.37a.87.87,0,0,1-.11.63c-.16.47-.43,0-.66.16s-.42.44-.7,0l-.2-.13c-.9-.13-.9-.13-1.32.31a5,5,0,0,0,2,.24c.33-.08.54,0,.45.41-.07.11,0,.17.13.23s.17,0,.23-.14c.26-.41.61-.75,1.16-.27.1.06.1.06.26,0,.52-.38,1.36-.14,2.08-.4-.2-.13-.3-.19-.07-.33,0-.17-.14-.23-.08-.33.32-.51-.15-.66-.39-1a2.53,2.53,0,0,0-.49-1l-.1-.06c0,.16.24.29.21.56C71.09,30.79,71.11,30.52,70.85,30.5Z"/><path class="cls-135" d="M71.24,35.28c-.11-.07-.27,0-.37-.09s-.31-.19-.28-.46-.11-.49-.31-.62c-.17,0-.27,0-.5.12-.06.1-.29.24-.36-.09l-.11-.06c-.1-.06-.16,0-.12.2.07.33-.09.37-.42.45s-.09.37-.39.61c-.37-.52-.88-.83-1.46-.35-.23.14-.13.21-.16.47.17,0,.16-.47.4-.18.1.07.1.07,0,.17a.37.37,0,0,1-.26,0c-.07.11,0,.17.2.13a3.72,3.72,0,0,1,1-.07c.5.32.6.38.74.61a10.7,10.7,0,0,0,1.45-.52c.16,0,.39-.18.49-.11S71.25,35.71,71.24,35.28Z"/><path class="cls-136" d="M66.87,37.09a4.63,4.63,0,0,1-1,.07,1.86,1.86,0,0,0,1,.2A.35.35,0,0,0,66.87,37.09Z"/><path class="cls-137" d="M66.18,29.42c.16,0,.43,0,.59-.05a.11.11,0,0,0,0-.16l-.21-.13c-.26,0-.46-.15-.73-.18-.1-.06-.37-.08-.39.18s.2.13.3.19S66.08,29.36,66.18,29.42Z"/><path class="cls-138" d="M62.6,34.71c.12-.21.78-.36,0-.44-.27,0-.45-.41-.42-.68-.05-.6-.52-.75-.92-1-.2-.13-.13.2-.39.18-.14-.23.42-.45.18-.74l.16,0c.2.13.43,0,.7,0a.27.27,0,0,0,.33-.08c.09-.37.39-.18.62-.32.39-.18.69-.42,1,.2.09-.37.56-.22.71-.69.32-.51,0-.86-.53-1.18a.45.45,0,0,1-.24-.29c0-.17-.33.08-.3-.19s.23-.14.43,0,.47.16.55.49.36.08.55-.22a.57.57,0,0,1-.67-.28c-.14-.23-.63-.11-.93-.3L63.21,29c.25-.84-.7-.44-.88-.83-.1-.07-.4-.26-.61-.38a.23.23,0,0,0-.19.3c.32.63,1,.8,1.37,1.42.27.46.61.81.19,1.26-.12.21.12.5-.38.61.23-.14.29-.24.16-.47s-.41-.25-.47-.15c-.42.45-1.06.34-1.51.62a.13.13,0,0,1-.17,0c-.87-.4-1.42.25-2.18.34a1.07,1.07,0,0,0-.42.45.7.7,0,0,0,0,.43.26.26,0,0,0,.33-.08c.3-.24.64.11,1,0s.63.12.64.55c0,.16.4.25.5.31.74.18.84.24.82.94A2.17,2.17,0,0,0,62,36.06a1.63,1.63,0,0,1,.15.66c.11.06.21.12.27,0-.18-.39.19-.3.36-.34s.26,0,.33-.08-.21-.13-.14-.23c-.18-.39-.44-.42-.91-.57s-.11-.49-.35-.78c-.11-.07-.14-.23.12-.21C62.39,34.58,62.5,34.64,62.6,34.71Z"/><path class="cls-4" d="M71.24,35.28c0,.27-.33.08-.4.18.14.23.28.45.54.48a.52.52,0,0,0,.42-.45A1.26,1.26,0,0,1,71.24,35.28Z"/><path class="cls-22" d="M64.63,35.27l-.4-.25c-.1-.07-.16,0-.06.1a.36.36,0,0,0,.4.25Z"/><path class="cls-139" d="M36,15.4c.07-.1.13-.2.19-.3-.63-.11-.85.46-1.2.8A5.87,5.87,0,0,0,36,15.4Z"/><path class="cls-140" d="M61.49,42.1c-.13.21-.09.37-.32.51a.49.49,0,0,0-.09.37,8.86,8.86,0,0,1,.77,1.47,4.14,4.14,0,0,1,.75,2.18,4.83,4.83,0,0,1,.16,1.09l0,.16c0,.44.06,1,.07,1.47l0,.16c.1.07.14.23.34.36a5.87,5.87,0,0,1,.22-1.71c.06-.1,0-.16,0-.27.56-.21,0-.43,0-.7s-.48-.58-.49-1c.47.15.73-.26.95-.4-.13-.23-.6-.38-.15-.66-.2-.13.16-.47-.27-.46l-.1-.06c.45-.28,0-.43,0-.7s-.28-.46.12-.64a.45.45,0,0,0-.18-.39c-.36-.09-.44-.42-.51-.75a.75.75,0,0,0-1-.2C61.66,42.06,61.56,42,61.49,42.1Z"/><path class="cls-33" d="M61.49,42.1c.1.07.14.23.37.09s.62-.32.8.07l.16,0c.07-.1.07-.1,0-.26.19-.31.28-.68.67-.86a.23.23,0,0,0,.09-.37c-.14-.23-.2-.12-.43,0,0-.44.28-.68.31-1s.19-.3.25-.4.2-.31-.13-.23a3.91,3.91,0,0,1-1.73.06c-.36-.09-.66.15-.58.48a5,5,0,0,0,.6,1.51c.1.07.17,0,.2.13-.67-.28-.65-1-1-1.33A17,17,0,0,0,61.49,42.1Z"/><path class="cls-141" d="M63.65,39.76a1.38,1.38,0,0,0-.51.82c0,.17,0,.27.18.39s0-.16.13-.2l.16,0c0,.17.08.33,0,.27-.43,0-.42.45-.72.69-.16,0,0,.16.08.33.16,0,.23-.14.39-.18s.3-.24.33-.08c.2.13,0,.27,0,.27s-.2.31.13.23.45.42.84.24c.16,0,0,.26.18.39l.49-.12c-.2-.12.18-.74-.38-.52-.16,0-.11-.49-.47-.15,0-.27.63-.32.12-.63-.2-.13.19-.31.26-.41-.37-.09-.46.28-.73.25,0-.16.29-.24,0-.43s-.17-.39,0-.53C64.12,39.92,63.79,40,63.65,39.76Z"/><path class="cls-142" d="M64.58,46.16c-.25.41-.56.22-.82.19,0,.27.27.46.08.77a.11.11,0,0,0,0,.16c.47.15.71.44.29.89-.13.2-.12.64-.55.65-.16,0,0,.27.14.23s.37.09.47.15c.15-.47.71-.69.5-1.25a.37.37,0,0,0,0-.53,1.78,1.78,0,0,1-.48-.59.11.11,0,0,1,0-.16l.2.13C64.59,46.59,65,46.58,64.58,46.16Z"/><path class="cls-58" d="M66.48,43.8c.15-.47-.09-.77-.49-1-.37-.09-.27,0-.36.35l-.19.3c.1.07.33-.07.47.15,0,.27-.29.25-.36.35C65.79,44.22,66.15,43.87,66.48,43.8Z"/><path class="cls-143" d="M64.58,46.16c.24.29-.09.37-.22.57.47.15.52-.38.79-.36,0-.26-.47-.15-.28-.45A.57.57,0,0,1,64.58,46.16Z"/><path class="cls-58" d="M65.94,44.88c.06-.1.13-.2-.07-.33s-.23.14-.4.18C65.67,44.86,65.78,44.92,65.94,44.88Z"/><path class="cls-144" d="M60.76,23.92c-.06.1-.06.1-.23.14a.48.48,0,0,0,.28.45c.1.07.37.09.41.26-.18-.4-.57-.22-.9-.14a.9.9,0,0,1-.53-.05l-.17,0c-.49.12-.42.45-.41.88-.14-.23-.28-.46-.54-.48.16,0,.49-.12.42-.45.23-.14.15-.47,0-.43a.81.81,0,0,0-.85.46c-.08-.33.15-.47.28-.67s.25-.41.05-.54-.14-.23-.2-.13a1.22,1.22,0,0,1-1.09.18c-.26.4-.08.8-.17,1.17s-.28.67-.11,1.07.15.66.39.95.28.45.43,0c.13-.2.23-.14.4-.18a2.6,2.6,0,0,0,.63.11,1.83,1.83,0,0,1,.9.14c.3.19.53.05.82-.19,0,.59.15.66.61.37.23-.14.27,0,.37.09s.19-.3.32-.51.15-.47.48-.55c.3.19.33-.08.46-.28a.11.11,0,0,0,0-.16.54.54,0,0,0-.51-.32c-.36-.09-.4-.25-.11-.5a.41.41,0,0,0,.09-.37.44.44,0,0,0-.37-.08c-.45.28-.53-.05-.73-.18S60.93,23.88,60.76,23.92Z"/><path class="cls-145" d="M57.17,23.37a.63.63,0,0,0,1,0c.06-.11.09-.37.33-.08,0,.16.14.23-.09.37a.93.93,0,0,0-.41.88c.51.31.65-.59,1.12-.44,0,.16-.26.41.11.5.1.06,0,.16-.06.1a.61.61,0,0,0-.46.28l-.06.1c.1.06.1.06.16,0,.29-.24.33-.08.3.19s.37.09.41.25c-.18-.39-.25-.72.2-1,0-.27,0-.27.59-.49.29-.24.32-.51,0-.7a.83.83,0,0,1-.41-.68c.16,0,.2.12.3.19s0,.26.18.39a1.89,1.89,0,0,0,.46-.28c0-.43.48-.55.53-1.09a.9.9,0,0,1-1.25.21.26.26,0,0,0-.33.08c-.13.21-.3.24-.56.22.51-.82-.41-.25-.48-.58,0,.27,0,.43,0,.7a2.06,2.06,0,0,0-.77-.34c.14.23.55.48-.15.47-.1-.06-.23.14-.43,0s-.13.21-.29.25C57.16,22.94,57.19,23.1,57.17,23.37Z"/><path class="cls-145" d="M60.76,23.92h0c.08.33.41.25.51.31a.32.32,0,0,0,.53.05c.06-.1.17,0,.27,0s-.07.11-.13.21c-.29.24-.15.47-.24.84.45-.28.69,0,1,.2a3,3,0,0,0,.9-2.13c-.4-.25-.93-.3-1.27-.66-.13.21.24.3.11.5-.17,0-.31-.19-.53-.05-.21-.13-.23.14-.4.18C61.39,23.59,61.06,23.67,60.76,23.92Z"/><path class="cls-146" d="M63.6,23.42a5,5,0,0,1-.9,2.13.38.38,0,0,1-.26.41c-.16,0-.29.24-.36.34l-.25.41a.44.44,0,0,0-.09.37c-.06.1-.13.2,0,.27s.17,0,.33-.08a12.57,12.57,0,0,0,1.15-1.84,2.42,2.42,0,0,0,.6-1.18c.15-.48.21-1,.36-1.48a.26.26,0,0,0-.07-.33c0-.17,0-.17-.14-.23C63.78,22.68,63.69,23.05,63.6,23.42Z"/><path class="cls-145" d="M60,24.54c.21.56.57.22.84.24.1.06.35-.34.46.15.08.33.33-.08.4-.18-.41-.25-.84-.24-1-.63C60.31,24.2,60.18,24.4,60,24.54Z"/><path class="cls-146" d="M63.84,22.15a1.25,1.25,0,0,0,0-1,.86.86,0,0,1-.16.47Z"/><path class="cls-147" d="M61.48,23.23c.16,0,.22-.15.39-.18,0-.17,0-.27,0-.44C61.67,22.92,61.5,23,61.48,23.23Z"/><path class="cls-148" d="M51.94,41a.78.78,0,0,0-.95.4c.2.13.5-.11.51.32a2.05,2.05,0,0,0-1.26.21c-.39.18.08.33,0,.59-.16,0-.24-.29-.37-.08s.21.12.24.29a1.78,1.78,0,0,1-.1,1.07c-.13.2-.14-.23-.3-.19s-.09.37-.16.47-.13.2-.19.31.08.33.28.45c.09-.37.28-.67.71-.69.27,0,.46-.28.55-.65.12-.2.21-.57.58-.49.2.13.09-.36.29-.24,0-.16-.1-.06-.2-.12s-.24-.3-.07-.33c.29-.25-.08-.34-.12-.5.47.15.79-.36,1.29-.48-.27,0-.54,0-.51-.31-.16,0-.16,0-.13.2A.39.39,0,0,0,51.94,41Z"/><path class="cls-149" d="M51.94,41a.42.42,0,0,0,.24.29l.13-.2c.39-.18.26-.41.12-.64.16,0,.14.23.36.09s0-.16-.07-.33-.24-.29.09-.37.69-.42,1-.66l.06-.11c0-.16-.16,0-.37-.08,0-.17.23-.14.2-.31-.27,0-.14-.23-.34-.35-.13.2-.12.63-.63.32,0,.26-.35.34-.38.61s-.22.57-.58.48c-.07.11-.5.12-.09.37.1.07-.07.11,0,.27S51.64,40.77,51.94,41Z"/><path class="cls-148" d="M51,44.22c.09-.37.8.08.65-.58C51.45,43.78,51,43.63,51,44.22Z"/><path class="cls-150" d="M61.25,42.94a.41.41,0,0,0,0-.26c-.5-.32-.18-.83-.29-1.33,0-.16.09-.36-.12-.49-.16,0,0,.27-.15.47-.26.41-.26.41-.6.05-.1-.06-.13-.22-.16,0s-.13.21-.17,0a1.5,1.5,0,0,0-1-1.16c-.21-.13-.08-.33-.18-.4l-.2-.12c-.07.1-.07.1,0,.26l.42.69c-.23.14-.21-.13-.31-.19s-.4-.25-.46-.15-.32.51-.29.67c.28.46-.05.54-.28.68.44.42.4-.18.62-.32-.15.47.42.68.27,1.15.1.07.23-.14.2.13s.4.25.64.55c.27,0,.6-.06.84.23.1.07.23-.14.49-.11.07-.11.07-.11.23-.14s.39-.18.15-.48C61,42.65,61,42.92,61.25,42.94Z"/><path class="cls-151" d="M61.15,46.71c0,.16,0,.27-.23.14s-.14-.23-.34-.35c-.13.2.25.72-.32.51,0,0,0,.16.07.33s.54.48-.08.8A5.12,5.12,0,0,1,61.44,48l.21.13c0,.26-.23.14-.23.14-.17,0-.09.37-.4.18a.11.11,0,0,0,0,.16.22.22,0,0,0,.31.19c.45-.28.79.08,1.1.26.06-.1.12-.2,0-.26a1.45,1.45,0,0,0-.54-.48c-.14-.23,0-.17.13-.21a1.62,1.62,0,0,0-.34-1.48C61.5,46.36,61.26,46.07,61.15,46.71Z"/><path class="cls-152" d="M62.93,47.68a8,8,0,0,0-.7-2.71.92.92,0,0,0-.28-.45c-.26,0-.13.2-.25.41s.17.39.11.49c0,.27.21.56.19.83.1.06.24.29-.09.37l-.13.2c-.07.1,0,.17.14.23C62.45,47.1,62.43,47.8,62.93,47.68Z"/><path class="cls-153" d="M62.93,47.68c-.1-.06-.27,0-.31-.19s-.17-.39-.44-.42-.2-.12-.24-.29.07-.1.23-.14.17,0,.13-.2c-.34-.36-.12-.93-.53-1.18a.41.41,0,0,0-.37-.09c.14.23.28.46-.11.64-.13.2-.19.3,0,.43s.24.29.17.39c.51.32.29.89.51,1.45l.2.13C62.47,48,62.74,48,62.93,47.68Z"/><path class="cls-154" d="M61.76,44.82c.17,0,.19-.3.26-.4a9.35,9.35,0,0,0-.77-1.48c0-.16-.24-.29-.38-.52,0,.27,0,.44-.22.58a.42.42,0,0,1,.14.23l0,.16c.14.23.35-.34.37.09,0,.16-.09.37-.06.53C61.38,44.3,61.46,44.63,61.76,44.82Z"/><path class="cls-155" d="M63,47.85a.66.66,0,0,0-.79.36c0,.26,0,.43.21.55l.08.33c0,.17.26,0,.4.26a.13.13,0,0,0,.17,0c.22-.14,0-.27.05-.54A2.87,2.87,0,0,1,63,47.85Z"/><path class="cls-154" d="M60.42,43.14c-.1-.07-.2-.13-.26,0l-.17,0c-.57-.21-.67-.27-.9-.13.14.23.18.39.38.52l.07-.11c.19-.3.1.07.2.13l.1.06c0,.17.2.13.24.3s.1.06.26,0C60.17,43.55,60.56,43.37,60.42,43.14Z"/><path class="cls-152" d="M61.58,46.69c.33-.07,0-.26,0-.43s-.23-.29-.17-.39c-.1-.06,0-.17-.14-.23-.23.14.18.39,0,.53-.14-.22-.18-.39-.38-.52s-.1-.06-.17,0l-.06.11c.41.25.32.62.39,1l.1.06C61.27,46.5,61.4,46.3,61.58,46.69Z"/><path class="cls-156" d="M60,43.75c.07-.1-.1-.06-.2-.13s-.14-.22-.3-.19a1.58,1.58,0,0,0,.59,1.08l.16,0c.33-.07.13-.2.09-.37S60,44,60,43.75Z"/><path class="cls-29" d="M58.75,43.79a8.25,8.25,0,0,0,.65,1C59.29,44.28,59.32,44,58.75,43.79Z"/><path class="cls-29" d="M60,43.75c-.23.14,0,.27,0,.43s.2.13.08.33c.76-.09.15-.47.11-.63A.16.16,0,0,1,60,43.75Z"/><path class="cls-151" d="M59.61,47.59c.19-.3.39-.18.7,0a.3.3,0,0,0-.35-.35C59.76,47.12,59.53,47.26,59.61,47.59Z"/><path class="cls-157" d="M50.49,33.39a.44.44,0,0,0-.66.15,1.72,1.72,0,0,0,.9.14c0,.27-.43,0-.46.28s.33-.08.47.15c-.19.31-.19.31-.56.22-.16,0-.26,0-.12.21s-.09.36-.16.47a.31.31,0,0,0,.11.49c-.09.37.32.62.16,1.1a.4.4,0,0,0,.23-.15.68.68,0,0,1,.4-.18c.1.07-.13.21.07.33a5.28,5.28,0,0,0,1.07-2.16c-.2-.13-.34-.36-.54-.48Z"/><path class="cls-158" d="M47.43,35.59c-.36.35-.51.82-.9,1-.23.14.13.22.07.33l-.13.2a.66.66,0,0,0,0,.54.52.52,0,0,0,.6-.06c.33-.08.21-.57.58-.48l.06-.11c0-.43.06-.53.59-.48,0-.27-.34-.36-.25-.73.06-.1-.1-.06-.2-.12C47.67,35.88,47.67,35.88,47.43,35.59Z"/><path class="cls-159" d="M47.12,37.67c-.6,0-.6,0-.42-.69-.68.42-.43,1.15-.65,1.72-.13.2-.22.57-.35.78.45.42.61.38.79-.36-.23.14-.15.47-.52.38.38-.61.5-1.25,1.12-1.57A.37.37,0,0,1,47.12,37.67Z"/><path class="cls-160" d="M49.66,35.85c-.1-.07-.33.07-.24-.29.06-.11.13-.21-.08-.33s-.33.07-.45.28-.19.3.07.33c.1.06.33-.08.3.19-.06.1-.12.2-.22.14s-.13.2,0,.27c.43,0,.24.29.38.52s.3.18.49-.12,0-.27-.11-.5C49.67,36.28,49.63,36.11,49.66,35.85Z"/><path class="cls-161" d="M47.7,39.88a5.17,5.17,0,0,0,1.82-1.56l0-.17c-.16,0-.22.14-.39.18-.42.45-1,.93-1.42,1.38A.12.12,0,0,0,47.7,39.88Z"/><path class="cls-118" d="M50,35.5c-.13-.23-.17-.39.12-.63s.23-.15-.07-.33c-.36.34-.25.84-.4,1.31C49.82,35.81,49.85,35.54,50,35.5Z"/><path class="cls-161" d="M49.48,38.15a1,1,0,0,0,.78-.79C49.93,37.44,49.74,37.74,49.48,38.15Z"/><path class="cls-160" d="M49.39,37a.41.41,0,0,0-.37-.09c.14.23.34.35.25.72C49.56,37.35,49.43,37.12,49.39,37Z"/><path class="cls-162" d="M49.88,30.31c0,.17-.09.37-.05.54l.1.06c-.32.51.31.62.49,1,.1.06.2.12.14.22.07.33.07.33.47.15.2.13-.09.37,0,.44s.24.29.37.08.09-.36.22-.14.21.13.33-.07,0-.27-.07-.33a.53.53,0,0,0-.57-.22c-.17,0-.2-.12-.14-.23l.06-.1a1.83,1.83,0,0,1,1.3-1.18l.07-.1-.07.1.1.07c.15.66.32.62.84.24l.06-.11c.09-.37.48-.55.74-.95s0-.54-.25-.73-.66.16-.93.13-.09.37-.05.54h0c-.14-.23.05-.54-.25-.73-.1-.06-.16,0-.33.08a1.25,1.25,0,0,1-.72.26c-.17,0-.17,0-.23.14-.32.51-.6.05-.86,0s-.53-.05-.66.16l.2.12a.22.22,0,0,1,.3.19c0,.17-.12.21-.29.24A.24.24,0,0,1,49.88,30.31Z"/><path class="cls-163" d="M53.48,30.86c-.47-.15-.29.24-.42.44-.08-.33-.38-.52-.09-.76.07-.1-.1-.06-.2-.13a2,2,0,0,0-1.69,1.36c.1.06.27,0,.37.09a.44.44,0,0,1-.37-.09c-.19.31-.32.51.28.46a.56.56,0,0,1,.54.48c-.29.24-.4-.25-.67-.28a1,1,0,0,1,0,.54,2.59,2.59,0,0,0,1.43.18c.12-.2-.22-.56.28-.68.16,0,.13-.2.43,0-.18-.39.18-.74.07-1.23C53.62,31.08,53.58,30.92,53.48,30.86Z"/><path class="cls-39" d="M52.7,34.34a.44.44,0,0,0,0,.27c-.07.1,0,.27,0,.43a2.9,2.9,0,0,0,.46-1.41l-.1-.06A1.86,1.86,0,0,0,52.7,34.34Z"/><path class="cls-164" d="M49.7,38.71c-.09.37-.42.45-.61.75a2.31,2.31,0,0,0,1.14-.7C50,38.47,49.8,38.77,49.7,38.71Z"/><path class="cls-165" d="M51.4,34c.2.12.05.59.54.48C52.06,33.8,51.6,34.08,51.4,34Z"/><path class="cls-166" d="M49.38,25c-.2-.13-.36-.09-.23.14s.14.23.18.39.16,0,.23-.14c0,.16-.19.31-.16.47s.08.33.31.19.29-.24.53.05a1.85,1.85,0,0,1,.45.85.38.38,0,0,0,0,.27c0,.16-.26.4-.06.53s.4-.18.6-.05a.16.16,0,0,1,.2.12c-.16,0-.37-.08-.43,0s-.72.26-.12.63l.11.07c.21.56.21.56.77.34a.11.11,0,0,0,.16,0h0c.18.39.31.19.33-.08s.22-.57.14-.9c0-.17-.17-.4.06-.54s-.08-.33-.18-.39c-.24-.29-.15-.66-.29-.89s.13-.2.26-.41a.44.44,0,0,0,.09-.37.44.44,0,0,0-.27,0c-.16,0-.33.08-.36-.09s-.08-.33.09-.37.22-.14.12-.2c0-.27.09-.37.36-.35s.29-.24.19-.3c-.3-.19-.07-.33-.11-.5s0-.27-.18-.39a.25.25,0,0,0-.33.07c-.13.21-.33.08-.45.29.17.39-.17,0-.23.14a.47.47,0,0,0-.3.24c-.22.14-.4-.25-.57-.21,0-.17.13-.21.2-.31-.14-.23,0-.7-.32-.62s-.25.41-.38.61c-.2-.12-.44-.42-.7,0,0,.17-.33.08-.25.41.06-.1.23-.14.39-.18s.17,0,.27,0-.07.11-.13.21-.36.34-.22.57.41.25.8.07c0,.27-.29.25-.46.29s0,.16,0,.16l.1.06C49.48,25.1,49.48,25.1,49.38,25Z"/><path class="cls-167" d="M51.53,23.4c.13-.21.49-.12.69-.43-.13.21.27.46-.12.64-.17,0-.06.1,0,.17s.26,0,.4.25c-.06.1-.16,0-.27,0l-.1-.07c-.16,0-.22.14-.39.18.38.52-.58.49-.31.94s.51.32.8.08c-.06.1,0,.26-.13.2-.23.14-.29.24-.52.39.41.25.13.92.53,1.18a1.86,1.86,0,0,0,.55-.66c.12-.2.09-.36.42-.44l.1.06a.11.11,0,0,0,.16,0c-.5-.31.95-.4,0-.7-.14-.23-.08-.33,0-.6.06-.1,0-.16.23-.14s.29-.24.15-.47l-.3-.19c-.3-.19.15-.47,0-.7a.37.37,0,0,0,0-.26c-.53-.05-.38-.52-.45-.85a.4.4,0,0,0-.29.24c-.2.3-.26.41-.53.38s-.19.31-.42.45c-.1-.06-.11-.5-.23-.29a.76.76,0,0,0-.39.61l.1.06C51.2,23.48,51.3,23.54,51.53,23.4Z"/><path class="cls-168" d="M50.36,23.24c-.16,0-.29.24-.41.44.26,0,.76-.09.7.45l.1.06c.17,0,0-.27.09-.37s-.07-.33-.34-.35C50.63,23.26,50.53,23.2,50.36,23.24Z"/><path class="cls-167" d="M50.67,23.43c.1.06.14.23.34.35.06-.1.23-.14.29-.24l-.2-.13C51,23.18,50.8,23.22,50.67,23.43Z"/><path class="cls-169" d="M53.32,23.24l-.13.2c-.29.24-.19.31.11.5,0-.17,0-.27.16-.47S53.48,23.2,53.32,23.24Z"/><path class="cls-170" d="M47.36,43.35A8,8,0,0,0,49.09,41c0-.27.06-.54-.21-.56-.6.05-.65.59-.94.83-.13.2-.26.41-.27,0l-.1-.07c-.1-.06-.16,0-.12.21s-.53.38-.35.77c.1.07.24.3.47.15s.2.13.2.13a.13.13,0,0,1,0,.17c-.43,0-.32.51-.61.75s-.42.45-.72.69a.11.11,0,0,0,0,.16A3.8,3.8,0,0,1,47.36,43.35Z"/><path class="cls-171" d="M45.26,42.89a1.36,1.36,0,0,1,0,1.3,6.79,6.79,0,0,1-.24.84c.2.12.29-.25.49-.12a.91.91,0,0,0,.46-.28c.07-.1.07-.1,0-.17-.66.16-.37-.52-.41-.68a1.33,1.33,0,0,1,.21-1,.31.31,0,0,0-.12-.49C45.31,42.35,45.59,42.81,45.26,42.89Z"/><path class="cls-148" d="M49.67,42.81c-.17,0-.23.14-.39.18.1.06,0,.16.13.22s.21.13.17,0,0-.16.06-.1,0,.17.21.13c-.11-.06.12-.21,0-.27C49.9,42.66,49.77,42.87,49.67,42.81Z"/><path class="cls-110" d="M46,44.46h0c.17,0,.5-.11.52-.38l0-.17C46.32,44.12,46.09,44.26,46,44.46Z"/><path class="cls-172" d="M45.87,57.88c-.09.37-.19.31-.49.12-.1-.06-.4-.25-.23.14s.61.38.85.67l.1.06a10,10,0,0,0,2.77.74c1,0,1.8.27,2.76.31.07-.1.33-.08.13-.21a19.3,19.3,0,0,1-2.47-.54c-.46.28-.7,0-.94-.31A20,20,0,0,0,45.87,57.88Z"/><path class="cls-173" d="M48.87,59.61a19,19,0,0,0-2.77-.74,13.33,13.33,0,0,0,2.15,1.06C48.48,59.79,49,60.11,48.87,59.61Z"/><path class="cls-174" d="M51.82,59.61l-.12.21c.89.13,1.79.27,2.59.34.17,0,.23-.14,0-.27-.7,0-1.47-.35-2.27-.42C52,59.57,51.92,59.68,51.82,59.61Z"/><path class="cls-175" d="M54.42,60c0,.16,0,.16,0,.26.1.07.27,0,.37.09.33-.08.63.11,1.06.1-.14-.23-.36-.09-.4-.25A5.46,5.46,0,0,1,54.42,60Z"/><path class="cls-176" d="M48.88,40.47c.2.12.18.39.21.56.23-.14.26-.41.39-.62l-.21-.12c-.16,0,0,.16-.06.1-.06.1-.16,0-.1-.06s.13-.21.09-.37A.55.55,0,0,0,48.88,40.47Z"/><path class="cls-171" d="M45.89,41.44c-.33.07-.36.34-.39.61C45.83,42,45.76,41.64,45.89,41.44Z"/><path class="cls-72" d="M49.43,58.26c-.17-.39-.57-.21-.87-.4-.56.22-.56.22-1.29,0a.13.13,0,0,0-.17,0,9.23,9.23,0,0,0,3,1c-.23-.29-.83-.24-1-.63C49.17,58.24,49.37,58.36,49.43,58.26Z"/><path class="cls-72" d="M51.89,58.38c-.28-.46-.43,0-.6,0C51.5,58.56,51.73,58.42,51.89,58.38Z"/><path class="cls-72" d="M50.33,58.4l0-.17c-.26,0-.49.12-.76.09C49.74,58.45,50.07,58.37,50.33,58.4Z"/><path class="cls-72" d="M51.19,58.37c-.24-.29-.46-.15-.69,0A.66.66,0,0,0,51.19,58.37Z"/><path class="cls-177" d="M58.71,31.71c.16,0,.43,0,.59-.05a.13.13,0,0,0,.17,0c.34-.78.82-.2,1.25-.21l.2.12c.29-.67,1.09-.17,1.38-.84.1.06.33-.08.36.09.18.39-.16,0-.23.14a.24.24,0,0,0,.08.33c0,.16.1.06.16,0s.56-.22.32-.51l.07-.1c.42-.45.24-.84,0-1.3a3.56,3.56,0,0,0-1.12-1.13c-.1-.06-.18-.39-.44-.42s-.4.18-.52.39a12.28,12.28,0,0,1-3.68,2.95,2.18,2.18,0,0,0-1,.77,3.12,3.12,0,0,1-1.44.52c.44.41,1,.46,1.37.72a9.41,9.41,0,0,1,2.17,1.49c.78.77,1.69,1.34,1.78,2.53a2.62,2.62,0,0,0,.36.79c.1.06.16,0,.23-.14s.22-.14.32-.08c-.1-.06-.2-.13-.32.08a2.85,2.85,0,0,0,.45.85c.14.23.37.09.49-.12.49-.55.65-.59,1.22-.37.1.06.2.12.27,0s.35-.34-.08-.33c-.61-.38-.75-1-1-1.49-.14-.23-.41-.26-.54-.49s-.18-.39-.35-.35c-.43,0-.4-.25-.41-.69s-.52-.74-.86-1.1c-.2-.12-.3-.19-.28-.45s-.41-.69-.68-.71c-.76.09-1.14-.43-1.51-.95A2.56,2.56,0,0,0,58.71,31.71Z"/><path class="cls-178" d="M62.15,36.55c0,.27-.06.54.31.63.1.06.2.12.14.22-.05.54.31.63.68.71.06-.1,0-.16,0-.26a.74.74,0,0,0-.49-1c-.1-.06-.1-.06-.27,0C62.35,36.68,62.31,36.51,62.15,36.55Z"/><path class="cls-179" d="M63.36,38.44c-.11-.06-.11-.06-.27,0s-.13.2.07.33a.84.84,0,0,0,.8.07l.33-.08C64.12,38.35,63.69,38.37,63.36,38.44Z"/><path class="cls-180" d="M64.62,21.79c.56-.22.51-.82,1.18-.54-.07-.33-.15-.66-.22-1s-.44-.42-.71-.45-.33.08-.39.18c.26,0,0,.6.44.42.23-.14.33-.08.53.05a.37.37,0,0,1-.25.41.62.62,0,0,1-.54-.05l-.2-.13C64.37,21.06,65,21.17,64.62,21.79Z"/><path class="cls-181" d="M64.54,22.59a.22.22,0,0,0,.19-.31c0-.16-.56-.21-.21-.56.07-.1,0-.16-.1-.06-.1-.06-.16,0-.13.2a.61.61,0,0,1,0,.44C64.18,22.5,64.38,22.63,64.54,22.59Z"/><path class="cls-8" d="M64.54,22.59c0-.17-.3-.19-.34-.36-.26,0,0,.27-.29.25-.06.1-.06.1,0,.26.24.3.41.26.66-.15C64.58,22.75,64.48,22.69,64.54,22.59Z"/><path class="cls-182" d="M48.42,58.76h0c0,.43.27.46.54.48s.43,0,.39-.18A1.24,1.24,0,0,1,48.42,58.76Z"/><path class="cls-181" d="M64.58,22.75c-.26,0-.39.18-.59.06a11.14,11.14,0,0,1-.86,2.72c.13.23,0,.44.15.66.16,0,.28-.67.49-.11.39-.18.12-.64.45-.72-.24-.29.12-.2.25-.41-.3-.19-.21-.55.14-.9l-.2-.13c-.16,0-.2-.12-.3-.19a.22.22,0,0,1,.19-.3C64.43,23.22,64.66,23.08,64.58,22.75Z"/><path class="cls-183" d="M51.6,28.69c-.1-.06-.28-.46-.33.08-.07.1-.13.2-.23.14s-.2-.13-.14-.23c.26-.41-.17-.39-.21-.56s.37.09.29-.24c0-.17.17,0,.23-.14s0,.43.2.12c.23-.14.09-.37,0-.59-.19.3-.45.28-.78.36.39-.18.11-.64.24-.85s-.3-.18-.18-.39c-.26,0-.24-.29-.34-.35s-.27-.46-.53-.05c-.06.1-.16,0-.33.08.07-.11,0-.17,0-.27a.73.73,0,0,0,.15-.47c-.3-.19-.29.24-.45.28l-.13.2c-.17,0-.1-.06,0-.16s-.24-.29-.34-.36c.11.5.49,1,.11,1.63-.47-.15-.64-.11-.65.59-.06.1,0,.16,0,.27a10.42,10.42,0,0,0,1.68.9,4.58,4.58,0,0,1,1,.8.54.54,0,0,0,.57.22l.33-.08c0-.27.48-.55.14-.91-.22.14-.12.21-.16,0s.09-.37-.08-.33.14.23,0,.27,0,.27,0,.43C51.41,29,51.64,28.85,51.6,28.69Z"/><path class="cls-183" d="M49.38,25c0,.16,0,.16.2.12a.23.23,0,0,0,.2-.3l-.17,0A.4.4,0,0,0,49.38,25Z"/><path class="cls-184" d="M56.8,23.28c-.34-.35-.49.12-.56.22.08.33-.09.37-.25.41-.33.08-.24-.29-.44-.42-.06.54-.75.53-.81,1.06a.5.5,0,0,0-.09.37c0,.17-.25.41-.52.39a.82.82,0,0,0-.43,1.14l.1.07c.49-.12.92-.13,1-.77a.42.42,0,0,1,.29-.24c.23-.15.62-.33.71-.69s.32-.51.79-.36C56.79,24,57.08,23.74,56.8,23.28Z"/><path class="cls-184" d="M52,28.67c.17.4-.32.51-.14.91a.65.65,0,0,0,.55-.22c-.17-.39.16-.47.29-.68s.29-.24.31-.51c-.21-.55.25-.84.54-1.08.46-.28.26-.41,0-.6-.26,0-.73-.17-.48.55a.76.76,0,0,1-.32-.62c-.16,0,0,.27-.19.31a.4.4,0,0,0-.32.51c.14.22-.19.3-.21.57A1.09,1.09,0,0,1,52,28.67Z"/><path class="cls-185" d="M56.8,23.28a3.84,3.84,0,0,1-.27,1.11,10.86,10.86,0,0,0-.82,1.76c.14.23.31.19.43,0,.39-.62,1-1.1.88-1.86.11.06,0,.26.08.33.09-.37-.09-.77.07-1.24l0-.16a.25.25,0,0,1-.33.07Z"/><path class="cls-169" d="M53.57,24c0,.17,0,.27,0,.43-.17,0-.47-.15-.43,0,.07.33-.28.67.12.93a2.19,2.19,0,0,1,.84-.9l.13-.2c-.24-.29.19-.31.25-.41C54,23.25,53.86,23.72,53.57,24Z"/><path class="cls-186" d="M52.49,27.26c.13-.2,0-.53.28-.67a.57.57,0,0,1,.28-.68c-.3-.19-.33.08-.39.18l-.51.82c.1.06.27,0,.14.22S52.33,27.3,52.49,27.26Z"/><path class="cls-62" d="M55,23c-.06.11-.06.11,0,.27s.16,0,.33-.08.49-.11.48-.55c.06-.1-.2-.12-.17,0C55.43,23,55.17,23,55,23Z"/><path class="cls-162" d="M49.24,29.77a1.93,1.93,0,0,1,.64.54C50,29.94,49.83,29.72,49.24,29.77Z"/><path class="cls-134" d="M72.26,32.51c.07.33.2.13.37.09a1.65,1.65,0,0,0,.55-.22C72.82,32.29,72.51,32.1,72.26,32.51Z"/><path class="cls-133" d="M66.57,29.24l.1.07a.91.91,0,0,0,.46-.28.13.13,0,0,1,0-.17c.2.13.33-.08.29-.24-.16,0-.4-.26-.63-.11-.39.18-.34-.36-.67-.28.23-.14.53.05.66-.16-.2-.12-.43,0-.18-.39a2.63,2.63,0,0,1-1.69-.21c-.1-.06-.43,0-.3.24l.31.19a2.8,2.8,0,0,0,1.21.76C66.46,28.75,66.43,29,66.57,29.24Z"/><path class="cls-187" d="M67.13,29a.88.88,0,0,0-.46.28l.1.06c.43,0,.71.44,1,.63l.11.07a.52.52,0,0,0,.41-.45l-.1-.07c-.58.49-.63-.11-.87-.4C67.1,29.29,67.17,29.19,67.13,29Z"/><path class="cls-188" d="M46,58.81c-.11-.49-.55-.48-.85-.67-.16,0-.5-.31-.53,0s.37.09.51.32l.3.19C45.59,58.56,45.77,59,46,58.81Z"/><path class="cls-189" d="M49.68,61.25c.16,0,.16,0,0-.27l-.4-.25c-.17,0-.17,0-.23.14Z"/><path class="cls-178" d="M64,38.82c-.14-.23-.53,0-.73-.17s-.2-.13-.14-.23c-.61-.38-.94-.3-1.48.35-.07.1-.13.2-.23.14a.11.11,0,0,1,0-.16c-.07-.34-.28-.46-.52-.75-.06.1-.16,0-.22.14a17.27,17.27,0,0,1,.57,1.78,2.45,2.45,0,0,0,.63,1.24c.14.23.38.52.6,0a1.29,1.29,0,0,1-.72-.88.26.26,0,0,0-.08-.33c-.3-.19-.11-.49-.05-.6s.27,0,.47.15.33-.07.6-.05.49-.12.8.07.22-.14.19-.3S64,39,64,38.82Z"/><path class="cls-190" d="M58.61,29.38a.27.27,0,0,1,.33-.08,2.62,2.62,0,0,0,1.5-1.05,7.44,7.44,0,0,1-1.29-1.08c-.13-.23-.4-.26-.69,0a.82.82,0,0,1-1.13,0c-.24-.29-.6.06-.8-.07-.39.18-.44.71-.63,1a13.35,13.35,0,0,1-1.8,2.43c-.13.2-.29.24-.22.57,0,.16.31.19.47.15a9.71,9.71,0,0,0,4.17-1.51A.49.49,0,0,1,58.61,29.38Z"/><path class="cls-191" d="M60.34,28.19c-.32.51-1,.67-1.4,1.11.14.23.31.19.43,0l1.57-1.15c.06-.1.12-.21.23-.14a4.06,4.06,0,0,1-1.49,1.48,8.1,8.1,0,0,1-2.12,1.37,4.12,4.12,0,0,0-1.25.64c-.29.24,0,.27,0,.43a14.58,14.58,0,0,0,5-3.86c.06-.1.23-.14.29-.24a.17.17,0,0,1,.13-.21l.25-.41c-.1-.06-.33.08-.14-.22.07-.11.13-.21,0-.27s-.29.24-.36.34a1.59,1.59,0,0,1-.81.63C60.6,27.78,60.37,27.92,60.34,28.19Z"/><path class="cls-192" d="M58.61,29.38a23.15,23.15,0,0,1-3.08,1.34,7.76,7.76,0,0,0-1.32.31c-.23.14-.37-.09-.57-.21l-.16,0c0,.16,0,.26.17.39A4.18,4.18,0,0,0,55.93,31a7.17,7.17,0,0,0,2.49-1.28C58.49,29.59,58.75,29.61,58.61,29.38Z"/><path class="cls-13" d="M52.7,34.34c.13-.2.16-.47.29-.67C52.66,33.75,52.73,34.08,52.7,34.34Z"/><path class="cls-52" d="M66.57,29.24c.32-.51-.15-.66-.52-.74s-.69,0-.8-.51c0-.16-.21-.13-.37-.09s-.27,0-.23.14.14.23.14.23c.43,0,.38.52.71.45.13.22-.4.17-.16.47.13-.21.23-.14.33-.08A1.72,1.72,0,0,0,66.57,29.24Z"/><path class="cls-138" d="M61.38,32.38c0,.44.47.16.6.38l.13-.2c.07-.1,0-.17-.2-.13A1,1,0,0,0,61.38,32.38Z"/><path class="cls-193" d="M67.82,30.17h0c.08.33.43,0,.61.38-.13.2-.27,0-.33.07.2.13.28.46.63.12.07-.11.41.25.5-.12.06-.1.12-.21-.08-.33s-.63-.11-.48-.58c.07-.11-.23.14-.33.07C68.32,30.05,68,30,67.82,30.17Z"/><path class="cls-4" d="M68.16,31.65c.07.33.33-.07.53.05C68.55,31.47,68.32,31.62,68.16,31.65Z"/><path class="cls-194" d="M58.71,31.71c-.41-.25-.8-.07-1.23-.06a2.75,2.75,0,0,0,.86,1.1c.13.23.46.16.67.28s.62-.32.5.32c0,.16.17,0,.37.08-.19.31-.16.48.25.73s1,.63.66,1.41c-.12.2.18.39.24.29.46-.28.47.15.61.38a1.16,1.16,0,0,1,.76-.09l.07-.11c-.47-.15-.42-.68-.66-1s-.09-.77-.16-1.1-.07-.33-.28-.45-.53-.05-.73-.18-.6.06-.28-.45c.07-.11-.34-.36-.5-.32a1.33,1.33,0,0,1-1-.2c-.27,0-.2.31-.46.28A.78.78,0,0,1,58.71,31.71Z"/><path class="cls-22" d="M62.36,36c-.3-.19-.53,0-.76.09a1.4,1.4,0,0,0,.55.48c.1.07.14.23.36.09A2.08,2.08,0,0,1,62.36,36Z"/><path class="cls-195" d="M53.54,30.75c.14.23.34.36.57.22-.2-.13-.7,0-.18-.4A10.52,10.52,0,0,0,56.33,27,2.38,2.38,0,0,0,57,25.51c-.08-.33.11-.64.1-1.07a.64.64,0,0,1,0-.43,10.86,10.86,0,0,1-.82,1.76c-.12.2-.09.37-.39.18-.1-.07-.16,0-.23.14a15.55,15.55,0,0,1-2.71,3c-.19.3.38.52,0,1,.39-.18.39-.18.38-.61a.23.23,0,0,1,.19-.3c.17,0,0,.16.14.22.27,0,.26-.4.52-.38.1.06.37.09.41.25s-.26.41-.38.62C53.8,30.35,53.47,30.42,53.54,30.75Z"/><path class="cls-196" d="M57.06,25.57c-.16.47-.58.92-.63,1.46.1.06.24.29.37.08s.16,0,.26,0a1,1,0,0,0,1.4,0c.06-.11.63.11.67.27,0,.44.54.48.62.82s.35-.35.53,0c.16,0,.29-.24.42-.44s.68-.43.67-.86c-.14-.23-.11-.49-.47-.15s-.29.24-.3-.19c0-.16-.07-.33-.11-.49-.39.18-.75.52-1.19.1,0-.16-.29.25-.4.18s.13-.2.09-.37l-.1-.06c-.15.47-.66.16-.82.19-.33.08-.43,0-.32.52C57.24,26.4,57.3,25.86,57.06,25.57Z"/><path class="cls-197" d="M61.44,26.89c-.09.37-.69.42-.68.85.6,0,.81-.62,1.17-1l.26-.41c0-.26.19-.3.21-.57,0,0,0-.16-.07-.33C62,26,61.75,26.38,61.44,26.89Z"/><path class="cls-145" d="M62.3,25.73c-.13.2-.35.34-.22.57.2-.31.69-.42.58-.92C62.53,25.59,62.71,26,62.3,25.73Z"/><path class="cls-154" d="M59.91,42.39c-.07.1-.23.14-.13.2s.14.23.37.09l.12-.2A.43.43,0,0,1,59.91,42.39Z"/><path class="cls-10" d="M62.39,48.76c0-.16,0-.43-.21-.55l-.1-.07c-.17,0-.24-.29-.37-.09s.11.5.21.56S62.23,48.8,62.39,48.76Z"/><path class="cls-29" d="M59.54,43.43c.1.07.13.23.3.19a1.05,1.05,0,0,0-.31-.62C59.4,43.21,59.6,43.33,59.54,43.43Z"/><path class="cls-198" d="M52.77,29.28a8.18,8.18,0,0,0,1.82-1.56c.42-.45.8-1.06,1.22-1.5a11.23,11.23,0,0,0,.72-1.83c0-.16-.07-.33-.3-.19s-.5.12-.52.39c0,.43-.39.61-.78.79-.16,0-.29.24-.36.34,0,.54-.38.62-.71.69-.1-.06-.16,0-.23.15s.14.22.18.39c-.27,0-1,.77-1,.93.32.62-.34.78-.6,1.19-.06.1-.22.14-.12.2s.16,0,.26,0A1.49,1.49,0,0,0,52.77,29.28Z"/><path class="cls-162" d="M51.08,31.77c.07.33.47.15.71.44C51.68,31.72,51.54,31.49,51.08,31.77Z"/><path class="cls-14" d="M51.1,23.41c.1.07.1.07.14.23.2.13.24.29.5.32,0-.17-.14-.23-.27-.46C51.36,23.44,51.23,23.21,51.1,23.41Z"/><path class="cls-167" d="M52.49,27.26c-.1-.06-.16,0-.2-.13-.29.25-.09.37,0,.54.06-.1.22-.14.35-.35C52.59,27.32,52.66,27.22,52.49,27.26Z"/><path class="cls-178" d="M60.89,37.89a.11.11,0,0,0,.16,0c.17,0,.08.33.27,0,.06-.1,0-.17-.14-.23C61.12,37.75,60.81,37.56,60.89,37.89Z"/><path class="cls-199" d="M51.6,28.69l-.17,0c-.12.2-.15.47,0,.53s.27,0,.29-.24a.37.37,0,0,1-.14-.23C51.64,28.85,51.7,28.75,51.6,28.69Z"/><path class="cls-133" d="M67.82,30.17l.17,0c.46.15.43,0,.35-.35C68.21,30,68,30,67.82,30.17Z"/></g></svg>