<svg id="Layer_1" data-name="Layer 1" xmlns="http://www.w3.org/2000/svg" xmlns:xlink="http://www.w3.org/1999/xlink" viewBox="0 0 83.08 109.13"><defs><style>.cls-1{fill:none;}.cls-2{clip-path:url(#clip-path);}.cls-3{fill:#dee0e1;}.cls-4{fill:#81a1d1;}.cls-5{fill:#96afd5;}.cls-6{fill:#3c6551;}.cls-7{fill:#85a4c9;}.cls-8{fill:#9bb2d1;}.cls-9{fill:#648cb0;}.cls-10{fill:#7298be;}.cls-11{fill:#cbd2d2;}.cls-12{fill:#6187b6;}.cls-13{fill:#8ca8c8;}.cls-14{fill:#254851;}.cls-15{fill:#92adc5;}.cls-16{fill:#9bb3ce;}.cls-17{fill:#d5d7cd;}.cls-18{fill:#a9b5a1;}.cls-19{fill:#708e96;}.cls-20{fill:#49733f;}.cls-21{fill:#a7bdcd;}.cls-22{fill:#919f8c;}.cls-23{fill:#2f4e6e;}.cls-24{fill:#e7e5d7;}.cls-25{fill:#b7c2be;}.cls-26{fill:#c5cee1;}.cls-27{fill:#8ea9b6;}.cls-28{fill:#87a6cb;}.cls-29{fill:#2b4930;}.cls-30{fill:#658ac3;}.cls-31{fill:#bfc6b6;}.cls-32{fill:#7194c3;}.cls-33{fill:#a1b3da;}.cls-34{fill:#97b1ca;}.cls-35{fill:#5d787c;}.cls-36{fill:#a6bace;}.cls-37{fill:#3c643a;}.cls-38{fill:#aabec3;}.cls-39{fill:#365474;}.cls-40{fill:#b0baa6;}.cls-41{fill:#bdcad4;}.cls-42{fill:#1e3c4b;}.cls-43{fill:#617561;}.cls-44{fill:#3253a4;}.cls-45{fill:#365e35;}.cls-46{fill:#92a38c;}.cls-47{fill:#80a0c5;}.cls-48{fill:#48574a;}.cls-49{fill:#bec4b3;}.cls-50{fill:#173241;}.cls-51{fill:#b6c0ae;}.cls-52{fill:#8fa089;}.cls-53{fill:#5f745d;}.cls-54{fill:#60856f;}.cls-55{fill:#446ab5;}.cls-56{fill:#bac8cf;}.cls-57{fill:#536554;}.cls-58{fill:#537c47;}.cls-59{fill:#305333;}.cls-60{fill:#274038;}.cls-61{fill:#7fa1be;}.cls-62{fill:#577994;}.cls-63{fill:#85957f;}.cls-64{fill:#83a1cf;}.cls-65{fill:#75866f;}.cls-66{fill:#4e6751;}.cls-67{fill:#c5cbbc;}.cls-68{fill:#798871;}.cls-69{fill:#b8c4b3;}.cls-70{fill:#515f4f;}.cls-71{fill:#9fb09a;}.cls-72{fill:#a5b9d0;}.cls-73{fill:#8e9e86;}.cls-74{fill:#b5beae;}.cls-75{fill:#547fbd;}.cls-76{fill:#9ba691;}.cls-77{fill:#8a9c83;}.cls-78{fill:#7c9dbb;}.cls-79{fill:#96a08f;}.cls-80{fill:#3e635b;}.cls-81{fill:#6e91be;}.cls-82{fill:#72896e;}.cls-83{fill:#496c85;}.cls-84{fill:#5c7259;}.cls-85{fill:#65917a;}.cls-86{fill:#909f88;}.cls-87{fill:#717f6f;}.cls-88{fill:#a5b19e;}.cls-89{fill:#c1cece;}.cls-90{fill:#558646;}.cls-91{fill:#7194bd;}.cls-92{fill:#81a170;}.cls-93{fill:#afb9a8;}.cls-94{fill:#588156;}.cls-95{fill:#92a88b;}.cls-96{fill:#687a62;}.cls-97{fill:#456daf;}.cls-98{fill:#bac4b6;}.cls-99{fill:#4d7345;}.cls-100{fill:#8da28a;}.cls-101{fill:#8dae86;}.cls-102{fill:#abb5a3;}.cls-103{fill:#bac0af;}.cls-104{fill:#97a490;}.cls-105{fill:#7a8d76;}.cls-106{fill:#778771;}.cls-107{fill:#4169b8;}.cls-108{fill:#618354;}.cls-109{fill:#78996c;}.cls-110{fill:#71806e;}.cls-111{fill:#bdc5b4;}.cls-112{fill:#84a592;}.cls-113{fill:#4166a8;}.cls-114{fill:#b3bba6;}.cls-115{fill:#657960;}.cls-116{fill:#abb9b1;}.cls-117{fill:#abb7a5;}.cls-118{fill:#92a08a;}.cls-119{fill:#bac8d8;}.cls-120{fill:#b7c0ad;}.cls-121{fill:#647a64;}.cls-122{fill:#476156;}.cls-123{fill:#9ea794;}.cls-124{fill:#7e8879;}.cls-125{fill:#5e675b;}.cls-126{fill:#475949;}.cls-127{fill:#8cb39f;}.cls-128{fill:#bbcec0;}.cls-129{fill:#769a68;}.cls-130{fill:#a9baad;}.cls-131{fill:#99aca3;}.cls-132{fill:#bbc5b5;}.cls-133{fill:#68899d;}.cls-134{fill:#536151;}.cls-135{fill:#8ead7f;}.cls-136{fill:#7193a8;}.cls-137{fill:#778373;}.cls-138{fill:#738071;}.cls-139{fill:#aab59e;}.cls-140{fill:#96aa8d;}.cls-141{fill:#ced1c4;}.cls-142{fill:#acc2a2;}.cls-143{fill:#4d684b;}.cls-144{fill:#3c4d3c;}.cls-145{fill:#122e4a;}.cls-146{fill:#9cac96;}.cls-147{fill:#cfd4c6;}.cls-148{fill:#557250;}.cls-149{fill:#7f9479;}.cls-150{fill:#5c8a4f;}.cls-151{fill:#7898b7;}.cls-152{fill:#56718c;}.cls-153{fill:#4d77c0;}.cls-154{fill:#d0d6cb;}.cls-155{fill:#becace;}.cls-156{fill:#cbd1c1;}.cls-157{fill:#929f8a;}.cls-158{fill:#61725a;}.cls-159{fill:#afc9b9;}.cls-160{fill:#5b80b5;}.cls-161{fill:#748072;}.cls-162{fill:#688165;}.cls-163{fill:#6b9d80;}.cls-164{fill:#aebca5;}.cls-165{fill:#699279;}.cls-166{fill:#778572;}.cls-167{fill:#627d60;}.cls-168{fill:#a1c098;}.cls-169{fill:#86937f;}.cls-170{fill:#93a68e;}.cls-171{fill:#456884;}.cls-172{fill:#b5bda9;}.cls-173{fill:#88a185;}.cls-174{fill:#bbc9d3;}.cls-175{fill:#396a61;}.cls-176{fill:#b6c5d0;}.cls-177{fill:#72a795;}.cls-178{fill:#53897a;}.cls-179{fill:#b3c2db;}.cls-180{fill:#658cc4;}.cls-181{fill:#4770b3;}.cls-182{fill:#5a83be;}.cls-183{fill:#4a6ec1;}.cls-184{fill:#3b56a8;}.cls-185{fill:#d1d8e1;}.cls-186{fill:#7f9f88;}.cls-187{fill:#96afcf;}.cls-188{fill:#9eb4c9;}.cls-189{fill:#6489c4;}.cls-190{fill:#4877aa;}.cls-191{fill:#d9dce4;}.cls-192{fill:#bfcbdc;}.cls-193{fill:#476a83;}.cls-194{fill:#60859b;}.cls-195{fill:#84a5c5;}.cls-196{fill:#a0b7c9;}.cls-197{fill:#87a6c7;}.cls-198{fill:#4671a5;}.cls-199{fill:#3f6697;}.cls-200{fill:#638bb3;}.cls-201{fill:#5a83ae;}.cls-202{fill:#3e6698;}.cls-203{fill:#5883a3;}.cls-204{fill:#adbfc6;}.cls-205{fill:#5d914d;}.cls-206{fill:#b1c0bf;}.cls-207{fill:#87a39c;}.cls-208{fill:#abbebd;}.cls-209{fill:#8ca8ab;}.cls-210{fill:#84a4a9;}.cls-211{fill:#acbfcd;}.cls-212{fill:#6a90b7;}.cls-213{fill:#7295ba;}.cls-214{fill:#577fbe;}.cls-215{fill:#4f8789;}.cls-216{fill:#34605f;}.cls-217{fill:#467e70;}.cls-218{fill:#4a6c88;}.cls-219{fill:#75a1a5;}.cls-220{fill:#5880b0;}.cls-221{fill:#7398b8;}.cls-222{fill:#375c8d;}.cls-223{fill:#5780ab;}.cls-224{fill:#6b92b0;}.cls-225{fill:#779ab8;}.cls-226{fill:#608558;}.cls-227{fill:#eeebdf;}.cls-228{fill:#3d6143;}.cls-229{fill:#688573;}.cls-230{fill:#fcfaf1;}.cls-231{fill:#dbdedb;}.cls-232{fill:#5785a2;}.cls-233{fill:#486d8e;}.cls-234{fill:#698bad;}.cls-235{fill:#5e82a1;}.cls-236{fill:#46688d;}.cls-237{fill:#7a9cc4;}.cls-238{fill:#f5f2ec;}.cls-239{fill:#e6e6e2;}.cls-240{fill:#8ca5c8;}.cls-241{fill:#bac7cc;}.cls-242{fill:#6489c3;}.cls-243{fill:#9db4d1;}.cls-244{fill:#abbaa5;}.cls-245{fill:#8ca9c9;}.cls-246{fill:#c0cae0;}.cls-247{fill:#41657a;}.cls-248{fill:#426bad;}.cls-249{fill:#789bab;}.cls-250{fill:#8daacd;}.cls-251{fill:#a9ba9d;}.cls-252{fill:#3a5e32;}.cls-253{fill:#789ab2;}.cls-254{fill:#2e3f34;}.cls-255{fill:#fcf9f0;}.cls-256{fill:#214042;}.cls-257{fill:#1d3841;}.cls-258{fill:#3758a8;}.cls-259{fill:#e1e2e9;}.cls-260{fill:#23454a;}.cls-261{fill:#ebe9e8;}.cls-262{fill:#619d8e;}.cls-263{fill:#e7e7eb;}.cls-264{fill:#4d7e9c;}</style><clipPath id="clip-path"><rect class="cls-1" x="-7.73" y="5.6" width="94" height="107" transform="translate(-16.23 14.89) rotate(-17.86)"/></clipPath></defs><g class="cls-2"><path class="cls-3" d="M52.85,28.38c0-.47.24-.23.43-.13a11.34,11.34,0,0,0,5,.43l.43-.14c.14-.05.14-.05.24-.23-.05-.15-.09-.29-.14-.43-.38-.19-.32-1-1-.77s-.76.09-.61-.43l-.05-.14c-.33-.05-.33.42-.62.51-.18-.57-.37-.67-1-.63-.15,0-.33-.05-.43-.33s-.75-.39-1-.15a.15.15,0,0,1-.09.19c.1-.67.1-.67-.52-.63.48-.94-.37-1.13-.93-1.42-.38-.2-.33-.53-.27-.86.23-.23.05-.33,0-.62-.28-.38-.13-.9-.36-1.13a.48.48,0,0,0-.33-.06,3.08,3.08,0,0,1-1.61.37,4.33,4.33,0,0,0-1.62,1.3c-.72.71-1.53,1.12-2.24,1.83-.62.51-.48.94.27,1.32a.66.66,0,0,0,.29-.56,5.69,5.69,0,0,1,2.54.59A10.19,10.19,0,0,1,52,27.57a.93.93,0,0,1,.33.52A.39.39,0,0,0,52.85,28.38Z"/><path class="cls-4" d="M56.51,6.61a7.21,7.21,0,0,0-1.06-2.33c-.33,0-.43.14-.34.42.33.52.13.9-.15,1.47a.76.76,0,0,1,.1-.67C55.2,5,55.2,5,54.59,5c-.24.23-.15.52-.24.7-.29.57-.25,1.18-.59,1.61-.09.18,0,.33-.14.52a.31.31,0,0,1-.2.37c-.52.33-.52.8-.29,1.51a.73.73,0,0,0-1,.47,5.44,5.44,0,0,1-1.11,1.45c-.18-.57.25-.71.44-1.08s-.33-.53-.28-.86c0,0-.23-.24-.37-.19a1.49,1.49,0,0,0-.39,1.23c-.38-.2-.28-.39-.28-.86s.24-.23.38-.28.33.05.43-.14l0-.14c0-.14-.23-.24-.42-.33a2.53,2.53,0,0,0-1.37.6c-.15,0-.24.23,0,.47a1.86,1.86,0,0,0-.61-.43c-.33-.05-.38.28-.48.47s-.28.09-.57.18-.23.23-.33.42a.55.55,0,0,1,0,.47c0,.15.09.29.09.29.33,0,.57-.18.9-.13a.33.33,0,0,0,.19-.38,1.56,1.56,0,0,1,1.12,1,.6.6,0,0,0-.47.47c-.1.19.23.24.28.38.23.24.46.48.27.86-.1.19-.33.42-.24.7s.47.48.61,0a.28.28,0,0,1,.43-.13c.14,0,.33.05.43-.14s-.24-.24-.28-.38c.18.09.33,0,.52.15s.28-.1.37.19.57.29.85.2a2.6,2.6,0,0,1,1.61.11l.18.09c.44-.61,1.09,0,1.52-.64h0l.05.14a.32.32,0,0,0,.38.19,1.59,1.59,0,0,1,1.09-.51c.28-.09.24-.23.19-.37s.1-.66-.23-.71-.38.28-.43.61c-.33-.53-.37-.67.2-.85.14-.05.61,0,.52-.33a.83.83,0,0,0-.66-.57c-.33,0-.47,0-.8-.06s-.61,0-.66.37-.77.56-.44,1.09l-.14,0c-.38-.19-.48,0-.53.33.1-.66.11-1.14.82-1.37.29-.09.52-.32.15-.51s-.09-.76-.47-1c.53-.32.11-.66.3-1a.48.48,0,0,1,0-.33c.14,0,.43-.14.33-.43s-.13-.42-.56-.29c.1-.19.43-.13.33-.42s.1-.19.24-.23.57-.19.43-.61C56,6.46,56.13,6.89,56.51,6.61Z"/><path class="cls-5" d="M55.78,13.6c.1-.18.24-.23,0-.33s-.14.05-.24.24a.68.68,0,0,1-.71.23c-.19-.1-.37-.2-.47,0-.19.38-.38.28-.57.18-.61-.43-1.37.13-2.08-.11,0-.14.29-.09.19-.38,0-.14-.18-.09-.33-.05s-.61,0-.7-.24-.33-.05-.29.09c-.24.23-.09.19,0,.14s.33.05.23.24-.14.05-.28.09c-.47,0-.76.09-.62.52-.19-.1-.33-.05-.52-.15-.61,0-.86.75-1.19,1.17-.14,0,0,.14.09.28s.19.1.28-.09c.15,0,.24-.23.34-.42a.51.51,0,0,1,.85.2c.18.57.32.52.85.2.14-.05.24-.24.33-.43a1.15,1.15,0,0,0,0,.81c.09.28.13.42-.1.66a.53.53,0,0,0-.39.28c-.09.19-.19.38.28.38.81-.42,1.53-1.12,2.34-1.54,0,.33.18.57.61.44l1-.32c.29-.1.48-.47.8.05.1.29.67.1,1.09,0s.2-.37.25-.7,0-.48.19-.85c.19.09.14.43.38.19A7.86,7.86,0,0,0,58,10.22c-.57-.29-.28-.85-.46-1.42-.05-.15,0-.33-.18-.57l-.71.23a.31.31,0,0,0-.2.37,7.44,7.44,0,0,0-.11,2.08.31.31,0,0,0,.37.2c.57-.19.81.05,1.09.43-.24.24-.76.09-.91.61s.47.48.47.95c.24-.23.19-.38.1-.66s.09-.19.24-.24.18.1.09.29-.1.19-.05.33.28.38,0,.33c-.15,0-.48.47-.57-.29-.19.38.09.76-.34.9-.09.18-.38.28-.47.46C55.78,14.08,55.87,13.89,55.78,13.6Z"/><path class="cls-6" d="M13.14,23.57a42,42,0,0,1,2.67,8.26.55.55,0,0,1,0,.47c0-.14-.43.14-.42-.34-.09-.28-.33-.52-.42-.8s-.09-.29-.23-.24-.1.19-.05.33l.09.28c.74,1.81,1.19,3.71,2.45,5.19.24.24.52.62.85.67s.28-.09.43-.14A28.43,28.43,0,0,0,18.84,31a34,34,0,0,1,0-4.4c-.42.13-.33.42-.24.7-.59,2.08,0,4.26-.25,6.53-.42-.33-.28-.85-.51-1.09-.33,0-.34.42-.62.51-.05.33,0,.62,0,1A4.51,4.51,0,0,1,17.12,33a3.36,3.36,0,0,0-.23-1.19c-.42-.33-.27-.85-.55-1.23-.51-1.57-1-3.14-1.61-4.52a15.62,15.62,0,0,0-1.21-2.28C13.24,23.38,13.1,23.42,13.14,23.57Z"/><path class="cls-7" d="M66.9,22.29a6.58,6.58,0,0,0-1.44-2.53c-.23-.24-.33-.05-.29.09s.14.43-.14.52-.38-.19-.42-.33-.24-.24-.28-.38c-.19-.57-.85-.68-1.32-1.15l-.14,0,.14,0c.43-.14.34-.43.1-.66-.14,0-.42-.34-.75-.39s-.28.09-.34.89c0-.14-.18-.57-.28-.38-.57.19-.52-.14-.61-.43-.52-.15-.52.33-.62.51s0,.48-.47.47c-.19-.09-.34.43-.77.56-.14.05-.09.19-.28.09-.57-.29-.66-.1-.52.33,0,.14.09.28.13.43s.1.28.24.24l.19.09c.56.29,1.13-.36,1.23-.08a1.45,1.45,0,0,0,1.08.44c.37.19,1-.32,1.08.44.76-.09.75.38.46,1-.09.19,0,.14.24.24s.38.19.52.14a1.77,1.77,0,0,1,2,.78,2.53,2.53,0,0,0,.79.53c.19.1,0,.14.1.29-.06.33.28.38.46.47.38.2.28.38,0,.62.57.29.85.2.81-.42a4,4,0,0,0-.27-1.33c-.37-.19-.37-.66-.84-.67l-.57.19a4.38,4.38,0,0,0-.7-1.19c-.56-.29-.89-.35-1.13-.11s-.33-.05-.52-.15.1-.19.1-.19-.1-.28-.19-.57c.1-.18.1-.18.29-.09A.55.55,0,0,1,64,21c-.09.19-.33.43,0,.48l.28-.09c1-.32,1.47.15,1.88,1,0,.15,0,.15.24.24S66.9,22.76,66.9,22.29Z"/><path class="cls-8" d="M34.28,13.61c-.11.67.08,1.24,0,1.9.42.33,1,.15,1.51.3a1.14,1.14,0,0,0,.53-1.28c0-.14-.09-.28-.38-.19.1-.19.9-.13.25-.71-.19-.09.09-.18.09-.18s0-.15.14,0c.38.19.48,0,.39-.28A1.14,1.14,0,0,1,37.22,12a.82.82,0,0,0,.15-.52c0,.14.09.28.18.57.28.38.33.52-.15.52-.14,0-.28.09-.23.23s0,.14.23.24a1.13,1.13,0,0,0,.8.06c.53-.33.62-.05.61.43a.68.68,0,0,0,.23.71c.05.14.14,0,.14,0a.13.13,0,0,0,.1-.18,5.3,5.3,0,0,0,.11-1.14c0-.14,0-.14-.09-.28-.14-.43-.09-.76-.37-1.14,0-.15-.24-.24-.28-.38.14,0,.19.09.28-.1s.57-.18.29-.56c0-.14,0,0,.14,0,.43-.13.62-.51,1-.93-.14-.43-.52-.62-.89-.82l-.38-.19a.81.81,0,0,0-.52-.15A.83.83,0,0,0,38,9c.14.43.28.85.41,1.28h0c0-.14-.37-.19-.33-.05-.24.23-.47,0-.66-.1s-.33,0-.47,0-.28-.38-.38-.19a.81.81,0,0,0-.1.66.33.33,0,0,0,.38.19c.14,0,.14,0,.19.1.09.29-.24.24-.24.24-.52-.63-.62,0-.86.27l-.14.05c-.09-.29-.23-.24-.52-.15a2.62,2.62,0,0,0-1,.46,2.53,2.53,0,0,0,0,1.56c.14,0,.28-.09.18.1s.14.43.14.43C34.56,13.52,34.56,13.52,34.28,13.61Z"/><path class="cls-9" d="M52.85,28.38c-.33-.05-.52-.14-.51-.62a1.12,1.12,0,0,0-.47-.47c-.61-.44-1.46-.64-2.07-1.07A4.11,4.11,0,0,0,49,26c-.14.05-.38-.19-.43.14s.14.43.28.38c.19.1.33.05.38.2.23.24.71.24.51.62a.15.15,0,0,0,.19.09c.19.1.18.57.52.15l.05.14a2.83,2.83,0,0,1,0,1.09c-.09.19,0,.48.14.43.52.15.66.57,1.08.91.19.1.19.1.33,0l.14,0c0,.14-.14,0-.1.18a1.91,1.91,0,0,1,0,.95c.34.05.66.57,1.18.25a1.38,1.38,0,0,0,.18,1.51c.32.53,0,1.09.36,1.62,0,.14-.28.09-.43.13a.31.31,0,0,0-.14.52c.23.24.52.15.8.06.05.14.15-.52.33.05,0,.14.33,0,.57-.18s0-.48.29-.57a8,8,0,0,0-.72-3.7c-.18-.57-.7-1.19-.88-1.76-.48,0-.42-.33-.47-.47C53.18,28.43,53,28.48,52.85,28.38Z"/><path class="cls-10" d="M62.17,27.11l3.14-1.48c.14-.05.28-.09.24-.23.52-.33.19-.85.2-1.33-.19-.09-.29.09-.57.19,0,.14-.1.18-.24.23-.43.14-.66.37-.48.94-.24-.24-.09-.76-.37-.67-.48,0-.62.52-.82.9a.31.31,0,0,0-.37-.2c-.57.19-.42-.33-.61-.43s.14-.05.14-.05c.24-.23.38-.28,0-.47s-.71-.24-1-.15c.15-.05.33.05.48,0,.24-.23-.24-.24,0-.47s-.32-.52-.37-.67L61,22.93a2.25,2.25,0,0,1-1.47-.15c-.19-.1-.56-.29-.57.18a.57.57,0,0,0-.61,0c-.1.19-.1.19-.05.33a1.05,1.05,0,0,0,.7.72c.19.09.57-.18.56.29a.15.15,0,0,1-.09.19,1,1,0,0,1-.9.13c-.14,0-.33-.05-.47,0s-.62,0-.53.33.28.38.61.43a1,1,0,0,1,.9-.13,1,1,0,0,0-.9.13,1.07,1.07,0,0,0,1.7.87h0c-.29.09-.1.19,0,.33s.23.24.51.15.38-.28.9-.13c-.33-.05-.61,0-.52.32s.23.24.52.15l.14-.05c.29-.09.47,0,.71-.22C61.84,27.06,62,27.16,62.17,27.11Z"/><path class="cls-11" d="M10.42,90.16c.05.15-.1.19-.05.33,0,.48-.2.85-.2,1.33.09.28-.34.42-.58.65a12.13,12.13,0,0,1-.82,1.84c-.24.23-.29.56.19.57l.18.1c.19.09.24-.24.38-.28-.09.18-.19.37-.14.52.23.23.66.1.65.57a.15.15,0,0,0,.19.1c.14,0,.38-.28.38.19-.1.19.37.19.52.15A2.67,2.67,0,0,0,12,94.68c0-.15.24-.24.33-.43a.77.77,0,0,0,.11-.66c-.19-.1-.38-.19-.14-.43s.24-.7.34-.89c.14-.52.34-.9.95-.94.24-.23.53-.32.39-.75-.24-.24-.33-.52-.66-.58s-.57.19-.9.14l-.85.27c-.33,0-.43.14-.52.33s-.06.33-.2.37-.23-.23-.28-.38l-.09-.28C10.52,90,10.37,90,10.42,90.16Z"/><path class="cls-12" d="M37.34,10c.18.09.37.66.66.1a.13.13,0,0,1,.18.09c.15,0-.19.38.1.29a.33.33,0,0,0,.19-.38A3.38,3.38,0,0,0,38,9a6,6,0,0,0-1.12-2,1.84,1.84,0,0,0-1.55-.92L35.11,6c-.14-.9-.85-.67-1.41-1-.29.09-.57-.29-.66-.11s-.1.67.13.91a5.39,5.39,0,0,1,1,3.6c-.05.33,0,.62,0,.95s.22.71.7.72c.28-.1.57-.19.33-.43s0-.61,0-.94c.33.05.42.33.61.43s.24.24.19.1c.14-.05.1-.19.05-.33-.23-.72.29-.57.57-.66s.52.15.71-.23h0l0,.14C37.2,9.53,37.2,9.53,37.34,10Z"/><path class="cls-13" d="M42.68,29.46a1,1,0,0,1,.13.9,10.38,10.38,0,0,0,.36,2.09c.19.09.28-.09.33,0,.28-.09.66.1.66-.37,0-.15.15-.05.29-.1s.14,0,.19.1c-.25.71.51,1.09.69,1.66a.32.32,0,0,0,.38.2.81.81,0,0,1,.65.57c.24.24.42.34.71.25.24-.24.33-.43,0-.62a.15.15,0,0,1,.09-.19,1.11,1.11,0,0,0-.08-.76c-.33-.52-.23-.71.24-1.18.1-.18.2-.37.15-.51l0-.15A1.63,1.63,0,0,1,47,30.26a2,2,0,0,0-.42-.81c-.19-.09-.23-.23-.38-.19s-.19.38-.14.52a1.31,1.31,0,0,0-1-.15c-.24.23.09.28.18.57a.48.48,0,0,0,.56.29c.48,0,.52.14.33.52.05.14.05.14.19.1-.14,0-.05-.14-.09-.29s-.24-.24-.52-.14-.09-.29-.42-.34c-.15.05-.34.42-.48,0,.14-.05.57.28.57-.19-.18-.57-.7-.72-1-1.1-.09-.28.24-.23.19-.37a.45.45,0,0,0-.18-.57c-.19-.1-.29.09-.38.28-.09-.29.14-.52,0-.62s-.29.09-.38.28-.34.42-.44.61c0,0-.09.19,0,.14.38.2.33.53.56.77.42.33.37.66,0,.94-.09-.28,0-.47,0-.61C43.29,29.89,43.29,29.42,42.68,29.46Z"/><path class="cls-14" d="M46.46,29.5c.09.29.32.52.42.81a4.45,4.45,0,0,1,.41,1.28c0,.14,0,.14.19.1.24-.24.23.24.33,0,.28-.09.24-.24.33-.42a6.59,6.59,0,0,0-1.34-3.19L46,27l0-.15c-.19-.09-.24-.23-.52-.14a.15.15,0,0,0-.1.19c-.42-.34-1-.3-1.08-.91.05-.34-.13-.43-.52-.15s-.48.94-1,1.26a.28.28,0,0,1-.43.14c-.19-.09-.37-.19-.42.14,0,.14-.1.19-.15.05a1.82,1.82,0,0,0-.9.13.55.55,0,0,1-.47,0,.28.28,0,0,0-.42.14c-.06.33-.58.66-.58,1.13-.29.56-.44,1.08-.73,1.65s-.53,1.27-.82,1.84a.27.27,0,0,0,.14.42c.19.1.28-.09.24-.23.05-.33.43-.61.34-.9a6.59,6.59,0,0,0,1-1.74,1.3,1.3,0,0,1,.71-.7,1.27,1.27,0,0,1,1-.32c.33.05.61,0,.94,0l.71-.23c.24-.23.67-.37,1.05-.65.1-.19.29-.57.57-.18C45.48,27.93,45.9,28.74,46.46,29.5Z"/><path class="cls-15" d="M33.38,18.62a4.33,4.33,0,0,0-1.29.89,6.85,6.85,0,0,1-1,1.26c-.24.24,0,.48-.1.66a17.5,17.5,0,0,0-1.4,2,4.16,4.16,0,0,0,2.16,1.83.16.16,0,0,0,.1-.19c-.33-.53-.09-.76.34-.9.09-.19,0-.47.29-.56s.19-.38,0-.48c0-.14-.23-.24-.14-.42s.29-.09.43-.14l.14-.05a.52.52,0,0,0,.38-.28l.1-.18c.33.05-.38-.2,0-.15l.15,0c0-.33-.52-.62,0-.81-.32-.52.25-1.18-.17-1.51.28.38.61,0,1.08,0,.1-.19.24-.23.29-.09.28-.09.19-.38,0-.47-.37-.2-.46-.48-.74-.86C33.8,18.48,33.56,18.72,33.38,18.62Z"/><path class="cls-16" d="M52,40.3a.15.15,0,0,0,.19.1c.67-.85,1.34-1.69,1.86-2.49,0-.47.11-1.14-.46-1.43-.18-.09,0-.14,0-.14a.28.28,0,0,0-.14-.43c-.19-.09-.28.1-.38.28,0-.47.34-.89.34-1.36,0-.15-.23-.24,0-.48.14,0,.1-.19-.09-.28a2.08,2.08,0,0,1-.61-.44c-.19-.09-.48,0-.47-.47,0-.15-.19-.1-.33,0-.24.23-.19-.1-.24-.24s-.42-.34-.66-.1-.14.51.09.75a.93.93,0,0,1,.18,1A1.32,1.32,0,0,0,51.55,36c.37.19,0,.33,0,.47-.14.52.14.9.27,1.33l.28.85c0,.14,0,.48,0,.62s.09.28,0,.61C51.89,40,52.07,40.11,52,40.3Z"/><path class="cls-17" d="M71.09,43.1c-.23-.24-.09-.28,0-.47a28,28,0,0,0,2.57-2.24c-.52-.15-.52-.15-.42-.81,0-.15.15,0,0,0,0,.14.1.28.24.24s.1-.19.05-.33a.4.4,0,0,1,.29-.57l.09-.19c-.13-.9-.32-1-1.45-.63-.15,0-.24.24-.39.28-.52.8-1.19,1.65-1.72,2.44a22.64,22.64,0,0,0-1.63,2.26c-.1.19-.1.19-.19.38.09.28,0,.61.13.9.52.14.81-.42,1.24-.56a2,2,0,0,1,.8-.42C70.86,43.34,71.14,43.25,71.09,43.1Z"/><path class="cls-18" d="M23.6,80.88c.9-.13,1.75-.4,2.65-.53a14.81,14.81,0,0,1,5.82,0,38.73,38.73,0,0,0,3.92.47A.87.87,0,0,1,37,81c.23.24.52.15.66-.37-1-.3-2.17-.4-3.2-.7a28.18,28.18,0,0,0-4.07-.42c-1.7.08-3.54.2-5.34.46a13.47,13.47,0,0,0-5.51,2.41c.14.42.48,0,.71.24a7.72,7.72,0,0,1,2.28-1.21l.43-.13c.33,0,.38-.28.66-.38C23.7,80.7,23.46,80.93,23.6,80.88Z"/><path class="cls-19" d="M76.49,33a4.13,4.13,0,0,0-1.72,1c-.66.37-1.14.84-1.8,1.21-.24.23-.2.37,0,.61,0,.15.14,0,.28-.09s.67-.37.71.25c.14.42.28.38.61,0-.09.18-.24.23-.33.42s0,.47.28.38c.14,0,.24-.23.47,0,0,.15.43-.13.09.29a.37.37,0,0,0,.33.52c.28-.09.47,0,.71-.23a17.28,17.28,0,0,0,2.16-3.52c-.19-.1-.56-.29-.71-.25-.23.24-.62.52-.85.75s.23.24.32.53c-.23-.24-.23-.24-1.13-.11C76.85,34.17,77,33.65,76.49,33Z"/><path class="cls-20" d="M21.52,90.52a.14.14,0,0,1-.18-.1,9.43,9.43,0,0,1-3.21-1.17c-.19-.1-.52-.15-.89-.34a1.19,1.19,0,0,1-.47-.48c.05-.33-.18-.57-.09-.76l0-.14a3.69,3.69,0,0,0-1.32-.68c-.14.05-.29.57,0,1l.19.1c-.38.28-.24.71-.44,1.08-.23-.24-.32-.52-.65-.57l-.15,0c-.19.38.33.53.28.86l.09.28c0,.14.28.38.33.53a3.88,3.88,0,0,0,.27,1.32c.14.43.13.9.22,1.19s.09.76.61.9L16.52,95c.19.1.47,0,.38-.28s.05-.33.15-.52L17,94c-.19-.1-.09-.29,0-.62s-.14-.9-.13-1.37A3.71,3.71,0,0,0,16,90.41c0-.14-.23-.24-.28-.38a.33.33,0,0,1,.2-.38c.42-.13,0,.15,0,.15s.05.14.33,0a1.23,1.23,0,0,1,1.28.06,14.41,14.41,0,0,0,4.72,1C22.14,90.48,21.85,90.57,21.52,90.52Z"/><path class="cls-21" d="M48.08,37.47c.66.1,1,.62,1.41,1l.19.09.14,0c.1-.19,0-.33-.18-.57A3.87,3.87,0,0,0,51.23,39c.33.05.48,0,.53-.33s0-.61-.28-.85a5.44,5.44,0,0,0-.69-2.14c-.09-.28-.37-.19-.61,0-.34.42-.48.47-.66-.1l-.05-.14c.81-.42.1-.66,0-1.09a1.82,1.82,0,0,1-.14-.9c0-.14,0-.14-.23-.24a.15.15,0,0,1,.19.1c.47,0,.19-.38.29-.57s-.14-.43-.23-.71-.24-.24-.19-.57c0-.14.2-.38-.13-.43s-.29.09-.39.28-.23.24-.19.38c-.05.33,0,.61,0,.94a15.23,15.23,0,0,1-.32,3.88C48,36.85,47.85,37.23,48.08,37.47Z"/><path class="cls-22" d="M68.2,102.84c-.08-1.23-.36-2.56-.48-3.93A76.77,76.77,0,0,0,65,89.08a16.6,16.6,0,0,0-2.18-4.33c-.28.09-.24.24-.19.38s.23.24.14.43c.65,1.52,1.58,3,2.08,4.51.92,2.85,1.69,5.75,2.33,8.69l.09.28a4.41,4.41,0,0,1,.17,1.52c0,.33-.19.85.47,1,.14-.05,0,.14.09.29s0,.47.09.75C67.82,102.64,67.91,102.93,68.2,102.84Z"/><path class="cls-23" d="M5.78,100.62c-.15,1-.35,1.84-.5,2.83a15.84,15.84,0,0,0-.12,3c0,.47.28.38.51.15.43-.14.72-.7,1-.94a3.06,3.06,0,0,0,.67-.84,7.09,7.09,0,0,0,1.15-1.79c.1-.19.19-.38.34-.42a.15.15,0,0,0,.09-.19,6.66,6.66,0,0,1,.53-1.27.73.73,0,0,0,.16-1c-.38-.2-.9.13-1.1.5-.09.19-.09.19-.23.24s-.34-.05-.43.14c-.29.56-1.1,1-1.39,1.54-.09.19-.24.24-.33.43.09.28-.29.09-.2.37.14.43.52.62.51,1.1.19.09.24-.24.34-.43-.1.19-.19.38-.34.43a.13.13,0,0,0-.09.18l.09-.18c-.23-.72-.23-.72-.66-.11-.09.19-.19.38-.52.33-.14,0-.28.09-.24.23s.19.1.24.24l0-.14c0-.14-.19-.1-.23-.24a.15.15,0,0,1,.09-.19c.71-.23.48-.94.63-1.46a1.07,1.07,0,0,0,.1-.66c.1-.19,0-.33.15-.52,0-.14,0-.33-.14-.42s-.24.23-.38.28c.05-.34.06-.81.11-1.14C6,100.86,6.06,100.53,5.78,100.62Z"/><path class="cls-24" d="M72,36.06c-.53.33-.77,1-1.48,1.26-.09-.28,0-.47,0-.61-.33-.05-.38.28-.48.47-.34.89-.87,1.69-1.21,2.59-.05.33-.14.52-.19.85l0,.14a1.86,1.86,0,0,1-.43.61c-.14.05-.1.19-.24.23s-.33.43-.43.61a.16.16,0,0,0-.1.19c-.09.19-.19.38,0,.48a.29.29,0,0,0,.43-.14c.28-.09.47-.47.76-.56a9.29,9.29,0,0,0,1.67-1.64c.53-.8,1.14-1.31,1.81-2.16a3.06,3.06,0,0,0,.67-.84c0-.15-.09-.29-.23-.24s-.28.09-.47,0-.28-.38,0-.61C72.1,36.49,72.2,36.3,72,36.06Z"/><path class="cls-25" d="M72,36.06c-.1.19.37.67-.29.57l-.1.19c.23.23,0,.61.13.9.34-.43.53-.33.52.14.14,0,.29-.56.57-.18l.14,0a.15.15,0,0,0-.09.19c-.15,0-.43.14-.34.42.14,0,.33.06.29-.09.23-.23.56.29.8.06,0,.14.14.43.18.57.42.33.57.29.86-.28.09-.18-.48,0-.1-.28.1-.19.34-.42.44-.61a.2.2,0,0,1,.28-.09c.19.09,0,.14-.1.18,0,.48.19.57.52.63a1.71,1.71,0,0,0,.76-1c-.14.05-.37-.19-.61,0s-.14.05-.19-.09,0-.15.1-.19.05-.33,0-.62c-.15,0,0,.33-.2.38-.18-.1-.18-.57-.52-.15a.2.2,0,0,1-.28.09c0-.14-.09-.28,0-.33.43-.13.19-.37.1-.66a.79.79,0,0,1-.43.61c-.33,0-.14-.43-.09-.76-.28.1-.66-.1-.9.14-.14,0-.23.23-.42.13s-.14-.42,0-.61C72.49,35.26,72.2,35.83,72,36.06Z"/><path class="cls-26" d="M57.14,14.42c-.33-.05-.18-.57-.32-.52s-.34.42-.39.75l0,.14c.18.57.09.76-.57.66l-.43.14c0-.14.19-.38-.18-.57-.19-.1-.29.09-.43.14a1.73,1.73,0,0,1-1.42.45c-.15.05-.24-.23-.1-.28a.28.28,0,0,0-.13-.43,6.92,6.92,0,0,1-2.34,2c.61.43.8.53,1.23-.08.24-.23.57-.18.85-.27-.05.33-.52.79.18,1a1.52,1.52,0,0,1,1.61.11c.14-.05.33.05.47,0l.72-.71.14,0A8.15,8.15,0,0,0,57.14,14.42Z"/><path class="cls-27" d="M16,93.25c-.38-.19-.23-.71-.47-1-.56-.29-.56-.29-.71.23-.09.19-.09.19-.19.37l-.1.19a14.66,14.66,0,0,1-.87,2.17,10.76,10.76,0,0,1-1.3,2.31A5.37,5.37,0,0,1,11,98.78c-.24.24-.43.14-.62,0a2.68,2.68,0,0,0-.72,1.65c.42.34.8.06.95-.46.56.29.8,0,.86-.75-.06.33.18.57.65.57.29-.09.34-.42.43-.61s.1-.66.53-.8c.14,0,.14,0,.1-.18-.23-.72.39-1.23.49-1.89l.58-1.13h0c-.2.38,0,.47.23.71.38-.75.72-1.65,1.11-2.4C15.77,93.63,15.68,93.34,16,93.25Z"/><path class="cls-28" d="M33.84,5c.33,0,.52.15.85.2s.52.15.47.48.28.38.46.47.19.1.33.06c.67.1.66,1,1.36,1.29-.1.66.51,1.09.65,1.52,0-.33.15-.52.43-.61,0-.14-.23-.24-.23-.24a2.25,2.25,0,0,1,.75.39c.05.14.05.14.23.23s.19.1.29-.09-.24-.24-.14-.42-.19-.1-.33-.06a1.11,1.11,0,0,0,.76-.08c.14-.05.33-.42.47,0a.39.39,0,0,0,.56.29L41,8.29c.1-.19,0-.14-.09-.28a1.64,1.64,0,0,0-1-1.1c-.18-.1-.32-.53-.55-.77a2.6,2.6,0,0,0-1.7-.39,5.22,5.22,0,0,1-2.83-.5C34.55,5.19,34.17,5,33.84,5Z"/><path class="cls-29" d="M70.27,40.54a9.29,9.29,0,0,1-1.67,1.64c-.86.75-1.58,1.45-2.29,2.15.19-.38.9-.6.67-1.32,0-.14.34-.42.58-.65l.09-.19a1.51,1.51,0,0,0,.34-.9.31.31,0,0,0-.37-.19c-.43.14-.48.47-.72.7-.43.61-1.1,1-1.53,1.59-.1.67-.86.75-1.19,1.18s-1,.93-.73,1.64c.1.29.38.2.48,0s.19-.38.33-.42c-.09.18-.28.09-.19.37.19.1,0,.62.42.34.29-.09.62-.52.39-.75-.14-.43,0-.48.29-.57h0a.56.56,0,0,0-.39.28.33.33,0,0,0,.38.19,12.33,12.33,0,0,0,2.48-2,2.43,2.43,0,0,0,.81-.89c.43-.61,1.1-1,1.48-1.74.1-.19.2-.37.29-.56C70.46,40.64,70.41,40.49,70.27,40.54Z"/><path class="cls-30" d="M39.55,6.1c0,.33.37.67.46,1s0,0,.19.1.38.19.37.66c0,0,0,.15.09.29,0,.33.57-.19.24.24-.24.23-.33-.05-.52-.15s-.09-.29-.19-.57c-.14,0-.38.28-.52.33,0,.14.09.28.14.42a.14.14,0,0,0,.19.1c.19.1.23.24.32.52.19.57.37.67.85.2.24.24.33.53.7.72a1.85,1.85,0,0,1,.94.95c.23.24.23.72.7.72.14,0,.29-.09.24-.23-.42-.81-.41-1.76-1-2.52a3,3,0,0,0-1.16-1.67c-.43-.33-.48,0-.53.33a.74.74,0,0,0,.1-.66c0-.15-.18-.1-.23-.24-.23-.24-.66-.1-.89-.34S39.74,6.2,39.55,6.1Z"/><path class="cls-31" d="M48.19,65.1c-.47-.48-1-1.1-1.45-1.57l-2.1-2.16c-.8-1-1.59-2-2.57-3.1-.71-.72-1-1.57-1.68-2.29-.47-.48-.56-1.23-1.26-1.48a.22.22,0,0,0-.29.09,32.74,32.74,0,0,0,2.57,3.58c0,.14.42.34,0,.47.09.29.33,0,.52.15s0,.14.09.29c.8,1,1.73,2,2.67,2.91a14.43,14.43,0,0,0,2,2.2c.14,0,.19-.38.33,0a1.17,1.17,0,0,0,.52.62C47.86,65.05,48,65.34,48.19,65.1Z"/><path class="cls-32" d="M32.19,24.19l-.29.09c-.47,0-.52.33-.24.71.05.14.09.29.09.29a12.81,12.81,0,0,0,3.48,2,3.64,3.64,0,0,1,.94.48l.14,0a2.46,2.46,0,0,0-.09-.29c-.23-.24-.42-.33-.66-.57.34-.43.2-.85-.36-1.14a1.15,1.15,0,0,0-.81-.06c.1-.19,1,.15.48-.47-.19-.09-.47,0-.56-.29l-.09-.28-.1-.29c0-.14.05-.33-.13-.42s-.24.23-.24.23c-.2.38-.34.42-.62,0a.6.6,0,0,0-.47-.48c-.28.1-.19.38-.28.57s-.05-.14-.19-.1Z"/><path class="cls-33" d="M34.44,15.6c.19.57.18,1,.37,1.62.09.28.18.57-.06.8.19.1.29-.09.48,0,.09-.19,0-.48.1-.67-.1.19.18.57-.25.71a.29.29,0,0,0,.14.43c.19.09.23.24.33.52a5.62,5.62,0,0,0,.83,2.09c.47,0,.42.34.56.77s.18.57.65.57c.19.1-.09-.28.24-.23a.55.55,0,0,0,.47,0,.2.2,0,0,0-.09-.28c-.19-.1-.09-.29-.18-.57a1.62,1.62,0,0,1-.79-1.48c-.09-.28,0-.47-.37-.66a1.2,1.2,0,0,1-.18-1.52c.1-.19.29-.57,0-.62s-.28-.38-.18-.57l0-.14A2.32,2.32,0,0,0,34.44,15.6Z"/><path class="cls-34" d="M62.17,27.11c-.37-.19-.28-.38-.23-.71-.14.52-.62.51-1,.65-.14.05-.29.09-.19-.1,0,0-.09-.28.24-.23s.28-.09.57-.18a1.61,1.61,0,0,0-1.09,0c-.28.09-.28.09-.47,0-.09-.29.28-.1.33-.43-.75.09-1.75.41-2-.77a2.38,2.38,0,0,1-.61-.44c.67-.37,1.38-.12,2-.16.14-.05.14-.05.05-.34-.37-.19-.94,0-1.32-.2-.28.09-.61,0-.76.09s-.66.37-1,.18c-.19-.1-.24.23-.19.37,0,.62.65,1.05.93,1.43l0,.15c0,.14.18.09.33.05a1.9,1.9,0,0,1,1.74.53c.05.15.19.1.33.06s.1-.19.28-.1a.14.14,0,0,1-.09.19c-.14.05-.1.19,0,.14.19.1,1.18.25,1.42,0C61.41,27.67,61.75,27.25,62.17,27.11Z"/><path class="cls-35" d="M76.49,33a.28.28,0,0,0,.13.43c.33.53-.19.85-.24,1.18,0,0-.34,0-.1.19,0,.14.14.43.33.05.1-.19.38.19.57-.18a.46.46,0,0,1,.23.24c0,.14,0,.33.24.24.14,0,.18.09.28-.1-.05-.14-.09-.28-.14-.42s-.19-.1-.23-.24c-.19-.1-.24.23,0,.14,0-.14-.32-.52.2-.38a.13.13,0,0,0,.09-.18c0-.48.2-.38.29-.1.19.1.28-.09.47,0a14.33,14.33,0,0,0,1-1.88.63.63,0,0,0,.11-.67c-.19-.09-.29.1-.43.14A11.61,11.61,0,0,0,76.49,33Z"/><path class="cls-36" d="M47.43,32c-.15,0-.24.23-.39.75-.1.19-.14,0-.28.09s-.29.09-.24.24c.14.42.14-.05.28-.09.33.05.42.33.52.62s0,.33,0,.47-.33.42.09.28c.05.15.09.29,0,.33s-.42.14-.47,0-.47-.48-.66-.58-.18-.09-.28.1c-.34.42.09.75.22,1.18s.28.38.38.67a.31.31,0,0,0,.37.19c.14,0,.05-.33.05-.33.28.38-.19.38-.29.57.14.42.66.57.89.81s.24.24.43.34a3.22,3.22,0,0,0,.39-1.7,4.84,4.84,0,0,0,0-1.42c-.51-.62-.41-1.29-.64-2C47.52,32.3,47.71,31.93,47.43,32Z"/><path class="cls-37" d="M8.05,81.34a14.85,14.85,0,0,0,2.69,4.47,4.2,4.2,0,0,0,2.17,1.35,1.17,1.17,0,0,1,.75.39c.19.09-.05.33.14.42.09.29.37.2.51.15L14.6,88c-.09-.28.62-.51-.09-.76-.19-.09.24-.23.15-.52-.19-.09-.19-.09-.47,0a.73.73,0,0,1-1-.15,7.6,7.6,0,0,0-1.93-1.11.15.15,0,0,0-.19-.1c-.93-1.43-2.29-2.72-2.74-4.62a1.8,1.8,0,0,1-.14-.9c-.19-.1-.28.09-.24.24A3.58,3.58,0,0,0,8.05,81.34Z"/><path class="cls-38" d="M8.91,94.26a14.58,14.58,0,0,0,.92-2c.1-.19.47,0,.48-.47s.15-1,.11-1.61a16.14,16.14,0,0,0-1.63,2.73,16.32,16.32,0,0,1-1.45,2.82l0,.15c.13.42.37.19.7.24-.38.28-.43.61-.62,1,.09.28-.1.66.37.66a6.19,6.19,0,0,0,1-1.74c.1-.18.29-.56.39-.75s.09-.19.09-.19c.1-.19.05-.33-.18-.57l-.05-.14c-.14,0-.19.38-.42.14l-.1-.29A.5.5,0,0,0,8.91,94.26Z"/><path class="cls-39" d="M7.29,105.79A11.62,11.62,0,0,0,11.87,101c0-.14.1-.18.05-.33s-.13-.42-.42-.33-.38.28-.33.42.19.1,0,.14c-.61,0-.76.56-1.09,1l-.29.09c-.52.32-.66.37-.05.8-.43.14-.47-.48-.9-.34-.57.66-.87,1.69-1.63,2.25-.19.38-.57.66-.62,1C6.81,106.26,7,105.88,7.29,105.79Z"/><path class="cls-40" d="M38.89,54.74l.28-.1c.14,0,.19-.37,0-.47A18.63,18.63,0,0,1,36,44.34a31.84,31.84,0,0,1,.08-3.64,1,1,0,0,0-.48.94,20,20,0,0,0,.6,6.73c.13.9.74,1.8.73,2.75A19,19,0,0,0,38.89,54.74Z"/><path class="cls-41" d="M62.27,17.65a3.59,3.59,0,0,1,.94.48c0,.14.18.1.28-.09a7.48,7.48,0,0,0-3.86-1.27,8.35,8.35,0,0,0-2.65.06c.23.24.75.39.61.91a.15.15,0,0,1-.1.19c-.1.66.42.33.65.57.71.25.39-.28.48-.47.47,0,.75.86,1.18.25a1.75,1.75,0,0,1,.76-.08c.24-.24.1-.66.57-.66A1.61,1.61,0,0,1,62.27,17.65Z"/><path class="cls-42" d="M36.17,27.31a.57.57,0,0,0-.05.33c.24.24.24.24.67.1-.06.33-.62,0-.48.47s.14.43.42.34c.43-.14.76-.56,1.23-.56a3.34,3.34,0,0,0,1.1-.51c.24-.23.43-.61.8-.42L40,27c.09-.19.23-.24.14-.52s.05-.33-.13-.43-.33-.05-.53.33c0-.47.43-.61.67-.85s.34-.42.06-.8c-.76.56-1.66.69-2.24,1.35A5.06,5.06,0,0,0,36.17,27.31Z"/><path class="cls-43" d="M38.69,31.22a4,4,0,0,0-.44,1.08c.06-.8.63-1.46.73-2.12a30.76,30.76,0,0,0-1.83,4,22.69,22.69,0,0,0-1.33,5.14c.33.05.38-.28.62-.51s.05-.33.19-.38a32.51,32.51,0,0,1,2.1-6.65C38.83,31.64,39.07,31.41,38.69,31.22Z"/><path class="cls-44" d="M54.53,5.83c.1-.19,0-.47.1-.66A3,3,0,0,0,55.36,4l-.1-.28c-.23-.24-.32-.52-.7-.24A9.45,9.45,0,0,1,52,4.62a4.38,4.38,0,0,0-1.19.7c-.53.32-.53.32-.06.8.19.1.43-.14.57-.18l.43-.14c.14,0,.28-.09.24-.23a.15.15,0,0,0-.19-.1c.47,0,1,.3,1.56,0,.14-.05.19.1.33,0s.38.19.47,0,.15-.52.24-.71c-.05.33,0,.61-.24.71,0,.14.09.28.24.23C54.44,6,54.53,5.83,54.53,5.83Z"/><path class="cls-45" d="M14.52,86.8c-.15,0-.24.23-.53.32.1.29.38.2.61.44-.14,0-.75.08-.29.56.48,0,.67-.37,1.1-.51-.24-.24.14-.52,0-.61.56-.19.74.86,1.36.34a1.26,1.26,0,0,0,.09,1.23c.18.1.33.05.28-.09,0-.61.25-1.18.21-1.79a2.66,2.66,0,0,0-1.74-1,2.68,2.68,0,0,0-1.24,1C14.14,86.61,14.76,86.56,14.52,86.8Z"/><path class="cls-46" d="M53.34,61.09a23.14,23.14,0,0,1-1.21-7.16c-.05-.14-.05-.14-.19-.1s-.1.19-.19.38a24.94,24.94,0,0,0,.1,3.74,16.31,16.31,0,0,0,1.28,4.46,2.34,2.34,0,0,0,.56.76c.52.15.24-.23.34-.42A3.91,3.91,0,0,1,53.34,61.09Z"/><path class="cls-47" d="M37.34,10s.28-.1.09-.19c-.61-.43-.32-.53.15-.52.05-.33-.14-.43-.18-.57,0,.47-.29.56-.67.37s-.48.47-.85.28a.2.2,0,0,0,.09.28c0,.14.23.24.18.57-.52-.15-.46-.95-1-.77,0,.33.37.67-.2.85a2.46,2.46,0,0,1,.09.29c.05.14.33,0,.28.38.05.14-.09.19-.28.09s-.47,0-.42-.34-.19-.09-.24-.24a7.1,7.1,0,0,0-.1,1.14,1.28,1.28,0,0,0,1-.32c.29-.09.29-.09.24.24,0,.14,0,.14.23.24,0-.33.67-.37.67-.85a.55.55,0,0,0,.75.39c.43-.14-.18-.57.2-.85-.85.27-.85.27-.66-.58C36.72,10,37,10.38,37.34,10Z"/><path class="cls-48" d="M68.2,102.84c-.33,0-.28-.38-.19-.57a2.4,2.4,0,0,0-.32-1c-.28-.38-.18-1-.31-1.47-.09-.28,0-.62-.28-.85,0,.47.13.9.13,1.37-.33,0-.28-.38-.47-.48s-.19-.1-.23-.24-.19-.09-.33,0-.1.19,0,.33c.09.29.32.53.41.81.89.81.79,2,.87,3.18.09.76,0,1.56.12,2.32.76-.56.91-.61.77-1.51Z"/><path class="cls-49" d="M54.35,88.59a23.69,23.69,0,0,1,2.25,1.63c.37.2.75.39.84.67a12.35,12.35,0,0,0,1.69,1.35c.33.05.47.48.8.53l.28-.1c-.18-.56-.7-.71-1.12-1a28.47,28.47,0,0,0-3.33-2.54,4.06,4.06,0,0,0-1.36-.82A.5.5,0,0,1,54.35,88.59Z"/><path class="cls-50" d="M48.16,34.3a9.67,9.67,0,0,1-.41,3.12,2.35,2.35,0,0,0-.1.66l.29-.57a12.11,12.11,0,0,0,.56-4.11c0-.61,0-1.09-.08-1.7A3.65,3.65,0,0,0,48,29.94a6.21,6.21,0,0,0-1.3-2.57c-.33-.05-.37-.66-.79-.53a12.46,12.46,0,0,0,1.25,2,15.42,15.42,0,0,1,1,2.52,2.2,2.2,0,0,0,.18,1c-.23-.24,0-.62-.37-.67-.14,0-.14-.42-.33-.05A15.88,15.88,0,0,0,48.16,34.3Z"/><path class="cls-51" d="M29.06,54.44c-1.36-1.29-2.72-2.58-3.93-3.92-.8-1-1.45-2.05-2.06-3-.14,0-.33,0-.42.13.23.24.37.67.6.91a6.89,6.89,0,0,1-2.54-.6.15.15,0,0,0-.1.19c.23.24.52.15.66.58a.55.55,0,0,0,.47,0c.38-.28.61,0,.8.06,1.37-.13,1.6,1.06,2.3,1.77s1.26,1.48,1.92,2.06,1.12,1,1.73,1.48C28.73,54.39,28.82,54.68,29.06,54.44Z"/><path class="cls-52" d="M31.44,52.58a12.14,12.14,0,0,1,1.38,3.8,2.26,2.26,0,0,1-1.08-.44c-.38-.19-.85-.2-1.13-.58a.44.44,0,0,0-.33,0L30,55.4a18.23,18.23,0,0,0,3.62,2,3.19,3.19,0,0,1,1.37.34c.38.2.38.2.57-.18-.61-.43-1.22-.39-1.79-.68-.38-.19-.56-.29-.56-.76a7.41,7.41,0,0,0-1.38-3.8C31.54,52.39,31.39,52.43,31.44,52.58Z"/><path class="cls-53" d="M64,46.34c-.09-.28.24-.23.34-.42l0-.14c-.28.09-.38.28-.62.51a.28.28,0,0,1-.42.14c-.39.28-.39.75-.39,1.22a.83.83,0,0,1-.34.9,27.32,27.32,0,0,0-3,4.27c-.38.28-.44.61-.25,1.18a16.68,16.68,0,0,0,1.25-2,30.39,30.39,0,0,1,2.63-3.52c.24-.24.33.05.62,0,.09-.19.33-.42.52-.33.28-.09.28-.09.19-.37a.32.32,0,0,0-.38-.2c-.33,0-.28.09-.61.52A15.1,15.1,0,0,0,64,46.34Z"/><path class="cls-54" d="M14.54,31.29c.09-.19.05-.33.14-.52a6,6,0,0,1,.65,1.53c0,.14.09.28.23.23s0-.14.2-.37c0,.14.23.24.28.38.19-.38,0-.62-.14-.9-.28.09-.28.09-.33-.05a9.17,9.17,0,0,1-1.07-1.86c-1-2.19-2.18-4.33-3.29-6.33-.19-.09-.14.05-.29.09,1,2.05,2.14,4.19,3.11,6.24A5.83,5.83,0,0,0,14.54,31.29Z"/><path class="cls-55" d="M50.89,6.22c-.38-.19-.28-.38,0-.62A7.28,7.28,0,0,0,48.61,7c-.66.37-1,1.13-1.71,1.5a.31.31,0,0,0-.19.37.15.15,0,0,1-.1.19c-.1.19-.34.42,0,.62a.53.53,0,0,0,.67-.37l.28-.57c0,.14,0,.47.28.38a.28.28,0,0,0,.43-.13.58.58,0,0,0,0-.48c-.1-.28,0-.33.33-.42a2.11,2.11,0,0,0,.76-.56c.24-.23.29-.56,1-.46C50.55,7.11,50.84,6.55,50.89,6.22Z"/><path class="cls-56" d="M60.89,27.52c-.18-.09-.38.28-.52-.14l0-.15c-.15.52-.57-.29-.9.14a.47.47,0,0,0,0-.81c-.09.19,0,.47-.14.52-.29.09-.24-.24-.42-.34-.33-.52-1.13-.58-2-.3a2.52,2.52,0,0,1-.34.9c.38-.28.38-.28.85.19-.18-.57.29-.56.48-.46.52.14.14.42.23.71.19.09.38-.28.52.15s-.24.23-.19.37l-.1.19a7,7,0,0,0,1.75-.41A.66.66,0,0,0,60.89,27.52Z"/><path class="cls-57" d="M35.45,57.73c-.28.09-.28.09-.51-.15a3.89,3.89,0,0,0-1.47-.16,20.31,20.31,0,0,0,7,1.83c.42-.14.75-.09,1.18-.23.14,0,.33.06.38-.28s-.47,0-.66-.1C39.46,59,37.53,58.32,35.45,57.73Z"/><path class="cls-58" d="M69.76,43.85c-.38.28-.8.41-1.19.69-.71.23-1.14.84-1.71,1-.14,0-.38.28-.52.32s-.14,0-.24.24-.66.37-.53.8c.43.33.43.33,1,0-.19.37-.85.27-.81.89.75-.09,1.19-.7,1.71-1a12.68,12.68,0,0,1,2.48-2c.14,0,.23-.24.33-.43s0-.33-.09-.28C69.91,43.8,69.86,43.66,69.76,43.85Z"/><path class="cls-59" d="M65.66,47.68a7.65,7.65,0,0,1,1.14-.84c-.47,0-.85.28-1.13-.1-.19-.1-.43.14-.71.23.14,0,.1-.19.05-.33s-.19-.1-.05-.15a.5.5,0,0,0,.38-.28c.1-.18.15-.52-.13-.42,0,0-.33,0,0-.15s.38-.28.62-.51c-.33-.05-.52.33-.85.27-.1.19-.53.33-.25.71s-.14.52-.38.76c-.19-.1.14-.52-.28-.39a4.5,4.5,0,0,0-.58,1.61c.23-.24.28-.57.76-.56,0,0,.28-.1.19.09s-.1.19-.24.24c-.29.09-.62,0-.62.51A3.73,3.73,0,0,0,65.66,47.68Z"/><path class="cls-60" d="M16.66,31.55,17,32.69c0,.14-.05.33.09.29.47,0,.15-.52.62-.52-.09-.28,0-.61-.14-.9,0-.14-.28.09-.23-.24a20.51,20.51,0,0,0-.77-2.89c-.1-.29.23-.24.19-.38l-.54-3.13c-.19-.09-.19-.09-.28.1a8,8,0,0,1,.12,1.84c0,1.09.4,2.23.44,3.32A1.44,1.44,0,0,0,16.66,31.55Z"/><path class="cls-61" d="M53.31,34.68c-.29.57-.63,1-.25,1.66.09-.19.14-.52.47-.47.1.28-.19.37-.24.71.52-.33.66.1.66.57s.13.43.23.71a4.67,4.67,0,0,0,1.06-3c-.28.09-.23.23-.33.42s-.19.37-.38.28.1-.19.24-.24,0-.33-.09-.28c-.19-.1-.33-.05-.29.09,0,.33-.19.38-.48.47-.14,0-.42.14-.47,0s.1-.18.19-.37C53.5,34.78,53.45,34.64,53.31,34.68Z"/><path class="cls-62" d="M7.6,98c-.23-.24,0-.47-.23-.71.1-.19,0-.15-.19-.1a.57.57,0,0,0-.38.28,18.23,18.23,0,0,0-1,3.16c.47,0,.14.43.18.57,0,.33-.19.85-.24,1.18,0,.14.09.28.23.24.15-.52.62-1,.72-1.65.1-.19.2-.38,0-.62s0-.14.1-.18a.33.33,0,0,0,.19-.38c-.13-.43.2-.38.34-.42a.15.15,0,0,0,.09-.19.8.8,0,0,1,.1-.66C7.55,98.32,7.84,98.23,7.6,98Z"/><path class="cls-63" d="M66.08,57.77A43.56,43.56,0,0,0,60,59.26c-.14.05-.14.05-.24.24s-.09.19.09.28c1.76-.4,3.65-.86,5.36-1.41L66.32,58C66.41,57.82,66.37,57.68,66.08,57.77Z"/><path class="cls-64" d="M43.85,11.16c0,.14-.1.19-.24.23l-.29.1c-.28.09-.71.22-.1.66l.05.14c-.05.33,0,.47.18.57a2.18,2.18,0,0,0,.95,0c.38-.28.76-.56.76-1s.1-.67.11-1.14c-.33-.52.24-.71.48-.94a1.45,1.45,0,0,0,.44-1.08l0-.15a15.6,15.6,0,0,0-1.91,2.35C44.18,11.21,44.13,11.54,43.85,11.16Z"/><path class="cls-65" d="M59.31,53.82c-.28-.39.06-.81.25-1.18-.32-.53,0-1.09,0-1.57-.05-.14.1-.18,0-.33s.05-.33,0-.61.05-.33-.28-.38c-.14,0-.1.18-.19.37A19.3,19.3,0,0,0,59,53a2.51,2.51,0,0,1-.49,1.42A25.4,25.4,0,0,0,57,58.19c0,.14-.05.33.28.38.43-1.08.87-2.16,1.4-3.44A6.4,6.4,0,0,0,59.31,53.82Z"/><path class="cls-18" d="M41.18,81.83c-.14-.43-.57-.29-.76-.39-2-.3-2.91-1.73-4-3.12-.47-.47-.84-1.14-1.31-1.62-.38-.19-.52-.15-.52.33.69,1.19,1.91,2,2.75,3.2,0,.14.38.19.28.38s0,.33.28.38.9.34,1.23.39a1.51,1.51,0,0,1,.8.53C40.51,82.2,40.84,82.25,41.18,81.83Z"/><path class="cls-66" d="M67.52,41.27c.19.09.33,0,.38.19a.14.14,0,0,0,.18.1c.15-.05.15-.05.1-.19a2,2,0,0,1,.43-.61l0-.14c.09-.19,0-.48.28-.57a21.4,21.4,0,0,0,1.6-3.34,4.79,4.79,0,0,0,.58-1.6c.1-.19.24-.24-.09-.29-.72,1.18-1.25,2.45-2,3.62-.52.8-.91,1.56-1.34,2.17C67.57,40.94,67.47,41.13,67.52,41.27Z"/><path class="cls-67" d="M34.61,77c0-.33.19-.38.52-.33-1.12-2-2-3.9-3-6A17.29,17.29,0,0,0,34.61,77Z"/><path class="cls-68" d="M41.18,81.83A.84.84,0,0,1,40,81.72a1.77,1.77,0,0,0-.94-.48c-.38.28-.66-.1-1-.15s-.42-.34-.43.13c2.6.74,5.09,1.67,7.59,2.59.19.1.19.1.33,0,.33-.42-.14-.43-.37-.66-1.37-.35-2.5-.93-3.87-1.28C41.41,82.07,41.36,81.92,41.18,81.83Z"/><path class="cls-69" d="M70.94,44.1a35.86,35.86,0,0,1,5.27-2.17c1-.32,2.08-.36,2.94-.63a20.31,20.31,0,0,0-2.94.15c-.23.24-.56.19-.71.23A31.93,31.93,0,0,0,72,42.83a1.1,1.1,0,0,1-.76.56c-.15,0-.48,0-.39.28S70.8,44.14,70.94,44.1Z"/><path class="cls-70" d="M36.35,48.32a23.51,23.51,0,0,1-.55-6.58c0-.47.24-.71.39-1.23a1.59,1.59,0,0,1,.05-.8c0-.14.2-.38-.13-.43s-.43.14-.38.28a20.45,20.45,0,0,0,.43,8.67C36.44,48.61,36.4,48.46,36.35,48.32Z"/><path class="cls-71" d="M22.65,47.7a.27.27,0,0,0,.42-.13,39.71,39.71,0,0,1-2.83-5.38l-.28.09a9.93,9.93,0,0,0,.78,1.95A16.1,16.1,0,0,0,22.65,47.7Z"/><path class="cls-72" d="M63.63,18l-.28.09a.31.31,0,0,1-.15.52c.24.24.23.72.8.53.14.43.51.62.61.91a.54.54,0,0,0,.28.38c.18.1.42.34.66.1.28-.09.19-.38.1-.66s-.09-.29.09-.19A20.21,20.21,0,0,1,63.63,18Z"/><path class="cls-73" d="M55.78,62.34c-.24.71-.11,1.61-.54,2.22-.14,0-.1.19-.05.33,0,.33-.06.81-.11,1.14.19.09.29-.09.43-.14.25-1.18.54-2.22.79-3.4a2.19,2.19,0,0,1,1-1.27c-.29.1-.39.28-.72.23-.13-.42.34-.89.16-1.46a1.75,1.75,0,0,0-.58,1.13A2.62,2.62,0,0,1,55.78,62.34Z"/><path class="cls-74" d="M54.74,72.27c-.19.38-.28.09-.33,0L51.33,68.5l-.19-.1c-.38.28.14.43.23.71.56.76,1.21,1.34,1.77,2.1a14,14,0,0,0,1.55,1.86.13.13,0,0,0,.18.1l.15,0A1,1,0,0,0,54.74,72.27Z"/><path class="cls-45" d="M13.8,88c.14-.51.14-.51-.14-.42-.19.37-.52.32-1,.32a.57.57,0,0,1-.33-.05c-.14,0-.19-.1-.28.09s.09.28.23.24.33,0,.52.15c-.81.41-1.71.55-2.37.92a.67.67,0,0,0,.23.71,1.28,1.28,0,0,0,1-.32.8.8,0,0,1,.48-.47,2.59,2.59,0,0,1,1-.18C13.93,88.87,13.93,88.87,13.8,88Z"/><path class="cls-75" d="M56.51,6.61c-.14,0-.19-.1-.33-.05-.28-.38-.56-.29-.94,0,0,.14.28-.09.33,0s-.38.28-.72.23l-.18-.1a.71.71,0,0,1-.49.94c.43-.14.67.1.8.53-.33,0-.61,0-.47.47.33.05.47,0,.8.06a.46.46,0,0,0,.57-.19c-.09-.28-.09-.76-.18-1,0-.62.57-.18.57-.66C56.56,6.75,56.7,6.7,56.51,6.61Z"/><path class="cls-76" d="M53.08,96.86a5.81,5.81,0,0,1,2.63-2.58c.28-.09.38-.28.66-.37.05-.33.38-.28.43-.61a4.93,4.93,0,0,0-3.95,3.32C53,96.72,52.94,96.9,53.08,96.86Z"/><path class="cls-77" d="M23.6,80.89a.82.82,0,0,0,.15-.52A2.65,2.65,0,0,0,22.7,81,8,8,0,0,0,22,83.76a1.62,1.62,0,0,0,.37,1.13C22.54,83.43,22.55,82,23.6,80.89Z"/><path class="cls-78" d="M35.23,18c0-.15-.34-.06-.48,0a5.19,5.19,0,0,0-1.37.6c.33.05.8.06.7.72a.45.45,0,0,0,.23.24c.29-.09.29-.09.28.38s.14.43.28.38l.43-.14.09-.19c-.28-.38.11-.66.2-.85C35.84,18.46,35,18.4,35.23,18Z"/><path class="cls-79" d="M51.23,69.16c.09-.19.23-.24-.1-.29a.28.28,0,0,1-.13-.43c-.24-.23-.43-.33-.66-.57-.7-.72-1.4-1.43-1.92-2.05,0,0,0-.15-.09-.29s-.23-.24-.42-.34c-.47,0-.61-.43-.89-.81a.33.33,0,0,0-.38-.19.44.44,0,0,1,0,.33C48.14,65.91,49.63,67.63,51.23,69.16Z"/><path class="cls-80" d="M36.73,28.55c-.42-.34-.42-.34,0-.62.14-.05.24-.23.48-.47-.33-.05-.58.66-1.05.18l.05.14c0,.48-.43.61-.62,1-.29.56-.77,1-1.06,1.6-.1.19-.24.23-.05.33s.14-.05.28-.09A5.23,5.23,0,0,1,36.73,28.55Z"/><path class="cls-81" d="M38.73,27.43c-.24.24-.72.23-.91.61a15.19,15.19,0,0,0,1.89.49c.19-.38.62-.51.58-1.13a.82.82,0,0,0-.47-.48l-.19-.09A2,2,0,0,0,38.73,27.43Z"/><path class="cls-82" d="M20,42.42l.29-.09a20.72,20.72,0,0,1-1.47-4.08A4.19,4.19,0,0,1,18.4,37L18,37.1C18.57,39,19.27,40.62,20,42.42Z"/><path class="cls-83" d="M11.78,100.73c.05.14-.09.19.09.28a19.2,19.2,0,0,0,2.07-3.81c.2-.37.1-.66-.23-.71,0,.47-.52.8-.53,1.27.05.15-.09.19,0,.48l.09.28c-.76.09-.57.66-.72,1.18,0,0-.1.19-.24.23S11.64,100.3,11.78,100.73Z"/><path class="cls-84" d="M15.48,85.39c.7.24,1,.77,1.73,1,.06-.33-.41-.81-.08-1.23a2.64,2.64,0,0,1,1.29-1.36c-.14-.43-.14-.43-.56-.29a1.32,1.32,0,0,0-.72.7A2.37,2.37,0,0,1,15.48,85.39Z"/><path class="cls-85" d="M18.45,26.89c.1-.19,0-.48.25-.71.3-2,.84-3.73,1.19-5.57-.05-.14.09-.19,0-.47-.52-.15-.38.28-.48.46-.35,1.85-.84,3.73-1.14,5.72C18.36,26.6,18.27,26.79,18.45,26.89Z"/><path class="cls-86" d="M59.11,50.26l.1-.18c.38.19-.1.66.27.85A33.86,33.86,0,0,0,60,47.15c-.23.23-.33,0-.51-.15A19.12,19.12,0,0,0,59.11,50.26Z"/><path class="cls-87" d="M66.71,100.65c.05-.34-.23-.72-.32-1,.18.1.33,0,.51.15l-.84-1.15a.15.15,0,0,0-.09.19.16.16,0,0,0-.19-.1c.14,0,.19.1.28-.09a16.91,16.91,0,0,0-1.63-2.15c-.24.24,0,.48.09.76s.42.34.23.72A25.31,25.31,0,0,0,66.71,100.65Z"/><path class="cls-88" d="M61.18,41.58c-.48,1.41-1,2.69-1.46,4.24a.81.81,0,0,0-.1.66c.24-.23.38.2.47,0,.3-1.51.74-3.07,1.18-4.63A.2.2,0,0,0,61.18,41.58Z"/><path class="cls-89" d="M29.59,23.46a.29.29,0,0,0,.43-.14c.1-.66.67-.85.86-1.22s.67-.38.3-1c-.05-.14.48-.47.57-.66a1.46,1.46,0,0,0,.34-.89c-.66.37-.91,1.08-1.38,1.54a20.51,20.51,0,0,1-1.21,2.12S29.55,23.31,29.59,23.46Z"/><path class="cls-90" d="M12.28,88.15c0-.14-.37-.2.1-.19.14,0,.19.1.33.05L8,86.68a.15.15,0,0,0-.09.19,24.92,24.92,0,0,0,3.86,1.27C12,88.24,12.19,88.34,12.28,88.15Z"/><path class="cls-91" d="M42.59,28.23a3.18,3.18,0,0,1-1.6-.11c-.33-.05-.19.37-.48.47a5.71,5.71,0,0,0,2.12.73A.86.86,0,0,0,42.59,28.23Z"/><path class="cls-36" d="M43.74,32.26l-.29.09c.41,1.76,1.68,2.77,3.09,3.73a1.74,1.74,0,0,0-.38-.67c-.51-.62-1.26-1-1.49-1.72-.42-.33-.42-.81-.7-1.19A.5.5,0,0,0,43.74,32.26Z"/><path class="cls-92" d="M67.52,41.27c.38-.76.91-1.55,1.3-2.31.09-.19.05-.33.19-.37a9.44,9.44,0,0,0-1.39,2c-.1.18-.24.7-.47,0a.16.16,0,0,0-.19-.1,1.84,1.84,0,0,0-.48,1c0,.33-.29.09-.29.09s-.09.19-.09.19,0,.33.28.38a.37.37,0,0,0,.52-.33c.19-.37.19.1.33,0A1.09,1.09,0,0,0,67.52,41.27Z"/><path class="cls-93" d="M60.59,93.34c.65.58,1.21,1.34,1.87,1.91.33,0,.28-.09.19-.37a2.14,2.14,0,0,0-.56-.77,11.69,11.69,0,0,0-1.55-1.38C60.45,92.91,60.49,93.06,60.59,93.34Z"/><path class="cls-94" d="M4.64,91.71a20.51,20.51,0,0,1,4.17-1.19c-.09-.28-.24-.23-.42-.33a6.12,6.12,0,0,0-1.57.5,14.12,14.12,0,0,0-2.37.92Z"/><path class="cls-95" d="M17.05,88.34l-.28.09c-.1.66.56.76.89.82.52.14.94.48,1.46.63a5.3,5.3,0,0,0,2.22.54A10.36,10.36,0,0,1,17.05,88.34Z"/><path class="cls-96" d="M55.78,62.34c.71-.23.48-.94.77-1.5.1-.19.1-.66.39-.76.19-.37.2-.85.39-1.22,0-.14-.24-.24-.28-.38A13.37,13.37,0,0,0,55.78,62.34Z"/><path class="cls-97" d="M42.59,28.23a1.82,1.82,0,0,1,.09,1.23l.18.1a.91.91,0,0,1,.61.9,1.68,1.68,0,0,0,.13.9c.24-.23.34-.42.48-.47a.64.64,0,0,0-.18-1c-.23-.24-.23-.24,0-.47-.43.14-.66-.1-.61-.43a1.24,1.24,0,0,0,.1-.66A1,1,0,0,0,42.59,28.23Z"/><path class="cls-98" d="M70.94,44.1a.53.53,0,0,0-.28-.39.14.14,0,0,0-.19-.09c-.28.09-.42.14-.52.32a8.75,8.75,0,0,1-1.76,1.36c-.38.28-.53.8-1,1.12a4.43,4.43,0,0,0,1.62-1.31A4.24,4.24,0,0,0,70.94,44.1Z"/><path class="cls-99" d="M72,43.11c1.42-.45,2.8-1.06,4.27-1.37.28-.09,0-.14,0-.14A22.12,22.12,0,0,0,72,42.83a.9.9,0,0,0-.53.32c-.23.24,0,.34.1.29S71.9,43.16,72,43.11Z"/><path class="cls-100" d="M20.66,48.35l.09-.19a18.22,18.22,0,0,1-3-1.55c-.24.24.09.29.14.43a5.59,5.59,0,0,0,2.54,1.54C20.61,48.68,20.7,48.49,20.66,48.35Z"/><path class="cls-101" d="M7.43,86.25a3.86,3.86,0,0,0-1.69-.87C5,85,4.33,84.42,3.58,84c-.19-.09-.24-.23-.52-.14A16.9,16.9,0,0,0,6.3,86.14C6.73,86,7.05,86.53,7.43,86.25Z"/><path class="cls-26" d="M57.49,17.93c.14-.05.19.09.24-.24a.78.78,0,0,0-.75-.86c-.33,0-.57.19-.9.14-.14,0-.1.19-.19.37s0,.48.28.38.09-.18.28-.09,0,.48.33.53A.68.68,0,0,0,57.49,17.93Z"/><path class="cls-102" d="M55.51,65.89l-.43.14a14.16,14.16,0,0,0-.22,3.69.52.52,0,0,1,.47,0,22.53,22.53,0,0,0,.08-3.17C55.32,66.27,55.6,66.17,55.51,65.89Z"/><path class="cls-103" d="M45.65,84c-.15,0-.19-.09-.33,0a1.46,1.46,0,0,0,.89.34,7.32,7.32,0,0,1,2.5.93c.33,0,.56.29,1,.15l.14,0a12.13,12.13,0,0,0-3.63-1.51C46,83.72,45.93,83.91,45.65,84Z"/><path class="cls-104" d="M62.05,83.28a12.67,12.67,0,0,0-1.76-3l-.29.09-.09.19c.37.67.69,1.19,1.07,1.86.33,0,.32.52.51.62S61.77,83.37,62.05,83.28Z"/><path class="cls-105" d="M17.71,83.57c.24.24.57-.19.57.29A12.22,12.22,0,0,1,20,82.5c.1-.18-.09-.28-.19-.09s-.33,0-.47,0A5.08,5.08,0,0,0,17.71,83.57Z"/><path class="cls-95" d="M21.52,90.52c.19.09.52.14.71.24a9.65,9.65,0,0,0,4.59-.85A15.62,15.62,0,0,1,21.52,90.52Z"/><path class="cls-106" d="M56.8,93.3c-.09.19-.56.18-.43.61a3.71,3.71,0,0,1,2.56-.35c.14,0,.33,0,.61,0a.31.31,0,0,0-.37-.19A2.15,2.15,0,0,0,56.8,93.3Z"/><path class="cls-103" d="M49.65,85.7a12.91,12.91,0,0,0,2.58,1.21c.2-.37-.13-.43-.18-.57a10.49,10.49,0,0,0-2.26-1.16c-.24.24-.19.38-.14.52Z"/><path class="cls-107" d="M55.36,4c-.39.28-.77.56-.77,1,.14,0,.33,0,.47,0-.43.14-.1.66-.34.9-.14,0,.14.42.28.38s.29-.09.24-.24-.09-.28.24-.23l.14,0c-.23-.23.06-.8-.18-1s-.09-.28.15-.52C55.45,4.28,55.4,4.14,55.36,4Z"/><path class="cls-6" d="M16.6,28c-.1.18-.38.28-.29.56.28.85.46,1.9.73,2.75.09.29.14.43.38.2C17.24,30.42,16.87,29.28,16.6,28Z"/><path class="cls-108" d="M67,42.07c-.19-.1.05-.33-.14-.43-.28.09-.19.38-.47.47s-.14-.43-.43-.34c-.33.42-.62,1-1,1.41,0,.14.13.43.42.34A11.73,11.73,0,0,0,67,42.07Z"/><path class="cls-109" d="M17,93.88c-.09.18-.24.23-.14.51s-.24.24-.24.24a8.08,8.08,0,0,0,1,2.52c.18.09.18.09.14-.05C17.21,96.15,17.32,95,17,93.88Z"/><path class="cls-110" d="M62.09,94.11c-.24.24.09.29.28.39.09.28.33.52.09.75.28.39.7.72,1,1.1.33.05.52.15.8.06A16.29,16.29,0,0,0,62.09,94.11Z"/><path class="cls-111" d="M58.8,78C58,77,57.35,76,56.56,75l-.15,0c-.19.38-.1.66.23.71s.19.1.24.24.14.43.18.57c.28.38.75.86,1,1.24C58.28,77.89,58.37,78.18,58.8,78Z"/><path class="cls-112" d="M15.71,22.27a40.31,40.31,0,0,0-.86-4.13,36.86,36.86,0,0,0,.48,4.41C15.47,22.5,15.57,22.31,15.71,22.27Z"/><path class="cls-25" d="M74,38.88c-.61,0-.29.56-.34.89-.09-.28-.18-.57-.37-.67-.25,1.18-.25,1.18.37,1.14.33-.42.76-.56,1-.93A2.22,2.22,0,0,1,74,38.88Z"/><path class="cls-113" d="M65.79,24.21c-.09.19-.33.43-.1.67s-.19.37-.14.51c.28-.09.8.06,1-.17.09-.19.33.05.42-.14,0-.62-.65-.58-1.07-.91.09-.19.09-.19-.15,0C65.89,24,65.75,24.07,65.79,24.21Z"/><path class="cls-114" d="M54.83,73h0c0,.33.13.42.23.71a2.34,2.34,0,0,1,.56.76c.23.24.46.48.89.34a2.08,2.08,0,0,0-.56-.76,2.49,2.49,0,0,1-.69-1.66c-.29.09-.24.23-.34.42C55.07,72.79,55,73,54.83,73Z"/><path class="cls-115" d="M37.68,81.22c.39-.28.67.1.85.2s.48,0,.57-.18c-.42-.34-1-.3-1.46-.63l0-.15c-.15.52-.48.47-.9.14s-.57.18-.71.23A7.45,7.45,0,0,0,37.68,81.22Z"/><path class="cls-116" d="M66.08,57.77c0,.14.19.09.09.28a6.64,6.64,0,0,0,3.18-1.34A25.63,25.63,0,0,1,66.08,57.77Z"/><path class="cls-117" d="M31.44,52.58l.28-.1a16.82,16.82,0,0,0-1.63-2.14c-.05-.14-.23-.24-.33-.05s-.1.19.09.28C30.51,51.15,30.78,52,31.44,52.58Z"/><path class="cls-31" d="M48.47,65.48c-.09.19-.24.24-.19.38a13.45,13.45,0,0,0,2.06,2c0-.62-.56-.76-.84-1.14A1.91,1.91,0,0,0,48.47,65.48Z"/><path class="cls-118" d="M49.65,85.7c.18.1.33,0,.57-.18-.29.09-.48,0-.43-.34a6,6,0,0,1-2.3-.83c-.38-.19-.85-.19-1.23-.39l.05.15C47.44,84.69,48.52,85.12,49.65,85.7Z"/><path class="cls-119" d="M57,8.51c.23.23-.11.66.17,1s-.23.23-.33.42c.33,0,.56.29.89.34A6.09,6.09,0,0,0,57,7.56c-.14.05-.14.05-.09.19A1.07,1.07,0,0,0,57,8.51Z"/><path class="cls-120" d="M55.19,64.89c.28-.09.1-.19.05-.33-.51-.62-.74-1.33-1.26-2-.14,0,.14.43-.33.42A13.21,13.21,0,0,0,55.19,64.89Z"/><path class="cls-121" d="M30,55.54c.14,0,.19.1.33.05s.1-.19-.09-.28c-.38-.19-.61-.43-1-.63,0-.14-.19-.09-.23-.24-.66-.1-1-.62-1.46-1.1-.23-.24-.32-.52-.8-.53A11.15,11.15,0,0,0,30,55.54Z"/><path class="cls-122" d="M15.71,22.27a.2.2,0,0,0-.28.09c.13.9.22,1.66.35,2.56l.28-.09C16,24.07,15.84,23.17,15.71,22.27Z"/><path class="cls-123" d="M54.35,88.59c.28-.09.23-.23.14-.52-.66-.1-1-.77-1.74-1a.76.76,0,0,0-.66-.1A26.33,26.33,0,0,0,54.35,88.59Z"/><path class="cls-124" d="M56.51,74.84c-.66-.1-.89-.81-1.45-1.1a24.32,24.32,0,0,0,2,2.67c.09-.19-.1-.28,0-.47s-.09-.29-.42-.34S56.46,75.17,56.51,74.84Z"/><path class="cls-125" d="M62.05,83.28c-.33,0-.42-.34-.65-.58,0-.14,0-.47-.42-.33.51,1.09,1.16,2.14,1.67,3.23.28-.09.09-.19.05-.33s-.1-.28,0-.33c-.38-.19-.23-.71-.61-.9A1.56,1.56,0,0,0,62.05,83.28Z"/><path class="cls-126" d="M64.05,96.31a1.07,1.07,0,0,0-.8,0c.47.47.8,1,1.31,1.62.33.05.47,0,.24-.24s-.66-.57-.65-1C64.29,96.55,64.1,96.45,64.05,96.31Z"/><path class="cls-127" d="M19.5,20.89c.24-.24.11-.66.44-.61a5.38,5.38,0,0,0,.34-1.37c-.05-.14-.28.09-.19-.1s0-.47.06-.8c0-.14-.14-.43-.33-.05A20.17,20.17,0,0,1,19.5,20.89Z"/><path class="cls-64" d="M46.66,8.68c-.09-.28.19-.37.33-.42.72-.23.77-1,1.48-1.26l0-.15A9.57,9.57,0,0,0,46,8.72c.05.14,0,.33.1.29C46.47,9.06,46.56,8.87,46.66,8.68Z"/><path class="cls-128" d="M19.77,17.82c.29-.1.19.09.23.23-.05.33.05.62,0,.95.14-.05.28-.09.23-.23a13.69,13.69,0,0,0-.3-2.42A2.74,2.74,0,0,0,19.77,17.82Z"/><path class="cls-45" d="M8.34,90.05c-.05.33.23.24.42.33s.57-.18.9-.13c.1-.19.24-.23.34-.42s.24-.24-.14-.43A5.79,5.79,0,0,1,8.34,90.05Z"/><path class="cls-129" d="M72,43.11l-.43.14a.15.15,0,0,1-.19-.1l-.28.1c-.38.28-1,.17-1.33.74a.15.15,0,0,1,.19.1c.23.23.42-.14.61-.05l.14,0c.29-.09.62,0,.86-.28S72.13,43.4,72,43.11Z"/><path class="cls-130" d="M34.54,30.51c-.29.09-.24-.24-.14-.43a11.79,11.79,0,0,0-1.4,3C33.38,32.3,34.05,31.45,34.54,30.51Z"/><path class="cls-131" d="M75.68,38.33c-.61-.44,0-.48.29-.57,0-.33-.19-.1-.24-.24-.37-.19-.33-.05-.61,0-.43.14-.39.76-1,.8.28.38.47,0,.7.24l.15-.05c.09-.18.33.06.71-.22Z"/><path class="cls-132" d="M60.15,80.28l.14,0A12.92,12.92,0,0,0,58.8,78c-.15,0-.29.09-.2.37a7.25,7.25,0,0,0,1.55,1.87Z"/><path class="cls-133" d="M13.71,96.49c.24.24.43.34.23.71a4.14,4.14,0,0,0,.63-1c0-.33-.56-.77.19-.85a.36.36,0,0,0-.61,0A4,4,0,0,0,13.71,96.49Z"/><path class="cls-134" d="M54.83,73c.33,0,.28-.09.38-.28a.42.42,0,0,1,.14-.52,2.26,2.26,0,0,1,0-1.09.69.69,0,0,0-.23-.71c-.24-.24-.19-.1-.29.09,0,.47-.1,1.13-.11,1.61A5.69,5.69,0,0,1,54.83,73Z"/><path class="cls-135" d="M8.05,81.34a1,1,0,0,0,0-.62.58.58,0,0,1,.1-.66c-.09-.76-.32-1.47-.41-2.23A9.47,9.47,0,0,0,8.05,81.34Z"/><path class="cls-136" d="M6.76,97.32c.19.09.42-.14.61,0s0-.33.34-.43c.14,0,.24-.23.33-.42-.09-.28-.52-.15-.85-.2C7,96.47,7,96.94,6.76,97.32Z"/><path class="cls-137" d="M36.35,48.32c0,.14-.1.19-.24.24a15.3,15.3,0,0,0,.83,2.56c.14,0,.18.1.14,0A9.32,9.32,0,0,0,36.35,48.32Z"/><path class="cls-138" d="M60.15,80.28c-.52-.62-.94-1.43-1.45-2l.1-.19c-.29.09-.38-.2-.71-.25l1.82,2.72C60.05,80.46,60.05,80.46,60.15,80.28Z"/><path class="cls-139" d="M54.85,70.66s0-.33.14,0,0,.61.14.9c-.05.33-.11.66.27.85a5.47,5.47,0,0,0-.07-2.18c-.19-.09-.29.1-.43.14S54.66,70.57,54.85,70.66Z"/><path class="cls-140" d="M67,40.65a13.91,13.91,0,0,0,1.07-3.49c-.29,1-.78,2-1.07,3C67.06,40.32,67,40.5,67,40.65Z"/><path class="cls-40" d="M35.82,39.85c.09-.19,0-.34.38-.28a2.22,2.22,0,0,0,0,1.08,7.53,7.53,0,0,0,.4-2.17c-.47,0-.1.66-.52.8,0,0-.1.19-.24.23S35.77,39.7,35.82,39.85Z"/><path class="cls-4" d="M56.6,6.89l-.85.28c.42.33,0,.94.46,1.42.14,0,.24-.23.24-.23s-.05-.14,0-.33c-.09-.29,0-.62.47-.47C56.84,7.13,56.79,7,56.6,6.89Z"/><path class="cls-141" d="M53.08,96.86c0-.14-.18-.1-.23-.24-.34.89-.54,1.74-.83,2.78l.19.1A10.44,10.44,0,0,0,53.08,96.86Z"/><path class="cls-142" d="M17.68,97.1l-.14.05a21.84,21.84,0,0,0,1.53,2.8Z"/><path class="cls-143" d="M65.46,43.66c-.18-.1-.23-.24-.42-.34a3.81,3.81,0,0,0-.86,1.23A1.46,1.46,0,0,0,65.46,43.66Z"/><path class="cls-144" d="M59.12,93.18c.19.1.24.24.38.2s.61,0,.9-.14c.09-.18.05-.33.14-.51l-.18-.1-.29.09c-.14,0-.09.19-.28.09C59.78,93.29,59.36,93,59.12,93.18Z"/><path class="cls-145" d="M34.44,15.6c.67.11,1.23.39,1.89.5.33,0,.29-.1.19-.38-.18-.1-.23-.24-.51-.15a4.9,4.9,0,0,0-1.66-.25C34.26,15.51,34.26,15.51,34.44,15.6Z"/><path class="cls-146" d="M18.42,83.81c-.61,0-1.47.79-1.29,1.36C17.47,84.75,18.13,84.38,18.42,83.81Z"/><path class="cls-147" d="M17.88,47c-.05-.14-.23-.24-.14-.43a14,14,0,0,0-1.31-1.15A11.21,11.21,0,0,0,17.88,47Z"/><path class="cls-148" d="M67,40.65c-.05-.15.19-.38,0-.48l-.87,1.7c.19.1.38.19.43-.14A4.47,4.47,0,0,0,67,40.65Z"/><path class="cls-149" d="M59.82,59.78l-.09-.28a3.75,3.75,0,0,0-1.81,1.21A10.43,10.43,0,0,1,59.82,59.78Z"/><path class="cls-150" d="M7.43,86.25c-.33,0-.61-.43-1.18-.25a5.2,5.2,0,0,0,1.65.73l.1-.19C8,86.4,7.62,86.35,7.43,86.25Z"/><path class="cls-151" d="M52,40.3c.19-.38.43-.61,0-.95-.24-.24-.15.52-.43.14-.05-.14-.23-.24-.56-.29a.15.15,0,0,0-.1.19C51.18,39.77,51.7,39.92,52,40.3Z"/><path class="cls-131" d="M74,38.88c.23.23.37.66.75.38.15,0,.1-.19.24-.23.15-.52.15-.52-.18-.57C74.54,38.69,74.35,39.07,74,38.88Z"/><path class="cls-152" d="M7.29,105.79c-.19-.09-.38.28-.52-.14l0-.15a4.9,4.9,0,0,0-.91,1.08A3.56,3.56,0,0,0,7.29,105.79Z"/><path class="cls-153" d="M56.74,7.32c-.14,0-.38-.19-.52-.15a1.27,1.27,0,0,0,0,1.09l.14,0a.8.8,0,0,0,.48-.47L57,7.56C56.79,7.46,56.79,7.46,56.74,7.32Z"/><path class="cls-154" d="M61.18,41.58l.09.28a20.53,20.53,0,0,0,.83-2.31A15.49,15.49,0,0,0,61.18,41.58Z"/><path class="cls-21" d="M51,39.34l.1-.18a1.25,1.25,0,0,0-1.32-.68A3.62,3.62,0,0,0,51,39.34Z"/><path class="cls-155" d="M66.42,22.75c.24.24.37.67.7.72a1.63,1.63,0,0,0-.36-1.14C66.85,22.62,66.43,22.28,66.42,22.75Z"/><path class="cls-156" d="M51.7,54.07c.1-.19,0-.33.24-.24a7.19,7.19,0,0,0-.27-1.8C51.57,52.69,51.8,53.41,51.7,54.07Z"/><path class="cls-157" d="M42.11,58.89c-.19.37-.62,0-.9.13a1.36,1.36,0,0,0-.67.37,5.4,5.4,0,0,0,1.56,0C42.2,59.17,42.3,59,42.11,58.89Z"/><path class="cls-158" d="M60.09,46.49c-.37-.19.06-.33-.13-.43s-.24.24-.34.42c.05.15-.09.19,0,.34s0,.33.14.42S60,47,60.09,47C60,46.82,60.14,46.63,60.09,46.49Z"/><path class="cls-94" d="M10.05,89.5c0,.14.09.28-.2.37a.34.34,0,0,0-.19.38.87.87,0,0,1,.62,0l.14,0c.05-.33-.14-.42-.23-.71C10.29,89.26,10.14,89.31,10.05,89.5Z"/><path class="cls-159" d="M10.78,23.54l.29-.09c-.33-.52-.51-1.09-.88-1.76l-.15,0A8,8,0,0,0,10.78,23.54Z"/><path class="cls-160" d="M34.28,13.61c.18.1.09.29.13.43s0,.33.24.24.09-.19.05-.33-.33-.52,0-.8c.1-.19-.19-.1-.23-.24s-.14,0-.24.23A.77.77,0,0,1,34.28,13.61Z"/><path class="cls-25" d="M74.82,38.6c.38.19-.19.38.19.57.28-.09.47-.47.71-.7C75.25,38.46,74.93,37.94,74.82,38.6Z"/><path class="cls-120" d="M53.34,61.09c-.1.66.12,1.37.64,1.52C53.8,62,53.47,61.51,53.34,61.09Z"/><path class="cls-161" d="M58.09,77.79c0-.61-.46-1-1-1.24A6.23,6.23,0,0,0,58.09,77.79Z"/><path class="cls-162" d="M20.66,48.35c0,.14-.1.18-.24.23a2.25,2.25,0,0,0,.75.39c.28-.1.19-.38,0-.48S20.94,48.25,20.66,48.35Z"/><path class="cls-163" d="M16.66,31.55c-.14-.42-.18-1-.32-1.47l-.09.19C16.24,30.74,16.1,31.26,16.66,31.55Z"/><path class="cls-164" d="M71.13,34.92c.18.09,0,.14.09.28A9.52,9.52,0,0,0,72,33.7,2.28,2.28,0,0,0,71.13,34.92Z"/><path class="cls-165" d="M13.14,23.57l.29-.1a5.84,5.84,0,0,0-.7-1.19A1.44,1.44,0,0,0,13.14,23.57Z"/><path class="cls-118" d="M45.65,84c.37.2.51.15.52-.32a1.27,1.27,0,0,0-.85-.2C45.37,83.62,45.84,83.63,45.65,84Z"/><path class="cls-166" d="M54.71,70.23l.43-.13c0-.15,0-.33,0-.48s-.28-.38-.47,0A.43.43,0,0,1,54.71,70.23Z"/><path class="cls-51" d="M29.29,54.68c.28.38.8.53,1.08.91l.28-.09A4.12,4.12,0,0,0,29.29,54.68Z"/><path class="cls-167" d="M22.59,49c-.14-.43-.57-.29-.9-.34-.14,0,0,.14.1.29A1.17,1.17,0,0,0,22.59,49Z"/><path class="cls-168" d="M4.64,91.71l0-.14a2.24,2.24,0,0,0-1.19.7C3.83,92.13,4.21,91.85,4.64,91.71Z"/><path class="cls-51" d="M30.65,55.5c.19.57.62.43,1.13.58A2.54,2.54,0,0,0,30.65,55.5Z"/><path class="cls-3" d="M53.23,28.58c-.1.19-.15.52,0,.61s.24-.23.42-.13C53.51,29,53.46,28.82,53.23,28.58Z"/><path class="cls-169" d="M57.63,91a.81.81,0,0,0-.84-.67A2.92,2.92,0,0,0,57.63,91Z"/><path class="cls-170" d="M14.52,86.8c.14,0,.28-.09.33-.42-.23-.24-.43.13-.52-.15a.3.3,0,0,0,.19.57Z"/><path class="cls-93" d="M60,92.91c.18.1.18.1.28-.09-.33,0-.37-.67-.94-.49A3.54,3.54,0,0,1,60,92.91Z"/><path class="cls-171" d="M6.06,101c.1-.19.05-.33.19-.38,0-.14.2-.37,0-.33s-.28.09-.38.28c0,0,0,.15-.09.19C6,100.72,6,100.86,6.06,101Z"/><path class="cls-172" d="M62.24,83.85c.09.28.08.76.6.9A1.43,1.43,0,0,0,62.24,83.85Z"/><path class="cls-28" d="M41.19,6.83c0,.33-.33.42,0,.8,0-.33-.09-.76.43-.61Z"/><path class="cls-134" d="M55.1,73.88c0-.33-.32-.52-.41-.81L54.5,73A2.84,2.84,0,0,0,55.1,73.88Z"/><path class="cls-173" d="M16.91,93.26c-.14,0-.28.09-.19.38.05.14.09.28.38.19C17.05,93.69,17,93.54,16.91,93.26Z"/><path class="cls-28" d="M40.07,6.25c.13.42.61.43.89.34A9.34,9.34,0,0,0,40.07,6.25Z"/><path class="cls-33" d="M34.3,15.65h0a1.13,1.13,0,0,0-.8-.06C33.83,15.64,34,15.74,34.3,15.65Z"/><path class="cls-174" d="M46.9,27.47a14.72,14.72,0,0,1,1.66,4.18c.33.05.29-.56.67-.37-.43.61.32,1,.46,1.42l.27.86a21.41,21.41,0,0,1,1.39,2.85.15.15,0,0,0,.19.1c.24-.23.48-.47.1-.66s-.36-1.14-.17-1.52c.09-.19.48-.47,0-.61-.19-.1-.33-.53-.37-.67,0-.33.33-.42.71-.23a5.14,5.14,0,0,1,.53-1.27c.14-.05.1-.19-.09-.29a.46.46,0,0,0-.57.19c-.28-.38.1-.66.15-1-.47,0-.8-.53-1.18-.73,0,0-.14.05,0-.14.33-.42-.09-.76-.23-1.18a1.76,1.76,0,0,1,.06-1.28c0-.14-.33-.05-.23-.24.52-.33,0-.33-.14-.43s-.56-.29-.89-.34c-.14.05-.33-.05-.42-.33.09-.19.28-.1.42-.14-.47-.48-1.18-.25-1.6-.59-.19-.09-.71.23-1-.15-.14.05-.43.14-.19.38s.09.28,0,.47C46.06,26.8,46.62,27.09,46.9,27.47Z"/><path class="cls-175" d="M46.9,27.47c-.28-.38-.41-.81-.74-1.33-.19-.1-.28-.38-.51-.62a.31.31,0,0,1,.14-.52c.72-.7,1.62-1.31,2.34-2,.19-.38-.14-.43-.24-.24s-.8-.06-1,.46c-.23-.24-.61,0-.84-.2s-.24-.24,0-.47.33-.42,0-.62c-.43.14-.62.52-1.05.66,0-.48.3-1,0-1.42-.33-.05-.43-.34-.38-.67a12.43,12.43,0,0,0-.6-5.78c0-.14,0-.14-.09-.28s-.14-.43-.43-.34-.19.38-.14.52c0,.61.27,1.33.31,1.94a.4.4,0,0,1-.29.57.52.52,0,0,0,0,.47,1,1,0,0,1,.13.9,7.38,7.38,0,0,1-1,4.72l-.1.19c0,.14.14.43.33.52a.72.72,0,0,1,.42.81c-.15.52.32.53.65.58.14,0,.29-.09.33.05.14.43,0,.95.75.86.14,0,.28.38.61.43.24-.23-.09-.28,0-.47s-.09-.29-.23-.24a.77.77,0,0,1-.47-.48c.52.15.7.72,1.13,1.05S46.43,27.46,46.9,27.47Z"/><path class="cls-176" d="M57.08,26.39c.14-.51-.33-.52-.47-.95a7.52,7.52,0,0,1-.37-.66,4.69,4.69,0,0,0-1.22-.4c-.15.05-.1.19-.06.34s.24.23.14.42a.9.9,0,0,0-.51-.62c-.38-.19-.47-.48,0-.61.14-.05.42-.14.33-.43s-.37-.19-.52-.14-.33-.05-.47,0a.87.87,0,0,0,.62,0,2.56,2.56,0,0,1,1-.18.87.87,0,0,0,1-.32c.24-.23.29-.56-.27-.85a8,8,0,0,0-4.06-.9c-.33-.05-.66-.1-.66.37s0,1.09.6,1.38c-.1.19-.57.19-.38.28s-.2.85.46.95c.33.06.47.48.84.68.19.09,0,.61-.34.89.38.19.67-.37,1,0,.09.29-.1.66.28.86.09-.19-.33-1,.38-.28.52-.33.42.33.61.43s.61,0,.94,0,.19.57.28.85C56.83,27.1,56.84,26.63,57.08,26.39Z"/><path class="cls-177" d="M51.64,21.23c.48-.47.9-.14,1.37-.13a7.56,7.56,0,0,1,2.69.55c.19.09.33.52.76.38-.05-.14,0-.33.09-.18a1.58,1.58,0,0,0,.9.34.66.66,0,0,0,.75-.09c0-.33-.13-.43-.37-.67-.75-.38-1.6-.58-2.35-1a6.3,6.3,0,0,0-2.17-.4c-.71.23-1.32-.2-2.13-.26a5.56,5.56,0,0,0-2.6.68c-.1.19-.24.24-.48.47s-.33.42-.1.66.47.48.8.06c.24-.23.62,0,.86-.28A2.36,2.36,0,0,0,51.64,21.23Z"/><path class="cls-178" d="M49.75,21.68c-.19-.1-.29.09-.52-.15a.55.55,0,0,0-.47,0c-.15,0,.13.42-.24.23-.19-.1-.33-.05-.42-.33s0-.34.33-.43.29-.09.34-.42a3.87,3.87,0,0,0-2.09.83c-.29.09-.57.18-.62.51.42.34-.05.34-.15.52s-.28.1-.19.38c.28-.09.37.67.75.39.1-.19.29-.1.33.05.47.48.47,0,.53-.33.27.38.42.34.66.1.09-.19.33-.42.33,0,.47-.46.76-1,1.52-1.12Z"/><path class="cls-179" d="M45.13,10.75c-.2.37-.06.8-.2,1.32s-.3,1-1.15.84c-.19-.1-.42.14-.52-.15a.56.56,0,0,1,.25-.7c-.33-.06-.62,0-.71-.25.24-.23.66.1.62-.51-.33-.05-.23-.71-.7-.72s-.43.14-.34.42c-.14.05-.28-.38-.52-.15,0,.34.19.57.28.86A5.16,5.16,0,0,1,42.88,13c0,.14.14.43.33.53s.57-.19.85-.28.67-.84,1.38-.6c.19.1.28-.09.38-.28.38-.28.67-.84,1.19-.7a2.56,2.56,0,0,0-.95.47c-.1.19-.24.23-.15.52s.33.05.47,0l.72-.23c.28-.09.38-.28.75-.09s.37.67.51,1.1a.15.15,0,0,1-.09.19c-.48,0-.34.42-.53.8-.25.7.17,1.51-.45,2-.14,0,0,.33.14.42s.33.53.61.44.14-.05.1-.19a.92.92,0,0,1,1-.65,3.77,3.77,0,0,0,1.38-.13c.14-.05.18.09.37.19.24-.23.34-.42.24-.71-.28-.38.11-.66.06-1.27-.38.28-.48.94-.95.93l-.28.1c0-.48-.38-.67-.42-.81,0-.62-.24-.24-.38-.2a7,7,0,0,1-.86.75,3.61,3.61,0,0,1,1-1.27.84.84,0,0,0,.15-.51c.23-.24.43-.62,0-.81-.19-.1-.09-.28.05-.33,0-.14-.19-.1-.33,0s-.28.09-.33-.05a.33.33,0,0,1,.19-.38c.15,0,.33,0,.43-.13.52-.33.28-.1.24-.24,0-.95-.89-.81-1.31-1.15-.1.19.28.38,0,.62s-.33-.05-.48,0-.14,0-.23.24c-.15,0-.1.18-.29.09s-.09-.29,0-.33c.1-.19.05-.33-.09-.29s-.28.09-.33,0c-.28-.38-.47-.48-.85-.2-.14.05-.48.47-.76.09A.27.27,0,0,0,45.13,10.75Z"/><path class="cls-180" d="M50.89,6.22c-.1.19-.24.23-.29.56,0,.15-.19.38-.43.14s-.61,0-.56.18a2.5,2.5,0,0,1-1.34.75c-.14,0-.28.09-.23.23a1.59,1.59,0,0,1-.06.8c.57.29,1,.16,1.05-.65.19-.37.75-.08.95-.46,0,0,.33.05.23.24s-.15.52-.24.71c.05-.33,0-.48-.42-.34-.15,0-.2.38-.48.47s-1,.18-1.33.74a.82.82,0,0,0-.15.52c.24.24.52.15.71-.23s.34-.42.62,0a.44.44,0,0,0,.61,0c-.09-.28-.42.14-.37-.19,0-.15.28-.09.23-.24a2.62,2.62,0,0,1,1-.46c.29-.09.33.05.38.19.14,0,.1-.19.24-.23,0,.14-.1.19-.24.23-.1.19-.28.09-.43.14-.47,0-.47,0-.47.47s.23.71.18,1l.71-.23c-.05-.14-.57-.29-.28-.38s.43-.61.76-.56l.19.1c.09.28-.24.23-.34.42.19.1.47,0,.57.29a.62.62,0,0,0,.71-.7c.1-.66.35-1.37-.65-1.52a.76.76,0,0,1,.67.1c.37.19.8.05.8-.42l0-.14c.61,0,.43-.61.67-.85a.13.13,0,0,0,.09-.18c-.09-.29-.56-.29-.7-.25s-.43.14-.53.33c-.14.52-.24.7-.85.74l-1-.15c.43-.13.34-.42.77-.56s.14-.52-.28-.85A.57.57,0,0,1,50.89,6.22Z"/><path class="cls-181" d="M51.27,5.94c0,.14.24.24.28.38s.14.43-.33.42c-.19-.09-.1.19-.24.24s.32.52-.24.23l0,.14a1.65,1.65,0,0,0,2,0l.28-.1a.14.14,0,0,0,.1-.18c-.05-.15-.43.13-.24-.24a.28.28,0,0,1,.43-.14c.19.1.33,0,.66.1-.24.24-.62.52-.53.8s-.09.19-.28.09-.33,0-.38.28c0,.14.52.15.14.43s-.48,0-.62,0c-.09-.28-.33-.05-.52-.15s-.28.09-.47,0c-.1.19.23.24.23.24a1.86,1.86,0,0,1,.61.43c.43.33-.14.52,0,.8s.23.72-.43.61a.56.56,0,0,1-.24.24c-.67.84-.67.84-.3,1.51a8.48,8.48,0,0,0,1.3-1.83c.19-.38.28-.57.71-.23,0,.14.18.09.33.05s0-.14-.09-.29a.84.84,0,0,1,.34-1.36.16.16,0,0,0,.1-.19c-.14-.9.58-1.61.63-2.41-.23.23-.38.28-.51-.15-.15.05-.29.09-.34,0-.18-.57-.7-.24-1.17-.25H51.09l-.1.19c.19.09.43-.14.66.1S51.37,5.75,51.27,5.94Z"/><path class="cls-182" d="M56.26,8.26c-.14.05-.1.19-.24.24s-.38.28-.47,0c-.28-.38-.52-.15-.76.09a.81.81,0,0,0-.15.52c0,.14.14.42-.33.42l-.14.05,0,.14c.33,0,.42.33.23.71s.42.34.52.62c-.76.09-1.28.41-1.15,1.31.09.29.09.29.28.38.09-.18-.28-.38,0-.47l.15,0-.1.18c.19.1.19.1.28-.09A6.08,6.08,0,0,1,55,11.18c.24-.23.34-.42.67-.37a3.56,3.56,0,0,0,.25-1.65c.1-.19,0-.48.15-.52S56.78,8.41,56.26,8.26Z"/><path class="cls-183" d="M55.78,13.6a4.1,4.1,0,0,1-.43,1.09c.42-.14.57-.66.67-.85C56,13.7,55.92,13.56,55.78,13.6Z"/><path class="cls-184" d="M47.78,10.21l.29-.57-.19-.09-.28.09c-.24.23-.34.42-.58.65s-.24.24,0,.48c.19.09.28-.09.42-.14S47.49,10.3,47.78,10.21Z"/><path class="cls-185" d="M51.07,16.54c0-.15,0-.95-.51-.15a.92.92,0,0,1-.9.13c-.71-.24-1,.18-1.43.46-.28.09.1.28,0,.47-.33-.05-.18-.57-.66-.57a.15.15,0,0,1,.1-.19c.24-.23.15-.52.43-.61s.19-.38,0-.33c-.42-.34,0-.48-.09-.76,0-.47,0-1,.67-.84-.23-.24.1-.67-.18-1.05-.51-.62-1-.62-1.6-.11l-.43.14c-.19-.1-.19.37-.28.09-.24-.24,0-.33.14-.52a1.4,1.4,0,0,1,.67-.37c.33.05.38-.28.1-.66a.81.81,0,0,1-.62.51c-.28.09-.43.61-.86.75a.56.56,0,0,0-.24.23c-.7-.71-.76.56-1.42.46-.14.05-.57.19-.66.37s-.05.33.09.29c.8.05,1.38-.6,2.13-.69s1-.18,1.42.49c.09.28.56.29.37.67-.09-.29-.14-.43-.42-.34s-.39.28-.34.42c.18.57-.25,1.18-.21,1.8l0,.14c-.9.61-.44,1.56-.83,2.31,0,.33.14.43.23.71a.33.33,0,0,0,.38.2c.14,0,.1-.19.19-.38,0-.47.43-.61.48-.94a.71.71,0,0,1,.81-.42c.33.05.38-.28.67-.37.57-.66.71-.7,1.46-.32a3.41,3.41,0,0,0,2,.31c.33.05.52.15.85.2.14-.05.28-.09.23-.24-.51-.14-.28-.38-.18-.57s.1-.19.05-.33-.28.09-.28.09c-.48,0-.71.23-1.05.66-.19.37-.66-.11-1-.16-.14.05-.33-.05-.23-.24C50.65,16.67,50.93,16.58,51.07,16.54Z"/><path class="cls-4" d="M56.26,8.26c.38.2,0,.33,0,.48A.7.7,0,0,0,57,8.51a1.37,1.37,0,0,0-.09-.76C56.64,8,56.5,8,56.26,8.26Z"/><path class="cls-26" d="M52.74,14.9a1.1,1.1,0,0,0-.52.32c-.14,0-.1.19.05.15s.42-.14.52-.33Z"/><path class="cls-186" d="M17.12,33c-.05-.15-.09-.29-.09-.29-.43.61-.11,1.14.22,1.66A4.15,4.15,0,0,1,17.12,33Z"/><path class="cls-187" d="M57.88,21.58c0,.14.38.19.32.52,0,.14.24.24.28.38a8.56,8.56,0,0,1,1.89,0,5.25,5.25,0,0,1,2.65.41c.37.19.85.2,1.22.39a.14.14,0,0,1,.19.1,10.61,10.61,0,0,0,1.65.72l.19.1.57-.18a13,13,0,0,1-1.65-1.2c0-.15-.19-.1-.23-.24.1-.66-.42-.34-.75-.39s-.86.28-1.28-.06c.38-.28.1-.66.11-1.13-.33-.06-.67.37-.71-.25-.14.05-.33-.52-.62,0l-.14.05c-.14-.43-.52-.15-.7-.25s-.62,0-.61-.43a.33.33,0,0,0-.48,0,1.19,1.19,0,0,1-1,.17c-.61,0-.81.42-.76,1Z"/><path class="cls-41" d="M57.88,21.58c.1-.19.28-.1.19-.38s-.09-.76.53-.8l.1-.19c-.05-.14-.19-.09-.24-.24-.14-.42-.51-.62-.51-1.09.1-.19-.09-.29-.28-.38s-.24.23-.19.37c-.38-.19-.51-.62-.75-.86s-.14-.42-.32-.52-.28-.38-.29.09c-.29.57-.34,1.37-.82,1.84a.51.51,0,0,0,.13.9,4.13,4.13,0,0,0,1.8.21.51.51,0,0,1,.24-.24c-.62.52-1.38.13-1.95.31A5.08,5.08,0,0,0,57.88,21.58Z"/><path class="cls-188" d="M56.64,18.2a.91.91,0,0,0,.6.91c.19.1.23.24.52.15.24-.24-.19-.1-.09-.29a.15.15,0,0,1,.09-.19c.15,0,.33,0,.24.24-.34.42.23.71.18,1.05,0,.14.19.09.33.05.09-.19-.09-.29,0-.48s-.09-.28.05-.33.19.1.24.24.23.24.33.05.57-.18.71-.7c0-.14.38.19.48,0a2.35,2.35,0,0,0,.1-.66c-.29.09-.66-.57-.72.23,0,.14-.51-.15-.33.42-.23-.23-.09-.75-.61-.43-.28.09-.23-.24-.33-.52-.23.23,0,.61-.19.85-.19-.1-.14-.43-.38-.2s-.47,0-.56-.29S56.92,18.11,56.64,18.2Z"/><path class="cls-189" d="M63.7,20.64c.28.39-.1.67-.34.9.24.24.62,0,.75.39,0,0,.19.09.15-.05.47-.47.8-.42,1,.29.1.29.47.48.28.86-.1.19.19.1.33,0s.24-.23.48-.47c-.28-.38-.18-1-1-1.1,0,0,0-.47-.42-.33-.28.09-.61,0-.9.13a.13.13,0,0,1-.18-.1l.14,0C64.08,20.84,64.27,20.46,63.7,20.64Z"/><path class="cls-72" d="M62.27,17.65A1,1,0,0,0,61,17.59c-.19.37-.19.37.18.57l.1.28c.14,0,.19-.38.38-.28s.13.43.18.57C62.35,18.41,62.21,18,62.27,17.65Z"/><path class="cls-190" d="M63.7,20.64c.47,0,.42.34.47.48.38-.28-.18-.57,0-.94-.19-.1-.34.42-.57.18Z"/><path class="cls-72" d="M63.2,18.6c-.19-.09-.23-.24-.37-.19a.52.52,0,0,0,0,.47A.52.52,0,0,0,63.2,18.6Z"/><path class="cls-191" d="M39.15,12.67a2.46,2.46,0,0,1,.09.29c.24.24.48,0,.62,0s.24-.24.52-.33c-.47,0-.47.47-.67.84-.14.05-.05.34-.33.43l-.1.19c-.15.51.23.71.75.86a.66.66,0,0,0-.71.22c0-.33.14-.51-.23-.71-.19-.09-.57-.29-.66-.1a1.16,1.16,0,0,0-.11,1.14c-.33-.06-.42-.34-.51-.63s-.28-.38-.61-.43c-.14,0-.29.09-.24.24.18.57-.2.85-.39,1.22a3,3,0,0,0,1.17.72c.38.2.52.63,1,.63s.85.2,1.13.11.62,0,.34-.43c-.05-.14,0-.33,0-.47l.43-.61c.24-.23.29-.56.53-.8.33.05.38-.28.25-.71.7.25.84.2.8-.41,0-.33.24-.24.2-.38.23-.23-.14-.43-.19-.57s-.47-.48-.41-.81c.38-.28.33-.42.1-.66l-.15,0c-.28.09-.42.13-.52.32-.19.38-.38.28-.66-.1,0-.14-.09-.28-.38-.19a.32.32,0,0,0-.19.37c.09.29-.38.28-.66.38S39.25,12.48,39.15,12.67Z"/><path class="cls-192" d="M36.62,16c.56-.18.61-.51.62-1-.05-.14-.23-.24,0-.33s.28-.09.38.19a.94.94,0,0,0,.6.91c.52-.33-.18-1,.2-1.33.15,0,.19.57.52.15.1-.19.19.1.19.1s0,.47,0,.61.05.14.19.1.14-.05.1-.19c-.14-.43.05-.33.38-.28.09.29.14,0,.28-.09-.47,0-1-.15-1-.77-.23-.24-.23-.24-.28-.85s-.37-.67-.61-.44-.57.19-.94,0c0-.33.28-.09.28-.09s.38.2.48,0a.92.92,0,0,0,0-.62c-.37-.19-.23-.71-.84-1.14a1,1,0,0,1-.48,1.41c-.14.05-.05.33-.05.33a.79.79,0,0,1-.1.66c-.61-.9-.43.14-.76.09.19.1.33.05.52.15-.24.23-.53.32-.76.56.33,0,.85-.28.42.33-.14,0,0,.33-.15.52-.28.09.09.29,0,.48A3.76,3.76,0,0,0,36.62,16Z"/><path class="cls-192" d="M39.15,12.67h0c.38.2.38-.28.67-.37a.81.81,0,0,0,.43-.61c0-.14,0-.14.1-.19s0,.14.09.29c.14.42.47.47.7.71,0-.61.43-.61.67-.84a3.18,3.18,0,0,0-1.59-2,6.78,6.78,0,0,1-1.43.94c.1.28.43-.14.52.14-.14,0-.42.14-.38.28-.24.24,0,.33,0,.48C39.21,11.87,39,12.24,39.15,12.67Z"/><path class="cls-193" d="M40.18,9.51a5.3,5.3,0,0,1,1.58,2c.19.09.43.33.33.52s.14.43.18.57.14.43.33.52a.46.46,0,0,0,.23.24c.05.15.24.24.33.05.15,0,.1-.18.05-.33A16.52,16.52,0,0,0,42.05,11a1.79,1.79,0,0,0-.84-1.14A11.71,11.71,0,0,0,39.9,8.66c-.19-.1-.19-.1-.33-.05s-.19-.1-.28.09A6.87,6.87,0,0,1,40.18,9.51Z"/><path class="cls-192" d="M39.38,13.86c.66.1.47-.47.71-.7s-.18-.57.38-.28c.33,0,.2-.38.15-.52-.38.28-.71.7-1.19.69C39.19,13.29,39.29,13.57,39.38,13.86Z"/><path class="cls-193" d="M39.05,8.46c-.14-.43-.61-.43-1-.63.18.1.23.24.42.34S38.91,8.51,39.05,8.46Z"/><path class="cls-194" d="M38.93,11.49c0-.15,0-.33,0-.48-.14.05-.33,0-.52-.14C38.51,11.15,38.6,11.44,38.93,11.49Z"/><path class="cls-195" d="M51.55,30.69a.77.77,0,0,0-.1,1.13c.28-.09.14-.51.66-.37a1.68,1.68,0,0,0-.34,1.37c0,.47.33,0,.56.29.05.14-.43.14-.33.42s.28-.09.28-.09a5.16,5.16,0,0,1,1.13.58c.23.24-.29.09-.43.14.19.1.24.24.47.48,0,.14.23.24.28.38.23.24.47,0,.62,0-.28-.38-.52-.62-.37-1.14A1,1,0,0,0,53.7,33c-.23-.24-.46-.47-.08-.75.09-.19-.24-.24,0-.48-.19-.09-.14.05-.28.09s-.43.14-.52-.14-.33-.05-.52-.15c.33-.42,0-.95.16-1.47-.24.24-.29.57-.67.38-.1.18.05.14.09.28C51.84,30.6,51.65,30.5,51.55,30.69Z"/><path class="cls-196" d="M51.55,30.69a.52.52,0,0,0,.47,0c0-.14-.18-.09-.23-.23,0-.48-.33-.53-.61-.44,0-.14.28-.09.19-.37s-.19-.1-.33,0-.47,0-.28-.39a2.18,2.18,0,0,0-.13-1.37l0-.14c-.14,0-.1.19-.2.37-.18-.09-.09-.28-.13-.42-.1.19-.33,0-.48,0,.1.29.47.48.09.76.24.24.19.57.37.67s.47.47.14.9c.18.09-.15.52.23.24.14-.05.19.09.23.24A.53.53,0,0,0,51.55,30.69Z"/><path class="cls-195" d="M54.27,33.27c-.28-.38.53-.8-.28-.85C54.08,32.7,53.7,33,54.27,33.27Z"/><path class="cls-197" d="M58.58,22.29c0-.14-.19-.09-.38-.19-.66.37-1-.3-1.51-.3a.78.78,0,0,0-.51-.15c0,.14.23.24.28.38.13.43.13.43-.29.57-.15,0-.29.09-.1.19s0,.14-.1.19a2.16,2.16,0,0,0-1.65.21c-.29.1-.38-.19-.47,0s-.29.09-.24.23,0,.15.18.1c.34.05.62,0,1,0-.05.33-.24.23-.38.28s-.52.33-.48.47.37.66.52.62c.61,0,.56.29.51.62.71-.23,0-.47.05-.8.43.33.95,0,1.23.39.1-.19.05-.33.28-.09s.53-.33.86-.28c.24-.23.24-.71.71-.7.15-.05.05-.33.15-.52a2.46,2.46,0,0,1-.09-.29c-.05-.14,0-.47-.28-.38C58.15,22.43,58.34,22.53,58.58,22.29Z"/><path class="cls-198" d="M62.25,24.41c.19.1.23.24.09.29l-.57.18c.23.24.85.2.37.67a.5.5,0,0,0,.33.05c.33,0,.71-.23.8.53a6.66,6.66,0,0,1,.53-1.27l.29-.1c.19.1,0,.15,0,.34s.42.33,0,.47a.16.16,0,0,0,.19.1c.14-.05.28-.1.24-.24.1-.66.53-.8.91-1.08-.05-.14-.19-.09-.38-.19l-.71.23c-.14,0-.19-.1-.09-.29-.57-.29-1-.76-1.7-.39C62.25,23.94,61.78,23.94,62.25,24.41Z"/><path class="cls-199" d="M64.2,23.16a16.85,16.85,0,0,0-3.11-.89,1,1,0,0,0-.62,0c-.1.19.09.29.14.43.09.29.47,0,.52.15l1,.15c.19.1.47,0,.42.34.05.14.05.14.19.09s.19.1.33.05C63.3,23.29,64.1,23.82,64.2,23.16Z"/><path class="cls-200" d="M64.2,23.16c-.15,0-.2.37-.38.28s-.52-.15-.71.23a.28.28,0,0,1-.43.13c-.19-.09,0-.14,0-.33s.1-.19-.09-.28c-.57.18-.94-.49-1.47-.16-.14,0-.09.19-.24.23.34.06.62,0,.61.44a.33.33,0,0,0,.38.19.52.52,0,0,1,.47,0c.67-.38,1.18.24,1.66.25l.28-.09c-.09-.29.15-.52-.13-.9Z"/><path class="cls-201" d="M60.65,22.88c.1-.19-.23-.24-.13-.42a7.49,7.49,0,0,0-1.89,0,1.11,1.11,0,0,0-.76.08c.33.05.38.2.47.48.14-.05.28-.09.33.05a.15.15,0,0,1,.19.1c.28-.09-.19-.57.19-.38.19.1.23.24.56.29C60,22.92,60.37,23,60.65,22.88Z"/><path class="cls-202" d="M64.39,23.25c-.39.28-.29.57,0,.95a.58.58,0,0,0,.66.1c.14,0,.19.1.33.05s.19-.37.42-.14a.14.14,0,0,1,.1-.18c0-.33-.38-.2-.42-.34A4.1,4.1,0,0,0,64.39,23.25Z"/><path class="cls-201" d="M58.24,23.19c-.14,0-.14,0-.24.23,0,0,0,.15-.09.19-.48.47-.62.51-.67.85.28-.1.47,0,.75-.09l0-.14c-.09-.29.14-.05.28-.1l.14,0c.19.1.24-.24.43-.14s.14,0,.1-.19C58.61,23.85,58.62,23.38,58.24,23.19Z"/><path class="cls-199" d="M62.58,24c0-.47-.37-.19-.52-.15s-.42.14-.52-.14c-.14,0-.18-.1-.28.09.09.28.47,0,.42.33-.28.1-.47,0-.75.09s-.15.05-.1.19a.16.16,0,0,0,.19.1c.38-.28.8.05,1.13.1a.15.15,0,0,0,.1-.19C62.16,24.13,62.11,24,62.58,24Z"/><path class="cls-203" d="M58.8,24c-.19-.09-.14.05-.28.09s-.33-.05-.38.28a2,2,0,0,0,1.41,0l.1-.19c.05-.33-.23-.24-.38-.19S59,24.19,58.8,24Z"/><path class="cls-34" d="M58.13,25.27c.42-.14.8.06,1.37-.13C59,25,58.46,24.85,58.13,25.27Z"/><path class="cls-34" d="M58.8,24c.09.29.24.24.38.2s.28-.1.33.05c.19-.85-.42-.34-.61-.44C58.94,23.91,58.94,23.91,58.8,24Z"/><path class="cls-198" d="M62.27,26.45c-.09-.29.15-.52.44-.61-.24-.24-.48,0-.57.18S62.09,26.35,62.27,26.45Z"/><path class="cls-204" d="M9.19,95.12l-.1.19L7.65,98.13a.55.55,0,0,0,0,.47c.14.43.28.39.76.39.33.05.42-.14.47-.47,0-.14.34-.42.43-.61a.83.83,0,0,1,.06-.8,1.13,1.13,0,0,0-.06.8.15.15,0,0,0,.19.1,3,3,0,0,0,.72-1.18c.33.53.47.48.85.2-.09-.28,0-.33.15-.52s.19-.37,0-.47c-.9.13,0-.47-.32-.52s-.1.18-.38.28-.43.13-.33-.06c.1-.66-.43-.33-.8-.52C9.29,94.93,9.14,95,9.19,95.12Z"/><path class="cls-205" d="M13.8,88c0,1-.67.85-1.29.89-.43.14-.94,0-1,.65a2.54,2.54,0,0,0,1,.15l.85-.27c.43-.14,1,.15,1.23-.56.2-.37-.46-.47-.32-1C14.17,88.17,14,88.21,13.8,88Z"/><path class="cls-206" d="M13.63,90.86c-.43-.34-.62,0-.71.23a1.5,1.5,0,0,0-.44,1.08c0,.48-.43.61-.44,1.09.19.09.33,0,.62-.05,0,.15.09.29.23.24.48,0,.38-.28.29-.56.1-.19-.28.09-.09-.29s.29-1,.63-1.46C13.76,91.29,13.81,91,13.63,90.86Z"/><path class="cls-207" d="M13.63,90.86c-.2.38-.06.8-.67.84l-.1.19c.33.53-.2.85-.25,1.18.14,0,.24-.23.38-.28a3.93,3.93,0,0,0,1.11-1.93A2.58,2.58,0,0,1,15,89.64c.19-.37-.14-.42-.32-.52a1.17,1.17,0,0,0-.63,1C14.15,90.53,13.68,90.53,13.63,90.86Z"/><path class="cls-208" d="M12.64,89.76c-.28-.38-.66-.1-1-.15l-1,.32-.14,0c0,.15.09.29.09.29.09.28.13.43.47.48s.38-.28.33-.42,0-.48.34-.43C12,90.13,12.41,90,12.64,89.76Z"/><path class="cls-209" d="M12.89,93.45c0-.14,0-.14-.23-.23-.19.37,0,.94-.67.84l-.14,0c.27.85-.44,1.08-.73,1.64.24.24.33,0,.47,0s.15-.05.24-.24a12.49,12.49,0,0,0,.82-1.83C12.94,93.6,12.94,93.6,12.89,93.45Z"/><path class="cls-210" d="M12.31,90.66a6.1,6.1,0,0,0-2.07,2.86A28.59,28.59,0,0,1,12.31,90.66Z"/><path class="cls-206" d="M14,90.11c.19-.38.43-.61.63-1L14.59,89c-.33.42-.85.27-1.23.55C13.73,89.72,13.59,90.24,14,90.11Z"/><path class="cls-210" d="M9.19,95.12,9.47,95c.24-.24.15-.52.39-.76-.19-.09-.33,0-.38.28,0,.15-.1.19-.24.24A.5.5,0,0,0,9.19,95.12Z"/><path class="cls-210" d="M8.91,94.26c-.14,0-.37-.19-.47,0s.14.43.33.52.24-.23.33-.42l-.28.09C8.63,94.36,8.77,94.31,8.91,94.26Z"/><path class="cls-211" d="M43.16,28.05a.62.62,0,0,0-.24.7c.24-.23.43-.61.67-.84.23.24-.29.56,0,.61s0-.33.34-.42c.28.38.13.43-.1.66s-.1.19.09.29.37.19.47.48.27.38.51.14c.28.38.81.06,1.23.39a.2.2,0,0,0-.09-.28.55.55,0,0,1,0-.47c.1-.19.09.28.33.05a6.33,6.33,0,0,0-1.68-2.29L44,27.3C43.78,27.53,43.4,27.81,43.16,28.05Z"/><path class="cls-212" d="M43.74,32.26c.18.57.6.91.64,1.52-.05.34.29-.09.33.06s0,.14.24.23a.46.46,0,0,0,.56.29.46.46,0,0,0,.29-.56c.05-.33-.47-.48-.13-.9l-.05-.14c-.52-.15-.42-.34-.13-.9-.19-.1-.57.18-.8-.06,0-.14-.15.05-.1.19C44.07,32.31,44.07,32.31,43.74,32.26Z"/><path class="cls-213" d="M45.47,33.75c-.29.56-.29.56-.9.13.13.9.94,1,1.31,1.62.09.29.47.48.7.72.71-.23.67-.37.15-1,0,.33.28.38.23.71-.37-.67-1-1.1-.92-1.9C45.71,34,45.66,33.84,45.47,33.75Z"/><path class="cls-214" d="M45.13,30.24c-.1.19-.2.38-.29.09a.18.18,0,0,0-.33,0c-.09.19-.19.38,0,.48a.31.31,0,0,0,.37.19c.15-.05,0-.33.24-.23s.24.24,0,.33.24.24.19.09c.19-.37.43-.13.76-.08.09-.19.38-.28.14-.52,0-.14-.23-.24-.51-.15A2.07,2.07,0,0,1,45.13,30.24Z"/><path class="cls-215" d="M48.16,34.3a5.55,5.55,0,0,0-.54-2.66l-.19-.1c0,.15,0,.34,0,.48A11.39,11.39,0,0,1,48,34.2C48,34.34,48,34.34,48.16,34.3Z"/><path class="cls-160" d="M44.94,29.67c-.33-.05-.51-.14-.61-.43s-.09-.28-.52-.15c.19.57.71.72,1.13,1.06C45.22,30.05,45,29.82,44.94,29.67Z"/><path class="cls-215" d="M47.43,31.55A1.44,1.44,0,0,0,47,30.26,1.44,1.44,0,0,0,47.43,31.55Z"/><path class="cls-214" d="M46.16,31c-.14,0-.1.19-.24.24.33.05.62-.05.8.05C46.49,31.06,46.35,31.11,46.16,31Z"/><path class="cls-216" d="M39.72,27.11a.77.77,0,0,1,.47.48l.14-.05c.37.67.81.06,1.28.06l.28-.09c.47,0,.47,0,.34-.42.28-.09.28.38.52.15.14,0,.47,0,.38-.28s-.38-.2,0-.33a.33.33,0,0,0,.19-.38c0-.14-.33-.05-.47,0a.76.76,0,0,0-.48.46c-.1.19-.28.09-.33-.05L42,26.52a1.83,1.83,0,0,1-.45-1.9l-.05-.14a.16.16,0,0,0,.19.1l.14,0c.81.06.81.06.58-.66l-.05-.14c-.42-.33-.27-.85-.55-1.23s-.43-.34-.85-.2-.25.7-.3,1c-.09.18.24.23.57.29h0c-.29.09-.57-.29-.8-.06-.15.05-.1.19-.06.33,0,.33.05.62-.19.85,0,.14-.1.19.09.28.32.53-.24.71-.48.95s-.34.42-.25.7l.15,0c.09-.19.19-.38.38-.28s.09.28.13.42C39.77,26.78,39.82,26.92,39.72,27.11Z"/><path class="cls-217" d="M42.21,23.64c-.38.27.14.42.19.56-.33-.05-.76.09-.9-.34,0-.14-.14.05-.14.05a2.31,2.31,0,0,0,.45,2.37c.14-.05.1-.19.24-.23-.1.18-.1.18-.24.23.28.38.33.52.61,0a.93.93,0,0,1,.81-.42c0,.48-.38.28-.62.52l.57.29a3.09,3.09,0,0,0,1-1.41c-.1-.29-.66-.1-.52-.62.1-.19-.09-.29.29-.57-.47,0-.66-.57-1.17-.72C42.54,23.69,42.36,23.59,42.21,23.64Z"/><path class="cls-50" d="M45.26,26.27c.05.14.19.1.23.24s.24.24.43.33c-.33-.52-.66-1-1.17-1.19l0,.14A1.19,1.19,0,0,0,45.26,26.27Z"/><path class="cls-218" d="M48,31.69c.23.24.23.71.32,1a1.76,1.76,0,0,0-.17-1.52C48,31.36,48.09,31.65,48,31.69Z"/><path class="cls-219" d="M44.11,27.58c.29-.09.71.25.71-.23C44.45,26.69,44.35,27.35,44.11,27.58Z"/><path class="cls-220" d="M34.12,24.83c-.24.23-.24.23.09.28a.55.55,0,0,1,.47,0c.15-.05.1-.19,0-.33.19.09.28.38.43.33a.27.27,0,0,0,.42-.13c.1-.19-.13-.43.29-.57a1.45,1.45,0,0,1,1.09,0l.19.1c.19.1.18.57.61.43.14,0,0-.47.24-.7,0,0,0-.15.24-.24-.1.19-.34.42-.15.52.09.29-.05.8.47.48l.14,0c.66.1.66.1.76-.56a.14.14,0,0,0,.1-.18h0c.47,0,.29-.1.19-.38a2.92,2.92,0,0,0-.84-.67c-.19-.1-.47,0-.56-.29a.58.58,0,0,0-.48,0c-.42.14-.7-.24-1.13-.1-.14,0-.09-.29-.14-.43s-.09-.29-.42-.34c-.14.05-.1.19-.24.24s0,.33-.24.23-.33-.05-.28-.38c0-.14-.09-.29-.09-.29-.33-.05-.23-.23-.18-.57.09-.18,0-.47-.24-.23s-.47,0-.66-.11-.37-.19-.47,0-.1.19-.05.33-.19.38,0,.62c.52.14-.1.18-.05.33a.52.52,0,0,0,0,.47c-.06.33-.39.28-.62.51-.19-.09-.1-.28-.24-.24-.33-.05-.61-.43-.8-.05s.32.52.42.81c-.24.23-.71.23-.39.75.19.1-.19.38.28.38,0-.14.05-.33,0-.47s.09-.19.23-.24,0,.15.1.29.18.57.46.48.53-.33.53-.8c.24.24,0,.47,0,.61.09.29.15,0,.19.1s.1-.19.14,0C34.17,24.5,34.22,24.64,34.12,24.83Z"/><path class="cls-221" d="M33.58,21.7c-.09-.29.15-.52,0-.95.19.1.62,0,.47.48a.15.15,0,0,0,.19.1c.09-.19.19-.38.38-.28a.16.16,0,0,1-.1.19l-.14,0c0,.14,0,.33,0,.47.75-.08.13.9.74.86s.53-.32.53-.79a1.14,1.14,0,0,1,.28.38A1.34,1.34,0,0,1,36,23c.57-.18.89.35,1.46.16,0-.33-.18-.57-.42-.81,0-.14-.28-.38-.18-.57l.14,0a.15.15,0,0,0,.1-.19c-.52.33.06-1.28-.75-.39-.33-.05-.52-.14-.57-.29s-.33-.05-.09-.28-.14-.43-.42-.34l-.29.09c-.42.14-.42-.33-.61-.43a.13.13,0,0,0-.18-.09c-.34.42-.76.08-1.14-.11a.21.21,0,0,0,.09.28c.24.24.28.39.09.76s.28.38.23.71-.52-.14-.43.14.19.57.38.67C33.53,22,33.63,21.84,33.58,21.7Z"/><path class="cls-222" d="M32.82,22.73c-.1.19.13.43.23.71.19-.37.38-.75.9-.6l.14-.05a.31.31,0,0,0-.37-.19c-.19-.1-.34-.05-.62,0C32.91,22.54,32.91,22.54,32.82,22.73Z"/><path class="cls-221" d="M33.1,22.64a1.1,1.1,0,0,1,.62,0,.52.52,0,0,1,0-.47c0-.15-.19-.1-.28.09C33.11,22.17,33,22.21,33.1,22.64Z"/><path class="cls-223" d="M34.36,19.72s.19.1,0,.14c0,.48.28.38.52.15-.19-.1-.37-.19-.42-.34S34.45,19.53,34.36,19.72Z"/><path class="cls-224" d="M51.4,36.56a8.32,8.32,0,0,0-1.44-3c-.23-.24-.42-.34-.8-.06-.29.57.13.9.27,1.33s.28.38-.24.24l-.14,0c-.1.19.05.14.09.29.24.23.09.75.56.76.14,0,.47,0,.34-.42s.14-.05.24-.24.18.1.18.1c-.14.52.38.67.37,1.14l.37,1.14a.14.14,0,0,0,.19.09A1.65,1.65,0,0,0,51.4,36.56Z"/><path class="cls-225" d="M49.82,38.48c.62,0,.9.34,1.32.68l.7.71c.28-.09,0-.47.15-.52a1,1,0,0,0,0-.61s-.05-.14-.15,0c-.19.85-.71.23-.9.14-.37-.2-.75-.39-.89-.82,0-.14-.37-.19-.51-.15S50,38.1,49.82,38.48Z"/><path class="cls-195" d="M52.13,34c0,.14-.05.33,0,.47.14,0,.19.1.33,0s.28-.09.1-.18c0,0-.19-.1-.05-.15s.19.1.28-.09c-.14,0-.23-.24-.37-.19C52.18,33.63,52.28,33.91,52.13,34Z"/><path class="cls-151" d="M51.76,38.64h0a.68.68,0,0,0-.09-.76l-.19-.09Z"/><path class="cls-226" d="M65.21,45.79c.23.24.13.42-.15.52s-.52.32.09.28c.43-.14.81-.42,1.24-.55l.14,0a9,9,0,0,0,2.2-2.44c.48-.94,1.19-1.64,1.82-2.63,0-.14,0-.33-.09-.28-.49.94-1.44,1.4-2,2.2,0,.62-.25.71-.72.7C66.83,44.48,65.92,45.08,65.21,45.79Z"/><path class="cls-227" d="M68.58,43.6A26.1,26.1,0,0,0,66.39,46a9.64,9.64,0,0,0,2.28-1.68C68.63,44.21,69.15,43.89,68.58,43.6Z"/><path class="cls-228" d="M70.31,40.68l.1.29c.67-.85,1.19-1.65,1.86-2.49.1-.19-.09-.29-.23-.24a22,22,0,0,0-1.82,2.16A.2.2,0,0,1,70.31,40.68Z"/><path class="cls-229" d="M72.08,38.38c.15,0,.19.1.24.24.14,0,.24-.23.38-.28,0-.33.43-.61.62-1-.33-.05-.38.28-.52.33C72.56,37.91,72.28,38,72.08,38.38Z"/><path class="cls-230" d="M12.89,93.45A14.66,14.66,0,0,1,12,95.62a2.29,2.29,0,0,0-.44,1.09l.05.14a.29.29,0,0,0,.43-.14c.38-.75,1-1.12,1.43-1.88.67-.37.58-1.13,1.06-1.6l.1-.18c-.14-.43.28-.57.38-.76a.81.81,0,0,0,.29-1c-.13-.43-.13-.9-.27-1.33,0-.14-.09-.29-.33-.05a9.82,9.82,0,0,0-1.15,2.26,2.25,2.25,0,0,0-.39.75C12.9,93,13.22,93.5,12.89,93.45Z"/><path class="cls-205" d="M15.41,87.61a3.43,3.43,0,0,0-1.1.51l-.14,0c.19.09.24.24.47.48.19.09.14.42.47.47-.09-.28.48-.46.2-.85-.05-.14-.05-.14.09-.18C16.11,87.86,15.74,87.66,15.41,87.61Z"/><path class="cls-231" d="M15.28,91.11c-.14,0-.24.24,0,.33,0,0,0,.15.09.29-.62,0-.39.75-.81.89s-.2.38.14.43c.18.09.28-.1.23-.24,0-.47.34-.42.67-.37C15.41,92,15.56,91.49,15.28,91.11Z"/><path class="cls-232" d="M49.3,33.46a1.62,1.62,0,0,1,.81,0,2.1,2.1,0,0,0-.42-.81l-.29.1c-.09.18.19.09.19.09a.14.14,0,0,1-.09.19c-.15.05-.24-.24-.38-.19A.45.45,0,0,0,49.3,33.46Z"/><path class="cls-225" d="M48.7,37a.68.68,0,0,0,.37.67C49.27,37.24,48.79,37.24,48.7,37Z"/><path class="cls-233" d="M11.74,95.71c-.19-.09-.29.1-.43.14-.1.19.23.24-.05.33s-.52.33-.15.52a2.25,2.25,0,0,1-.76,1,.84.84,0,0,0-.58.66c0,.33-.1.66-.57.66l-.29.09c-.1.66-.76,1-.91,1.55.05.14.14.43.42.34s.19.09.24.23c.14,0,.28-.09.24-.23a1.11,1.11,0,0,1,1-.79l.14,0a8.9,8.9,0,0,0,.72-1.65c.62-.51.68-1.32.88-2.17C11.49,96.42,11.87,96.14,11.74,95.71Z"/><path class="cls-234" d="M9.85,100.57a1.82,1.82,0,0,1-.49.94,4,4,0,0,0-.43,1.08c.28.38.51.62,1.08.44l0-.14a1.16,1.16,0,0,1-.46-.48c-.05-.14.42-.14.57-.18.42-.14-.1-.29,0-.33.28.38.42-.14.57-.19.23-.23.05-.33.52-.32.14,0,0-.33.38-.28l-.05-.15c-.33,0-.33,0-.09-.28s.24.24.38.19c.05-.33.29-.56.34-.89-.33,0-.38-.2-.57-.29,0-.15.38-.28.05-.33-.14,0-.28.09-.19.37s-.43.14-.33.42c0,0-.15,0-.19-.09s-.09-.29-.24-.24c.05.14-.38.28-.14.52l.09.28C10.28,100,10.18,100.62,9.85,100.57Z"/><path class="cls-235" d="M8.56,101.45c.1-.19-.09-.28-.23-.24s-.33,0-.43-.33c-.28-.38-.46-.48-.8-.06a.28.28,0,0,1-.43.14c-.33,0-.42.14-.19.38.33.52.14.9,0,1.42,0,.33,0,.33.23.23.33.06.2-.37.48-.46l0-.15c.76.39.48-.46.72-.7C8.28,101.54,8.37,101.36,8.56,101.45Z"/><path class="cls-171" d="M6.89,103.09c0-.14-.33,0-.09-.28s.38-.28,0-.48a.77.77,0,0,0-.22-1.18.2.2,0,0,1,.28-.09c.33,0,.43-.14.34-.43.09-.18,0-.47.1-.66s.38-.28,0-.47c-.42.14-.42.14-.33.42l-.1.19c0,.47-.47-.48-.42.14,0,.14.37.19.18.57a2,2,0,0,0-.24.7c0,.34-.58.66-.39,1.23.28-.09.19-.38.43-.61a5.48,5.48,0,0,1-.15,1c0,.14,0,.33,0,.48s.14.42.33,0S6.94,103.23,6.89,103.09Z"/><path class="cls-236" d="M6.83,104.84c.29-.56-.09-.76-.51-1.09-.05-.14-.09-.29-.24-.24,0,.47-.19.85-.2,1.32-.28.09,0-.33-.23-.24-.34.42.08.76.13,1.38.33-.43.28-.57-.09-.76.43-.14.85-.28,1-.8C6.69,104.41,6.5,104.79,6.83,104.84Z"/><path class="cls-234" d="M7.44,104.8a2.76,2.76,0,0,0,1.1-1.45c.05-.34.34-.43.57-.19,0-.14-.14-.43-.18-.57-.33,0-.38.28-.48.47a11.39,11.39,0,0,1-1,1.74C7.3,104.85,7.34,105,7.44,104.8Z"/><path class="cls-235" d="M6.08,103.51c0,.14.19.1.24.24.09-.19.33,0,.47,0s-.09-.28-.28-.38-.14,0-.18-.57C6.09,103,6.18,103.32,6.08,103.51Z"/><path class="cls-236" d="M6.83,104.84c-.1.19-.2.38-.34.42a1.74,1.74,0,0,0,.77-1C7.12,104.28,7.11,104.75,6.83,104.84Z"/><path class="cls-237" d="M7.44,104.8h0a7,7,0,0,0-.86.75l0,.14A1.49,1.49,0,0,0,7.44,104.8Z"/><path class="cls-92" d="M67.6,42.5c-.47,0-.62.51-.86.75.05.61.05.61-.67,1.32l-.1.18a9.72,9.72,0,0,0,2.67-2.43c-.42.14-.71.7-1.19.7C67.36,42.73,67.65,42.64,67.6,42.5Z"/><path class="cls-92" d="M69,40c-.66-.11-.2.37-.29.56A.4.4,0,0,0,69,40Z"/><path class="cls-92" d="M68.08,41.56l-.18-.1c-.24.24-.15.52-.2.85C68,42.22,68,41.89,68.08,41.56Z"/><path class="cls-92" d="M68.61,40.76c-.28.09-.33.42-.43.61C68.46,41.28,68.7,41,68.61,40.76Z"/><path class="cls-238" d="M45.85,18.85c.1-.19.15-.52.25-.71a.15.15,0,0,0,.09-.19c-.56-.76.2-.85.49-1.41,0,0,.28-.09.24-.24-.52-.62.39-1.22,0-1.89.14-.05.05-.33.33-.42.47,0-.1.19.09.28s.33.05.38.2c.14-.05.14-.05.09-.19s.11-.66-.37-.67l0-.14c-.23-.71-.71-.72-1.32-.68a3.75,3.75,0,0,0-1.71.55c-.14.05-.47,0-.71.23a1.19,1.19,0,0,0,.09.76,15.36,15.36,0,0,1,1,5.17A2.37,2.37,0,0,0,45,21a4.9,4.9,0,0,1-.25,1.66,5.38,5.38,0,0,0,1.42-.93,9.82,9.82,0,0,1,2.71-1.35C50,20,51.23,19.47,52.51,20c.13.42.46.47.89.34.14-.05.1-.19-.09-.29s-.09-.28.19-.38a.33.33,0,0,0-.19.38c.37.19.8.06,1.13.11s.38-.28.15-.52a1.2,1.2,0,0,1,.3-1.51c.14-.05.09-.19,0-.33s0-.48-.33,0a5,5,0,0,1-2.09.35l-.85.28c-.14,0-.52-.15-.57.18-.29.57-.52.33-.9.13-.56-.29-1.09,0-1.51.18s-.43.13-.62,0a.72.72,0,0,0-1,.32c-.34.89-1,.93-1.86,1.07C45.61,19.55,45.66,19.22,45.85,18.85Z"/><path class="cls-239" d="M52.67,18.07a.54.54,0,0,0,.8.05l.28-.09c.57.29.81.06,1.14-.37-.14.05-.19-.09-.33-.05a.86.86,0,0,0-1.27-.06c-.15.05-.1.19-.24.24S52.57,17.78,52.67,18.07Z"/><path class="cls-240" d="M55.08,17.76,55,18c.1.28.24.24.38.19s.48-.47.57-.65.1-.19,0-.33C55.47,17,55.32,17.53,55.08,17.76Z"/><path class="cls-241" d="M11.58,96.71a1.51,1.51,0,0,0-.33.89,6.3,6.3,0,0,0-.54,1.27c.19.1.14.43.33.53-.09-.29-.14-.43.33-.43.19.1.34-.42.43-.61s.67-.37.86-.74a18.71,18.71,0,0,0,1-2.22c-.14-.43-.38-.19-.48,0s-.33.42-.38.75a.93.93,0,0,1-1.05.65C11.87,96.61,11.73,96.66,11.58,96.71Z"/><path class="cls-231" d="M12,96.57c.14,0,.42.33.38.19,0-.47.85-.27.67-.84-.05-.15-.05-.15.09-.19s.29-.09.2-.38-.1-.28.38-.28c.24-.71.67-1.32.92-2l-.05-.15a.83.83,0,0,0-.57.66c.09.29,0,.33-.2.38a.93.93,0,0,0-.62,1l-.1.19A6.77,6.77,0,0,0,12,96.57Z"/><path class="cls-242" d="M39.06,7.51c.1-.66-.51-1.09.16-1.46-.38-.2-.66-.1-1-.3s-.71.23-1,.47.09.28.18.57c.24-.24.71.24.57-.19.05-.33.15-.52.29-.56s.24.24.24.24c-.1.19-.15.52-.29.56l-.29.09C38.26,7.46,38.74,7,39.06,7.51Z"/><path class="cls-243" d="M39.91,8.18a.21.21,0,0,0-.1-.28c-.18-.1-.47.47-.66-.1,0-.14-.14,0-.14,0-.1.19-.1.19.09.29s.33,0,.52.15S39.81,8.37,39.91,8.18Z"/><path class="cls-8" d="M39.91,8.18a1.1,1.1,0,0,1-.62.05c-.1.18.23.23.14.42s.19.1.23.24c.43-.14.53-.32.25-.71Z"/><path class="cls-244" d="M67.68,43.73h0c.43.34.62,0,.86-.27s.19-.38,0-.48A5.1,5.1,0,0,1,67.68,43.73Z"/><path class="cls-243" d="M40.05,8.14c-.1.19,0,.47-.29.56A10.4,10.4,0,0,1,42.05,11c.29-.09.38.19.71.25.1-.19-.51-.62.15-.52.14-.52-.61-.44-.56-.77-.43.14-.1-.28-.28-.38-.43.14-.81,0-.85-.67-.14.05-.14.05-.24.24a.27.27,0,0,1-.42.13.52.52,0,0,1-.28-.38C40.47,8.47,40.42,8.33,40.05,8.14Z"/><path class="cls-245" d="M39,24.36c-.14,0-.61,0-.19.37.05.15.23.24.09.29l-.28.09c-.19-.57-.52-.15-.66-.1-.19-.1.19-.38-.14-.43s-.05-.14,0-.33.38.19.24-.23-.24-.24-.57-.29a2.13,2.13,0,0,1,0,.94c0-.47-.46-.47-.7-.71,0-.15-.28.09-.47,0-.1.19-.43.14-.57.19s-.61,0-.29.56a.5.5,0,0,0-.05.33.15.15,0,0,1-.19-.1c-.19-.09-.28-.38-.47-.47-.38.28.14.42,0,.61s0,.14.09.29-.14,0-.14,0l-.57.19c.66.1,1.27.06,1.64.72-.47.47-.43.61.32,1l.19.1c.71-.23,1.15-.84,1.81-1.21a5.33,5.33,0,0,1,1.33-.75A.77.77,0,0,0,40,25c0-.14.1-.18.05-.33-.23-.24-.23-.71-.85-.67.1.29.1.29,0,.33s-.23-.24-.33,0,.29-.09.19.1.24.24.42.33C39.27,24.74,39,24.5,39,24.36Z"/><path class="cls-245" d="M34.12,24.83c.19.09.33.05.28-.09a.53.53,0,0,0-.28-.39l-.09.19S34.07,24.68,34.12,24.83Z"/><path class="cls-246" d="M36.38,16.24c-.57.18-.15.52-.1.66.33.05.37.19.32.52s-.43.14-.57.19c.57.29.18,1,.6,1.38,0,.14.1.28.24.24s.14.42.23.71a1.2,1.2,0,0,0,.84,1.14l.14,0a1.37,1.37,0,0,0-.18-1.52c-.18-.1-.09-.28-.13-.43A1.65,1.65,0,0,0,37.4,18c-.42-.33-.37-.66,0-.94C37.13,16.63,36.85,16.24,36.38,16.24Z"/><path class="cls-246" d="M39.18,24c.48,0,.38.67.85.67a1.07,1.07,0,0,0,0-.8c-.47,0-.28-.38-.51-.62s-.14-.43-.33-.53c-.66-.1-.7-.71-.69-1.19s-.33-.52-.71-.24c-.19.38-.57.66.23.71-.38.28-.61,0-.8-.05-.1.19.23.24.13.42-.19.38.14.43.38.67.28-.09.28.38.46.48A1.77,1.77,0,0,1,39.18,24Z"/><path class="cls-247" d="M36.38,16.24c.37.19.65.57,1,.77a8.71,8.71,0,0,0,1.35,1.76c.33.05.43-.14.34-.42-.52-.62-.65-1.52-1.54-1.86.14,0,.18.09.33.05-.28-.38-.9-.34-1.18-.72l-.14,0C36.47,16.05,36.52,16.19,36.38,16.24Z"/><path class="cls-223" d="M35.35,19.87c.19.1.23.24.38.2a2.53,2.53,0,0,1-.34.42c.33.05.51.62,1,.29A1.45,1.45,0,0,1,36,19.5l-.09-.28c-.47,0-.14-.43-.32-.53C34.79,19.11,35.07,19.49,35.35,19.87Z"/><path class="cls-248" d="M38,22.79c-.09-.29-.42-.34-.51-.62a.54.54,0,0,1-.51-.62c-.43.13,0,.47,0,.47a2.71,2.71,0,0,0,.61.9c.14,0,.09-.18.28-.09C38,23.12,37.92,23,38,22.79Z"/><path class="cls-78" d="M35.22,18l.19.1c.29-.09.1-.19.05-.33s.1-.66-.23-.71c-.14,0-.14,0-.09.19C35.37,17.51,35.13,17.74,35.22,18Z"/><path class="cls-171" d="M7.64,98.6c.24-.23.15-.51.29-.56.38-.28.25-.71.44-1.08s.62-1,.72-1.65A15.09,15.09,0,0,0,8,97.24c-.1.18-.29.56-.39.75s-.29.56-.34.89-.19.38.14.43C7.83,99.17,7.55,98.79,7.64,98.6Z"/><path class="cls-249" d="M7.77,95.58c.09.28.18.57.47.47s.33-.42.43-.61a.15.15,0,0,0-.19-.09s-.19-.1-.14,0C8.29,95.72,8.05,95.49,7.77,95.58Z"/><path class="cls-216" d="M38.73,27.43a1.77,1.77,0,0,0,.8-.42C39.44,26.73,39,26.87,38.73,27.43Z"/><path class="cls-181" d="M54.16,5.64c.33.05.24-.24.24-.24a.9.9,0,0,0,0-.61C54.26,5,53.88,5.26,54.16,5.64Z"/><path class="cls-180" d="M47.74,9.59l.14,0a.92.92,0,0,0,0-.62L47.7,9c.24-.24,0-.33-.19-.57-.09.18-.38.28-.43.61s-.57.18-.62.51c0-.33.34-.42.2-.85-.1.19-.34.42-.47,0a3.81,3.81,0,0,1-1.06,1.59c-.14.05-.19.38.14.43l.28-.09A2.15,2.15,0,0,0,47,9.68C47.22,9.44,47.45,9.68,47.74,9.59Z"/><path class="cls-250" d="M47.84,8.93a.87.87,0,0,0,0,.62L48,9.5c.34-.42.81-.42,1.19-.7a.15.15,0,0,0,.1-.19c-.05-.14.14-.51-.19-.57L49,8.09c.13.9-.43.61-.9.61C48.07,9.17,47.88,9.07,47.84,8.93Z"/><path class="cls-251" d="M66.24,46.08c-.51-.15-.85.28-1.23.56-.1.18-.52.32-.29.56s.24-.23.52-.32l.29-.1C65.72,46.41,66.24,46.55,66.24,46.08Z"/><path class="cls-252" d="M70.66,43.71c.1-.18,0-.14-.19-.09l-.42.14c0,.14-.1.18.09.28S70.42,44,70.66,43.71Z"/><path class="cls-253" d="M7.64,98.6c-.28.1,0,.48-.24.71l-.1.19c.24.24-.24.23-.14.52s0,.47-.25.71c.24.23.14.42-.14.51.09.29.32.53.47,0s.38-.28.61,0a3.35,3.35,0,0,0,.92-1.55l.14,0c.66.1.62-.51.81-.89.1-.19.1-.66.48-.47l0,.14c.15-.51.72-.7.73-1.17-.39.28-.57.18-.71-.24,0-.15-.09-.29-.24-.24s-.28.09-.09.18c.51.63-.25.71-.48,1s0,.47-.38.28l-.43.13c-.1.19.19.1.23.24a.55.55,0,0,1-.47,0c-.1.19.14.42.18.57C8.35,98.85,8,99.13,7.64,98.6Z"/><path class="cls-254" d="M65.92,98.7l-.56-.29a2.08,2.08,0,0,0,.56.76C66,99,65.83,98.89,65.92,98.7Z"/><path class="cls-239" d="M55.89,17.34c-.29.1-.29.57-.58.66s-.14.05-.33-.05c-.76.56-.81.89-.39,1.7,0,.14.09.28-.05.33s-.19-.1-.33-.05a1.92,1.92,0,0,0-.9.13c0,.14,0,.14.09.29.71.24,1.42,0,2.17.4a3,3,0,0,0,1.56,0c.29-.1.71-.23.29-.57-.38.28-.76.56-1.18.23-.19-.1-.38-.2-.48,0-.42.14-.52-.15-.7-.24-.09-.29.24-.24.33-.43.14,0,.15-.51.24-.7s.11-.66.53-.8.05-.33-.14-.43S56.08,17.44,55.89,17.34Z"/><path class="cls-255" d="M43.45,17.73c0-.14-.09-.28,0-.33a2.93,2.93,0,0,0-.17-2,8,8,0,0,1-1.8.74.56.56,0,0,0-.39.75A.85.85,0,0,1,40.57,18c-.43.14-.29.57-.53.8,0,.48.42.81.7,1.19a12.68,12.68,0,0,1,1.43,3,.61.61,0,0,0,.47.48c.19.09.24-.24.38-.28a12.7,12.7,0,0,0,.76-5A1.11,1.11,0,0,1,43.45,17.73Z"/><path class="cls-256" d="M43.14,15.32c.38.66.13,1.37.32,1.94.28-.09.24-.23.29-.56-.09-.76-.32-1.47-.41-2.23,0-.15,0-.15,0-.33a6.5,6.5,0,0,1,.74,2.28,19.51,19.51,0,0,1,.3,2.89,4.58,4.58,0,0,0,0,1.56c.14.42.38.19.57.29a14.4,14.4,0,0,0-1.16-7c0-.14-.1-.28-.14-.43s0-.14-.09-.28a.58.58,0,0,0-.28-.38c-.15,0,0,.47-.29.09,0-.14-.19-.1-.23-.24a.55.55,0,0,0,0,.47A2.23,2.23,0,0,1,43,14.42C42.86,14.94,43,15.22,43.14,15.32Z"/><path class="cls-257" d="M43.45,17.73a25,25,0,0,1-.36,3.74A4.22,4.22,0,0,0,42.64,23a.57.57,0,0,1-.47.47l0,.15c.19.09.38.19.48,0a5.81,5.81,0,0,0,.92-2.5A10.5,10.5,0,0,0,43.69,18C43.64,17.83,43.74,17.64,43.45,17.73Z"/><path class="cls-14" d="M45.26,26.27c-.09-.28-.47-.48-.56-.76C44.7,26,44.93,26.22,45.26,26.27Z"/><path class="cls-64" d="M47.74,9.59c-.33-.52-.71-.24-1.09,0-.19.37-.38.75-.86.75-.14,0-.24.23-.24.23.19.1-.09.19,0,.33s.33.05.29-.09c.19-.38.75-.09.76-.56.33.05-.15.52.42.34-.23-.24.05-.34.19-.38C47.45,10.16,47.55,10,47.74,9.59Z"/><path class="cls-185" d="M48,16.6c.38.19.48-.47.81-.42l-.09-.28c-.05-.15-.14,0-.28.09S48.05,16.41,48,16.6Z"/><path class="cls-258" d="M49.21,8.8h0c.38.2.34-.42.67-.37.23.24-.1.19-.2.38.29-.09.62,0,.43-.61,0-.15.53-.33.11-.66a.33.33,0,0,0-.38-.2c-.28.09-.48.47-.9.14,0-.15,0,.33,0,.33C49.5,8.24,49.17,8.66,49.21,8.8Z"/><path class="cls-4" d="M51,9.34c.48,0,.2-.37.34-.42C51,8.87,51.05,9.15,51,9.34Z"/><path class="cls-259" d="M45.85,18.85c-.38.28-.53.8-.86,1.22a2.7,2.7,0,0,0,1.47-.32c.28-.09.38-.28.62-.51s.05-.81.52-.33c.19.1,0-.33.19-.37.14.42.43.33.85.19s1.19-.69,1.75.07c.23.24.52.15.47,0,0-.62.53-.33.81-.42,0-.33.15-.52.2-.85l0-.14c-.33.42-.94,0-1.37.12s-.89-.34-1.23-.39-.47,0-.61,0c-.24.24-.29.57-.57.66s-.29.56-.62,0c0-.14-.57.18-.66.37a3.55,3.55,0,0,1-.67.85c-.24.23.28.38,0,.61C46.08,19.56,46,19.27,45.85,18.85Z"/><path class="cls-26" d="M52.15,17.45a.7.7,0,0,0-.2.85c.34.05.43-.14.72-.23a.57.57,0,0,0,.38-.28A1.51,1.51,0,0,1,52.15,17.45Z"/><path class="cls-260" d="M42.21,23.64c.29-.1.57-.19.48-.47-.1.19-.43.61-.47,0a13.26,13.26,0,0,0-2.32-4.28c-.33-.53-.51-1.09-1.08-1.38-.33-.06-.61-.44-1-.63-.19-.1-.33-.05-.52-.15.51.62.88,1.29,1.35,1.77.19.09.28.38,0,.47-.1.19-.1.19-.05.33a23.44,23.44,0,0,1,1.56,4.37c.28.38.76-.09,1,.63,0-.48,0-.48-.37-.67a.28.28,0,0,1-.14-.43c.09-.19.19.1.33,0s-.33-.52-.09-.75c.14,0,.38-.28.43-.14s.32.52.37.66S41.69,23.49,42.21,23.64Z"/><path class="cls-261" d="M38.78,17.35c.42.34.6.91,1.07,1.39.14,0,.47,0,.34-.43,0-.14.09-.18.23-.23a1,1,0,0,0,.68-1.32c-.05-.14.43-.61.62-.51.37.19.71-.23,1.18-.23s0-.47.34-.42c0-.33-.14-.43-.23-.71-.14-.43,0-1-.56-1.24-.33-.05-.52-.14-.33.43.13.42.09.28-.38.28-.15,0-.33-.06-.48,0,.1.29.28.86-.48.94-.28.09.14.43-.1.66s-.23-.24-.23-.24a.15.15,0,0,0-.1.19c.28.38-.24.71-.29,1s-.29.57.32.52C39.77,17.51,39.2,17.22,38.78,17.35Z"/><path class="cls-262" d="M42.41,13.51c.42.34.13.9.55,1.24.29-.57-.18-1.05-.36-1.62-.05-.14-.24-.23-.33-.52,0-.14-.13-.43-.32-.52s-.19-.1-.33-.05A6.74,6.74,0,0,1,42.41,13.51Z"/><path class="cls-192" d="M42,12.09c.09.28.13.42.47.47-.28-.38-.14-.9-.66-1C41.81,11.66,42.33,11.81,42,12.09Z"/><path class="cls-201" d="M57.2,23.37l.09.28a.52.52,0,0,0,.38-.28l0-.14Z"/><path class="cls-10" d="M65,24.3a1.07,1.07,0,0,0-.66-.1l-.15.05c-.09.18-.47,0-.38.28,0,.14.52.14.66.1S65,24.63,65,24.3Z"/><path class="cls-34" d="M58.14,24.32c.09-.18.28-.09.38-.28a1.62,1.62,0,0,0-.81-.05C57.81,24.27,58.09,24.18,58.14,24.32Z"/><path class="cls-253" d="M9.26,97.77a2.24,2.24,0,0,0,.1-1.14C9.17,97,8.65,97.34,9.26,97.77Z"/><path class="cls-241" d="M11.74,95.71c-.05.33-.29.57-.16,1A3.83,3.83,0,0,0,12,95.62.21.21,0,0,0,11.74,95.71Z"/><path class="cls-263" d="M40.28,23.47a5.5,5.5,0,0,0-.69-2.61,11.53,11.53,0,0,0-1-2,11.69,11.69,0,0,0-1.35-1.77c-.15.05-.33-.05-.43.14s-.15.52.09.76a1.14,1.14,0,0,1,.36,1.14.46.46,0,0,0,.19.57c.56.29.37.66.22,1.18,0,.15,0,.15-.05.33.19.1.29-.09.47,0-.09.19.18,1.51.51,1.57.8.05.7.71.89,1.28,0,.14.09.29.23.24s.1-.19.24-.23Z"/><path class="cls-216" d="M41.71,26.47c.33.05.38-.28.76-.56C42.05,26.05,41.72,26,41.71,26.47Z"/><path class="cls-15" d="M33.39,22.08l.28-.1a.86.86,0,0,0,.53-.32c-.19-.1-.33-.05-.62,0C33.49,21.89,33.34,21.93,33.39,22.08Z"/><path class="cls-221" d="M38,22.79l-.09.18c0,.48.37.2.56.29-.19-.09-.09-.28-.13-.42C38.11,22.6,38,22.64,38,22.79Z"/><path class="cls-235" d="M7,100.54c.24-.24.71-.23.24-.71C6.83,100,7.11,100.35,7,100.54Z"/><path class="cls-239" d="M53.31,20.06c-.05-.14.09-.19,0,0,0-.33.43-.14.33-.42s-.18-.1-.33-.05S52.93,19.87,53.31,20.06Z"/><path class="cls-264" d="M39,24.36l0,.14a.46.46,0,0,0,.56.29c.14-.05.2-.38-.09-.28a.48.48,0,0,1-.33-.06A.15.15,0,0,1,39,24.36Z"/><path class="cls-180" d="M49.21,8.8c.62-.51.24-.7-.23-.71C49.22,8.33,49.17,8.66,49.21,8.8Z"/></g></svg>