<?xml version="1.0" encoding="utf-8"?>
<!-- Generator: Adobe Illustrator 25.3.1, SVG Export Plug-In . SVG Version: 6.00 Build 0)  -->
<svg version="1.1" id="Capa_1" xmlns="http://www.w3.org/2000/svg" xmlns:xlink="http://www.w3.org/1999/xlink" x="0px" y="0px"
	 viewBox="0 0 512 512" style="enable-background:new 0 0 512 512;" xml:space="preserve">
<style type="text/css">
	.st0{fill:#FFFFFF;}
</style>
<g>
	<g>
		<path class="st0" d="M466.3,457.1c11.5,0,21.5-3.8,30-11.3L351.2,300.8c-3.5,2.5-6.9,4.9-10,7.2c-10.9,8-19.7,14.2-26.4,18.7
			c-6.8,4.5-15.8,9.1-27,13.7c-11.2,4.7-21.7,7-31.4,7H256h-0.3c-9.7,0-20.2-2.3-31.4-7c-11.2-4.7-20.2-9.2-27-13.7
			c-6.8-4.5-15.6-10.7-26.4-18.7c-3-2.2-6.4-4.7-10-7.3L15.8,445.8c8.5,7.5,18.5,11.3,30,11.3H466.3z"/>
		<path class="st0" d="M28.9,209.4C18,202.2,8.4,193.9,0,184.6v220.7l127.9-127.9C102.3,259.6,69.3,236.9,28.9,209.4z"/>
		<path class="st0" d="M483.4,209.4c-38.9,26.3-72,49-99.2,68L512,405.3V184.6C503.8,193.7,494.3,202,483.4,209.4z"/>
		<path class="st0" d="M466.3,54.9H45.7c-14.7,0-26,5-33.9,14.9C4,79.6,0,92,0,106.9c0,12,5.2,25,15.7,39c10.5,14,21.6,25,33.4,33
			c6.5,4.6,26,18.1,58.6,40.7c17.6,12.2,32.9,22.8,46,32c11.2,7.8,20.9,14.6,28.8,20.2c0.9,0.6,2.4,1.7,4.3,3
			c2.1,1.5,4.7,3.4,7.9,5.7c6.2,4.5,11.3,8.1,15.4,10.9c4.1,2.8,9,5.9,14.9,9.3c5.8,3.4,11.3,6,16.4,7.7c5.1,1.7,9.9,2.6,14.3,2.6
			h0.3h0.3c4.4,0,9.1-0.9,14.3-2.6c5.1-1.7,10.6-4.3,16.4-7.7c5.8-3.4,10.8-6.5,14.9-9.3c4.1-2.8,9.2-6.4,15.4-10.9
			c3.2-2.3,5.8-4.2,7.9-5.7c1.9-1.4,3.4-2.4,4.3-3c6.2-4.3,15.9-11.1,28.9-20.1c23.7-16.5,58.6-40.7,104.8-72.8
			c13.9-9.7,25.5-21.4,34.9-35.1c9.3-13.7,14-28.1,14-43.1c0-12.6-4.5-23.3-13.6-32.3C489.4,59.3,478.7,54.9,466.3,54.9z"/>
	</g>
</g>
</svg>
