<?xml version="1.0" encoding="utf-8"?>
<!-- Generator: Adobe Illustrator 25.3.1, SVG Export Plug-In . SVG Version: 6.00 Build 0)  -->
<svg version="1.1" id="Layer_1" xmlns="http://www.w3.org/2000/svg" xmlns:xlink="http://www.w3.org/1999/xlink" x="0px" y="0px"
	 viewBox="0 0 512 512" style="enable-background:new 0 0 512 512;" xml:space="preserve">
<style type="text/css">
	.st0{fill:#FFFFFF;}
</style>
<g id="_x30_1._Facebook">
	<path id="Icon_11_" class="st0" d="M194.8,289c-1.9,0-44.2,0-63.4,0c-10.3,0-13.5-3.8-13.5-13.5c0-25.6,0-51.9,0-77.5
		c0-10.3,3.8-13.5,13.5-13.5h63.4c0-1.9,0-39.1,0-56.4c0-25.6,4.5-50,17.3-72.4c13.5-23.1,32.7-38.4,57-47.4c16-5.8,32-8.3,49.3-8.3
		h62.8c9,0,12.8,3.8,12.8,12.8v73.1c0,9-3.8,12.8-12.8,12.8c-17.3,0-34.6,0-51.9,0.6c-17.3,0-26.3,8.3-26.3,26.3
		c-0.6,19.2,0,37.8,0,57.7h74.3c10.3,0,14.1,3.8,14.1,14.1v77.5c0,10.3-3.2,13.5-14.1,13.5c-23.1,0-72.4,0-74.3,0v208.9
		c0,10.9-3.2,14.7-14.7,14.7c-26.9,0-53.2,0-80.1,0c-9.6,0-13.5-3.8-13.5-13.5C194.8,431.3,194.8,290.9,194.8,289L194.8,289z"/>
</g>
</svg>
