<svg width="12" height="12" viewBox="0 0 12 12" fill="none" xmlns="http://www.w3.org/2000/svg">
<g clip-path="url(#clip0_857_958)">
<path d="M4.56788 6.77347C4.52282 6.77347 3.53158 6.77347 3.08102 6.77347C2.84072 6.77347 2.76562 6.68335 2.76562 6.45807C2.76562 5.85732 2.76562 5.24155 2.76562 4.6408C2.76562 4.4005 2.85574 4.32541 3.08102 4.32541H4.56788C4.56788 4.28035 4.56788 3.40926 4.56788 3.00375C4.56788 2.403 4.67301 1.83229 4.97338 1.30663C5.28878 0.765957 5.73934 0.405507 6.31006 0.195244C6.68552 0.060075 7.06099 0 7.4665 0H8.93834C9.1486 0 9.23872 0.0901126 9.23872 0.300375V2.01252C9.23872 2.22278 9.1486 2.31289 8.93834 2.31289C8.53283 2.31289 8.12733 2.31289 7.72182 2.32791C7.31631 2.32791 7.10605 2.52315 7.10605 2.94368C7.09103 3.39424 7.10605 3.82979 7.10605 4.29537H8.84823C9.08853 4.29537 9.17864 4.38548 9.17864 4.62578V6.44305C9.17864 6.68335 9.10355 6.75845 8.84823 6.75845C8.30755 6.75845 7.15111 6.75845 7.10605 6.75845V11.6546C7.10605 11.9099 7.03096 12 6.76062 12C6.12983 12 5.51406 12 4.88327 12C4.65799 12 4.56788 11.9099 4.56788 11.6846C4.56788 10.1076 4.56788 6.81852 4.56788 6.77347Z" fill="white"/>
</g>
<defs>
<clipPath id="clip0_857_958">
<rect width="12" height="12" fill="white"/>
</clipPath>
</defs>
</svg>
