<?xml version="1.0" encoding="utf-8"?>
<!-- Generator: Adobe Illustrator 25.3.1, SVG Export Plug-In . SVG Version: 6.00 Build 0)  -->
<svg version="1.1" id="Layer_3" xmlns="http://www.w3.org/2000/svg" xmlns:xlink="http://www.w3.org/1999/xlink" x="0px" y="0px"
	 viewBox="0 0 79.7 73.1" style="enable-background:new 0 0 79.7 73.1;" xml:space="preserve">
<style type="text/css">
	.st0{fill:url(#SVGID_1_);}
	.st1{fill:url(#SVGID_2_);}
</style>
<g>
	
		<linearGradient id="SVGID_1_" gradientUnits="userSpaceOnUse" x1="27.5625" y1="42.2448" x2="77.624" y2="42.2448" gradientTransform="matrix(1 0 0 -1 0 73.8898)">
		<stop  offset="0" style="stop-color:#FFCC03"/>
		<stop  offset="1" style="stop-color:#FF942E"/>
	</linearGradient>
	<path class="st0" d="M69.5,19c1.5-4.5,3.4-4.6,8.1-5v-2H60.4v1.9c1.8-0.1,3.6,0.2,5.3,0.9c-3.9,10.7-4.2,17.3-3.6,28.7l-27-23.5
		c-3-2.9-3.4-7.6-0.4-10.5c2.9-2.9,7.7-2.9,10.6,0c2.5,2.6,3.8,4.8,5.4,10.2h1.8v-4.8l0,0c0,0,0,0,0-0.1V2.2h-3.3l-1.4,2.7
		c-5-3.9-12.1-3.5-16.6,1c-4.9,4.9-4.7,13.7,0.2,18.6l35.8,36.7h6.7c-2.1-3.2-3.8-6.7-4.9-10.4C66.1,40.3,66.4,29.3,69.5,19z"/>
	
		<linearGradient id="SVGID_2_" gradientUnits="userSpaceOnUse" x1="2.124" y1="32.3958" x2="52.7822" y2="32.3958" gradientTransform="matrix(1 0 0 -1 0 73.8898)">
		<stop  offset="0" style="stop-color:#FFCC03"/>
		<stop  offset="1" style="stop-color:#FF942E"/>
	</linearGradient>
	<path class="st1" d="M12.6,12H5.9c2.1,3.2,3.8,6.7,4.9,10.4c2.8,10.4,2.5,21.4-0.6,31.7c-1.5,4.5-3.4,4.6-8.1,5v2h17.3v-1.9
		c-1.8,0.1-3.6-0.2-5.3-0.8c3.9-10.6,4.2-17.2,3.6-28.7l25.8,22.3c3.8,3.8,4.5,8.8,1.6,11.7c-2.9,2.9-7.7,2.9-10.6,0
		C32,61.2,30.6,59,29,53.6h-1.8v4.8l0,0V71h3.4l1.4-2.7c5,3.9,12.1,3.5,16.6-1c4.9-4.9,6.3-12.1-0.2-18.6L12.6,12z"/>
</g>
</svg>
