<?xml version="1.0" encoding="utf-8"?>
<!-- Generator: Adobe Illustrator 25.3.1, SVG Export Plug-In . SVG Version: 6.00 Build 0)  -->
<svg version="1.1" id="Layer_1" xmlns="http://www.w3.org/2000/svg" xmlns:xlink="http://www.w3.org/1999/xlink" x="0px" y="0px"
	 viewBox="0 0 512 512" style="enable-background:new 0 0 512 512;" xml:space="preserve">
<style type="text/css">
	.st0{fill:#2D67F1;}
</style>
<circle class="st0" cx="256" cy="256" r="53.8"/>
<path class="st0" d="M256,0C114.6,0,0,114.6,0,256s114.6,256,256,256s256-114.6,256-256S397.4,0,256,0z M414.2,321.1
	c-1.2,24.3-8.1,48.3-25.8,65.9c-17.9,17.7-42,24.3-66.6,25.5H190.2c-24.6-1.2-48.7-7.8-66.6-25.5c-17.7-17.5-24.6-41.5-25.8-65.9
	V190.9c1.2-24.3,8.1-48.3,25.8-65.9c17.9-17.7,42-24.3,66.6-25.5h131.5c24.6,1.2,48.7,7.8,66.6,25.5c17.7,17.5,24.6,41.5,25.8,65.9
	L414.2,321.1z"/>
<path class="st0" d="M320.1,129.2c-32-0.9-96.2-0.9-128.2,0c-16.7,0.5-35.6,4.6-47.5,17.3c-12.3,13.2-17,29.1-17.5,46.9
	c-0.8,31.3,0,125.2,0,125.2c0.5,17.8,5.1,33.8,17.5,46.9c11.9,12.7,30.8,16.8,47.5,17.3c32,0.9,96.2,0.9,128.2,0
	c16.7-0.5,35.6-4.6,47.5-17.3c12.3-13.2,17-29.1,17.5-46.9V193.4c-0.5-17.8-5.1-33.8-17.5-46.9C355.7,133.8,336.8,129.6,320.1,129.2
	L320.1,129.2z M256,339.3c-46,0-83.3-37.3-83.3-83.3s37.3-83.3,83.3-83.3s83.3,37.3,83.3,83.3l0,0C339.3,302,302,339.3,256,339.3z
	 M339.7,189.9c-9.2,0-16.7-7.5-16.7-16.7c0-9.2,7.5-16.7,16.7-16.7c9.2,0,16.7,7.5,16.7,16.7C356.4,182.4,348.9,189.9,339.7,189.9
	C339.7,189.9,339.7,189.9,339.7,189.9z"/>
</svg>
