<svg id="Layer_3" data-name="Layer 3" xmlns="http://www.w3.org/2000/svg" xmlns:xlink="http://www.w3.org/1999/xlink" viewBox="0 0 349.35 73.13"><defs><style>.cls-1{fill:#fff;}.cls-2{fill:url(#linear-gradient);}.cls-3{fill:url(#linear-gradient-2);}</style><linearGradient id="linear-gradient" x1="27.48" y1="31.68" x2="77.5" y2="31.68" gradientUnits="userSpaceOnUse"><stop offset="0" stop-color="#ffcc03"/><stop offset="1" stop-color="#ff942e"/></linearGradient><linearGradient id="linear-gradient-2" x1="2.02" y1="41.53" x2="52.66" y2="41.53" xlink:href="#linear-gradient"/></defs><path class="cls-1" d="M115.09,21.49V50.62H112a2.62,2.62,0,0,1-1.18-.23,2.82,2.82,0,0,1-1-.79L95.34,31.13c0,.47.07.93.09,1.39s0,.87,0,1.26V50.62H90.14V21.49h3.17a4.11,4.11,0,0,1,.65,0,1.12,1.12,0,0,1,.49.14,1.91,1.91,0,0,1,.43.29,4.39,4.39,0,0,1,.44.48L109.93,41c-.05-.51-.09-1-.12-1.48s0-.92,0-1.35V21.49Z"/><path class="cls-1" d="M139.2,29.93,128,56.18a2.13,2.13,0,0,1-.63.85,2,2,0,0,1-1.18.28h-4.11L126,49l-8.31-19h4.86a1.55,1.55,0,0,1,1,.3,1.79,1.79,0,0,1,.53.7l3.93,9.9q.23.59.39,1.17c.12.4.23.79.33,1.18.24-.79.52-1.58.83-2.37l3.65-9.88a1.5,1.5,0,0,1,.58-.72,1.61,1.61,0,0,1,.92-.28Z"/><path class="cls-1" d="M147.73,24a3,3,0,0,1-.28,1.31,3.64,3.64,0,0,1-.75,1.06,3.58,3.58,0,0,1-1.1.73,3.66,3.66,0,0,1-1.36.26,3.27,3.27,0,0,1-1.29-.26,3.49,3.49,0,0,1-1.08-.73,3.4,3.4,0,0,1-.73-1.06,3.17,3.17,0,0,1-.27-1.31,3.23,3.23,0,0,1,.27-1.31,3.49,3.49,0,0,1,.73-1.08,3.64,3.64,0,0,1,1.08-.72,3.27,3.27,0,0,1,1.29-.26,3.66,3.66,0,0,1,1.36.26,3.44,3.44,0,0,1,1.85,1.8A3.08,3.08,0,0,1,147.73,24Zm-.66,5.89V50.62h-5.54V29.93Z"/><path class="cls-1" d="M159,50.94a6.83,6.83,0,0,1-2.48-.41,4.8,4.8,0,0,1-1.83-1.17,5,5,0,0,1-1.13-1.85,7.46,7.46,0,0,1-.38-2.45V33.9h-1.94a1,1,0,0,1-1.07-1.12V30.61l3.31-.6,1.13-5.36a1.11,1.11,0,0,1,1.22-.91h2.89v6.31H164V33.9h-5.34V44.7a2.08,2.08,0,0,0,.42,1.37,1.43,1.43,0,0,0,1.17.5,2.24,2.24,0,0,0,.68-.09,2.78,2.78,0,0,0,.48-.2l.38-.2a.73.73,0,0,1,.35-.09.65.65,0,0,1,.4.11,1.1,1.1,0,0,1,.32.37l1.67,2.65A8.13,8.13,0,0,1,162,50.48,9.74,9.74,0,0,1,159,50.94Z"/><path class="cls-1" d="M172.16,33.34a9.37,9.37,0,0,1,2.27-2.79,4.71,4.71,0,0,1,3-1,3.72,3.72,0,0,1,2.29.66l-.36,4.09a.93.93,0,0,1-.31.55.9.9,0,0,1-.57.15,8.46,8.46,0,0,1-.93-.08,6.46,6.46,0,0,0-1.12-.1,3.84,3.84,0,0,0-1.36.23,3.28,3.28,0,0,0-1.05.62,4.22,4.22,0,0,0-.83,1,9.68,9.68,0,0,0-.7,1.33V50.62H167V29.93h3.28a1.7,1.7,0,0,1,1.16.3,1.9,1.9,0,0,1,.46,1Z"/><path class="cls-1" d="M181.4,32.8a12.33,12.33,0,0,1,4-2.46,13.83,13.83,0,0,1,4.78-.81,8.59,8.59,0,0,1,3.3.6A7.05,7.05,0,0,1,196,31.8a7.32,7.32,0,0,1,1.56,2.56,9.47,9.47,0,0,1,.54,3.25v13h-2.53a2.52,2.52,0,0,1-1.19-.22,1.6,1.6,0,0,1-.68-.92l-.44-1.33c-.52.46-1,.86-1.51,1.21a8.61,8.61,0,0,1-1.52.87,7.49,7.49,0,0,1-1.68.53,10.07,10.07,0,0,1-2,.18,8.14,8.14,0,0,1-2.49-.36,5.46,5.46,0,0,1-1.94-1.07,4.74,4.74,0,0,1-1.25-1.78,6.23,6.23,0,0,1-.45-2.45A5,5,0,0,1,181,43a5.55,5.55,0,0,1,2-2.07,12.66,12.66,0,0,1,3.78-1.55,26.06,26.06,0,0,1,5.91-.69V37.61a4.19,4.19,0,0,0-.82-2.86,3.06,3.06,0,0,0-2.37-.91,5.81,5.81,0,0,0-1.91.27,10,10,0,0,0-1.33.58l-1.08.59a2.39,2.39,0,0,1-1.16.27,1.65,1.65,0,0,1-1-.29,2.88,2.88,0,0,1-.65-.7ZM192.68,42a25.81,25.81,0,0,0-3.37.35,8.11,8.11,0,0,0-2.14.66,2.72,2.72,0,0,0-1.12.91,1.94,1.94,0,0,0-.34,1.11,2,2,0,0,0,.68,1.71,3.08,3.08,0,0,0,1.87.5,5.38,5.38,0,0,0,2.4-.49,7.19,7.19,0,0,0,2-1.54Z"/><path class="cls-1" d="M208.78,24a3,3,0,0,1-.28,1.31,3.54,3.54,0,0,1-1.86,1.79,3.57,3.57,0,0,1-1.35.26,3.35,3.35,0,0,1-1.3-.26,3.45,3.45,0,0,1-1.07-.73,3.4,3.4,0,0,1-.73-1.06,3,3,0,0,1-.28-1.31,3.08,3.08,0,0,1,.28-1.31,3.49,3.49,0,0,1,.73-1.08,3.6,3.6,0,0,1,1.07-.72,3.35,3.35,0,0,1,1.3-.26,3.57,3.57,0,0,1,1.35.26,3.79,3.79,0,0,1,1.11.72,3.73,3.73,0,0,1,.75,1.08A3.08,3.08,0,0,1,208.78,24Zm-.66,5.89V50.62h-5.54V29.93Z"/><path class="cls-1" d="M238.93,27.08a2.48,2.48,0,0,1-.57.67,1.26,1.26,0,0,1-.75.21,1.83,1.83,0,0,1-1-.31c-.34-.21-.74-.43-1.19-.67a11,11,0,0,0-1.57-.68,6.38,6.38,0,0,0-2.06-.31,4.55,4.55,0,0,0-3.14.94,3.12,3.12,0,0,0-1,2.43,2.29,2.29,0,0,0,.57,1.6,4.89,4.89,0,0,0,1.51,1.09,13.59,13.59,0,0,0,2.12.83c.79.24,1.59.5,2.42.79a23.46,23.46,0,0,1,2.43,1,8.54,8.54,0,0,1,2.12,1.47,6.76,6.76,0,0,1,1.51,2.16,7.56,7.56,0,0,1,.57,3.1,10,10,0,0,1-.69,3.72,8.9,8.9,0,0,1-2,3,9.06,9.06,0,0,1-3.22,2,11.88,11.88,0,0,1-4.35.74,13.61,13.61,0,0,1-2.76-.28,14.71,14.71,0,0,1-2.65-.78,14.15,14.15,0,0,1-2.4-1.2,10.7,10.7,0,0,1-2-1.57l1.77-2.85a1.85,1.85,0,0,1,.58-.53,1.51,1.51,0,0,1,.77-.21,2,2,0,0,1,1.14.4c.4.27.86.56,1.39.88a11.31,11.31,0,0,0,1.81.89,7,7,0,0,0,2.48.4,4.9,4.9,0,0,0,3.26-1,3.52,3.52,0,0,0,1.16-2.87,2.68,2.68,0,0,0-.57-1.78,4.64,4.64,0,0,0-1.5-1.15,11.76,11.76,0,0,0-2.11-.79c-.79-.22-1.6-.47-2.43-.73a19.53,19.53,0,0,1-2.43-1,7.39,7.39,0,0,1-2.1-1.48,7,7,0,0,1-1.5-2.29,8.83,8.83,0,0,1-.57-3.39,8,8,0,0,1,2.53-5.87,9.4,9.4,0,0,1,3.06-1.9,11,11,0,0,1,4.17-.73,13.93,13.93,0,0,1,4.86.82,10.87,10.87,0,0,1,3.79,2.25Z"/><path class="cls-1" d="M243.79,32.8a12.27,12.27,0,0,1,4-2.46,13.73,13.73,0,0,1,4.77-.81,8.61,8.61,0,0,1,3.31.6,7.14,7.14,0,0,1,2.47,1.67,7.44,7.44,0,0,1,1.55,2.56,9.47,9.47,0,0,1,.54,3.25v13h-2.53a2.52,2.52,0,0,1-1.19-.22,1.55,1.55,0,0,1-.67-.92l-.44-1.33c-.53.46-1,.86-1.52,1.21a8.27,8.27,0,0,1-1.52.87,7.57,7.57,0,0,1-1.67.53,10.18,10.18,0,0,1-2,.18,8.14,8.14,0,0,1-2.49-.36,5.54,5.54,0,0,1-1.94-1.07,4.74,4.74,0,0,1-1.25-1.78,6.23,6.23,0,0,1-.44-2.45,5,5,0,0,1,.58-2.29,5.59,5.59,0,0,1,2-2.07,12.48,12.48,0,0,1,3.77-1.55,26.06,26.06,0,0,1,5.91-.69V37.61a4.19,4.19,0,0,0-.82-2.86,3.06,3.06,0,0,0-2.37-.91,5.81,5.81,0,0,0-1.91.27,10.57,10.57,0,0,0-1.33.58l-1.07.59a2.46,2.46,0,0,1-1.17.27,1.6,1.6,0,0,1-1-.29,2.92,2.92,0,0,1-.66-.7ZM255.07,42a26,26,0,0,0-3.37.35,8.11,8.11,0,0,0-2.14.66,2.72,2.72,0,0,0-1.12.91,2.31,2.31,0,0,0,.34,2.82,3.11,3.11,0,0,0,1.88.5,5.44,5.44,0,0,0,2.4-.49,7.3,7.3,0,0,0,2-1.54Zm4.44-20.8-5.08,5.26a2.71,2.71,0,0,1-.79.6,2.64,2.64,0,0,1-1,.17h-3.33l2.81-4.9a2.29,2.29,0,0,1,.73-.85,2.54,2.54,0,0,1,1.32-.28Z"/><path class="cls-1" d="M270,32.34a12.21,12.21,0,0,1,1.29-1.11,9,9,0,0,1,1.43-.86,7.55,7.55,0,0,1,1.62-.56,8.21,8.21,0,0,1,1.9-.2,7.22,7.22,0,0,1,3,.58,6.18,6.18,0,0,1,2.2,1.62,7,7,0,0,1,1.35,2.49,10.65,10.65,0,0,1,.45,3.17V50.62h-5.52V37.47a4,4,0,0,0-.81-2.68,2.92,2.92,0,0,0-2.36-.95,5,5,0,0,0-2.19.5,7.71,7.71,0,0,0-1.95,1.41V50.62h-5.54V29.93h3.41a1.35,1.35,0,0,1,1.39,1Z"/><path class="cls-1" d="M305.9,20.69V50.62h-3.41a1.29,1.29,0,0,1-1.37-1l-.46-1.81a11.84,11.84,0,0,1-1.31,1.25,8.37,8.37,0,0,1-1.5,1,7,7,0,0,1-1.73.63,8.4,8.4,0,0,1-2,.22,6.61,6.61,0,0,1-3.05-.7,6.72,6.72,0,0,1-2.4-2.06,10.14,10.14,0,0,1-1.58-3.32,16.56,16.56,0,0,1-.56-4.49,14.14,14.14,0,0,1,.63-4.3,10.28,10.28,0,0,1,1.8-3.43,8.24,8.24,0,0,1,2.81-2.27,8,8,0,0,1,3.65-.82,7,7,0,0,1,2.84.5,7.57,7.57,0,0,1,2.1,1.36V20.69Zm-5.54,14.62a4.34,4.34,0,0,0-1.7-1.27,5.17,5.17,0,0,0-1.93-.36,4.37,4.37,0,0,0-1.83.38,3.58,3.58,0,0,0-1.41,1.2,6,6,0,0,0-.92,2.07,12.65,12.65,0,0,0-.32,3,14.4,14.4,0,0,0,.26,2.93,6,6,0,0,0,.75,1.94,2.93,2.93,0,0,0,1.2,1.08,3.63,3.63,0,0,0,1.56.33,4.87,4.87,0,0,0,2.46-.58,7.15,7.15,0,0,0,1.88-1.65Z"/><path class="cls-1" d="M319.83,29.61a11.47,11.47,0,0,1,4.24.74,9.2,9.2,0,0,1,3.27,2.12,9.39,9.39,0,0,1,2.11,3.34,13.69,13.69,0,0,1,0,8.88,9.47,9.47,0,0,1-2.11,3.36,9.09,9.09,0,0,1-3.27,2.13,11.47,11.47,0,0,1-4.24.74,11.62,11.62,0,0,1-4.26-.74,9,9,0,0,1-3.28-2.13,9.49,9.49,0,0,1-2.12-3.36,13.35,13.35,0,0,1,0-8.88,9.41,9.41,0,0,1,2.12-3.34,9.15,9.15,0,0,1,3.28-2.12A11.62,11.62,0,0,1,319.83,29.61Zm0,17.16a4,4,0,0,0,3.52-1.64,8.52,8.52,0,0,0,1.14-4.87,8.46,8.46,0,0,0-1.14-4.84,4.65,4.65,0,0,0-7.09,0,8.46,8.46,0,0,0-1.14,4.84,8.52,8.52,0,0,0,1.14,4.87A4.05,4.05,0,0,0,319.83,46.77Z"/><path class="cls-1" d="M338.88,33.34a9.37,9.37,0,0,1,2.27-2.79,4.71,4.71,0,0,1,3-1,3.72,3.72,0,0,1,2.29.66l-.36,4.09a.93.93,0,0,1-.31.55.9.9,0,0,1-.57.15,8.46,8.46,0,0,1-.93-.08,6.46,6.46,0,0,0-1.12-.1,3.74,3.74,0,0,0-1.35.23,3.22,3.22,0,0,0-1.06.62,4.48,4.48,0,0,0-.83,1,8.69,8.69,0,0,0-.69,1.33V50.62h-5.54V29.93H337a1.7,1.7,0,0,1,1.16.3,1.84,1.84,0,0,1,.46,1Z"/><path class="cls-2" d="M69.42,19c1.49-4.47,3.43-4.63,8.08-5v-2H60.25v1.86a12,12,0,0,1,5.32.85C61.69,25.38,61.38,32,62,43.46L35,19.92C32,17,31.64,12.34,34.57,9.41a7.53,7.53,0,0,1,10.64,0c2.46,2.6,3.85,4.75,5.38,10.15h1.82V14.74h0s0,0,0-.06V2.21H49.06L47.63,4.89A12.51,12.51,0,0,0,31,5.88c-4.88,4.88-4.68,13.71.2,18.59L67,61.16h6.7a43,43,0,0,1-4.93-10.42A57.9,57.9,0,0,1,69.42,19Z"/><path class="cls-3" d="M12.49,12.05H5.8a42.62,42.62,0,0,1,4.92,10.42,57.71,57.71,0,0,1-.63,31.7C8.6,58.64,6.66,58.8,2,59.17v2H19.26v-1.9a11.92,11.92,0,0,1-5.3-.84c3.87-10.6,4.18-17.25,3.6-28.67L43.33,52.09c3.81,3.8,4.54,8.78,1.61,11.71a7.53,7.53,0,0,1-10.64,0c-2.45-2.6-3.84-4.75-5.38-10.14H27.1v4.81h0V71h3.36l1.43-2.68a12.51,12.51,0,0,0,16.59-1c4.88-4.88,6.3-12.08-.21-18.59Z"/></svg>