<svg width="46" height="42" viewBox="0 0 46 42" fill="none" xmlns="http://www.w3.org/2000/svg">
<g clip-path="url(#clip0_891_711)">
<path d="M40.7549 10.3042C41.6467 7.60116 42.8052 7.50277 45.5885 7.28528V6.07874H35.2549V7.20243C36.8695 7.20243 37.8178 7.3992 38.438 7.72026C36.116 14.1517 35.9058 18.1597 36.2749 25.0986L20.1081 10.8428C18.3499 9.06662 18.1039 6.2548 19.862 4.47864C20.2805 4.05527 20.7775 3.7194 21.3246 3.49024C21.8716 3.26108 22.458 3.14312 23.0503 3.14312C23.6425 3.14312 24.2289 3.26108 24.776 3.49024C25.3231 3.7194 25.8201 4.05527 26.2385 4.47864C27.7148 6.05802 28.5452 7.3526 29.4627 10.6201H30.5545V7.7099C30.5545 7.7099 30.5545 7.68401 30.5545 7.67365V0.118515H28.5452L27.7045 1.73932C26.2612 0.593342 24.4521 0.0216011 22.6196 0.132295C20.7871 0.242988 19.0583 1.02844 17.7604 2.34C14.8336 5.29681 14.9566 10.6253 17.8835 13.5976L39.3247 35.8125H43.3434C42.0821 33.8543 41.0889 31.7327 40.3909 29.5054C38.7366 23.196 38.8627 16.545 40.7549 10.3042V10.3042Z" fill="url(#paint0_linear_891_711)"/>
<path d="M6.63233 6.07874H2.61369C3.87502 8.03693 4.86819 10.1586 5.56616 12.3859C7.21207 18.6951 7.08248 25.3431 5.19198 31.5819C4.30009 34.2901 3.14165 34.3885 0.348083 34.606V35.8125H10.6869V34.6681C9.07222 34.6681 8.12395 34.4713 7.50885 34.1503C9.82572 27.7292 10.0154 23.7005 9.66682 16.7875L25.1417 30.3183C27.4226 32.6227 27.8635 35.6365 26.1053 37.4126C25.6868 37.836 25.1899 38.1719 24.6428 38.401C24.0957 38.6302 23.5093 38.7481 22.9171 38.7481C22.3248 38.7481 21.7384 38.6302 21.1913 38.401C20.6442 38.1719 20.1473 37.836 19.7288 37.4126C18.2526 35.8591 17.4222 34.5387 16.5047 31.2712H15.4026V34.1814V34.2124V41.7727H17.4119L18.2679 40.1519C19.7117 41.2994 21.5218 41.872 23.3555 41.7613C25.1892 41.6506 26.919 40.8642 28.2171 39.5513C31.144 36.5944 31.9949 32.2343 28.0941 28.2936L6.63233 6.07874Z" fill="url(#paint1_linear_891_711)"/>
</g>
<defs>
<linearGradient id="paint0_linear_891_711" x1="15.6127" y1="17.9629" x2="45.5885" y2="17.9629" gradientUnits="userSpaceOnUse">
<stop stop-color="#FFCC03"/>
<stop offset="1" stop-color="#FF942E"/>
</linearGradient>
<linearGradient id="paint1_linear_891_711" x1="80.2346" y1="1724.49" x2="1879.05" y2="1724.49" gradientUnits="userSpaceOnUse">
<stop stop-color="#FFCC03"/>
<stop offset="1" stop-color="#FF942E"/>
</linearGradient>
<clipPath id="clip0_891_711">
<rect width="46" height="42" fill="white"/>
</clipPath>
</defs>
</svg>
