<svg width="12" height="9" viewBox="0 0 12 9" fill="none" xmlns="http://www.w3.org/2000/svg">
<path d="M10.9282 8.99997C11.198 8.99997 11.4317 8.91496 11.6304 8.7471L8.23059 5.50185C8.14902 5.5576 8.06995 5.61182 7.99527 5.66337C7.74084 5.84229 7.53435 5.98192 7.37579 6.08196C7.21724 6.18224 7.00631 6.28445 6.74299 6.3888C6.4795 6.49328 6.23403 6.54535 6.00632 6.54535H5.99965H5.99299C5.76525 6.54535 5.51978 6.4933 5.25631 6.3888C4.99285 6.28445 4.78191 6.18224 4.62352 6.08196C4.46498 5.98192 4.25859 5.84231 4.00403 5.66337C3.9331 5.61373 3.85443 5.55927 3.76937 5.50098L0.368927 8.7471C0.5676 8.91496 0.80148 8.99997 1.0712 8.99997H10.9282Z" fill="white"/>
<path d="M0.676411 3.45801C0.422008 3.29612 0.196407 3.1107 0 2.90186V7.83923L2.99656 4.979C2.39708 4.57951 1.62468 4.0731 0.676411 3.45801Z" fill="white"/>
<path d="M11.3303 3.45801C10.4182 4.04727 9.64303 4.55456 9.00461 4.98014L12 7.83936V2.90186C11.8079 3.1065 11.5847 3.29179 11.3303 3.45801Z" fill="white"/>
<path d="M10.9284 0H1.07136C0.727479 0 0.463098 0.11084 0.277889 0.332292C0.092528 0.553847 0 0.830927 0 1.16322C0 1.43163 0.12279 1.72245 0.36826 2.03578C0.613731 2.34898 0.874931 2.59499 1.15173 2.77394C1.30348 2.87627 1.76108 3.17993 2.52455 3.6848C2.93669 3.95741 3.2951 4.19502 3.6031 4.40006C3.86563 4.57466 4.09204 4.72587 4.27897 4.85135C4.30043 4.86572 4.33418 4.88876 4.37897 4.91933C4.42723 4.95241 4.4883 4.9944 4.56363 5.04633C4.70871 5.14648 4.82924 5.22743 4.92523 5.28928C5.02109 5.35115 5.13723 5.42025 5.27349 5.49699C5.40963 5.57362 5.53804 5.63124 5.65857 5.66957C5.77911 5.70787 5.8907 5.72709 5.99336 5.72709H6.00003H6.0067C6.10933 5.72709 6.22095 5.70787 6.34151 5.66957C6.46202 5.63124 6.59032 5.57374 6.72657 5.49699C6.86269 5.42025 6.97869 5.351 7.07485 5.28928C7.17085 5.22743 7.29137 5.1465 7.43647 5.04633C7.51165 4.9944 7.57272 4.95239 7.62098 4.91943C7.6658 4.88874 7.69952 4.86584 7.72111 4.85135C7.86673 4.75463 8.09366 4.60405 8.39876 4.40183C8.95393 4.03365 9.77154 3.49174 10.855 2.77394C11.1809 2.55669 11.4531 2.29452 11.672 1.9878C11.8904 1.68109 11.9999 1.35936 11.9999 1.02272C11.9999 0.741465 11.8937 0.500798 11.6818 0.30035C11.4697 0.100151 11.2185 0 10.9284 0Z" fill="white"/>
</svg>
