<svg width="234" height="49" viewBox="0 0 234 49" fill="none" xmlns="http://www.w3.org/2000/svg">
<g clip-path="url(#clip0_857_847)">
<path d="M76.8454 14.333V34.6353H74.7392C74.3995 34.6353 74.1277 34.5656 73.9238 34.4958C73.72 34.3563 73.5162 34.2167 73.3123 33.9377L63.3925 21.0307C63.3925 21.3795 63.4604 21.6586 63.4604 22.0074C63.4604 22.3563 63.4604 22.6353 63.4604 22.9144V34.6353H59.8594V14.333H62.0336C62.2374 14.333 62.3733 14.333 62.5092 14.333C62.6451 14.333 62.713 14.4028 62.8489 14.4028C62.9169 14.4725 63.0528 14.5423 63.1207 14.6121C63.1886 14.6818 63.3245 14.8214 63.3925 14.9609L73.3123 27.8679C73.2444 27.5191 73.2444 27.1702 73.2444 26.8214C73.2444 26.4725 73.2444 26.1935 73.2444 25.8446V14.333H76.8454Z" fill="#00296B"/>
<path d="M93.2203 20.1934L85.6106 38.5422C85.4747 38.8213 85.3388 39.0306 85.2029 39.1003C85.067 39.1701 84.7952 39.3096 84.3876 39.3096H81.6019L84.2517 33.4492L78.6123 20.1934H81.9416C82.2134 20.1934 82.4851 20.2631 82.621 20.4027C82.7569 20.5422 82.8928 20.6817 82.9607 20.891L85.6106 27.798C85.6785 28.0771 85.8144 28.3561 85.8823 28.6352C85.9503 28.9143 86.0182 29.1934 86.0862 29.4724C86.2221 28.9143 86.4259 28.3561 86.6297 27.798L89.1437 20.891C89.2116 20.6817 89.3475 20.5422 89.5513 20.4027C89.7552 20.2631 89.959 20.1934 90.1628 20.1934H93.2203Z" fill="#00296B"/>
<path d="M98.9954 16.0772C98.9954 16.426 98.9274 16.7051 98.7915 16.9841C98.6556 17.2632 98.5198 17.5423 98.248 17.7516C98.0441 17.9609 97.7724 18.1004 97.5006 18.24C97.2288 18.3795 96.8891 18.4493 96.5494 18.4493C96.2096 18.4493 95.9379 18.3795 95.6661 18.24C95.3943 18.1004 95.1225 17.9609 94.9187 17.7516C94.7149 17.5423 94.511 17.2632 94.4431 16.9841C94.3751 16.7051 94.2393 16.426 94.2393 16.0772C94.2393 15.7283 94.3072 15.4493 94.4431 15.1702C94.579 14.8911 94.7149 14.6121 94.9187 14.4028C95.1225 14.1935 95.3943 14.0539 95.6661 13.9144C95.9379 13.7748 96.2096 13.7051 96.5494 13.7051C96.8891 13.7051 97.1609 13.7748 97.5006 13.9144C97.7724 14.0539 98.0441 14.1935 98.248 14.4028C98.4518 14.6121 98.6556 14.8911 98.7915 15.1702C98.9274 15.4493 98.9954 15.7981 98.9954 16.0772ZM98.5877 20.1935V34.6353H94.8508V20.1935H98.5877Z" fill="#00296B"/>
<path d="M106.605 34.8444C105.994 34.8444 105.382 34.7747 104.906 34.5653C104.431 34.356 104.023 34.077 103.683 33.7281C103.344 33.3793 103.072 32.9607 102.936 32.4723C102.732 31.984 102.664 31.4258 102.664 30.7979V22.984H101.373C101.17 22.984 101.034 22.9142 100.83 22.7747C100.694 22.6351 100.626 22.4258 100.626 22.2165V20.6816L102.868 20.263L103.616 16.4956C103.683 16.077 104.023 15.8677 104.431 15.8677H106.401V20.263H110.002V22.984H106.401V30.5188C106.401 30.9374 106.469 31.2165 106.673 31.4956C106.877 31.7049 107.149 31.8444 107.488 31.8444C107.692 31.8444 107.828 31.8444 107.964 31.7747C108.1 31.7049 108.168 31.7049 108.304 31.6351C108.372 31.5653 108.508 31.5654 108.575 31.4956C108.643 31.4258 108.711 31.4258 108.847 31.4258C108.983 31.4258 109.051 31.4258 109.119 31.4956C109.187 31.5654 109.255 31.6351 109.323 31.7747L110.478 33.5886C109.934 34.0072 109.391 34.356 108.711 34.5653C108.032 34.7747 107.352 34.8444 106.605 34.8444Z" fill="#00296B"/>
<path d="M115.574 22.5657C116.05 21.7285 116.525 21.1006 117.137 20.6122C117.748 20.1239 118.428 19.9146 119.175 19.9146C119.787 19.9146 120.33 20.0541 120.738 20.4029L120.466 23.2634C120.398 23.4727 120.33 23.6122 120.262 23.682C120.194 23.7518 120.058 23.8215 119.855 23.8215C119.719 23.8215 119.515 23.8215 119.243 23.7518C118.971 23.682 118.7 23.682 118.496 23.682C118.156 23.682 117.816 23.7518 117.544 23.8215C117.273 23.8913 117.069 24.1006 116.797 24.2401C116.593 24.4494 116.389 24.6587 116.254 24.9378C116.118 25.2169 115.914 25.4959 115.778 25.8448V34.7052H112.041V20.1936H114.283C114.691 20.1936 114.963 20.2634 115.099 20.4029C115.234 20.5425 115.37 20.7518 115.438 21.1006L115.574 22.5657Z" fill="#00296B"/>
<path d="M121.893 22.2169C122.708 21.4494 123.659 20.8913 124.611 20.4727C125.562 20.0541 126.717 19.9146 127.872 19.9146C128.687 19.9146 129.435 20.0541 130.114 20.3332C130.793 20.6122 131.337 21.0308 131.813 21.5192C132.288 22.0076 132.628 22.6355 132.9 23.3332C133.171 24.0308 133.239 24.7983 133.239 25.6355V34.7052H131.541C131.201 34.7052 130.929 34.6355 130.725 34.5657C130.522 34.4959 130.386 34.2169 130.25 33.9378L129.978 33.0308C129.638 33.3797 129.299 33.6587 128.959 33.868C128.619 34.0773 128.28 34.2866 127.94 34.4959C127.6 34.7053 127.192 34.775 126.785 34.8448C126.377 34.9146 125.901 34.9843 125.426 34.9843C124.814 34.9843 124.271 34.9146 123.727 34.7052C123.252 34.5657 122.776 34.2866 122.436 33.9378C122.097 33.589 121.757 33.1704 121.553 32.682C121.349 32.1936 121.281 31.6355 121.281 31.0076C121.281 30.4494 121.417 29.9611 121.689 29.4029C121.961 28.8448 122.436 28.3564 123.048 27.9378C123.659 27.5192 124.543 27.1704 125.63 26.8913C126.717 26.6122 128.008 26.4727 129.638 26.4029V25.6355C129.638 24.7285 129.435 24.0308 129.095 23.6122C128.755 23.1936 128.212 22.9843 127.464 22.9843C126.921 22.9843 126.513 23.0541 126.173 23.1936C125.834 23.3332 125.494 23.4727 125.29 23.6122C125.018 23.7518 124.814 23.8913 124.543 24.0308C124.339 24.1704 124.067 24.2401 123.727 24.2401C123.455 24.2401 123.252 24.1704 123.048 24.0308C122.844 23.8913 122.708 23.7518 122.572 23.5425L121.893 22.2169ZM129.57 28.6355C128.619 28.7052 127.872 28.775 127.26 28.9146C126.649 29.0541 126.173 29.1936 125.834 29.4029C125.494 29.6122 125.222 29.8215 125.086 30.0308C124.95 30.2401 124.882 30.5192 124.882 30.7983C124.882 31.3564 125.018 31.775 125.358 31.9843C125.63 32.1936 126.105 32.3332 126.649 32.3332C127.26 32.3332 127.804 32.1936 128.28 31.9843C128.755 31.775 129.163 31.4262 129.638 30.9378V28.6355H129.57Z" fill="#00296B"/>
<path d="M140.509 16.0772C140.509 16.426 140.441 16.7051 140.305 16.9841C140.169 17.2632 140.033 17.5423 139.762 17.7516C139.558 17.9609 139.286 18.1004 139.014 18.24C138.742 18.3795 138.403 18.4493 138.063 18.4493C137.723 18.4493 137.452 18.3795 137.18 18.24C136.908 18.1004 136.636 17.9609 136.432 17.7516C136.229 17.5423 136.025 17.2632 135.957 16.9841C135.889 16.7051 135.753 16.426 135.753 16.0772C135.753 15.7283 135.821 15.4493 135.957 15.1702C136.093 14.8911 136.229 14.6121 136.432 14.4028C136.636 14.1935 136.908 14.0539 137.18 13.9144C137.452 13.7748 137.723 13.7051 138.063 13.7051C138.403 13.7051 138.675 13.7748 139.014 13.9144C139.286 14.0539 139.558 14.1935 139.762 14.4028C139.965 14.6121 140.169 14.8911 140.305 15.1702C140.441 15.4493 140.509 15.7981 140.509 16.0772ZM140.033 20.1935V34.6353H136.296V20.1935H140.033Z" fill="#00296B"/>
<path d="M160.961 18.2401C160.825 18.4494 160.689 18.589 160.553 18.7285C160.417 18.7983 160.281 18.868 160.009 18.868C159.806 18.868 159.602 18.7983 159.33 18.6587C159.126 18.5192 158.854 18.3797 158.515 18.1704C158.175 18.0308 157.835 17.8215 157.427 17.682C157.02 17.5425 156.544 17.4727 156.001 17.4727C155.049 17.4727 154.37 17.682 153.894 18.1006C153.419 18.5192 153.215 19.0773 153.215 19.775C153.215 20.1936 153.351 20.6122 153.623 20.8913C153.894 21.1704 154.234 21.4494 154.642 21.6587C155.049 21.868 155.525 22.0773 156.069 22.2169C156.612 22.3564 157.156 22.5657 157.699 22.775C158.243 22.9843 158.786 23.1936 159.33 23.4727C159.873 23.7518 160.349 24.1006 160.757 24.5192C161.164 24.9378 161.504 25.4262 161.776 26.0541C162.048 26.682 162.184 27.3797 162.184 28.2169C162.184 29.1239 162.048 30.0308 161.708 30.7983C161.368 31.6355 160.961 32.3332 160.349 32.8913C159.738 33.5192 159.058 33.9378 158.175 34.2866C157.292 34.6355 156.34 34.775 155.253 34.775C154.642 34.775 154.03 34.7052 153.351 34.5657C152.739 34.4262 152.128 34.2866 151.584 34.0076C151.041 33.7983 150.497 33.5192 149.954 33.1704C149.41 32.8215 149.002 32.4727 148.595 32.0541L149.818 30.0308C149.886 29.8913 150.022 29.7518 150.225 29.682C150.361 29.6122 150.565 29.5425 150.769 29.5425C151.041 29.5425 151.245 29.6122 151.516 29.8215C151.788 30.0308 152.128 30.2401 152.468 30.4494C152.807 30.6587 153.215 30.868 153.691 31.0773C154.166 31.2866 154.71 31.3564 155.389 31.3564C156.34 31.3564 157.088 31.1471 157.631 30.6587C158.175 30.1704 158.447 29.5425 158.447 28.6355C158.447 28.1471 158.311 27.7285 158.039 27.3797C157.767 27.0308 157.427 26.8215 157.02 26.6122C156.612 26.4029 156.137 26.1936 155.593 26.0541C155.049 25.9145 154.506 25.7052 153.962 25.5657C153.419 25.3564 152.875 25.1471 152.332 24.868C151.788 24.589 151.312 24.2401 150.905 23.8215C150.497 23.4029 150.157 22.8448 149.886 22.2169C149.614 21.589 149.478 20.8215 149.478 19.8448C149.478 19.0773 149.614 18.3797 149.886 17.6122C150.157 16.9145 150.633 16.2866 151.177 15.7285C151.72 15.1704 152.468 14.7518 153.283 14.4029C154.098 14.0541 155.049 13.9146 156.137 13.9146C157.36 13.9146 158.447 14.1239 159.466 14.4727C160.485 14.8215 161.368 15.3797 162.048 16.0773L160.961 18.2401Z" fill="#00296B"/>
<path d="M164.289 22.2166C165.105 21.4491 166.056 20.891 167.007 20.4724C167.958 20.0538 169.113 19.9142 170.268 19.9142C171.084 19.9142 171.831 20.0538 172.51 20.3328C173.19 20.6119 173.733 21.0305 174.209 21.5189C174.685 22.0073 175.024 22.6352 175.296 23.3328C175.568 24.0305 175.636 24.798 175.636 25.6352V34.7049H173.937C173.598 34.7049 173.326 34.6352 173.122 34.5654C172.918 34.4956 172.782 34.2166 172.646 33.9375L172.375 33.0305C172.035 33.3793 171.695 33.6584 171.355 33.8677C171.016 34.077 170.676 34.2863 170.336 34.4956C169.997 34.7049 169.589 34.7747 169.181 34.8445C168.774 34.9142 168.298 34.984 167.822 34.984C167.211 34.984 166.667 34.9142 166.124 34.7049C165.648 34.5654 165.173 34.2863 164.833 33.9375C164.493 33.5886 164.153 33.17 163.95 32.6817C163.746 32.1933 163.678 31.6352 163.678 31.0073C163.678 30.4491 163.814 29.9607 164.085 29.4026C164.357 28.8445 164.833 28.3561 165.444 27.9375C166.056 27.5189 166.939 27.17 168.026 26.891C169.113 26.6119 170.404 26.4724 172.035 26.4026V25.6352C172.035 24.7282 171.831 24.0305 171.491 23.6119C171.152 23.1933 170.608 22.984 169.861 22.984C169.317 22.984 168.909 23.0538 168.57 23.1933C168.23 23.3328 167.89 23.4724 167.686 23.6119C167.415 23.7514 167.211 23.891 166.939 24.0305C166.735 24.17 166.463 24.2398 166.124 24.2398C165.852 24.2398 165.648 24.17 165.444 24.0305C165.24 23.891 165.105 23.7514 164.969 23.5421L164.289 22.2166ZM171.967 28.6352C171.016 28.7049 170.268 28.7747 169.657 28.9142C169.045 29.0538 168.57 29.1933 168.23 29.4026C167.89 29.6119 167.618 29.8212 167.483 30.0305C167.347 30.2398 167.279 30.5189 167.279 30.798C167.279 31.3561 167.415 31.7747 167.754 31.984C168.026 32.1933 168.502 32.3328 169.045 32.3328C169.657 32.3328 170.2 32.1933 170.676 31.984C171.152 31.7747 171.559 31.4259 172.035 30.9375V28.6352H171.967ZM174.956 14.1235L171.491 17.8212C171.287 18.0305 171.152 18.17 170.948 18.2398C170.744 18.3096 170.54 18.3793 170.268 18.3793H168.026L169.929 14.9607C170.064 14.6817 170.2 14.4724 170.404 14.4026C170.608 14.2631 170.88 14.1933 171.287 14.1933H174.956V14.1235Z" fill="#00296B"/>
<path d="M182.023 21.868C182.295 21.589 182.566 21.3099 182.906 21.1006C183.178 20.8913 183.518 20.682 183.857 20.4727C184.197 20.2634 184.537 20.1936 184.944 20.0541C185.352 19.9843 185.76 19.9146 186.235 19.9146C186.983 19.9146 187.662 20.0541 188.274 20.3332C188.885 20.6122 189.361 20.9611 189.768 21.4494C190.176 21.9378 190.448 22.4959 190.652 23.1936C190.856 23.8913 190.991 24.589 190.991 25.4262V34.5657H187.254V25.4959C187.254 24.6587 187.051 24.1006 186.711 23.6122C186.371 23.1936 185.828 22.9146 185.08 22.9146C184.537 22.9146 184.061 23.0541 183.585 23.2634C183.11 23.4727 182.702 23.8215 182.295 24.2401V34.6355H178.558V20.1936H180.868C181.343 20.1936 181.683 20.4029 181.819 20.8913L182.023 21.868Z" fill="#00296B"/>
<path d="M206.483 13.7749V34.6354H204.173C203.698 34.6354 203.358 34.4261 203.222 33.9377L202.882 32.6819C202.611 33.0307 202.271 33.3098 201.999 33.5191C201.659 33.7982 201.32 34.0075 200.98 34.2168C200.64 34.4261 200.233 34.5656 199.825 34.6354C199.417 34.7051 198.942 34.7749 198.466 34.7749C197.719 34.7749 197.039 34.6354 196.36 34.2865C195.748 33.9377 195.205 33.4493 194.729 32.8214C194.254 32.1935 193.914 31.4261 193.642 30.5191C193.37 29.6121 193.234 28.5656 193.234 27.3796C193.234 26.333 193.37 25.2865 193.642 24.3796C193.914 23.4726 194.321 22.6354 194.865 22.0075C195.409 21.3098 196.02 20.8214 196.767 20.4028C197.515 20.054 198.33 19.8447 199.281 19.8447C200.029 19.8447 200.708 19.9842 201.184 20.1935C201.727 20.4028 202.203 20.7516 202.611 21.1703V13.7749H206.483ZM202.679 23.9609C202.339 23.5423 201.931 23.2633 201.524 23.054C201.116 22.8447 200.64 22.7749 200.233 22.7749C199.757 22.7749 199.349 22.8447 199.01 23.054C198.67 23.2633 198.33 23.5423 198.058 23.8912C197.787 24.24 197.583 24.7284 197.447 25.3563C197.311 25.9144 197.243 26.6121 197.243 27.4493C197.243 28.2865 197.311 28.9144 197.447 29.4726C197.583 30.0307 197.719 30.5191 197.99 30.7982C198.194 31.147 198.466 31.4261 198.806 31.5656C199.146 31.7051 199.485 31.7749 199.893 31.7749C200.572 31.7749 201.116 31.6354 201.592 31.3563C202.067 31.0772 202.475 30.7284 202.882 30.24V23.9609H202.679Z" fill="#00296B"/>
<path d="M215.927 19.9839C217.014 19.9839 217.965 20.1234 218.781 20.4723C219.664 20.8211 220.411 21.3095 221.023 21.9374C221.634 22.5653 222.11 23.3327 222.45 24.2397C222.789 25.1467 222.925 26.1932 222.925 27.3095C222.925 28.4257 222.789 29.4723 222.45 30.3792C222.11 31.2862 221.634 32.0537 221.023 32.7513C220.411 33.3792 219.664 33.8676 218.781 34.2164C217.898 34.5653 216.946 34.7048 215.927 34.7048C214.84 34.7048 213.889 34.5653 213.006 34.2164C212.122 33.8676 211.375 33.3792 210.763 32.7513C210.152 32.1234 209.676 31.356 209.337 30.3792C208.997 29.4723 208.793 28.4257 208.793 27.3095C208.793 26.1932 208.997 25.1467 209.337 24.2397C209.676 23.3327 210.152 22.5653 210.763 21.9374C211.375 21.3095 212.122 20.8211 213.006 20.4723C213.889 20.1234 214.908 19.9839 215.927 19.9839ZM215.927 31.9839C217.014 31.9839 217.83 31.635 218.305 30.8676C218.849 30.1002 219.053 28.9839 219.053 27.449C219.053 25.9839 218.781 24.7978 218.305 24.1002C217.762 23.3327 217.014 22.9839 215.927 22.9839C214.84 22.9839 214.025 23.3327 213.481 24.1002C212.938 24.8676 212.734 25.9839 212.734 27.449C212.734 28.9839 213.006 30.1002 213.481 30.8676C214.025 31.5653 214.84 31.9839 215.927 31.9839Z" fill="#00296B"/>
<path d="M228.905 22.5657C229.381 21.7285 229.856 21.1006 230.468 20.6122C231.079 20.1239 231.759 19.9146 232.506 19.9146C233.118 19.9146 233.661 20.0541 234.069 20.4029L233.797 23.2634C233.729 23.4727 233.661 23.6122 233.593 23.682C233.525 23.7518 233.389 23.8215 233.186 23.8215C233.05 23.8215 232.846 23.8215 232.574 23.7518C232.302 23.682 232.031 23.682 231.827 23.682C231.487 23.682 231.147 23.7518 230.876 23.8215C230.604 23.8913 230.4 24.1006 230.128 24.2401C229.924 24.4494 229.72 24.6587 229.585 24.9378C229.449 25.2169 229.245 25.4959 229.109 25.8448V34.7052H225.372V20.1936H227.614C228.022 20.1936 228.294 20.2634 228.43 20.4029C228.565 20.5425 228.701 20.7518 228.769 21.1006L228.905 22.5657Z" fill="#00296B"/>
<path d="M45.7941 12.426C46.8132 9.28647 48.1042 9.21671 51.2976 8.93764V7.54229H39.5432V8.86787C41.3777 8.86787 42.4648 9.07717 43.1443 9.49578C40.4944 16.8911 40.2906 21.5655 40.6983 29.519L22.4213 13.0539C20.4509 11.0307 20.1791 7.75159 22.1495 5.72833C23.1007 4.75159 24.3916 4.19345 25.7505 4.19345C27.1094 4.19345 28.4003 4.75159 29.3516 5.72833C31.0502 7.54229 31.9334 9.0074 33.0206 12.7748H34.2436V9.42601C34.2436 9.42601 34.2436 9.42601 34.2436 9.35624V0.705078H31.9334L30.9822 2.5888C29.4875 1.33299 27.653 0.705078 25.7505 0.705078C23.5084 0.705078 21.3341 1.61205 19.7035 3.28647C16.3742 6.70508 16.5101 12.8446 19.8394 16.2632L44.1634 41.8679H48.7157C47.3568 39.7051 46.2017 37.2632 45.3864 34.6121C43.484 27.2865 43.6199 19.6121 45.7941 12.426Z" fill="#FDC500"/>
<path d="M7.13415 7.54248H2.58188C3.94077 9.70527 5.09582 12.1471 5.91115 14.7983C7.74564 22.0541 7.60976 29.7285 5.50348 36.9146C4.48432 40.0541 3.19338 40.1239 0 40.403V41.7983H11.6864V40.4727C9.85192 40.4727 8.76481 40.2634 8.08537 39.9146C10.7352 32.5192 10.939 27.8448 10.5314 19.8913L28.061 35.4495C30.6429 38.1006 31.1185 41.589 29.1481 43.6123C28.1969 44.589 26.9059 45.1471 25.547 45.1471C24.1882 45.1471 22.8972 44.589 21.946 43.6123C20.2474 41.7983 19.3641 40.3332 18.277 36.5657H17.054V39.9146C17.054 39.9146 17.054 39.9146 17.054 39.9843V48.7053H19.3641L20.3153 46.8216C21.8101 48.0076 23.6446 48.7053 25.547 48.7053C27.7892 48.7053 29.9634 47.7983 31.5941 46.1239C34.9233 42.7053 35.8746 37.682 31.4582 33.1471L7.13415 7.54248Z" fill="#FDC500"/>
</g>
<defs>
<clipPath id="clip0_857_847">
<rect width="234" height="48" fill="white" transform="translate(0 0.705078)"/>
</clipPath>
</defs>
</svg>
