<?xml version="1.0" encoding="utf-8"?>
<!-- Generator: Adobe Illustrator 25.3.1, SVG Export Plug-In . SVG Version: 6.00 Build 0)  -->
<svg version="1.1" id="Layer_3" xmlns="http://www.w3.org/2000/svg" xmlns:xlink="http://www.w3.org/1999/xlink" x="0px" y="0px"
	 viewBox="0 0 512 512" style="enable-background:new 0 0 512 512;" xml:space="preserve">
<style type="text/css">
	.st0{fill:#FFFFFF;}
</style>
<g>
	<path class="st0" d="M500.9,390.6c-16-13.4-109.7-72.8-125.3-70c-7.3,1.3-12.9,7.5-27.9,25.4c-6.9,8.8-14.5,17-22.7,24.6
		c-15.1-3.6-29.6-9-43.4-16.1c-54.1-26.3-97.7-70-124.1-124.1c-7.1-13.8-12.5-28.4-16.1-43.4c7.6-8.2,15.8-15.8,24.6-22.7
		c17.8-15,24.1-20.5,25.4-27.9c2.7-15.6-56.7-109.3-70-125.3C115.8,4.4,110.7,0,104.2,0C85.4,0,0,105.5,0,119.2
		c0,1.1,1.8,111,140.6,252.2C281.8,510.2,391.7,512,392.8,512c13.7,0,119.2-85.4,119.2-104.2C512,401.3,507.6,396.2,500.9,390.6
		L500.9,390.6z"/>
	<path class="st0" d="M384,237.7h36.6C420.5,157,355,91.5,274.3,91.4V128C334.9,128.1,383.9,177.1,384,237.7z"/>
	<path class="st0" d="M475.4,237.7H512C511.8,106.5,405.5,0.2,274.3,0v36.6C385.3,36.7,475.3,126.7,475.4,237.7z"/>
</g>
</svg>
