<svg width="12" height="12" viewBox="0 0 12 12" fill="none" xmlns="http://www.w3.org/2000/svg">
<g clip-path="url(#clip0_857_967)">
<path d="M11.0224 8.76C10.6946 8.48513 8.77238 7.26788 8.45288 7.32375C8.30288 7.35038 8.18813 7.47825 7.881 7.84463C7.73897 8.02496 7.58299 8.19385 7.4145 8.34975C7.10579 8.27518 6.80698 8.16441 6.52425 8.01975C5.41548 7.47994 4.51974 6.58393 3.98025 5.475C3.83559 5.19228 3.72482 4.89346 3.65025 4.58475C3.80615 4.41626 3.97504 4.26028 4.15538 4.11825C4.52138 3.81113 4.64963 3.69712 4.67625 3.54637C4.73213 3.22613 3.51375 1.30463 3.24 0.976875C3.12525 0.841125 3.021 0.75 2.8875 0.75C2.5005 0.75 0.75 2.9145 0.75 3.195C0.75 3.21788 0.7875 5.47125 3.63338 8.36663C6.52875 11.2125 8.78212 11.25 8.805 11.25C9.0855 11.25 11.25 9.4995 11.25 9.1125C11.25 8.979 11.1589 8.87475 11.0224 8.76Z" fill="white"/>
<path d="M8.625 5.625H9.375C9.37411 4.82962 9.05775 4.06708 8.49533 3.50467C7.93292 2.94225 7.17038 2.62589 6.375 2.625V3.375C6.97155 3.3756 7.5435 3.61284 7.96533 4.03467C8.38716 4.4565 8.6244 5.02845 8.625 5.625Z" fill="white"/>
<path d="M10.5 5.625H11.25C11.2485 4.33253 10.7344 3.09342 9.8205 2.1795C8.90658 1.26558 7.66747 0.751489 6.375 0.75V1.5C7.46862 1.50129 8.51708 1.9363 9.29039 2.70961C10.0637 3.48292 10.4987 4.53138 10.5 5.625Z" fill="white"/>
</g>
<defs>
<clipPath id="clip0_857_967">
<rect width="12" height="12" fill="white"/>
</clipPath>
</defs>
</svg>
